<svg width="15" height="15" viewBox="0 0 15 15" fill="none" xmlns="http://www.w3.org/2000/svg">
<circle cx="7.5" cy="7.5" r="7.5" fill="#92CBAD"/>
<path d="M7.894 13.14C6.89533 13.14 5.976 12.9067 5.136 12.44C4.296 11.964 3.63333 11.3107 3.148 10.48C2.66267 9.64 2.42 8.70667 2.42 7.68C2.42 6.59733 2.66267 5.64067 3.148 4.81C3.63333 3.97933 4.28667 3.34 5.108 2.892C5.92933 2.43467 6.83 2.206 7.81 2.206C8.75267 2.206 9.546 2.374 10.19 2.71C10.8433 3.03667 11.4593 3.49867 12.038 4.096C12.0567 4.11467 12.0847 4.124 12.122 4.124C12.178 4.124 12.276 4.082 12.416 3.998L12.584 4.208L10.652 5.734L10.484 5.524C10.54 5.48667 10.582 5.44 10.61 5.384C10.6473 5.31867 10.6473 5.272 10.61 5.244C10.218 4.86133 9.80733 4.572 9.378 4.376C8.958 4.17067 8.44467 4.068 7.838 4.068C7.20333 4.068 6.62 4.22667 6.088 4.544C5.556 4.852 5.136 5.28133 4.828 5.832C4.52 6.38267 4.366 6.99867 4.366 7.68C4.366 8.33333 4.52933 8.93067 4.856 9.472C5.18267 10.004 5.61667 10.424 6.158 10.732C6.69933 11.04 7.278 11.194 7.894 11.194C8.47267 11.194 8.96733 11.096 9.378 10.9C9.78867 10.6947 10.176 10.3913 10.54 9.99L10.568 9.934C10.568 9.88733 10.5447 9.836 10.498 9.78C10.4607 9.71467 10.4187 9.668 10.372 9.64L10.554 9.444L12.64 11.194L12.472 11.404C12.416 11.3573 12.346 11.3153 12.262 11.278C12.178 11.2407 12.122 11.2407 12.094 11.278C11.506 11.9127 10.89 12.384 10.246 12.692C9.602 12.9907 8.818 13.14 7.894 13.14Z" fill="white"/>
</svg>
