<svg width="388" height="131" viewBox="0 0 388 131" fill="none" xmlns="http://www.w3.org/2000/svg">
<path d="M136.486 84L135.55 80.94H130.87L129.934 84H127L131.536 71.094H134.866L139.42 84H136.486ZM133.966 75.666C133.906 75.462 133.828 75.204 133.732 74.892C133.636 74.58 133.54 74.262 133.444 73.938C133.348 73.614 133.27 73.332 133.21 73.092C133.15 73.332 133.066 73.632 132.958 73.992C132.862 74.34 132.766 74.676 132.67 75C132.586 75.312 132.52 75.534 132.472 75.666L131.554 78.654H134.902L133.966 75.666ZM153.323 76.746C153.323 77.274 153.155 77.724 152.819 78.096C152.495 78.468 152.009 78.708 151.361 78.816V78.888C152.045 78.972 152.591 79.206 152.999 79.59C153.419 79.974 153.629 80.466 153.629 81.066C153.629 81.486 153.545 81.876 153.377 82.236C153.221 82.596 152.969 82.908 152.621 83.172C152.273 83.436 151.823 83.64 151.271 83.784C150.731 83.928 150.071 84 149.291 84H144.611V74.172H149.291C150.059 74.172 150.743 74.256 151.343 74.424C151.955 74.58 152.435 74.844 152.783 75.216C153.143 75.588 153.323 76.098 153.323 76.746ZM150.857 80.922C150.857 80.538 150.707 80.262 150.407 80.094C150.107 79.914 149.657 79.824 149.057 79.824H147.293V82.146H149.111C149.615 82.146 150.029 82.056 150.353 81.876C150.689 81.684 150.857 81.366 150.857 80.922ZM150.605 76.962C150.605 76.65 150.485 76.422 150.245 76.278C150.005 76.134 149.651 76.062 149.183 76.062H147.293V78.006H148.877C149.441 78.006 149.867 77.928 150.155 77.772C150.455 77.604 150.605 77.334 150.605 76.962ZM167.847 76.188H164.625V84H161.943V76.188H158.721V74.172H167.847V76.188ZM173.692 73.974C175.012 73.974 176.02 74.262 176.716 74.838C177.424 75.402 177.778 76.272 177.778 77.448V84H175.906L175.384 82.668H175.312C175.036 83.016 174.748 83.304 174.448 83.532C174.16 83.76 173.824 83.922 173.44 84.018C173.068 84.126 172.606 84.18 172.054 84.18C171.478 84.18 170.956 84.072 170.488 83.856C170.032 83.628 169.672 83.286 169.408 82.83C169.144 82.362 169.012 81.774 169.012 81.066C169.012 80.022 169.378 79.254 170.11 78.762C170.842 78.258 171.94 77.982 173.404 77.934L175.114 77.88V77.448C175.114 76.932 174.976 76.554 174.7 76.314C174.436 76.074 174.064 75.954 173.584 75.954C173.104 75.954 172.636 76.026 172.18 76.17C171.724 76.302 171.268 76.47 170.812 76.674L169.93 74.856C170.458 74.58 171.04 74.364 171.676 74.208C172.324 74.052 172.996 73.974 173.692 73.974ZM174.07 79.482C173.206 79.506 172.606 79.662 172.27 79.95C171.934 80.238 171.766 80.616 171.766 81.084C171.766 81.492 171.886 81.786 172.126 81.966C172.366 82.134 172.678 82.218 173.062 82.218C173.638 82.218 174.124 82.05 174.52 81.714C174.916 81.366 175.114 80.88 175.114 80.256V79.446L174.07 79.482ZM186.967 74.172H189.919L186.031 78.888L190.261 84H187.219L183.205 79.014V84H180.523V74.172H183.205V78.942L186.967 74.172ZM194.26 78.06C194.26 78.264 194.248 78.516 194.224 78.816C194.212 79.116 194.194 79.422 194.17 79.734C194.158 80.046 194.14 80.322 194.116 80.562C194.092 80.802 194.074 80.97 194.062 81.066L198.598 74.172H201.82V84H199.228V80.076C199.228 79.752 199.24 79.398 199.264 79.014C199.288 78.618 199.312 78.252 199.336 77.916C199.372 77.568 199.396 77.304 199.408 77.124L194.89 84H191.668V74.172H194.26V78.06ZM206.639 78.978L203.471 74.172H206.513L208.421 77.304L210.347 74.172H213.389L210.185 78.978L213.533 84H210.491L208.421 80.634L206.351 84H203.309L206.639 78.978ZM231.192 74.172V84H228.69V79.176C228.69 78.696 228.696 78.228 228.708 77.772C228.732 77.316 228.762 76.896 228.798 76.512H228.744L226.026 84H224.01L221.256 76.494H221.184C221.232 76.89 221.262 77.316 221.274 77.772C221.298 78.216 221.31 78.708 221.31 79.248V84H218.808V74.172H222.606L225.054 80.832L227.538 74.172H231.192ZM238.028 73.974C239.348 73.974 240.356 74.262 241.052 74.838C241.76 75.402 242.114 76.272 242.114 77.448V84H240.242L239.72 82.668H239.648C239.372 83.016 239.084 83.304 238.784 83.532C238.496 83.76 238.16 83.922 237.776 84.018C237.404 84.126 236.942 84.18 236.39 84.18C235.814 84.18 235.292 84.072 234.824 83.856C234.368 83.628 234.008 83.286 233.744 82.83C233.48 82.362 233.348 81.774 233.348 81.066C233.348 80.022 233.714 79.254 234.446 78.762C235.178 78.258 236.276 77.982 237.74 77.934L239.45 77.88V77.448C239.45 76.932 239.312 76.554 239.036 76.314C238.772 76.074 238.4 75.954 237.92 75.954C237.44 75.954 236.972 76.026 236.516 76.17C236.06 76.302 235.604 76.47 235.148 76.674L234.266 74.856C234.794 74.58 235.376 74.364 236.012 74.208C236.66 74.052 237.332 73.974 238.028 73.974ZM238.406 79.482C237.542 79.506 236.942 79.662 236.606 79.95C236.27 80.238 236.102 80.616 236.102 81.084C236.102 81.492 236.222 81.786 236.462 81.966C236.702 82.134 237.014 82.218 237.398 82.218C237.974 82.218 238.46 82.05 238.856 81.714C239.252 81.366 239.45 80.88 239.45 80.256V79.446L238.406 79.482ZM259.493 74.172V84H244.859V74.172H247.541V81.984H250.835V74.172H253.517V81.984H256.811V74.172H259.493ZM264.889 78.06C264.889 78.264 264.877 78.516 264.853 78.816C264.841 79.116 264.823 79.422 264.799 79.734C264.787 80.046 264.769 80.322 264.745 80.562C264.721 80.802 264.703 80.97 264.691 81.066L269.227 74.172H272.449V84H269.857V80.076C269.857 79.752 269.869 79.398 269.893 79.014C269.917 78.618 269.941 78.252 269.965 77.916C270.001 77.568 270.025 77.304 270.037 77.124L265.519 84H262.297V74.172H264.889V78.06ZM277.934 74.172V77.952H281.678V74.172H284.36V84H281.678V79.95H277.934V84H275.252V74.172H277.934ZM291.202 73.974C292.522 73.974 293.53 74.262 294.226 74.838C294.934 75.402 295.288 76.272 295.288 77.448V84H293.416L292.894 82.668H292.822C292.546 83.016 292.258 83.304 291.958 83.532C291.67 83.76 291.334 83.922 290.95 84.018C290.578 84.126 290.116 84.18 289.564 84.18C288.988 84.18 288.466 84.072 287.998 83.856C287.542 83.628 287.182 83.286 286.918 82.83C286.654 82.362 286.522 81.774 286.522 81.066C286.522 80.022 286.888 79.254 287.62 78.762C288.352 78.258 289.45 77.982 290.914 77.934L292.624 77.88V77.448C292.624 76.932 292.486 76.554 292.21 76.314C291.946 76.074 291.574 75.954 291.094 75.954C290.614 75.954 290.146 76.026 289.69 76.17C289.234 76.302 288.778 76.47 288.322 76.674L287.44 74.856C287.968 74.58 288.55 74.364 289.186 74.208C289.834 74.052 290.506 73.974 291.202 73.974ZM291.58 79.482C290.716 79.506 290.116 79.662 289.78 79.95C289.444 80.238 289.276 80.616 289.276 81.084C289.276 81.492 289.396 81.786 289.636 81.966C289.876 82.134 290.188 82.218 290.572 82.218C291.148 82.218 291.634 82.05 292.03 81.714C292.426 81.366 292.624 80.88 292.624 80.256V79.446L291.58 79.482ZM300.049 78.978L296.881 74.172H299.923L301.831 77.304L303.757 74.172H306.799L303.595 78.978L306.943 84H303.901L301.831 80.634L299.761 84H296.719L300.049 78.978ZM320.93 76.746C320.93 77.274 320.762 77.724 320.426 78.096C320.102 78.468 319.616 78.708 318.968 78.816V78.888C319.652 78.972 320.198 79.206 320.606 79.59C321.026 79.974 321.236 80.466 321.236 81.066C321.236 81.486 321.152 81.876 320.984 82.236C320.828 82.596 320.576 82.908 320.228 83.172C319.88 83.436 319.43 83.64 318.878 83.784C318.338 83.928 317.678 84 316.898 84H312.218V74.172H316.898C317.666 74.172 318.35 74.256 318.95 74.424C319.562 74.58 320.042 74.844 320.39 75.216C320.75 75.588 320.93 76.098 320.93 76.746ZM318.464 80.922C318.464 80.538 318.314 80.262 318.014 80.094C317.714 79.914 317.264 79.824 316.664 79.824H314.9V82.146H316.718C317.222 82.146 317.636 82.056 317.96 81.876C318.296 81.684 318.464 81.366 318.464 80.922ZM318.212 76.962C318.212 76.65 318.092 76.422 317.852 76.278C317.612 76.134 317.258 76.062 316.79 76.062H314.9V78.006H316.484C317.048 78.006 317.474 77.928 317.762 77.772C318.062 77.604 318.212 77.334 318.212 76.962ZM327.571 73.974C328.891 73.974 329.899 74.262 330.595 74.838C331.303 75.402 331.657 76.272 331.657 77.448V84H329.785L329.263 82.668H329.191C328.915 83.016 328.627 83.304 328.327 83.532C328.039 83.76 327.703 83.922 327.319 84.018C326.947 84.126 326.485 84.18 325.933 84.18C325.357 84.18 324.835 84.072 324.367 83.856C323.911 83.628 323.551 83.286 323.287 82.83C323.023 82.362 322.891 81.774 322.891 81.066C322.891 80.022 323.257 79.254 323.989 78.762C324.721 78.258 325.819 77.982 327.283 77.934L328.993 77.88V77.448C328.993 76.932 328.855 76.554 328.579 76.314C328.315 76.074 327.943 75.954 327.463 75.954C326.983 75.954 326.515 76.026 326.059 76.17C325.603 76.302 325.147 76.47 324.691 76.674L323.809 74.856C324.337 74.58 324.919 74.364 325.555 74.208C326.203 74.052 326.875 73.974 327.571 73.974ZM327.949 79.482C327.085 79.506 326.485 79.662 326.149 79.95C325.813 80.238 325.645 80.616 325.645 81.084C325.645 81.492 325.765 81.786 326.005 81.966C326.245 82.134 326.557 82.218 326.941 82.218C327.517 82.218 328.003 82.05 328.399 81.714C328.795 81.366 328.993 80.88 328.993 80.256V79.446L327.949 79.482ZM346.786 74.172V84H344.284V79.176C344.284 78.696 344.29 78.228 344.302 77.772C344.326 77.316 344.356 76.896 344.392 76.512H344.338L341.62 84H339.604L336.85 76.494H336.778C336.826 76.89 336.856 77.316 336.868 77.772C336.892 78.216 336.904 78.708 336.904 79.248V84H334.402V74.172H338.2L340.648 80.832L343.132 74.172H346.786ZM137.242 92.172V100.038H138.682V105.528H136.27V102H129.664V105.528H127.252V100.038H128.08C128.512 99.378 128.878 98.628 129.178 97.788C129.478 96.936 129.718 96.03 129.898 95.07C130.078 94.11 130.21 93.144 130.294 92.172H137.242ZM132.544 94.188C132.448 94.908 132.328 95.61 132.184 96.294C132.04 96.966 131.86 97.614 131.644 98.238C131.44 98.862 131.188 99.462 130.888 100.038H134.56V94.188H132.544ZM149.285 97.068C149.285 97.884 149.171 98.61 148.943 99.246C148.727 99.882 148.409 100.422 147.989 100.866C147.581 101.298 147.083 101.628 146.495 101.856C145.907 102.072 145.241 102.18 144.497 102.18C143.813 102.18 143.177 102.072 142.589 101.856C142.013 101.628 141.515 101.298 141.095 100.866C140.675 100.422 140.345 99.882 140.105 99.246C139.877 98.61 139.763 97.884 139.763 97.068C139.763 95.976 139.955 95.058 140.339 94.314C140.723 93.558 141.275 92.982 141.995 92.586C142.715 92.19 143.567 91.992 144.551 91.992C145.475 91.992 146.291 92.19 146.999 92.586C147.707 92.982 148.265 93.558 148.673 94.314C149.081 95.058 149.285 95.976 149.285 97.068ZM142.499 97.068C142.499 97.716 142.565 98.262 142.697 98.706C142.841 99.138 143.063 99.468 143.363 99.696C143.663 99.912 144.053 100.02 144.533 100.02C145.013 100.02 145.397 99.912 145.685 99.696C145.985 99.468 146.201 99.138 146.333 98.706C146.477 98.262 146.549 97.716 146.549 97.068C146.549 96.42 146.477 95.88 146.333 95.448C146.201 95.016 145.985 94.692 145.685 94.476C145.385 94.26 144.995 94.152 144.515 94.152C143.807 94.152 143.291 94.398 142.967 94.89C142.655 95.37 142.499 96.096 142.499 97.068ZM155.498 102.18C154.526 102.18 153.698 102.006 153.014 101.658C152.33 101.298 151.808 100.746 151.448 100.002C151.088 99.258 150.908 98.304 150.908 97.14C150.908 95.94 151.112 94.962 151.52 94.206C151.928 93.45 152.492 92.892 153.212 92.532C153.944 92.172 154.784 91.992 155.732 91.992C156.404 91.992 156.986 92.058 157.478 92.19C157.982 92.322 158.42 92.478 158.792 92.658L158 94.728C157.58 94.56 157.184 94.422 156.812 94.314C156.452 94.206 156.092 94.152 155.732 94.152C155.264 94.152 154.874 94.266 154.562 94.494C154.25 94.71 154.016 95.04 153.86 95.484C153.716 95.916 153.644 96.462 153.644 97.122C153.644 97.77 153.722 98.31 153.878 98.742C154.046 99.162 154.286 99.48 154.598 99.696C154.91 99.9 155.288 100.002 155.732 100.002C156.296 100.002 156.794 99.93 157.226 99.786C157.658 99.63 158.078 99.42 158.486 99.156V101.442C158.078 101.706 157.646 101.892 157.19 102C156.746 102.12 156.182 102.18 155.498 102.18ZM168.884 94.188H165.662V102H162.98V94.188H159.758V92.172H168.884V94.188ZM174.729 91.974C176.049 91.974 177.057 92.262 177.753 92.838C178.461 93.402 178.815 94.272 178.815 95.448V102H176.943L176.421 100.668H176.349C176.073 101.016 175.785 101.304 175.485 101.532C175.197 101.76 174.861 101.922 174.477 102.018C174.105 102.126 173.643 102.18 173.091 102.18C172.515 102.18 171.993 102.072 171.525 101.856C171.069 101.628 170.709 101.286 170.445 100.83C170.181 100.362 170.049 99.774 170.049 99.066C170.049 98.022 170.415 97.254 171.147 96.762C171.879 96.258 172.977 95.982 174.441 95.934L176.151 95.88V95.448C176.151 94.932 176.013 94.554 175.737 94.314C175.473 94.074 175.101 93.954 174.621 93.954C174.141 93.954 173.673 94.026 173.217 94.17C172.761 94.302 172.305 94.47 171.849 94.674L170.967 92.856C171.495 92.58 172.077 92.364 172.713 92.208C173.361 92.052 174.033 91.974 174.729 91.974ZM175.107 97.482C174.243 97.506 173.643 97.662 173.307 97.95C172.971 98.238 172.803 98.616 172.803 99.084C172.803 99.492 172.923 99.786 173.163 99.966C173.403 100.134 173.715 100.218 174.099 100.218C174.675 100.218 175.161 100.05 175.557 99.714C175.953 99.366 176.151 98.88 176.151 98.256V97.446L175.107 97.482ZM190.272 94.746C190.272 95.274 190.104 95.724 189.768 96.096C189.444 96.468 188.958 96.708 188.31 96.816V96.888C188.994 96.972 189.54 97.206 189.948 97.59C190.368 97.974 190.578 98.466 190.578 99.066C190.578 99.486 190.494 99.876 190.326 100.236C190.17 100.596 189.918 100.908 189.57 101.172C189.222 101.436 188.772 101.64 188.22 101.784C187.68 101.928 187.02 102 186.24 102H181.56V92.172H186.24C187.008 92.172 187.692 92.256 188.292 92.424C188.904 92.58 189.384 92.844 189.732 93.216C190.092 93.588 190.272 94.098 190.272 94.746ZM187.806 98.922C187.806 98.538 187.656 98.262 187.356 98.094C187.056 97.914 186.606 97.824 186.006 97.824H184.242V100.146H186.06C186.564 100.146 186.978 100.056 187.302 99.876C187.638 99.684 187.806 99.366 187.806 98.922ZM187.554 94.962C187.554 94.65 187.434 94.422 187.194 94.278C186.954 94.134 186.6 94.062 186.132 94.062H184.242V96.006H185.826C186.39 96.006 186.816 95.928 187.104 95.772C187.404 95.604 187.554 95.334 187.554 94.962ZM201.683 102H199.001V94.188H196.535C196.415 95.628 196.265 96.858 196.085 97.878C195.917 98.886 195.701 99.708 195.437 100.344C195.185 100.98 194.861 101.448 194.465 101.748C194.069 102.036 193.583 102.18 193.007 102.18C192.695 102.18 192.413 102.156 192.161 102.108C191.909 102.06 191.681 101.988 191.477 101.892V99.75C191.609 99.798 191.747 99.84 191.891 99.876C192.035 99.912 192.185 99.93 192.341 99.93C192.509 99.93 192.665 99.864 192.809 99.732C192.965 99.6 193.109 99.366 193.241 99.03C193.385 98.694 193.517 98.232 193.637 97.644C193.757 97.056 193.865 96.318 193.961 95.43C194.069 94.53 194.165 93.444 194.249 92.172H201.683V102ZM205.976 102H203.078L205.724 98.112C205.388 97.968 205.07 97.776 204.77 97.536C204.482 97.284 204.248 96.966 204.068 96.582C203.888 96.198 203.798 95.742 203.798 95.214C203.798 94.23 204.17 93.48 204.914 92.964C205.658 92.436 206.612 92.172 207.776 92.172H212.348V102H209.666V98.346H208.19L205.976 102ZM206.426 95.232C206.426 95.64 206.588 95.964 206.912 96.204C207.236 96.432 207.656 96.546 208.172 96.546H209.666V94.062H207.83C207.35 94.062 206.996 94.182 206.768 94.422C206.54 94.65 206.426 94.92 206.426 95.232ZM228.724 97.068C228.724 98.16 228.538 99.09 228.166 99.858C227.794 100.614 227.26 101.19 226.564 101.586C225.88 101.982 225.064 102.18 224.116 102.18C223.312 102.18 222.586 102.03 221.938 101.73C221.302 101.418 220.78 100.95 220.372 100.326C219.976 99.702 219.718 98.91 219.598 97.95H217.834V102H215.152V92.172H217.834V95.952H219.634C219.754 95.1 220.012 94.38 220.408 93.792C220.816 93.204 221.338 92.76 221.974 92.46C222.622 92.148 223.354 91.992 224.17 91.992C225.058 91.992 225.844 92.19 226.528 92.586C227.212 92.982 227.746 93.558 228.13 94.314C228.526 95.058 228.724 95.976 228.724 97.068ZM222.298 97.068C222.298 97.716 222.358 98.262 222.478 98.706C222.61 99.138 222.814 99.468 223.09 99.696C223.366 99.912 223.72 100.02 224.152 100.02C224.584 100.02 224.932 99.912 225.196 99.696C225.472 99.468 225.67 99.138 225.79 98.706C225.922 98.262 225.988 97.716 225.988 97.068C225.988 96.42 225.922 95.88 225.79 95.448C225.67 95.016 225.472 94.692 225.196 94.476C224.932 94.26 224.578 94.152 224.134 94.152C223.702 94.152 223.348 94.26 223.072 94.476C222.808 94.692 222.61 95.016 222.478 95.448C222.358 95.88 222.298 96.42 222.298 97.068ZM238.897 94.188H235.675V102H232.993V94.188H229.771V92.172H238.897V94.188ZM248.072 91.992C248.78 91.992 249.44 92.088 250.052 92.28C250.676 92.46 251.174 92.742 251.546 93.126C251.93 93.51 252.122 94.002 252.122 94.602C252.122 95.19 251.942 95.658 251.582 96.006C251.234 96.354 250.76 96.606 250.16 96.762V96.852C250.58 96.948 250.958 97.086 251.294 97.266C251.63 97.434 251.894 97.668 252.086 97.968C252.29 98.256 252.392 98.646 252.392 99.138C252.392 99.678 252.218 100.182 251.87 100.65C251.534 101.106 251.006 101.478 250.286 101.766C249.578 102.042 248.666 102.18 247.55 102.18C247.022 102.18 246.524 102.156 246.056 102.108C245.588 102.06 245.162 101.994 244.778 101.91C244.394 101.814 244.058 101.7 243.77 101.568V99.354C244.178 99.546 244.676 99.72 245.264 99.876C245.864 100.032 246.5 100.11 247.172 100.11C247.664 100.11 248.102 100.074 248.486 100.002C248.882 99.93 249.194 99.81 249.422 99.642C249.662 99.474 249.782 99.252 249.782 98.976C249.782 98.712 249.68 98.496 249.476 98.328C249.272 98.148 248.966 98.016 248.558 97.932C248.15 97.848 247.628 97.806 246.992 97.806H245.948V95.952H246.938C247.826 95.952 248.51 95.88 248.99 95.736C249.482 95.592 249.728 95.322 249.728 94.926C249.728 94.614 249.572 94.38 249.26 94.224C248.948 94.056 248.438 93.972 247.73 93.972C247.262 93.972 246.752 94.026 246.2 94.134C245.648 94.242 245.126 94.398 244.634 94.602L243.842 92.73C244.406 92.514 245.024 92.34 245.696 92.208C246.368 92.064 247.16 91.992 248.072 91.992ZM258.506 91.974C259.826 91.974 260.834 92.262 261.53 92.838C262.238 93.402 262.592 94.272 262.592 95.448V102H260.72L260.198 100.668H260.126C259.85 101.016 259.562 101.304 259.262 101.532C258.974 101.76 258.638 101.922 258.254 102.018C257.882 102.126 257.42 102.18 256.868 102.18C256.292 102.18 255.77 102.072 255.302 101.856C254.846 101.628 254.486 101.286 254.222 100.83C253.958 100.362 253.826 99.774 253.826 99.066C253.826 98.022 254.192 97.254 254.924 96.762C255.656 96.258 256.754 95.982 258.218 95.934L259.928 95.88V95.448C259.928 94.932 259.79 94.554 259.514 94.314C259.25 94.074 258.878 93.954 258.398 93.954C257.918 93.954 257.45 94.026 256.994 94.17C256.538 94.302 256.082 94.47 255.626 94.674L254.744 92.856C255.272 92.58 255.854 92.364 256.49 92.208C257.138 92.052 257.81 91.974 258.506 91.974ZM258.884 97.482C258.02 97.506 257.42 97.662 257.084 97.95C256.748 98.238 256.58 98.616 256.58 99.084C256.58 99.492 256.7 99.786 256.94 99.966C257.18 100.134 257.492 100.218 257.876 100.218C258.452 100.218 258.938 100.05 259.334 99.714C259.73 99.366 259.928 98.88 259.928 98.256V97.446L258.884 97.482ZM271.782 92.172H274.734L270.846 96.888L275.076 102H272.034L268.02 97.014V102H265.338V92.172H268.02V96.942L271.782 92.172ZM280.514 91.974C281.834 91.974 282.842 92.262 283.538 92.838C284.246 93.402 284.6 94.272 284.6 95.448V102H282.728L282.206 100.668H282.134C281.858 101.016 281.57 101.304 281.27 101.532C280.982 101.76 280.646 101.922 280.262 102.018C279.89 102.126 279.428 102.18 278.876 102.18C278.3 102.18 277.778 102.072 277.31 101.856C276.854 101.628 276.494 101.286 276.23 100.83C275.966 100.362 275.834 99.774 275.834 99.066C275.834 98.022 276.2 97.254 276.932 96.762C277.664 96.258 278.762 95.982 280.226 95.934L281.936 95.88V95.448C281.936 94.932 281.798 94.554 281.522 94.314C281.258 94.074 280.886 93.954 280.406 93.954C279.926 93.954 279.458 94.026 279.002 94.17C278.546 94.302 278.09 94.47 277.634 94.674L276.752 92.856C277.28 92.58 277.862 92.364 278.498 92.208C279.146 92.052 279.818 91.974 280.514 91.974ZM280.892 97.482C280.028 97.506 279.428 97.662 279.092 97.95C278.756 98.238 278.588 98.616 278.588 99.084C278.588 99.492 278.708 99.786 278.948 99.966C279.188 100.134 279.5 100.218 279.884 100.218C280.46 100.218 280.946 100.05 281.342 99.714C281.738 99.366 281.936 98.88 281.936 98.256V97.446L280.892 97.482ZM290.927 91.992C291.635 91.992 292.295 92.088 292.907 92.28C293.531 92.46 294.029 92.742 294.401 93.126C294.785 93.51 294.977 94.002 294.977 94.602C294.977 95.19 294.797 95.658 294.437 96.006C294.089 96.354 293.615 96.606 293.015 96.762V96.852C293.435 96.948 293.813 97.086 294.149 97.266C294.485 97.434 294.749 97.668 294.941 97.968C295.145 98.256 295.247 98.646 295.247 99.138C295.247 99.678 295.073 100.182 294.725 100.65C294.389 101.106 293.861 101.478 293.141 101.766C292.433 102.042 291.521 102.18 290.405 102.18C289.877 102.18 289.379 102.156 288.911 102.108C288.443 102.06 288.017 101.994 287.633 101.91C287.249 101.814 286.913 101.7 286.625 101.568V99.354C287.033 99.546 287.531 99.72 288.119 99.876C288.719 100.032 289.355 100.11 290.027 100.11C290.519 100.11 290.957 100.074 291.341 100.002C291.737 99.93 292.049 99.81 292.277 99.642C292.517 99.474 292.637 99.252 292.637 98.976C292.637 98.712 292.535 98.496 292.331 98.328C292.127 98.148 291.821 98.016 291.413 97.932C291.005 97.848 290.483 97.806 289.847 97.806H288.803V95.952H289.793C290.681 95.952 291.365 95.88 291.845 95.736C292.337 95.592 292.583 95.322 292.583 94.926C292.583 94.614 292.427 94.38 292.115 94.224C291.803 94.056 291.293 93.972 290.585 93.972C290.117 93.972 289.607 94.026 289.055 94.134C288.503 94.242 287.981 94.398 287.489 94.602L286.697 92.73C287.261 92.514 287.879 92.34 288.551 92.208C289.223 92.064 290.015 91.992 290.927 91.992ZM297.33 102V92.172H300.012V95.97H301.308C302.316 95.97 303.144 96.078 303.792 96.294C304.44 96.498 304.92 96.816 305.232 97.248C305.556 97.68 305.718 98.22 305.718 98.868C305.718 99.504 305.568 100.056 305.268 100.524C304.98 100.992 304.518 101.358 303.882 101.622C303.258 101.874 302.43 102 301.398 102H297.33ZM301.254 100.146C301.782 100.146 302.208 100.05 302.532 99.858C302.868 99.666 303.036 99.348 303.036 98.904C303.036 98.52 302.88 98.244 302.568 98.076C302.268 97.908 301.818 97.824 301.218 97.824H300.012V100.146H301.254ZM307.14 102V92.172H309.822V102H307.14ZM312.533 97.932L312.245 89.04H315.233L314.945 97.932H312.533ZM313.721 102.288C313.253 102.288 312.869 102.138 312.569 101.838C312.269 101.538 312.119 101.154 312.119 100.686C312.119 100.23 312.269 99.846 312.569 99.534C312.869 99.21 313.253 99.048 313.721 99.048C314.177 99.048 314.561 99.21 314.873 99.534C315.197 99.846 315.359 100.23 315.359 100.686C315.359 101.154 315.197 101.538 314.873 101.838C314.561 102.138 314.177 102.288 313.721 102.288Z" fill="#AD3B65"/>
<path d="M36.0348 19.7452L38.5275 19.9352L36.0348 19.7452ZM37.5027 0.486261L21.2107 24.317L49.9947 26.5109L37.5027 0.486261ZM111.849 80.5765C73.0256 91.1052 35.4704 60.0448 38.5275 19.9352L33.542 19.5552C30.2224 63.108 71.0015 96.8347 113.158 85.4022L111.849 80.5765Z" fill="#AD3B65"/>
</svg>
