<svg width="18" height="14" viewBox="0 0 18 14" fill="none" xmlns="http://www.w3.org/2000/svg">
<path d="M4.84 0.279998L8.4 2.08C7.73333 2.56 7.09333 3.08 6.48 3.64C5.89333 4.17333 5.36 4.72 4.88 5.28C4.42667 5.84 4.05333 6.41333 3.76 7C3.49333 7.56 3.33333 8.13333 3.28 8.72L2.48 7.92C2.69333 7.73333 2.92 7.61333 3.16 7.56C3.4 7.50667 3.66667 7.48 3.96 7.48C5 7.48 5.84 7.77333 6.48 8.36C7.12 8.92 7.44 9.65333 7.44 10.56C7.44 11.4133 7.12 12.16 6.48 12.8C5.86667 13.4133 5.04 13.72 4 13.72C2.90667 13.72 2.01333 13.4 1.32 12.76C0.626667 12.12 0.28 11.1067 0.28 9.72C0.28 8.84 0.386667 7.97333 0.6 7.12C0.813333 6.26666 1.12 5.45333 1.52 4.68C1.92 3.88 2.4 3.10667 2.96 2.36C3.52 1.61333 4.14667 0.919999 4.84 0.279998ZM13.9619 0.279998L17.5219 2.08C16.8552 2.56 16.2152 3.08 15.6019 3.64C15.0152 4.17333 14.4819 4.72 14.0019 5.28C13.5485 5.84 13.1752 6.41333 12.8819 7C12.6152 7.56 12.4552 8.13333 12.4019 8.72L11.6019 7.92C11.8152 7.73333 12.0419 7.61333 12.2819 7.56C12.5219 7.50667 12.7885 7.48 13.0819 7.48C14.1219 7.48 14.9619 7.77333 15.6019 8.36C16.2419 8.92 16.5619 9.65333 16.5619 10.56C16.5619 11.4133 16.2419 12.16 15.6019 12.8C14.9885 13.4133 14.1619 13.72 13.1219 13.72C12.0285 13.72 11.1352 13.4 10.4419 12.76C9.74854 12.12 9.40187 11.1067 9.40187 9.72C9.40187 8.84 9.50854 7.97333 9.72187 7.12C9.93521 6.26666 10.2419 5.45333 10.6419 4.68C11.0419 3.88 11.5219 3.10667 12.0819 2.36C12.6419 1.61333 13.2685 0.919999 13.9619 0.279998Z" fill="#774557"/>
</svg>
