<svg width="179" height="123" viewBox="0 0 179 123" fill="none" xmlns="http://www.w3.org/2000/svg">
<path d="M114.322 27.7235L112.266 29.1451L114.322 27.7235ZM95.5019 0.499118L97.8451 29.2714L121.591 12.8559L95.5019 0.499118ZM116.378 26.3019L110.353 17.5856L106.24 20.4288L112.266 29.1451L116.378 26.3019ZM121.401 57.197C124.458 46.6674 122.613 35.321 116.378 26.3019L112.266 29.1451C117.645 36.9273 119.237 46.7175 116.599 55.803L121.401 57.197Z" fill="white" fill-opacity="0.7"/>
<rect y="60" width="179" height="63" rx="10" fill="white" fill-opacity="0.7"/>
<path d="M12.905 82L12.125 79.45H8.225L7.445 82H5L8.78 71.245H11.555L15.35 82H12.905ZM10.805 75.055C10.755 74.885 10.69 74.67 10.61 74.41C10.53 74.15 10.45 73.885 10.37 73.615C10.29 73.345 10.225 73.11 10.175 72.91C10.125 73.11 10.055 73.36 9.965 73.66C9.885 73.95 9.805 74.23 9.725 74.5C9.655 74.76 9.6 74.945 9.56 75.055L8.795 77.545H11.585L10.805 75.055ZM26.9359 75.955C26.9359 76.395 26.7959 76.77 26.5159 77.08C26.2459 77.39 25.8409 77.59 25.3009 77.68V77.74C25.8709 77.81 26.3259 78.005 26.6659 78.325C27.0159 78.645 27.1909 79.055 27.1909 79.555C27.1909 79.905 27.1209 80.23 26.9809 80.53C26.8509 80.83 26.6409 81.09 26.3509 81.31C26.0609 81.53 25.6859 81.7 25.2259 81.82C24.7759 81.94 24.2259 82 23.5759 82H19.6759V73.81H23.5759C24.2159 73.81 24.7859 73.88 25.2859 74.02C25.7959 74.15 26.1959 74.37 26.4859 74.68C26.7859 74.99 26.9359 75.415 26.9359 75.955ZM24.8809 79.435C24.8809 79.115 24.7559 78.885 24.5059 78.745C24.2559 78.595 23.8809 78.52 23.3809 78.52H21.9109V80.455H23.4259C23.8459 80.455 24.1909 80.38 24.4609 80.23C24.7409 80.07 24.8809 79.805 24.8809 79.435ZM24.6709 76.135C24.6709 75.875 24.5709 75.685 24.3709 75.565C24.1709 75.445 23.8759 75.385 23.4859 75.385H21.9109V77.005H23.2309C23.7009 77.005 24.0559 76.94 24.2959 76.81C24.5459 76.67 24.6709 76.445 24.6709 76.135ZM39.0389 75.49H36.3539V82H34.1189V75.49H31.4339V73.81H39.0389V75.49ZM43.9099 73.645C45.0099 73.645 45.8499 73.885 46.4299 74.365C47.0199 74.835 47.3149 75.56 47.3149 76.54V82H45.7549L45.3199 80.89H45.2599C45.0299 81.18 44.7899 81.42 44.5399 81.61C44.2999 81.8 44.0199 81.935 43.6999 82.015C43.3899 82.105 43.0049 82.15 42.5449 82.15C42.0649 82.15 41.6299 82.06 41.2399 81.88C40.8599 81.69 40.5599 81.405 40.3399 81.025C40.1199 80.635 40.0099 80.145 40.0099 79.555C40.0099 78.685 40.3149 78.045 40.9249 77.635C41.5349 77.215 42.4499 76.985 43.6699 76.945L45.0949 76.9V76.54C45.0949 76.11 44.9799 75.795 44.7499 75.595C44.5299 75.395 44.2199 75.295 43.8199 75.295C43.4199 75.295 43.0299 75.355 42.6499 75.475C42.2699 75.585 41.8899 75.725 41.5099 75.895L40.7749 74.38C41.2149 74.15 41.6999 73.97 42.2299 73.84C42.7699 73.71 43.3299 73.645 43.9099 73.645ZM44.2249 78.235C43.5049 78.255 43.0049 78.385 42.7249 78.625C42.4449 78.865 42.3049 79.18 42.3049 79.57C42.3049 79.91 42.4049 80.155 42.6049 80.305C42.8049 80.445 43.0649 80.515 43.3849 80.515C43.8649 80.515 44.2699 80.375 44.5999 80.095C44.9299 79.805 45.0949 79.4 45.0949 78.88V78.205L44.2249 78.235ZM54.9726 73.81H57.4326L54.1926 77.74L57.7176 82H55.1826L51.8376 77.845V82H49.6026V73.81H51.8376V77.785L54.9726 73.81ZM61.0497 77.05C61.0497 77.22 61.0397 77.43 61.0197 77.68C61.0097 77.93 60.9947 78.185 60.9747 78.445C60.9647 78.705 60.9497 78.935 60.9297 79.135C60.9097 79.335 60.8947 79.475 60.8847 79.555L64.6647 73.81H67.3497V82H65.1897V78.73C65.1897 78.46 65.1997 78.165 65.2197 77.845C65.2397 77.515 65.2597 77.21 65.2797 76.93C65.3097 76.64 65.3297 76.42 65.3397 76.27L61.5747 82H58.8897V73.81H61.0497V77.05ZM71.3656 77.815L68.7256 73.81H71.2606L72.8506 76.42L74.4556 73.81H76.9906L74.3206 77.815L77.1106 82H74.5756L72.8506 79.195L71.1256 82H68.5906L71.3656 77.815ZM91.8269 73.81V82H89.7419V77.98C89.7419 77.58 89.7469 77.19 89.7569 76.81C89.7769 76.43 89.8019 76.08 89.8319 75.76H89.7869L87.5219 82H85.8419L83.5469 75.745H83.4869C83.5269 76.075 83.5519 76.43 83.5619 76.81C83.5819 77.18 83.5919 77.59 83.5919 78.04V82H81.5069V73.81H84.6719L86.7119 79.36L88.7819 73.81H91.8269ZM97.5232 73.645C98.6232 73.645 99.4632 73.885 100.043 74.365C100.633 74.835 100.928 75.56 100.928 76.54V82H99.3682L98.9332 80.89H98.8732C98.6432 81.18 98.4032 81.42 98.1532 81.61C97.9132 81.8 97.6332 81.935 97.3132 82.015C97.0032 82.105 96.6182 82.15 96.1582 82.15C95.6782 82.15 95.2432 82.06 94.8532 81.88C94.4732 81.69 94.1732 81.405 93.9532 81.025C93.7332 80.635 93.6232 80.145 93.6232 79.555C93.6232 78.685 93.9282 78.045 94.5382 77.635C95.1482 77.215 96.0632 76.985 97.2832 76.945L98.7082 76.9V76.54C98.7082 76.11 98.5932 75.795 98.3632 75.595C98.1432 75.395 97.8332 75.295 97.4332 75.295C97.0332 75.295 96.6432 75.355 96.2632 75.475C95.8832 75.585 95.5032 75.725 95.1232 75.895L94.3882 74.38C94.8282 74.15 95.3132 73.97 95.8432 73.84C96.3832 73.71 96.9432 73.645 97.5232 73.645ZM97.8382 78.235C97.1182 78.255 96.6182 78.385 96.3382 78.625C96.0582 78.865 95.9182 79.18 95.9182 79.57C95.9182 79.91 96.0182 80.155 96.2182 80.305C96.4182 80.445 96.6782 80.515 96.9982 80.515C97.4782 80.515 97.8832 80.375 98.2132 80.095C98.5432 79.805 98.7082 79.4 98.7082 78.88V78.205L97.8382 78.235ZM115.411 73.81V82H103.216V73.81H105.451V80.32H108.196V73.81H110.431V80.32H113.176V73.81H115.411ZM119.907 77.05C119.907 77.22 119.897 77.43 119.877 77.68C119.867 77.93 119.852 78.185 119.832 78.445C119.822 78.705 119.807 78.935 119.787 79.135C119.767 79.335 119.752 79.475 119.742 79.555L123.522 73.81H126.207V82H124.047V78.73C124.047 78.46 124.057 78.165 124.077 77.845C124.097 77.515 124.117 77.21 124.137 76.93C124.167 76.64 124.187 76.42 124.197 76.27L120.432 82H117.747V73.81H119.907V77.05ZM130.778 73.81V76.96H133.898V73.81H136.133V82H133.898V78.625H130.778V82H128.543V73.81H130.778ZM141.835 73.645C142.935 73.645 143.775 73.885 144.355 74.365C144.945 74.835 145.24 75.56 145.24 76.54V82H143.68L143.245 80.89H143.185C142.955 81.18 142.715 81.42 142.465 81.61C142.225 81.8 141.945 81.935 141.625 82.015C141.315 82.105 140.93 82.15 140.47 82.15C139.99 82.15 139.555 82.06 139.165 81.88C138.785 81.69 138.485 81.405 138.265 81.025C138.045 80.635 137.935 80.145 137.935 79.555C137.935 78.685 138.24 78.045 138.85 77.635C139.46 77.215 140.375 76.985 141.595 76.945L143.02 76.9V76.54C143.02 76.11 142.905 75.795 142.675 75.595C142.455 75.395 142.145 75.295 141.745 75.295C141.345 75.295 140.955 75.355 140.575 75.475C140.195 75.585 139.815 75.725 139.435 75.895L138.7 74.38C139.14 74.15 139.625 73.97 140.155 73.84C140.695 73.71 141.255 73.645 141.835 73.645ZM142.15 78.235C141.43 78.255 140.93 78.385 140.65 78.625C140.37 78.865 140.23 79.18 140.23 79.57C140.23 79.91 140.33 80.155 140.53 80.305C140.73 80.445 140.99 80.515 141.31 80.515C141.79 80.515 142.195 80.375 142.525 80.095C142.855 79.805 143.02 79.4 143.02 78.88V78.205L142.15 78.235ZM149.207 77.815L146.567 73.81H149.102L150.692 76.42L152.297 73.81H154.832L152.162 77.815L154.952 82H152.417L150.692 79.195L148.967 82H146.432L149.207 77.815ZM13.43 90.955C13.43 91.395 13.29 91.77 13.01 92.08C12.74 92.39 12.335 92.59 11.795 92.68V92.74C12.365 92.81 12.82 93.005 13.16 93.325C13.51 93.645 13.685 94.055 13.685 94.555C13.685 94.905 13.615 95.23 13.475 95.53C13.345 95.83 13.135 96.09 12.845 96.31C12.555 96.53 12.18 96.7 11.72 96.82C11.27 96.94 10.72 97 10.07 97H6.17V88.81H10.07C10.71 88.81 11.28 88.88 11.78 89.02C12.29 89.15 12.69 89.37 12.98 89.68C13.28 89.99 13.43 90.415 13.43 90.955ZM11.375 94.435C11.375 94.115 11.25 93.885 11 93.745C10.75 93.595 10.375 93.52 9.875 93.52H8.405V95.455H9.92C10.34 95.455 10.685 95.38 10.955 95.23C11.235 95.07 11.375 94.805 11.375 94.435ZM11.165 91.135C11.165 90.875 11.065 90.685 10.865 90.565C10.665 90.445 10.37 90.385 9.98 90.385H8.405V92.005H9.725C10.195 92.005 10.55 91.94 10.79 91.81C11.04 91.67 11.165 91.445 11.165 91.135ZM18.9636 88.645C20.0636 88.645 20.9036 88.885 21.4836 89.365C22.0736 89.835 22.3686 90.56 22.3686 91.54V97H20.8086L20.3736 95.89H20.3136C20.0836 96.18 19.8436 96.42 19.5936 96.61C19.3536 96.8 19.0736 96.935 18.7536 97.015C18.4436 97.105 18.0586 97.15 17.5986 97.15C17.1186 97.15 16.6836 97.06 16.2936 96.88C15.9136 96.69 15.6136 96.405 15.3936 96.025C15.1736 95.635 15.0636 95.145 15.0636 94.555C15.0636 93.685 15.3686 93.045 15.9786 92.635C16.5886 92.215 17.5036 91.985 18.7236 91.945L20.1486 91.9V91.54C20.1486 91.11 20.0336 90.795 19.8036 90.595C19.5836 90.395 19.2736 90.295 18.8736 90.295C18.4736 90.295 18.0836 90.355 17.7036 90.475C17.3236 90.585 16.9436 90.725 16.5636 90.895L15.8286 89.38C16.2686 89.15 16.7536 88.97 17.2836 88.84C17.8236 88.71 18.3836 88.645 18.9636 88.645ZM19.2786 93.235C18.5586 93.255 18.0586 93.385 17.7786 93.625C17.4986 93.865 17.3586 94.18 17.3586 94.57C17.3586 94.91 17.4586 95.155 17.6586 95.305C17.8586 95.445 18.1186 95.515 18.4386 95.515C18.9186 95.515 19.3236 95.375 19.6536 95.095C19.9836 94.805 20.1486 94.4 20.1486 93.88V93.205L19.2786 93.235ZM34.9763 88.81V97H32.8913V92.98C32.8913 92.58 32.8963 92.19 32.9063 91.81C32.9263 91.43 32.9513 91.08 32.9813 90.76H32.9363L30.6713 97H28.9913L26.6963 90.745H26.6363C26.6763 91.075 26.7013 91.43 26.7113 91.81C26.7313 92.18 26.7413 92.59 26.7413 93.04V97H24.6563V88.81H27.8213L29.8613 94.36L31.9313 88.81H34.9763ZM47.722 90.955C47.722 91.395 47.582 91.77 47.302 92.08C47.032 92.39 46.627 92.59 46.087 92.68V92.74C46.657 92.81 47.112 93.005 47.452 93.325C47.802 93.645 47.977 94.055 47.977 94.555C47.977 94.905 47.907 95.23 47.767 95.53C47.637 95.83 47.427 96.09 47.137 96.31C46.847 96.53 46.472 96.7 46.012 96.82C45.562 96.94 45.012 97 44.362 97H40.462V88.81H44.362C45.002 88.81 45.572 88.88 46.072 89.02C46.582 89.15 46.982 89.37 47.272 89.68C47.572 89.99 47.722 90.415 47.722 90.955ZM45.667 94.435C45.667 94.115 45.542 93.885 45.292 93.745C45.042 93.595 44.667 93.52 44.167 93.52H42.697V95.455H44.212C44.632 95.455 44.977 95.38 45.247 95.23C45.527 95.07 45.667 94.805 45.667 94.435ZM45.457 91.135C45.457 90.875 45.357 90.685 45.157 90.565C44.957 90.445 44.662 90.385 44.272 90.385H42.697V92.005H44.017C44.487 92.005 44.842 91.94 45.082 91.81C45.332 91.67 45.457 91.445 45.457 91.135ZM53.2556 88.645C54.3556 88.645 55.1956 88.885 55.7756 89.365C56.3656 89.835 56.6606 90.56 56.6606 91.54V97H55.1006L54.6656 95.89H54.6056C54.3756 96.18 54.1356 96.42 53.8856 96.61C53.6456 96.8 53.3656 96.935 53.0456 97.015C52.7356 97.105 52.3506 97.15 51.8906 97.15C51.4106 97.15 50.9756 97.06 50.5856 96.88C50.2056 96.69 49.9056 96.405 49.6856 96.025C49.4656 95.635 49.3556 95.145 49.3556 94.555C49.3556 93.685 49.6606 93.045 50.2706 92.635C50.8806 92.215 51.7956 91.985 53.0156 91.945L54.4406 91.9V91.54C54.4406 91.11 54.3256 90.795 54.0956 90.595C53.8756 90.395 53.5656 90.295 53.1656 90.295C52.7656 90.295 52.3756 90.355 51.9956 90.475C51.6156 90.585 51.2356 90.725 50.8556 90.895L50.1206 89.38C50.5606 89.15 51.0456 88.97 51.5756 88.84C52.1156 88.71 52.6756 88.645 53.2556 88.645ZM53.5706 93.235C52.8506 93.255 52.3506 93.385 52.0706 93.625C51.7906 93.865 51.6506 94.18 51.6506 94.57C51.6506 94.91 51.7506 95.155 51.9506 95.305C52.1506 95.445 52.4106 95.515 52.7306 95.515C53.2106 95.515 53.6156 95.375 53.9456 95.095C54.2756 94.805 54.4406 94.4 54.4406 93.88V93.205L53.5706 93.235ZM69.2683 88.81V97H67.1833V92.98C67.1833 92.58 67.1883 92.19 67.1983 91.81C67.2183 91.43 67.2433 91.08 67.2733 90.76H67.2283L64.9633 97H63.2833L60.9883 90.745H60.9283C60.9683 91.075 60.9933 91.43 61.0033 91.81C61.0233 92.18 61.0333 92.59 61.0333 93.04V97H58.9483V88.81H62.1133L64.1533 94.36L66.2233 88.81H69.2683ZM82.119 88.81V95.365H83.319V99.94H81.309V97H75.804V99.94H73.794V95.365H74.484C74.844 94.815 75.149 94.19 75.399 93.49C75.649 92.78 75.849 92.025 75.999 91.225C76.149 90.425 76.259 89.62 76.329 88.81H82.119ZM78.204 90.49C78.124 91.09 78.024 91.675 77.904 92.245C77.784 92.805 77.634 93.345 77.454 93.865C77.284 94.385 77.074 94.885 76.824 95.365H79.884V90.49H78.204ZM92.1549 92.89C92.1549 93.57 92.0599 94.175 91.8699 94.705C91.6899 95.235 91.4249 95.685 91.0749 96.055C90.7349 96.415 90.3199 96.69 89.8299 96.88C89.3399 97.06 88.7849 97.15 88.1649 97.15C87.5949 97.15 87.0649 97.06 86.5749 96.88C86.0949 96.69 85.6799 96.415 85.3299 96.055C84.9799 95.685 84.7049 95.235 84.5049 94.705C84.3149 94.175 84.2199 93.57 84.2199 92.89C84.2199 91.98 84.3799 91.215 84.6999 90.595C85.0199 89.965 85.4799 89.485 86.0799 89.155C86.6799 88.825 87.3899 88.66 88.2099 88.66C88.9799 88.66 89.6599 88.825 90.2499 89.155C90.8399 89.485 91.3049 89.965 91.6449 90.595C91.9849 91.215 92.1549 91.98 92.1549 92.89ZM86.4999 92.89C86.4999 93.43 86.5549 93.885 86.6649 94.255C86.7849 94.615 86.9699 94.89 87.2199 95.08C87.4699 95.26 87.7949 95.35 88.1949 95.35C88.5949 95.35 88.9149 95.26 89.1549 95.08C89.4049 94.89 89.5849 94.615 89.6949 94.255C89.8149 93.885 89.8749 93.43 89.8749 92.89C89.8749 92.35 89.8149 91.9 89.6949 91.54C89.5849 91.18 89.4049 90.91 89.1549 90.73C88.9049 90.55 88.5799 90.46 88.1799 90.46C87.5899 90.46 87.1599 90.665 86.8899 91.075C86.6299 91.475 86.4999 92.08 86.4999 92.89ZM97.332 97.15C96.522 97.15 95.832 97.005 95.262 96.715C94.692 96.415 94.257 95.955 93.957 95.335C93.657 94.715 93.507 93.92 93.507 92.95C93.507 91.95 93.677 91.135 94.017 90.505C94.357 89.875 94.827 89.41 95.427 89.11C96.037 88.81 96.737 88.66 97.527 88.66C98.087 88.66 98.572 88.715 98.982 88.825C99.402 88.935 99.767 89.065 100.077 89.215L99.417 90.94C99.067 90.8 98.737 90.685 98.427 90.595C98.127 90.505 97.827 90.46 97.527 90.46C97.137 90.46 96.812 90.555 96.552 90.745C96.292 90.925 96.097 91.2 95.967 91.57C95.847 91.93 95.787 92.385 95.787 92.935C95.787 93.475 95.852 93.925 95.982 94.285C96.122 94.635 96.322 94.9 96.582 95.08C96.842 95.25 97.157 95.335 97.527 95.335C97.997 95.335 98.412 95.275 98.772 95.155C99.132 95.025 99.482 94.85 99.822 94.63V96.535C99.482 96.755 99.122 96.91 98.742 97C98.372 97.1 97.902 97.15 97.332 97.15ZM108.487 90.49H105.802V97H103.567V90.49H100.882V88.81H108.487V90.49ZM113.358 88.645C114.458 88.645 115.298 88.885 115.878 89.365C116.468 89.835 116.763 90.56 116.763 91.54V97H115.203L114.768 95.89H114.708C114.478 96.18 114.238 96.42 113.988 96.61C113.748 96.8 113.468 96.935 113.148 97.015C112.838 97.105 112.453 97.15 111.993 97.15C111.513 97.15 111.078 97.06 110.688 96.88C110.308 96.69 110.008 96.405 109.788 96.025C109.568 95.635 109.458 95.145 109.458 94.555C109.458 93.685 109.763 93.045 110.373 92.635C110.983 92.215 111.898 91.985 113.118 91.945L114.543 91.9V91.54C114.543 91.11 114.428 90.795 114.198 90.595C113.978 90.395 113.668 90.295 113.268 90.295C112.868 90.295 112.478 90.355 112.098 90.475C111.718 90.585 111.338 90.725 110.958 90.895L110.223 89.38C110.663 89.15 111.148 88.97 111.678 88.84C112.218 88.71 112.778 88.645 113.358 88.645ZM113.673 93.235C112.953 93.255 112.453 93.385 112.173 93.625C111.893 93.865 111.753 94.18 111.753 94.57C111.753 94.91 111.853 95.155 112.053 95.305C112.253 95.445 112.513 95.515 112.833 95.515C113.313 95.515 113.718 95.375 114.048 95.095C114.378 94.805 114.543 94.4 114.543 93.88V93.205L113.673 93.235ZM126.311 90.955C126.311 91.395 126.171 91.77 125.891 92.08C125.621 92.39 125.216 92.59 124.676 92.68V92.74C125.246 92.81 125.701 93.005 126.041 93.325C126.391 93.645 126.566 94.055 126.566 94.555C126.566 94.905 126.496 95.23 126.356 95.53C126.226 95.83 126.016 96.09 125.726 96.31C125.436 96.53 125.061 96.7 124.601 96.82C124.151 96.94 123.601 97 122.951 97H119.051V88.81H122.951C123.591 88.81 124.161 88.88 124.661 89.02C125.171 89.15 125.571 89.37 125.861 89.68C126.161 89.99 126.311 90.415 126.311 90.955ZM124.256 94.435C124.256 94.115 124.131 93.885 123.881 93.745C123.631 93.595 123.256 93.52 122.756 93.52H121.286V95.455H122.801C123.221 95.455 123.566 95.38 123.836 95.23C124.116 95.07 124.256 94.805 124.256 94.435ZM124.046 91.135C124.046 90.875 123.946 90.685 123.746 90.565C123.546 90.445 123.251 90.385 122.861 90.385H121.286V92.005H122.606C123.076 92.005 123.431 91.94 123.671 91.81C123.921 91.67 124.046 91.445 124.046 91.135ZM135.819 97H133.584V90.49H131.529C131.429 91.69 131.304 92.715 131.154 93.565C131.014 94.405 130.834 95.09 130.614 95.62C130.404 96.15 130.134 96.54 129.804 96.79C129.474 97.03 129.069 97.15 128.589 97.15C128.329 97.15 128.094 97.13 127.884 97.09C127.674 97.05 127.484 96.99 127.314 96.91V95.125C127.424 95.165 127.539 95.2 127.659 95.23C127.779 95.26 127.904 95.275 128.034 95.275C128.174 95.275 128.304 95.22 128.424 95.11C128.554 95 128.674 94.805 128.784 94.525C128.904 94.245 129.014 93.86 129.114 93.37C129.214 92.88 129.304 92.265 129.384 91.525C129.474 90.775 129.554 89.87 129.624 88.81H135.819V97ZM139.397 97H136.982L139.187 93.76C138.907 93.64 138.642 93.48 138.392 93.28C138.152 93.07 137.957 92.805 137.807 92.485C137.657 92.165 137.582 91.785 137.582 91.345C137.582 90.525 137.892 89.9 138.512 89.47C139.132 89.03 139.927 88.81 140.897 88.81H144.707V97H142.472V93.955H141.242L139.397 97ZM139.772 91.36C139.772 91.7 139.907 91.97 140.177 92.17C140.447 92.36 140.797 92.455 141.227 92.455H142.472V90.385H140.942C140.542 90.385 140.247 90.485 140.057 90.685C139.867 90.875 139.772 91.1 139.772 91.36ZM158.354 92.89C158.354 93.8 158.199 94.575 157.889 95.215C157.579 95.845 157.134 96.325 156.554 96.655C155.984 96.985 155.304 97.15 154.514 97.15C153.844 97.15 153.239 97.025 152.699 96.775C152.169 96.515 151.734 96.125 151.394 95.605C151.064 95.085 150.849 94.425 150.749 93.625H149.279V97H147.044V88.81H149.279V91.96H150.779C150.879 91.25 151.094 90.65 151.424 90.16C151.764 89.67 152.199 89.3 152.729 89.05C153.269 88.79 153.879 88.66 154.559 88.66C155.299 88.66 155.954 88.825 156.524 89.155C157.094 89.485 157.539 89.965 157.859 90.595C158.189 91.215 158.354 91.98 158.354 92.89ZM152.999 92.89C152.999 93.43 153.049 93.885 153.149 94.255C153.259 94.615 153.429 94.89 153.659 95.08C153.889 95.26 154.184 95.35 154.544 95.35C154.904 95.35 155.194 95.26 155.414 95.08C155.644 94.89 155.809 94.615 155.909 94.255C156.019 93.885 156.074 93.43 156.074 92.89C156.074 92.35 156.019 91.9 155.909 91.54C155.809 91.18 155.644 90.91 155.414 90.73C155.194 90.55 154.899 90.46 154.529 90.46C154.169 90.46 153.874 90.55 153.644 90.73C153.424 90.91 153.259 91.18 153.149 91.54C153.049 91.9 152.999 92.35 152.999 92.89ZM166.832 90.49H164.147V97H161.912V90.49H159.227V88.81H166.832V90.49ZM9.155 103.66C9.745 103.66 10.295 103.74 10.805 103.9C11.325 104.05 11.74 104.285 12.05 104.605C12.37 104.925 12.53 105.335 12.53 105.835C12.53 106.325 12.38 106.715 12.08 107.005C11.79 107.295 11.395 107.505 10.895 107.635V107.71C11.245 107.79 11.56 107.905 11.84 108.055C12.12 108.195 12.34 108.39 12.5 108.64C12.67 108.88 12.755 109.205 12.755 109.615C12.755 110.065 12.61 110.485 12.32 110.875C12.04 111.255 11.6 111.565 11 111.805C10.41 112.035 9.65 112.15 8.72 112.15C8.28 112.15 7.865 112.13 7.475 112.09C7.085 112.05 6.73 111.995 6.41 111.925C6.09 111.845 5.81 111.75 5.57 111.64V109.795C5.91 109.955 6.325 110.1 6.815 110.23C7.315 110.36 7.845 110.425 8.405 110.425C8.815 110.425 9.18 110.395 9.5 110.335C9.83 110.275 10.09 110.175 10.28 110.035C10.48 109.895 10.58 109.71 10.58 109.48C10.58 109.26 10.495 109.08 10.325 108.94C10.155 108.79 9.9 108.68 9.56 108.61C9.22 108.54 8.785 108.505 8.255 108.505H7.385V106.96H8.21C8.95 106.96 9.52 106.9 9.92 106.78C10.33 106.66 10.535 106.435 10.535 106.105C10.535 105.845 10.405 105.65 10.145 105.52C9.885 105.38 9.46 105.31 8.87 105.31C8.48 105.31 8.055 105.355 7.595 105.445C7.135 105.535 6.7 105.665 6.29 105.835L5.63 104.275C6.1 104.095 6.615 103.95 7.175 103.84C7.735 103.72 8.395 103.66 9.155 103.66ZM17.8503 103.645C18.9503 103.645 19.7903 103.885 20.3703 104.365C20.9603 104.835 21.2553 105.56 21.2553 106.54V112H19.6953L19.2603 110.89H19.2003C18.9703 111.18 18.7303 111.42 18.4803 111.61C18.2403 111.8 17.9603 111.935 17.6403 112.015C17.3303 112.105 16.9453 112.15 16.4853 112.15C16.0053 112.15 15.5703 112.06 15.1803 111.88C14.8003 111.69 14.5003 111.405 14.2803 111.025C14.0603 110.635 13.9503 110.145 13.9503 109.555C13.9503 108.685 14.2553 108.045 14.8653 107.635C15.4753 107.215 16.3903 106.985 17.6103 106.945L19.0353 106.9V106.54C19.0353 106.11 18.9203 105.795 18.6903 105.595C18.4703 105.395 18.1603 105.295 17.7603 105.295C17.3603 105.295 16.9703 105.355 16.5903 105.475C16.2103 105.585 15.8303 105.725 15.4503 105.895L14.7153 104.38C15.1553 104.15 15.6403 103.97 16.1703 103.84C16.7103 103.71 17.2703 103.645 17.8503 103.645ZM18.1653 108.235C17.4453 108.255 16.9453 108.385 16.6653 108.625C16.3853 108.865 16.2453 109.18 16.2453 109.57C16.2453 109.91 16.3453 110.155 16.5453 110.305C16.7453 110.445 17.0053 110.515 17.3253 110.515C17.8053 110.515 18.2103 110.375 18.5403 110.095C18.8703 109.805 19.0353 109.4 19.0353 108.88V108.205L18.1653 108.235ZM28.913 103.81H31.373L28.133 107.74L31.658 112H29.123L25.778 107.845V112H23.543V103.81H25.778V107.785L28.913 103.81ZM36.1902 103.645C37.2902 103.645 38.1302 103.885 38.7102 104.365C39.3002 104.835 39.5952 105.56 39.5952 106.54V112H38.0352L37.6002 110.89H37.5402C37.3102 111.18 37.0702 111.42 36.8202 111.61C36.5802 111.8 36.3002 111.935 35.9802 112.015C35.6702 112.105 35.2852 112.15 34.8252 112.15C34.3452 112.15 33.9102 112.06 33.5202 111.88C33.1402 111.69 32.8402 111.405 32.6202 111.025C32.4002 110.635 32.2902 110.145 32.2902 109.555C32.2902 108.685 32.5952 108.045 33.2052 107.635C33.8152 107.215 34.7302 106.985 35.9502 106.945L37.3752 106.9V106.54C37.3752 106.11 37.2602 105.795 37.0302 105.595C36.8102 105.395 36.5002 105.295 36.1002 105.295C35.7002 105.295 35.3102 105.355 34.9302 105.475C34.5502 105.585 34.1702 105.725 33.7902 105.895L33.0552 104.38C33.4952 104.15 33.9802 103.97 34.5102 103.84C35.0502 103.71 35.6102 103.645 36.1902 103.645ZM36.5052 108.235C35.7852 108.255 35.2852 108.385 35.0052 108.625C34.7252 108.865 34.5852 109.18 34.5852 109.57C34.5852 109.91 34.6852 110.155 34.8852 110.305C35.0852 110.445 35.3452 110.515 35.6652 110.515C36.1452 110.515 36.5502 110.375 36.8802 110.095C37.2102 109.805 37.3752 109.4 37.3752 108.88V108.205L36.5052 108.235ZM44.8679 103.66C45.4579 103.66 46.0079 103.74 46.5179 103.9C47.0379 104.05 47.4529 104.285 47.7629 104.605C48.0829 104.925 48.2429 105.335 48.2429 105.835C48.2429 106.325 48.0929 106.715 47.7929 107.005C47.5029 107.295 47.1079 107.505 46.6079 107.635V107.71C46.9579 107.79 47.2729 107.905 47.5529 108.055C47.8329 108.195 48.0529 108.39 48.2129 108.64C48.3829 108.88 48.4679 109.205 48.4679 109.615C48.4679 110.065 48.3229 110.485 48.0329 110.875C47.7529 111.255 47.3129 111.565 46.7129 111.805C46.1229 112.035 45.3629 112.15 44.4329 112.15C43.9929 112.15 43.5779 112.13 43.1879 112.09C42.7979 112.05 42.4429 111.995 42.1229 111.925C41.8029 111.845 41.5229 111.75 41.2829 111.64V109.795C41.6229 109.955 42.0379 110.1 42.5279 110.23C43.0279 110.36 43.5579 110.425 44.1179 110.425C44.5279 110.425 44.8929 110.395 45.2129 110.335C45.5429 110.275 45.8029 110.175 45.9929 110.035C46.1929 109.895 46.2929 109.71 46.2929 109.48C46.2929 109.26 46.2079 109.08 46.0379 108.94C45.8679 108.79 45.6129 108.68 45.2729 108.61C44.9329 108.54 44.4979 108.505 43.9679 108.505H43.0979V106.96H43.9229C44.6629 106.96 45.2329 106.9 45.6329 106.78C46.0429 106.66 46.2479 106.435 46.2479 106.105C46.2479 105.845 46.1179 105.65 45.8579 105.52C45.5979 105.38 45.1729 105.31 44.5829 105.31C44.1929 105.31 43.7679 105.355 43.3079 105.445C42.8479 105.535 42.4129 105.665 42.0029 105.835L41.3429 104.275C41.8129 104.095 42.3279 103.95 42.8879 103.84C43.4479 103.72 44.1079 103.66 44.8679 103.66ZM50.2032 112V103.81H52.4382V106.975H53.5182C54.3582 106.975 55.0482 107.065 55.5882 107.245C56.1282 107.415 56.5282 107.68 56.7882 108.04C57.0582 108.4 57.1932 108.85 57.1932 109.39C57.1932 109.92 57.0682 110.38 56.8182 110.77C56.5782 111.16 56.1932 111.465 55.6632 111.685C55.1432 111.895 54.4532 112 53.5932 112H50.2032ZM53.4732 110.455C53.9132 110.455 54.2682 110.375 54.5382 110.215C54.8182 110.055 54.9582 109.79 54.9582 109.42C54.9582 109.1 54.8282 108.87 54.5682 108.73C54.3182 108.59 53.9432 108.52 53.4432 108.52H52.4382V110.455H53.4732ZM58.3782 112V103.81H60.6132V112H58.3782ZM62.8723 108.61L62.6323 101.2H65.1223L64.8823 108.61H62.8723ZM63.8623 112.24C63.4723 112.24 63.1523 112.115 62.9023 111.865C62.6523 111.615 62.5273 111.295 62.5273 110.905C62.5273 110.525 62.6523 110.205 62.9023 109.945C63.1523 109.675 63.4723 109.54 63.8623 109.54C64.2423 109.54 64.5623 109.675 64.8223 109.945C65.0923 110.205 65.2273 110.525 65.2273 110.905C65.2273 111.295 65.0923 111.615 64.8223 111.865C64.5623 112.115 64.2423 112.24 63.8623 112.24Z" fill="#AD3B65"/>
</svg>
