<svg width="182" height="170" viewBox="0 0 182 170" fill="none" xmlns="http://www.w3.org/2000/svg">
<path d="M121.063 12.765L122.415 10.6626L122.415 10.6626L121.063 12.765ZM102 0.500002L115.214 26.1655L130.834 1.88887L102 0.500002ZM122.415 10.6626L122.274 10.572L119.569 14.7769L119.71 14.8675L122.415 10.6626ZM158.452 95.4858C164.988 62.4949 150.699 28.8605 122.415 10.6626L119.71 14.8675C146.267 31.9548 159.685 63.5366 153.548 94.5142L158.452 95.4858Z" fill="#AD3B65"/>
<rect y="100" width="182" height="70" rx="10" fill="#AD3B65" fill-opacity="0.6"/>
<path d="M10.475 122H8.21V113.18H5.3V111.29H13.385V113.18H10.475V122ZM21.2418 117.89C21.2418 118.57 21.1468 119.175 20.9568 119.705C20.7768 120.235 20.5118 120.685 20.1618 121.055C19.8218 121.415 19.4068 121.69 18.9168 121.88C18.4268 122.06 17.8718 122.15 17.2518 122.15C16.6818 122.15 16.1518 122.06 15.6618 121.88C15.1818 121.69 14.7668 121.415 14.4168 121.055C14.0668 120.685 13.7918 120.235 13.5918 119.705C13.4018 119.175 13.3068 118.57 13.3068 117.89C13.3068 116.98 13.4668 116.215 13.7868 115.595C14.1068 114.965 14.5668 114.485 15.1668 114.155C15.7668 113.825 16.4768 113.66 17.2968 113.66C18.0668 113.66 18.7468 113.825 19.3368 114.155C19.9268 114.485 20.3918 114.965 20.7318 115.595C21.0718 116.215 21.2418 116.98 21.2418 117.89ZM15.5868 117.89C15.5868 118.43 15.6418 118.885 15.7518 119.255C15.8718 119.615 16.0568 119.89 16.3068 120.08C16.5568 120.26 16.8818 120.35 17.2818 120.35C17.6818 120.35 18.0018 120.26 18.2418 120.08C18.4918 119.89 18.6718 119.615 18.7818 119.255C18.9018 118.885 18.9618 118.43 18.9618 117.89C18.9618 117.35 18.9018 116.9 18.7818 116.54C18.6718 116.18 18.4918 115.91 18.2418 115.73C17.9918 115.55 17.6668 115.46 17.2668 115.46C16.6768 115.46 16.2468 115.665 15.9768 116.075C15.7168 116.475 15.5868 117.08 15.5868 117.89ZM34.436 113.81L31.421 117.74L34.721 122H32.336L29.216 117.845V122H27.131V117.845L24.011 122H21.626L24.926 117.74L21.911 113.81H24.221L27.131 117.785V113.81H29.216V117.785L32.126 113.81H34.436ZM38.9737 113.66C39.7337 113.66 40.3837 113.805 40.9237 114.095C41.4737 114.385 41.8987 114.805 42.1987 115.355C42.4987 115.905 42.6487 116.58 42.6487 117.38V118.46H37.3687C37.3887 119.09 37.5737 119.585 37.9237 119.945C38.2837 120.305 38.7787 120.485 39.4087 120.485C39.9387 120.485 40.4187 120.435 40.8487 120.335C41.2787 120.225 41.7237 120.06 42.1837 119.84V121.565C41.7837 121.765 41.3587 121.91 40.9087 122C40.4687 122.1 39.9337 122.15 39.3037 122.15C38.4837 122.15 37.7587 122 37.1287 121.7C36.4987 121.39 36.0037 120.925 35.6437 120.305C35.2837 119.685 35.1037 118.905 35.1037 117.965C35.1037 117.005 35.2637 116.21 35.5837 115.58C35.9137 114.94 36.3687 114.46 36.9487 114.14C37.5287 113.82 38.2037 113.66 38.9737 113.66ZM38.9887 115.25C38.5587 115.25 38.1987 115.39 37.9087 115.67C37.6287 115.95 37.4637 116.385 37.4137 116.975H40.5487C40.5487 116.645 40.4887 116.35 40.3687 116.09C40.2587 115.83 40.0887 115.625 39.8587 115.475C39.6287 115.325 39.3387 115.25 38.9887 115.25ZM48.8554 122H46.4404L48.6454 118.76C48.3654 118.64 48.1004 118.48 47.8504 118.28C47.6104 118.07 47.4154 117.805 47.2654 117.485C47.1154 117.165 47.0404 116.785 47.0404 116.345C47.0404 115.525 47.3504 114.9 47.9704 114.47C48.5904 114.03 49.3854 113.81 50.3554 113.81H54.1654V122H51.9304V118.955H50.7004L48.8554 122ZM49.2304 116.36C49.2304 116.7 49.3654 116.97 49.6354 117.17C49.9054 117.36 50.2554 117.455 50.6854 117.455H51.9304V115.385H50.4004C50.0004 115.385 49.7054 115.485 49.5154 115.685C49.3254 115.875 49.2304 116.1 49.2304 116.36ZM56.082 123.425C56.272 123.135 56.427 122.89 56.547 122.69C56.677 122.49 56.777 122.3 56.847 122.12C56.927 121.95 56.982 121.76 57.012 121.55C57.042 121.33 57.057 121.065 57.057 120.755L58.797 120.605C58.797 121.025 58.727 121.425 58.587 121.805C58.457 122.185 58.277 122.56 58.047 122.93C57.827 123.3 57.582 123.69 57.312 124.1L56.082 123.425ZM57.432 121.94C57.042 121.94 56.722 121.815 56.472 121.565C56.222 121.315 56.097 120.995 56.097 120.605C56.097 120.225 56.222 119.905 56.472 119.645C56.722 119.375 57.042 119.24 57.432 119.24C57.812 119.24 58.132 119.375 58.392 119.645C58.662 119.905 58.797 120.225 58.797 120.605C58.797 120.995 58.662 121.315 58.392 121.565C58.132 121.815 57.812 121.94 57.432 121.94ZM9.5 137.15C8.69 137.15 8 137.005 7.43 136.715C6.86 136.415 6.425 135.955 6.125 135.335C5.825 134.715 5.675 133.92 5.675 132.95C5.675 131.95 5.845 131.135 6.185 130.505C6.525 129.875 6.995 129.41 7.595 129.11C8.205 128.81 8.905 128.66 9.695 128.66C10.255 128.66 10.74 128.715 11.15 128.825C11.57 128.935 11.935 129.065 12.245 129.215L11.585 130.94C11.235 130.8 10.905 130.685 10.595 130.595C10.295 130.505 9.995 130.46 9.695 130.46C9.305 130.46 8.98 130.555 8.72 130.745C8.46 130.925 8.265 131.2 8.135 131.57C8.015 131.93 7.955 132.385 7.955 132.935C7.955 133.475 8.02 133.925 8.15 134.285C8.29 134.635 8.49 134.9 8.75 135.08C9.01 135.25 9.325 135.335 9.695 135.335C10.165 135.335 10.58 135.275 10.94 135.155C11.3 135.025 11.65 134.85 11.99 134.63V136.535C11.65 136.755 11.29 136.91 10.91 137C10.54 137.1 10.07 137.15 9.5 137.15ZM15.8401 131.81C15.8401 132.16 15.9251 132.425 16.0951 132.605C16.2751 132.785 16.5201 132.875 16.8301 132.875C17.2601 132.875 17.6601 132.83 18.0301 132.74C18.4001 132.64 18.7701 132.51 19.1401 132.35V128.81H21.3751V137H19.1401V133.745C18.7901 133.935 18.3901 134.11 17.9401 134.27C17.4901 134.42 16.9801 134.495 16.4101 134.495C15.5601 134.495 14.8801 134.275 14.3701 133.835C13.8601 133.395 13.6051 132.735 13.6051 131.855V128.81H15.8401V131.81ZM27.0788 128.645C28.1788 128.645 29.0188 128.885 29.5988 129.365C30.1888 129.835 30.4838 130.56 30.4838 131.54V137H28.9238L28.4888 135.89H28.4288C28.1988 136.18 27.9588 136.42 27.7088 136.61C27.4688 136.8 27.1888 136.935 26.8688 137.015C26.5588 137.105 26.1738 137.15 25.7138 137.15C25.2338 137.15 24.7988 137.06 24.4088 136.88C24.0288 136.69 23.7288 136.405 23.5088 136.025C23.2888 135.635 23.1788 135.145 23.1788 134.555C23.1788 133.685 23.4838 133.045 24.0938 132.635C24.7038 132.215 25.6188 131.985 26.8388 131.945L28.2638 131.9V131.54C28.2638 131.11 28.1488 130.795 27.9188 130.595C27.6988 130.395 27.3888 130.295 26.9888 130.295C26.5888 130.295 26.1988 130.355 25.8188 130.475C25.4388 130.585 25.0588 130.725 24.6788 130.895L23.9438 129.38C24.3838 129.15 24.8688 128.97 25.3988 128.84C25.9388 128.71 26.4988 128.645 27.0788 128.645ZM27.3938 133.235C26.6738 133.255 26.1738 133.385 25.8938 133.625C25.6138 133.865 25.4738 134.18 25.4738 134.57C25.4738 134.91 25.5738 135.155 25.7738 135.305C25.9738 135.445 26.2338 135.515 26.5538 135.515C27.0338 135.515 27.4388 135.375 27.7688 135.095C28.0988 134.805 28.2638 134.4 28.2638 133.88V133.205L27.3938 133.235ZM36.1016 137.15C35.2916 137.15 34.6016 137.005 34.0316 136.715C33.4616 136.415 33.0266 135.955 32.7266 135.335C32.4266 134.715 32.2766 133.92 32.2766 132.95C32.2766 131.95 32.4466 131.135 32.7866 130.505C33.1266 129.875 33.5966 129.41 34.1966 129.11C34.8066 128.81 35.5066 128.66 36.2966 128.66C36.8566 128.66 37.3416 128.715 37.7516 128.825C38.1716 128.935 38.5366 129.065 38.8466 129.215L38.1866 130.94C37.8366 130.8 37.5066 130.685 37.1966 130.595C36.8966 130.505 36.5966 130.46 36.2966 130.46C35.9066 130.46 35.5816 130.555 35.3216 130.745C35.0616 130.925 34.8666 131.2 34.7366 131.57C34.6166 131.93 34.5566 132.385 34.5566 132.935C34.5566 133.475 34.6216 133.925 34.7516 134.285C34.8916 134.635 35.0916 134.9 35.3516 135.08C35.6116 135.25 35.9266 135.335 36.2966 135.335C36.7666 135.335 37.1816 135.275 37.5416 135.155C37.9016 135.025 38.2516 134.85 38.5916 134.63V136.535C38.2516 136.755 37.8916 136.91 37.5116 137C37.1416 137.1 36.6716 137.15 36.1016 137.15ZM47.2566 130.49H44.5716V137H42.3366V130.49H39.6516V128.81H47.2566V130.49ZM55.6486 137H53.4136V130.49H51.3586C51.2586 131.69 51.1336 132.715 50.9836 133.565C50.8436 134.405 50.6636 135.09 50.4436 135.62C50.2336 136.15 49.9636 136.54 49.6336 136.79C49.3036 137.03 48.8986 137.15 48.4186 137.15C48.1586 137.15 47.9236 137.13 47.7136 137.09C47.5036 137.05 47.3136 136.99 47.1436 136.91V135.125C47.2536 135.165 47.3686 135.2 47.4886 135.23C47.6086 135.26 47.7336 135.275 47.8636 135.275C48.0036 135.275 48.1336 135.22 48.2536 135.11C48.3836 135 48.5036 134.805 48.6136 134.525C48.7336 134.245 48.8436 133.86 48.9436 133.37C49.0436 132.88 49.1336 132.265 49.2136 131.525C49.3036 130.775 49.3836 129.87 49.4536 128.81H55.6486V137ZM60.1415 132.05C60.1415 132.22 60.1315 132.43 60.1115 132.68C60.1015 132.93 60.0865 133.185 60.0665 133.445C60.0565 133.705 60.0415 133.935 60.0215 134.135C60.0015 134.335 59.9865 134.475 59.9765 134.555L63.7565 128.81H66.4415V137H64.2815V133.73C64.2815 133.46 64.2915 133.165 64.3115 132.845C64.3315 132.515 64.3515 132.21 64.3715 131.93C64.4015 131.64 64.4215 131.42 64.4315 131.27L60.6665 137H57.9815V128.81H60.1415V132.05ZM76.0374 130.955C76.0374 131.395 75.8974 131.77 75.6174 132.08C75.3474 132.39 74.9424 132.59 74.4024 132.68V132.74C74.9724 132.81 75.4274 133.005 75.7674 133.325C76.1174 133.645 76.2924 134.055 76.2924 134.555C76.2924 134.905 76.2224 135.23 76.0824 135.53C75.9524 135.83 75.7424 136.09 75.4524 136.31C75.1624 136.53 74.7874 136.7 74.3274 136.82C73.8774 136.94 73.3274 137 72.6774 137H68.7774V128.81H72.6774C73.3174 128.81 73.8874 128.88 74.3874 129.02C74.8974 129.15 75.2974 129.37 75.5874 129.68C75.8874 129.99 76.0374 130.415 76.0374 130.955ZM73.9824 134.435C73.9824 134.115 73.8574 133.885 73.6074 133.745C73.3574 133.595 72.9824 133.52 72.4824 133.52H71.0124V135.455H72.5274C72.9474 135.455 73.2924 135.38 73.5624 135.23C73.8424 135.07 73.9824 134.805 73.9824 134.435ZM73.7724 131.135C73.7724 130.875 73.6724 130.685 73.4724 130.565C73.2724 130.445 72.9774 130.385 72.5874 130.385H71.0124V132.005H72.3324C72.8024 132.005 73.1574 131.94 73.3974 131.81C73.6474 131.67 73.7724 131.445 73.7724 131.135ZM81.571 128.645C82.671 128.645 83.511 128.885 84.091 129.365C84.681 129.835 84.976 130.56 84.976 131.54V137H83.416L82.981 135.89H82.921C82.691 136.18 82.451 136.42 82.201 136.61C81.961 136.8 81.681 136.935 81.361 137.015C81.051 137.105 80.666 137.15 80.206 137.15C79.726 137.15 79.291 137.06 78.901 136.88C78.521 136.69 78.221 136.405 78.001 136.025C77.781 135.635 77.671 135.145 77.671 134.555C77.671 133.685 77.976 133.045 78.586 132.635C79.196 132.215 80.111 131.985 81.331 131.945L82.756 131.9V131.54C82.756 131.11 82.641 130.795 82.411 130.595C82.191 130.395 81.881 130.295 81.481 130.295C81.081 130.295 80.691 130.355 80.311 130.475C79.931 130.585 79.551 130.725 79.171 130.895L78.436 129.38C78.876 129.15 79.361 128.97 79.891 128.84C80.431 128.71 80.991 128.645 81.571 128.645ZM81.886 133.235C81.166 133.255 80.666 133.385 80.386 133.625C80.106 133.865 79.966 134.18 79.966 134.57C79.966 134.91 80.066 135.155 80.266 135.305C80.466 135.445 80.726 135.515 81.046 135.515C81.526 135.515 81.931 135.375 82.261 135.095C82.591 134.805 82.756 134.4 82.756 133.88V133.205L81.886 133.235ZM88.5088 137H86.0938L88.2987 133.76C88.0188 133.64 87.7538 133.48 87.5038 133.28C87.2638 133.07 87.0688 132.805 86.9188 132.485C86.7688 132.165 86.6938 131.785 86.6938 131.345C86.6938 130.525 87.0038 129.9 87.6238 129.47C88.2438 129.03 89.0388 128.81 90.0088 128.81H93.8188V137H91.5838V133.955H90.3538L88.5088 137ZM88.8838 131.36C88.8838 131.7 89.0188 131.97 89.2888 132.17C89.5588 132.36 89.9088 132.455 90.3388 132.455H91.5838V130.385H90.0537C89.6538 130.385 89.3588 130.485 89.1688 130.685C88.9788 130.875 88.8838 131.1 88.8838 131.36ZM101.465 132.05C101.465 132.22 101.455 132.43 101.435 132.68C101.425 132.93 101.41 133.185 101.39 133.445C101.38 133.705 101.365 133.935 101.345 134.135C101.325 134.335 101.31 134.475 101.3 134.555L105.08 128.81H107.765V137H105.605V133.73C105.605 133.46 105.615 133.165 105.635 132.845C105.655 132.515 105.675 132.21 105.695 131.93C105.725 131.64 105.745 131.42 105.755 131.27L101.99 137H99.3048V128.81H101.465V132.05ZM113.086 128.66C113.676 128.66 114.226 128.74 114.736 128.9C115.256 129.05 115.671 129.285 115.981 129.605C116.301 129.925 116.461 130.335 116.461 130.835C116.461 131.325 116.311 131.715 116.011 132.005C115.721 132.295 115.326 132.505 114.826 132.635V132.71C115.176 132.79 115.491 132.905 115.771 133.055C116.051 133.195 116.271 133.39 116.431 133.64C116.601 133.88 116.686 134.205 116.686 134.615C116.686 135.065 116.541 135.485 116.251 135.875C115.971 136.255 115.531 136.565 114.931 136.805C114.341 137.035 113.581 137.15 112.651 137.15C112.211 137.15 111.796 137.13 111.406 137.09C111.016 137.05 110.661 136.995 110.341 136.925C110.021 136.845 109.741 136.75 109.501 136.64V134.795C109.841 134.955 110.256 135.1 110.746 135.23C111.246 135.36 111.776 135.425 112.336 135.425C112.746 135.425 113.111 135.395 113.431 135.335C113.761 135.275 114.021 135.175 114.211 135.035C114.411 134.895 114.511 134.71 114.511 134.48C114.511 134.26 114.426 134.08 114.256 133.94C114.086 133.79 113.831 133.68 113.491 133.61C113.151 133.54 112.716 133.505 112.186 133.505H111.316V131.96H112.141C112.881 131.96 113.451 131.9 113.851 131.78C114.261 131.66 114.466 131.435 114.466 131.105C114.466 130.845 114.336 130.65 114.076 130.52C113.816 130.38 113.391 130.31 112.801 130.31C112.411 130.31 111.986 130.355 111.526 130.445C111.066 130.535 110.631 130.665 110.221 130.835L109.561 129.275C110.031 129.095 110.546 128.95 111.106 128.84C111.666 128.72 112.326 128.66 113.086 128.66ZM117.251 128.81H119.696L121.241 133.415C121.291 133.565 121.331 133.715 121.361 133.865C121.401 134.015 121.431 134.17 121.451 134.33C121.481 134.49 121.501 134.66 121.511 134.84H121.556C121.586 134.58 121.626 134.335 121.676 134.105C121.736 133.865 121.801 133.635 121.871 133.415L123.386 128.81H125.786L122.321 138.05C122.111 138.61 121.836 139.08 121.496 139.46C121.166 139.84 120.781 140.125 120.341 140.315C119.901 140.505 119.421 140.6 118.901 140.6C118.651 140.6 118.431 140.585 118.241 140.555C118.061 140.535 117.901 140.51 117.761 140.48V138.71C117.871 138.73 118.001 138.75 118.151 138.77C118.311 138.79 118.476 138.8 118.646 138.8C118.956 138.8 119.221 138.735 119.441 138.605C119.671 138.475 119.861 138.295 120.011 138.065C120.161 137.845 120.281 137.605 120.371 137.345L120.506 136.94L117.251 128.81ZM128.926 131.81C128.926 132.16 129.011 132.425 129.181 132.605C129.361 132.785 129.606 132.875 129.916 132.875C130.346 132.875 130.746 132.83 131.116 132.74C131.486 132.64 131.856 132.51 132.226 132.35V128.81H134.461V137H132.226V133.745C131.876 133.935 131.476 134.11 131.026 134.27C130.576 134.42 130.066 134.495 129.496 134.495C128.646 134.495 127.966 134.275 127.456 133.835C126.946 133.395 126.691 132.735 126.691 131.855V128.81H128.926V131.81ZM140.165 128.645C141.265 128.645 142.105 128.885 142.685 129.365C143.275 129.835 143.57 130.56 143.57 131.54V137H142.01L141.575 135.89H141.515C141.285 136.18 141.045 136.42 140.795 136.61C140.555 136.8 140.275 136.935 139.955 137.015C139.645 137.105 139.26 137.15 138.8 137.15C138.32 137.15 137.885 137.06 137.495 136.88C137.115 136.69 136.815 136.405 136.595 136.025C136.375 135.635 136.265 135.145 136.265 134.555C136.265 133.685 136.57 133.045 137.18 132.635C137.79 132.215 138.705 131.985 139.925 131.945L141.35 131.9V131.54C141.35 131.11 141.235 130.795 141.005 130.595C140.785 130.395 140.475 130.295 140.075 130.295C139.675 130.295 139.285 130.355 138.905 130.475C138.525 130.585 138.145 130.725 137.765 130.895L137.03 129.38C137.47 129.15 137.955 128.97 138.485 128.84C139.025 128.71 139.585 128.645 140.165 128.645ZM140.48 133.235C139.76 133.255 139.26 133.385 138.98 133.625C138.7 133.865 138.56 134.18 138.56 134.57C138.56 134.91 138.66 135.155 138.86 135.305C139.06 135.445 139.32 135.515 139.64 135.515C140.12 135.515 140.525 135.375 140.855 135.095C141.185 134.805 141.35 134.4 141.35 133.88V133.205L140.48 133.235ZM157.168 132.89C157.168 133.8 157.013 134.575 156.703 135.215C156.393 135.845 155.948 136.325 155.368 136.655C154.798 136.985 154.118 137.15 153.328 137.15C152.658 137.15 152.053 137.025 151.513 136.775C150.983 136.515 150.548 136.125 150.208 135.605C149.878 135.085 149.663 134.425 149.563 133.625H148.093V137H145.858V128.81H148.093V131.96H149.593C149.693 131.25 149.908 130.65 150.238 130.16C150.578 129.67 151.013 129.3 151.543 129.05C152.083 128.79 152.693 128.66 153.373 128.66C154.113 128.66 154.768 128.825 155.338 129.155C155.908 129.485 156.353 129.965 156.673 130.595C157.003 131.215 157.168 131.98 157.168 132.89ZM151.813 132.89C151.813 133.43 151.863 133.885 151.963 134.255C152.073 134.615 152.243 134.89 152.473 135.08C152.703 135.26 152.998 135.35 153.358 135.35C153.718 135.35 154.008 135.26 154.228 135.08C154.458 134.89 154.623 134.615 154.723 134.255C154.833 133.885 154.888 133.43 154.888 132.89C154.888 132.35 154.833 131.9 154.723 131.54C154.623 131.18 154.458 130.91 154.228 130.73C154.008 130.55 153.713 130.46 153.343 130.46C152.983 130.46 152.688 130.55 152.458 130.73C152.238 130.91 152.073 131.18 151.963 131.54C151.863 131.9 151.813 132.35 151.813 132.89ZM13.61 147.89C13.61 148.57 13.515 149.175 13.325 149.705C13.145 150.235 12.88 150.685 12.53 151.055C12.19 151.415 11.775 151.69 11.285 151.88C10.795 152.06 10.24 152.15 9.62 152.15C9.05 152.15 8.52 152.06 8.03 151.88C7.55 151.69 7.135 151.415 6.785 151.055C6.435 150.685 6.16 150.235 5.96 149.705C5.77 149.175 5.675 148.57 5.675 147.89C5.675 146.98 5.835 146.215 6.155 145.595C6.475 144.965 6.935 144.485 7.535 144.155C8.135 143.825 8.845 143.66 9.665 143.66C10.435 143.66 11.115 143.825 11.705 144.155C12.295 144.485 12.76 144.965 13.1 145.595C13.44 146.215 13.61 146.98 13.61 147.89ZM7.955 147.89C7.955 148.43 8.01 148.885 8.12 149.255C8.24 149.615 8.425 149.89 8.675 150.08C8.925 150.26 9.25 150.35 9.65 150.35C10.05 150.35 10.37 150.26 10.61 150.08C10.86 149.89 11.04 149.615 11.15 149.255C11.27 148.885 11.33 148.43 11.33 147.89C11.33 147.35 11.27 146.9 11.15 146.54C11.04 146.18 10.86 145.91 10.61 145.73C10.36 145.55 10.035 145.46 9.635 145.46C9.045 145.46 8.615 145.665 8.345 146.075C8.085 146.475 7.955 147.08 7.955 147.89ZM22.8971 143.81V152H20.6621V145.49H17.6921V152H15.4571V143.81H22.8971ZM28.6173 143.66C29.3773 143.66 30.0273 143.805 30.5673 144.095C31.1173 144.385 31.5423 144.805 31.8423 145.355C32.1423 145.905 32.2923 146.58 32.2923 147.38V148.46H27.0123C27.0323 149.09 27.2173 149.585 27.5673 149.945C27.9273 150.305 28.4223 150.485 29.0523 150.485C29.5823 150.485 30.0623 150.435 30.4923 150.335C30.9223 150.225 31.3673 150.06 31.8273 149.84V151.565C31.4273 151.765 31.0023 151.91 30.5523 152C30.1123 152.1 29.5773 152.15 28.9473 152.15C28.1273 152.15 27.4023 152 26.7723 151.7C26.1423 151.39 25.6473 150.925 25.2873 150.305C24.9273 149.685 24.7473 148.905 24.7473 147.965C24.7473 147.005 24.9073 146.21 25.2273 145.58C25.5573 144.94 26.0123 144.46 26.5923 144.14C27.1723 143.82 27.8473 143.66 28.6173 143.66ZM28.6323 145.25C28.2023 145.25 27.8423 145.39 27.5523 145.67C27.2723 145.95 27.1073 146.385 27.0573 146.975H30.1923C30.1923 146.645 30.1323 146.35 30.0123 146.09C29.9023 145.83 29.7323 145.625 29.5023 145.475C29.2723 145.325 28.9823 145.25 28.6323 145.25ZM38.6646 143.66C39.5846 143.66 40.3296 144.02 40.8996 144.74C41.4696 145.45 41.7546 146.5 41.7546 147.89C41.7546 148.82 41.6196 149.605 41.3496 150.245C41.0796 150.875 40.7096 151.35 40.2396 151.67C39.7696 151.99 39.2246 152.15 38.6046 152.15C38.2146 152.15 37.8746 152.1 37.5846 152C37.3046 151.9 37.0646 151.77 36.8646 151.61C36.6646 151.45 36.4896 151.28 36.3396 151.1H36.2196C36.2596 151.29 36.2896 151.49 36.3096 151.7C36.3296 151.9 36.3396 152.1 36.3396 152.3V155.6H34.1046V143.81H35.9196L36.2346 144.875H36.3396C36.4896 144.655 36.6696 144.455 36.8796 144.275C37.0896 144.085 37.3396 143.935 37.6296 143.825C37.9296 143.715 38.2746 143.66 38.6646 143.66ZM37.9446 145.445C37.5546 145.445 37.2446 145.525 37.0146 145.685C36.7846 145.845 36.6146 146.09 36.5046 146.42C36.4046 146.74 36.3496 147.145 36.3396 147.635V147.875C36.3396 148.405 36.3896 148.855 36.4896 149.225C36.5896 149.585 36.7596 149.86 36.9996 150.05C37.2396 150.24 37.5646 150.335 37.9746 150.335C38.3146 150.335 38.5946 150.24 38.8146 150.05C39.0346 149.86 39.1996 149.58 39.3096 149.21C39.4196 148.84 39.4746 148.39 39.4746 147.86C39.4746 147.06 39.3496 146.46 39.0996 146.06C38.8596 145.65 38.4746 145.445 37.9446 145.445ZM46.9568 143.645C48.0568 143.645 48.8968 143.885 49.4768 144.365C50.0668 144.835 50.3618 145.56 50.3618 146.54V152H48.8018L48.3668 150.89H48.3068C48.0768 151.18 47.8368 151.42 47.5868 151.61C47.3468 151.8 47.0668 151.935 46.7468 152.015C46.4368 152.105 46.0518 152.15 45.5918 152.15C45.1118 152.15 44.6768 152.06 44.2868 151.88C43.9068 151.69 43.6068 151.405 43.3868 151.025C43.1668 150.635 43.0568 150.145 43.0568 149.555C43.0568 148.685 43.3618 148.045 43.9718 147.635C44.5818 147.215 45.4968 146.985 46.7168 146.945L48.1418 146.9V146.54C48.1418 146.11 48.0268 145.795 47.7968 145.595C47.5768 145.395 47.2668 145.295 46.8668 145.295C46.4668 145.295 46.0768 145.355 45.6968 145.475C45.3168 145.585 44.9368 145.725 44.5568 145.895L43.8218 144.38C44.2618 144.15 44.7468 143.97 45.2768 143.84C45.8168 143.71 46.3768 143.645 46.9568 143.645ZM47.2718 148.235C46.5518 148.255 46.0518 148.385 45.7718 148.625C45.4918 148.865 45.3518 149.18 45.3518 149.57C45.3518 149.91 45.4518 150.155 45.6518 150.305C45.8518 150.445 46.1118 150.515 46.4318 150.515C46.9118 150.515 47.3168 150.375 47.6468 150.095C47.9768 149.805 48.1418 149.4 48.1418 148.88V148.205L47.2718 148.235ZM61.5895 154.94H59.5795V152H52.6495V143.81H54.8845V150.32H58.1545V143.81H60.3895V150.365H61.5895V154.94ZM65.1366 147.05C65.1366 147.22 65.1266 147.43 65.1066 147.68C65.0966 147.93 65.0816 148.185 65.0616 148.445C65.0516 148.705 65.0366 148.935 65.0166 149.135C64.9966 149.335 64.9816 149.475 64.9716 149.555L68.7516 143.81H71.4366V152H69.2766V148.73C69.2766 148.46 69.2866 148.165 69.3066 147.845C69.3266 147.515 69.3466 147.21 69.3666 146.93C69.3966 146.64 69.4166 146.42 69.4266 146.27L65.6616 152H62.9766V143.81H65.1366V147.05ZM75.9325 147.05C75.9325 147.22 75.9225 147.43 75.9025 147.68C75.8925 147.93 75.8775 148.185 75.8575 148.445C75.8475 148.705 75.8325 148.935 75.8125 149.135C75.7925 149.335 75.7775 149.475 75.7675 149.555L79.5475 143.81H82.2325V152H80.0725V148.73C80.0725 148.46 80.0825 148.165 80.1025 147.845C80.1225 147.515 80.1425 147.21 80.1625 146.93C80.1925 146.64 80.2125 146.42 80.2225 146.27L76.4575 152H73.7725V143.81H75.9325V147.05ZM89.9529 143.81V146.96H93.0729V143.81H95.3079V152H93.0729V148.625H89.9529V152H87.7179V143.81H89.9529ZM101.009 143.645C102.109 143.645 102.949 143.885 103.529 144.365C104.119 144.835 104.414 145.56 104.414 146.54V152H102.854L102.419 150.89H102.359C102.129 151.18 101.889 151.42 101.639 151.61C101.399 151.8 101.119 151.935 100.799 152.015C100.489 152.105 100.104 152.15 99.6445 152.15C99.1645 152.15 98.7295 152.06 98.3395 151.88C97.9595 151.69 97.6595 151.405 97.4395 151.025C97.2195 150.635 97.1095 150.145 97.1095 149.555C97.1095 148.685 97.4145 148.045 98.0245 147.635C98.6345 147.215 99.5495 146.985 100.769 146.945L102.194 146.9V146.54C102.194 146.11 102.079 145.795 101.849 145.595C101.629 145.395 101.319 145.295 100.919 145.295C100.519 145.295 100.129 145.355 99.7495 145.475C99.3695 145.585 98.9895 145.725 98.6095 145.895L97.8745 144.38C98.3145 144.15 98.7995 143.97 99.3295 143.84C99.8695 143.71 100.429 143.645 101.009 143.645ZM101.324 148.235C100.604 148.255 100.104 148.385 99.8245 148.625C99.5445 148.865 99.4045 149.18 99.4045 149.57C99.4045 149.91 99.5045 150.155 99.7045 150.305C99.9045 150.445 100.164 150.515 100.484 150.515C100.964 150.515 101.369 150.375 101.699 150.095C102.029 149.805 102.194 149.4 102.194 148.88V148.205L101.324 148.235ZM113.182 152.15C112.372 152.15 111.682 152.005 111.112 151.715C110.542 151.415 110.107 150.955 109.807 150.335C109.507 149.715 109.357 148.92 109.357 147.95C109.357 146.95 109.527 146.135 109.867 145.505C110.207 144.875 110.677 144.41 111.277 144.11C111.887 143.81 112.587 143.66 113.377 143.66C113.937 143.66 114.422 143.715 114.832 143.825C115.252 143.935 115.617 144.065 115.927 144.215L115.267 145.94C114.917 145.8 114.587 145.685 114.277 145.595C113.977 145.505 113.677 145.46 113.377 145.46C112.987 145.46 112.662 145.555 112.402 145.745C112.142 145.925 111.947 146.2 111.817 146.57C111.697 146.93 111.637 147.385 111.637 147.935C111.637 148.475 111.702 148.925 111.832 149.285C111.972 149.635 112.172 149.9 112.432 150.08C112.692 150.25 113.007 150.335 113.377 150.335C113.847 150.335 114.262 150.275 114.622 150.155C114.982 150.025 115.332 149.85 115.672 149.63V151.535C115.332 151.755 114.972 151.91 114.592 152C114.222 152.1 113.752 152.15 113.182 152.15ZM122.927 143.81H125.387L122.147 147.74L125.672 152H123.137L119.792 147.845V152H117.557V143.81H119.792V147.785L122.927 143.81ZM134.179 152H131.944V145.49H129.889C129.789 146.69 129.664 147.715 129.514 148.565C129.374 149.405 129.194 150.09 128.974 150.62C128.764 151.15 128.494 151.54 128.164 151.79C127.834 152.03 127.429 152.15 126.949 152.15C126.689 152.15 126.454 152.13 126.244 152.09C126.034 152.05 125.844 151.99 125.674 151.91V150.125C125.784 150.165 125.899 150.2 126.019 150.23C126.139 150.26 126.264 150.275 126.394 150.275C126.534 150.275 126.664 150.22 126.784 150.11C126.914 150 127.034 149.805 127.144 149.525C127.264 149.245 127.374 148.86 127.474 148.37C127.574 147.88 127.664 147.265 127.744 146.525C127.834 145.775 127.914 144.87 127.984 143.81H134.179V152ZM139.872 143.645C140.972 143.645 141.812 143.885 142.392 144.365C142.982 144.835 143.277 145.56 143.277 146.54V152H141.717L141.282 150.89H141.222C140.992 151.18 140.752 151.42 140.502 151.61C140.262 151.8 139.982 151.935 139.662 152.015C139.352 152.105 138.967 152.15 138.507 152.15C138.027 152.15 137.592 152.06 137.202 151.88C136.822 151.69 136.522 151.405 136.302 151.025C136.082 150.635 135.972 150.145 135.972 149.555C135.972 148.685 136.277 148.045 136.887 147.635C137.497 147.215 138.412 146.985 139.632 146.945L141.057 146.9V146.54C141.057 146.11 140.942 145.795 140.712 145.595C140.492 145.395 140.182 145.295 139.782 145.295C139.382 145.295 138.992 145.355 138.612 145.475C138.232 145.585 137.852 145.725 137.472 145.895L136.737 144.38C137.177 144.15 137.662 143.97 138.192 143.84C138.732 143.71 139.292 143.645 139.872 143.645ZM140.187 148.235C139.467 148.255 138.967 148.385 138.687 148.625C138.407 148.865 138.267 149.18 138.267 149.57C138.267 149.91 138.367 150.155 138.567 150.305C138.767 150.445 139.027 150.515 139.347 150.515C139.827 150.515 140.232 150.375 140.562 150.095C140.892 149.805 141.057 149.4 141.057 148.88V148.205L140.187 148.235ZM152.93 143.81V150.365H154.13V154.94H152.12V152H146.615V154.94H144.605V150.365H145.295C145.655 149.815 145.96 149.19 146.21 148.49C146.46 147.78 146.66 147.025 146.81 146.225C146.96 145.425 147.07 144.62 147.14 143.81H152.93ZM149.015 145.49C148.935 146.09 148.835 146.675 148.715 147.245C148.595 147.805 148.445 148.345 148.265 148.865C148.095 149.385 147.885 149.885 147.635 150.365H150.695V145.49H149.015ZM158.9 143.66C159.66 143.66 160.31 143.805 160.85 144.095C161.4 144.385 161.825 144.805 162.125 145.355C162.425 145.905 162.575 146.58 162.575 147.38V148.46H157.295C157.315 149.09 157.5 149.585 157.85 149.945C158.21 150.305 158.705 150.485 159.335 150.485C159.865 150.485 160.345 150.435 160.775 150.335C161.205 150.225 161.65 150.06 162.11 149.84V151.565C161.71 151.765 161.285 151.91 160.835 152C160.395 152.1 159.86 152.15 159.23 152.15C158.41 152.15 157.685 152 157.055 151.7C156.425 151.39 155.93 150.925 155.57 150.305C155.21 149.685 155.03 148.905 155.03 147.965C155.03 147.005 155.19 146.21 155.51 145.58C155.84 144.94 156.295 144.46 156.875 144.14C157.455 143.82 158.13 143.66 158.9 143.66ZM158.915 145.25C158.485 145.25 158.125 145.39 157.835 145.67C157.555 145.95 157.39 146.385 157.34 146.975H160.475C160.475 146.645 160.415 146.35 160.295 146.09C160.185 145.83 160.015 145.625 159.785 145.475C159.555 145.325 159.265 145.25 158.915 145.25ZM169.202 151.91C168.812 151.91 168.492 151.785 168.242 151.535C167.992 151.285 167.867 150.965 167.867 150.575C167.867 150.195 167.992 149.875 168.242 149.615C168.492 149.345 168.812 149.21 169.202 149.21C169.582 149.21 169.902 149.345 170.162 149.615C170.432 149.875 170.567 150.195 170.567 150.575C170.567 150.965 170.432 151.285 170.162 151.535C169.902 151.785 169.582 151.91 169.202 151.91ZM169.202 147.185C168.812 147.185 168.492 147.06 168.242 146.81C167.992 146.56 167.867 146.24 167.867 145.85C167.867 145.47 167.992 145.15 168.242 144.89C168.492 144.62 168.812 144.485 169.202 144.485C169.582 144.485 169.902 144.62 170.162 144.89C170.432 145.15 170.567 145.47 170.567 145.85C170.567 146.24 170.432 146.56 170.162 146.81C169.902 147.06 169.582 147.185 169.202 147.185ZM173.508 153.8H171.318C172.438 151.46 172.998 149.185 172.998 146.975C172.998 144.765 172.438 142.49 171.318 140.15H173.508C174.788 142.49 175.428 144.765 175.428 146.975C175.428 149.185 174.788 151.46 173.508 153.8Z" fill="white"/>
</svg>
