<svg width="388" height="131" viewBox="0 0 388 131" fill="none" xmlns="http://www.w3.org/2000/svg">
<path d="M136.486 84L135.55 80.94H130.87L129.934 84H127L131.536 71.094H134.866L139.42 84H136.486ZM133.966 75.666C133.906 75.462 133.828 75.204 133.732 74.892C133.636 74.58 133.54 74.262 133.444 73.938C133.348 73.614 133.27 73.332 133.21 73.092C133.15 73.332 133.066 73.632 132.958 73.992C132.862 74.34 132.766 74.676 132.67 75C132.586 75.312 132.52 75.534 132.472 75.666L131.554 78.654H134.902L133.966 75.666ZM153.323 76.746C153.323 77.274 153.155 77.724 152.819 78.096C152.495 78.468 152.009 78.708 151.361 78.816V78.888C152.045 78.972 152.591 79.206 152.999 79.59C153.419 79.974 153.629 80.466 153.629 81.066C153.629 81.486 153.545 81.876 153.377 82.236C153.221 82.596 152.969 82.908 152.621 83.172C152.273 83.436 151.823 83.64 151.271 83.784C150.731 83.928 150.071 84 149.291 84H144.611V74.172H149.291C150.059 74.172 150.743 74.256 151.343 74.424C151.955 74.58 152.435 74.844 152.783 75.216C153.143 75.588 153.323 76.098 153.323 76.746ZM150.857 80.922C150.857 80.538 150.707 80.262 150.407 80.094C150.107 79.914 149.657 79.824 149.057 79.824H147.293V82.146H149.111C149.615 82.146 150.029 82.056 150.353 81.876C150.689 81.684 150.857 81.366 150.857 80.922ZM150.605 76.962C150.605 76.65 150.485 76.422 150.245 76.278C150.005 76.134 149.651 76.062 149.183 76.062H147.293V78.006H148.877C149.441 78.006 149.867 77.928 150.155 77.772C150.455 77.604 150.605 77.334 150.605 76.962ZM167.847 76.188H164.625V84H161.943V76.188H158.721V74.172H167.847V76.188ZM173.692 73.974C175.012 73.974 176.02 74.262 176.716 74.838C177.424 75.402 177.778 76.272 177.778 77.448V84H175.906L175.384 82.668H175.312C175.036 83.016 174.748 83.304 174.448 83.532C174.16 83.76 173.824 83.922 173.44 84.018C173.068 84.126 172.606 84.18 172.054 84.18C171.478 84.18 170.956 84.072 170.488 83.856C170.032 83.628 169.672 83.286 169.408 82.83C169.144 82.362 169.012 81.774 169.012 81.066C169.012 80.022 169.378 79.254 170.11 78.762C170.842 78.258 171.94 77.982 173.404 77.934L175.114 77.88V77.448C175.114 76.932 174.976 76.554 174.7 76.314C174.436 76.074 174.064 75.954 173.584 75.954C173.104 75.954 172.636 76.026 172.18 76.17C171.724 76.302 171.268 76.47 170.812 76.674L169.93 74.856C170.458 74.58 171.04 74.364 171.676 74.208C172.324 74.052 172.996 73.974 173.692 73.974ZM174.07 79.482C173.206 79.506 172.606 79.662 172.27 79.95C171.934 80.238 171.766 80.616 171.766 81.084C171.766 81.492 171.886 81.786 172.126 81.966C172.366 82.134 172.678 82.218 173.062 82.218C173.638 82.218 174.124 82.05 174.52 81.714C174.916 81.366 175.114 80.88 175.114 80.256V79.446L174.07 79.482ZM186.967 74.172H189.919L186.031 78.888L190.261 84H187.219L183.205 79.014V84H180.523V74.172H183.205V78.942L186.967 74.172ZM194.26 78.06C194.26 78.264 194.248 78.516 194.224 78.816C194.212 79.116 194.194 79.422 194.17 79.734C194.158 80.046 194.14 80.322 194.116 80.562C194.092 80.802 194.074 80.97 194.062 81.066L198.598 74.172H201.82V84H199.228V80.076C199.228 79.752 199.24 79.398 199.264 79.014C199.288 78.618 199.312 78.252 199.336 77.916C199.372 77.568 199.396 77.304 199.408 77.124L194.89 84H191.668V74.172H194.26V78.06ZM206.639 78.978L203.471 74.172H206.513L208.421 77.304L210.347 74.172H213.389L210.185 78.978L213.533 84H210.491L208.421 80.634L206.351 84H203.309L206.639 78.978ZM231.192 74.172V84H228.69V79.176C228.69 78.696 228.696 78.228 228.708 77.772C228.732 77.316 228.762 76.896 228.798 76.512H228.744L226.026 84H224.01L221.256 76.494H221.184C221.232 76.89 221.262 77.316 221.274 77.772C221.298 78.216 221.31 78.708 221.31 79.248V84H218.808V74.172H222.606L225.054 80.832L227.538 74.172H231.192ZM238.028 73.974C239.348 73.974 240.356 74.262 241.052 74.838C241.76 75.402 242.114 76.272 242.114 77.448V84H240.242L239.72 82.668H239.648C239.372 83.016 239.084 83.304 238.784 83.532C238.496 83.76 238.16 83.922 237.776 84.018C237.404 84.126 236.942 84.18 236.39 84.18C235.814 84.18 235.292 84.072 234.824 83.856C234.368 83.628 234.008 83.286 233.744 82.83C233.48 82.362 233.348 81.774 233.348 81.066C233.348 80.022 233.714 79.254 234.446 78.762C235.178 78.258 236.276 77.982 237.74 77.934L239.45 77.88V77.448C239.45 76.932 239.312 76.554 239.036 76.314C238.772 76.074 238.4 75.954 237.92 75.954C237.44 75.954 236.972 76.026 236.516 76.17C236.06 76.302 235.604 76.47 235.148 76.674L234.266 74.856C234.794 74.58 235.376 74.364 236.012 74.208C236.66 74.052 237.332 73.974 238.028 73.974ZM238.406 79.482C237.542 79.506 236.942 79.662 236.606 79.95C236.27 80.238 236.102 80.616 236.102 81.084C236.102 81.492 236.222 81.786 236.462 81.966C236.702 82.134 237.014 82.218 237.398 82.218C237.974 82.218 238.46 82.05 238.856 81.714C239.252 81.366 239.45 80.88 239.45 80.256V79.446L238.406 79.482ZM259.493 74.172V84H244.859V74.172H247.541V81.984H250.835V74.172H253.517V81.984H256.811V74.172H259.493ZM264.889 78.06C264.889 78.264 264.877 78.516 264.853 78.816C264.841 79.116 264.823 79.422 264.799 79.734C264.787 80.046 264.769 80.322 264.745 80.562C264.721 80.802 264.703 80.97 264.691 81.066L269.227 74.172H272.449V84H269.857V80.076C269.857 79.752 269.869 79.398 269.893 79.014C269.917 78.618 269.941 78.252 269.965 77.916C270.001 77.568 270.025 77.304 270.037 77.124L265.519 84H262.297V74.172H264.889V78.06ZM277.934 74.172V77.952H281.678V74.172H284.36V84H281.678V79.95H277.934V84H275.252V74.172H277.934ZM291.202 73.974C292.522 73.974 293.53 74.262 294.226 74.838C294.934 75.402 295.288 76.272 295.288 77.448V84H293.416L292.894 82.668H292.822C292.546 83.016 292.258 83.304 291.958 83.532C291.67 83.76 291.334 83.922 290.95 84.018C290.578 84.126 290.116 84.18 289.564 84.18C288.988 84.18 288.466 84.072 287.998 83.856C287.542 83.628 287.182 83.286 286.918 82.83C286.654 82.362 286.522 81.774 286.522 81.066C286.522 80.022 286.888 79.254 287.62 78.762C288.352 78.258 289.45 77.982 290.914 77.934L292.624 77.88V77.448C292.624 76.932 292.486 76.554 292.21 76.314C291.946 76.074 291.574 75.954 291.094 75.954C290.614 75.954 290.146 76.026 289.69 76.17C289.234 76.302 288.778 76.47 288.322 76.674L287.44 74.856C287.968 74.58 288.55 74.364 289.186 74.208C289.834 74.052 290.506 73.974 291.202 73.974ZM291.58 79.482C290.716 79.506 290.116 79.662 289.78 79.95C289.444 80.238 289.276 80.616 289.276 81.084C289.276 81.492 289.396 81.786 289.636 81.966C289.876 82.134 290.188 82.218 290.572 82.218C291.148 82.218 291.634 82.05 292.03 81.714C292.426 81.366 292.624 80.88 292.624 80.256V79.446L291.58 79.482ZM300.049 78.978L296.881 74.172H299.923L301.831 77.304L303.757 74.172H306.799L303.595 78.978L306.943 84H303.901L301.831 80.634L299.761 84H296.719L300.049 78.978ZM320.93 76.746C320.93 77.274 320.762 77.724 320.426 78.096C320.102 78.468 319.616 78.708 318.968 78.816V78.888C319.652 78.972 320.198 79.206 320.606 79.59C321.026 79.974 321.236 80.466 321.236 81.066C321.236 81.486 321.152 81.876 320.984 82.236C320.828 82.596 320.576 82.908 320.228 83.172C319.88 83.436 319.43 83.64 318.878 83.784C318.338 83.928 317.678 84 316.898 84H312.218V74.172H316.898C317.666 74.172 318.35 74.256 318.95 74.424C319.562 74.58 320.042 74.844 320.39 75.216C320.75 75.588 320.93 76.098 320.93 76.746ZM318.464 80.922C318.464 80.538 318.314 80.262 318.014 80.094C317.714 79.914 317.264 79.824 316.664 79.824H314.9V82.146H316.718C317.222 82.146 317.636 82.056 317.96 81.876C318.296 81.684 318.464 81.366 318.464 80.922ZM318.212 76.962C318.212 76.65 318.092 76.422 317.852 76.278C317.612 76.134 317.258 76.062 316.79 76.062H314.9V78.006H316.484C317.048 78.006 317.474 77.928 317.762 77.772C318.062 77.604 318.212 77.334 318.212 76.962ZM327.571 73.974C328.891 73.974 329.899 74.262 330.595 74.838C331.303 75.402 331.657 76.272 331.657 77.448V84H329.785L329.263 82.668H329.191C328.915 83.016 328.627 83.304 328.327 83.532C328.039 83.76 327.703 83.922 327.319 84.018C326.947 84.126 326.485 84.18 325.933 84.18C325.357 84.18 324.835 84.072 324.367 83.856C323.911 83.628 323.551 83.286 323.287 82.83C323.023 82.362 322.891 81.774 322.891 81.066C322.891 80.022 323.257 79.254 323.989 78.762C324.721 78.258 325.819 77.982 327.283 77.934L328.993 77.88V77.448C328.993 76.932 328.855 76.554 328.579 76.314C328.315 76.074 327.943 75.954 327.463 75.954C326.983 75.954 326.515 76.026 326.059 76.17C325.603 76.302 325.147 76.47 324.691 76.674L323.809 74.856C324.337 74.58 324.919 74.364 325.555 74.208C326.203 74.052 326.875 73.974 327.571 73.974ZM327.949 79.482C327.085 79.506 326.485 79.662 326.149 79.95C325.813 80.238 325.645 80.616 325.645 81.084C325.645 81.492 325.765 81.786 326.005 81.966C326.245 82.134 326.557 82.218 326.941 82.218C327.517 82.218 328.003 82.05 328.399 81.714C328.795 81.366 328.993 80.88 328.993 80.256V79.446L327.949 79.482ZM346.786 74.172V84H344.284V79.176C344.284 78.696 344.29 78.228 344.302 77.772C344.326 77.316 344.356 76.896 344.392 76.512H344.338L341.62 84H339.604L336.85 76.494H336.778C336.826 76.89 336.856 77.316 336.868 77.772C336.892 78.216 336.904 78.708 336.904 79.248V84H334.402V74.172H338.2L340.648 80.832L343.132 74.172H346.786ZM137.116 94.746C137.116 95.274 136.948 95.724 136.612 96.096C136.288 96.468 135.802 96.708 135.154 96.816V96.888C135.838 96.972 136.384 97.206 136.792 97.59C137.212 97.974 137.422 98.466 137.422 99.066C137.422 99.486 137.338 99.876 137.17 100.236C137.014 100.596 136.762 100.908 136.414 101.172C136.066 101.436 135.616 101.64 135.064 101.784C134.524 101.928 133.864 102 133.084 102H128.404V92.172H133.084C133.852 92.172 134.536 92.256 135.136 92.424C135.748 92.58 136.228 92.844 136.576 93.216C136.936 93.588 137.116 94.098 137.116 94.746ZM134.65 98.922C134.65 98.538 134.5 98.262 134.2 98.094C133.9 97.914 133.45 97.824 132.85 97.824H131.086V100.146H132.904C133.408 100.146 133.822 100.056 134.146 99.876C134.482 99.684 134.65 99.366 134.65 98.922ZM134.398 94.962C134.398 94.65 134.278 94.422 134.038 94.278C133.798 94.134 133.444 94.062 132.976 94.062H131.086V96.006H132.67C133.234 96.006 133.66 95.928 133.948 95.772C134.248 95.604 134.398 95.334 134.398 94.962ZM143.756 91.974C145.076 91.974 146.084 92.262 146.78 92.838C147.488 93.402 147.842 94.272 147.842 95.448V102H145.97L145.448 100.668H145.376C145.1 101.016 144.812 101.304 144.512 101.532C144.224 101.76 143.888 101.922 143.504 102.018C143.132 102.126 142.67 102.18 142.118 102.18C141.542 102.18 141.02 102.072 140.552 101.856C140.096 101.628 139.736 101.286 139.472 100.83C139.208 100.362 139.076 99.774 139.076 99.066C139.076 98.022 139.442 97.254 140.174 96.762C140.906 96.258 142.004 95.982 143.468 95.934L145.178 95.88V95.448C145.178 94.932 145.04 94.554 144.764 94.314C144.5 94.074 144.128 93.954 143.648 93.954C143.168 93.954 142.7 94.026 142.244 94.17C141.788 94.302 141.332 94.47 140.876 94.674L139.994 92.856C140.522 92.58 141.104 92.364 141.74 92.208C142.388 92.052 143.06 91.974 143.756 91.974ZM144.134 97.482C143.27 97.506 142.67 97.662 142.334 97.95C141.998 98.238 141.83 98.616 141.83 99.084C141.83 99.492 141.95 99.786 142.19 99.966C142.43 100.134 142.742 100.218 143.126 100.218C143.702 100.218 144.188 100.05 144.584 99.714C144.98 99.366 145.178 98.88 145.178 98.256V97.446L144.134 97.482ZM162.972 92.172V102H160.47V97.176C160.47 96.696 160.476 96.228 160.488 95.772C160.512 95.316 160.542 94.896 160.578 94.512H160.524L157.806 102H155.79L153.036 94.494H152.964C153.012 94.89 153.042 95.316 153.054 95.772C153.078 96.216 153.09 96.708 153.09 97.248V102H150.588V92.172H154.386L156.834 98.832L159.318 92.172H162.972ZM178.392 92.172V100.038H179.832V105.528H177.42V102H170.814V105.528H168.402V100.038H169.23C169.662 99.378 170.028 98.628 170.328 97.788C170.628 96.936 170.868 96.03 171.048 95.07C171.228 94.11 171.36 93.144 171.444 92.172H178.392ZM173.694 94.188C173.598 94.908 173.478 95.61 173.334 96.294C173.19 96.966 173.01 97.614 172.794 98.238C172.59 98.862 172.338 99.462 172.038 100.038H175.71V94.188H173.694ZM190.436 97.068C190.436 97.884 190.322 98.61 190.094 99.246C189.878 99.882 189.56 100.422 189.14 100.866C188.732 101.298 188.234 101.628 187.646 101.856C187.058 102.072 186.392 102.18 185.648 102.18C184.964 102.18 184.328 102.072 183.74 101.856C183.164 101.628 182.666 101.298 182.246 100.866C181.826 100.422 181.496 99.882 181.256 99.246C181.028 98.61 180.914 97.884 180.914 97.068C180.914 95.976 181.106 95.058 181.49 94.314C181.874 93.558 182.426 92.982 183.146 92.586C183.866 92.19 184.718 91.992 185.702 91.992C186.626 91.992 187.442 92.19 188.15 92.586C188.858 92.982 189.416 93.558 189.824 94.314C190.232 95.058 190.436 95.976 190.436 97.068ZM183.65 97.068C183.65 97.716 183.716 98.262 183.848 98.706C183.992 99.138 184.214 99.468 184.514 99.696C184.814 99.912 185.204 100.02 185.684 100.02C186.164 100.02 186.548 99.912 186.836 99.696C187.136 99.468 187.352 99.138 187.484 98.706C187.628 98.262 187.7 97.716 187.7 97.068C187.7 96.42 187.628 95.88 187.484 95.448C187.352 95.016 187.136 94.692 186.836 94.476C186.536 94.26 186.146 94.152 185.666 94.152C184.958 94.152 184.442 94.398 184.118 94.89C183.806 95.37 183.65 96.096 183.65 97.068ZM196.648 102.18C195.676 102.18 194.848 102.006 194.164 101.658C193.48 101.298 192.958 100.746 192.598 100.002C192.238 99.258 192.058 98.304 192.058 97.14C192.058 95.94 192.262 94.962 192.67 94.206C193.078 93.45 193.642 92.892 194.362 92.532C195.094 92.172 195.934 91.992 196.882 91.992C197.554 91.992 198.136 92.058 198.628 92.19C199.132 92.322 199.57 92.478 199.942 92.658L199.15 94.728C198.73 94.56 198.334 94.422 197.962 94.314C197.602 94.206 197.242 94.152 196.882 94.152C196.414 94.152 196.024 94.266 195.712 94.494C195.4 94.71 195.166 95.04 195.01 95.484C194.866 95.916 194.794 96.462 194.794 97.122C194.794 97.77 194.872 98.31 195.028 98.742C195.196 99.162 195.436 99.48 195.748 99.696C196.06 99.9 196.438 100.002 196.882 100.002C197.446 100.002 197.944 99.93 198.376 99.786C198.808 99.63 199.228 99.42 199.636 99.156V101.442C199.228 101.706 198.796 101.892 198.34 102C197.896 102.12 197.332 102.18 196.648 102.18ZM210.034 94.188H206.812V102H204.13V94.188H200.908V92.172H210.034V94.188ZM215.879 91.974C217.199 91.974 218.207 92.262 218.903 92.838C219.611 93.402 219.965 94.272 219.965 95.448V102H218.093L217.571 100.668H217.499C217.223 101.016 216.935 101.304 216.635 101.532C216.347 101.76 216.011 101.922 215.627 102.018C215.255 102.126 214.793 102.18 214.241 102.18C213.665 102.18 213.143 102.072 212.675 101.856C212.219 101.628 211.859 101.286 211.595 100.83C211.331 100.362 211.199 99.774 211.199 99.066C211.199 98.022 211.565 97.254 212.297 96.762C213.029 96.258 214.127 95.982 215.591 95.934L217.301 95.88V95.448C217.301 94.932 217.163 94.554 216.887 94.314C216.623 94.074 216.251 93.954 215.771 93.954C215.291 93.954 214.823 94.026 214.367 94.17C213.911 94.302 213.455 94.47 212.999 94.674L212.117 92.856C212.645 92.58 213.227 92.364 213.863 92.208C214.511 92.052 215.183 91.974 215.879 91.974ZM216.257 97.482C215.393 97.506 214.793 97.662 214.457 97.95C214.121 98.238 213.953 98.616 213.953 99.084C213.953 99.492 214.073 99.786 214.313 99.966C214.553 100.134 214.865 100.218 215.249 100.218C215.825 100.218 216.311 100.05 216.707 99.714C217.103 99.366 217.301 98.88 217.301 98.256V97.446L216.257 97.482ZM231.423 94.746C231.423 95.274 231.255 95.724 230.919 96.096C230.595 96.468 230.109 96.708 229.461 96.816V96.888C230.145 96.972 230.691 97.206 231.099 97.59C231.519 97.974 231.729 98.466 231.729 99.066C231.729 99.486 231.645 99.876 231.477 100.236C231.321 100.596 231.069 100.908 230.721 101.172C230.373 101.436 229.923 101.64 229.371 101.784C228.831 101.928 228.171 102 227.391 102H222.711V92.172H227.391C228.159 92.172 228.843 92.256 229.443 92.424C230.055 92.58 230.535 92.844 230.883 93.216C231.243 93.588 231.423 94.098 231.423 94.746ZM228.957 98.922C228.957 98.538 228.807 98.262 228.507 98.094C228.207 97.914 227.757 97.824 227.157 97.824H225.393V100.146H227.211C227.715 100.146 228.129 100.056 228.453 99.876C228.789 99.684 228.957 99.366 228.957 98.922ZM228.705 94.962C228.705 94.65 228.585 94.422 228.345 94.278C228.105 94.134 227.751 94.062 227.283 94.062H225.393V96.006H226.977C227.541 96.006 227.967 95.928 228.255 95.772C228.555 95.604 228.705 95.334 228.705 94.962ZM242.833 102H240.151V94.188H237.685C237.565 95.628 237.415 96.858 237.235 97.878C237.067 98.886 236.851 99.708 236.587 100.344C236.335 100.98 236.011 101.448 235.615 101.748C235.219 102.036 234.733 102.18 234.157 102.18C233.845 102.18 233.563 102.156 233.311 102.108C233.059 102.06 232.831 101.988 232.627 101.892V99.75C232.759 99.798 232.897 99.84 233.041 99.876C233.185 99.912 233.335 99.93 233.491 99.93C233.659 99.93 233.815 99.864 233.959 99.732C234.115 99.6 234.259 99.366 234.391 99.03C234.535 98.694 234.667 98.232 234.787 97.644C234.907 97.056 235.015 96.318 235.111 95.43C235.219 94.53 235.315 93.444 235.399 92.172H242.833V102ZM247.127 102H244.229L246.875 98.112C246.539 97.968 246.221 97.776 245.921 97.536C245.633 97.284 245.399 96.966 245.219 96.582C245.039 96.198 244.949 95.742 244.949 95.214C244.949 94.23 245.321 93.48 246.065 92.964C246.809 92.436 247.763 92.172 248.927 92.172H253.499V102H250.817V98.346H249.341L247.127 102ZM247.577 95.232C247.577 95.64 247.739 95.964 248.063 96.204C248.387 96.432 248.807 96.546 249.323 96.546H250.817V94.062H248.981C248.501 94.062 248.147 94.182 247.919 94.422C247.691 94.65 247.577 94.92 247.577 95.232ZM269.874 97.068C269.874 98.16 269.688 99.09 269.316 99.858C268.944 100.614 268.41 101.19 267.714 101.586C267.03 101.982 266.214 102.18 265.266 102.18C264.462 102.18 263.736 102.03 263.088 101.73C262.452 101.418 261.93 100.95 261.522 100.326C261.126 99.702 260.868 98.91 260.748 97.95H258.984V102H256.302V92.172H258.984V95.952H260.784C260.904 95.1 261.162 94.38 261.558 93.792C261.966 93.204 262.488 92.76 263.124 92.46C263.772 92.148 264.504 91.992 265.32 91.992C266.208 91.992 266.994 92.19 267.678 92.586C268.362 92.982 268.896 93.558 269.28 94.314C269.676 95.058 269.874 95.976 269.874 97.068ZM263.448 97.068C263.448 97.716 263.508 98.262 263.628 98.706C263.76 99.138 263.964 99.468 264.24 99.696C264.516 99.912 264.87 100.02 265.302 100.02C265.734 100.02 266.082 99.912 266.346 99.696C266.622 99.468 266.82 99.138 266.94 98.706C267.072 98.262 267.138 97.716 267.138 97.068C267.138 96.42 267.072 95.88 266.94 95.448C266.82 95.016 266.622 94.692 266.346 94.476C266.082 94.26 265.728 94.152 265.284 94.152C264.852 94.152 264.498 94.26 264.222 94.476C263.958 94.692 263.76 95.016 263.628 95.448C263.508 95.88 263.448 96.42 263.448 97.068ZM280.048 94.188H276.826V102H274.144V94.188H270.922V92.172H280.048V94.188ZM289.222 91.992C289.93 91.992 290.59 92.088 291.202 92.28C291.826 92.46 292.324 92.742 292.696 93.126C293.08 93.51 293.272 94.002 293.272 94.602C293.272 95.19 293.092 95.658 292.732 96.006C292.384 96.354 291.91 96.606 291.31 96.762V96.852C291.73 96.948 292.108 97.086 292.444 97.266C292.78 97.434 293.044 97.668 293.236 97.968C293.44 98.256 293.542 98.646 293.542 99.138C293.542 99.678 293.368 100.182 293.02 100.65C292.684 101.106 292.156 101.478 291.436 101.766C290.728 102.042 289.816 102.18 288.7 102.18C288.172 102.18 287.674 102.156 287.206 102.108C286.738 102.06 286.312 101.994 285.928 101.91C285.544 101.814 285.208 101.7 284.92 101.568V99.354C285.328 99.546 285.826 99.72 286.414 99.876C287.014 100.032 287.65 100.11 288.322 100.11C288.814 100.11 289.252 100.074 289.636 100.002C290.032 99.93 290.344 99.81 290.572 99.642C290.812 99.474 290.932 99.252 290.932 98.976C290.932 98.712 290.83 98.496 290.626 98.328C290.422 98.148 290.116 98.016 289.708 97.932C289.3 97.848 288.778 97.806 288.142 97.806H287.098V95.952H288.088C288.976 95.952 289.66 95.88 290.14 95.736C290.632 95.592 290.878 95.322 290.878 94.926C290.878 94.614 290.722 94.38 290.41 94.224C290.098 94.056 289.588 93.972 288.88 93.972C288.412 93.972 287.902 94.026 287.35 94.134C286.798 94.242 286.276 94.398 285.784 94.602L284.992 92.73C285.556 92.514 286.174 92.34 286.846 92.208C287.518 92.064 288.31 91.992 289.222 91.992ZM299.657 91.974C300.977 91.974 301.985 92.262 302.681 92.838C303.389 93.402 303.743 94.272 303.743 95.448V102H301.871L301.349 100.668H301.277C301.001 101.016 300.713 101.304 300.413 101.532C300.125 101.76 299.789 101.922 299.405 102.018C299.033 102.126 298.571 102.18 298.019 102.18C297.443 102.18 296.921 102.072 296.453 101.856C295.997 101.628 295.637 101.286 295.373 100.83C295.109 100.362 294.977 99.774 294.977 99.066C294.977 98.022 295.343 97.254 296.075 96.762C296.807 96.258 297.905 95.982 299.369 95.934L301.079 95.88V95.448C301.079 94.932 300.941 94.554 300.665 94.314C300.401 94.074 300.029 93.954 299.549 93.954C299.069 93.954 298.601 94.026 298.145 94.17C297.689 94.302 297.233 94.47 296.777 94.674L295.895 92.856C296.423 92.58 297.005 92.364 297.641 92.208C298.289 92.052 298.961 91.974 299.657 91.974ZM300.035 97.482C299.171 97.506 298.571 97.662 298.235 97.95C297.899 98.238 297.731 98.616 297.731 99.084C297.731 99.492 297.851 99.786 298.091 99.966C298.331 100.134 298.643 100.218 299.027 100.218C299.603 100.218 300.089 100.05 300.485 99.714C300.881 99.366 301.079 98.88 301.079 98.256V97.446L300.035 97.482ZM312.932 92.172H315.884L311.996 96.888L316.226 102H313.184L309.17 97.014V102H306.488V92.172H309.17V96.942L312.932 92.172ZM321.665 91.974C322.985 91.974 323.993 92.262 324.689 92.838C325.397 93.402 325.751 94.272 325.751 95.448V102H323.879L323.357 100.668H323.285C323.009 101.016 322.721 101.304 322.421 101.532C322.133 101.76 321.797 101.922 321.413 102.018C321.041 102.126 320.579 102.18 320.027 102.18C319.451 102.18 318.929 102.072 318.461 101.856C318.005 101.628 317.645 101.286 317.381 100.83C317.117 100.362 316.985 99.774 316.985 99.066C316.985 98.022 317.351 97.254 318.083 96.762C318.815 96.258 319.913 95.982 321.377 95.934L323.087 95.88V95.448C323.087 94.932 322.949 94.554 322.673 94.314C322.409 94.074 322.037 93.954 321.557 93.954C321.077 93.954 320.609 94.026 320.153 94.17C319.697 94.302 319.241 94.47 318.785 94.674L317.903 92.856C318.431 92.58 319.013 92.364 319.649 92.208C320.297 92.052 320.969 91.974 321.665 91.974ZM322.043 97.482C321.179 97.506 320.579 97.662 320.243 97.95C319.907 98.238 319.739 98.616 319.739 99.084C319.739 99.492 319.859 99.786 320.099 99.966C320.339 100.134 320.651 100.218 321.035 100.218C321.611 100.218 322.097 100.05 322.493 99.714C322.889 99.366 323.087 98.88 323.087 98.256V97.446L322.043 97.482ZM332.078 91.992C332.786 91.992 333.446 92.088 334.058 92.28C334.682 92.46 335.18 92.742 335.552 93.126C335.936 93.51 336.128 94.002 336.128 94.602C336.128 95.19 335.948 95.658 335.588 96.006C335.24 96.354 334.766 96.606 334.166 96.762V96.852C334.586 96.948 334.964 97.086 335.3 97.266C335.636 97.434 335.9 97.668 336.092 97.968C336.296 98.256 336.398 98.646 336.398 99.138C336.398 99.678 336.224 100.182 335.876 100.65C335.54 101.106 335.012 101.478 334.292 101.766C333.584 102.042 332.672 102.18 331.556 102.18C331.028 102.18 330.53 102.156 330.062 102.108C329.594 102.06 329.168 101.994 328.784 101.91C328.4 101.814 328.064 101.7 327.776 101.568V99.354C328.184 99.546 328.682 99.72 329.27 99.876C329.87 100.032 330.506 100.11 331.178 100.11C331.67 100.11 332.108 100.074 332.492 100.002C332.888 99.93 333.2 99.81 333.428 99.642C333.668 99.474 333.788 99.252 333.788 98.976C333.788 98.712 333.686 98.496 333.482 98.328C333.278 98.148 332.972 98.016 332.564 97.932C332.156 97.848 331.634 97.806 330.998 97.806H329.954V95.952H330.944C331.832 95.952 332.516 95.88 332.996 95.736C333.488 95.592 333.734 95.322 333.734 94.926C333.734 94.614 333.578 94.38 333.266 94.224C332.954 94.056 332.444 93.972 331.736 93.972C331.268 93.972 330.758 94.026 330.206 94.134C329.654 94.242 329.132 94.398 328.64 94.602L327.848 92.73C328.412 92.514 329.03 92.34 329.702 92.208C330.374 92.064 331.166 91.992 332.078 91.992ZM338.48 102V92.172H341.162V95.97H342.458C343.466 95.97 344.294 96.078 344.942 96.294C345.59 96.498 346.07 96.816 346.382 97.248C346.706 97.68 346.868 98.22 346.868 98.868C346.868 99.504 346.718 100.056 346.418 100.524C346.13 100.992 345.668 101.358 345.032 101.622C344.408 101.874 343.58 102 342.548 102H338.48ZM342.404 100.146C342.932 100.146 343.358 100.05 343.682 99.858C344.018 99.666 344.186 99.348 344.186 98.904C344.186 98.52 344.03 98.244 343.718 98.076C343.418 97.908 342.968 97.824 342.368 97.824H341.162V100.146H342.404ZM348.29 102V92.172H350.972V102H348.29ZM353.683 97.932L353.395 89.04H356.383L356.095 97.932H353.683ZM354.871 102.288C354.403 102.288 354.019 102.138 353.719 101.838C353.419 101.538 353.269 101.154 353.269 100.686C353.269 100.23 353.419 99.846 353.719 99.534C354.019 99.21 354.403 99.048 354.871 99.048C355.327 99.048 355.711 99.21 356.023 99.534C356.347 99.846 356.509 100.23 356.509 100.686C356.509 101.154 356.347 101.538 356.023 101.838C355.711 102.138 355.327 102.288 354.871 102.288Z" fill="#AD3B65"/>
<path d="M36.0348 19.7452L38.5275 19.9352L36.0348 19.7452ZM37.5027 0.486261L21.2107 24.317L49.9947 26.5109L37.5027 0.486261ZM111.849 80.5765C73.0256 91.1052 35.4704 60.0448 38.5275 19.9352L33.542 19.5552C30.2224 63.108 71.0015 96.8347 113.158 85.4022L111.849 80.5765Z" fill="#AD3B65"/>
</svg>
