<svg width="179" height="137" viewBox="0 0 179 137" fill="none" xmlns="http://www.w3.org/2000/svg">
<path d="M89.075 20.5665L88.0617 18.2811L88.0617 18.2811L89.075 20.5665ZM100.499 15.5012L71.7946 12.4394L83.4954 38.8293L100.499 15.5012ZM61.4209 82.3674C55.0991 58.1842 67.2377 32.9834 90.0883 22.852L88.0617 18.2811C62.9706 29.4059 49.6418 57.0776 56.5835 83.632L61.4209 82.3674Z" fill="white" fill-opacity="0.7"/>
<rect y="86" width="179" height="51" rx="10" fill="white" fill-opacity="0.7"/>
<path d="M10.475 108H8.21V99.18H5.3V97.29H13.385V99.18H10.475V108ZM21.2418 103.89C21.2418 104.57 21.1468 105.175 20.9568 105.705C20.7768 106.235 20.5118 106.685 20.1618 107.055C19.8218 107.415 19.4068 107.69 18.9168 107.88C18.4268 108.06 17.8718 108.15 17.2518 108.15C16.6818 108.15 16.1518 108.06 15.6618 107.88C15.1818 107.69 14.7668 107.415 14.4168 107.055C14.0668 106.685 13.7918 106.235 13.5918 105.705C13.4018 105.175 13.3068 104.57 13.3068 103.89C13.3068 102.98 13.4668 102.215 13.7868 101.595C14.1068 100.965 14.5668 100.485 15.1668 100.155C15.7668 99.825 16.4768 99.66 17.2968 99.66C18.0668 99.66 18.7468 99.825 19.3368 100.155C19.9268 100.485 20.3918 100.965 20.7318 101.595C21.0718 102.215 21.2418 102.98 21.2418 103.89ZM15.5868 103.89C15.5868 104.43 15.6418 104.885 15.7518 105.255C15.8718 105.615 16.0568 105.89 16.3068 106.08C16.5568 106.26 16.8818 106.35 17.2818 106.35C17.6818 106.35 18.0018 106.26 18.2418 106.08C18.4918 105.89 18.6718 105.615 18.7818 105.255C18.9018 104.885 18.9618 104.43 18.9618 103.89C18.9618 103.35 18.9018 102.9 18.7818 102.54C18.6718 102.18 18.4918 101.91 18.2418 101.73C17.9918 101.55 17.6668 101.46 17.2668 101.46C16.6768 101.46 16.2468 101.665 15.9768 102.075C15.7168 102.475 15.5868 103.08 15.5868 103.89ZM34.436 99.81L31.421 103.74L34.721 108H32.336L29.216 103.845V108H27.131V103.845L24.011 108H21.626L24.926 103.74L21.911 99.81H24.221L27.131 103.785V99.81H29.216V103.785L32.126 99.81H34.436ZM38.9737 99.66C39.7337 99.66 40.3837 99.805 40.9237 100.095C41.4737 100.385 41.8987 100.805 42.1987 101.355C42.4987 101.905 42.6487 102.58 42.6487 103.38V104.46H37.3687C37.3887 105.09 37.5737 105.585 37.9237 105.945C38.2837 106.305 38.7787 106.485 39.4087 106.485C39.9387 106.485 40.4187 106.435 40.8487 106.335C41.2787 106.225 41.7237 106.06 42.1837 105.84V107.565C41.7837 107.765 41.3587 107.91 40.9087 108C40.4687 108.1 39.9337 108.15 39.3037 108.15C38.4837 108.15 37.7587 108 37.1287 107.7C36.4987 107.39 36.0037 106.925 35.6437 106.305C35.2837 105.685 35.1037 104.905 35.1037 103.965C35.1037 103.005 35.2637 102.21 35.5837 101.58C35.9137 100.94 36.3687 100.46 36.9487 100.14C37.5287 99.82 38.2037 99.66 38.9737 99.66ZM38.9887 101.25C38.5587 101.25 38.1987 101.39 37.9087 101.67C37.6287 101.95 37.4637 102.385 37.4137 102.975H40.5487C40.5487 102.645 40.4887 102.35 40.3687 102.09C40.2587 101.83 40.0887 101.625 39.8587 101.475C39.6287 101.325 39.3387 101.25 38.9887 101.25ZM48.8554 108H46.4404L48.6454 104.76C48.3654 104.64 48.1004 104.48 47.8504 104.28C47.6104 104.07 47.4154 103.805 47.2654 103.485C47.1154 103.165 47.0404 102.785 47.0404 102.345C47.0404 101.525 47.3504 100.9 47.9704 100.47C48.5904 100.03 49.3854 99.81 50.3554 99.81H54.1654V108H51.9304V104.955H50.7004L48.8554 108ZM49.2304 102.36C49.2304 102.7 49.3654 102.97 49.6354 103.17C49.9054 103.36 50.2554 103.455 50.6854 103.455H51.9304V101.385H50.4004C50.0004 101.385 49.7054 101.485 49.5154 101.685C49.3254 101.875 49.2304 102.1 49.2304 102.36ZM56.082 109.425C56.272 109.135 56.427 108.89 56.547 108.69C56.677 108.49 56.777 108.3 56.847 108.12C56.927 107.95 56.982 107.76 57.012 107.55C57.042 107.33 57.057 107.065 57.057 106.755L58.797 106.605C58.797 107.025 58.727 107.425 58.587 107.805C58.457 108.185 58.277 108.56 58.047 108.93C57.827 109.3 57.582 109.69 57.312 110.1L56.082 109.425ZM57.432 107.94C57.042 107.94 56.722 107.815 56.472 107.565C56.222 107.315 56.097 106.995 56.097 106.605C56.097 106.225 56.222 105.905 56.472 105.645C56.722 105.375 57.042 105.24 57.432 105.24C57.812 105.24 58.132 105.375 58.392 105.645C58.662 105.905 58.797 106.225 58.797 106.605C58.797 106.995 58.662 107.315 58.392 107.565C58.132 107.815 57.812 107.94 57.432 107.94ZM71.3102 99.81V108H69.0752V101.49H66.1052V108H63.8702V99.81H71.3102ZM78.2154 99.66C79.1354 99.66 79.8804 100.02 80.4504 100.74C81.0204 101.45 81.3054 102.5 81.3054 103.89C81.3054 104.82 81.1704 105.605 80.9004 106.245C80.6304 106.875 80.2604 107.35 79.7904 107.67C79.3204 107.99 78.7754 108.15 78.1554 108.15C77.7654 108.15 77.4254 108.1 77.1354 108C76.8554 107.9 76.6154 107.77 76.4154 107.61C76.2154 107.45 76.0404 107.28 75.8904 107.1H75.7704C75.8104 107.29 75.8404 107.49 75.8604 107.7C75.8804 107.9 75.8904 108.1 75.8904 108.3V111.6H73.6554V99.81H75.4704L75.7854 100.875H75.8904C76.0404 100.655 76.2204 100.455 76.4304 100.275C76.6404 100.085 76.8904 99.935 77.1804 99.825C77.4804 99.715 77.8254 99.66 78.2154 99.66ZM77.4954 101.445C77.1054 101.445 76.7954 101.525 76.5654 101.685C76.3354 101.845 76.1654 102.09 76.0554 102.42C75.9554 102.74 75.9004 103.145 75.8904 103.635V103.875C75.8904 104.405 75.9404 104.855 76.0404 105.225C76.1404 105.585 76.3104 105.86 76.5504 106.05C76.7904 106.24 77.1154 106.335 77.5254 106.335C77.8654 106.335 78.1454 106.24 78.3654 106.05C78.5854 105.86 78.7504 105.58 78.8604 105.21C78.9704 104.84 79.0254 104.39 79.0254 103.86C79.0254 103.06 78.9004 102.46 78.6504 102.06C78.4104 101.65 78.0254 101.445 77.4954 101.445ZM85.3075 103.05C85.3075 103.22 85.2975 103.43 85.2775 103.68C85.2675 103.93 85.2525 104.185 85.2325 104.445C85.2225 104.705 85.2075 104.935 85.1875 105.135C85.1675 105.335 85.1525 105.475 85.1425 105.555L88.9225 99.81H91.6075V108H89.4475V104.73C89.4475 104.46 89.4575 104.165 89.4775 103.845C89.4975 103.515 89.5175 103.21 89.5375 102.93C89.5675 102.64 89.5875 102.42 89.5975 102.27L85.8325 108H83.1475V99.81H85.3075V103.05ZM96.1784 99.81V102.96H99.2984V99.81H101.533V108H99.2984V104.625H96.1784V108H93.9434V99.81H96.1784ZM105.12 108H102.705L104.91 104.76C104.63 104.64 104.365 104.48 104.115 104.28C103.875 104.07 103.68 103.805 103.53 103.485C103.38 103.165 103.305 102.785 103.305 102.345C103.305 101.525 103.615 100.9 104.235 100.47C104.855 100.03 105.65 99.81 106.62 99.81H110.43V108H108.195V104.955H106.965L105.12 108ZM105.495 102.36C105.495 102.7 105.63 102.97 105.9 103.17C106.17 103.36 106.52 103.455 106.95 103.455H108.195V101.385H106.665C106.265 101.385 105.97 101.485 105.78 101.685C105.59 101.875 105.495 102.1 105.495 102.36ZM120.102 108H117.867V101.49H115.812C115.712 102.69 115.587 103.715 115.437 104.565C115.297 105.405 115.117 106.09 114.897 106.62C114.687 107.15 114.417 107.54 114.087 107.79C113.757 108.03 113.352 108.15 112.872 108.15C112.612 108.15 112.377 108.13 112.167 108.09C111.957 108.05 111.767 107.99 111.597 107.91V106.125C111.707 106.165 111.822 106.2 111.942 106.23C112.062 106.26 112.187 106.275 112.317 106.275C112.457 106.275 112.587 106.22 112.707 106.11C112.837 106 112.957 105.805 113.067 105.525C113.187 105.245 113.297 104.86 113.397 104.37C113.497 103.88 113.587 103.265 113.667 102.525C113.757 101.775 113.837 100.87 113.907 99.81H120.102V108ZM125.795 99.645C126.895 99.645 127.735 99.885 128.315 100.365C128.905 100.835 129.2 101.56 129.2 102.54V108H127.64L127.205 106.89H127.145C126.915 107.18 126.675 107.42 126.425 107.61C126.185 107.8 125.905 107.935 125.585 108.015C125.275 108.105 124.89 108.15 124.43 108.15C123.95 108.15 123.515 108.06 123.125 107.88C122.745 107.69 122.445 107.405 122.225 107.025C122.005 106.635 121.895 106.145 121.895 105.555C121.895 104.685 122.2 104.045 122.81 103.635C123.42 103.215 124.335 102.985 125.555 102.945L126.98 102.9V102.54C126.98 102.11 126.865 101.795 126.635 101.595C126.415 101.395 126.105 101.295 125.705 101.295C125.305 101.295 124.915 101.355 124.535 101.475C124.155 101.585 123.775 101.725 123.395 101.895L122.66 100.38C123.1 100.15 123.585 99.97 124.115 99.84C124.655 99.71 125.215 99.645 125.795 99.645ZM126.11 104.235C125.39 104.255 124.89 104.385 124.61 104.625C124.33 104.865 124.19 105.18 124.19 105.57C124.19 105.91 124.29 106.155 124.49 106.305C124.69 106.445 124.95 106.515 125.27 106.515C125.75 106.515 126.155 106.375 126.485 106.095C126.815 105.805 126.98 105.4 126.98 104.88V104.205L126.11 104.235ZM137.967 108.15C137.157 108.15 136.467 108.005 135.897 107.715C135.327 107.415 134.892 106.955 134.592 106.335C134.292 105.715 134.142 104.92 134.142 103.95C134.142 102.95 134.312 102.135 134.652 101.505C134.992 100.875 135.462 100.41 136.062 100.11C136.672 99.81 137.372 99.66 138.162 99.66C138.722 99.66 139.207 99.715 139.617 99.825C140.037 99.935 140.402 100.065 140.712 100.215L140.052 101.94C139.702 101.8 139.372 101.685 139.062 101.595C138.762 101.505 138.462 101.46 138.162 101.46C137.772 101.46 137.447 101.555 137.187 101.745C136.927 101.925 136.732 102.2 136.602 102.57C136.482 102.93 136.422 103.385 136.422 103.935C136.422 104.475 136.487 104.925 136.617 105.285C136.757 105.635 136.957 105.9 137.217 106.08C137.477 106.25 137.792 106.335 138.162 106.335C138.632 106.335 139.047 106.275 139.407 106.155C139.767 106.025 140.117 105.85 140.457 105.63V107.535C140.117 107.755 139.757 107.91 139.377 108C139.007 108.1 138.537 108.15 137.967 108.15ZM149.602 101.955C149.602 102.395 149.462 102.77 149.182 103.08C148.912 103.39 148.507 103.59 147.967 103.68V103.74C148.537 103.81 148.992 104.005 149.332 104.325C149.682 104.645 149.857 105.055 149.857 105.555C149.857 105.905 149.787 106.23 149.647 106.53C149.517 106.83 149.307 107.09 149.017 107.31C148.727 107.53 148.352 107.7 147.892 107.82C147.442 107.94 146.892 108 146.242 108H142.342V99.81H146.242C146.882 99.81 147.452 99.88 147.952 100.02C148.462 100.15 148.862 100.37 149.152 100.68C149.452 100.99 149.602 101.415 149.602 101.955ZM147.547 105.435C147.547 105.115 147.422 104.885 147.172 104.745C146.922 104.595 146.547 104.52 146.047 104.52H144.577V106.455H146.092C146.512 106.455 146.857 106.38 147.127 106.23C147.407 106.07 147.547 105.805 147.547 105.435ZM147.337 102.135C147.337 101.875 147.237 101.685 147.037 101.565C146.837 101.445 146.542 101.385 146.152 101.385H144.577V103.005H145.897C146.367 103.005 146.722 102.94 146.962 102.81C147.212 102.67 147.337 102.445 147.337 102.135ZM159.215 103.89C159.215 104.57 159.12 105.175 158.93 105.705C158.75 106.235 158.485 106.685 158.135 107.055C157.795 107.415 157.38 107.69 156.89 107.88C156.4 108.06 155.845 108.15 155.225 108.15C154.655 108.15 154.125 108.06 153.635 107.88C153.155 107.69 152.74 107.415 152.39 107.055C152.04 106.685 151.765 106.235 151.565 105.705C151.375 105.175 151.28 104.57 151.28 103.89C151.28 102.98 151.44 102.215 151.76 101.595C152.08 100.965 152.54 100.485 153.14 100.155C153.74 99.825 154.45 99.66 155.27 99.66C156.04 99.66 156.72 99.825 157.31 100.155C157.9 100.485 158.365 100.965 158.705 101.595C159.045 102.215 159.215 102.98 159.215 103.89ZM153.56 103.89C153.56 104.43 153.615 104.885 153.725 105.255C153.845 105.615 154.03 105.89 154.28 106.08C154.53 106.26 154.855 106.35 155.255 106.35C155.655 106.35 155.975 106.26 156.215 106.08C156.465 105.89 156.645 105.615 156.755 105.255C156.875 104.885 156.935 104.43 156.935 103.89C156.935 103.35 156.875 102.9 156.755 102.54C156.645 102.18 156.465 101.91 156.215 101.73C155.965 101.55 155.64 101.46 155.24 101.46C154.65 101.46 154.22 101.665 153.95 102.075C153.69 102.475 153.56 103.08 153.56 103.89ZM172.373 103.89C172.373 104.8 172.218 105.575 171.908 106.215C171.598 106.845 171.153 107.325 170.573 107.655C170.003 107.985 169.323 108.15 168.533 108.15C167.863 108.15 167.258 108.025 166.718 107.775C166.188 107.515 165.753 107.125 165.413 106.605C165.083 106.085 164.868 105.425 164.768 104.625H163.298V108H161.063V99.81H163.298V102.96H164.798C164.898 102.25 165.113 101.65 165.443 101.16C165.783 100.67 166.218 100.3 166.748 100.05C167.288 99.79 167.898 99.66 168.578 99.66C169.318 99.66 169.973 99.825 170.543 100.155C171.113 100.485 171.558 100.965 171.878 101.595C172.208 102.215 172.373 102.98 172.373 103.89ZM167.018 103.89C167.018 104.43 167.068 104.885 167.168 105.255C167.278 105.615 167.448 105.89 167.678 106.08C167.908 106.26 168.203 106.35 168.563 106.35C168.923 106.35 169.213 106.26 169.433 106.08C169.663 105.89 169.828 105.615 169.928 105.255C170.038 104.885 170.093 104.43 170.093 103.89C170.093 103.35 170.038 102.9 169.928 102.54C169.828 102.18 169.663 101.91 169.433 101.73C169.213 101.55 168.918 101.46 168.548 101.46C168.188 101.46 167.893 101.55 167.663 101.73C167.443 101.91 167.278 102.18 167.168 102.54C167.068 102.9 167.018 103.35 167.018 103.89ZM13.61 114.81V123H11.375V116.49H8.405V123H6.17V114.81H13.61ZM19.3302 114.66C20.0902 114.66 20.7402 114.805 21.2802 115.095C21.8302 115.385 22.2552 115.805 22.5552 116.355C22.8552 116.905 23.0052 117.58 23.0052 118.38V119.46H17.7252C17.7452 120.09 17.9302 120.585 18.2802 120.945C18.6402 121.305 19.1352 121.485 19.7652 121.485C20.2952 121.485 20.7752 121.435 21.2052 121.335C21.6352 121.225 22.0802 121.06 22.5402 120.84V122.565C22.1402 122.765 21.7152 122.91 21.2652 123C20.8252 123.1 20.2902 123.15 19.6602 123.15C18.8402 123.15 18.1152 123 17.4852 122.7C16.8552 122.39 16.3602 121.925 16.0002 121.305C15.6402 120.685 15.4602 119.905 15.4602 118.965C15.4602 118.005 15.6202 117.21 15.9402 116.58C16.2702 115.94 16.7252 115.46 17.3052 115.14C17.8852 114.82 18.5602 114.66 19.3302 114.66ZM19.3452 116.25C18.9152 116.25 18.5552 116.39 18.2652 116.67C17.9852 116.95 17.8202 117.385 17.7702 117.975H20.9052C20.9052 117.645 20.8452 117.35 20.7252 117.09C20.6152 116.83 20.4452 116.625 20.2152 116.475C19.9852 116.325 19.6952 116.25 19.3452 116.25ZM29.3775 114.66C30.2975 114.66 31.0425 115.02 31.6125 115.74C32.1825 116.45 32.4675 117.5 32.4675 118.89C32.4675 119.82 32.3325 120.605 32.0625 121.245C31.7925 121.875 31.4225 122.35 30.9525 122.67C30.4825 122.99 29.9375 123.15 29.3175 123.15C28.9275 123.15 28.5875 123.1 28.2975 123C28.0175 122.9 27.7775 122.77 27.5775 122.61C27.3775 122.45 27.2025 122.28 27.0525 122.1H26.9325C26.9725 122.29 27.0025 122.49 27.0225 122.7C27.0425 122.9 27.0525 123.1 27.0525 123.3V126.6H24.8175V114.81H26.6325L26.9475 115.875H27.0525C27.2025 115.655 27.3825 115.455 27.5925 115.275C27.8025 115.085 28.0525 114.935 28.3425 114.825C28.6425 114.715 28.9875 114.66 29.3775 114.66ZM28.6575 116.445C28.2675 116.445 27.9575 116.525 27.7275 116.685C27.4975 116.845 27.3275 117.09 27.2175 117.42C27.1175 117.74 27.0625 118.145 27.0525 118.635V118.875C27.0525 119.405 27.1025 119.855 27.2025 120.225C27.3025 120.585 27.4725 120.86 27.7125 121.05C27.9525 121.24 28.2775 121.335 28.6875 121.335C29.0275 121.335 29.3075 121.24 29.5275 121.05C29.7475 120.86 29.9125 120.58 30.0225 120.21C30.1325 119.84 30.1875 119.39 30.1875 118.86C30.1875 118.06 30.0625 117.46 29.8125 117.06C29.5725 116.65 29.1875 116.445 28.6575 116.445ZM41.5696 116.955C41.5696 117.395 41.4296 117.77 41.1496 118.08C40.8796 118.39 40.4746 118.59 39.9346 118.68V118.74C40.5046 118.81 40.9596 119.005 41.2996 119.325C41.6496 119.645 41.8246 120.055 41.8246 120.555C41.8246 120.905 41.7546 121.23 41.6146 121.53C41.4846 121.83 41.2746 122.09 40.9846 122.31C40.6946 122.53 40.3196 122.7 39.8596 122.82C39.4096 122.94 38.8596 123 38.2096 123H34.3096V114.81H38.2096C38.8496 114.81 39.4196 114.88 39.9196 115.02C40.4296 115.15 40.8296 115.37 41.1196 115.68C41.4196 115.99 41.5696 116.415 41.5696 116.955ZM39.5146 120.435C39.5146 120.115 39.3896 119.885 39.1396 119.745C38.8896 119.595 38.5146 119.52 38.0146 119.52H36.5446V121.455H38.0596C38.4796 121.455 38.8246 121.38 39.0946 121.23C39.3746 121.07 39.5146 120.805 39.5146 120.435ZM39.3046 117.135C39.3046 116.875 39.2046 116.685 39.0046 116.565C38.8046 116.445 38.5096 116.385 38.1196 116.385H36.5446V118.005H37.8646C38.3346 118.005 38.6896 117.94 38.9296 117.81C39.1796 117.67 39.3046 117.445 39.3046 117.135ZM42.5732 114.81H45.0182L46.5632 119.415C46.6132 119.565 46.6532 119.715 46.6832 119.865C46.7232 120.015 46.7532 120.17 46.7732 120.33C46.8032 120.49 46.8232 120.66 46.8332 120.84H46.8782C46.9082 120.58 46.9482 120.335 46.9982 120.105C47.0582 119.865 47.1232 119.635 47.1932 119.415L48.7082 114.81H51.1082L47.6432 124.05C47.4332 124.61 47.1582 125.08 46.8182 125.46C46.4882 125.84 46.1032 126.125 45.6632 126.315C45.2232 126.505 44.7432 126.6 44.2232 126.6C43.9732 126.6 43.7532 126.585 43.5632 126.555C43.3832 126.535 43.2232 126.51 43.0832 126.48V124.71C43.1932 124.73 43.3232 124.75 43.4732 124.77C43.6332 124.79 43.7982 124.8 43.9682 124.8C44.2782 124.8 44.5432 124.735 44.7632 124.605C44.9932 124.475 45.1832 124.295 45.3332 124.065C45.4832 123.845 45.6032 123.605 45.6932 123.345L45.8282 122.94L42.5732 114.81ZM63.5933 118.89C63.5933 119.8 63.4383 120.575 63.1283 121.215C62.8183 121.845 62.3733 122.325 61.7933 122.655C61.2233 122.985 60.5433 123.15 59.7533 123.15C59.0833 123.15 58.4783 123.025 57.9383 122.775C57.4083 122.515 56.9733 122.125 56.6333 121.605C56.3033 121.085 56.0883 120.425 55.9883 119.625H54.5183V123H52.2833V114.81H54.5183V117.96H56.0183C56.1183 117.25 56.3333 116.65 56.6633 116.16C57.0033 115.67 57.4383 115.3 57.9683 115.05C58.5083 114.79 59.1183 114.66 59.7983 114.66C60.5383 114.66 61.1933 114.825 61.7633 115.155C62.3333 115.485 62.7783 115.965 63.0983 116.595C63.4283 117.215 63.5933 117.98 63.5933 118.89ZM58.2383 118.89C58.2383 119.43 58.2883 119.885 58.3883 120.255C58.4983 120.615 58.6683 120.89 58.8983 121.08C59.1283 121.26 59.4233 121.35 59.7833 121.35C60.1433 121.35 60.4333 121.26 60.6533 121.08C60.8833 120.89 61.0483 120.615 61.1483 120.255C61.2583 119.885 61.3133 119.43 61.3133 118.89C61.3133 118.35 61.2583 117.9 61.1483 117.54C61.0483 117.18 60.8833 116.91 60.6533 116.73C60.4333 116.55 60.1383 116.46 59.7683 116.46C59.4083 116.46 59.1133 116.55 58.8833 116.73C58.6633 116.91 58.4983 117.18 58.3883 117.54C58.2883 117.9 58.2383 118.35 58.2383 118.89ZM76.027 114.81V123H73.792V116.49H70.822V123H68.587V114.81H76.027ZM85.8121 118.89C85.8121 119.57 85.7171 120.175 85.5271 120.705C85.3471 121.235 85.0821 121.685 84.7321 122.055C84.3921 122.415 83.9771 122.69 83.4871 122.88C82.9971 123.06 82.4421 123.15 81.8221 123.15C81.2521 123.15 80.7221 123.06 80.2321 122.88C79.7521 122.69 79.3371 122.415 78.9871 122.055C78.6371 121.685 78.3621 121.235 78.1621 120.705C77.9721 120.175 77.8771 119.57 77.8771 118.89C77.8771 117.98 78.0371 117.215 78.3571 116.595C78.6771 115.965 79.1371 115.485 79.7371 115.155C80.3371 114.825 81.0471 114.66 81.8671 114.66C82.6371 114.66 83.3171 114.825 83.9071 115.155C84.4971 115.485 84.9621 115.965 85.3021 116.595C85.6421 117.215 85.8121 117.98 85.8121 118.89ZM80.1571 118.89C80.1571 119.43 80.2121 119.885 80.3221 120.255C80.4421 120.615 80.6271 120.89 80.8771 121.08C81.1271 121.26 81.4521 121.35 81.8521 121.35C82.2521 121.35 82.5721 121.26 82.8121 121.08C83.0621 120.89 83.2421 120.615 83.3521 120.255C83.4721 119.885 83.5321 119.43 83.5321 118.89C83.5321 118.35 83.4721 117.9 83.3521 117.54C83.2421 117.18 83.0621 116.91 82.8121 116.73C82.5621 116.55 82.2371 116.46 81.8371 116.46C81.2471 116.46 80.8171 116.665 80.5471 117.075C80.2871 117.475 80.1571 118.08 80.1571 118.89ZM90.9893 123.15C90.1793 123.15 89.4893 123.005 88.9193 122.715C88.3493 122.415 87.9143 121.955 87.6143 121.335C87.3143 120.715 87.1643 119.92 87.1643 118.95C87.1643 117.95 87.3343 117.135 87.6743 116.505C88.0143 115.875 88.4843 115.41 89.0843 115.11C89.6943 114.81 90.3943 114.66 91.1843 114.66C91.7443 114.66 92.2293 114.715 92.6393 114.825C93.0593 114.935 93.4243 115.065 93.7343 115.215L93.0743 116.94C92.7243 116.8 92.3943 116.685 92.0843 116.595C91.7843 116.505 91.4843 116.46 91.1843 116.46C90.7943 116.46 90.4693 116.555 90.2093 116.745C89.9493 116.925 89.7543 117.2 89.6243 117.57C89.5043 117.93 89.4443 118.385 89.4443 118.935C89.4443 119.475 89.5093 119.925 89.6393 120.285C89.7793 120.635 89.9793 120.9 90.2393 121.08C90.4993 121.25 90.8143 121.335 91.1843 121.335C91.6543 121.335 92.0693 121.275 92.4293 121.155C92.7893 121.025 93.1393 120.85 93.4793 120.63V122.535C93.1393 122.755 92.7793 122.91 92.3993 123C92.0293 123.1 91.5593 123.15 90.9893 123.15ZM102.144 116.49H99.4593V123H97.2243V116.49H94.5393V114.81H102.144V116.49ZM107.015 114.645C108.115 114.645 108.955 114.885 109.535 115.365C110.125 115.835 110.42 116.56 110.42 117.54V123H108.86L108.425 121.89H108.365C108.135 122.18 107.895 122.42 107.645 122.61C107.405 122.8 107.125 122.935 106.805 123.015C106.495 123.105 106.11 123.15 105.65 123.15C105.17 123.15 104.735 123.06 104.345 122.88C103.965 122.69 103.665 122.405 103.445 122.025C103.225 121.635 103.115 121.145 103.115 120.555C103.115 119.685 103.42 119.045 104.03 118.635C104.64 118.215 105.555 117.985 106.775 117.945L108.2 117.9V117.54C108.2 117.11 108.085 116.795 107.855 116.595C107.635 116.395 107.325 116.295 106.925 116.295C106.525 116.295 106.135 116.355 105.755 116.475C105.375 116.585 104.995 116.725 104.615 116.895L103.88 115.38C104.32 115.15 104.805 114.97 105.335 114.84C105.875 114.71 106.435 114.645 107.015 114.645ZM107.33 119.235C106.61 119.255 106.11 119.385 105.83 119.625C105.55 119.865 105.41 120.18 105.41 120.57C105.41 120.91 105.51 121.155 105.71 121.305C105.91 121.445 106.17 121.515 106.49 121.515C106.97 121.515 107.375 121.375 107.705 121.095C108.035 120.805 108.2 120.4 108.2 119.88V119.205L107.33 119.235ZM119.968 116.955C119.968 117.395 119.828 117.77 119.548 118.08C119.278 118.39 118.873 118.59 118.333 118.68V118.74C118.903 118.81 119.358 119.005 119.698 119.325C120.048 119.645 120.223 120.055 120.223 120.555C120.223 120.905 120.153 121.23 120.013 121.53C119.883 121.83 119.673 122.09 119.383 122.31C119.093 122.53 118.718 122.7 118.258 122.82C117.808 122.94 117.258 123 116.608 123H112.708V114.81H116.608C117.248 114.81 117.818 114.88 118.318 115.02C118.828 115.15 119.228 115.37 119.518 115.68C119.818 115.99 119.968 116.415 119.968 116.955ZM117.913 120.435C117.913 120.115 117.788 119.885 117.538 119.745C117.288 119.595 116.913 119.52 116.413 119.52H114.943V121.455H116.458C116.878 121.455 117.223 121.38 117.493 121.23C117.773 121.07 117.913 120.805 117.913 120.435ZM117.703 117.135C117.703 116.875 117.603 116.685 117.403 116.565C117.203 116.445 116.908 116.385 116.518 116.385H114.943V118.005H116.263C116.733 118.005 117.088 117.94 117.328 117.81C117.578 117.67 117.703 117.445 117.703 117.135ZM127.512 114.81H129.972L126.732 118.74L130.257 123H127.722L124.377 118.845V123H122.142V114.81H124.377V118.785L127.512 114.81ZM130.259 114.81H132.704L134.249 119.415C134.299 119.565 134.339 119.715 134.369 119.865C134.409 120.015 134.439 120.17 134.459 120.33C134.489 120.49 134.509 120.66 134.519 120.84H134.564C134.594 120.58 134.634 120.335 134.684 120.105C134.744 119.865 134.809 119.635 134.879 119.415L136.394 114.81H138.794L135.329 124.05C135.119 124.61 134.844 125.08 134.504 125.46C134.174 125.84 133.789 126.125 133.349 126.315C132.909 126.505 132.429 126.6 131.909 126.6C131.659 126.6 131.439 126.585 131.249 126.555C131.069 126.535 130.909 126.51 130.769 126.48V124.71C130.879 124.73 131.009 124.75 131.159 124.77C131.319 124.79 131.484 124.8 131.654 124.8C131.964 124.8 132.229 124.735 132.449 124.605C132.679 124.475 132.869 124.295 133.019 124.065C133.169 123.845 133.289 123.605 133.379 123.345L133.514 122.94L130.259 114.81ZM139.894 119.61L139.654 112.2H142.144L141.904 119.61H139.894ZM140.884 123.24C140.494 123.24 140.174 123.115 139.924 122.865C139.674 122.615 139.549 122.295 139.549 121.905C139.549 121.525 139.674 121.205 139.924 120.945C140.174 120.675 140.494 120.54 140.884 120.54C141.264 120.54 141.584 120.675 141.844 120.945C142.114 121.205 142.249 121.525 142.249 121.905C142.249 122.295 142.114 122.615 141.844 122.865C141.584 123.115 141.264 123.24 140.884 123.24Z" fill="#AD3B65"/>
</svg>
