<svg width="335" height="120" viewBox="0 0 335 120" fill="none" xmlns="http://www.w3.org/2000/svg">
<path d="M121.57 49H118.852V38.416H115.36V36.148H125.062V38.416H121.57V49ZM134.49 44.068C134.49 44.884 134.376 45.61 134.148 46.246C133.932 46.882 133.614 47.422 133.194 47.866C132.786 48.298 132.288 48.628 131.7 48.856C131.112 49.072 130.446 49.18 129.702 49.18C129.018 49.18 128.382 49.072 127.794 48.856C127.218 48.628 126.72 48.298 126.3 47.866C125.88 47.422 125.55 46.882 125.31 46.246C125.082 45.61 124.968 44.884 124.968 44.068C124.968 42.976 125.16 42.058 125.544 41.314C125.928 40.558 126.48 39.982 127.2 39.586C127.92 39.19 128.772 38.992 129.756 38.992C130.68 38.992 131.496 39.19 132.204 39.586C132.912 39.982 133.47 40.558 133.878 41.314C134.286 42.058 134.49 42.976 134.49 44.068ZM127.704 44.068C127.704 44.716 127.77 45.262 127.902 45.706C128.046 46.138 128.268 46.468 128.568 46.696C128.868 46.912 129.258 47.02 129.738 47.02C130.218 47.02 130.602 46.912 130.89 46.696C131.19 46.468 131.406 46.138 131.538 45.706C131.682 45.262 131.754 44.716 131.754 44.068C131.754 43.42 131.682 42.88 131.538 42.448C131.406 42.016 131.19 41.692 130.89 41.476C130.59 41.26 130.2 41.152 129.72 41.152C129.012 41.152 128.496 41.398 128.172 41.89C127.86 42.37 127.704 43.096 127.704 44.068ZM150.323 39.172L146.705 43.888L150.665 49H147.803L144.059 44.014V49H141.557V44.014L137.813 49H134.951L138.911 43.888L135.293 39.172H138.065L141.557 43.942V39.172H144.059V43.942L147.551 39.172H150.323ZM155.768 38.992C156.68 38.992 157.46 39.166 158.108 39.514C158.768 39.862 159.278 40.366 159.638 41.026C159.998 41.686 160.178 42.496 160.178 43.456V44.752H153.842C153.866 45.508 154.088 46.102 154.508 46.534C154.94 46.966 155.534 47.182 156.29 47.182C156.926 47.182 157.502 47.122 158.018 47.002C158.534 46.87 159.068 46.672 159.62 46.408V48.478C159.14 48.718 158.63 48.892 158.09 49C157.562 49.12 156.92 49.18 156.164 49.18C155.18 49.18 154.31 49 153.554 48.64C152.798 48.268 152.204 47.71 151.772 46.966C151.34 46.222 151.124 45.286 151.124 44.158C151.124 43.006 151.316 42.052 151.7 41.296C152.096 40.528 152.642 39.952 153.338 39.568C154.034 39.184 154.844 38.992 155.768 38.992ZM155.786 40.9C155.27 40.9 154.838 41.068 154.49 41.404C154.154 41.74 153.956 42.262 153.896 42.97H157.658C157.658 42.574 157.586 42.22 157.442 41.908C157.31 41.596 157.106 41.35 156.83 41.17C156.554 40.99 156.206 40.9 155.786 40.9ZM167.627 49H164.729L167.375 45.112C167.039 44.968 166.721 44.776 166.421 44.536C166.133 44.284 165.899 43.966 165.719 43.582C165.539 43.198 165.449 42.742 165.449 42.214C165.449 41.23 165.821 40.48 166.565 39.964C167.309 39.436 168.263 39.172 169.427 39.172H173.999V49H171.317V45.346H169.841L167.627 49ZM168.077 42.232C168.077 42.64 168.239 42.964 168.563 43.204C168.887 43.432 169.307 43.546 169.823 43.546H171.317V41.062H169.481C169.001 41.062 168.647 41.182 168.419 41.422C168.191 41.65 168.077 41.92 168.077 42.232ZM176.298 50.71C176.526 50.362 176.712 50.068 176.856 49.828C177.012 49.588 177.132 49.36 177.216 49.144C177.312 48.94 177.378 48.712 177.414 48.46C177.45 48.196 177.468 47.878 177.468 47.506L179.556 47.326C179.556 47.83 179.472 48.31 179.304 48.766C179.148 49.222 178.932 49.672 178.656 50.116C178.392 50.56 178.098 51.028 177.774 51.52L176.298 50.71ZM177.918 48.928C177.45 48.928 177.066 48.778 176.766 48.478C176.466 48.178 176.316 47.794 176.316 47.326C176.316 46.87 176.466 46.486 176.766 46.174C177.066 45.85 177.45 45.688 177.918 45.688C178.374 45.688 178.758 45.85 179.07 46.174C179.394 46.486 179.556 46.87 179.556 47.326C179.556 47.794 179.394 48.178 179.07 48.478C178.758 48.778 178.374 48.928 177.918 48.928ZM194.572 39.172V49H191.89V41.188H188.326V49H185.644V39.172H194.572ZM202.858 38.992C203.962 38.992 204.856 39.424 205.54 40.288C206.224 41.14 206.566 42.4 206.566 44.068C206.566 45.184 206.404 46.126 206.08 46.894C205.756 47.65 205.312 48.22 204.748 48.604C204.184 48.988 203.53 49.18 202.786 49.18C202.318 49.18 201.91 49.12 201.562 49C201.226 48.88 200.938 48.724 200.698 48.532C200.458 48.34 200.248 48.136 200.068 47.92H199.924C199.972 48.148 200.008 48.388 200.032 48.64C200.056 48.88 200.068 49.12 200.068 49.36V53.32H197.386V39.172H199.564L199.942 40.45H200.068C200.248 40.186 200.464 39.946 200.716 39.73C200.968 39.502 201.268 39.322 201.616 39.19C201.976 39.058 202.39 38.992 202.858 38.992ZM201.994 41.134C201.526 41.134 201.154 41.23 200.878 41.422C200.602 41.614 200.398 41.908 200.266 42.304C200.146 42.688 200.08 43.174 200.068 43.762V44.05C200.068 44.686 200.128 45.226 200.248 45.67C200.368 46.102 200.572 46.432 200.86 46.66C201.148 46.888 201.538 47.002 202.03 47.002C202.438 47.002 202.774 46.888 203.038 46.66C203.302 46.432 203.5 46.096 203.632 45.652C203.764 45.208 203.83 44.668 203.83 44.032C203.83 43.072 203.68 42.352 203.38 41.872C203.092 41.38 202.63 41.134 201.994 41.134ZM211.369 43.06C211.369 43.264 211.357 43.516 211.333 43.816C211.321 44.116 211.303 44.422 211.279 44.734C211.267 45.046 211.249 45.322 211.225 45.562C211.201 45.802 211.183 45.97 211.171 46.066L215.707 39.172H218.929V49H216.337V45.076C216.337 44.752 216.349 44.398 216.373 44.014C216.397 43.618 216.421 43.252 216.445 42.916C216.481 42.568 216.505 42.304 216.517 42.124L211.999 49H208.777V39.172H211.369V43.06ZM224.414 39.172V42.952H228.158V39.172H230.84V49H228.158V44.95H224.414V49H221.732V39.172H224.414ZM235.144 49H232.246L234.892 45.112C234.556 44.968 234.238 44.776 233.938 44.536C233.65 44.284 233.416 43.966 233.236 43.582C233.056 43.198 232.966 42.742 232.966 42.214C232.966 41.23 233.338 40.48 234.082 39.964C234.826 39.436 235.78 39.172 236.944 39.172H241.516V49H238.834V45.346H237.358L235.144 49ZM235.594 42.232C235.594 42.64 235.756 42.964 236.08 43.204C236.404 43.432 236.824 43.546 237.34 43.546H238.834V41.062H236.998C236.518 41.062 236.164 41.182 235.936 41.422C235.708 41.65 235.594 41.92 235.594 42.232ZM253.122 49H250.44V41.188H247.974C247.854 42.628 247.704 43.858 247.524 44.878C247.356 45.886 247.14 46.708 246.876 47.344C246.624 47.98 246.3 48.448 245.904 48.748C245.508 49.036 245.022 49.18 244.446 49.18C244.134 49.18 243.852 49.156 243.6 49.108C243.348 49.06 243.12 48.988 242.916 48.892V46.75C243.048 46.798 243.186 46.84 243.33 46.876C243.474 46.912 243.624 46.93 243.78 46.93C243.948 46.93 244.104 46.864 244.248 46.732C244.404 46.6 244.548 46.366 244.68 46.03C244.824 45.694 244.956 45.232 245.076 44.644C245.196 44.056 245.304 43.318 245.4 42.43C245.508 41.53 245.604 40.444 245.688 39.172H253.122V49ZM259.954 38.974C261.274 38.974 262.282 39.262 262.978 39.838C263.686 40.402 264.04 41.272 264.04 42.448V49H262.168L261.646 47.668H261.574C261.298 48.016 261.01 48.304 260.71 48.532C260.422 48.76 260.086 48.922 259.702 49.018C259.33 49.126 258.868 49.18 258.316 49.18C257.74 49.18 257.218 49.072 256.75 48.856C256.294 48.628 255.934 48.286 255.67 47.83C255.406 47.362 255.274 46.774 255.274 46.066C255.274 45.022 255.64 44.254 256.372 43.762C257.104 43.258 258.202 42.982 259.666 42.934L261.376 42.88V42.448C261.376 41.932 261.238 41.554 260.962 41.314C260.698 41.074 260.326 40.954 259.846 40.954C259.366 40.954 258.898 41.026 258.442 41.17C257.986 41.302 257.53 41.47 257.074 41.674L256.192 39.856C256.72 39.58 257.302 39.364 257.938 39.208C258.586 39.052 259.258 38.974 259.954 38.974ZM260.332 44.482C259.468 44.506 258.868 44.662 258.532 44.95C258.196 45.238 258.028 45.616 258.028 46.084C258.028 46.492 258.148 46.786 258.388 46.966C258.628 47.134 258.94 47.218 259.324 47.218C259.9 47.218 260.386 47.05 260.782 46.714C261.178 46.366 261.376 45.88 261.376 45.256V44.446L260.332 44.482ZM274.56 49.18C273.588 49.18 272.76 49.006 272.076 48.658C271.392 48.298 270.87 47.746 270.51 47.002C270.15 46.258 269.97 45.304 269.97 44.14C269.97 42.94 270.174 41.962 270.582 41.206C270.99 40.45 271.554 39.892 272.274 39.532C273.006 39.172 273.846 38.992 274.794 38.992C275.466 38.992 276.048 39.058 276.54 39.19C277.044 39.322 277.482 39.478 277.854 39.658L277.062 41.728C276.642 41.56 276.246 41.422 275.874 41.314C275.514 41.206 275.154 41.152 274.794 41.152C274.326 41.152 273.936 41.266 273.624 41.494C273.312 41.71 273.078 42.04 272.922 42.484C272.778 42.916 272.706 43.462 272.706 44.122C272.706 44.77 272.784 45.31 272.94 45.742C273.108 46.162 273.348 46.48 273.66 46.696C273.972 46.9 274.35 47.002 274.794 47.002C275.358 47.002 275.856 46.93 276.288 46.786C276.72 46.63 277.14 46.42 277.548 46.156V48.442C277.14 48.706 276.708 48.892 276.252 49C275.808 49.12 275.244 49.18 274.56 49.18ZM288.522 41.746C288.522 42.274 288.354 42.724 288.018 43.096C287.694 43.468 287.208 43.708 286.56 43.816V43.888C287.244 43.972 287.79 44.206 288.198 44.59C288.618 44.974 288.828 45.466 288.828 46.066C288.828 46.486 288.744 46.876 288.576 47.236C288.42 47.596 288.168 47.908 287.82 48.172C287.472 48.436 287.022 48.64 286.47 48.784C285.93 48.928 285.27 49 284.49 49H279.81V39.172H284.49C285.258 39.172 285.942 39.256 286.542 39.424C287.154 39.58 287.634 39.844 287.982 40.216C288.342 40.588 288.522 41.098 288.522 41.746ZM286.056 45.922C286.056 45.538 285.906 45.262 285.606 45.094C285.306 44.914 284.856 44.824 284.256 44.824H282.492V47.146H284.31C284.814 47.146 285.228 47.056 285.552 46.876C285.888 46.684 286.056 46.366 286.056 45.922ZM285.804 41.962C285.804 41.65 285.684 41.422 285.444 41.278C285.204 41.134 284.85 41.062 284.382 41.062H282.492V43.006H284.076C284.64 43.006 285.066 42.928 285.354 42.772C285.654 42.604 285.804 42.334 285.804 41.962ZM300.059 44.068C300.059 44.884 299.945 45.61 299.717 46.246C299.501 46.882 299.183 47.422 298.763 47.866C298.355 48.298 297.857 48.628 297.269 48.856C296.681 49.072 296.015 49.18 295.271 49.18C294.587 49.18 293.951 49.072 293.363 48.856C292.787 48.628 292.289 48.298 291.869 47.866C291.449 47.422 291.119 46.882 290.879 46.246C290.651 45.61 290.537 44.884 290.537 44.068C290.537 42.976 290.729 42.058 291.113 41.314C291.497 40.558 292.049 39.982 292.769 39.586C293.489 39.19 294.341 38.992 295.325 38.992C296.249 38.992 297.065 39.19 297.773 39.586C298.481 39.982 299.039 40.558 299.447 41.314C299.855 42.058 300.059 42.976 300.059 44.068ZM293.273 44.068C293.273 44.716 293.339 45.262 293.471 45.706C293.615 46.138 293.837 46.468 294.137 46.696C294.437 46.912 294.827 47.02 295.307 47.02C295.787 47.02 296.171 46.912 296.459 46.696C296.759 46.468 296.975 46.138 297.107 45.706C297.251 45.262 297.323 44.716 297.323 44.068C297.323 43.42 297.251 42.88 297.107 42.448C296.975 42.016 296.759 41.692 296.459 41.476C296.159 41.26 295.769 41.152 295.289 41.152C294.581 41.152 294.065 41.398 293.741 41.89C293.429 42.37 293.273 43.096 293.273 44.068ZM315.847 44.068C315.847 45.16 315.661 46.09 315.289 46.858C314.917 47.614 314.383 48.19 313.687 48.586C313.003 48.982 312.187 49.18 311.239 49.18C310.435 49.18 309.709 49.03 309.061 48.73C308.425 48.418 307.903 47.95 307.495 47.326C307.099 46.702 306.841 45.91 306.721 44.95H304.957V49H302.275V39.172H304.957V42.952H306.757C306.877 42.1 307.135 41.38 307.531 40.792C307.939 40.204 308.461 39.76 309.097 39.46C309.745 39.148 310.477 38.992 311.293 38.992C312.181 38.992 312.967 39.19 313.651 39.586C314.335 39.982 314.869 40.558 315.253 41.314C315.649 42.058 315.847 42.976 315.847 44.068ZM309.421 44.068C309.421 44.716 309.481 45.262 309.601 45.706C309.733 46.138 309.937 46.468 310.213 46.696C310.489 46.912 310.843 47.02 311.275 47.02C311.707 47.02 312.055 46.912 312.319 46.696C312.595 46.468 312.793 46.138 312.913 45.706C313.045 45.262 313.111 44.716 313.111 44.068C313.111 43.42 313.045 42.88 312.913 42.448C312.793 42.016 312.595 41.692 312.319 41.476C312.055 41.26 311.701 41.152 311.257 41.152C310.825 41.152 310.471 41.26 310.195 41.476C309.931 41.692 309.733 42.016 309.601 42.448C309.481 42.88 309.421 43.42 309.421 44.068ZM125.332 57.172V67H122.65V59.188H119.086V67H116.404V57.172H125.332ZM132.196 56.992C133.108 56.992 133.888 57.166 134.536 57.514C135.196 57.862 135.706 58.366 136.066 59.026C136.426 59.686 136.606 60.496 136.606 61.456V62.752H130.27C130.294 63.508 130.516 64.102 130.936 64.534C131.368 64.966 131.962 65.182 132.718 65.182C133.354 65.182 133.93 65.122 134.446 65.002C134.962 64.87 135.496 64.672 136.048 64.408V66.478C135.568 66.718 135.058 66.892 134.518 67C133.99 67.12 133.348 67.18 132.592 67.18C131.608 67.18 130.738 67 129.982 66.64C129.226 66.268 128.632 65.71 128.2 64.966C127.768 64.222 127.552 63.286 127.552 62.158C127.552 61.006 127.744 60.052 128.128 59.296C128.524 58.528 129.07 57.952 129.766 57.568C130.462 57.184 131.272 56.992 132.196 56.992ZM132.214 58.9C131.698 58.9 131.266 59.068 130.918 59.404C130.582 59.74 130.384 60.262 130.324 60.97H134.086C134.086 60.574 134.014 60.22 133.87 59.908C133.738 59.596 133.534 59.35 133.258 59.17C132.982 58.99 132.634 58.9 132.214 58.9ZM144.253 56.992C145.357 56.992 146.251 57.424 146.935 58.288C147.619 59.14 147.961 60.4 147.961 62.068C147.961 63.184 147.799 64.126 147.475 64.894C147.151 65.65 146.707 66.22 146.143 66.604C145.579 66.988 144.925 67.18 144.181 67.18C143.713 67.18 143.305 67.12 142.957 67C142.621 66.88 142.333 66.724 142.093 66.532C141.853 66.34 141.643 66.136 141.463 65.92H141.319C141.367 66.148 141.403 66.388 141.427 66.64C141.451 66.88 141.463 67.12 141.463 67.36V71.32H138.781V57.172H140.959L141.337 58.45H141.463C141.643 58.186 141.859 57.946 142.111 57.73C142.363 57.502 142.663 57.322 143.011 57.19C143.371 57.058 143.785 56.992 144.253 56.992ZM143.389 59.134C142.921 59.134 142.549 59.23 142.273 59.422C141.997 59.614 141.793 59.908 141.661 60.304C141.541 60.688 141.475 61.174 141.463 61.762V62.05C141.463 62.686 141.523 63.226 141.643 63.67C141.763 64.102 141.967 64.432 142.255 64.66C142.543 64.888 142.933 65.002 143.425 65.002C143.833 65.002 144.169 64.888 144.433 64.66C144.697 64.432 144.895 64.096 145.027 63.652C145.159 63.208 145.225 62.668 145.225 62.032C145.225 61.072 145.075 60.352 144.775 59.872C144.487 59.38 144.025 59.134 143.389 59.134ZM158.884 59.746C158.884 60.274 158.716 60.724 158.38 61.096C158.056 61.468 157.57 61.708 156.922 61.816V61.888C157.606 61.972 158.152 62.206 158.56 62.59C158.98 62.974 159.19 63.466 159.19 64.066C159.19 64.486 159.106 64.876 158.938 65.236C158.782 65.596 158.53 65.908 158.182 66.172C157.834 66.436 157.384 66.64 156.832 66.784C156.292 66.928 155.632 67 154.852 67H150.172V57.172H154.852C155.62 57.172 156.304 57.256 156.904 57.424C157.516 57.58 157.996 57.844 158.344 58.216C158.704 58.588 158.884 59.098 158.884 59.746ZM156.418 63.922C156.418 63.538 156.268 63.262 155.968 63.094C155.668 62.914 155.218 62.824 154.618 62.824H152.854V65.146H154.672C155.176 65.146 155.59 65.056 155.914 64.876C156.25 64.684 156.418 64.366 156.418 63.922ZM156.166 59.962C156.166 59.65 156.046 59.422 155.806 59.278C155.566 59.134 155.212 59.062 154.744 59.062H152.854V61.006H154.438C155.002 61.006 155.428 60.928 155.716 60.772C156.016 60.604 156.166 60.334 156.166 59.962ZM160.088 57.172H163.022L164.876 62.698C164.936 62.878 164.984 63.058 165.02 63.238C165.068 63.418 165.104 63.604 165.128 63.796C165.164 63.988 165.188 64.192 165.2 64.408H165.254C165.29 64.096 165.338 63.802 165.398 63.526C165.47 63.238 165.548 62.962 165.632 62.698L167.45 57.172H170.33L166.172 68.26C165.92 68.932 165.59 69.496 165.182 69.952C164.786 70.408 164.324 70.75 163.796 70.978C163.268 71.206 162.692 71.32 162.068 71.32C161.768 71.32 161.504 71.302 161.276 71.266C161.06 71.242 160.868 71.212 160.7 71.176V69.052C160.832 69.076 160.988 69.1 161.168 69.124C161.36 69.148 161.558 69.16 161.762 69.16C162.134 69.16 162.452 69.082 162.716 68.926C162.992 68.77 163.22 68.554 163.4 68.278C163.58 68.014 163.724 67.726 163.832 67.414L163.994 66.928L160.088 57.172ZM185.312 62.068C185.312 63.16 185.126 64.09 184.754 64.858C184.382 65.614 183.848 66.19 183.152 66.586C182.468 66.982 181.652 67.18 180.704 67.18C179.9 67.18 179.174 67.03 178.526 66.73C177.89 66.418 177.368 65.95 176.96 65.326C176.564 64.702 176.306 63.91 176.186 62.95H174.422V67H171.74V57.172H174.422V60.952H176.222C176.342 60.1 176.6 59.38 176.996 58.792C177.404 58.204 177.926 57.76 178.562 57.46C179.21 57.148 179.942 56.992 180.758 56.992C181.646 56.992 182.432 57.19 183.116 57.586C183.8 57.982 184.334 58.558 184.718 59.314C185.114 60.058 185.312 60.976 185.312 62.068ZM178.886 62.068C178.886 62.716 178.946 63.262 179.066 63.706C179.198 64.138 179.402 64.468 179.678 64.696C179.954 64.912 180.308 65.02 180.74 65.02C181.172 65.02 181.52 64.912 181.784 64.696C182.06 64.468 182.258 64.138 182.378 63.706C182.51 63.262 182.576 62.716 182.576 62.068C182.576 61.42 182.51 60.88 182.378 60.448C182.258 60.016 182.06 59.692 181.784 59.476C181.52 59.26 181.166 59.152 180.722 59.152C180.29 59.152 179.936 59.26 179.66 59.476C179.396 59.692 179.198 60.016 179.066 60.448C178.946 60.88 178.886 61.42 178.886 62.068ZM200.232 57.172V67H197.55V59.188H193.986V67H191.304V57.172H200.232ZM211.975 62.068C211.975 62.884 211.861 63.61 211.633 64.246C211.417 64.882 211.099 65.422 210.679 65.866C210.271 66.298 209.773 66.628 209.185 66.856C208.597 67.072 207.931 67.18 207.187 67.18C206.503 67.18 205.867 67.072 205.279 66.856C204.703 66.628 204.205 66.298 203.785 65.866C203.365 65.422 203.035 64.882 202.795 64.246C202.567 63.61 202.453 62.884 202.453 62.068C202.453 60.976 202.645 60.058 203.029 59.314C203.413 58.558 203.965 57.982 204.685 57.586C205.405 57.19 206.257 56.992 207.241 56.992C208.165 56.992 208.981 57.19 209.689 57.586C210.397 57.982 210.955 58.558 211.363 59.314C211.771 60.058 211.975 60.976 211.975 62.068ZM205.189 62.068C205.189 62.716 205.255 63.262 205.387 63.706C205.531 64.138 205.753 64.468 206.053 64.696C206.353 64.912 206.743 65.02 207.223 65.02C207.703 65.02 208.087 64.912 208.375 64.696C208.675 64.468 208.891 64.138 209.023 63.706C209.167 63.262 209.239 62.716 209.239 62.068C209.239 61.42 209.167 60.88 209.023 60.448C208.891 60.016 208.675 59.692 208.375 59.476C208.075 59.26 207.685 59.152 207.205 59.152C206.497 59.152 205.981 59.398 205.657 59.89C205.345 60.37 205.189 61.096 205.189 62.068ZM218.187 67.18C217.215 67.18 216.387 67.006 215.703 66.658C215.019 66.298 214.497 65.746 214.137 65.002C213.777 64.258 213.597 63.304 213.597 62.14C213.597 60.94 213.801 59.962 214.209 59.206C214.617 58.45 215.181 57.892 215.901 57.532C216.633 57.172 217.473 56.992 218.421 56.992C219.093 56.992 219.675 57.058 220.167 57.19C220.671 57.322 221.109 57.478 221.481 57.658L220.689 59.728C220.269 59.56 219.873 59.422 219.501 59.314C219.141 59.206 218.781 59.152 218.421 59.152C217.953 59.152 217.563 59.266 217.251 59.494C216.939 59.71 216.705 60.04 216.549 60.484C216.405 60.916 216.333 61.462 216.333 62.122C216.333 62.77 216.411 63.31 216.567 63.742C216.735 64.162 216.975 64.48 217.287 64.696C217.599 64.9 217.977 65.002 218.421 65.002C218.985 65.002 219.483 64.93 219.915 64.786C220.347 64.63 220.767 64.42 221.175 64.156V66.442C220.767 66.706 220.335 66.892 219.879 67C219.435 67.12 218.871 67.18 218.187 67.18ZM231.573 59.188H228.351V67H225.669V59.188H222.447V57.172H231.573V59.188ZM237.418 56.974C238.738 56.974 239.746 57.262 240.442 57.838C241.15 58.402 241.504 59.272 241.504 60.448V67H239.632L239.11 65.668H239.038C238.762 66.016 238.474 66.304 238.174 66.532C237.886 66.76 237.55 66.922 237.166 67.018C236.794 67.126 236.332 67.18 235.78 67.18C235.204 67.18 234.682 67.072 234.214 66.856C233.758 66.628 233.398 66.286 233.134 65.83C232.87 65.362 232.738 64.774 232.738 64.066C232.738 63.022 233.104 62.254 233.836 61.762C234.568 61.258 235.666 60.982 237.13 60.934L238.84 60.88V60.448C238.84 59.932 238.702 59.554 238.426 59.314C238.162 59.074 237.79 58.954 237.31 58.954C236.83 58.954 236.362 59.026 235.906 59.17C235.45 59.302 234.994 59.47 234.538 59.674L233.656 57.856C234.184 57.58 234.766 57.364 235.402 57.208C236.05 57.052 236.722 56.974 237.418 56.974ZM237.796 62.482C236.932 62.506 236.332 62.662 235.996 62.95C235.66 63.238 235.492 63.616 235.492 64.084C235.492 64.492 235.612 64.786 235.852 64.966C236.092 65.134 236.404 65.218 236.788 65.218C237.364 65.218 237.85 65.05 238.246 64.714C238.642 64.366 238.84 63.88 238.84 63.256V62.446L237.796 62.482ZM252.962 59.746C252.962 60.274 252.794 60.724 252.458 61.096C252.134 61.468 251.648 61.708 251 61.816V61.888C251.684 61.972 252.23 62.206 252.638 62.59C253.058 62.974 253.268 63.466 253.268 64.066C253.268 64.486 253.184 64.876 253.016 65.236C252.86 65.596 252.608 65.908 252.26 66.172C251.912 66.436 251.462 66.64 250.91 66.784C250.37 66.928 249.71 67 248.93 67H244.25V57.172H248.93C249.698 57.172 250.382 57.256 250.982 57.424C251.594 57.58 252.074 57.844 252.422 58.216C252.782 58.588 252.962 59.098 252.962 59.746ZM250.496 63.922C250.496 63.538 250.346 63.262 250.046 63.094C249.746 62.914 249.296 62.824 248.696 62.824H246.932V65.146H248.75C249.254 65.146 249.668 65.056 249.992 64.876C250.328 64.684 250.496 64.366 250.496 63.922ZM250.244 59.962C250.244 59.65 250.124 59.422 249.884 59.278C249.644 59.134 249.29 59.062 248.822 59.062H246.932V61.006H248.516C249.08 61.006 249.506 60.928 249.794 60.772C250.094 60.604 250.244 60.334 250.244 59.962ZM262.014 57.172H264.966L261.078 61.888L265.308 67H262.266L258.252 62.014V67H255.57V57.172H258.252V61.942L262.014 57.172ZM265.311 57.172H268.245L270.099 62.698C270.159 62.878 270.207 63.058 270.243 63.238C270.291 63.418 270.327 63.604 270.351 63.796C270.387 63.988 270.411 64.192 270.423 64.408H270.477C270.513 64.096 270.561 63.802 270.621 63.526C270.693 63.238 270.771 62.962 270.855 62.698L272.673 57.172H275.553L271.395 68.26C271.143 68.932 270.813 69.496 270.405 69.952C270.009 70.408 269.547 70.75 269.019 70.978C268.491 71.206 267.915 71.32 267.291 71.32C266.991 71.32 266.727 71.302 266.499 71.266C266.283 71.242 266.091 71.212 265.923 71.176V69.052C266.055 69.076 266.211 69.1 266.391 69.124C266.583 69.148 266.781 69.16 266.985 69.16C267.357 69.16 267.675 69.082 267.939 68.926C268.215 68.77 268.443 68.554 268.623 68.278C268.803 68.014 268.947 67.726 269.055 67.414L269.217 66.928L265.311 57.172ZM276.873 62.932L276.585 54.04H279.573L279.285 62.932H276.873ZM278.061 67.288C277.593 67.288 277.209 67.138 276.909 66.838C276.609 66.538 276.459 66.154 276.459 65.686C276.459 65.23 276.609 64.846 276.909 64.534C277.209 64.21 277.593 64.048 278.061 64.048C278.517 64.048 278.901 64.21 279.213 64.534C279.537 64.846 279.699 65.23 279.699 65.686C279.699 66.154 279.537 66.538 279.213 66.838C278.901 67.138 278.517 67.288 278.061 67.288Z" fill="#AD3B65"/>
<path d="M37.0271 31.6941L34.5318 31.8474L37.0271 31.6941ZM35.1098 0.502644L22.2371 26.3411L51.0502 24.57L35.1098 0.502644ZM39.5224 31.5407L38.9855 22.8069L33.995 23.1136L34.5318 31.8474L39.5224 31.5407ZM101.13 62.4097C75.553 79.1818 41.399 62.0686 39.5224 31.5407L34.5318 31.8474C36.6439 66.2069 75.0847 85.4681 103.872 66.5909L101.13 62.4097Z" fill="#AD3B65"/>
</svg>
