<svg width="187" height="192" viewBox="0 0 187 192" fill="none" xmlns="http://www.w3.org/2000/svg">
<path d="M58.6984 38.2792L57.3718 36.1603L58.6984 38.2792ZM85.5 21.5L56.6509 22.532L71.9692 47L85.5 21.5ZM60.025 40.3982L67.7557 35.5584L65.1025 31.3204L57.3718 36.1603L60.025 40.3982ZM60.1539 103.376C36.8187 88.8992 36.7493 54.9701 60.025 40.3982L57.3718 36.1603C30.9594 52.6958 31.0382 91.1971 57.518 107.624L60.1539 103.376Z" fill="#AD3B65"/>
<rect x="5" y="111" width="182" height="81" rx="10" fill="#AD3B65" fill-opacity="0.6"/>
<path d="M14.05 124.03C13.57 124.03 13.095 124.1 12.625 124.24C12.155 124.37 11.695 124.53 11.245 124.72L10.525 122.89C11.055 122.66 11.615 122.48 12.205 122.35C12.795 122.21 13.425 122.14 14.095 122.14C14.885 122.14 15.585 122.265 16.195 122.515C16.815 122.755 17.335 123.115 17.755 123.595C18.185 124.065 18.51 124.645 18.73 125.335C18.96 126.015 19.075 126.79 19.075 127.66C19.075 128.76 18.89 129.725 18.52 130.555C18.15 131.375 17.58 132.015 16.81 132.475C16.05 132.925 15.075 133.15 13.885 133.15C13.275 133.15 12.72 133.105 12.22 133.015C11.73 132.925 11.23 132.785 10.72 132.595V130.69C11.29 130.87 11.815 131.01 12.295 131.11C12.785 131.21 13.27 131.26 13.75 131.26C14.21 131.26 14.615 131.205 14.965 131.095C15.325 130.975 15.625 130.805 15.865 130.585C16.115 130.355 16.31 130.07 16.45 129.73C16.59 129.38 16.67 128.98 16.69 128.53H12.04V126.67H16.675C16.665 126.25 16.595 125.88 16.465 125.56C16.335 125.23 16.155 124.955 15.925 124.735C15.695 124.505 15.42 124.33 15.1 124.21C14.79 124.09 14.44 124.03 14.05 124.03ZM27.8963 126.49H25.2113V133H22.9763V126.49H20.2913V124.81H27.8963V126.49ZM36.7008 128.89C36.7008 129.57 36.6058 130.175 36.4158 130.705C36.2358 131.235 35.9708 131.685 35.6208 132.055C35.2808 132.415 34.8658 132.69 34.3758 132.88C33.8858 133.06 33.3308 133.15 32.7108 133.15C32.1408 133.15 31.6108 133.06 31.1208 132.88C30.6408 132.69 30.2258 132.415 29.8758 132.055C29.5258 131.685 29.2508 131.235 29.0508 130.705C28.8608 130.175 28.7658 129.57 28.7658 128.89C28.7658 127.98 28.9258 127.215 29.2458 126.595C29.5658 125.965 30.0258 125.485 30.6258 125.155C31.2258 124.825 31.9358 124.66 32.7558 124.66C33.5258 124.66 34.2058 124.825 34.7958 125.155C35.3858 125.485 35.8508 125.965 36.1908 126.595C36.5308 127.215 36.7008 127.98 36.7008 128.89ZM31.0458 128.89C31.0458 129.43 31.1008 129.885 31.2108 130.255C31.3308 130.615 31.5158 130.89 31.7658 131.08C32.0158 131.26 32.3408 131.35 32.7408 131.35C33.1408 131.35 33.4608 131.26 33.7008 131.08C33.9508 130.89 34.1308 130.615 34.2408 130.255C34.3608 129.885 34.4208 129.43 34.4208 128.89C34.4208 128.35 34.3608 127.9 34.2408 127.54C34.1308 127.18 33.9508 126.91 33.7008 126.73C33.4508 126.55 33.1258 126.46 32.7258 126.46C32.1358 126.46 31.7058 126.665 31.4358 127.075C31.1758 127.475 31.0458 128.08 31.0458 128.89ZM42.9423 133H40.5273L42.7323 129.76C42.4523 129.64 42.1873 129.48 41.9373 129.28C41.6973 129.07 41.5023 128.805 41.3523 128.485C41.2023 128.165 41.1273 127.785 41.1273 127.345C41.1273 126.525 41.4373 125.9 42.0573 125.47C42.6773 125.03 43.4723 124.81 44.4423 124.81H48.2523V133H46.0173V129.955H44.7873L42.9423 133ZM43.3173 127.36C43.3173 127.7 43.4523 127.97 43.7223 128.17C43.9923 128.36 44.3423 128.455 44.7723 128.455H46.0173V126.385H44.4873C44.0873 126.385 43.7923 126.485 43.6023 126.685C43.4123 126.875 43.3173 127.1 43.3173 127.36ZM50.1689 134.425C50.3589 134.135 50.5139 133.89 50.6339 133.69C50.7639 133.49 50.8639 133.3 50.9339 133.12C51.0139 132.95 51.0689 132.76 51.0989 132.55C51.1289 132.33 51.1439 132.065 51.1439 131.755L52.8839 131.605C52.8839 132.025 52.8139 132.425 52.6739 132.805C52.5439 133.185 52.3639 133.56 52.1339 133.93C51.9139 134.3 51.6689 134.69 51.3989 135.1L50.1689 134.425ZM51.5189 132.94C51.1289 132.94 50.8089 132.815 50.5589 132.565C50.3089 132.315 50.1839 131.995 50.1839 131.605C50.1839 131.225 50.3089 130.905 50.5589 130.645C50.8089 130.375 51.1289 130.24 51.5189 130.24C51.8989 130.24 52.2189 130.375 52.4789 130.645C52.7489 130.905 52.8839 131.225 52.8839 131.605C52.8839 131.995 52.7489 132.315 52.4789 132.565C52.2189 132.815 51.8989 132.94 51.5189 132.94ZM14.5 148.15C13.69 148.15 13 148.005 12.43 147.715C11.86 147.415 11.425 146.955 11.125 146.335C10.825 145.715 10.675 144.92 10.675 143.95C10.675 142.95 10.845 142.135 11.185 141.505C11.525 140.875 11.995 140.41 12.595 140.11C13.205 139.81 13.905 139.66 14.695 139.66C15.255 139.66 15.74 139.715 16.15 139.825C16.57 139.935 16.935 140.065 17.245 140.215L16.585 141.94C16.235 141.8 15.905 141.685 15.595 141.595C15.295 141.505 14.995 141.46 14.695 141.46C14.305 141.46 13.98 141.555 13.72 141.745C13.46 141.925 13.265 142.2 13.135 142.57C13.015 142.93 12.955 143.385 12.955 143.935C12.955 144.475 13.02 144.925 13.15 145.285C13.29 145.635 13.49 145.9 13.75 146.08C14.01 146.25 14.325 146.335 14.695 146.335C15.165 146.335 15.58 146.275 15.94 146.155C16.3 146.025 16.65 145.85 16.99 145.63V147.535C16.65 147.755 16.29 147.91 15.91 148C15.54 148.1 15.07 148.15 14.5 148.15ZM26.3151 143.89C26.3151 144.57 26.2201 145.175 26.0301 145.705C25.8501 146.235 25.5851 146.685 25.2351 147.055C24.8951 147.415 24.4801 147.69 23.9901 147.88C23.5001 148.06 22.9451 148.15 22.3251 148.15C21.7551 148.15 21.2251 148.06 20.7351 147.88C20.2551 147.69 19.8401 147.415 19.4901 147.055C19.1401 146.685 18.8651 146.235 18.6651 145.705C18.4751 145.175 18.3801 144.57 18.3801 143.89C18.3801 142.98 18.5401 142.215 18.8601 141.595C19.1801 140.965 19.6401 140.485 20.2401 140.155C20.8401 139.825 21.5501 139.66 22.3701 139.66C23.1401 139.66 23.8201 139.825 24.4101 140.155C25.0001 140.485 25.4651 140.965 25.8051 141.595C26.1451 142.215 26.3151 142.98 26.3151 143.89ZM20.6601 143.89C20.6601 144.43 20.7151 144.885 20.8251 145.255C20.9451 145.615 21.1301 145.89 21.3801 146.08C21.6301 146.26 21.9551 146.35 22.3551 146.35C22.7551 146.35 23.0751 146.26 23.3151 146.08C23.5651 145.89 23.7451 145.615 23.8551 145.255C23.9751 144.885 24.0351 144.43 24.0351 143.89C24.0351 143.35 23.9751 142.9 23.8551 142.54C23.7451 142.18 23.5651 141.91 23.3151 141.73C23.0651 141.55 22.7401 141.46 22.3401 141.46C21.7501 141.46 21.3201 141.665 21.0501 142.075C20.7901 142.475 20.6601 143.08 20.6601 143.89ZM32.7222 139.66C33.6422 139.66 34.3872 140.02 34.9572 140.74C35.5272 141.45 35.8122 142.5 35.8122 143.89C35.8122 144.82 35.6772 145.605 35.4072 146.245C35.1372 146.875 34.7672 147.35 34.2972 147.67C33.8272 147.99 33.2822 148.15 32.6622 148.15C32.2722 148.15 31.9322 148.1 31.6422 148C31.3622 147.9 31.1222 147.77 30.9222 147.61C30.7222 147.45 30.5472 147.28 30.3972 147.1H30.2772C30.3172 147.29 30.3472 147.49 30.3672 147.7C30.3872 147.9 30.3972 148.1 30.3972 148.3V151.6H28.1622V139.81H29.9772L30.2922 140.875H30.3972C30.5472 140.655 30.7272 140.455 30.9372 140.275C31.1472 140.085 31.3972 139.935 31.6872 139.825C31.9872 139.715 32.3322 139.66 32.7222 139.66ZM32.0022 141.445C31.6122 141.445 31.3022 141.525 31.0722 141.685C30.8422 141.845 30.6722 142.09 30.5622 142.42C30.4622 142.74 30.4072 143.145 30.3972 143.635V143.875C30.3972 144.405 30.4472 144.855 30.5472 145.225C30.6472 145.585 30.8172 145.86 31.0572 146.05C31.2972 146.24 31.6222 146.335 32.0322 146.335C32.3722 146.335 32.6522 146.24 32.8722 146.05C33.0922 145.86 33.2572 145.58 33.3672 145.21C33.4772 144.84 33.5322 144.39 33.5322 143.86C33.5322 143.06 33.4072 142.46 33.1572 142.06C32.9172 141.65 32.5322 141.445 32.0022 141.445ZM44.2879 141.49H41.6029V148H39.3679V141.49H36.6829V139.81H44.2879V141.49ZM47.9589 143.05C47.9589 143.22 47.9489 143.43 47.9289 143.68C47.9189 143.93 47.9039 144.185 47.8839 144.445C47.8739 144.705 47.8589 144.935 47.8389 145.135C47.8189 145.335 47.8039 145.475 47.7939 145.555L51.5739 139.81H54.2589V148H52.0989V144.73C52.0989 144.46 52.1089 144.165 52.1289 143.845C52.1489 143.515 52.1689 143.21 52.1889 142.93C52.2189 142.64 52.2389 142.42 52.2489 142.27L48.4839 148H45.7989V139.81H47.9589V143.05ZM61.1548 139.66C62.0748 139.66 62.8198 140.02 63.3898 140.74C63.9598 141.45 64.2448 142.5 64.2448 143.89C64.2448 144.82 64.1098 145.605 63.8398 146.245C63.5698 146.875 63.1998 147.35 62.7298 147.67C62.2598 147.99 61.7148 148.15 61.0948 148.15C60.7048 148.15 60.3648 148.1 60.0748 148C59.7948 147.9 59.5548 147.77 59.3548 147.61C59.1548 147.45 58.9798 147.28 58.8298 147.1H58.7098C58.7498 147.29 58.7798 147.49 58.7998 147.7C58.8198 147.9 58.8298 148.1 58.8298 148.3V151.6H56.5948V139.81H58.4098L58.7248 140.875H58.8298C58.9798 140.655 59.1598 140.455 59.3698 140.275C59.5798 140.085 59.8298 139.935 60.1198 139.825C60.4198 139.715 60.7648 139.66 61.1548 139.66ZM60.4348 141.445C60.0448 141.445 59.7348 141.525 59.5048 141.685C59.2748 141.845 59.1048 142.09 58.9948 142.42C58.8948 142.74 58.8398 143.145 58.8298 143.635V143.875C58.8298 144.405 58.8798 144.855 58.9798 145.225C59.0798 145.585 59.2498 145.86 59.4898 146.05C59.7298 146.24 60.0548 146.335 60.4648 146.335C60.8048 146.335 61.0848 146.24 61.3048 146.05C61.5248 145.86 61.6898 145.58 61.7998 145.21C61.9098 144.84 61.9648 144.39 61.9648 143.86C61.9648 143.06 61.8398 142.46 61.5898 142.06C61.3498 141.65 60.9648 141.445 60.4348 141.445ZM64.7705 139.81H67.2155L68.7605 144.415C68.8105 144.565 68.8505 144.715 68.8805 144.865C68.9205 145.015 68.9505 145.17 68.9705 145.33C69.0005 145.49 69.0205 145.66 69.0305 145.84H69.0755C69.1055 145.58 69.1455 145.335 69.1955 145.105C69.2555 144.865 69.3205 144.635 69.3905 144.415L70.9055 139.81H73.3055L69.8405 149.05C69.6305 149.61 69.3555 150.08 69.0155 150.46C68.6855 150.84 68.3005 151.125 67.8605 151.315C67.4205 151.505 66.9405 151.6 66.4205 151.6C66.1705 151.6 65.9505 151.585 65.7605 151.555C65.5805 151.535 65.4205 151.51 65.2805 151.48V149.71C65.3905 149.73 65.5205 149.75 65.6705 149.77C65.8305 149.79 65.9955 149.8 66.1655 149.8C66.4755 149.8 66.7405 149.735 66.9605 149.605C67.1905 149.475 67.3805 149.295 67.5305 149.065C67.6805 148.845 67.8005 148.605 67.8905 148.345L68.0255 147.94L64.7705 139.81ZM85.7905 143.89C85.7905 144.8 85.6355 145.575 85.3255 146.215C85.0155 146.845 84.5705 147.325 83.9905 147.655C83.4205 147.985 82.7405 148.15 81.9505 148.15C81.2805 148.15 80.6755 148.025 80.1355 147.775C79.6055 147.515 79.1705 147.125 78.8305 146.605C78.5005 146.085 78.2855 145.425 78.1855 144.625H76.7155V148H74.4805V139.81H76.7155V142.96H78.2155C78.3155 142.25 78.5305 141.65 78.8605 141.16C79.2005 140.67 79.6355 140.3 80.1655 140.05C80.7055 139.79 81.3155 139.66 81.9955 139.66C82.7355 139.66 83.3905 139.825 83.9605 140.155C84.5305 140.485 84.9755 140.965 85.2955 141.595C85.6255 142.215 85.7905 142.98 85.7905 143.89ZM80.4355 143.89C80.4355 144.43 80.4855 144.885 80.5855 145.255C80.6955 145.615 80.8655 145.89 81.0955 146.08C81.3255 146.26 81.6205 146.35 81.9805 146.35C82.3405 146.35 82.6305 146.26 82.8505 146.08C83.0805 145.89 83.2455 145.615 83.3455 145.255C83.4555 144.885 83.5105 144.43 83.5105 143.89C83.5105 143.35 83.4555 142.9 83.3455 142.54C83.2455 142.18 83.0805 141.91 82.8505 141.73C82.6305 141.55 82.3355 141.46 81.9655 141.46C81.6055 141.46 81.3105 141.55 81.0805 141.73C80.8605 141.91 80.6955 142.18 80.5855 142.54C80.4855 142.9 80.4355 143.35 80.4355 143.89ZM93.7693 139.66C94.3593 139.66 94.9093 139.74 95.4193 139.9C95.9393 140.05 96.3543 140.285 96.6643 140.605C96.9843 140.925 97.1443 141.335 97.1443 141.835C97.1443 142.325 96.9943 142.715 96.6943 143.005C96.4043 143.295 96.0093 143.505 95.5093 143.635V143.71C95.8593 143.79 96.1743 143.905 96.4543 144.055C96.7343 144.195 96.9543 144.39 97.1143 144.64C97.2843 144.88 97.3693 145.205 97.3693 145.615C97.3693 146.065 97.2243 146.485 96.9343 146.875C96.6543 147.255 96.2143 147.565 95.6143 147.805C95.0243 148.035 94.2643 148.15 93.3343 148.15C92.8943 148.15 92.4793 148.13 92.0893 148.09C91.6993 148.05 91.3443 147.995 91.0243 147.925C90.7043 147.845 90.4243 147.75 90.1843 147.64V145.795C90.5243 145.955 90.9393 146.1 91.4293 146.23C91.9293 146.36 92.4593 146.425 93.0193 146.425C93.4293 146.425 93.7943 146.395 94.1143 146.335C94.4443 146.275 94.7043 146.175 94.8943 146.035C95.0943 145.895 95.1943 145.71 95.1943 145.48C95.1943 145.26 95.1093 145.08 94.9393 144.94C94.7693 144.79 94.5143 144.68 94.1743 144.61C93.8343 144.54 93.3993 144.505 92.8693 144.505H91.9993V142.96H92.8243C93.5643 142.96 94.1343 142.9 94.5343 142.78C94.9443 142.66 95.1493 142.435 95.1493 142.105C95.1493 141.845 95.0193 141.65 94.7593 141.52C94.4993 141.38 94.0743 141.31 93.4843 141.31C93.0943 141.31 92.6693 141.355 92.2093 141.445C91.7493 141.535 91.3143 141.665 90.9043 141.835L90.2443 140.275C90.7143 140.095 91.2293 139.95 91.7893 139.84C92.3493 139.72 93.0093 139.66 93.7693 139.66ZM102.465 139.645C103.565 139.645 104.405 139.885 104.985 140.365C105.575 140.835 105.87 141.56 105.87 142.54V148H104.31L103.875 146.89H103.815C103.585 147.18 103.345 147.42 103.095 147.61C102.855 147.8 102.575 147.935 102.255 148.015C101.945 148.105 101.56 148.15 101.1 148.15C100.62 148.15 100.185 148.06 99.7946 147.88C99.4146 147.69 99.1146 147.405 98.8946 147.025C98.6746 146.635 98.5646 146.145 98.5646 145.555C98.5646 144.685 98.8696 144.045 99.4796 143.635C100.09 143.215 101.005 142.985 102.225 142.945L103.65 142.9V142.54C103.65 142.11 103.535 141.795 103.305 141.595C103.085 141.395 102.775 141.295 102.375 141.295C101.975 141.295 101.585 141.355 101.205 141.475C100.825 141.585 100.445 141.725 100.065 141.895L99.3296 140.38C99.7696 140.15 100.255 139.97 100.785 139.84C101.325 139.71 101.885 139.645 102.465 139.645ZM102.78 144.235C102.06 144.255 101.56 144.385 101.28 144.625C101 144.865 100.86 145.18 100.86 145.57C100.86 145.91 100.96 146.155 101.16 146.305C101.36 146.445 101.62 146.515 101.94 146.515C102.42 146.515 102.825 146.375 103.155 146.095C103.485 145.805 103.65 145.4 103.65 144.88V144.205L102.78 144.235ZM113.527 139.81H115.987L112.747 143.74L116.272 148H113.737L110.392 143.845V148H108.157V139.81H110.392V143.785L113.527 139.81ZM120.804 139.645C121.904 139.645 122.744 139.885 123.324 140.365C123.914 140.835 124.209 141.56 124.209 142.54V148H122.649L122.214 146.89H122.154C121.924 147.18 121.684 147.42 121.434 147.61C121.194 147.8 120.914 147.935 120.594 148.015C120.284 148.105 119.899 148.15 119.439 148.15C118.959 148.15 118.524 148.06 118.134 147.88C117.754 147.69 117.454 147.405 117.234 147.025C117.014 146.635 116.904 146.145 116.904 145.555C116.904 144.685 117.209 144.045 117.819 143.635C118.429 143.215 119.344 142.985 120.564 142.945L121.989 142.9V142.54C121.989 142.11 121.874 141.795 121.644 141.595C121.424 141.395 121.114 141.295 120.714 141.295C120.314 141.295 119.924 141.355 119.544 141.475C119.164 141.585 118.784 141.725 118.404 141.895L117.669 140.38C118.109 140.15 118.594 139.97 119.124 139.84C119.664 139.71 120.224 139.645 120.804 139.645ZM121.119 144.235C120.399 144.255 119.899 144.385 119.619 144.625C119.339 144.865 119.199 145.18 119.199 145.57C119.199 145.91 119.299 146.155 119.499 146.305C119.699 146.445 119.959 146.515 120.279 146.515C120.759 146.515 121.164 146.375 121.494 146.095C121.824 145.805 121.989 145.4 121.989 144.88V144.205L121.119 144.235ZM129.482 139.66C130.072 139.66 130.622 139.74 131.132 139.9C131.652 140.05 132.067 140.285 132.377 140.605C132.697 140.925 132.857 141.335 132.857 141.835C132.857 142.325 132.707 142.715 132.407 143.005C132.117 143.295 131.722 143.505 131.222 143.635V143.71C131.572 143.79 131.887 143.905 132.167 144.055C132.447 144.195 132.667 144.39 132.827 144.64C132.997 144.88 133.082 145.205 133.082 145.615C133.082 146.065 132.937 146.485 132.647 146.875C132.367 147.255 131.927 147.565 131.327 147.805C130.737 148.035 129.977 148.15 129.047 148.15C128.607 148.15 128.192 148.13 127.802 148.09C127.412 148.05 127.057 147.995 126.737 147.925C126.417 147.845 126.137 147.75 125.897 147.64V145.795C126.237 145.955 126.652 146.1 127.142 146.23C127.642 146.36 128.172 146.425 128.732 146.425C129.142 146.425 129.507 146.395 129.827 146.335C130.157 146.275 130.417 146.175 130.607 146.035C130.807 145.895 130.907 145.71 130.907 145.48C130.907 145.26 130.822 145.08 130.652 144.94C130.482 144.79 130.227 144.68 129.887 144.61C129.547 144.54 129.112 144.505 128.582 144.505H127.712V142.96H128.537C129.277 142.96 129.847 142.9 130.247 142.78C130.657 142.66 130.862 142.435 130.862 142.105C130.862 141.845 130.732 141.65 130.472 141.52C130.212 141.38 129.787 141.31 129.197 141.31C128.807 141.31 128.382 141.355 127.922 141.445C127.462 141.535 127.027 141.665 126.617 141.835L125.957 140.275C126.427 140.095 126.942 139.95 127.502 139.84C128.062 139.72 128.722 139.66 129.482 139.66ZM134.817 148V139.81H137.052V142.975H138.132C138.972 142.975 139.662 143.065 140.202 143.245C140.742 143.415 141.142 143.68 141.402 144.04C141.672 144.4 141.807 144.85 141.807 145.39C141.807 145.92 141.682 146.38 141.432 146.77C141.192 147.16 140.807 147.465 140.277 147.685C139.757 147.895 139.067 148 138.207 148H134.817ZM138.087 146.455C138.527 146.455 138.882 146.375 139.152 146.215C139.432 146.055 139.572 145.79 139.572 145.42C139.572 145.1 139.442 144.87 139.182 144.73C138.932 144.59 138.557 144.52 138.057 144.52H137.052V146.455H138.087ZM142.992 148V139.81H145.227V148H142.992ZM152.871 143.05C152.871 143.22 152.861 143.43 152.841 143.68C152.831 143.93 152.816 144.185 152.796 144.445C152.786 144.705 152.771 144.935 152.751 145.135C152.731 145.335 152.716 145.475 152.706 145.555L156.486 139.81H159.171V148H157.011V144.73C157.011 144.46 157.021 144.165 157.041 143.845C157.061 143.515 157.081 143.21 157.101 142.93C157.131 142.64 157.151 142.42 157.161 142.27L153.396 148H150.711V139.81H152.871V143.05ZM18.535 154.81V161.365H19.735V165.94H17.725V163H12.22V165.94H10.21V161.365H10.9C11.26 160.815 11.565 160.19 11.815 159.49C12.065 158.78 12.265 158.025 12.415 157.225C12.565 156.425 12.675 155.62 12.745 154.81H18.535ZM14.62 156.49C14.54 157.09 14.44 157.675 14.32 158.245C14.2 158.805 14.05 159.345 13.87 159.865C13.7 160.385 13.49 160.885 13.24 161.365H16.3V156.49H14.62ZM19.9609 154.81H22.4059L23.9509 159.415C24.0009 159.565 24.0409 159.715 24.0709 159.865C24.1109 160.015 24.1409 160.17 24.1609 160.33C24.1909 160.49 24.2109 160.66 24.2209 160.84H24.2659C24.2959 160.58 24.3359 160.335 24.3859 160.105C24.4459 159.865 24.5109 159.635 24.5809 159.415L26.0959 154.81H28.4959L25.0309 164.05C24.8209 164.61 24.5459 165.08 24.2059 165.46C23.8759 165.84 23.4909 166.125 23.0509 166.315C22.6109 166.505 22.1309 166.6 21.6109 166.6C21.3609 166.6 21.1409 166.585 20.9509 166.555C20.7709 166.535 20.6109 166.51 20.4709 166.48V164.71C20.5809 164.73 20.7109 164.75 20.8609 164.77C21.0209 164.79 21.1859 164.8 21.3559 164.8C21.6659 164.8 21.9309 164.735 22.1509 164.605C22.3809 164.475 22.5709 164.295 22.7209 164.065C22.8709 163.845 22.9909 163.605 23.0809 163.345L23.2159 162.94L19.9609 154.81ZM39.991 154.81V163H37.906V158.98C37.906 158.58 37.911 158.19 37.921 157.81C37.941 157.43 37.966 157.08 37.996 156.76H37.951L35.686 163H34.006L31.711 156.745H31.651C31.691 157.075 31.716 157.43 31.726 157.81C31.746 158.18 31.756 158.59 31.756 159.04V163H29.671V154.81H32.836L34.876 160.36L36.946 154.81H39.991ZM45.6872 154.645C46.7872 154.645 47.6272 154.885 48.2072 155.365C48.7972 155.835 49.0922 156.56 49.0922 157.54V163H47.5322L47.0972 161.89H47.0372C46.8072 162.18 46.5672 162.42 46.3172 162.61C46.0772 162.8 45.7972 162.935 45.4772 163.015C45.1672 163.105 44.7822 163.15 44.3222 163.15C43.8422 163.15 43.4072 163.06 43.0172 162.88C42.6372 162.69 42.3372 162.405 42.1172 162.025C41.8972 161.635 41.7872 161.145 41.7872 160.555C41.7872 159.685 42.0922 159.045 42.7022 158.635C43.3122 158.215 44.2272 157.985 45.4472 157.945L46.8722 157.9V157.54C46.8722 157.11 46.7572 156.795 46.5272 156.595C46.3072 156.395 45.9972 156.295 45.5972 156.295C45.1972 156.295 44.8072 156.355 44.4272 156.475C44.0472 156.585 43.6672 156.725 43.2872 156.895L42.5522 155.38C42.9922 155.15 43.4772 154.97 44.0072 154.84C44.5472 154.71 45.1072 154.645 45.6872 154.645ZM46.0022 159.235C45.2822 159.255 44.7822 159.385 44.5022 159.625C44.2222 159.865 44.0822 160.18 44.0822 160.57C44.0822 160.91 44.1822 161.155 44.3822 161.305C44.5822 161.445 44.8422 161.515 45.1622 161.515C45.6422 161.515 46.0472 161.375 46.3772 161.095C46.7072 160.805 46.8722 160.4 46.8722 159.88V159.205L46.0022 159.235ZM62.69 158.89C62.69 159.8 62.535 160.575 62.225 161.215C61.915 161.845 61.47 162.325 60.89 162.655C60.32 162.985 59.64 163.15 58.85 163.15C58.18 163.15 57.575 163.025 57.035 162.775C56.505 162.515 56.07 162.125 55.73 161.605C55.4 161.085 55.185 160.425 55.085 159.625H53.615V163H51.38V154.81H53.615V157.96H55.115C55.215 157.25 55.43 156.65 55.76 156.16C56.1 155.67 56.535 155.3 57.065 155.05C57.605 154.79 58.215 154.66 58.895 154.66C59.635 154.66 60.29 154.825 60.86 155.155C61.43 155.485 61.875 155.965 62.195 156.595C62.525 157.215 62.69 157.98 62.69 158.89ZM57.335 158.89C57.335 159.43 57.385 159.885 57.485 160.255C57.595 160.615 57.765 160.89 57.995 161.08C58.225 161.26 58.52 161.35 58.88 161.35C59.24 161.35 59.53 161.26 59.75 161.08C59.98 160.89 60.145 160.615 60.245 160.255C60.355 159.885 60.41 159.43 60.41 158.89C60.41 158.35 60.355 157.9 60.245 157.54C60.145 157.18 59.98 156.91 59.75 156.73C59.53 156.55 59.235 156.46 58.865 156.46C58.505 156.46 58.21 156.55 57.98 156.73C57.76 156.91 57.595 157.18 57.485 157.54C57.385 157.9 57.335 158.35 57.335 158.89ZM64.1143 164.425C64.3043 164.135 64.4593 163.89 64.5793 163.69C64.7093 163.49 64.8093 163.3 64.8793 163.12C64.9593 162.95 65.0143 162.76 65.0443 162.55C65.0743 162.33 65.0893 162.065 65.0893 161.755L66.8293 161.605C66.8293 162.025 66.7593 162.425 66.6193 162.805C66.4893 163.185 66.3093 163.56 66.0793 163.93C65.8593 164.3 65.6143 164.69 65.3443 165.1L64.1143 164.425ZM65.4643 162.94C65.0743 162.94 64.7543 162.815 64.5043 162.565C64.2543 162.315 64.1293 161.995 64.1293 161.605C64.1293 161.225 64.2543 160.905 64.5043 160.645C64.7543 160.375 65.0743 160.24 65.4643 160.24C65.8443 160.24 66.1643 160.375 66.4243 160.645C66.6943 160.905 66.8293 161.225 66.8293 161.605C66.8293 161.995 66.6943 162.315 66.4243 162.565C66.1643 162.815 65.8443 162.94 65.4643 162.94ZM77.2724 154.81H79.7324L76.4924 158.74L80.0174 163H77.4824L74.1374 158.845V163H71.9024V154.81H74.1374V158.785L77.2724 154.81ZM84.5495 154.645C85.6495 154.645 86.4895 154.885 87.0695 155.365C87.6595 155.835 87.9545 156.56 87.9545 157.54V163H86.3945L85.9595 161.89H85.8995C85.6695 162.18 85.4295 162.42 85.1795 162.61C84.9395 162.8 84.6595 162.935 84.3395 163.015C84.0295 163.105 83.6445 163.15 83.1845 163.15C82.7045 163.15 82.2695 163.06 81.8795 162.88C81.4995 162.69 81.1995 162.405 80.9795 162.025C80.7595 161.635 80.6495 161.145 80.6495 160.555C80.6495 159.685 80.9545 159.045 81.5645 158.635C82.1745 158.215 83.0895 157.985 84.3095 157.945L85.7345 157.9V157.54C85.7345 157.11 85.6195 156.795 85.3895 156.595C85.1695 156.395 84.8595 156.295 84.4595 156.295C84.0595 156.295 83.6695 156.355 83.2895 156.475C82.9095 156.585 82.5295 156.725 82.1495 156.895L81.4145 155.38C81.8545 155.15 82.3395 154.97 82.8695 154.84C83.4095 154.71 83.9695 154.645 84.5495 154.645ZM84.8645 159.235C84.1445 159.255 83.6445 159.385 83.3645 159.625C83.0845 159.865 82.9445 160.18 82.9445 160.57C82.9445 160.91 83.0445 161.155 83.2445 161.305C83.4445 161.445 83.7045 161.515 84.0245 161.515C84.5045 161.515 84.9095 161.375 85.2395 161.095C85.5695 160.805 85.7345 160.4 85.7345 159.88V159.205L84.8645 159.235ZM95.6123 154.81H98.0723L94.8323 158.74L98.3573 163H95.8223L92.4773 158.845V163H90.2423V154.81H92.4773V158.785L95.6123 154.81ZM101.509 154.81H103.954L105.499 159.415C105.549 159.565 105.589 159.715 105.619 159.865C105.659 160.015 105.689 160.17 105.709 160.33C105.739 160.49 105.759 160.66 105.769 160.84H105.814C105.844 160.58 105.884 160.335 105.934 160.105C105.994 159.865 106.059 159.635 106.129 159.415L107.644 154.81H110.044L106.579 164.05C106.369 164.61 106.094 165.08 105.754 165.46C105.424 165.84 105.039 166.125 104.599 166.315C104.159 166.505 103.679 166.6 103.159 166.6C102.909 166.6 102.689 166.585 102.499 166.555C102.319 166.535 102.159 166.51 102.019 166.48V164.71C102.129 164.73 102.259 164.75 102.409 164.77C102.569 164.79 102.734 164.8 102.904 164.8C103.214 164.8 103.479 164.735 103.699 164.605C103.929 164.475 104.119 164.295 104.269 164.065C104.419 163.845 104.539 163.605 104.629 163.345L104.764 162.94L101.509 154.81ZM118.261 163H116.026V156.49H113.971C113.871 157.69 113.746 158.715 113.596 159.565C113.456 160.405 113.276 161.09 113.056 161.62C112.846 162.15 112.576 162.54 112.246 162.79C111.916 163.03 111.511 163.15 111.031 163.15C110.771 163.15 110.536 163.13 110.326 163.09C110.116 163.05 109.926 162.99 109.756 162.91V161.125C109.866 161.165 109.981 161.2 110.101 161.23C110.221 161.26 110.346 161.275 110.476 161.275C110.616 161.275 110.746 161.22 110.866 161.11C110.996 161 111.116 160.805 111.226 160.525C111.346 160.245 111.456 159.86 111.556 159.37C111.656 158.88 111.746 158.265 111.826 157.525C111.916 156.775 111.996 155.87 112.066 154.81H118.261V163ZM119.424 154.81H121.869L123.414 159.415C123.464 159.565 123.504 159.715 123.534 159.865C123.574 160.015 123.604 160.17 123.624 160.33C123.654 160.49 123.674 160.66 123.684 160.84H123.729C123.759 160.58 123.799 160.335 123.849 160.105C123.909 159.865 123.974 159.635 124.044 159.415L125.559 154.81H127.959L124.494 164.05C124.284 164.61 124.009 165.08 123.669 165.46C123.339 165.84 122.954 166.125 122.514 166.315C122.074 166.505 121.594 166.6 121.074 166.6C120.824 166.6 120.604 166.585 120.414 166.555C120.234 166.535 120.074 166.51 119.934 166.48V164.71C120.044 164.73 120.174 164.75 120.324 164.77C120.484 164.79 120.649 164.8 120.819 164.8C121.129 164.8 121.394 164.735 121.614 164.605C121.844 164.475 122.034 164.295 122.184 164.065C122.334 163.845 122.454 163.605 122.544 163.345L122.679 162.94L119.424 154.81ZM131.099 157.81C131.099 158.16 131.184 158.425 131.354 158.605C131.534 158.785 131.779 158.875 132.089 158.875C132.519 158.875 132.919 158.83 133.289 158.74C133.659 158.64 134.029 158.51 134.399 158.35V154.81H136.634V163H134.399V159.745C134.049 159.935 133.649 160.11 133.199 160.27C132.749 160.42 132.239 160.495 131.669 160.495C130.819 160.495 130.139 160.275 129.629 159.835C129.119 159.395 128.864 158.735 128.864 157.855V154.81H131.099V157.81ZM151.173 154.81V163H138.978V154.81H141.213V161.32H143.958V154.81H146.193V161.32H148.938V154.81H151.173ZM155.669 158.05C155.669 158.22 155.659 158.43 155.639 158.68C155.629 158.93 155.614 159.185 155.594 159.445C155.584 159.705 155.569 159.935 155.549 160.135C155.529 160.335 155.514 160.475 155.504 160.555L159.284 154.81H161.969V163H159.809V159.73C159.809 159.46 159.819 159.165 159.839 158.845C159.859 158.515 159.879 158.21 159.899 157.93C159.929 157.64 159.949 157.42 159.959 157.27L156.194 163H153.509V154.81H155.669V158.05ZM171.085 156.49H168.4V163H166.165V156.49H163.48V154.81H171.085V156.49ZM176.406 157.975C177.246 157.975 177.941 158.065 178.491 158.245C179.041 158.415 179.446 158.68 179.706 159.04C179.976 159.4 180.111 159.85 180.111 160.39C180.111 160.92 179.986 161.38 179.736 161.77C179.496 162.16 179.111 162.465 178.581 162.685C178.051 162.895 177.356 163 176.496 163H172.596V154.81H174.831V157.975H176.406ZM177.876 160.42C177.876 160.1 177.746 159.87 177.486 159.73C177.236 159.59 176.861 159.52 176.361 159.52H174.831V161.455H176.391C176.831 161.455 177.186 161.375 177.456 161.215C177.736 161.055 177.876 160.79 177.876 160.42ZM18.61 169.81V178H16.375V171.49H13.405V178H11.17V169.81H18.61ZM25.5152 169.66C26.4352 169.66 27.1802 170.02 27.7502 170.74C28.3202 171.45 28.6052 172.5 28.6052 173.89C28.6052 174.82 28.4702 175.605 28.2002 176.245C27.9302 176.875 27.5602 177.35 27.0902 177.67C26.6202 177.99 26.0752 178.15 25.4552 178.15C25.0652 178.15 24.7252 178.1 24.4352 178C24.1552 177.9 23.9152 177.77 23.7152 177.61C23.5152 177.45 23.3402 177.28 23.1902 177.1H23.0702C23.1102 177.29 23.1402 177.49 23.1602 177.7C23.1802 177.9 23.1902 178.1 23.1902 178.3V181.6H20.9552V169.81H22.7702L23.0852 170.875H23.1902C23.3402 170.655 23.5202 170.455 23.7302 170.275C23.9402 170.085 24.1902 169.935 24.4802 169.825C24.7802 169.715 25.1252 169.66 25.5152 169.66ZM24.7952 171.445C24.4052 171.445 24.0952 171.525 23.8652 171.685C23.6352 171.845 23.4652 172.09 23.3552 172.42C23.2552 172.74 23.2002 173.145 23.1902 173.635V173.875C23.1902 174.405 23.2402 174.855 23.3402 175.225C23.4402 175.585 23.6102 175.86 23.8502 176.05C24.0902 176.24 24.4152 176.335 24.8252 176.335C25.1652 176.335 25.4452 176.24 25.6652 176.05C25.8852 175.86 26.0502 175.58 26.1602 175.21C26.2702 174.84 26.3252 174.39 26.3252 173.86C26.3252 173.06 26.2002 172.46 25.9502 172.06C25.7102 171.65 25.3252 171.445 24.7952 171.445ZM37.8873 173.89C37.8873 174.57 37.7923 175.175 37.6023 175.705C37.4223 176.235 37.1573 176.685 36.8073 177.055C36.4673 177.415 36.0523 177.69 35.5623 177.88C35.0723 178.06 34.5173 178.15 33.8973 178.15C33.3273 178.15 32.7973 178.06 32.3073 177.88C31.8273 177.69 31.4123 177.415 31.0623 177.055C30.7123 176.685 30.4373 176.235 30.2373 175.705C30.0473 175.175 29.9523 174.57 29.9523 173.89C29.9523 172.98 30.1123 172.215 30.4323 171.595C30.7523 170.965 31.2123 170.485 31.8123 170.155C32.4123 169.825 33.1223 169.66 33.9423 169.66C34.7123 169.66 35.3923 169.825 35.9823 170.155C36.5723 170.485 37.0373 170.965 37.3773 171.595C37.7173 172.215 37.8873 172.98 37.8873 173.89ZM32.2323 173.89C32.2323 174.43 32.2873 174.885 32.3973 175.255C32.5173 175.615 32.7023 175.89 32.9523 176.08C33.2023 176.26 33.5273 176.35 33.9273 176.35C34.3273 176.35 34.6473 176.26 34.8873 176.08C35.1373 175.89 35.3173 175.615 35.4273 175.255C35.5473 174.885 35.6073 174.43 35.6073 173.89C35.6073 173.35 35.5473 172.9 35.4273 172.54C35.3173 172.18 35.1373 171.91 34.8873 171.73C34.6373 171.55 34.3123 171.46 33.9123 171.46C33.3223 171.46 32.8923 171.665 32.6223 172.075C32.3623 172.475 32.2323 173.08 32.2323 173.89ZM48.6745 180.94H46.6645V178H39.7345V169.81H41.9695V176.32H45.2395V169.81H47.4745V176.365H48.6745V180.94ZM53.4366 169.66C54.1966 169.66 54.8466 169.805 55.3866 170.095C55.9366 170.385 56.3616 170.805 56.6616 171.355C56.9616 171.905 57.1116 172.58 57.1116 173.38V174.46H51.8316C51.8516 175.09 52.0366 175.585 52.3866 175.945C52.7466 176.305 53.2416 176.485 53.8716 176.485C54.4016 176.485 54.8816 176.435 55.3116 176.335C55.7416 176.225 56.1866 176.06 56.6466 175.84V177.565C56.2466 177.765 55.8216 177.91 55.3716 178C54.9316 178.1 54.3966 178.15 53.7666 178.15C52.9466 178.15 52.2216 178 51.5916 177.7C50.9616 177.39 50.4666 176.925 50.1066 176.305C49.7466 175.685 49.5666 174.905 49.5666 173.965C49.5666 173.005 49.7266 172.21 50.0466 171.58C50.3766 170.94 50.8316 170.46 51.4116 170.14C51.9916 169.82 52.6666 169.66 53.4366 169.66ZM53.4516 171.25C53.0216 171.25 52.6616 171.39 52.3716 171.67C52.0916 171.95 51.9266 172.385 51.8766 172.975H55.0116C55.0116 172.645 54.9516 172.35 54.8316 172.09C54.7216 171.83 54.5516 171.625 54.3216 171.475C54.0916 171.325 53.8016 171.25 53.4516 171.25ZM62.2539 178.15C61.4439 178.15 60.7539 178.005 60.1839 177.715C59.6139 177.415 59.1789 176.955 58.8789 176.335C58.5789 175.715 58.4289 174.92 58.4289 173.95C58.4289 172.95 58.5989 172.135 58.9389 171.505C59.2789 170.875 59.7489 170.41 60.3489 170.11C60.9589 169.81 61.6589 169.66 62.4489 169.66C63.0089 169.66 63.4939 169.715 63.9039 169.825C64.3239 169.935 64.6889 170.065 64.9989 170.215L64.3389 171.94C63.9889 171.8 63.6589 171.685 63.3489 171.595C63.0489 171.505 62.7489 171.46 62.4489 171.46C62.0589 171.46 61.7339 171.555 61.4739 171.745C61.2139 171.925 61.0189 172.2 60.8889 172.57C60.7689 172.93 60.7089 173.385 60.7089 173.935C60.7089 174.475 60.7739 174.925 60.9039 175.285C61.0439 175.635 61.2439 175.9 61.5039 176.08C61.7639 176.25 62.0789 176.335 62.4489 176.335C62.9189 176.335 63.3339 176.275 63.6939 176.155C64.0539 176.025 64.4039 175.85 64.7439 175.63V177.535C64.4039 177.755 64.0439 177.91 63.6639 178C63.2939 178.1 62.8239 178.15 62.2539 178.15ZM69.959 178.15C69.149 178.15 68.459 178.005 67.889 177.715C67.319 177.415 66.884 176.955 66.584 176.335C66.284 175.715 66.134 174.92 66.134 173.95C66.134 172.95 66.304 172.135 66.644 171.505C66.984 170.875 67.454 170.41 68.054 170.11C68.664 169.81 69.364 169.66 70.154 169.66C70.714 169.66 71.199 169.715 71.609 169.825C72.029 169.935 72.394 170.065 72.704 170.215L72.044 171.94C71.694 171.8 71.364 171.685 71.054 171.595C70.754 171.505 70.454 171.46 70.154 171.46C69.764 171.46 69.439 171.555 69.179 171.745C68.919 171.925 68.724 172.2 68.594 172.57C68.474 172.93 68.414 173.385 68.414 173.935C68.414 174.475 68.479 174.925 68.609 175.285C68.749 175.635 68.949 175.9 69.209 176.08C69.469 176.25 69.784 176.335 70.154 176.335C70.624 176.335 71.039 176.275 71.399 176.155C71.759 176.025 72.109 175.85 72.449 175.63V177.535C72.109 177.755 71.749 177.91 71.369 178C70.999 178.1 70.529 178.15 69.959 178.15ZM74.3341 178V169.81H76.5691V172.975H77.6491C78.4891 172.975 79.1791 173.065 79.7191 173.245C80.2591 173.415 80.6591 173.68 80.9191 174.04C81.1891 174.4 81.3241 174.85 81.3241 175.39C81.3241 175.92 81.1991 176.38 80.9491 176.77C80.7091 177.16 80.3241 177.465 79.7941 177.685C79.2741 177.895 78.5841 178 77.7241 178H74.3341ZM77.6041 176.455C78.0441 176.455 78.3991 176.375 78.6691 176.215C78.9491 176.055 79.0891 175.79 79.0891 175.42C79.0891 175.1 78.9591 174.87 78.6991 174.73C78.4491 174.59 78.0741 174.52 77.5741 174.52H76.5691V176.455H77.6041ZM82.5091 178V169.81H84.7441V178H82.5091ZM91.8926 177.91C91.5026 177.91 91.1826 177.785 90.9326 177.535C90.6826 177.285 90.5576 176.965 90.5576 176.575C90.5576 176.195 90.6826 175.875 90.9326 175.615C91.1826 175.345 91.5026 175.21 91.8926 175.21C92.2726 175.21 92.5926 175.345 92.8526 175.615C93.1226 175.875 93.2576 176.195 93.2576 176.575C93.2576 176.965 93.1226 177.285 92.8526 177.535C92.5926 177.785 92.2726 177.91 91.8926 177.91ZM91.8926 173.185C91.5026 173.185 91.1826 173.06 90.9326 172.81C90.6826 172.56 90.5576 172.24 90.5576 171.85C90.5576 171.47 90.6826 171.15 90.9326 170.89C91.1826 170.62 91.5026 170.485 91.8926 170.485C92.2726 170.485 92.5926 170.62 92.8526 170.89C93.1226 171.15 93.2576 171.47 93.2576 171.85C93.2576 172.24 93.1226 172.56 92.8526 172.81C92.5926 173.06 92.2726 173.185 91.8926 173.185ZM96.1988 179.8H94.0088C95.1288 177.46 95.6888 175.185 95.6888 172.975C95.6888 170.765 95.1288 168.49 94.0088 166.15H96.1988C97.4788 168.49 98.1188 170.765 98.1188 172.975C98.1188 175.185 97.4788 177.46 96.1988 179.8Z" fill="white"/>
</svg>
