<svg width="179" height="136" viewBox="0 0 179 136" fill="none" xmlns="http://www.w3.org/2000/svg">
<path d="M86.075 19.8868L85.0617 17.6014L85.0617 17.6014L86.075 19.8868ZM97.4993 14.8215L68.7946 11.7597L80.4954 38.1496L97.4993 14.8215ZM58.4209 81.6877C52.0991 57.5045 64.2377 32.3037 87.0883 22.1723L85.0617 17.6014C59.9706 28.7263 46.6418 56.3979 53.5835 82.9523L58.4209 81.6877Z" fill="white" fill-opacity="0.7"/>
<rect y="85" width="179" height="51" rx="10" fill="white" fill-opacity="0.7"/>
<path d="M9.05 98.03C8.57 98.03 8.095 98.1 7.625 98.24C7.155 98.37 6.695 98.53 6.245 98.72L5.525 96.89C6.055 96.66 6.615 96.48 7.205 96.35C7.795 96.21 8.425 96.14 9.095 96.14C9.885 96.14 10.585 96.265 11.195 96.515C11.815 96.755 12.335 97.115 12.755 97.595C13.185 98.065 13.51 98.645 13.73 99.335C13.96 100.015 14.075 100.79 14.075 101.66C14.075 102.76 13.89 103.725 13.52 104.555C13.15 105.375 12.58 106.015 11.81 106.475C11.05 106.925 10.075 107.15 8.885 107.15C8.275 107.15 7.72 107.105 7.22 107.015C6.73 106.925 6.23 106.785 5.72 106.595V104.69C6.29 104.87 6.815 105.01 7.295 105.11C7.785 105.21 8.27 105.26 8.75 105.26C9.21 105.26 9.615 105.205 9.965 105.095C10.325 104.975 10.625 104.805 10.865 104.585C11.115 104.355 11.31 104.07 11.45 103.73C11.59 103.38 11.67 102.98 11.69 102.53H7.04V100.67H11.675C11.665 100.25 11.595 99.88 11.465 99.56C11.335 99.23 11.155 98.955 10.925 98.735C10.695 98.505 10.42 98.33 10.1 98.21C9.79 98.09 9.44 98.03 9.05 98.03ZM22.8963 100.49H20.2113V107H17.9763V100.49H15.2913V98.81H22.8963V100.49ZM31.7008 102.89C31.7008 103.57 31.6058 104.175 31.4158 104.705C31.2358 105.235 30.9708 105.685 30.6208 106.055C30.2808 106.415 29.8658 106.69 29.3758 106.88C28.8858 107.06 28.3308 107.15 27.7108 107.15C27.1408 107.15 26.6108 107.06 26.1208 106.88C25.6408 106.69 25.2258 106.415 24.8758 106.055C24.5258 105.685 24.2508 105.235 24.0508 104.705C23.8608 104.175 23.7658 103.57 23.7658 102.89C23.7658 101.98 23.9258 101.215 24.2458 100.595C24.5658 99.965 25.0258 99.485 25.6258 99.155C26.2258 98.825 26.9358 98.66 27.7558 98.66C28.5258 98.66 29.2058 98.825 29.7958 99.155C30.3858 99.485 30.8508 99.965 31.1908 100.595C31.5308 101.215 31.7008 101.98 31.7008 102.89ZM26.0458 102.89C26.0458 103.43 26.1008 103.885 26.2108 104.255C26.3308 104.615 26.5158 104.89 26.7658 105.08C27.0158 105.26 27.3408 105.35 27.7408 105.35C28.1408 105.35 28.4608 105.26 28.7008 105.08C28.9508 104.89 29.1308 104.615 29.2408 104.255C29.3608 103.885 29.4208 103.43 29.4208 102.89C29.4208 102.35 29.3608 101.9 29.2408 101.54C29.1308 101.18 28.9508 100.91 28.7008 100.73C28.4508 100.55 28.1258 100.46 27.7258 100.46C27.1358 100.46 26.7058 100.665 26.4358 101.075C26.1758 101.475 26.0458 102.08 26.0458 102.89ZM37.9423 107H35.5273L37.7323 103.76C37.4523 103.64 37.1873 103.48 36.9373 103.28C36.6973 103.07 36.5023 102.805 36.3523 102.485C36.2023 102.165 36.1273 101.785 36.1273 101.345C36.1273 100.525 36.4373 99.9 37.0573 99.47C37.6773 99.03 38.4723 98.81 39.4423 98.81H43.2523V107H41.0173V103.955H39.7873L37.9423 107ZM38.3173 101.36C38.3173 101.7 38.4523 101.97 38.7223 102.17C38.9923 102.36 39.3423 102.455 39.7723 102.455H41.0173V100.385H39.4873C39.0873 100.385 38.7923 100.485 38.6023 100.685C38.4123 100.875 38.3173 101.1 38.3173 101.36ZM45.1689 108.425C45.3589 108.135 45.5139 107.89 45.6339 107.69C45.7639 107.49 45.8639 107.3 45.9339 107.12C46.0139 106.95 46.0689 106.76 46.0989 106.55C46.1289 106.33 46.1439 106.065 46.1439 105.755L47.8839 105.605C47.8839 106.025 47.8139 106.425 47.6739 106.805C47.5439 107.185 47.3639 107.56 47.1339 107.93C46.9139 108.3 46.6689 108.69 46.3989 109.1L45.1689 108.425ZM46.5189 106.94C46.1289 106.94 45.8089 106.815 45.5589 106.565C45.3089 106.315 45.1839 105.995 45.1839 105.605C45.1839 105.225 45.3089 104.905 45.5589 104.645C45.8089 104.375 46.1289 104.24 46.5189 104.24C46.8989 104.24 47.2189 104.375 47.4789 104.645C47.7489 104.905 47.8839 105.225 47.8839 105.605C47.8839 105.995 47.7489 106.315 47.4789 106.565C47.2189 106.815 46.8989 106.94 46.5189 106.94ZM60.3971 98.81V107H58.1621V100.49H55.1921V107H52.9571V98.81H60.3971ZM67.3023 98.66C68.2223 98.66 68.9673 99.02 69.5373 99.74C70.1073 100.45 70.3923 101.5 70.3923 102.89C70.3923 103.82 70.2573 104.605 69.9873 105.245C69.7173 105.875 69.3473 106.35 68.8773 106.67C68.4073 106.99 67.8623 107.15 67.2423 107.15C66.8523 107.15 66.5123 107.1 66.2223 107C65.9423 106.9 65.7023 106.77 65.5023 106.61C65.3023 106.45 65.1273 106.28 64.9773 106.1H64.8573C64.8973 106.29 64.9273 106.49 64.9473 106.7C64.9673 106.9 64.9773 107.1 64.9773 107.3V110.6H62.7423V98.81H64.5573L64.8723 99.875H64.9773C65.1273 99.655 65.3073 99.455 65.5173 99.275C65.7273 99.085 65.9773 98.935 66.2673 98.825C66.5673 98.715 66.9123 98.66 67.3023 98.66ZM66.5823 100.445C66.1923 100.445 65.8823 100.525 65.6523 100.685C65.4223 100.845 65.2523 101.09 65.1423 101.42C65.0423 101.74 64.9873 102.145 64.9773 102.635V102.875C64.9773 103.405 65.0273 103.855 65.1273 104.225C65.2273 104.585 65.3973 104.86 65.6373 105.05C65.8773 105.24 66.2023 105.335 66.6123 105.335C66.9523 105.335 67.2323 105.24 67.4523 105.05C67.6723 104.86 67.8373 104.58 67.9473 104.21C68.0573 103.84 68.1123 103.39 68.1123 102.86C68.1123 102.06 67.9873 101.46 67.7373 101.06C67.4973 100.65 67.1123 100.445 66.5823 100.445ZM74.3945 102.05C74.3945 102.22 74.3845 102.43 74.3645 102.68C74.3545 102.93 74.3395 103.185 74.3195 103.445C74.3095 103.705 74.2945 103.935 74.2745 104.135C74.2545 104.335 74.2395 104.475 74.2295 104.555L78.0095 98.81H80.6945V107H78.5345V103.73C78.5345 103.46 78.5445 103.165 78.5645 102.845C78.5845 102.515 78.6045 102.21 78.6245 101.93C78.6545 101.64 78.6745 101.42 78.6845 101.27L74.9195 107H72.2345V98.81H74.3945V102.05ZM85.2654 98.81V101.96H88.3854V98.81H90.6204V107H88.3854V103.625H85.2654V107H83.0304V98.81H85.2654ZM94.207 107H91.792L93.997 103.76C93.717 103.64 93.452 103.48 93.202 103.28C92.962 103.07 92.767 102.805 92.617 102.485C92.467 102.165 92.392 101.785 92.392 101.345C92.392 100.525 92.702 99.9 93.322 99.47C93.942 99.03 94.737 98.81 95.707 98.81H99.517V107H97.282V103.955H96.052L94.207 107ZM94.582 101.36C94.582 101.7 94.717 101.97 94.987 102.17C95.257 102.36 95.607 102.455 96.037 102.455H97.282V100.385H95.752C95.352 100.385 95.057 100.485 94.867 100.685C94.677 100.875 94.582 101.1 94.582 101.36ZM109.189 107H106.954V100.49H104.899C104.799 101.69 104.674 102.715 104.524 103.565C104.384 104.405 104.204 105.09 103.984 105.62C103.774 106.15 103.504 106.54 103.174 106.79C102.844 107.03 102.439 107.15 101.959 107.15C101.699 107.15 101.464 107.13 101.254 107.09C101.044 107.05 100.854 106.99 100.684 106.91V105.125C100.794 105.165 100.909 105.2 101.029 105.23C101.149 105.26 101.274 105.275 101.404 105.275C101.544 105.275 101.674 105.22 101.794 105.11C101.924 105 102.044 104.805 102.154 104.525C102.274 104.245 102.384 103.86 102.484 103.37C102.584 102.88 102.674 102.265 102.754 101.525C102.844 100.775 102.924 99.87 102.994 98.81H109.189V107ZM114.882 98.645C115.982 98.645 116.822 98.885 117.402 99.365C117.992 99.835 118.287 100.56 118.287 101.54V107H116.727L116.292 105.89H116.232C116.002 106.18 115.762 106.42 115.512 106.61C115.272 106.8 114.992 106.935 114.672 107.015C114.362 107.105 113.977 107.15 113.517 107.15C113.037 107.15 112.602 107.06 112.212 106.88C111.832 106.69 111.532 106.405 111.312 106.025C111.092 105.635 110.982 105.145 110.982 104.555C110.982 103.685 111.287 103.045 111.897 102.635C112.507 102.215 113.422 101.985 114.642 101.945L116.067 101.9V101.54C116.067 101.11 115.952 100.795 115.722 100.595C115.502 100.395 115.192 100.295 114.792 100.295C114.392 100.295 114.002 100.355 113.622 100.475C113.242 100.585 112.862 100.725 112.482 100.895L111.747 99.38C112.187 99.15 112.672 98.97 113.202 98.84C113.742 98.71 114.302 98.645 114.882 98.645ZM115.197 103.235C114.477 103.255 113.977 103.385 113.697 103.625C113.417 103.865 113.277 104.18 113.277 104.57C113.277 104.91 113.377 105.155 113.577 105.305C113.777 105.445 114.037 105.515 114.357 105.515C114.837 105.515 115.242 105.375 115.572 105.095C115.902 104.805 116.067 104.4 116.067 103.88V103.205L115.197 103.235ZM127.054 107.15C126.244 107.15 125.554 107.005 124.984 106.715C124.414 106.415 123.979 105.955 123.679 105.335C123.379 104.715 123.229 103.92 123.229 102.95C123.229 101.95 123.399 101.135 123.739 100.505C124.079 99.875 124.549 99.41 125.149 99.11C125.759 98.81 126.459 98.66 127.249 98.66C127.809 98.66 128.294 98.715 128.704 98.825C129.124 98.935 129.489 99.065 129.799 99.215L129.139 100.94C128.789 100.8 128.459 100.685 128.149 100.595C127.849 100.505 127.549 100.46 127.249 100.46C126.859 100.46 126.534 100.555 126.274 100.745C126.014 100.925 125.819 101.2 125.689 101.57C125.569 101.93 125.509 102.385 125.509 102.935C125.509 103.475 125.574 103.925 125.704 104.285C125.844 104.635 126.044 104.9 126.304 105.08C126.564 105.25 126.879 105.335 127.249 105.335C127.719 105.335 128.134 105.275 128.494 105.155C128.854 105.025 129.204 104.85 129.544 104.63V106.535C129.204 106.755 128.844 106.91 128.464 107C128.094 107.1 127.624 107.15 127.054 107.15ZM138.689 100.955C138.689 101.395 138.549 101.77 138.269 102.08C137.999 102.39 137.594 102.59 137.054 102.68V102.74C137.624 102.81 138.079 103.005 138.419 103.325C138.769 103.645 138.944 104.055 138.944 104.555C138.944 104.905 138.874 105.23 138.734 105.53C138.604 105.83 138.394 106.09 138.104 106.31C137.814 106.53 137.439 106.7 136.979 106.82C136.529 106.94 135.979 107 135.329 107H131.429V98.81H135.329C135.969 98.81 136.539 98.88 137.039 99.02C137.549 99.15 137.949 99.37 138.239 99.68C138.539 99.99 138.689 100.415 138.689 100.955ZM136.634 104.435C136.634 104.115 136.509 103.885 136.259 103.745C136.009 103.595 135.634 103.52 135.134 103.52H133.664V105.455H135.179C135.599 105.455 135.944 105.38 136.214 105.23C136.494 105.07 136.634 104.805 136.634 104.435ZM136.424 101.135C136.424 100.875 136.324 100.685 136.124 100.565C135.924 100.445 135.629 100.385 135.239 100.385H133.664V102.005H134.984C135.454 102.005 135.809 101.94 136.049 101.81C136.299 101.67 136.424 101.445 136.424 101.135ZM148.302 102.89C148.302 103.57 148.207 104.175 148.017 104.705C147.837 105.235 147.572 105.685 147.222 106.055C146.882 106.415 146.467 106.69 145.977 106.88C145.487 107.06 144.932 107.15 144.312 107.15C143.742 107.15 143.212 107.06 142.722 106.88C142.242 106.69 141.827 106.415 141.477 106.055C141.127 105.685 140.852 105.235 140.652 104.705C140.462 104.175 140.367 103.57 140.367 102.89C140.367 101.98 140.527 101.215 140.847 100.595C141.167 99.965 141.627 99.485 142.227 99.155C142.827 98.825 143.537 98.66 144.357 98.66C145.127 98.66 145.807 98.825 146.397 99.155C146.987 99.485 147.452 99.965 147.792 100.595C148.132 101.215 148.302 101.98 148.302 102.89ZM142.647 102.89C142.647 103.43 142.702 103.885 142.812 104.255C142.932 104.615 143.117 104.89 143.367 105.08C143.617 105.26 143.942 105.35 144.342 105.35C144.742 105.35 145.062 105.26 145.302 105.08C145.552 104.89 145.732 104.615 145.842 104.255C145.962 103.885 146.022 103.43 146.022 102.89C146.022 102.35 145.962 101.9 145.842 101.54C145.732 101.18 145.552 100.91 145.302 100.73C145.052 100.55 144.727 100.46 144.327 100.46C143.737 100.46 143.307 100.665 143.037 101.075C142.777 101.475 142.647 102.08 142.647 102.89ZM161.459 102.89C161.459 103.8 161.304 104.575 160.994 105.215C160.684 105.845 160.239 106.325 159.659 106.655C159.089 106.985 158.409 107.15 157.619 107.15C156.949 107.15 156.344 107.025 155.804 106.775C155.274 106.515 154.839 106.125 154.499 105.605C154.169 105.085 153.954 104.425 153.854 103.625H152.384V107H150.149V98.81H152.384V101.96H153.884C153.984 101.25 154.199 100.65 154.529 100.16C154.869 99.67 155.304 99.3 155.834 99.05C156.374 98.79 156.984 98.66 157.664 98.66C158.404 98.66 159.059 98.825 159.629 99.155C160.199 99.485 160.644 99.965 160.964 100.595C161.294 101.215 161.459 101.98 161.459 102.89ZM156.104 102.89C156.104 103.43 156.154 103.885 156.254 104.255C156.364 104.615 156.534 104.89 156.764 105.08C156.994 105.26 157.289 105.35 157.649 105.35C158.009 105.35 158.299 105.26 158.519 105.08C158.749 104.89 158.914 104.615 159.014 104.255C159.124 103.885 159.179 103.43 159.179 102.89C159.179 102.35 159.124 101.9 159.014 101.54C158.914 101.18 158.749 100.91 158.519 100.73C158.299 100.55 158.004 100.46 157.634 100.46C157.274 100.46 156.979 100.55 156.749 100.73C156.529 100.91 156.364 101.18 156.254 101.54C156.154 101.9 156.104 102.35 156.104 102.89ZM13.61 113.81V122H11.375V115.49H8.405V122H6.17V113.81H13.61ZM19.3302 113.66C20.0902 113.66 20.7402 113.805 21.2802 114.095C21.8302 114.385 22.2552 114.805 22.5552 115.355C22.8552 115.905 23.0052 116.58 23.0052 117.38V118.46H17.7252C17.7452 119.09 17.9302 119.585 18.2802 119.945C18.6402 120.305 19.1352 120.485 19.7652 120.485C20.2952 120.485 20.7752 120.435 21.2052 120.335C21.6352 120.225 22.0802 120.06 22.5402 119.84V121.565C22.1402 121.765 21.7152 121.91 21.2652 122C20.8252 122.1 20.2902 122.15 19.6602 122.15C18.8402 122.15 18.1152 122 17.4852 121.7C16.8552 121.39 16.3602 120.925 16.0002 120.305C15.6402 119.685 15.4602 118.905 15.4602 117.965C15.4602 117.005 15.6202 116.21 15.9402 115.58C16.2702 114.94 16.7252 114.46 17.3052 114.14C17.8852 113.82 18.5602 113.66 19.3302 113.66ZM19.3452 115.25C18.9152 115.25 18.5552 115.39 18.2652 115.67C17.9852 115.95 17.8202 116.385 17.7702 116.975H20.9052C20.9052 116.645 20.8452 116.35 20.7252 116.09C20.6152 115.83 20.4452 115.625 20.2152 115.475C19.9852 115.325 19.6952 115.25 19.3452 115.25ZM29.3775 113.66C30.2975 113.66 31.0425 114.02 31.6125 114.74C32.1825 115.45 32.4675 116.5 32.4675 117.89C32.4675 118.82 32.3325 119.605 32.0625 120.245C31.7925 120.875 31.4225 121.35 30.9525 121.67C30.4825 121.99 29.9375 122.15 29.3175 122.15C28.9275 122.15 28.5875 122.1 28.2975 122C28.0175 121.9 27.7775 121.77 27.5775 121.61C27.3775 121.45 27.2025 121.28 27.0525 121.1H26.9325C26.9725 121.29 27.0025 121.49 27.0225 121.7C27.0425 121.9 27.0525 122.1 27.0525 122.3V125.6H24.8175V113.81H26.6325L26.9475 114.875H27.0525C27.2025 114.655 27.3825 114.455 27.5925 114.275C27.8025 114.085 28.0525 113.935 28.3425 113.825C28.6425 113.715 28.9875 113.66 29.3775 113.66ZM28.6575 115.445C28.2675 115.445 27.9575 115.525 27.7275 115.685C27.4975 115.845 27.3275 116.09 27.2175 116.42C27.1175 116.74 27.0625 117.145 27.0525 117.635V117.875C27.0525 118.405 27.1025 118.855 27.2025 119.225C27.3025 119.585 27.4725 119.86 27.7125 120.05C27.9525 120.24 28.2775 120.335 28.6875 120.335C29.0275 120.335 29.3075 120.24 29.5275 120.05C29.7475 119.86 29.9125 119.58 30.0225 119.21C30.1325 118.84 30.1875 118.39 30.1875 117.86C30.1875 117.06 30.0625 116.46 29.8125 116.06C29.5725 115.65 29.1875 115.445 28.6575 115.445ZM41.5696 115.955C41.5696 116.395 41.4296 116.77 41.1496 117.08C40.8796 117.39 40.4746 117.59 39.9346 117.68V117.74C40.5046 117.81 40.9596 118.005 41.2996 118.325C41.6496 118.645 41.8246 119.055 41.8246 119.555C41.8246 119.905 41.7546 120.23 41.6146 120.53C41.4846 120.83 41.2746 121.09 40.9846 121.31C40.6946 121.53 40.3196 121.7 39.8596 121.82C39.4096 121.94 38.8596 122 38.2096 122H34.3096V113.81H38.2096C38.8496 113.81 39.4196 113.88 39.9196 114.02C40.4296 114.15 40.8296 114.37 41.1196 114.68C41.4196 114.99 41.5696 115.415 41.5696 115.955ZM39.5146 119.435C39.5146 119.115 39.3896 118.885 39.1396 118.745C38.8896 118.595 38.5146 118.52 38.0146 118.52H36.5446V120.455H38.0596C38.4796 120.455 38.8246 120.38 39.0946 120.23C39.3746 120.07 39.5146 119.805 39.5146 119.435ZM39.3046 116.135C39.3046 115.875 39.2046 115.685 39.0046 115.565C38.8046 115.445 38.5096 115.385 38.1196 115.385H36.5446V117.005H37.8646C38.3346 117.005 38.6896 116.94 38.9296 116.81C39.1796 116.67 39.3046 116.445 39.3046 116.135ZM42.5732 113.81H45.0182L46.5632 118.415C46.6132 118.565 46.6532 118.715 46.6832 118.865C46.7232 119.015 46.7532 119.17 46.7732 119.33C46.8032 119.49 46.8232 119.66 46.8332 119.84H46.8782C46.9082 119.58 46.9482 119.335 46.9982 119.105C47.0582 118.865 47.1232 118.635 47.1932 118.415L48.7082 113.81H51.1082L47.6432 123.05C47.4332 123.61 47.1582 124.08 46.8182 124.46C46.4882 124.84 46.1032 125.125 45.6632 125.315C45.2232 125.505 44.7432 125.6 44.2232 125.6C43.9732 125.6 43.7532 125.585 43.5632 125.555C43.3832 125.535 43.2232 125.51 43.0832 125.48V123.71C43.1932 123.73 43.3232 123.75 43.4732 123.77C43.6332 123.79 43.7982 123.8 43.9682 123.8C44.2782 123.8 44.5432 123.735 44.7632 123.605C44.9932 123.475 45.1832 123.295 45.3332 123.065C45.4832 122.845 45.6032 122.605 45.6932 122.345L45.8282 121.94L42.5732 113.81ZM63.5933 117.89C63.5933 118.8 63.4383 119.575 63.1283 120.215C62.8183 120.845 62.3733 121.325 61.7933 121.655C61.2233 121.985 60.5433 122.15 59.7533 122.15C59.0833 122.15 58.4783 122.025 57.9383 121.775C57.4083 121.515 56.9733 121.125 56.6333 120.605C56.3033 120.085 56.0883 119.425 55.9883 118.625H54.5183V122H52.2833V113.81H54.5183V116.96H56.0183C56.1183 116.25 56.3333 115.65 56.6633 115.16C57.0033 114.67 57.4383 114.3 57.9683 114.05C58.5083 113.79 59.1183 113.66 59.7983 113.66C60.5383 113.66 61.1933 113.825 61.7633 114.155C62.3333 114.485 62.7783 114.965 63.0983 115.595C63.4283 116.215 63.5933 116.98 63.5933 117.89ZM58.2383 117.89C58.2383 118.43 58.2883 118.885 58.3883 119.255C58.4983 119.615 58.6683 119.89 58.8983 120.08C59.1283 120.26 59.4233 120.35 59.7833 120.35C60.1433 120.35 60.4333 120.26 60.6533 120.08C60.8833 119.89 61.0483 119.615 61.1483 119.255C61.2583 118.885 61.3133 118.43 61.3133 117.89C61.3133 117.35 61.2583 116.9 61.1483 116.54C61.0483 116.18 60.8833 115.91 60.6533 115.73C60.4333 115.55 60.1383 115.46 59.7683 115.46C59.4083 115.46 59.1133 115.55 58.8833 115.73C58.6633 115.91 58.4983 116.18 58.3883 116.54C58.2883 116.9 58.2383 117.35 58.2383 117.89ZM76.027 113.81V122H73.792V115.49H70.822V122H68.587V113.81H76.027ZM85.8121 117.89C85.8121 118.57 85.7171 119.175 85.5271 119.705C85.3471 120.235 85.0821 120.685 84.7321 121.055C84.3921 121.415 83.9771 121.69 83.4871 121.88C82.9971 122.06 82.4421 122.15 81.8221 122.15C81.2521 122.15 80.7221 122.06 80.2321 121.88C79.7521 121.69 79.3371 121.415 78.9871 121.055C78.6371 120.685 78.3621 120.235 78.1621 119.705C77.9721 119.175 77.8771 118.57 77.8771 117.89C77.8771 116.98 78.0371 116.215 78.3571 115.595C78.6771 114.965 79.1371 114.485 79.7371 114.155C80.3371 113.825 81.0471 113.66 81.8671 113.66C82.6371 113.66 83.3171 113.825 83.9071 114.155C84.4971 114.485 84.9621 114.965 85.3021 115.595C85.6421 116.215 85.8121 116.98 85.8121 117.89ZM80.1571 117.89C80.1571 118.43 80.2121 118.885 80.3221 119.255C80.4421 119.615 80.6271 119.89 80.8771 120.08C81.1271 120.26 81.4521 120.35 81.8521 120.35C82.2521 120.35 82.5721 120.26 82.8121 120.08C83.0621 119.89 83.2421 119.615 83.3521 119.255C83.4721 118.885 83.5321 118.43 83.5321 117.89C83.5321 117.35 83.4721 116.9 83.3521 116.54C83.2421 116.18 83.0621 115.91 82.8121 115.73C82.5621 115.55 82.2371 115.46 81.8371 115.46C81.2471 115.46 80.8171 115.665 80.5471 116.075C80.2871 116.475 80.1571 117.08 80.1571 117.89ZM90.9893 122.15C90.1793 122.15 89.4893 122.005 88.9193 121.715C88.3493 121.415 87.9143 120.955 87.6143 120.335C87.3143 119.715 87.1643 118.92 87.1643 117.95C87.1643 116.95 87.3343 116.135 87.6743 115.505C88.0143 114.875 88.4843 114.41 89.0843 114.11C89.6943 113.81 90.3943 113.66 91.1843 113.66C91.7443 113.66 92.2293 113.715 92.6393 113.825C93.0593 113.935 93.4243 114.065 93.7343 114.215L93.0743 115.94C92.7243 115.8 92.3943 115.685 92.0843 115.595C91.7843 115.505 91.4843 115.46 91.1843 115.46C90.7943 115.46 90.4693 115.555 90.2093 115.745C89.9493 115.925 89.7543 116.2 89.6243 116.57C89.5043 116.93 89.4443 117.385 89.4443 117.935C89.4443 118.475 89.5093 118.925 89.6393 119.285C89.7793 119.635 89.9793 119.9 90.2393 120.08C90.4993 120.25 90.8143 120.335 91.1843 120.335C91.6543 120.335 92.0693 120.275 92.4293 120.155C92.7893 120.025 93.1393 119.85 93.4793 119.63V121.535C93.1393 121.755 92.7793 121.91 92.3993 122C92.0293 122.1 91.5593 122.15 90.9893 122.15ZM102.144 115.49H99.4593V122H97.2243V115.49H94.5393V113.81H102.144V115.49ZM107.015 113.645C108.115 113.645 108.955 113.885 109.535 114.365C110.125 114.835 110.42 115.56 110.42 116.54V122H108.86L108.425 120.89H108.365C108.135 121.18 107.895 121.42 107.645 121.61C107.405 121.8 107.125 121.935 106.805 122.015C106.495 122.105 106.11 122.15 105.65 122.15C105.17 122.15 104.735 122.06 104.345 121.88C103.965 121.69 103.665 121.405 103.445 121.025C103.225 120.635 103.115 120.145 103.115 119.555C103.115 118.685 103.42 118.045 104.03 117.635C104.64 117.215 105.555 116.985 106.775 116.945L108.2 116.9V116.54C108.2 116.11 108.085 115.795 107.855 115.595C107.635 115.395 107.325 115.295 106.925 115.295C106.525 115.295 106.135 115.355 105.755 115.475C105.375 115.585 104.995 115.725 104.615 115.895L103.88 114.38C104.32 114.15 104.805 113.97 105.335 113.84C105.875 113.71 106.435 113.645 107.015 113.645ZM107.33 118.235C106.61 118.255 106.11 118.385 105.83 118.625C105.55 118.865 105.41 119.18 105.41 119.57C105.41 119.91 105.51 120.155 105.71 120.305C105.91 120.445 106.17 120.515 106.49 120.515C106.97 120.515 107.375 120.375 107.705 120.095C108.035 119.805 108.2 119.4 108.2 118.88V118.205L107.33 118.235ZM119.968 115.955C119.968 116.395 119.828 116.77 119.548 117.08C119.278 117.39 118.873 117.59 118.333 117.68V117.74C118.903 117.81 119.358 118.005 119.698 118.325C120.048 118.645 120.223 119.055 120.223 119.555C120.223 119.905 120.153 120.23 120.013 120.53C119.883 120.83 119.673 121.09 119.383 121.31C119.093 121.53 118.718 121.7 118.258 121.82C117.808 121.94 117.258 122 116.608 122H112.708V113.81H116.608C117.248 113.81 117.818 113.88 118.318 114.02C118.828 114.15 119.228 114.37 119.518 114.68C119.818 114.99 119.968 115.415 119.968 115.955ZM117.913 119.435C117.913 119.115 117.788 118.885 117.538 118.745C117.288 118.595 116.913 118.52 116.413 118.52H114.943V120.455H116.458C116.878 120.455 117.223 120.38 117.493 120.23C117.773 120.07 117.913 119.805 117.913 119.435ZM117.703 116.135C117.703 115.875 117.603 115.685 117.403 115.565C117.203 115.445 116.908 115.385 116.518 115.385H114.943V117.005H116.263C116.733 117.005 117.088 116.94 117.328 116.81C117.578 116.67 117.703 116.445 117.703 116.135ZM127.512 113.81H129.972L126.732 117.74L130.257 122H127.722L124.377 117.845V122H122.142V113.81H124.377V117.785L127.512 113.81ZM130.259 113.81H132.704L134.249 118.415C134.299 118.565 134.339 118.715 134.369 118.865C134.409 119.015 134.439 119.17 134.459 119.33C134.489 119.49 134.509 119.66 134.519 119.84H134.564C134.594 119.58 134.634 119.335 134.684 119.105C134.744 118.865 134.809 118.635 134.879 118.415L136.394 113.81H138.794L135.329 123.05C135.119 123.61 134.844 124.08 134.504 124.46C134.174 124.84 133.789 125.125 133.349 125.315C132.909 125.505 132.429 125.6 131.909 125.6C131.659 125.6 131.439 125.585 131.249 125.555C131.069 125.535 130.909 125.51 130.769 125.48V123.71C130.879 123.73 131.009 123.75 131.159 123.77C131.319 123.79 131.484 123.8 131.654 123.8C131.964 123.8 132.229 123.735 132.449 123.605C132.679 123.475 132.869 123.295 133.019 123.065C133.169 122.845 133.289 122.605 133.379 122.345L133.514 121.94L130.259 113.81ZM139.894 118.61L139.654 111.2H142.144L141.904 118.61H139.894ZM140.884 122.24C140.494 122.24 140.174 122.115 139.924 121.865C139.674 121.615 139.549 121.295 139.549 120.905C139.549 120.525 139.674 120.205 139.924 119.945C140.174 119.675 140.494 119.54 140.884 119.54C141.264 119.54 141.584 119.675 141.844 119.945C142.114 120.205 142.249 120.525 142.249 120.905C142.249 121.295 142.114 121.615 141.844 121.865C141.584 122.115 141.264 122.24 140.884 122.24Z" fill="#AD3B65"/>
</svg>
