<svg width="299" height="399" viewBox="0 0 299 399" fill="none" xmlns="http://www.w3.org/2000/svg">
<path d="M135.86 308.236C135.284 308.236 134.714 308.32 134.15 308.488C133.586 308.644 133.034 308.836 132.494 309.064L131.63 306.868C132.266 306.592 132.938 306.376 133.646 306.22C134.354 306.052 135.11 305.968 135.914 305.968C136.862 305.968 137.702 306.118 138.434 306.418C139.178 306.706 139.802 307.138 140.306 307.714C140.822 308.278 141.212 308.974 141.476 309.802C141.752 310.618 141.89 311.548 141.89 312.592C141.89 313.912 141.668 315.07 141.224 316.066C140.78 317.05 140.096 317.818 139.172 318.37C138.26 318.91 137.09 319.18 135.662 319.18C134.93 319.18 134.264 319.126 133.664 319.018C133.076 318.91 132.476 318.742 131.864 318.514V316.228C132.548 316.444 133.178 316.612 133.754 316.732C134.342 316.852 134.924 316.912 135.5 316.912C136.052 316.912 136.538 316.846 136.958 316.714C137.39 316.57 137.75 316.366 138.038 316.102C138.338 315.826 138.572 315.484 138.74 315.076C138.908 314.656 139.004 314.176 139.028 313.636H133.448V311.404H139.01C138.998 310.9 138.914 310.456 138.758 310.072C138.602 309.676 138.386 309.346 138.11 309.082C137.834 308.806 137.504 308.596 137.12 308.452C136.748 308.308 136.328 308.236 135.86 308.236ZM152.476 311.188H149.254V319H146.572V311.188H143.35V309.172H152.476V311.188ZM163.041 314.068C163.041 314.884 162.927 315.61 162.699 316.246C162.483 316.882 162.165 317.422 161.745 317.866C161.337 318.298 160.839 318.628 160.251 318.856C159.663 319.072 158.997 319.18 158.253 319.18C157.569 319.18 156.933 319.072 156.345 318.856C155.769 318.628 155.271 318.298 154.851 317.866C154.431 317.422 154.101 316.882 153.861 316.246C153.633 315.61 153.519 314.884 153.519 314.068C153.519 312.976 153.711 312.058 154.095 311.314C154.479 310.558 155.031 309.982 155.751 309.586C156.471 309.19 157.323 308.992 158.307 308.992C159.231 308.992 160.047 309.19 160.755 309.586C161.463 309.982 162.021 310.558 162.429 311.314C162.837 312.058 163.041 312.976 163.041 314.068ZM156.255 314.068C156.255 314.716 156.321 315.262 156.453 315.706C156.597 316.138 156.819 316.468 157.119 316.696C157.419 316.912 157.809 317.02 158.289 317.02C158.769 317.02 159.153 316.912 159.441 316.696C159.741 316.468 159.957 316.138 160.089 315.706C160.233 315.262 160.305 314.716 160.305 314.068C160.305 313.42 160.233 312.88 160.089 312.448C159.957 312.016 159.741 311.692 159.441 311.476C159.141 311.26 158.751 311.152 158.271 311.152C157.563 311.152 157.047 311.398 156.723 311.89C156.411 312.37 156.255 313.096 156.255 314.068ZM170.531 319H167.633L170.279 315.112C169.943 314.968 169.625 314.776 169.325 314.536C169.037 314.284 168.803 313.966 168.623 313.582C168.443 313.198 168.353 312.742 168.353 312.214C168.353 311.23 168.725 310.48 169.469 309.964C170.213 309.436 171.167 309.172 172.331 309.172H176.903V319H174.221V315.346H172.745L170.531 319ZM170.981 312.232C170.981 312.64 171.143 312.964 171.467 313.204C171.791 313.432 172.211 313.546 172.727 313.546H174.221V311.062H172.385C171.905 311.062 171.551 311.182 171.323 311.422C171.095 311.65 170.981 311.92 170.981 312.232ZM179.203 320.71C179.431 320.362 179.617 320.068 179.761 319.828C179.917 319.588 180.037 319.36 180.121 319.144C180.217 318.94 180.283 318.712 180.319 318.46C180.355 318.196 180.373 317.878 180.373 317.506L182.461 317.326C182.461 317.83 182.377 318.31 182.209 318.766C182.053 319.222 181.837 319.672 181.561 320.116C181.297 320.56 181.003 321.028 180.679 321.52L179.203 320.71ZM180.823 318.928C180.355 318.928 179.971 318.778 179.671 318.478C179.371 318.178 179.221 317.794 179.221 317.326C179.221 316.87 179.371 316.486 179.671 316.174C179.971 315.85 180.355 315.688 180.823 315.688C181.279 315.688 181.663 315.85 181.975 316.174C182.299 316.486 182.461 316.87 182.461 317.326C182.461 317.794 182.299 318.178 181.975 318.478C181.663 318.778 181.279 318.928 180.823 318.928ZM136.4 337.18C135.428 337.18 134.6 337.006 133.916 336.658C133.232 336.298 132.71 335.746 132.35 335.002C131.99 334.258 131.81 333.304 131.81 332.14C131.81 330.94 132.014 329.962 132.422 329.206C132.83 328.45 133.394 327.892 134.114 327.532C134.846 327.172 135.686 326.992 136.634 326.992C137.306 326.992 137.888 327.058 138.38 327.19C138.884 327.322 139.322 327.478 139.694 327.658L138.902 329.728C138.482 329.56 138.086 329.422 137.714 329.314C137.354 329.206 136.994 329.152 136.634 329.152C136.166 329.152 135.776 329.266 135.464 329.494C135.152 329.71 134.918 330.04 134.762 330.484C134.618 330.916 134.546 331.462 134.546 332.122C134.546 332.77 134.624 333.31 134.78 333.742C134.948 334.162 135.188 334.48 135.5 334.696C135.812 334.9 136.19 335.002 136.634 335.002C137.198 335.002 137.696 334.93 138.128 334.786C138.56 334.63 138.98 334.42 139.388 334.156V336.442C138.98 336.706 138.548 336.892 138.092 337C137.648 337.12 137.084 337.18 136.4 337.18ZM150.578 332.068C150.578 332.884 150.464 333.61 150.236 334.246C150.02 334.882 149.702 335.422 149.282 335.866C148.874 336.298 148.376 336.628 147.788 336.856C147.2 337.072 146.534 337.18 145.79 337.18C145.106 337.18 144.47 337.072 143.882 336.856C143.306 336.628 142.808 336.298 142.388 335.866C141.968 335.422 141.638 334.882 141.398 334.246C141.17 333.61 141.056 332.884 141.056 332.068C141.056 330.976 141.248 330.058 141.632 329.314C142.016 328.558 142.568 327.982 143.288 327.586C144.008 327.19 144.86 326.992 145.844 326.992C146.768 326.992 147.584 327.19 148.292 327.586C149 327.982 149.558 328.558 149.966 329.314C150.374 330.058 150.578 330.976 150.578 332.068ZM143.792 332.068C143.792 332.716 143.858 333.262 143.99 333.706C144.134 334.138 144.356 334.468 144.656 334.696C144.956 334.912 145.346 335.02 145.826 335.02C146.306 335.02 146.69 334.912 146.978 334.696C147.278 334.468 147.494 334.138 147.626 333.706C147.77 333.262 147.842 332.716 147.842 332.068C147.842 331.42 147.77 330.88 147.626 330.448C147.494 330.016 147.278 329.692 146.978 329.476C146.678 329.26 146.288 329.152 145.808 329.152C145.1 329.152 144.584 329.398 144.26 329.89C143.948 330.37 143.792 331.096 143.792 332.068ZM158.267 326.992C159.371 326.992 160.265 327.424 160.949 328.288C161.633 329.14 161.975 330.4 161.975 332.068C161.975 333.184 161.813 334.126 161.489 334.894C161.165 335.65 160.721 336.22 160.157 336.604C159.593 336.988 158.939 337.18 158.195 337.18C157.727 337.18 157.319 337.12 156.971 337C156.635 336.88 156.347 336.724 156.107 336.532C155.867 336.34 155.657 336.136 155.477 335.92H155.333C155.381 336.148 155.417 336.388 155.441 336.64C155.465 336.88 155.477 337.12 155.477 337.36V341.32H152.795V327.172H154.973L155.351 328.45H155.477C155.657 328.186 155.873 327.946 156.125 327.73C156.377 327.502 156.677 327.322 157.025 327.19C157.385 327.058 157.799 326.992 158.267 326.992ZM157.403 329.134C156.935 329.134 156.563 329.23 156.287 329.422C156.011 329.614 155.807 329.908 155.675 330.304C155.555 330.688 155.489 331.174 155.477 331.762V332.05C155.477 332.686 155.537 333.226 155.657 333.67C155.777 334.102 155.981 334.432 156.269 334.66C156.557 334.888 156.947 335.002 157.439 335.002C157.847 335.002 158.183 334.888 158.447 334.66C158.711 334.432 158.909 334.096 159.041 333.652C159.173 333.208 159.239 332.668 159.239 332.032C159.239 331.072 159.089 330.352 158.789 329.872C158.501 329.38 158.039 329.134 157.403 329.134ZM172.145 329.188H168.923V337H166.241V329.188H163.019V327.172H172.145V329.188ZM176.551 331.06C176.551 331.264 176.539 331.516 176.515 331.816C176.503 332.116 176.485 332.422 176.461 332.734C176.449 333.046 176.431 333.322 176.407 333.562C176.383 333.802 176.365 333.97 176.353 334.066L180.889 327.172H184.111V337H181.519V333.076C181.519 332.752 181.531 332.398 181.555 332.014C181.579 331.618 181.603 331.252 181.627 330.916C181.663 330.568 181.687 330.304 181.699 330.124L177.181 337H173.959V327.172H176.551V331.06ZM192.386 326.992C193.49 326.992 194.384 327.424 195.068 328.288C195.752 329.14 196.094 330.4 196.094 332.068C196.094 333.184 195.932 334.126 195.608 334.894C195.284 335.65 194.84 336.22 194.276 336.604C193.712 336.988 193.058 337.18 192.314 337.18C191.846 337.18 191.438 337.12 191.09 337C190.754 336.88 190.466 336.724 190.226 336.532C189.986 336.34 189.776 336.136 189.596 335.92H189.452C189.5 336.148 189.536 336.388 189.56 336.64C189.584 336.88 189.596 337.12 189.596 337.36V341.32H186.914V327.172H189.092L189.47 328.45H189.596C189.776 328.186 189.992 327.946 190.244 327.73C190.496 327.502 190.796 327.322 191.144 327.19C191.504 327.058 191.918 326.992 192.386 326.992ZM191.522 329.134C191.054 329.134 190.682 329.23 190.406 329.422C190.13 329.614 189.926 329.908 189.794 330.304C189.674 330.688 189.608 331.174 189.596 331.762V332.05C189.596 332.686 189.656 333.226 189.776 333.67C189.896 334.102 190.1 334.432 190.388 334.66C190.676 334.888 191.066 335.002 191.558 335.002C191.966 335.002 192.302 334.888 192.566 334.66C192.83 334.432 193.028 334.096 193.16 333.652C193.292 333.208 193.358 332.668 193.358 332.032C193.358 331.072 193.208 330.352 192.908 329.872C192.62 329.38 192.158 329.134 191.522 329.134ZM196.725 327.172H199.659L201.513 332.698C201.573 332.878 201.621 333.058 201.657 333.238C201.705 333.418 201.741 333.604 201.765 333.796C201.801 333.988 201.825 334.192 201.837 334.408H201.891C201.927 334.096 201.975 333.802 202.035 333.526C202.107 333.238 202.185 332.962 202.269 332.698L204.087 327.172H206.967L202.809 338.26C202.557 338.932 202.227 339.496 201.819 339.952C201.423 340.408 200.961 340.75 200.433 340.978C199.905 341.206 199.329 341.32 198.705 341.32C198.405 341.32 198.141 341.302 197.913 341.266C197.697 341.242 197.505 341.212 197.337 341.176V339.052C197.469 339.076 197.625 339.1 197.805 339.124C197.997 339.148 198.195 339.16 198.399 339.16C198.771 339.16 199.089 339.082 199.353 338.926C199.629 338.77 199.857 338.554 200.037 338.278C200.217 338.014 200.361 337.726 200.469 337.414L200.631 336.928L196.725 327.172ZM221.949 332.068C221.949 333.16 221.763 334.09 221.391 334.858C221.019 335.614 220.485 336.19 219.789 336.586C219.105 336.982 218.289 337.18 217.341 337.18C216.537 337.18 215.811 337.03 215.163 336.73C214.527 336.418 214.005 335.95 213.597 335.326C213.201 334.702 212.943 333.91 212.823 332.95H211.059V337H208.377V327.172H211.059V330.952H212.859C212.979 330.1 213.237 329.38 213.633 328.792C214.041 328.204 214.563 327.76 215.199 327.46C215.847 327.148 216.579 326.992 217.395 326.992C218.283 326.992 219.069 327.19 219.753 327.586C220.437 327.982 220.971 328.558 221.355 329.314C221.751 330.058 221.949 330.976 221.949 332.068ZM215.523 332.068C215.523 332.716 215.583 333.262 215.703 333.706C215.835 334.138 216.039 334.468 216.315 334.696C216.591 334.912 216.945 335.02 217.377 335.02C217.809 335.02 218.157 334.912 218.421 334.696C218.697 334.468 218.895 334.138 219.015 333.706C219.147 333.262 219.213 332.716 219.213 332.068C219.213 331.42 219.147 330.88 219.015 330.448C218.895 330.016 218.697 329.692 218.421 329.476C218.157 329.26 217.803 329.152 217.359 329.152C216.927 329.152 216.573 329.26 216.297 329.476C216.033 329.692 215.835 330.016 215.703 330.448C215.583 330.88 215.523 331.42 215.523 332.068ZM231.523 326.992C232.231 326.992 232.891 327.088 233.503 327.28C234.127 327.46 234.625 327.742 234.997 328.126C235.381 328.51 235.573 329.002 235.573 329.602C235.573 330.19 235.393 330.658 235.033 331.006C234.685 331.354 234.211 331.606 233.611 331.762V331.852C234.031 331.948 234.409 332.086 234.745 332.266C235.081 332.434 235.345 332.668 235.537 332.968C235.741 333.256 235.843 333.646 235.843 334.138C235.843 334.678 235.669 335.182 235.321 335.65C234.985 336.106 234.457 336.478 233.737 336.766C233.029 337.042 232.117 337.18 231.001 337.18C230.473 337.18 229.975 337.156 229.507 337.108C229.039 337.06 228.613 336.994 228.229 336.91C227.845 336.814 227.509 336.7 227.221 336.568V334.354C227.629 334.546 228.127 334.72 228.715 334.876C229.315 335.032 229.951 335.11 230.623 335.11C231.115 335.11 231.553 335.074 231.937 335.002C232.333 334.93 232.645 334.81 232.873 334.642C233.113 334.474 233.233 334.252 233.233 333.976C233.233 333.712 233.131 333.496 232.927 333.328C232.723 333.148 232.417 333.016 232.009 332.932C231.601 332.848 231.079 332.806 230.443 332.806H229.399V330.952H230.389C231.277 330.952 231.961 330.88 232.441 330.736C232.933 330.592 233.179 330.322 233.179 329.926C233.179 329.614 233.023 329.38 232.711 329.224C232.399 329.056 231.889 328.972 231.181 328.972C230.713 328.972 230.203 329.026 229.651 329.134C229.099 329.242 228.577 329.398 228.085 329.602L227.293 327.73C227.857 327.514 228.475 327.34 229.147 327.208C229.819 327.064 230.611 326.992 231.523 326.992ZM241.957 326.974C243.277 326.974 244.285 327.262 244.981 327.838C245.689 328.402 246.043 329.272 246.043 330.448V337H244.171L243.649 335.668H243.577C243.301 336.016 243.013 336.304 242.713 336.532C242.425 336.76 242.089 336.922 241.705 337.018C241.333 337.126 240.871 337.18 240.319 337.18C239.743 337.18 239.221 337.072 238.753 336.856C238.297 336.628 237.937 336.286 237.673 335.83C237.409 335.362 237.277 334.774 237.277 334.066C237.277 333.022 237.643 332.254 238.375 331.762C239.107 331.258 240.205 330.982 241.669 330.934L243.379 330.88V330.448C243.379 329.932 243.241 329.554 242.965 329.314C242.701 329.074 242.329 328.954 241.849 328.954C241.369 328.954 240.901 329.026 240.445 329.17C239.989 329.302 239.533 329.47 239.077 329.674L238.195 327.856C238.723 327.58 239.305 327.364 239.941 327.208C240.589 327.052 241.261 326.974 241.957 326.974ZM242.335 332.482C241.471 332.506 240.871 332.662 240.535 332.95C240.199 333.238 240.031 333.616 240.031 334.084C240.031 334.492 240.151 334.786 240.391 334.966C240.631 335.134 240.943 335.218 241.327 335.218C241.903 335.218 242.389 335.05 242.785 334.714C243.181 334.366 243.379 333.88 243.379 333.256V332.446L242.335 332.482ZM255.233 327.172H258.185L254.297 331.888L258.527 337H255.485L251.471 332.014V337H248.789V327.172H251.471V331.942L255.233 327.172ZM263.965 326.974C265.285 326.974 266.293 327.262 266.989 327.838C267.697 328.402 268.051 329.272 268.051 330.448V337H266.179L265.657 335.668H265.585C265.309 336.016 265.021 336.304 264.721 336.532C264.433 336.76 264.097 336.922 263.713 337.018C263.341 337.126 262.879 337.18 262.327 337.18C261.751 337.18 261.229 337.072 260.761 336.856C260.305 336.628 259.945 336.286 259.681 335.83C259.417 335.362 259.285 334.774 259.285 334.066C259.285 333.022 259.651 332.254 260.383 331.762C261.115 331.258 262.213 330.982 263.677 330.934L265.387 330.88V330.448C265.387 329.932 265.249 329.554 264.973 329.314C264.709 329.074 264.337 328.954 263.857 328.954C263.377 328.954 262.909 329.026 262.453 329.17C261.997 329.302 261.541 329.47 261.085 329.674L260.203 327.856C260.731 327.58 261.313 327.364 261.949 327.208C262.597 327.052 263.269 326.974 263.965 326.974ZM264.343 332.482C263.479 332.506 262.879 332.662 262.543 332.95C262.207 333.238 262.039 333.616 262.039 334.084C262.039 334.492 262.159 334.786 262.399 334.966C262.639 335.134 262.951 335.218 263.335 335.218C263.911 335.218 264.397 335.05 264.793 334.714C265.189 334.366 265.387 333.88 265.387 333.256V332.446L264.343 332.482ZM274.379 326.992C275.087 326.992 275.747 327.088 276.359 327.28C276.983 327.46 277.481 327.742 277.853 328.126C278.237 328.51 278.429 329.002 278.429 329.602C278.429 330.19 278.249 330.658 277.889 331.006C277.541 331.354 277.067 331.606 276.467 331.762V331.852C276.887 331.948 277.265 332.086 277.601 332.266C277.937 332.434 278.201 332.668 278.393 332.968C278.597 333.256 278.699 333.646 278.699 334.138C278.699 334.678 278.525 335.182 278.177 335.65C277.841 336.106 277.313 336.478 276.593 336.766C275.885 337.042 274.973 337.18 273.857 337.18C273.329 337.18 272.831 337.156 272.363 337.108C271.895 337.06 271.469 336.994 271.085 336.91C270.701 336.814 270.365 336.7 270.077 336.568V334.354C270.485 334.546 270.983 334.72 271.571 334.876C272.171 335.032 272.807 335.11 273.479 335.11C273.971 335.11 274.409 335.074 274.793 335.002C275.189 334.93 275.501 334.81 275.729 334.642C275.969 334.474 276.089 334.252 276.089 333.976C276.089 333.712 275.987 333.496 275.783 333.328C275.579 333.148 275.273 333.016 274.865 332.932C274.457 332.848 273.935 332.806 273.299 332.806H272.255V330.952H273.245C274.133 330.952 274.817 330.88 275.297 330.736C275.789 330.592 276.035 330.322 276.035 329.926C276.035 329.614 275.879 329.38 275.567 329.224C275.255 329.056 274.745 328.972 274.037 328.972C273.569 328.972 273.059 329.026 272.507 329.134C271.955 329.242 271.433 329.398 270.941 329.602L270.149 327.73C270.713 327.514 271.331 327.34 272.003 327.208C272.675 327.064 273.467 326.992 274.379 326.992ZM280.781 337V327.172H283.463V330.97H284.759C285.767 330.97 286.595 331.078 287.243 331.294C287.891 331.498 288.371 331.816 288.683 332.248C289.007 332.68 289.169 333.22 289.169 333.868C289.169 334.504 289.019 335.056 288.719 335.524C288.431 335.992 287.969 336.358 287.333 336.622C286.709 336.874 285.881 337 284.849 337H280.781ZM284.705 335.146C285.233 335.146 285.659 335.05 285.983 334.858C286.319 334.666 286.487 334.348 286.487 333.904C286.487 333.52 286.331 333.244 286.019 333.076C285.719 332.908 285.269 332.824 284.669 332.824H283.463V335.146H284.705ZM290.591 337V327.172H293.273V337H290.591ZM134.996 349.06C134.996 349.264 134.984 349.516 134.96 349.816C134.948 350.116 134.93 350.422 134.906 350.734C134.894 351.046 134.876 351.322 134.852 351.562C134.828 351.802 134.81 351.97 134.798 352.066L139.334 345.172H142.556V355H139.964V351.076C139.964 350.752 139.976 350.398 140 350.014C140.024 349.618 140.048 349.252 140.072 348.916C140.108 348.568 140.132 348.304 140.144 348.124L135.626 355H132.404V345.172H134.996V349.06ZM157.976 345.172V353.038H159.416V358.528H157.004V355H150.398V358.528H147.986V353.038H148.814C149.246 352.378 149.612 351.628 149.912 350.788C150.212 349.936 150.452 349.03 150.632 348.07C150.812 347.11 150.944 346.144 151.028 345.172H157.976ZM153.278 347.188C153.182 347.908 153.062 348.61 152.918 349.294C152.774 349.966 152.594 350.614 152.378 351.238C152.174 351.862 151.922 352.462 151.622 353.038H155.294V347.188H153.278ZM159.688 345.172H162.622L164.476 350.698C164.536 350.878 164.584 351.058 164.62 351.238C164.668 351.418 164.704 351.604 164.728 351.796C164.764 351.988 164.788 352.192 164.8 352.408H164.854C164.89 352.096 164.938 351.802 164.998 351.526C165.07 351.238 165.148 350.962 165.232 350.698L167.05 345.172H169.93L165.772 356.26C165.52 356.932 165.19 357.496 164.782 357.952C164.386 358.408 163.924 358.75 163.396 358.978C162.868 359.206 162.292 359.32 161.668 359.32C161.368 359.32 161.104 359.302 160.875 359.266C160.66 359.242 160.468 359.212 160.3 359.176V357.052C160.432 357.076 160.588 357.1 160.768 357.124C160.96 357.148 161.158 357.16 161.362 357.16C161.734 357.16 162.052 357.082 162.316 356.926C162.592 356.77 162.82 356.554 163 356.278C163.18 356.014 163.324 355.726 163.432 355.414L163.594 354.928L159.688 345.172ZM183.724 345.172V355H181.222V350.176C181.222 349.696 181.228 349.228 181.24 348.772C181.264 348.316 181.294 347.896 181.33 347.512H181.276L178.558 355H176.542L173.788 347.494H173.716C173.764 347.89 173.794 348.316 173.806 348.772C173.83 349.216 173.842 349.708 173.842 350.248V355H171.34V345.172H175.138L177.586 351.832L180.07 345.172H183.724ZM190.559 344.974C191.879 344.974 192.887 345.262 193.583 345.838C194.291 346.402 194.645 347.272 194.645 348.448V355H192.773L192.251 353.668H192.179C191.903 354.016 191.615 354.304 191.315 354.532C191.027 354.76 190.691 354.922 190.307 355.018C189.935 355.126 189.473 355.18 188.921 355.18C188.345 355.18 187.823 355.072 187.355 354.856C186.899 354.628 186.539 354.286 186.275 353.83C186.011 353.362 185.879 352.774 185.879 352.066C185.879 351.022 186.245 350.254 186.977 349.762C187.709 349.258 188.807 348.982 190.271 348.934L191.981 348.88V348.448C191.981 347.932 191.843 347.554 191.567 347.314C191.303 347.074 190.931 346.954 190.451 346.954C189.971 346.954 189.503 347.026 189.047 347.17C188.591 347.302 188.135 347.47 187.679 347.674L186.797 345.856C187.325 345.58 187.907 345.364 188.543 345.208C189.191 345.052 189.863 344.974 190.559 344.974ZM190.937 350.482C190.073 350.506 189.473 350.662 189.137 350.95C188.801 351.238 188.633 351.616 188.633 352.084C188.633 352.492 188.753 352.786 188.993 352.966C189.233 353.134 189.545 353.218 189.929 353.218C190.505 353.218 190.991 353.05 191.387 352.714C191.783 352.366 191.981 351.88 191.981 351.256V350.446L190.937 350.482ZM210.962 350.068C210.962 351.16 210.776 352.09 210.404 352.858C210.032 353.614 209.498 354.19 208.802 354.586C208.118 354.982 207.302 355.18 206.354 355.18C205.55 355.18 204.824 355.03 204.176 354.73C203.54 354.418 203.018 353.95 202.61 353.326C202.214 352.702 201.956 351.91 201.836 350.95H200.072V355H197.39V345.172H200.072V348.952H201.872C201.992 348.1 202.25 347.38 202.646 346.792C203.054 346.204 203.576 345.76 204.212 345.46C204.86 345.148 205.592 344.992 206.408 344.992C207.296 344.992 208.082 345.19 208.766 345.586C209.45 345.982 209.984 346.558 210.368 347.314C210.764 348.058 210.962 348.976 210.962 350.068ZM204.536 350.068C204.536 350.716 204.596 351.262 204.716 351.706C204.848 352.138 205.052 352.468 205.328 352.696C205.604 352.912 205.958 353.02 206.39 353.02C206.822 353.02 207.17 352.912 207.434 352.696C207.71 352.468 207.908 352.138 208.028 351.706C208.16 351.262 208.226 350.716 208.226 350.068C208.226 349.42 208.16 348.88 208.028 348.448C207.908 348.016 207.71 347.692 207.434 347.476C207.17 347.26 206.816 347.152 206.372 347.152C205.94 347.152 205.586 347.26 205.31 347.476C205.046 347.692 204.848 348.016 204.716 348.448C204.596 348.88 204.536 349.42 204.536 350.068ZM212.671 356.71C212.899 356.362 213.085 356.068 213.229 355.828C213.385 355.588 213.505 355.36 213.589 355.144C213.685 354.94 213.751 354.712 213.787 354.46C213.823 354.196 213.841 353.878 213.841 353.506L215.929 353.326C215.929 353.83 215.845 354.31 215.677 354.766C215.521 355.222 215.305 355.672 215.029 356.116C214.765 356.56 214.471 357.028 214.147 357.52L212.671 356.71ZM214.291 354.928C213.823 354.928 213.439 354.778 213.139 354.478C212.839 354.178 212.689 353.794 212.689 353.326C212.689 352.87 212.839 352.486 213.139 352.174C213.439 351.85 213.823 351.688 214.291 351.688C214.747 351.688 215.131 351.85 215.443 352.174C215.767 352.486 215.929 352.87 215.929 353.326C215.929 353.794 215.767 354.178 215.443 354.478C215.131 354.778 214.747 354.928 214.291 354.928ZM228.461 345.172H231.413L227.525 349.888L231.755 355H228.713L224.699 350.014V355H222.017V345.172H224.699V349.942L228.461 345.172ZM237.194 344.974C238.514 344.974 239.522 345.262 240.218 345.838C240.926 346.402 241.28 347.272 241.28 348.448V355H239.408L238.886 353.668H238.814C238.538 354.016 238.25 354.304 237.95 354.532C237.662 354.76 237.326 354.922 236.942 355.018C236.57 355.126 236.108 355.18 235.556 355.18C234.98 355.18 234.458 355.072 233.99 354.856C233.534 354.628 233.174 354.286 232.91 353.83C232.646 353.362 232.514 352.774 232.514 352.066C232.514 351.022 232.88 350.254 233.612 349.762C234.344 349.258 235.442 348.982 236.906 348.934L238.616 348.88V348.448C238.616 347.932 238.478 347.554 238.202 347.314C237.938 347.074 237.566 346.954 237.086 346.954C236.606 346.954 236.138 347.026 235.682 347.17C235.226 347.302 234.77 347.47 234.314 347.674L233.432 345.856C233.96 345.58 234.542 345.364 235.178 345.208C235.826 345.052 236.498 344.974 237.194 344.974ZM237.572 350.482C236.708 350.506 236.108 350.662 235.772 350.95C235.436 351.238 235.268 351.616 235.268 352.084C235.268 352.492 235.388 352.786 235.628 352.966C235.868 353.134 236.18 353.218 236.564 353.218C237.14 353.218 237.626 353.05 238.022 352.714C238.418 352.366 238.616 351.88 238.616 351.256V350.446L237.572 350.482ZM250.469 345.172H253.421L249.533 349.888L253.763 355H250.721L246.707 350.014V355H244.025V345.172H246.707V349.942L250.469 345.172ZM131 363.172H133.934L135.788 368.698C135.848 368.878 135.896 369.058 135.932 369.238C135.98 369.418 136.016 369.604 136.04 369.796C136.076 369.988 136.1 370.192 136.112 370.408H136.166C136.202 370.096 136.25 369.802 136.31 369.526C136.382 369.238 136.46 368.962 136.544 368.698L138.362 363.172H141.242L137.084 374.26C136.832 374.932 136.502 375.496 136.094 375.952C135.698 376.408 135.236 376.75 134.708 376.978C134.18 377.206 133.604 377.32 132.98 377.32C132.68 377.32 132.416 377.302 132.188 377.266C131.972 377.242 131.78 377.212 131.612 377.176V375.052C131.744 375.076 131.9 375.1 132.08 375.124C132.272 375.148 132.47 375.16 132.674 375.16C133.046 375.16 133.364 375.082 133.628 374.926C133.904 374.77 134.132 374.554 134.312 374.278C134.492 374.014 134.636 373.726 134.744 373.414L134.906 372.928L131 363.172ZM151.102 373H148.42V365.188H145.954C145.834 366.628 145.684 367.858 145.504 368.878C145.336 369.886 145.12 370.708 144.856 371.344C144.604 371.98 144.28 372.448 143.884 372.748C143.488 373.036 143.002 373.18 142.426 373.18C142.114 373.18 141.832 373.156 141.58 373.108C141.328 373.06 141.1 372.988 140.896 372.892V370.75C141.028 370.798 141.166 370.84 141.31 370.876C141.454 370.912 141.604 370.93 141.76 370.93C141.928 370.93 142.084 370.864 142.228 370.732C142.384 370.6 142.528 370.366 142.66 370.03C142.804 369.694 142.936 369.232 143.056 368.644C143.176 368.056 143.284 367.318 143.38 366.43C143.488 365.53 143.584 364.444 143.668 363.172H151.102V373ZM152.498 363.172H155.432L157.286 368.698C157.346 368.878 157.394 369.058 157.43 369.238C157.478 369.418 157.514 369.604 157.538 369.796C157.574 369.988 157.598 370.192 157.61 370.408H157.664C157.7 370.096 157.748 369.802 157.808 369.526C157.88 369.238 157.958 368.962 158.042 368.698L159.86 363.172H162.74L158.582 374.26C158.33 374.932 158 375.496 157.592 375.952C157.196 376.408 156.734 376.75 156.206 376.978C155.678 377.206 155.102 377.32 154.478 377.32C154.178 377.32 153.914 377.302 153.686 377.266C153.47 377.242 153.278 377.212 153.11 377.176V375.052C153.242 375.076 153.398 375.1 153.578 375.124C153.77 375.148 153.968 375.16 154.172 375.16C154.544 375.16 154.862 375.082 155.126 374.926C155.402 374.77 155.63 374.554 155.81 374.278C155.99 374.014 156.134 373.726 156.242 373.414L156.404 372.928L152.498 363.172ZM166.508 366.772C166.508 367.192 166.61 367.51 166.814 367.726C167.03 367.942 167.324 368.05 167.696 368.05C168.212 368.05 168.692 367.996 169.136 367.888C169.58 367.768 170.024 367.612 170.468 367.42V363.172H173.15V373H170.468V369.094C170.048 369.322 169.568 369.532 169.028 369.724C168.488 369.904 167.876 369.994 167.192 369.994C166.172 369.994 165.356 369.73 164.744 369.202C164.132 368.674 163.826 367.882 163.826 366.826V363.172H166.508V366.772ZM190.597 363.172V373H175.963V363.172H178.645V370.984H181.939V363.172H184.621V370.984H187.915V363.172H190.597ZM195.992 367.06C195.992 367.264 195.98 367.516 195.956 367.816C195.944 368.116 195.926 368.422 195.902 368.734C195.89 369.046 195.872 369.322 195.848 369.562C195.824 369.802 195.806 369.97 195.794 370.066L200.33 363.172H203.552V373H200.96V369.076C200.96 368.752 200.972 368.398 200.996 368.014C201.02 367.618 201.044 367.252 201.068 366.916C201.104 366.568 201.128 366.304 201.14 366.124L196.622 373H193.4V363.172H195.992V367.06ZM214.491 365.188H211.269V373H208.587V365.188H205.365V363.172H214.491V365.188ZM220.876 366.97C221.884 366.97 222.718 367.078 223.378 367.294C224.038 367.498 224.524 367.816 224.836 368.248C225.16 368.68 225.322 369.22 225.322 369.868C225.322 370.504 225.172 371.056 224.872 371.524C224.584 371.992 224.122 372.358 223.486 372.622C222.85 372.874 222.016 373 220.984 373H216.304V363.172H218.986V366.97H220.876ZM222.64 369.904C222.64 369.52 222.484 369.244 222.172 369.076C221.872 368.908 221.422 368.824 220.822 368.824H218.986V371.146H220.858C221.386 371.146 221.812 371.05 222.136 370.858C222.472 370.666 222.64 370.348 222.64 369.904ZM141.332 381.172V391H138.65V383.188H135.086V391H132.404V381.172H141.332ZM149.618 380.992C150.722 380.992 151.616 381.424 152.3 382.288C152.984 383.14 153.326 384.4 153.326 386.068C153.326 387.184 153.164 388.126 152.84 388.894C152.516 389.65 152.072 390.22 151.508 390.604C150.944 390.988 150.29 391.18 149.546 391.18C149.078 391.18 148.67 391.12 148.322 391C147.986 390.88 147.698 390.724 147.458 390.532C147.218 390.34 147.008 390.136 146.828 389.92H146.684C146.732 390.148 146.768 390.388 146.792 390.64C146.816 390.88 146.828 391.12 146.828 391.36V395.32H144.146V381.172H146.324L146.702 382.45H146.828C147.008 382.186 147.224 381.946 147.476 381.73C147.728 381.502 148.028 381.322 148.376 381.19C148.736 381.058 149.15 380.992 149.618 380.992ZM148.754 383.134C148.286 383.134 147.914 383.23 147.638 383.422C147.362 383.614 147.158 383.908 147.026 384.304C146.906 384.688 146.84 385.174 146.828 385.762V386.05C146.828 386.686 146.888 387.226 147.008 387.67C147.128 388.102 147.332 388.432 147.62 388.66C147.908 388.888 148.298 389.002 148.79 389.002C149.198 389.002 149.534 388.888 149.798 388.66C150.062 388.432 150.26 388.096 150.392 387.652C150.524 387.208 150.59 386.668 150.59 386.032C150.59 385.072 150.44 384.352 150.14 383.872C149.852 383.38 149.39 383.134 148.754 383.134ZM164.465 386.068C164.465 386.884 164.351 387.61 164.123 388.246C163.907 388.882 163.589 389.422 163.169 389.866C162.761 390.298 162.263 390.628 161.675 390.856C161.087 391.072 160.421 391.18 159.677 391.18C158.993 391.18 158.357 391.072 157.769 390.856C157.193 390.628 156.695 390.298 156.275 389.866C155.855 389.422 155.525 388.882 155.285 388.246C155.057 387.61 154.943 386.884 154.943 386.068C154.943 384.976 155.135 384.058 155.519 383.314C155.903 382.558 156.455 381.982 157.175 381.586C157.895 381.19 158.747 380.992 159.731 380.992C160.655 380.992 161.471 381.19 162.179 381.586C162.887 381.982 163.445 382.558 163.853 383.314C164.261 384.058 164.465 384.976 164.465 386.068ZM157.679 386.068C157.679 386.716 157.745 387.262 157.877 387.706C158.021 388.138 158.243 388.468 158.543 388.696C158.843 388.912 159.233 389.02 159.713 389.02C160.193 389.02 160.577 388.912 160.865 388.696C161.165 388.468 161.381 388.138 161.513 387.706C161.657 387.262 161.729 386.716 161.729 386.068C161.729 385.42 161.657 384.88 161.513 384.448C161.381 384.016 161.165 383.692 160.865 383.476C160.565 383.26 160.175 383.152 159.695 383.152C158.987 383.152 158.471 383.398 158.147 383.89C157.835 384.37 157.679 385.096 157.679 386.068ZM177.409 394.528H174.997V391H166.681V381.172H169.363V388.984H173.287V381.172H175.969V389.038H177.409V394.528ZM183.124 380.992C184.036 380.992 184.816 381.166 185.464 381.514C186.124 381.862 186.634 382.366 186.994 383.026C187.354 383.686 187.534 384.496 187.534 385.456V386.752H181.198C181.222 387.508 181.444 388.102 181.864 388.534C182.296 388.966 182.89 389.182 183.646 389.182C184.282 389.182 184.858 389.122 185.374 389.002C185.89 388.87 186.424 388.672 186.976 388.408V390.478C186.496 390.718 185.986 390.892 185.446 391C184.918 391.12 184.276 391.18 183.52 391.18C182.536 391.18 181.666 391 180.91 390.64C180.154 390.268 179.56 389.71 179.128 388.966C178.696 388.222 178.48 387.286 178.48 386.158C178.48 385.006 178.672 384.052 179.056 383.296C179.452 382.528 179.998 381.952 180.694 381.568C181.39 381.184 182.2 380.992 183.124 380.992ZM183.142 382.9C182.626 382.9 182.194 383.068 181.846 383.404C181.51 383.74 181.312 384.262 181.252 384.97H185.014C185.014 384.574 184.942 384.22 184.798 383.908C184.666 383.596 184.462 383.35 184.186 383.17C183.91 382.99 183.562 382.9 183.142 382.9ZM193.705 391.18C192.733 391.18 191.905 391.006 191.221 390.658C190.537 390.298 190.015 389.746 189.655 389.002C189.295 388.258 189.115 387.304 189.115 386.14C189.115 384.94 189.319 383.962 189.727 383.206C190.135 382.45 190.699 381.892 191.419 381.532C192.151 381.172 192.991 380.992 193.939 380.992C194.611 380.992 195.193 381.058 195.685 381.19C196.189 381.322 196.627 381.478 196.999 381.658L196.207 383.728C195.787 383.56 195.391 383.422 195.019 383.314C194.659 383.206 194.299 383.152 193.939 383.152C193.471 383.152 193.081 383.266 192.769 383.494C192.457 383.71 192.223 384.04 192.067 384.484C191.923 384.916 191.851 385.462 191.851 386.122C191.851 386.77 191.929 387.31 192.085 387.742C192.253 388.162 192.493 388.48 192.805 388.696C193.117 388.9 193.495 389.002 193.939 389.002C194.503 389.002 195.001 388.93 195.433 388.786C195.865 388.63 196.285 388.42 196.693 388.156V390.442C196.285 390.706 195.853 390.892 195.397 391C194.953 391.12 194.389 391.18 193.705 391.18ZM202.951 391.18C201.979 391.18 201.151 391.006 200.467 390.658C199.783 390.298 199.261 389.746 198.901 389.002C198.541 388.258 198.361 387.304 198.361 386.14C198.361 384.94 198.565 383.962 198.973 383.206C199.381 382.45 199.945 381.892 200.665 381.532C201.397 381.172 202.237 380.992 203.185 380.992C203.857 380.992 204.439 381.058 204.931 381.19C205.435 381.322 205.873 381.478 206.245 381.658L205.453 383.728C205.033 383.56 204.637 383.422 204.265 383.314C203.905 383.206 203.545 383.152 203.185 383.152C202.717 383.152 202.327 383.266 202.015 383.494C201.703 383.71 201.469 384.04 201.313 384.484C201.169 384.916 201.097 385.462 201.097 386.122C201.097 386.77 201.175 387.31 201.331 387.742C201.499 388.162 201.739 388.48 202.051 388.696C202.363 388.9 202.741 389.002 203.185 389.002C203.749 389.002 204.247 388.93 204.679 388.786C205.111 388.63 205.531 388.42 205.939 388.156V390.442C205.531 390.706 205.099 390.892 204.643 391C204.199 391.12 203.635 391.18 202.951 391.18ZM208.201 391V381.172H210.883V384.97H212.179C213.187 384.97 214.015 385.078 214.663 385.294C215.311 385.498 215.791 385.816 216.103 386.248C216.427 386.68 216.589 387.22 216.589 387.868C216.589 388.504 216.439 389.056 216.139 389.524C215.851 389.992 215.389 390.358 214.753 390.622C214.129 390.874 213.301 391 212.269 391H208.201ZM212.125 389.146C212.653 389.146 213.079 389.05 213.403 388.858C213.739 388.666 213.907 388.348 213.907 387.904C213.907 387.52 213.751 387.244 213.439 387.076C213.139 386.908 212.689 386.824 212.089 386.824H210.883V389.146H212.125ZM218.011 391V381.172H220.693V391H218.011ZM229.271 390.892C228.803 390.892 228.419 390.742 228.119 390.442C227.819 390.142 227.669 389.758 227.669 389.29C227.669 388.834 227.819 388.45 228.119 388.138C228.419 387.814 228.803 387.652 229.271 387.652C229.727 387.652 230.111 387.814 230.423 388.138C230.747 388.45 230.909 388.834 230.909 389.29C230.909 389.758 230.747 390.142 230.423 390.442C230.111 390.742 229.727 390.892 229.271 390.892ZM229.271 385.222C228.803 385.222 228.419 385.072 228.119 384.772C227.819 384.472 227.669 384.088 227.669 383.62C227.669 383.164 227.819 382.78 228.119 382.468C228.419 382.144 228.803 381.982 229.271 381.982C229.727 381.982 230.111 382.144 230.423 382.468C230.747 382.78 230.909 383.164 230.909 383.62C230.909 384.088 230.747 384.472 230.423 384.772C230.111 385.072 229.727 385.222 229.271 385.222ZM234.439 393.16H231.811C233.155 390.352 233.827 387.622 233.827 384.97C233.827 382.318 233.155 379.588 231.811 376.78H234.439C235.975 379.588 236.743 382.318 236.743 384.97C236.743 387.622 235.975 390.352 234.439 393.16Z" fill="#AD3B65"/>
<path d="M25.9705 194.354L24.5842 192.274L25.9705 194.354ZM9.99759 204.998L38.8056 203.146L22.7979 179.123L9.99759 204.998ZM174.424 298.111C196.408 210.899 99.4295 142.4 24.5842 192.274L27.3568 196.434C98.3954 149.097 190.441 214.113 169.576 296.889L174.424 298.111Z" fill="#AD3B65"/>
</svg>
