<svg width="337" height="371" viewBox="0 0 337 371" fill="none" xmlns="http://www.w3.org/2000/svg">
<path d="M125.86 310.236C125.284 310.236 124.714 310.32 124.15 310.488C123.586 310.644 123.034 310.836 122.494 311.064L121.63 308.868C122.266 308.592 122.938 308.376 123.646 308.22C124.354 308.052 125.11 307.968 125.914 307.968C126.862 307.968 127.702 308.118 128.434 308.418C129.178 308.706 129.802 309.138 130.306 309.714C130.822 310.278 131.212 310.974 131.476 311.802C131.752 312.618 131.89 313.548 131.89 314.592C131.89 315.912 131.668 317.07 131.224 318.066C130.78 319.05 130.096 319.818 129.172 320.37C128.26 320.91 127.09 321.18 125.662 321.18C124.93 321.18 124.264 321.126 123.664 321.018C123.076 320.91 122.476 320.742 121.864 320.514V318.228C122.548 318.444 123.178 318.612 123.754 318.732C124.342 318.852 124.924 318.912 125.5 318.912C126.052 318.912 126.538 318.846 126.958 318.714C127.39 318.57 127.75 318.366 128.038 318.102C128.338 317.826 128.572 317.484 128.74 317.076C128.908 316.656 129.004 316.176 129.028 315.636H123.448V313.404H129.01C128.998 312.9 128.914 312.456 128.758 312.072C128.602 311.676 128.386 311.346 128.11 311.082C127.834 310.806 127.504 310.596 127.12 310.452C126.748 310.308 126.328 310.236 125.86 310.236ZM142.476 313.188H139.254V321H136.572V313.188H133.35V311.172H142.476V313.188ZM153.041 316.068C153.041 316.884 152.927 317.61 152.699 318.246C152.483 318.882 152.165 319.422 151.745 319.866C151.337 320.298 150.839 320.628 150.251 320.856C149.663 321.072 148.997 321.18 148.253 321.18C147.569 321.18 146.933 321.072 146.345 320.856C145.769 320.628 145.271 320.298 144.851 319.866C144.431 319.422 144.101 318.882 143.861 318.246C143.633 317.61 143.519 316.884 143.519 316.068C143.519 314.976 143.711 314.058 144.095 313.314C144.479 312.558 145.031 311.982 145.751 311.586C146.471 311.19 147.323 310.992 148.307 310.992C149.231 310.992 150.047 311.19 150.755 311.586C151.463 311.982 152.021 312.558 152.429 313.314C152.837 314.058 153.041 314.976 153.041 316.068ZM146.255 316.068C146.255 316.716 146.321 317.262 146.453 317.706C146.597 318.138 146.819 318.468 147.119 318.696C147.419 318.912 147.809 319.02 148.289 319.02C148.769 319.02 149.153 318.912 149.441 318.696C149.741 318.468 149.957 318.138 150.089 317.706C150.233 317.262 150.305 316.716 150.305 316.068C150.305 315.42 150.233 314.88 150.089 314.448C149.957 314.016 149.741 313.692 149.441 313.476C149.141 313.26 148.751 313.152 148.271 313.152C147.563 313.152 147.047 313.398 146.723 313.89C146.411 314.37 146.255 315.096 146.255 316.068ZM160.531 321H157.633L160.279 317.112C159.943 316.968 159.625 316.776 159.325 316.536C159.037 316.284 158.803 315.966 158.623 315.582C158.443 315.198 158.353 314.742 158.353 314.214C158.353 313.23 158.725 312.48 159.469 311.964C160.213 311.436 161.167 311.172 162.331 311.172H166.903V321H164.221V317.346H162.745L160.531 321ZM160.981 314.232C160.981 314.64 161.143 314.964 161.467 315.204C161.791 315.432 162.211 315.546 162.727 315.546H164.221V313.062H162.385C161.905 313.062 161.551 313.182 161.323 313.422C161.095 313.65 160.981 313.92 160.981 314.232ZM169.203 322.71C169.431 322.362 169.617 322.068 169.761 321.828C169.917 321.588 170.037 321.36 170.121 321.144C170.217 320.94 170.283 320.712 170.319 320.46C170.355 320.196 170.373 319.878 170.373 319.506L172.461 319.326C172.461 319.83 172.377 320.31 172.209 320.766C172.053 321.222 171.837 321.672 171.561 322.116C171.297 322.56 171.003 323.028 170.679 323.52L169.203 322.71ZM170.823 320.928C170.355 320.928 169.971 320.778 169.671 320.478C169.371 320.178 169.221 319.794 169.221 319.326C169.221 318.87 169.371 318.486 169.671 318.174C169.971 317.85 170.355 317.688 170.823 317.688C171.279 317.688 171.663 317.85 171.975 318.174C172.299 318.486 172.461 318.87 172.461 319.326C172.461 319.794 172.299 320.178 171.975 320.478C171.663 320.778 171.279 320.928 170.823 320.928ZM126.4 339.18C125.428 339.18 124.6 339.006 123.916 338.658C123.232 338.298 122.71 337.746 122.35 337.002C121.99 336.258 121.81 335.304 121.81 334.14C121.81 332.94 122.014 331.962 122.422 331.206C122.83 330.45 123.394 329.892 124.114 329.532C124.846 329.172 125.686 328.992 126.634 328.992C127.306 328.992 127.888 329.058 128.38 329.19C128.884 329.322 129.322 329.478 129.694 329.658L128.902 331.728C128.482 331.56 128.086 331.422 127.714 331.314C127.354 331.206 126.994 331.152 126.634 331.152C126.166 331.152 125.776 331.266 125.464 331.494C125.152 331.71 124.918 332.04 124.762 332.484C124.618 332.916 124.546 333.462 124.546 334.122C124.546 334.77 124.624 335.31 124.78 335.742C124.948 336.162 125.188 336.48 125.5 336.696C125.812 336.9 126.19 337.002 126.634 337.002C127.198 337.002 127.696 336.93 128.128 336.786C128.56 336.63 128.98 336.42 129.388 336.156V338.442C128.98 338.706 128.548 338.892 128.092 339C127.648 339.12 127.084 339.18 126.4 339.18ZM134.008 332.772C134.008 333.192 134.11 333.51 134.314 333.726C134.53 333.942 134.824 334.05 135.196 334.05C135.712 334.05 136.192 333.996 136.636 333.888C137.08 333.768 137.524 333.612 137.968 333.42V329.172H140.65V339H137.968V335.094C137.548 335.322 137.068 335.532 136.528 335.724C135.988 335.904 135.376 335.994 134.692 335.994C133.672 335.994 132.856 335.73 132.244 335.202C131.632 334.674 131.326 333.882 131.326 332.826V329.172H134.008V332.772ZM147.495 328.974C148.815 328.974 149.823 329.262 150.519 329.838C151.227 330.402 151.581 331.272 151.581 332.448V339H149.709L149.187 337.668H149.115C148.839 338.016 148.551 338.304 148.251 338.532C147.963 338.76 147.627 338.922 147.243 339.018C146.871 339.126 146.409 339.18 145.857 339.18C145.281 339.18 144.759 339.072 144.291 338.856C143.835 338.628 143.475 338.286 143.211 337.83C142.947 337.362 142.815 336.774 142.815 336.066C142.815 335.022 143.181 334.254 143.913 333.762C144.645 333.258 145.743 332.982 147.207 332.934L148.917 332.88V332.448C148.917 331.932 148.779 331.554 148.503 331.314C148.239 331.074 147.867 330.954 147.387 330.954C146.907 330.954 146.439 331.026 145.983 331.17C145.527 331.302 145.071 331.47 144.615 331.674L143.733 329.856C144.261 329.58 144.843 329.364 145.479 329.208C146.127 329.052 146.799 328.974 147.495 328.974ZM147.873 334.482C147.009 334.506 146.409 334.662 146.073 334.95C145.737 335.238 145.569 335.616 145.569 336.084C145.569 336.492 145.689 336.786 145.929 336.966C146.169 337.134 146.481 337.218 146.865 337.218C147.441 337.218 147.927 337.05 148.323 336.714C148.719 336.366 148.917 335.88 148.917 335.256V334.446L147.873 334.482ZM158.322 339.18C157.35 339.18 156.522 339.006 155.838 338.658C155.154 338.298 154.632 337.746 154.272 337.002C153.912 336.258 153.732 335.304 153.732 334.14C153.732 332.94 153.936 331.962 154.344 331.206C154.752 330.45 155.316 329.892 156.036 329.532C156.768 329.172 157.608 328.992 158.556 328.992C159.228 328.992 159.81 329.058 160.302 329.19C160.806 329.322 161.244 329.478 161.616 329.658L160.824 331.728C160.404 331.56 160.008 331.422 159.636 331.314C159.276 331.206 158.916 331.152 158.556 331.152C158.088 331.152 157.698 331.266 157.386 331.494C157.074 331.71 156.84 332.04 156.684 332.484C156.54 332.916 156.468 333.462 156.468 334.122C156.468 334.77 156.546 335.31 156.702 335.742C156.87 336.162 157.11 336.48 157.422 336.696C157.734 336.9 158.112 337.002 158.556 337.002C159.12 337.002 159.618 336.93 160.05 336.786C160.482 336.63 160.902 336.42 161.31 336.156V338.442C160.902 338.706 160.47 338.892 160.014 339C159.57 339.12 159.006 339.18 158.322 339.18ZM171.708 331.188H168.486V339H165.804V331.188H162.582V329.172H171.708V331.188ZM181.778 339H179.096V331.188H176.63C176.51 332.628 176.36 333.858 176.18 334.878C176.012 335.886 175.796 336.708 175.532 337.344C175.28 337.98 174.956 338.448 174.56 338.748C174.164 339.036 173.678 339.18 173.102 339.18C172.79 339.18 172.508 339.156 172.256 339.108C172.004 339.06 171.776 338.988 171.572 338.892V336.75C171.704 336.798 171.842 336.84 171.986 336.876C172.13 336.912 172.28 336.93 172.436 336.93C172.604 336.93 172.76 336.864 172.904 336.732C173.06 336.6 173.204 336.366 173.336 336.03C173.48 335.694 173.612 335.232 173.732 334.644C173.852 334.056 173.96 333.318 174.056 332.43C174.164 331.53 174.26 330.444 174.344 329.172H181.778V339ZM187.17 333.06C187.17 333.264 187.158 333.516 187.134 333.816C187.122 334.116 187.104 334.422 187.08 334.734C187.068 335.046 187.05 335.322 187.026 335.562C187.002 335.802 186.984 335.97 186.972 336.066L191.508 329.172H194.73V339H192.138V335.076C192.138 334.752 192.15 334.398 192.174 334.014C192.198 333.618 192.222 333.252 192.246 332.916C192.282 332.568 192.306 332.304 192.318 332.124L187.8 339H184.578V329.172H187.17V333.06ZM206.245 331.746C206.245 332.274 206.077 332.724 205.741 333.096C205.417 333.468 204.931 333.708 204.283 333.816V333.888C204.967 333.972 205.513 334.206 205.921 334.59C206.341 334.974 206.551 335.466 206.551 336.066C206.551 336.486 206.467 336.876 206.299 337.236C206.143 337.596 205.891 337.908 205.543 338.172C205.195 338.436 204.745 338.64 204.193 338.784C203.653 338.928 202.993 339 202.213 339H197.533V329.172H202.213C202.981 329.172 203.665 329.256 204.265 329.424C204.877 329.58 205.357 329.844 205.705 330.216C206.065 330.588 206.245 331.098 206.245 331.746ZM203.779 335.922C203.779 335.538 203.629 335.262 203.329 335.094C203.029 334.914 202.579 334.824 201.979 334.824H200.215V337.146H202.033C202.537 337.146 202.951 337.056 203.275 336.876C203.611 336.684 203.779 336.366 203.779 335.922ZM203.527 331.962C203.527 331.65 203.407 331.422 203.167 331.278C202.927 331.134 202.573 331.062 202.105 331.062H200.215V333.006H201.799C202.363 333.006 202.789 332.928 203.077 332.772C203.377 332.604 203.527 332.334 203.527 331.962ZM212.885 328.974C214.205 328.974 215.213 329.262 215.909 329.838C216.617 330.402 216.971 331.272 216.971 332.448V339H215.099L214.577 337.668H214.505C214.229 338.016 213.941 338.304 213.641 338.532C213.353 338.76 213.017 338.922 212.633 339.018C212.261 339.126 211.799 339.18 211.247 339.18C210.671 339.18 210.149 339.072 209.681 338.856C209.225 338.628 208.865 338.286 208.601 337.83C208.337 337.362 208.205 336.774 208.205 336.066C208.205 335.022 208.571 334.254 209.303 333.762C210.035 333.258 211.133 332.982 212.597 332.934L214.307 332.88V332.448C214.307 331.932 214.169 331.554 213.893 331.314C213.629 331.074 213.257 330.954 212.777 330.954C212.297 330.954 211.829 331.026 211.373 331.17C210.917 331.302 210.461 331.47 210.005 331.674L209.123 329.856C209.651 329.58 210.233 329.364 210.869 329.208C211.517 329.052 212.189 328.974 212.885 328.974ZM213.263 334.482C212.399 334.506 211.799 334.662 211.463 334.95C211.127 335.238 210.959 335.616 210.959 336.084C210.959 336.492 211.079 336.786 211.319 336.966C211.559 337.134 211.871 337.218 212.255 337.218C212.831 337.218 213.317 337.05 213.713 336.714C214.109 336.366 214.307 335.88 214.307 335.256V334.446L213.263 334.482ZM221.211 339H218.312L220.958 335.112C220.623 334.968 220.305 334.776 220.005 334.536C219.717 334.284 219.483 333.966 219.303 333.582C219.123 333.198 219.033 332.742 219.033 332.214C219.033 331.23 219.405 330.48 220.149 329.964C220.893 329.436 221.847 329.172 223.011 329.172H227.583V339H224.901V335.346H223.425L221.211 339ZM221.661 332.232C221.661 332.64 221.823 332.964 222.147 333.204C222.471 333.432 222.891 333.546 223.407 333.546H224.901V331.062H223.064C222.585 331.062 222.231 331.182 222.003 331.422C221.775 331.65 221.661 331.92 221.661 332.232ZM236.758 333.06C236.758 333.264 236.746 333.516 236.722 333.816C236.71 334.116 236.692 334.422 236.668 334.734C236.656 335.046 236.638 335.322 236.614 335.562C236.59 335.802 236.572 335.97 236.56 336.066L241.096 329.172H244.318V339H241.726V335.076C241.726 334.752 241.738 334.398 241.762 334.014C241.786 333.618 241.81 333.252 241.834 332.916C241.87 332.568 241.894 332.304 241.906 332.124L237.388 339H234.166V329.172H236.758V333.06ZM250.703 328.992C251.411 328.992 252.071 329.088 252.683 329.28C253.307 329.46 253.805 329.742 254.177 330.126C254.561 330.51 254.753 331.002 254.753 331.602C254.753 332.19 254.573 332.658 254.213 333.006C253.865 333.354 253.391 333.606 252.791 333.762V333.852C253.211 333.948 253.589 334.086 253.925 334.266C254.261 334.434 254.525 334.668 254.717 334.968C254.921 335.256 255.023 335.646 255.023 336.138C255.023 336.678 254.849 337.182 254.501 337.65C254.165 338.106 253.637 338.478 252.917 338.766C252.209 339.042 251.297 339.18 250.181 339.18C249.653 339.18 249.155 339.156 248.687 339.108C248.219 339.06 247.793 338.994 247.409 338.91C247.025 338.814 246.689 338.7 246.401 338.568V336.354C246.809 336.546 247.307 336.72 247.895 336.876C248.495 337.032 249.131 337.11 249.803 337.11C250.295 337.11 250.733 337.074 251.117 337.002C251.513 336.93 251.825 336.81 252.053 336.642C252.293 336.474 252.413 336.252 252.413 335.976C252.413 335.712 252.311 335.496 252.107 335.328C251.903 335.148 251.597 335.016 251.189 334.932C250.781 334.848 250.259 334.806 249.623 334.806H248.579V332.952H249.569C250.457 332.952 251.141 332.88 251.621 332.736C252.113 332.592 252.359 332.322 252.359 331.926C252.359 331.614 252.203 331.38 251.891 331.224C251.579 331.056 251.069 330.972 250.361 330.972C249.893 330.972 249.383 331.026 248.831 331.134C248.279 331.242 247.757 331.398 247.265 331.602L246.473 329.73C247.037 329.514 247.655 329.34 248.327 329.208C248.999 329.064 249.791 328.992 250.703 328.992ZM255.701 329.172H258.635L260.489 334.698C260.549 334.878 260.597 335.058 260.633 335.238C260.681 335.418 260.717 335.604 260.741 335.796C260.777 335.988 260.801 336.192 260.813 336.408H260.867C260.903 336.096 260.951 335.802 261.011 335.526C261.083 335.238 261.161 334.962 261.245 334.698L263.063 329.172H265.943L261.785 340.26C261.533 340.932 261.203 341.496 260.795 341.952C260.399 342.408 259.937 342.75 259.409 342.978C258.881 343.206 258.305 343.32 257.681 343.32C257.381 343.32 257.117 343.302 256.889 343.266C256.673 343.242 256.481 343.212 256.313 343.176V341.052C256.445 341.076 256.601 341.1 256.781 341.124C256.973 341.148 257.171 341.16 257.375 341.16C257.747 341.16 258.065 341.082 258.329 340.926C258.605 340.77 258.833 340.554 259.013 340.278C259.193 340.014 259.337 339.726 259.445 339.414L259.607 338.928L255.701 329.172ZM269.711 332.772C269.711 333.192 269.813 333.51 270.017 333.726C270.233 333.942 270.527 334.05 270.899 334.05C271.415 334.05 271.895 333.996 272.339 333.888C272.783 333.768 273.227 333.612 273.671 333.42V329.172H276.353V339H273.671V335.094C273.251 335.322 272.771 335.532 272.231 335.724C271.691 335.904 271.079 335.994 270.395 335.994C269.375 335.994 268.559 335.73 267.947 335.202C267.335 334.674 267.029 333.882 267.029 332.826V329.172H269.711V332.772ZM283.198 328.974C284.518 328.974 285.526 329.262 286.222 329.838C286.93 330.402 287.284 331.272 287.284 332.448V339H285.412L284.89 337.668H284.818C284.542 338.016 284.254 338.304 283.954 338.532C283.666 338.76 283.33 338.922 282.946 339.018C282.574 339.126 282.112 339.18 281.56 339.18C280.984 339.18 280.462 339.072 279.994 338.856C279.538 338.628 279.178 338.286 278.914 337.83C278.65 337.362 278.518 336.774 278.518 336.066C278.518 335.022 278.884 334.254 279.616 333.762C280.348 333.258 281.446 332.982 282.91 332.934L284.62 332.88V332.448C284.62 331.932 284.482 331.554 284.206 331.314C283.942 331.074 283.57 330.954 283.09 330.954C282.61 330.954 282.142 331.026 281.686 331.17C281.23 331.302 280.774 331.47 280.318 331.674L279.436 329.856C279.964 329.58 280.546 329.364 281.182 329.208C281.83 329.052 282.502 328.974 283.198 328.974ZM283.576 334.482C282.712 334.506 282.112 334.662 281.776 334.95C281.44 335.238 281.272 335.616 281.272 336.084C281.272 336.492 281.392 336.786 281.632 336.966C281.872 337.134 282.184 337.218 282.568 337.218C283.144 337.218 283.63 337.05 284.026 336.714C284.422 336.366 284.62 335.88 284.62 335.256V334.446L283.576 334.482ZM303.601 334.068C303.601 335.16 303.415 336.09 303.043 336.858C302.671 337.614 302.137 338.19 301.441 338.586C300.757 338.982 299.941 339.18 298.993 339.18C298.189 339.18 297.463 339.03 296.815 338.73C296.179 338.418 295.657 337.95 295.249 337.326C294.853 336.702 294.595 335.91 294.475 334.95H292.711V339H290.029V329.172H292.711V332.952H294.511C294.631 332.1 294.889 331.38 295.285 330.792C295.693 330.204 296.215 329.76 296.851 329.46C297.499 329.148 298.231 328.992 299.047 328.992C299.935 328.992 300.721 329.19 301.405 329.586C302.089 329.982 302.623 330.558 303.007 331.314C303.403 332.058 303.601 332.976 303.601 334.068ZM297.175 334.068C297.175 334.716 297.235 335.262 297.355 335.706C297.487 336.138 297.691 336.468 297.967 336.696C298.243 336.912 298.597 337.02 299.029 337.02C299.461 337.02 299.809 336.912 300.073 336.696C300.349 336.468 300.547 336.138 300.667 335.706C300.799 335.262 300.865 334.716 300.865 334.068C300.865 333.42 300.799 332.88 300.667 332.448C300.547 332.016 300.349 331.692 300.073 331.476C299.809 331.26 299.455 331.152 299.011 331.152C298.579 331.152 298.225 331.26 297.949 331.476C297.685 331.692 297.487 332.016 297.355 332.448C297.235 332.88 297.175 333.42 297.175 334.068ZM131.332 352.068C131.332 352.884 131.218 353.61 130.99 354.246C130.774 354.882 130.456 355.422 130.036 355.866C129.628 356.298 129.13 356.628 128.542 356.856C127.954 357.072 127.288 357.18 126.544 357.18C125.86 357.18 125.224 357.072 124.636 356.856C124.06 356.628 123.562 356.298 123.142 355.866C122.722 355.422 122.392 354.882 122.152 354.246C121.924 353.61 121.81 352.884 121.81 352.068C121.81 350.976 122.002 350.058 122.386 349.314C122.77 348.558 123.322 347.982 124.042 347.586C124.762 347.19 125.614 346.992 126.598 346.992C127.522 346.992 128.338 347.19 129.046 347.586C129.754 347.982 130.312 348.558 130.72 349.314C131.128 350.058 131.332 350.976 131.332 352.068ZM124.546 352.068C124.546 352.716 124.612 353.262 124.744 353.706C124.888 354.138 125.11 354.468 125.41 354.696C125.71 354.912 126.1 355.02 126.58 355.02C127.06 355.02 127.444 354.912 127.732 354.696C128.032 354.468 128.248 354.138 128.38 353.706C128.524 353.262 128.596 352.716 128.596 352.068C128.596 351.42 128.524 350.88 128.38 350.448C128.248 350.016 128.032 349.692 127.732 349.476C127.432 349.26 127.042 349.152 126.562 349.152C125.854 349.152 125.338 349.398 125.014 349.89C124.702 350.37 124.546 351.096 124.546 352.068ZM142.477 347.172V357H139.795V349.188H136.231V357H133.549V347.172H142.477ZM149.341 346.992C150.253 346.992 151.033 347.166 151.681 347.514C152.341 347.862 152.851 348.366 153.211 349.026C153.571 349.686 153.751 350.496 153.751 351.456V352.752H147.415C147.439 353.508 147.661 354.102 148.081 354.534C148.513 354.966 149.107 355.182 149.863 355.182C150.499 355.182 151.075 355.122 151.591 355.002C152.107 354.87 152.641 354.672 153.193 354.408V356.478C152.713 356.718 152.203 356.892 151.663 357C151.135 357.12 150.493 357.18 149.737 357.18C148.753 357.18 147.883 357 147.127 356.64C146.371 356.268 145.777 355.71 145.345 354.966C144.913 354.222 144.697 353.286 144.697 352.158C144.697 351.006 144.889 350.052 145.273 349.296C145.669 348.528 146.215 347.952 146.911 347.568C147.607 347.184 148.417 346.992 149.341 346.992ZM149.359 348.9C148.843 348.9 148.411 349.068 148.063 349.404C147.727 349.74 147.529 350.262 147.469 350.97H151.231C151.231 350.574 151.159 350.22 151.015 349.908C150.883 349.596 150.679 349.35 150.403 349.17C150.127 348.99 149.779 348.9 149.359 348.9ZM161.397 346.992C162.501 346.992 163.395 347.424 164.079 348.288C164.763 349.14 165.105 350.4 165.105 352.068C165.105 353.184 164.943 354.126 164.619 354.894C164.295 355.65 163.851 356.22 163.287 356.604C162.723 356.988 162.069 357.18 161.325 357.18C160.857 357.18 160.449 357.12 160.101 357C159.765 356.88 159.477 356.724 159.237 356.532C158.997 356.34 158.787 356.136 158.607 355.92H158.463C158.511 356.148 158.547 356.388 158.571 356.64C158.595 356.88 158.607 357.12 158.607 357.36V361.32H155.925V347.172H158.103L158.481 348.45H158.607C158.787 348.186 159.003 347.946 159.255 347.73C159.507 347.502 159.807 347.322 160.155 347.19C160.515 347.058 160.929 346.992 161.397 346.992ZM160.533 349.134C160.065 349.134 159.693 349.23 159.417 349.422C159.141 349.614 158.937 349.908 158.805 350.304C158.685 350.688 158.619 351.174 158.607 351.762V352.05C158.607 352.686 158.667 353.226 158.787 353.67C158.907 354.102 159.111 354.432 159.399 354.66C159.687 354.888 160.077 355.002 160.569 355.002C160.977 355.002 161.313 354.888 161.577 354.66C161.841 354.432 162.039 354.096 162.171 353.652C162.303 353.208 162.369 352.668 162.369 352.032C162.369 351.072 162.219 350.352 161.919 349.872C161.631 349.38 161.169 349.134 160.533 349.134ZM171.348 346.974C172.668 346.974 173.676 347.262 174.372 347.838C175.08 348.402 175.434 349.272 175.434 350.448V357H173.562L173.04 355.668H172.968C172.692 356.016 172.404 356.304 172.104 356.532C171.816 356.76 171.48 356.922 171.096 357.018C170.724 357.126 170.262 357.18 169.71 357.18C169.134 357.18 168.612 357.072 168.144 356.856C167.688 356.628 167.328 356.286 167.064 355.83C166.8 355.362 166.668 354.774 166.668 354.066C166.668 353.022 167.034 352.254 167.766 351.762C168.498 351.258 169.596 350.982 171.06 350.934L172.77 350.88V350.448C172.77 349.932 172.632 349.554 172.356 349.314C172.092 349.074 171.72 348.954 171.24 348.954C170.76 348.954 170.292 349.026 169.836 349.17C169.38 349.302 168.924 349.47 168.468 349.674L167.586 347.856C168.114 347.58 168.696 347.364 169.332 347.208C169.98 347.052 170.652 346.974 171.348 346.974ZM171.726 352.482C170.862 352.506 170.262 352.662 169.926 352.95C169.59 353.238 169.422 353.616 169.422 354.084C169.422 354.492 169.542 354.786 169.782 354.966C170.022 355.134 170.334 355.218 170.718 355.218C171.294 355.218 171.78 355.05 172.176 354.714C172.572 354.366 172.77 353.88 172.77 353.256V352.446L171.726 352.482ZM188.907 360.528H186.495V357H178.179V347.172H180.861V354.984H184.785V347.172H187.467V355.038H188.907V360.528ZM193.164 351.06C193.164 351.264 193.152 351.516 193.128 351.816C193.116 352.116 193.098 352.422 193.074 352.734C193.062 353.046 193.044 353.322 193.02 353.562C192.996 353.802 192.978 353.97 192.966 354.066L197.502 347.172H200.724V357H198.132V353.076C198.132 352.752 198.144 352.398 198.168 352.014C198.192 351.618 198.216 351.252 198.24 350.916C198.276 350.568 198.3 350.304 198.312 350.124L193.794 357H190.572V347.172H193.164V351.06ZM206.119 351.06C206.119 351.264 206.107 351.516 206.083 351.816C206.071 352.116 206.053 352.422 206.029 352.734C206.017 353.046 205.999 353.322 205.975 353.562C205.951 353.802 205.933 353.97 205.921 354.066L210.457 347.172H213.679V357H211.087V353.076C211.087 352.752 211.099 352.398 211.123 352.014C211.147 351.618 211.171 351.252 211.195 350.916C211.231 350.568 211.255 350.304 211.267 350.124L206.749 357H203.527V347.172H206.119V351.06ZM222.943 347.172V350.952H226.687V347.172H229.369V357H226.687V352.95H222.943V357H220.261V347.172H222.943ZM236.211 346.974C237.531 346.974 238.539 347.262 239.235 347.838C239.943 348.402 240.297 349.272 240.297 350.448V357H238.425L237.903 355.668H237.831C237.555 356.016 237.267 356.304 236.967 356.532C236.679 356.76 236.343 356.922 235.959 357.018C235.587 357.126 235.125 357.18 234.573 357.18C233.997 357.18 233.475 357.072 233.007 356.856C232.551 356.628 232.191 356.286 231.927 355.83C231.663 355.362 231.531 354.774 231.531 354.066C231.531 353.022 231.897 352.254 232.629 351.762C233.361 351.258 234.459 350.982 235.923 350.934L237.633 350.88V350.448C237.633 349.932 237.495 349.554 237.219 349.314C236.955 349.074 236.583 348.954 236.103 348.954C235.623 348.954 235.155 349.026 234.699 349.17C234.243 349.302 233.787 349.47 233.331 349.674L232.449 347.856C232.977 347.58 233.559 347.364 234.195 347.208C234.843 347.052 235.515 346.974 236.211 346.974ZM236.589 352.482C235.725 352.506 235.125 352.662 234.789 352.95C234.453 353.238 234.285 353.616 234.285 354.084C234.285 354.492 234.405 354.786 234.645 354.966C234.885 355.134 235.197 355.218 235.581 355.218C236.157 355.218 236.643 355.05 237.039 354.714C237.435 354.366 237.633 353.88 237.633 353.256V352.446L236.589 352.482ZM250.818 357.18C249.846 357.18 249.018 357.006 248.334 356.658C247.65 356.298 247.128 355.746 246.768 355.002C246.408 354.258 246.228 353.304 246.228 352.14C246.228 350.94 246.432 349.962 246.84 349.206C247.248 348.45 247.812 347.892 248.532 347.532C249.264 347.172 250.104 346.992 251.052 346.992C251.724 346.992 252.306 347.058 252.798 347.19C253.302 347.322 253.74 347.478 254.112 347.658L253.32 349.728C252.9 349.56 252.504 349.422 252.132 349.314C251.772 349.206 251.412 349.152 251.052 349.152C250.584 349.152 250.194 349.266 249.882 349.494C249.57 349.71 249.336 350.04 249.18 350.484C249.036 350.916 248.964 351.462 248.964 352.122C248.964 352.77 249.042 353.31 249.198 353.742C249.366 354.162 249.606 354.48 249.918 354.696C250.23 354.9 250.608 355.002 251.052 355.002C251.616 355.002 252.114 354.93 252.546 354.786C252.978 354.63 253.398 354.42 253.806 354.156V356.442C253.398 356.706 252.966 356.892 252.51 357C252.066 357.12 251.502 357.18 250.818 357.18ZM262.512 347.172H265.464L261.576 351.888L265.806 357H262.764L258.75 352.014V357H256.068V347.172H258.75V351.942L262.512 347.172ZM276.015 357H273.333V349.188H270.867C270.747 350.628 270.597 351.858 270.417 352.878C270.249 353.886 270.033 354.708 269.769 355.344C269.517 355.98 269.193 356.448 268.797 356.748C268.401 357.036 267.915 357.18 267.339 357.18C267.027 357.18 266.745 357.156 266.493 357.108C266.241 357.06 266.013 356.988 265.809 356.892V354.75C265.941 354.798 266.079 354.84 266.223 354.876C266.367 354.912 266.517 354.93 266.673 354.93C266.841 354.93 266.997 354.864 267.141 354.732C267.297 354.6 267.441 354.366 267.573 354.03C267.717 353.694 267.849 353.232 267.969 352.644C268.089 352.056 268.197 351.318 268.293 350.43C268.401 349.53 268.497 348.444 268.581 347.172H276.015V357ZM282.846 346.974C284.166 346.974 285.174 347.262 285.87 347.838C286.578 348.402 286.932 349.272 286.932 350.448V357H285.06L284.538 355.668H284.466C284.19 356.016 283.902 356.304 283.602 356.532C283.314 356.76 282.978 356.922 282.594 357.018C282.222 357.126 281.76 357.18 281.208 357.18C280.632 357.18 280.11 357.072 279.642 356.856C279.186 356.628 278.826 356.286 278.562 355.83C278.298 355.362 278.166 354.774 278.166 354.066C278.166 353.022 278.532 352.254 279.264 351.762C279.996 351.258 281.094 350.982 282.558 350.934L284.268 350.88V350.448C284.268 349.932 284.13 349.554 283.854 349.314C283.59 349.074 283.218 348.954 282.738 348.954C282.258 348.954 281.79 349.026 281.334 349.17C280.878 349.302 280.422 349.47 279.966 349.674L279.084 347.856C279.612 347.58 280.194 347.364 280.83 347.208C281.478 347.052 282.15 346.974 282.846 346.974ZM283.224 352.482C282.36 352.506 281.76 352.662 281.424 352.95C281.088 353.238 280.92 353.616 280.92 354.084C280.92 354.492 281.04 354.786 281.28 354.966C281.52 355.134 281.832 355.218 282.216 355.218C282.792 355.218 283.278 355.05 283.674 354.714C284.07 354.366 284.268 353.88 284.268 353.256V352.446L283.224 352.482ZM298.515 347.172V355.038H299.955V360.528H297.543V357H290.937V360.528H288.525V355.038H289.353C289.785 354.378 290.151 353.628 290.451 352.788C290.751 351.936 290.991 351.03 291.171 350.07C291.351 349.11 291.483 348.144 291.567 347.172H298.515ZM293.817 349.188C293.721 349.908 293.601 350.61 293.457 351.294C293.313 351.966 293.133 352.614 292.917 353.238C292.713 353.862 292.461 354.462 292.161 355.038H295.833V349.188H293.817ZM305.681 346.992C306.593 346.992 307.373 347.166 308.021 347.514C308.681 347.862 309.191 348.366 309.551 349.026C309.911 349.686 310.091 350.496 310.091 351.456V352.752H303.755C303.779 353.508 304.001 354.102 304.421 354.534C304.853 354.966 305.447 355.182 306.203 355.182C306.839 355.182 307.415 355.122 307.931 355.002C308.447 354.87 308.981 354.672 309.533 354.408V356.478C309.053 356.718 308.543 356.892 308.003 357C307.475 357.12 306.833 357.18 306.077 357.18C305.093 357.18 304.223 357 303.467 356.64C302.711 356.268 302.117 355.71 301.685 354.966C301.253 354.222 301.037 353.286 301.037 352.158C301.037 351.006 301.229 350.052 301.613 349.296C302.009 348.528 302.555 347.952 303.251 347.568C303.947 347.184 304.757 346.992 305.681 346.992ZM305.699 348.9C305.183 348.9 304.751 349.068 304.403 349.404C304.067 349.74 303.869 350.262 303.809 350.97H307.571C307.571 350.574 307.499 350.22 307.355 349.908C307.223 349.596 307.019 349.35 306.743 349.17C306.467 348.99 306.119 348.9 305.699 348.9ZM318.043 356.892C317.575 356.892 317.191 356.742 316.891 356.442C316.591 356.142 316.441 355.758 316.441 355.29C316.441 354.834 316.591 354.45 316.891 354.138C317.191 353.814 317.575 353.652 318.043 353.652C318.499 353.652 318.883 353.814 319.195 354.138C319.519 354.45 319.681 354.834 319.681 355.29C319.681 355.758 319.519 356.142 319.195 356.442C318.883 356.742 318.499 356.892 318.043 356.892ZM318.043 351.222C317.575 351.222 317.191 351.072 316.891 350.772C316.591 350.472 316.441 350.088 316.441 349.62C316.441 349.164 316.591 348.78 316.891 348.468C317.191 348.144 317.575 347.982 318.043 347.982C318.499 347.982 318.883 348.144 319.195 348.468C319.519 348.78 319.681 349.164 319.681 349.62C319.681 350.088 319.519 350.472 319.195 350.772C318.883 351.072 318.499 351.222 318.043 351.222ZM323.21 359.16H320.582C321.926 356.352 322.598 353.622 322.598 350.97C322.598 348.318 321.926 345.588 320.582 342.78H323.21C324.746 345.588 325.514 348.318 325.514 350.97C325.514 353.622 324.746 356.352 323.21 359.16Z" fill="#AD3B65"/>
<path d="M194.883 251.225L192.404 250.9L194.883 251.225ZM45.9987 151.469L47.242 153.638L45.9987 151.469ZM28.5 161.5L57.3674 161.589L43.0106 136.545L28.5 161.5ZM190.104 306.907L197.362 251.55L192.404 250.9L185.146 306.257L190.104 306.907ZM197.362 251.55C208.388 167.456 118.337 107.119 44.7554 149.3L47.242 153.638C117.234 113.515 202.893 170.908 192.404 250.9L197.362 251.55Z" fill="#AD3B65"/>
</svg>
