<svg width="185" height="170" viewBox="0 0 185 170" fill="none" xmlns="http://www.w3.org/2000/svg">
<path d="M125.063 12.765L126.415 10.6626L126.415 10.6626L125.063 12.765ZM106 0.500002L119.214 26.1655L134.834 1.88887L106 0.500002ZM126.415 10.6626L126.274 10.572L123.569 14.7769L123.71 14.8675L126.415 10.6626ZM162.452 95.4858C168.988 62.4949 154.699 28.8605 126.415 10.6626L123.71 14.8675C150.267 31.9548 163.685 63.5366 157.548 94.5142L162.452 95.4858Z" fill="#AD3B65"/>
<rect y="89" width="182" height="81" rx="10" fill="#AD3B65" fill-opacity="0.6"/>
<path d="M9.05 102.03C8.57 102.03 8.095 102.1 7.625 102.24C7.155 102.37 6.695 102.53 6.245 102.72L5.525 100.89C6.055 100.66 6.615 100.48 7.205 100.35C7.795 100.21 8.425 100.14 9.095 100.14C9.885 100.14 10.585 100.265 11.195 100.515C11.815 100.755 12.335 101.115 12.755 101.595C13.185 102.065 13.51 102.645 13.73 103.335C13.96 104.015 14.075 104.79 14.075 105.66C14.075 106.76 13.89 107.725 13.52 108.555C13.15 109.375 12.58 110.015 11.81 110.475C11.05 110.925 10.075 111.15 8.885 111.15C8.275 111.15 7.72 111.105 7.22 111.015C6.73 110.925 6.23 110.785 5.72 110.595V108.69C6.29 108.87 6.815 109.01 7.295 109.11C7.785 109.21 8.27 109.26 8.75 109.26C9.21 109.26 9.615 109.205 9.965 109.095C10.325 108.975 10.625 108.805 10.865 108.585C11.115 108.355 11.31 108.07 11.45 107.73C11.59 107.38 11.67 106.98 11.69 106.53H7.04V104.67H11.675C11.665 104.25 11.595 103.88 11.465 103.56C11.335 103.23 11.155 102.955 10.925 102.735C10.695 102.505 10.42 102.33 10.1 102.21C9.79 102.09 9.44 102.03 9.05 102.03ZM22.8963 104.49H20.2113V111H17.9763V104.49H15.2913V102.81H22.8963V104.49ZM31.7008 106.89C31.7008 107.57 31.6058 108.175 31.4158 108.705C31.2358 109.235 30.9708 109.685 30.6208 110.055C30.2808 110.415 29.8658 110.69 29.3758 110.88C28.8858 111.06 28.3308 111.15 27.7108 111.15C27.1408 111.15 26.6108 111.06 26.1208 110.88C25.6408 110.69 25.2258 110.415 24.8758 110.055C24.5258 109.685 24.2508 109.235 24.0508 108.705C23.8608 108.175 23.7658 107.57 23.7658 106.89C23.7658 105.98 23.9258 105.215 24.2458 104.595C24.5658 103.965 25.0258 103.485 25.6258 103.155C26.2258 102.825 26.9358 102.66 27.7558 102.66C28.5258 102.66 29.2058 102.825 29.7958 103.155C30.3858 103.485 30.8508 103.965 31.1908 104.595C31.5308 105.215 31.7008 105.98 31.7008 106.89ZM26.0458 106.89C26.0458 107.43 26.1008 107.885 26.2108 108.255C26.3308 108.615 26.5158 108.89 26.7658 109.08C27.0158 109.26 27.3408 109.35 27.7408 109.35C28.1408 109.35 28.4608 109.26 28.7008 109.08C28.9508 108.89 29.1308 108.615 29.2408 108.255C29.3608 107.885 29.4208 107.43 29.4208 106.89C29.4208 106.35 29.3608 105.9 29.2408 105.54C29.1308 105.18 28.9508 104.91 28.7008 104.73C28.4508 104.55 28.1258 104.46 27.7258 104.46C27.1358 104.46 26.7058 104.665 26.4358 105.075C26.1758 105.475 26.0458 106.08 26.0458 106.89ZM37.9423 111H35.5273L37.7323 107.76C37.4523 107.64 37.1873 107.48 36.9373 107.28C36.6973 107.07 36.5023 106.805 36.3523 106.485C36.2023 106.165 36.1273 105.785 36.1273 105.345C36.1273 104.525 36.4373 103.9 37.0573 103.47C37.6773 103.03 38.4723 102.81 39.4423 102.81H43.2523V111H41.0173V107.955H39.7873L37.9423 111ZM38.3173 105.36C38.3173 105.7 38.4523 105.97 38.7223 106.17C38.9923 106.36 39.3423 106.455 39.7723 106.455H41.0173V104.385H39.4873C39.0873 104.385 38.7923 104.485 38.6023 104.685C38.4123 104.875 38.3173 105.1 38.3173 105.36ZM45.1689 112.425C45.3589 112.135 45.5139 111.89 45.6339 111.69C45.7639 111.49 45.8639 111.3 45.9339 111.12C46.0139 110.95 46.0689 110.76 46.0989 110.55C46.1289 110.33 46.1439 110.065 46.1439 109.755L47.8839 109.605C47.8839 110.025 47.8139 110.425 47.6739 110.805C47.5439 111.185 47.3639 111.56 47.1339 111.93C46.9139 112.3 46.6689 112.69 46.3989 113.1L45.1689 112.425ZM46.5189 110.94C46.1289 110.94 45.8089 110.815 45.5589 110.565C45.3089 110.315 45.1839 109.995 45.1839 109.605C45.1839 109.225 45.3089 108.905 45.5589 108.645C45.8089 108.375 46.1289 108.24 46.5189 108.24C46.8989 108.24 47.2189 108.375 47.4789 108.645C47.7489 108.905 47.8839 109.225 47.8839 109.605C47.8839 109.995 47.7489 110.315 47.4789 110.565C47.2189 110.815 46.8989 110.94 46.5189 110.94ZM9.5 126.15C8.69 126.15 8 126.005 7.43 125.715C6.86 125.415 6.425 124.955 6.125 124.335C5.825 123.715 5.675 122.92 5.675 121.95C5.675 120.95 5.845 120.135 6.185 119.505C6.525 118.875 6.995 118.41 7.595 118.11C8.205 117.81 8.905 117.66 9.695 117.66C10.255 117.66 10.74 117.715 11.15 117.825C11.57 117.935 11.935 118.065 12.245 118.215L11.585 119.94C11.235 119.8 10.905 119.685 10.595 119.595C10.295 119.505 9.995 119.46 9.695 119.46C9.305 119.46 8.98 119.555 8.72 119.745C8.46 119.925 8.265 120.2 8.135 120.57C8.015 120.93 7.955 121.385 7.955 121.935C7.955 122.475 8.02 122.925 8.15 123.285C8.29 123.635 8.49 123.9 8.75 124.08C9.01 124.25 9.325 124.335 9.695 124.335C10.165 124.335 10.58 124.275 10.94 124.155C11.3 124.025 11.65 123.85 11.99 123.63V125.535C11.65 125.755 11.29 125.91 10.91 126C10.54 126.1 10.07 126.15 9.5 126.15ZM21.3151 121.89C21.3151 122.57 21.2201 123.175 21.0301 123.705C20.8501 124.235 20.5851 124.685 20.2351 125.055C19.8951 125.415 19.4801 125.69 18.9901 125.88C18.5001 126.06 17.9451 126.15 17.3251 126.15C16.7551 126.15 16.2251 126.06 15.7351 125.88C15.2551 125.69 14.8401 125.415 14.4901 125.055C14.1401 124.685 13.8651 124.235 13.6651 123.705C13.4751 123.175 13.3801 122.57 13.3801 121.89C13.3801 120.98 13.5401 120.215 13.8601 119.595C14.1801 118.965 14.6401 118.485 15.2401 118.155C15.8401 117.825 16.5501 117.66 17.3701 117.66C18.1401 117.66 18.8201 117.825 19.4101 118.155C20.0001 118.485 20.4651 118.965 20.8051 119.595C21.1451 120.215 21.3151 120.98 21.3151 121.89ZM15.6601 121.89C15.6601 122.43 15.7151 122.885 15.8251 123.255C15.9451 123.615 16.1301 123.89 16.3801 124.08C16.6301 124.26 16.9551 124.35 17.3551 124.35C17.7551 124.35 18.0751 124.26 18.3151 124.08C18.5651 123.89 18.7451 123.615 18.8551 123.255C18.9751 122.885 19.0351 122.43 19.0351 121.89C19.0351 121.35 18.9751 120.9 18.8551 120.54C18.7451 120.18 18.5651 119.91 18.3151 119.73C18.0651 119.55 17.7401 119.46 17.3401 119.46C16.7501 119.46 16.3201 119.665 16.0501 120.075C15.7901 120.475 15.6601 121.08 15.6601 121.89ZM27.7222 117.66C28.6422 117.66 29.3872 118.02 29.9572 118.74C30.5272 119.45 30.8122 120.5 30.8122 121.89C30.8122 122.82 30.6772 123.605 30.4072 124.245C30.1372 124.875 29.7672 125.35 29.2972 125.67C28.8272 125.99 28.2822 126.15 27.6622 126.15C27.2722 126.15 26.9322 126.1 26.6422 126C26.3622 125.9 26.1222 125.77 25.9222 125.61C25.7222 125.45 25.5472 125.28 25.3972 125.1H25.2772C25.3172 125.29 25.3472 125.49 25.3672 125.7C25.3872 125.9 25.3972 126.1 25.3972 126.3V129.6H23.1622V117.81H24.9772L25.2922 118.875H25.3972C25.5472 118.655 25.7272 118.455 25.9372 118.275C26.1472 118.085 26.3972 117.935 26.6872 117.825C26.9872 117.715 27.3322 117.66 27.7222 117.66ZM27.0022 119.445C26.6122 119.445 26.3022 119.525 26.0722 119.685C25.8422 119.845 25.6722 120.09 25.5622 120.42C25.4622 120.74 25.4072 121.145 25.3972 121.635V121.875C25.3972 122.405 25.4472 122.855 25.5472 123.225C25.6472 123.585 25.8172 123.86 26.0572 124.05C26.2972 124.24 26.6222 124.335 27.0322 124.335C27.3722 124.335 27.6522 124.24 27.8722 124.05C28.0922 123.86 28.2572 123.58 28.3672 123.21C28.4772 122.84 28.5322 122.39 28.5322 121.86C28.5322 121.06 28.4072 120.46 28.1572 120.06C27.9172 119.65 27.5322 119.445 27.0022 119.445ZM39.2879 119.49H36.6029V126H34.3679V119.49H31.6829V117.81H39.2879V119.49ZM42.9589 121.05C42.9589 121.22 42.9489 121.43 42.9289 121.68C42.9189 121.93 42.9039 122.185 42.8839 122.445C42.8739 122.705 42.8589 122.935 42.8389 123.135C42.8189 123.335 42.8039 123.475 42.7939 123.555L46.5739 117.81H49.2589V126H47.0989V122.73C47.0989 122.46 47.1089 122.165 47.1289 121.845C47.1489 121.515 47.1689 121.21 47.1889 120.93C47.2189 120.64 47.2389 120.42 47.2489 120.27L43.4839 126H40.7989V117.81H42.9589V121.05ZM56.1548 117.66C57.0748 117.66 57.8198 118.02 58.3898 118.74C58.9598 119.45 59.2448 120.5 59.2448 121.89C59.2448 122.82 59.1098 123.605 58.8398 124.245C58.5698 124.875 58.1998 125.35 57.7298 125.67C57.2598 125.99 56.7148 126.15 56.0948 126.15C55.7048 126.15 55.3648 126.1 55.0748 126C54.7948 125.9 54.5548 125.77 54.3548 125.61C54.1548 125.45 53.9798 125.28 53.8298 125.1H53.7098C53.7498 125.29 53.7798 125.49 53.7998 125.7C53.8198 125.9 53.8298 126.1 53.8298 126.3V129.6H51.5948V117.81H53.4098L53.7248 118.875H53.8298C53.9798 118.655 54.1598 118.455 54.3698 118.275C54.5798 118.085 54.8298 117.935 55.1198 117.825C55.4198 117.715 55.7648 117.66 56.1548 117.66ZM55.4348 119.445C55.0448 119.445 54.7348 119.525 54.5048 119.685C54.2748 119.845 54.1048 120.09 53.9948 120.42C53.8948 120.74 53.8398 121.145 53.8298 121.635V121.875C53.8298 122.405 53.8798 122.855 53.9798 123.225C54.0798 123.585 54.2498 123.86 54.4898 124.05C54.7298 124.24 55.0548 124.335 55.4648 124.335C55.8048 124.335 56.0848 124.24 56.3048 124.05C56.5248 123.86 56.6898 123.58 56.7998 123.21C56.9098 122.84 56.9648 122.39 56.9648 121.86C56.9648 121.06 56.8398 120.46 56.5898 120.06C56.3498 119.65 55.9648 119.445 55.4348 119.445ZM59.7705 117.81H62.2155L63.7605 122.415C63.8105 122.565 63.8505 122.715 63.8805 122.865C63.9205 123.015 63.9505 123.17 63.9705 123.33C64.0005 123.49 64.0205 123.66 64.0305 123.84H64.0755C64.1055 123.58 64.1455 123.335 64.1955 123.105C64.2555 122.865 64.3205 122.635 64.3905 122.415L65.9055 117.81H68.3055L64.8405 127.05C64.6305 127.61 64.3555 128.08 64.0155 128.46C63.6855 128.84 63.3005 129.125 62.8605 129.315C62.4205 129.505 61.9405 129.6 61.4205 129.6C61.1705 129.6 60.9505 129.585 60.7605 129.555C60.5805 129.535 60.4205 129.51 60.2805 129.48V127.71C60.3905 127.73 60.5205 127.75 60.6705 127.77C60.8305 127.79 60.9955 127.8 61.1655 127.8C61.4755 127.8 61.7405 127.735 61.9605 127.605C62.1905 127.475 62.3805 127.295 62.5305 127.065C62.6805 126.845 62.8005 126.605 62.8905 126.345L63.0255 125.94L59.7705 117.81ZM80.7905 121.89C80.7905 122.8 80.6355 123.575 80.3255 124.215C80.0155 124.845 79.5705 125.325 78.9905 125.655C78.4205 125.985 77.7405 126.15 76.9505 126.15C76.2805 126.15 75.6755 126.025 75.1355 125.775C74.6055 125.515 74.1705 125.125 73.8305 124.605C73.5005 124.085 73.2855 123.425 73.1855 122.625H71.7155V126H69.4805V117.81H71.7155V120.96H73.2155C73.3155 120.25 73.5305 119.65 73.8605 119.16C74.2005 118.67 74.6355 118.3 75.1655 118.05C75.7055 117.79 76.3155 117.66 76.9955 117.66C77.7355 117.66 78.3905 117.825 78.9605 118.155C79.5305 118.485 79.9755 118.965 80.2955 119.595C80.6255 120.215 80.7905 120.98 80.7905 121.89ZM75.4355 121.89C75.4355 122.43 75.4855 122.885 75.5855 123.255C75.6955 123.615 75.8655 123.89 76.0955 124.08C76.3255 124.26 76.6205 124.35 76.9805 124.35C77.3405 124.35 77.6305 124.26 77.8505 124.08C78.0805 123.89 78.2455 123.615 78.3455 123.255C78.4555 122.885 78.5105 122.43 78.5105 121.89C78.5105 121.35 78.4555 120.9 78.3455 120.54C78.2455 120.18 78.0805 119.91 77.8505 119.73C77.6305 119.55 77.3355 119.46 76.9655 119.46C76.6055 119.46 76.3105 119.55 76.0805 119.73C75.8605 119.91 75.6955 120.18 75.5855 120.54C75.4855 120.9 75.4355 121.35 75.4355 121.89ZM88.7693 117.66C89.3593 117.66 89.9093 117.74 90.4193 117.9C90.9393 118.05 91.3543 118.285 91.6643 118.605C91.9843 118.925 92.1443 119.335 92.1443 119.835C92.1443 120.325 91.9943 120.715 91.6943 121.005C91.4043 121.295 91.0093 121.505 90.5093 121.635V121.71C90.8593 121.79 91.1743 121.905 91.4543 122.055C91.7343 122.195 91.9543 122.39 92.1143 122.64C92.2843 122.88 92.3693 123.205 92.3693 123.615C92.3693 124.065 92.2243 124.485 91.9343 124.875C91.6543 125.255 91.2143 125.565 90.6143 125.805C90.0243 126.035 89.2643 126.15 88.3343 126.15C87.8943 126.15 87.4793 126.13 87.0893 126.09C86.6993 126.05 86.3443 125.995 86.0243 125.925C85.7043 125.845 85.4243 125.75 85.1843 125.64V123.795C85.5243 123.955 85.9393 124.1 86.4293 124.23C86.9293 124.36 87.4593 124.425 88.0193 124.425C88.4293 124.425 88.7943 124.395 89.1143 124.335C89.4443 124.275 89.7043 124.175 89.8943 124.035C90.0943 123.895 90.1943 123.71 90.1943 123.48C90.1943 123.26 90.1093 123.08 89.9393 122.94C89.7693 122.79 89.5143 122.68 89.1743 122.61C88.8343 122.54 88.3993 122.505 87.8693 122.505H86.9993V120.96H87.8243C88.5643 120.96 89.1343 120.9 89.5343 120.78C89.9443 120.66 90.1493 120.435 90.1493 120.105C90.1493 119.845 90.0193 119.65 89.7593 119.52C89.4993 119.38 89.0743 119.31 88.4843 119.31C88.0943 119.31 87.6693 119.355 87.2093 119.445C86.7493 119.535 86.3143 119.665 85.9043 119.835L85.2443 118.275C85.7143 118.095 86.2293 117.95 86.7893 117.84C87.3493 117.72 88.0093 117.66 88.7693 117.66ZM97.4646 117.645C98.5646 117.645 99.4046 117.885 99.9846 118.365C100.575 118.835 100.87 119.56 100.87 120.54V126H99.3096L98.8746 124.89H98.8146C98.5846 125.18 98.3446 125.42 98.0946 125.61C97.8546 125.8 97.5746 125.935 97.2546 126.015C96.9446 126.105 96.5596 126.15 96.0996 126.15C95.6196 126.15 95.1846 126.06 94.7946 125.88C94.4146 125.69 94.1146 125.405 93.8946 125.025C93.6746 124.635 93.5646 124.145 93.5646 123.555C93.5646 122.685 93.8696 122.045 94.4796 121.635C95.0896 121.215 96.0046 120.985 97.2246 120.945L98.6496 120.9V120.54C98.6496 120.11 98.5346 119.795 98.3046 119.595C98.0846 119.395 97.7746 119.295 97.3746 119.295C96.9746 119.295 96.5846 119.355 96.2046 119.475C95.8246 119.585 95.4446 119.725 95.0646 119.895L94.3296 118.38C94.7696 118.15 95.2546 117.97 95.7846 117.84C96.3246 117.71 96.8846 117.645 97.4646 117.645ZM97.7796 122.235C97.0596 122.255 96.5596 122.385 96.2796 122.625C95.9996 122.865 95.8596 123.18 95.8596 123.57C95.8596 123.91 95.9596 124.155 96.1596 124.305C96.3596 124.445 96.6196 124.515 96.9396 124.515C97.4196 124.515 97.8246 124.375 98.1546 124.095C98.4846 123.805 98.6496 123.4 98.6496 122.88V122.205L97.7796 122.235ZM108.527 117.81H110.987L107.747 121.74L111.272 126H108.737L105.392 121.845V126H103.157V117.81H105.392V121.785L108.527 117.81ZM115.804 117.645C116.904 117.645 117.744 117.885 118.324 118.365C118.914 118.835 119.209 119.56 119.209 120.54V126H117.649L117.214 124.89H117.154C116.924 125.18 116.684 125.42 116.434 125.61C116.194 125.8 115.914 125.935 115.594 126.015C115.284 126.105 114.899 126.15 114.439 126.15C113.959 126.15 113.524 126.06 113.134 125.88C112.754 125.69 112.454 125.405 112.234 125.025C112.014 124.635 111.904 124.145 111.904 123.555C111.904 122.685 112.209 122.045 112.819 121.635C113.429 121.215 114.344 120.985 115.564 120.945L116.989 120.9V120.54C116.989 120.11 116.874 119.795 116.644 119.595C116.424 119.395 116.114 119.295 115.714 119.295C115.314 119.295 114.924 119.355 114.544 119.475C114.164 119.585 113.784 119.725 113.404 119.895L112.669 118.38C113.109 118.15 113.594 117.97 114.124 117.84C114.664 117.71 115.224 117.645 115.804 117.645ZM116.119 122.235C115.399 122.255 114.899 122.385 114.619 122.625C114.339 122.865 114.199 123.18 114.199 123.57C114.199 123.91 114.299 124.155 114.499 124.305C114.699 124.445 114.959 124.515 115.279 124.515C115.759 124.515 116.164 124.375 116.494 124.095C116.824 123.805 116.989 123.4 116.989 122.88V122.205L116.119 122.235ZM124.482 117.66C125.072 117.66 125.622 117.74 126.132 117.9C126.652 118.05 127.067 118.285 127.377 118.605C127.697 118.925 127.857 119.335 127.857 119.835C127.857 120.325 127.707 120.715 127.407 121.005C127.117 121.295 126.722 121.505 126.222 121.635V121.71C126.572 121.79 126.887 121.905 127.167 122.055C127.447 122.195 127.667 122.39 127.827 122.64C127.997 122.88 128.082 123.205 128.082 123.615C128.082 124.065 127.937 124.485 127.647 124.875C127.367 125.255 126.927 125.565 126.327 125.805C125.737 126.035 124.977 126.15 124.047 126.15C123.607 126.15 123.192 126.13 122.802 126.09C122.412 126.05 122.057 125.995 121.737 125.925C121.417 125.845 121.137 125.75 120.897 125.64V123.795C121.237 123.955 121.652 124.1 122.142 124.23C122.642 124.36 123.172 124.425 123.732 124.425C124.142 124.425 124.507 124.395 124.827 124.335C125.157 124.275 125.417 124.175 125.607 124.035C125.807 123.895 125.907 123.71 125.907 123.48C125.907 123.26 125.822 123.08 125.652 122.94C125.482 122.79 125.227 122.68 124.887 122.61C124.547 122.54 124.112 122.505 123.582 122.505H122.712V120.96H123.537C124.277 120.96 124.847 120.9 125.247 120.78C125.657 120.66 125.862 120.435 125.862 120.105C125.862 119.845 125.732 119.65 125.472 119.52C125.212 119.38 124.787 119.31 124.197 119.31C123.807 119.31 123.382 119.355 122.922 119.445C122.462 119.535 122.027 119.665 121.617 119.835L120.957 118.275C121.427 118.095 121.942 117.95 122.502 117.84C123.062 117.72 123.722 117.66 124.482 117.66ZM129.817 126V117.81H132.052V120.975H133.132C133.972 120.975 134.662 121.065 135.202 121.245C135.742 121.415 136.142 121.68 136.402 122.04C136.672 122.4 136.807 122.85 136.807 123.39C136.807 123.92 136.682 124.38 136.432 124.77C136.192 125.16 135.807 125.465 135.277 125.685C134.757 125.895 134.067 126 133.207 126H129.817ZM133.087 124.455C133.527 124.455 133.882 124.375 134.152 124.215C134.432 124.055 134.572 123.79 134.572 123.42C134.572 123.1 134.442 122.87 134.182 122.73C133.932 122.59 133.557 122.52 133.057 122.52H132.052V124.455H133.087ZM137.992 126V117.81H140.227V126H137.992ZM147.871 121.05C147.871 121.22 147.861 121.43 147.841 121.68C147.831 121.93 147.816 122.185 147.796 122.445C147.786 122.705 147.771 122.935 147.751 123.135C147.731 123.335 147.716 123.475 147.706 123.555L151.486 117.81H154.171V126H152.011V122.73C152.011 122.46 152.021 122.165 152.041 121.845C152.061 121.515 152.081 121.21 152.101 120.93C152.131 120.64 152.151 120.42 152.161 120.27L148.396 126H145.711V117.81H147.871V121.05ZM13.535 132.81V139.365H14.735V143.94H12.725V141H7.22V143.94H5.21V139.365H5.9C6.26 138.815 6.565 138.19 6.815 137.49C7.065 136.78 7.265 136.025 7.415 135.225C7.565 134.425 7.675 133.62 7.745 132.81H13.535ZM9.62 134.49C9.54 135.09 9.44 135.675 9.32 136.245C9.2 136.805 9.05 137.345 8.87 137.865C8.7 138.385 8.49 138.885 8.24 139.365H11.3V134.49H9.62ZM14.9609 132.81H17.4059L18.9509 137.415C19.0009 137.565 19.0409 137.715 19.0709 137.865C19.1109 138.015 19.1409 138.17 19.1609 138.33C19.1909 138.49 19.2109 138.66 19.2209 138.84H19.2659C19.2959 138.58 19.3359 138.335 19.3859 138.105C19.4459 137.865 19.5109 137.635 19.5809 137.415L21.0959 132.81H23.4959L20.0309 142.05C19.8209 142.61 19.5459 143.08 19.2059 143.46C18.8759 143.84 18.4909 144.125 18.0509 144.315C17.6109 144.505 17.1309 144.6 16.6109 144.6C16.3609 144.6 16.1409 144.585 15.9509 144.555C15.7709 144.535 15.6109 144.51 15.4709 144.48V142.71C15.5809 142.73 15.7109 142.75 15.8609 142.77C16.0209 142.79 16.1859 142.8 16.3559 142.8C16.6659 142.8 16.9309 142.735 17.1509 142.605C17.3809 142.475 17.5709 142.295 17.7209 142.065C17.8709 141.845 17.9909 141.605 18.0809 141.345L18.2159 140.94L14.9609 132.81ZM34.991 132.81V141H32.906V136.98C32.906 136.58 32.911 136.19 32.921 135.81C32.941 135.43 32.966 135.08 32.996 134.76H32.951L30.686 141H29.006L26.711 134.745H26.651C26.691 135.075 26.716 135.43 26.726 135.81C26.746 136.18 26.756 136.59 26.756 137.04V141H24.671V132.81H27.836L29.876 138.36L31.946 132.81H34.991ZM40.6872 132.645C41.7872 132.645 42.6272 132.885 43.2072 133.365C43.7972 133.835 44.0922 134.56 44.0922 135.54V141H42.5322L42.0972 139.89H42.0372C41.8072 140.18 41.5672 140.42 41.3172 140.61C41.0772 140.8 40.7972 140.935 40.4772 141.015C40.1672 141.105 39.7822 141.15 39.3222 141.15C38.8422 141.15 38.4072 141.06 38.0172 140.88C37.6372 140.69 37.3372 140.405 37.1172 140.025C36.8972 139.635 36.7872 139.145 36.7872 138.555C36.7872 137.685 37.0922 137.045 37.7022 136.635C38.3122 136.215 39.2272 135.985 40.4472 135.945L41.8722 135.9V135.54C41.8722 135.11 41.7572 134.795 41.5272 134.595C41.3072 134.395 40.9972 134.295 40.5972 134.295C40.1972 134.295 39.8072 134.355 39.4272 134.475C39.0472 134.585 38.6672 134.725 38.2872 134.895L37.5522 133.38C37.9922 133.15 38.4772 132.97 39.0072 132.84C39.5472 132.71 40.1072 132.645 40.6872 132.645ZM41.0022 137.235C40.2822 137.255 39.7822 137.385 39.5022 137.625C39.2222 137.865 39.0822 138.18 39.0822 138.57C39.0822 138.91 39.1822 139.155 39.3822 139.305C39.5822 139.445 39.8422 139.515 40.1622 139.515C40.6422 139.515 41.0472 139.375 41.3772 139.095C41.7072 138.805 41.8722 138.4 41.8722 137.88V137.205L41.0022 137.235ZM57.69 136.89C57.69 137.8 57.535 138.575 57.225 139.215C56.915 139.845 56.47 140.325 55.89 140.655C55.32 140.985 54.64 141.15 53.85 141.15C53.18 141.15 52.575 141.025 52.035 140.775C51.505 140.515 51.07 140.125 50.73 139.605C50.4 139.085 50.185 138.425 50.085 137.625H48.615V141H46.38V132.81H48.615V135.96H50.115C50.215 135.25 50.43 134.65 50.76 134.16C51.1 133.67 51.535 133.3 52.065 133.05C52.605 132.79 53.215 132.66 53.895 132.66C54.635 132.66 55.29 132.825 55.86 133.155C56.43 133.485 56.875 133.965 57.195 134.595C57.525 135.215 57.69 135.98 57.69 136.89ZM52.335 136.89C52.335 137.43 52.385 137.885 52.485 138.255C52.595 138.615 52.765 138.89 52.995 139.08C53.225 139.26 53.52 139.35 53.88 139.35C54.24 139.35 54.53 139.26 54.75 139.08C54.98 138.89 55.145 138.615 55.245 138.255C55.355 137.885 55.41 137.43 55.41 136.89C55.41 136.35 55.355 135.9 55.245 135.54C55.145 135.18 54.98 134.91 54.75 134.73C54.53 134.55 54.235 134.46 53.865 134.46C53.505 134.46 53.21 134.55 52.98 134.73C52.76 134.91 52.595 135.18 52.485 135.54C52.385 135.9 52.335 136.35 52.335 136.89ZM59.1143 142.425C59.3043 142.135 59.4593 141.89 59.5793 141.69C59.7093 141.49 59.8093 141.3 59.8793 141.12C59.9593 140.95 60.0143 140.76 60.0443 140.55C60.0743 140.33 60.0893 140.065 60.0893 139.755L61.8293 139.605C61.8293 140.025 61.7593 140.425 61.6193 140.805C61.4893 141.185 61.3093 141.56 61.0793 141.93C60.8593 142.3 60.6143 142.69 60.3443 143.1L59.1143 142.425ZM60.4643 140.94C60.0743 140.94 59.7543 140.815 59.5043 140.565C59.2543 140.315 59.1293 139.995 59.1293 139.605C59.1293 139.225 59.2543 138.905 59.5043 138.645C59.7543 138.375 60.0743 138.24 60.4643 138.24C60.8443 138.24 61.1643 138.375 61.4243 138.645C61.6943 138.905 61.8293 139.225 61.8293 139.605C61.8293 139.995 61.6943 140.315 61.4243 140.565C61.1643 140.815 60.8443 140.94 60.4643 140.94ZM72.2724 132.81H74.7324L71.4924 136.74L75.0174 141H72.4824L69.1374 136.845V141H66.9024V132.81H69.1374V136.785L72.2724 132.81ZM79.5495 132.645C80.6495 132.645 81.4895 132.885 82.0695 133.365C82.6595 133.835 82.9545 134.56 82.9545 135.54V141H81.3945L80.9595 139.89H80.8995C80.6695 140.18 80.4295 140.42 80.1795 140.61C79.9395 140.8 79.6595 140.935 79.3395 141.015C79.0295 141.105 78.6445 141.15 78.1845 141.15C77.7045 141.15 77.2695 141.06 76.8795 140.88C76.4995 140.69 76.1995 140.405 75.9795 140.025C75.7595 139.635 75.6495 139.145 75.6495 138.555C75.6495 137.685 75.9545 137.045 76.5645 136.635C77.1745 136.215 78.0895 135.985 79.3095 135.945L80.7345 135.9V135.54C80.7345 135.11 80.6195 134.795 80.3895 134.595C80.1695 134.395 79.8595 134.295 79.4595 134.295C79.0595 134.295 78.6695 134.355 78.2895 134.475C77.9095 134.585 77.5295 134.725 77.1495 134.895L76.4145 133.38C76.8545 133.15 77.3395 132.97 77.8695 132.84C78.4095 132.71 78.9695 132.645 79.5495 132.645ZM79.8645 137.235C79.1445 137.255 78.6445 137.385 78.3645 137.625C78.0845 137.865 77.9445 138.18 77.9445 138.57C77.9445 138.91 78.0445 139.155 78.2445 139.305C78.4445 139.445 78.7045 139.515 79.0245 139.515C79.5045 139.515 79.9095 139.375 80.2395 139.095C80.5695 138.805 80.7345 138.4 80.7345 137.88V137.205L79.8645 137.235ZM90.6123 132.81H93.0723L89.8323 136.74L93.3573 141H90.8223L87.4773 136.845V141H85.2423V132.81H87.4773V136.785L90.6123 132.81ZM96.5088 132.81H98.9538L100.499 137.415C100.549 137.565 100.589 137.715 100.619 137.865C100.659 138.015 100.689 138.17 100.709 138.33C100.739 138.49 100.759 138.66 100.769 138.84H100.814C100.844 138.58 100.884 138.335 100.934 138.105C100.994 137.865 101.059 137.635 101.129 137.415L102.644 132.81H105.044L101.579 142.05C101.369 142.61 101.094 143.08 100.754 143.46C100.424 143.84 100.039 144.125 99.5988 144.315C99.1588 144.505 98.6788 144.6 98.1588 144.6C97.9088 144.6 97.6888 144.585 97.4988 144.555C97.3188 144.535 97.1588 144.51 97.0188 144.48V142.71C97.1288 142.73 97.2588 142.75 97.4088 142.77C97.5688 142.79 97.7338 142.8 97.9038 142.8C98.2138 142.8 98.4788 142.735 98.6988 142.605C98.9288 142.475 99.1188 142.295 99.2688 142.065C99.4188 141.845 99.5388 141.605 99.6288 141.345L99.7638 140.94L96.5088 132.81ZM113.261 141H111.026V134.49H108.971C108.871 135.69 108.746 136.715 108.596 137.565C108.456 138.405 108.276 139.09 108.056 139.62C107.846 140.15 107.576 140.54 107.246 140.79C106.916 141.03 106.511 141.15 106.031 141.15C105.771 141.15 105.536 141.13 105.326 141.09C105.116 141.05 104.926 140.99 104.756 140.91V139.125C104.866 139.165 104.981 139.2 105.101 139.23C105.221 139.26 105.346 139.275 105.476 139.275C105.616 139.275 105.746 139.22 105.866 139.11C105.996 139 106.116 138.805 106.226 138.525C106.346 138.245 106.456 137.86 106.556 137.37C106.656 136.88 106.746 136.265 106.826 135.525C106.916 134.775 106.996 133.87 107.066 132.81H113.261V141ZM114.424 132.81H116.869L118.414 137.415C118.464 137.565 118.504 137.715 118.534 137.865C118.574 138.015 118.604 138.17 118.624 138.33C118.654 138.49 118.674 138.66 118.684 138.84H118.729C118.759 138.58 118.799 138.335 118.849 138.105C118.909 137.865 118.974 137.635 119.044 137.415L120.559 132.81H122.959L119.494 142.05C119.284 142.61 119.009 143.08 118.669 143.46C118.339 143.84 117.954 144.125 117.514 144.315C117.074 144.505 116.594 144.6 116.074 144.6C115.824 144.6 115.604 144.585 115.414 144.555C115.234 144.535 115.074 144.51 114.934 144.48V142.71C115.044 142.73 115.174 142.75 115.324 142.77C115.484 142.79 115.649 142.8 115.819 142.8C116.129 142.8 116.394 142.735 116.614 142.605C116.844 142.475 117.034 142.295 117.184 142.065C117.334 141.845 117.454 141.605 117.544 141.345L117.679 140.94L114.424 132.81ZM126.099 135.81C126.099 136.16 126.184 136.425 126.354 136.605C126.534 136.785 126.779 136.875 127.089 136.875C127.519 136.875 127.919 136.83 128.289 136.74C128.659 136.64 129.029 136.51 129.399 136.35V132.81H131.634V141H129.399V137.745C129.049 137.935 128.649 138.11 128.199 138.27C127.749 138.42 127.239 138.495 126.669 138.495C125.819 138.495 125.139 138.275 124.629 137.835C124.119 137.395 123.864 136.735 123.864 135.855V132.81H126.099V135.81ZM146.173 132.81V141H133.978V132.81H136.213V139.32H138.958V132.81H141.193V139.32H143.938V132.81H146.173ZM150.669 136.05C150.669 136.22 150.659 136.43 150.639 136.68C150.629 136.93 150.614 137.185 150.594 137.445C150.584 137.705 150.569 137.935 150.549 138.135C150.529 138.335 150.514 138.475 150.504 138.555L154.284 132.81H156.969V141H154.809V137.73C154.809 137.46 154.819 137.165 154.839 136.845C154.859 136.515 154.879 136.21 154.899 135.93C154.929 135.64 154.949 135.42 154.959 135.27L151.194 141H148.509V132.81H150.669V136.05ZM166.085 134.49H163.4V141H161.165V134.49H158.48V132.81H166.085V134.49ZM171.406 135.975C172.246 135.975 172.941 136.065 173.491 136.245C174.041 136.415 174.446 136.68 174.706 137.04C174.976 137.4 175.111 137.85 175.111 138.39C175.111 138.92 174.986 139.38 174.736 139.77C174.496 140.16 174.111 140.465 173.581 140.685C173.051 140.895 172.356 141 171.496 141H167.596V132.81H169.831V135.975H171.406ZM172.876 138.42C172.876 138.1 172.746 137.87 172.486 137.73C172.236 137.59 171.861 137.52 171.361 137.52H169.831V139.455H171.391C171.831 139.455 172.186 139.375 172.456 139.215C172.736 139.055 172.876 138.79 172.876 138.42ZM13.61 147.81V156H11.375V149.49H8.405V156H6.17V147.81H13.61ZM20.5152 147.66C21.4352 147.66 22.1802 148.02 22.7502 148.74C23.3202 149.45 23.6052 150.5 23.6052 151.89C23.6052 152.82 23.4702 153.605 23.2002 154.245C22.9302 154.875 22.5602 155.35 22.0902 155.67C21.6202 155.99 21.0752 156.15 20.4552 156.15C20.0652 156.15 19.7252 156.1 19.4352 156C19.1552 155.9 18.9152 155.77 18.7152 155.61C18.5152 155.45 18.3402 155.28 18.1902 155.1H18.0702C18.1102 155.29 18.1402 155.49 18.1602 155.7C18.1802 155.9 18.1902 156.1 18.1902 156.3V159.6H15.9552V147.81H17.7702L18.0852 148.875H18.1902C18.3402 148.655 18.5202 148.455 18.7302 148.275C18.9402 148.085 19.1902 147.935 19.4802 147.825C19.7802 147.715 20.1252 147.66 20.5152 147.66ZM19.7952 149.445C19.4052 149.445 19.0952 149.525 18.8652 149.685C18.6352 149.845 18.4652 150.09 18.3552 150.42C18.2552 150.74 18.2002 151.145 18.1902 151.635V151.875C18.1902 152.405 18.2402 152.855 18.3402 153.225C18.4402 153.585 18.6102 153.86 18.8502 154.05C19.0902 154.24 19.4152 154.335 19.8252 154.335C20.1652 154.335 20.4452 154.24 20.6652 154.05C20.8852 153.86 21.0502 153.58 21.1602 153.21C21.2702 152.84 21.3252 152.39 21.3252 151.86C21.3252 151.06 21.2002 150.46 20.9502 150.06C20.7102 149.65 20.3252 149.445 19.7952 149.445ZM32.8873 151.89C32.8873 152.57 32.7923 153.175 32.6023 153.705C32.4223 154.235 32.1573 154.685 31.8073 155.055C31.4673 155.415 31.0523 155.69 30.5623 155.88C30.0723 156.06 29.5173 156.15 28.8973 156.15C28.3273 156.15 27.7973 156.06 27.3073 155.88C26.8273 155.69 26.4123 155.415 26.0623 155.055C25.7123 154.685 25.4373 154.235 25.2373 153.705C25.0473 153.175 24.9523 152.57 24.9523 151.89C24.9523 150.98 25.1123 150.215 25.4323 149.595C25.7523 148.965 26.2123 148.485 26.8123 148.155C27.4123 147.825 28.1223 147.66 28.9423 147.66C29.7123 147.66 30.3923 147.825 30.9823 148.155C31.5723 148.485 32.0373 148.965 32.3773 149.595C32.7173 150.215 32.8873 150.98 32.8873 151.89ZM27.2323 151.89C27.2323 152.43 27.2873 152.885 27.3973 153.255C27.5173 153.615 27.7023 153.89 27.9523 154.08C28.2023 154.26 28.5273 154.35 28.9273 154.35C29.3273 154.35 29.6473 154.26 29.8873 154.08C30.1373 153.89 30.3173 153.615 30.4273 153.255C30.5473 152.885 30.6073 152.43 30.6073 151.89C30.6073 151.35 30.5473 150.9 30.4273 150.54C30.3173 150.18 30.1373 149.91 29.8873 149.73C29.6373 149.55 29.3123 149.46 28.9123 149.46C28.3223 149.46 27.8923 149.665 27.6223 150.075C27.3623 150.475 27.2323 151.08 27.2323 151.89ZM43.6745 158.94H41.6645V156H34.7345V147.81H36.9695V154.32H40.2395V147.81H42.4745V154.365H43.6745V158.94ZM48.4366 147.66C49.1966 147.66 49.8466 147.805 50.3866 148.095C50.9366 148.385 51.3616 148.805 51.6616 149.355C51.9616 149.905 52.1116 150.58 52.1116 151.38V152.46H46.8316C46.8516 153.09 47.0366 153.585 47.3866 153.945C47.7466 154.305 48.2416 154.485 48.8716 154.485C49.4016 154.485 49.8816 154.435 50.3116 154.335C50.7416 154.225 51.1866 154.06 51.6466 153.84V155.565C51.2466 155.765 50.8216 155.91 50.3716 156C49.9316 156.1 49.3966 156.15 48.7666 156.15C47.9466 156.15 47.2216 156 46.5916 155.7C45.9616 155.39 45.4666 154.925 45.1066 154.305C44.7466 153.685 44.5666 152.905 44.5666 151.965C44.5666 151.005 44.7266 150.21 45.0466 149.58C45.3766 148.94 45.8316 148.46 46.4116 148.14C46.9916 147.82 47.6666 147.66 48.4366 147.66ZM48.4516 149.25C48.0216 149.25 47.6616 149.39 47.3716 149.67C47.0916 149.95 46.9266 150.385 46.8766 150.975H50.0116C50.0116 150.645 49.9516 150.35 49.8316 150.09C49.7216 149.83 49.5516 149.625 49.3216 149.475C49.0916 149.325 48.8016 149.25 48.4516 149.25ZM57.2539 156.15C56.4439 156.15 55.7539 156.005 55.1839 155.715C54.6139 155.415 54.1789 154.955 53.8789 154.335C53.5789 153.715 53.4289 152.92 53.4289 151.95C53.4289 150.95 53.5989 150.135 53.9389 149.505C54.2789 148.875 54.7489 148.41 55.3489 148.11C55.9589 147.81 56.6589 147.66 57.4489 147.66C58.0089 147.66 58.4939 147.715 58.9039 147.825C59.3239 147.935 59.6889 148.065 59.9989 148.215L59.3389 149.94C58.9889 149.8 58.6589 149.685 58.3489 149.595C58.0489 149.505 57.7489 149.46 57.4489 149.46C57.0589 149.46 56.7339 149.555 56.4739 149.745C56.2139 149.925 56.0189 150.2 55.8889 150.57C55.7689 150.93 55.7089 151.385 55.7089 151.935C55.7089 152.475 55.7739 152.925 55.9039 153.285C56.0439 153.635 56.2439 153.9 56.5039 154.08C56.7639 154.25 57.0789 154.335 57.4489 154.335C57.9189 154.335 58.3339 154.275 58.6939 154.155C59.0539 154.025 59.4039 153.85 59.7439 153.63V155.535C59.4039 155.755 59.0439 155.91 58.6639 156C58.2939 156.1 57.8239 156.15 57.2539 156.15ZM64.959 156.15C64.149 156.15 63.459 156.005 62.889 155.715C62.319 155.415 61.884 154.955 61.584 154.335C61.284 153.715 61.134 152.92 61.134 151.95C61.134 150.95 61.304 150.135 61.644 149.505C61.984 148.875 62.454 148.41 63.054 148.11C63.664 147.81 64.364 147.66 65.154 147.66C65.714 147.66 66.199 147.715 66.609 147.825C67.029 147.935 67.394 148.065 67.704 148.215L67.044 149.94C66.694 149.8 66.364 149.685 66.054 149.595C65.754 149.505 65.454 149.46 65.154 149.46C64.764 149.46 64.439 149.555 64.179 149.745C63.919 149.925 63.724 150.2 63.594 150.57C63.474 150.93 63.414 151.385 63.414 151.935C63.414 152.475 63.479 152.925 63.609 153.285C63.749 153.635 63.949 153.9 64.209 154.08C64.469 154.25 64.784 154.335 65.154 154.335C65.624 154.335 66.039 154.275 66.399 154.155C66.759 154.025 67.109 153.85 67.449 153.63V155.535C67.109 155.755 66.749 155.91 66.369 156C65.999 156.1 65.529 156.15 64.959 156.15ZM69.3341 156V147.81H71.5691V150.975H72.6491C73.4891 150.975 74.1791 151.065 74.7191 151.245C75.2591 151.415 75.6591 151.68 75.9191 152.04C76.1891 152.4 76.3241 152.85 76.3241 153.39C76.3241 153.92 76.1991 154.38 75.9491 154.77C75.7091 155.16 75.3241 155.465 74.7941 155.685C74.2741 155.895 73.5841 156 72.7241 156H69.3341ZM72.6041 154.455C73.0441 154.455 73.3991 154.375 73.6691 154.215C73.9491 154.055 74.0891 153.79 74.0891 153.42C74.0891 153.1 73.9591 152.87 73.6991 152.73C73.4491 152.59 73.0741 152.52 72.5741 152.52H71.5691V154.455H72.6041ZM77.5091 156V147.81H79.7441V156H77.5091ZM86.8926 155.91C86.5026 155.91 86.1826 155.785 85.9326 155.535C85.6826 155.285 85.5576 154.965 85.5576 154.575C85.5576 154.195 85.6826 153.875 85.9326 153.615C86.1826 153.345 86.5026 153.21 86.8926 153.21C87.2726 153.21 87.5926 153.345 87.8526 153.615C88.1226 153.875 88.2576 154.195 88.2576 154.575C88.2576 154.965 88.1226 155.285 87.8526 155.535C87.5926 155.785 87.2726 155.91 86.8926 155.91ZM86.8926 151.185C86.5026 151.185 86.1826 151.06 85.9326 150.81C85.6826 150.56 85.5576 150.24 85.5576 149.85C85.5576 149.47 85.6826 149.15 85.9326 148.89C86.1826 148.62 86.5026 148.485 86.8926 148.485C87.2726 148.485 87.5926 148.62 87.8526 148.89C88.1226 149.15 88.2576 149.47 88.2576 149.85C88.2576 150.24 88.1226 150.56 87.8526 150.81C87.5926 151.06 87.2726 151.185 86.8926 151.185ZM91.1988 157.8H89.0088C90.1288 155.46 90.6888 153.185 90.6888 150.975C90.6888 148.765 90.1288 146.49 89.0088 144.15H91.1988C92.4788 146.49 93.1188 148.765 93.1188 150.975C93.1188 153.185 92.4788 155.46 91.1988 157.8Z" fill="white"/>
</svg>
