<svg width="179" height="151" viewBox="0 0 179 151" fill="none" xmlns="http://www.w3.org/2000/svg">
<path d="M89.075 20.5665L88.0617 18.2811L88.0617 18.2811L89.075 20.5665ZM100.499 15.5012L71.7946 12.4394L83.4954 38.8293L100.499 15.5012ZM61.4209 82.3674C55.0991 58.1842 67.2377 32.9834 90.0883 22.852L88.0617 18.2811C62.9706 29.4059 49.6418 57.0776 56.5835 83.632L61.4209 82.3674Z" fill="white" fill-opacity="0.7"/>
<rect y="88" width="179" height="63" rx="10" fill="white" fill-opacity="0.7"/>
<path d="M12.905 110L12.125 107.45H8.225L7.445 110H5L8.78 99.245H11.555L15.35 110H12.905ZM10.805 103.055C10.755 102.885 10.69 102.67 10.61 102.41C10.53 102.15 10.45 101.885 10.37 101.615C10.29 101.345 10.225 101.11 10.175 100.91C10.125 101.11 10.055 101.36 9.965 101.66C9.885 101.95 9.805 102.23 9.725 102.5C9.655 102.76 9.6 102.945 9.56 103.055L8.795 105.545H11.585L10.805 103.055ZM26.9359 103.955C26.9359 104.395 26.7959 104.77 26.5159 105.08C26.2459 105.39 25.8409 105.59 25.3009 105.68V105.74C25.8709 105.81 26.3259 106.005 26.6659 106.325C27.0159 106.645 27.1909 107.055 27.1909 107.555C27.1909 107.905 27.1209 108.23 26.9809 108.53C26.8509 108.83 26.6409 109.09 26.3509 109.31C26.0609 109.53 25.6859 109.7 25.2259 109.82C24.7759 109.94 24.2259 110 23.5759 110H19.6759V101.81H23.5759C24.2159 101.81 24.7859 101.88 25.2859 102.02C25.7959 102.15 26.1959 102.37 26.4859 102.68C26.7859 102.99 26.9359 103.415 26.9359 103.955ZM24.8809 107.435C24.8809 107.115 24.7559 106.885 24.5059 106.745C24.2559 106.595 23.8809 106.52 23.3809 106.52H21.9109V108.455H23.4259C23.8459 108.455 24.1909 108.38 24.4609 108.23C24.7409 108.07 24.8809 107.805 24.8809 107.435ZM24.6709 104.135C24.6709 103.875 24.5709 103.685 24.3709 103.565C24.1709 103.445 23.8759 103.385 23.4859 103.385H21.9109V105.005H23.2309C23.7009 105.005 24.0559 104.94 24.2959 104.81C24.5459 104.67 24.6709 104.445 24.6709 104.135ZM39.0389 103.49H36.3539V110H34.1189V103.49H31.4339V101.81H39.0389V103.49ZM43.9099 101.645C45.0099 101.645 45.8499 101.885 46.4299 102.365C47.0199 102.835 47.3149 103.56 47.3149 104.54V110H45.7549L45.3199 108.89H45.2599C45.0299 109.18 44.7899 109.42 44.5399 109.61C44.2999 109.8 44.0199 109.935 43.6999 110.015C43.3899 110.105 43.0049 110.15 42.5449 110.15C42.0649 110.15 41.6299 110.06 41.2399 109.88C40.8599 109.69 40.5599 109.405 40.3399 109.025C40.1199 108.635 40.0099 108.145 40.0099 107.555C40.0099 106.685 40.3149 106.045 40.9249 105.635C41.5349 105.215 42.4499 104.985 43.6699 104.945L45.0949 104.9V104.54C45.0949 104.11 44.9799 103.795 44.7499 103.595C44.5299 103.395 44.2199 103.295 43.8199 103.295C43.4199 103.295 43.0299 103.355 42.6499 103.475C42.2699 103.585 41.8899 103.725 41.5099 103.895L40.7749 102.38C41.2149 102.15 41.6999 101.97 42.2299 101.84C42.7699 101.71 43.3299 101.645 43.9099 101.645ZM44.2249 106.235C43.5049 106.255 43.0049 106.385 42.7249 106.625C42.4449 106.865 42.3049 107.18 42.3049 107.57C42.3049 107.91 42.4049 108.155 42.6049 108.305C42.8049 108.445 43.0649 108.515 43.3849 108.515C43.8649 108.515 44.2699 108.375 44.5999 108.095C44.9299 107.805 45.0949 107.4 45.0949 106.88V106.205L44.2249 106.235ZM54.9726 101.81H57.4326L54.1926 105.74L57.7176 110H55.1826L51.8376 105.845V110H49.6026V101.81H51.8376V105.785L54.9726 101.81ZM61.0497 105.05C61.0497 105.22 61.0397 105.43 61.0197 105.68C61.0097 105.93 60.9947 106.185 60.9747 106.445C60.9647 106.705 60.9497 106.935 60.9297 107.135C60.9097 107.335 60.8947 107.475 60.8847 107.555L64.6647 101.81H67.3497V110H65.1897V106.73C65.1897 106.46 65.1997 106.165 65.2197 105.845C65.2397 105.515 65.2597 105.21 65.2797 104.93C65.3097 104.64 65.3297 104.42 65.3397 104.27L61.5747 110H58.8897V101.81H61.0497V105.05ZM71.3656 105.815L68.7256 101.81H71.2606L72.8506 104.42L74.4556 101.81H76.9906L74.3206 105.815L77.1106 110H74.5756L72.8506 107.195L71.1256 110H68.5906L71.3656 105.815ZM91.8269 101.81V110H89.7419V105.98C89.7419 105.58 89.7469 105.19 89.7569 104.81C89.7769 104.43 89.8019 104.08 89.8319 103.76H89.7869L87.5219 110H85.8419L83.5469 103.745H83.4869C83.5269 104.075 83.5519 104.43 83.5619 104.81C83.5819 105.18 83.5919 105.59 83.5919 106.04V110H81.5069V101.81H84.6719L86.7119 107.36L88.7819 101.81H91.8269ZM97.5232 101.645C98.6232 101.645 99.4632 101.885 100.043 102.365C100.633 102.835 100.928 103.56 100.928 104.54V110H99.3682L98.9332 108.89H98.8732C98.6432 109.18 98.4032 109.42 98.1532 109.61C97.9132 109.8 97.6332 109.935 97.3132 110.015C97.0032 110.105 96.6182 110.15 96.1582 110.15C95.6782 110.15 95.2432 110.06 94.8532 109.88C94.4732 109.69 94.1732 109.405 93.9532 109.025C93.7332 108.635 93.6232 108.145 93.6232 107.555C93.6232 106.685 93.9282 106.045 94.5382 105.635C95.1482 105.215 96.0632 104.985 97.2832 104.945L98.7082 104.9V104.54C98.7082 104.11 98.5932 103.795 98.3632 103.595C98.1432 103.395 97.8332 103.295 97.4332 103.295C97.0332 103.295 96.6432 103.355 96.2632 103.475C95.8832 103.585 95.5032 103.725 95.1232 103.895L94.3882 102.38C94.8282 102.15 95.3132 101.97 95.8432 101.84C96.3832 101.71 96.9432 101.645 97.5232 101.645ZM97.8382 106.235C97.1182 106.255 96.6182 106.385 96.3382 106.625C96.0582 106.865 95.9182 107.18 95.9182 107.57C95.9182 107.91 96.0182 108.155 96.2182 108.305C96.4182 108.445 96.6782 108.515 96.9982 108.515C97.4782 108.515 97.8832 108.375 98.2132 108.095C98.5432 107.805 98.7082 107.4 98.7082 106.88V106.205L97.8382 106.235ZM115.411 101.81V110H103.216V101.81H105.451V108.32H108.196V101.81H110.431V108.32H113.176V101.81H115.411ZM119.907 105.05C119.907 105.22 119.897 105.43 119.877 105.68C119.867 105.93 119.852 106.185 119.832 106.445C119.822 106.705 119.807 106.935 119.787 107.135C119.767 107.335 119.752 107.475 119.742 107.555L123.522 101.81H126.207V110H124.047V106.73C124.047 106.46 124.057 106.165 124.077 105.845C124.097 105.515 124.117 105.21 124.137 104.93C124.167 104.64 124.187 104.42 124.197 104.27L120.432 110H117.747V101.81H119.907V105.05ZM130.778 101.81V104.96H133.898V101.81H136.133V110H133.898V106.625H130.778V110H128.543V101.81H130.778ZM141.835 101.645C142.935 101.645 143.775 101.885 144.355 102.365C144.945 102.835 145.24 103.56 145.24 104.54V110H143.68L143.245 108.89H143.185C142.955 109.18 142.715 109.42 142.465 109.61C142.225 109.8 141.945 109.935 141.625 110.015C141.315 110.105 140.93 110.15 140.47 110.15C139.99 110.15 139.555 110.06 139.165 109.88C138.785 109.69 138.485 109.405 138.265 109.025C138.045 108.635 137.935 108.145 137.935 107.555C137.935 106.685 138.24 106.045 138.85 105.635C139.46 105.215 140.375 104.985 141.595 104.945L143.02 104.9V104.54C143.02 104.11 142.905 103.795 142.675 103.595C142.455 103.395 142.145 103.295 141.745 103.295C141.345 103.295 140.955 103.355 140.575 103.475C140.195 103.585 139.815 103.725 139.435 103.895L138.7 102.38C139.14 102.15 139.625 101.97 140.155 101.84C140.695 101.71 141.255 101.645 141.835 101.645ZM142.15 106.235C141.43 106.255 140.93 106.385 140.65 106.625C140.37 106.865 140.23 107.18 140.23 107.57C140.23 107.91 140.33 108.155 140.53 108.305C140.73 108.445 140.99 108.515 141.31 108.515C141.79 108.515 142.195 108.375 142.525 108.095C142.855 107.805 143.02 107.4 143.02 106.88V106.205L142.15 106.235ZM149.207 105.815L146.567 101.81H149.102L150.692 104.42L152.297 101.81H154.832L152.162 105.815L154.952 110H152.417L150.692 107.195L148.967 110H146.432L149.207 105.815ZM13.43 118.955C13.43 119.395 13.29 119.77 13.01 120.08C12.74 120.39 12.335 120.59 11.795 120.68V120.74C12.365 120.81 12.82 121.005 13.16 121.325C13.51 121.645 13.685 122.055 13.685 122.555C13.685 122.905 13.615 123.23 13.475 123.53C13.345 123.83 13.135 124.09 12.845 124.31C12.555 124.53 12.18 124.7 11.72 124.82C11.27 124.94 10.72 125 10.07 125H6.17V116.81H10.07C10.71 116.81 11.28 116.88 11.78 117.02C12.29 117.15 12.69 117.37 12.98 117.68C13.28 117.99 13.43 118.415 13.43 118.955ZM11.375 122.435C11.375 122.115 11.25 121.885 11 121.745C10.75 121.595 10.375 121.52 9.875 121.52H8.405V123.455H9.92C10.34 123.455 10.685 123.38 10.955 123.23C11.235 123.07 11.375 122.805 11.375 122.435ZM11.165 119.135C11.165 118.875 11.065 118.685 10.865 118.565C10.665 118.445 10.37 118.385 9.98 118.385H8.405V120.005H9.725C10.195 120.005 10.55 119.94 10.79 119.81C11.04 119.67 11.165 119.445 11.165 119.135ZM18.9636 116.645C20.0636 116.645 20.9036 116.885 21.4836 117.365C22.0736 117.835 22.3686 118.56 22.3686 119.54V125H20.8086L20.3736 123.89H20.3136C20.0836 124.18 19.8436 124.42 19.5936 124.61C19.3536 124.8 19.0736 124.935 18.7536 125.015C18.4436 125.105 18.0586 125.15 17.5986 125.15C17.1186 125.15 16.6836 125.06 16.2936 124.88C15.9136 124.69 15.6136 124.405 15.3936 124.025C15.1736 123.635 15.0636 123.145 15.0636 122.555C15.0636 121.685 15.3686 121.045 15.9786 120.635C16.5886 120.215 17.5036 119.985 18.7236 119.945L20.1486 119.9V119.54C20.1486 119.11 20.0336 118.795 19.8036 118.595C19.5836 118.395 19.2736 118.295 18.8736 118.295C18.4736 118.295 18.0836 118.355 17.7036 118.475C17.3236 118.585 16.9436 118.725 16.5636 118.895L15.8286 117.38C16.2686 117.15 16.7536 116.97 17.2836 116.84C17.8236 116.71 18.3836 116.645 18.9636 116.645ZM19.2786 121.235C18.5586 121.255 18.0586 121.385 17.7786 121.625C17.4986 121.865 17.3586 122.18 17.3586 122.57C17.3586 122.91 17.4586 123.155 17.6586 123.305C17.8586 123.445 18.1186 123.515 18.4386 123.515C18.9186 123.515 19.3236 123.375 19.6536 123.095C19.9836 122.805 20.1486 122.4 20.1486 121.88V121.205L19.2786 121.235ZM34.9763 116.81V125H32.8913V120.98C32.8913 120.58 32.8963 120.19 32.9063 119.81C32.9263 119.43 32.9513 119.08 32.9813 118.76H32.9363L30.6713 125H28.9913L26.6963 118.745H26.6363C26.6763 119.075 26.7013 119.43 26.7113 119.81C26.7313 120.18 26.7413 120.59 26.7413 121.04V125H24.6563V116.81H27.8213L29.8613 122.36L31.9313 116.81H34.9763ZM47.722 118.955C47.722 119.395 47.582 119.77 47.302 120.08C47.032 120.39 46.627 120.59 46.087 120.68V120.74C46.657 120.81 47.112 121.005 47.452 121.325C47.802 121.645 47.977 122.055 47.977 122.555C47.977 122.905 47.907 123.23 47.767 123.53C47.637 123.83 47.427 124.09 47.137 124.31C46.847 124.53 46.472 124.7 46.012 124.82C45.562 124.94 45.012 125 44.362 125H40.462V116.81H44.362C45.002 116.81 45.572 116.88 46.072 117.02C46.582 117.15 46.982 117.37 47.272 117.68C47.572 117.99 47.722 118.415 47.722 118.955ZM45.667 122.435C45.667 122.115 45.542 121.885 45.292 121.745C45.042 121.595 44.667 121.52 44.167 121.52H42.697V123.455H44.212C44.632 123.455 44.977 123.38 45.247 123.23C45.527 123.07 45.667 122.805 45.667 122.435ZM45.457 119.135C45.457 118.875 45.357 118.685 45.157 118.565C44.957 118.445 44.662 118.385 44.272 118.385H42.697V120.005H44.017C44.487 120.005 44.842 119.94 45.082 119.81C45.332 119.67 45.457 119.445 45.457 119.135ZM53.2556 116.645C54.3556 116.645 55.1956 116.885 55.7756 117.365C56.3656 117.835 56.6606 118.56 56.6606 119.54V125H55.1006L54.6656 123.89H54.6056C54.3756 124.18 54.1356 124.42 53.8856 124.61C53.6456 124.8 53.3656 124.935 53.0456 125.015C52.7356 125.105 52.3506 125.15 51.8906 125.15C51.4106 125.15 50.9756 125.06 50.5856 124.88C50.2056 124.69 49.9056 124.405 49.6856 124.025C49.4656 123.635 49.3556 123.145 49.3556 122.555C49.3556 121.685 49.6606 121.045 50.2706 120.635C50.8806 120.215 51.7956 119.985 53.0156 119.945L54.4406 119.9V119.54C54.4406 119.11 54.3256 118.795 54.0956 118.595C53.8756 118.395 53.5656 118.295 53.1656 118.295C52.7656 118.295 52.3756 118.355 51.9956 118.475C51.6156 118.585 51.2356 118.725 50.8556 118.895L50.1206 117.38C50.5606 117.15 51.0456 116.97 51.5756 116.84C52.1156 116.71 52.6756 116.645 53.2556 116.645ZM53.5706 121.235C52.8506 121.255 52.3506 121.385 52.0706 121.625C51.7906 121.865 51.6506 122.18 51.6506 122.57C51.6506 122.91 51.7506 123.155 51.9506 123.305C52.1506 123.445 52.4106 123.515 52.7306 123.515C53.2106 123.515 53.6156 123.375 53.9456 123.095C54.2756 122.805 54.4406 122.4 54.4406 121.88V121.205L53.5706 121.235ZM69.2683 116.81V125H67.1833V120.98C67.1833 120.58 67.1883 120.19 67.1983 119.81C67.2183 119.43 67.2433 119.08 67.2733 118.76H67.2283L64.9633 125H63.2833L60.9883 118.745H60.9283C60.9683 119.075 60.9933 119.43 61.0033 119.81C61.0233 120.18 61.0333 120.59 61.0333 121.04V125H58.9483V116.81H62.1133L64.1533 122.36L66.2233 116.81H69.2683ZM82.119 116.81V123.365H83.319V127.94H81.309V125H75.804V127.94H73.794V123.365H74.484C74.844 122.815 75.149 122.19 75.399 121.49C75.649 120.78 75.849 120.025 75.999 119.225C76.149 118.425 76.259 117.62 76.329 116.81H82.119ZM78.204 118.49C78.124 119.09 78.024 119.675 77.904 120.245C77.784 120.805 77.634 121.345 77.454 121.865C77.284 122.385 77.074 122.885 76.824 123.365H79.884V118.49H78.204ZM92.1549 120.89C92.1549 121.57 92.0599 122.175 91.8699 122.705C91.6899 123.235 91.4249 123.685 91.0749 124.055C90.7349 124.415 90.3199 124.69 89.8299 124.88C89.3399 125.06 88.7849 125.15 88.1649 125.15C87.5949 125.15 87.0649 125.06 86.5749 124.88C86.0949 124.69 85.6799 124.415 85.3299 124.055C84.9799 123.685 84.7049 123.235 84.5049 122.705C84.3149 122.175 84.2199 121.57 84.2199 120.89C84.2199 119.98 84.3799 119.215 84.6999 118.595C85.0199 117.965 85.4799 117.485 86.0799 117.155C86.6799 116.825 87.3899 116.66 88.2099 116.66C88.9799 116.66 89.6599 116.825 90.2499 117.155C90.8399 117.485 91.3049 117.965 91.6449 118.595C91.9849 119.215 92.1549 119.98 92.1549 120.89ZM86.4999 120.89C86.4999 121.43 86.5549 121.885 86.6649 122.255C86.7849 122.615 86.9699 122.89 87.2199 123.08C87.4699 123.26 87.7949 123.35 88.1949 123.35C88.5949 123.35 88.9149 123.26 89.1549 123.08C89.4049 122.89 89.5849 122.615 89.6949 122.255C89.8149 121.885 89.8749 121.43 89.8749 120.89C89.8749 120.35 89.8149 119.9 89.6949 119.54C89.5849 119.18 89.4049 118.91 89.1549 118.73C88.9049 118.55 88.5799 118.46 88.1799 118.46C87.5899 118.46 87.1599 118.665 86.8899 119.075C86.6299 119.475 86.4999 120.08 86.4999 120.89ZM97.332 125.15C96.522 125.15 95.832 125.005 95.262 124.715C94.692 124.415 94.257 123.955 93.957 123.335C93.657 122.715 93.507 121.92 93.507 120.95C93.507 119.95 93.677 119.135 94.017 118.505C94.357 117.875 94.827 117.41 95.427 117.11C96.037 116.81 96.737 116.66 97.527 116.66C98.087 116.66 98.572 116.715 98.982 116.825C99.402 116.935 99.767 117.065 100.077 117.215L99.417 118.94C99.067 118.8 98.737 118.685 98.427 118.595C98.127 118.505 97.827 118.46 97.527 118.46C97.137 118.46 96.812 118.555 96.552 118.745C96.292 118.925 96.097 119.2 95.967 119.57C95.847 119.93 95.787 120.385 95.787 120.935C95.787 121.475 95.852 121.925 95.982 122.285C96.122 122.635 96.322 122.9 96.582 123.08C96.842 123.25 97.157 123.335 97.527 123.335C97.997 123.335 98.412 123.275 98.772 123.155C99.132 123.025 99.482 122.85 99.822 122.63V124.535C99.482 124.755 99.122 124.91 98.742 125C98.372 125.1 97.902 125.15 97.332 125.15ZM108.487 118.49H105.802V125H103.567V118.49H100.882V116.81H108.487V118.49ZM113.358 116.645C114.458 116.645 115.298 116.885 115.878 117.365C116.468 117.835 116.763 118.56 116.763 119.54V125H115.203L114.768 123.89H114.708C114.478 124.18 114.238 124.42 113.988 124.61C113.748 124.8 113.468 124.935 113.148 125.015C112.838 125.105 112.453 125.15 111.993 125.15C111.513 125.15 111.078 125.06 110.688 124.88C110.308 124.69 110.008 124.405 109.788 124.025C109.568 123.635 109.458 123.145 109.458 122.555C109.458 121.685 109.763 121.045 110.373 120.635C110.983 120.215 111.898 119.985 113.118 119.945L114.543 119.9V119.54C114.543 119.11 114.428 118.795 114.198 118.595C113.978 118.395 113.668 118.295 113.268 118.295C112.868 118.295 112.478 118.355 112.098 118.475C111.718 118.585 111.338 118.725 110.958 118.895L110.223 117.38C110.663 117.15 111.148 116.97 111.678 116.84C112.218 116.71 112.778 116.645 113.358 116.645ZM113.673 121.235C112.953 121.255 112.453 121.385 112.173 121.625C111.893 121.865 111.753 122.18 111.753 122.57C111.753 122.91 111.853 123.155 112.053 123.305C112.253 123.445 112.513 123.515 112.833 123.515C113.313 123.515 113.718 123.375 114.048 123.095C114.378 122.805 114.543 122.4 114.543 121.88V121.205L113.673 121.235ZM126.311 118.955C126.311 119.395 126.171 119.77 125.891 120.08C125.621 120.39 125.216 120.59 124.676 120.68V120.74C125.246 120.81 125.701 121.005 126.041 121.325C126.391 121.645 126.566 122.055 126.566 122.555C126.566 122.905 126.496 123.23 126.356 123.53C126.226 123.83 126.016 124.09 125.726 124.31C125.436 124.53 125.061 124.7 124.601 124.82C124.151 124.94 123.601 125 122.951 125H119.051V116.81H122.951C123.591 116.81 124.161 116.88 124.661 117.02C125.171 117.15 125.571 117.37 125.861 117.68C126.161 117.99 126.311 118.415 126.311 118.955ZM124.256 122.435C124.256 122.115 124.131 121.885 123.881 121.745C123.631 121.595 123.256 121.52 122.756 121.52H121.286V123.455H122.801C123.221 123.455 123.566 123.38 123.836 123.23C124.116 123.07 124.256 122.805 124.256 122.435ZM124.046 119.135C124.046 118.875 123.946 118.685 123.746 118.565C123.546 118.445 123.251 118.385 122.861 118.385H121.286V120.005H122.606C123.076 120.005 123.431 119.94 123.671 119.81C123.921 119.67 124.046 119.445 124.046 119.135ZM135.819 125H133.584V118.49H131.529C131.429 119.69 131.304 120.715 131.154 121.565C131.014 122.405 130.834 123.09 130.614 123.62C130.404 124.15 130.134 124.54 129.804 124.79C129.474 125.03 129.069 125.15 128.589 125.15C128.329 125.15 128.094 125.13 127.884 125.09C127.674 125.05 127.484 124.99 127.314 124.91V123.125C127.424 123.165 127.539 123.2 127.659 123.23C127.779 123.26 127.904 123.275 128.034 123.275C128.174 123.275 128.304 123.22 128.424 123.11C128.554 123 128.674 122.805 128.784 122.525C128.904 122.245 129.014 121.86 129.114 121.37C129.214 120.88 129.304 120.265 129.384 119.525C129.474 118.775 129.554 117.87 129.624 116.81H135.819V125ZM139.397 125H136.982L139.187 121.76C138.907 121.64 138.642 121.48 138.392 121.28C138.152 121.07 137.957 120.805 137.807 120.485C137.657 120.165 137.582 119.785 137.582 119.345C137.582 118.525 137.892 117.9 138.512 117.47C139.132 117.03 139.927 116.81 140.897 116.81H144.707V125H142.472V121.955H141.242L139.397 125ZM139.772 119.36C139.772 119.7 139.907 119.97 140.177 120.17C140.447 120.36 140.797 120.455 141.227 120.455H142.472V118.385H140.942C140.542 118.385 140.247 118.485 140.057 118.685C139.867 118.875 139.772 119.1 139.772 119.36ZM158.354 120.89C158.354 121.8 158.199 122.575 157.889 123.215C157.579 123.845 157.134 124.325 156.554 124.655C155.984 124.985 155.304 125.15 154.514 125.15C153.844 125.15 153.239 125.025 152.699 124.775C152.169 124.515 151.734 124.125 151.394 123.605C151.064 123.085 150.849 122.425 150.749 121.625H149.279V125H147.044V116.81H149.279V119.96H150.779C150.879 119.25 151.094 118.65 151.424 118.16C151.764 117.67 152.199 117.3 152.729 117.05C153.269 116.79 153.879 116.66 154.559 116.66C155.299 116.66 155.954 116.825 156.524 117.155C157.094 117.485 157.539 117.965 157.859 118.595C158.189 119.215 158.354 119.98 158.354 120.89ZM152.999 120.89C152.999 121.43 153.049 121.885 153.149 122.255C153.259 122.615 153.429 122.89 153.659 123.08C153.889 123.26 154.184 123.35 154.544 123.35C154.904 123.35 155.194 123.26 155.414 123.08C155.644 122.89 155.809 122.615 155.909 122.255C156.019 121.885 156.074 121.43 156.074 120.89C156.074 120.35 156.019 119.9 155.909 119.54C155.809 119.18 155.644 118.91 155.414 118.73C155.194 118.55 154.899 118.46 154.529 118.46C154.169 118.46 153.874 118.55 153.644 118.73C153.424 118.91 153.259 119.18 153.149 119.54C153.049 119.9 152.999 120.35 152.999 120.89ZM166.832 118.49H164.147V125H161.912V118.49H159.227V116.81H166.832V118.49ZM9.155 131.66C9.745 131.66 10.295 131.74 10.805 131.9C11.325 132.05 11.74 132.285 12.05 132.605C12.37 132.925 12.53 133.335 12.53 133.835C12.53 134.325 12.38 134.715 12.08 135.005C11.79 135.295 11.395 135.505 10.895 135.635V135.71C11.245 135.79 11.56 135.905 11.84 136.055C12.12 136.195 12.34 136.39 12.5 136.64C12.67 136.88 12.755 137.205 12.755 137.615C12.755 138.065 12.61 138.485 12.32 138.875C12.04 139.255 11.6 139.565 11 139.805C10.41 140.035 9.65 140.15 8.72 140.15C8.28 140.15 7.865 140.13 7.475 140.09C7.085 140.05 6.73 139.995 6.41 139.925C6.09 139.845 5.81 139.75 5.57 139.64V137.795C5.91 137.955 6.325 138.1 6.815 138.23C7.315 138.36 7.845 138.425 8.405 138.425C8.815 138.425 9.18 138.395 9.5 138.335C9.83 138.275 10.09 138.175 10.28 138.035C10.48 137.895 10.58 137.71 10.58 137.48C10.58 137.26 10.495 137.08 10.325 136.94C10.155 136.79 9.9 136.68 9.56 136.61C9.22 136.54 8.785 136.505 8.255 136.505H7.385V134.96H8.21C8.95 134.96 9.52 134.9 9.92 134.78C10.33 134.66 10.535 134.435 10.535 134.105C10.535 133.845 10.405 133.65 10.145 133.52C9.885 133.38 9.46 133.31 8.87 133.31C8.48 133.31 8.055 133.355 7.595 133.445C7.135 133.535 6.7 133.665 6.29 133.835L5.63 132.275C6.1 132.095 6.615 131.95 7.175 131.84C7.735 131.72 8.395 131.66 9.155 131.66ZM17.8503 131.645C18.9503 131.645 19.7903 131.885 20.3703 132.365C20.9603 132.835 21.2553 133.56 21.2553 134.54V140H19.6953L19.2603 138.89H19.2003C18.9703 139.18 18.7303 139.42 18.4803 139.61C18.2403 139.8 17.9603 139.935 17.6403 140.015C17.3303 140.105 16.9453 140.15 16.4853 140.15C16.0053 140.15 15.5703 140.06 15.1803 139.88C14.8003 139.69 14.5003 139.405 14.2803 139.025C14.0603 138.635 13.9503 138.145 13.9503 137.555C13.9503 136.685 14.2553 136.045 14.8653 135.635C15.4753 135.215 16.3903 134.985 17.6103 134.945L19.0353 134.9V134.54C19.0353 134.11 18.9203 133.795 18.6903 133.595C18.4703 133.395 18.1603 133.295 17.7603 133.295C17.3603 133.295 16.9703 133.355 16.5903 133.475C16.2103 133.585 15.8303 133.725 15.4503 133.895L14.7153 132.38C15.1553 132.15 15.6403 131.97 16.1703 131.84C16.7103 131.71 17.2703 131.645 17.8503 131.645ZM18.1653 136.235C17.4453 136.255 16.9453 136.385 16.6653 136.625C16.3853 136.865 16.2453 137.18 16.2453 137.57C16.2453 137.91 16.3453 138.155 16.5453 138.305C16.7453 138.445 17.0053 138.515 17.3253 138.515C17.8053 138.515 18.2103 138.375 18.5403 138.095C18.8703 137.805 19.0353 137.4 19.0353 136.88V136.205L18.1653 136.235ZM28.913 131.81H31.373L28.133 135.74L31.658 140H29.123L25.778 135.845V140H23.543V131.81H25.778V135.785L28.913 131.81ZM36.1902 131.645C37.2902 131.645 38.1302 131.885 38.7102 132.365C39.3002 132.835 39.5952 133.56 39.5952 134.54V140H38.0352L37.6002 138.89H37.5402C37.3102 139.18 37.0702 139.42 36.8202 139.61C36.5802 139.8 36.3002 139.935 35.9802 140.015C35.6702 140.105 35.2852 140.15 34.8252 140.15C34.3452 140.15 33.9102 140.06 33.5202 139.88C33.1402 139.69 32.8402 139.405 32.6202 139.025C32.4002 138.635 32.2902 138.145 32.2902 137.555C32.2902 136.685 32.5952 136.045 33.2052 135.635C33.8152 135.215 34.7302 134.985 35.9502 134.945L37.3752 134.9V134.54C37.3752 134.11 37.2602 133.795 37.0302 133.595C36.8102 133.395 36.5002 133.295 36.1002 133.295C35.7002 133.295 35.3102 133.355 34.9302 133.475C34.5502 133.585 34.1702 133.725 33.7902 133.895L33.0552 132.38C33.4952 132.15 33.9802 131.97 34.5102 131.84C35.0502 131.71 35.6102 131.645 36.1902 131.645ZM36.5052 136.235C35.7852 136.255 35.2852 136.385 35.0052 136.625C34.7252 136.865 34.5852 137.18 34.5852 137.57C34.5852 137.91 34.6852 138.155 34.8852 138.305C35.0852 138.445 35.3452 138.515 35.6652 138.515C36.1452 138.515 36.5502 138.375 36.8802 138.095C37.2102 137.805 37.3752 137.4 37.3752 136.88V136.205L36.5052 136.235ZM44.8679 131.66C45.4579 131.66 46.0079 131.74 46.5179 131.9C47.0379 132.05 47.4529 132.285 47.7629 132.605C48.0829 132.925 48.2429 133.335 48.2429 133.835C48.2429 134.325 48.0929 134.715 47.7929 135.005C47.5029 135.295 47.1079 135.505 46.6079 135.635V135.71C46.9579 135.79 47.2729 135.905 47.5529 136.055C47.8329 136.195 48.0529 136.39 48.2129 136.64C48.3829 136.88 48.4679 137.205 48.4679 137.615C48.4679 138.065 48.3229 138.485 48.0329 138.875C47.7529 139.255 47.3129 139.565 46.7129 139.805C46.1229 140.035 45.3629 140.15 44.4329 140.15C43.9929 140.15 43.5779 140.13 43.1879 140.09C42.7979 140.05 42.4429 139.995 42.1229 139.925C41.8029 139.845 41.5229 139.75 41.2829 139.64V137.795C41.6229 137.955 42.0379 138.1 42.5279 138.23C43.0279 138.36 43.5579 138.425 44.1179 138.425C44.5279 138.425 44.8929 138.395 45.2129 138.335C45.5429 138.275 45.8029 138.175 45.9929 138.035C46.1929 137.895 46.2929 137.71 46.2929 137.48C46.2929 137.26 46.2079 137.08 46.0379 136.94C45.8679 136.79 45.6129 136.68 45.2729 136.61C44.9329 136.54 44.4979 136.505 43.9679 136.505H43.0979V134.96H43.9229C44.6629 134.96 45.2329 134.9 45.6329 134.78C46.0429 134.66 46.2479 134.435 46.2479 134.105C46.2479 133.845 46.1179 133.65 45.8579 133.52C45.5979 133.38 45.1729 133.31 44.5829 133.31C44.1929 133.31 43.7679 133.355 43.3079 133.445C42.8479 133.535 42.4129 133.665 42.0029 133.835L41.3429 132.275C41.8129 132.095 42.3279 131.95 42.8879 131.84C43.4479 131.72 44.1079 131.66 44.8679 131.66ZM50.2032 140V131.81H52.4382V134.975H53.5182C54.3582 134.975 55.0482 135.065 55.5882 135.245C56.1282 135.415 56.5282 135.68 56.7882 136.04C57.0582 136.4 57.1932 136.85 57.1932 137.39C57.1932 137.92 57.0682 138.38 56.8182 138.77C56.5782 139.16 56.1932 139.465 55.6632 139.685C55.1432 139.895 54.4532 140 53.5932 140H50.2032ZM53.4732 138.455C53.9132 138.455 54.2682 138.375 54.5382 138.215C54.8182 138.055 54.9582 137.79 54.9582 137.42C54.9582 137.1 54.8282 136.87 54.5682 136.73C54.3182 136.59 53.9432 136.52 53.4432 136.52H52.4382V138.455H53.4732ZM58.3782 140V131.81H60.6132V140H58.3782ZM62.8723 136.61L62.6323 129.2H65.1223L64.8823 136.61H62.8723ZM63.8623 140.24C63.4723 140.24 63.1523 140.115 62.9023 139.865C62.6523 139.615 62.5273 139.295 62.5273 138.905C62.5273 138.525 62.6523 138.205 62.9023 137.945C63.1523 137.675 63.4723 137.54 63.8623 137.54C64.2423 137.54 64.5623 137.675 64.8223 137.945C65.0923 138.205 65.2273 138.525 65.2273 138.905C65.2273 139.295 65.0923 139.615 64.8223 139.865C64.5623 140.115 64.2423 140.24 63.8623 140.24Z" fill="#AD3B65"/>
</svg>
