<svg width="192" height="138" viewBox="0 0 192 138" fill="none" xmlns="http://www.w3.org/2000/svg">
<path d="M100.609 60.4122L102.39 62.1666L100.609 60.4122ZM105.496 55.4509L103.715 53.6965L105.496 55.4509ZM141.039 37.271L141.419 39.7419L141.039 37.271ZM191.755 29.467L164.851 19.0033L169.241 47.535L191.755 29.467ZM102.39 62.1666L107.277 57.2053L103.715 53.6965L98.8282 58.6578L102.39 62.1666ZM141.419 39.7419L169.897 35.3598L169.137 30.418L140.659 34.8L141.419 39.7419ZM107.277 57.2053C116.482 47.8612 128.456 41.7366 141.419 39.7419L140.659 34.8C126.631 36.9585 113.675 43.5857 103.715 53.6965L107.277 57.2053ZM89.7544 92.9996C89.7546 81.4615 94.2933 70.3865 102.39 62.1666L98.8282 58.6578C89.8098 67.8131 84.7546 80.1484 84.7544 92.9995L89.7544 92.9996Z" fill="#007268" fill-opacity="0.6"/>
<rect y="93" width="192" height="45" rx="10" fill="#007268" fill-opacity="0.6"/>
<path d="M35.13 111.638C34.522 111.638 33.9203 111.727 33.325 111.904C32.7297 112.069 32.147 112.271 31.577 112.512L30.665 110.194C31.3363 109.903 32.0457 109.675 32.793 109.51C33.5403 109.333 34.3383 109.244 35.187 109.244C36.1877 109.244 37.0743 109.402 37.847 109.719C38.6323 110.023 39.291 110.479 39.823 111.087C40.3677 111.682 40.7793 112.417 41.058 113.291C41.3493 114.152 41.495 115.134 41.495 116.236C41.495 117.629 41.2607 118.852 40.792 119.903C40.3233 120.942 39.6013 121.752 38.626 122.335C37.6633 122.905 36.4283 123.19 34.921 123.19C34.1483 123.19 33.4453 123.133 32.812 123.019C32.1913 122.905 31.558 122.728 30.912 122.487V120.074C31.634 120.302 32.299 120.479 32.907 120.606C33.5277 120.733 34.142 120.796 34.75 120.796C35.3327 120.796 35.8457 120.726 36.289 120.587C36.745 120.435 37.125 120.22 37.429 119.941C37.7457 119.65 37.9927 119.289 38.17 118.858C38.3473 118.415 38.4487 117.908 38.474 117.338H32.584V114.982H38.455C38.4423 114.45 38.3537 113.981 38.189 113.576C38.0243 113.158 37.7963 112.81 37.505 112.531C37.2137 112.24 36.8653 112.018 36.46 111.866C36.0673 111.714 35.624 111.638 35.13 111.638ZM52.6686 114.754H49.2676V123H46.4366V114.754H43.0356V112.626H52.6686V114.754ZM63.821 117.794C63.821 118.655 63.7007 119.422 63.46 120.093C63.232 120.764 62.8964 121.334 62.453 121.803C62.0224 122.259 61.4967 122.607 60.876 122.848C60.2554 123.076 59.5524 123.19 58.767 123.19C58.045 123.19 57.3737 123.076 56.753 122.848C56.145 122.607 55.6194 122.259 55.176 121.803C54.7327 121.334 54.3844 120.764 54.131 120.093C53.8904 119.422 53.77 118.655 53.77 117.794C53.77 116.641 53.9727 115.672 54.378 114.887C54.7834 114.089 55.366 113.481 56.126 113.063C56.886 112.645 57.7854 112.436 58.824 112.436C59.7994 112.436 60.6607 112.645 61.408 113.063C62.1554 113.481 62.7444 114.089 63.175 114.887C63.6057 115.672 63.821 116.641 63.821 117.794ZM56.658 117.794C56.658 118.478 56.7277 119.054 56.867 119.523C57.019 119.979 57.2534 120.327 57.57 120.568C57.8867 120.796 58.2984 120.91 58.805 120.91C59.3117 120.91 59.717 120.796 60.021 120.568C60.3377 120.327 60.5657 119.979 60.705 119.523C60.857 119.054 60.933 118.478 60.933 117.794C60.933 117.11 60.857 116.54 60.705 116.084C60.5657 115.628 60.3377 115.286 60.021 115.058C59.7044 114.83 59.2927 114.716 58.786 114.716C58.0387 114.716 57.494 114.976 57.152 115.495C56.8227 116.002 56.658 116.768 56.658 117.794ZM65.6287 124.805C65.8694 124.438 66.0657 124.127 66.2177 123.874C66.3824 123.621 66.509 123.38 66.5977 123.152C66.699 122.937 66.7687 122.696 66.8067 122.43C66.8447 122.151 66.8637 121.816 66.8637 121.423L69.0677 121.233C69.0677 121.765 68.979 122.272 68.8017 122.753C68.637 123.234 68.409 123.709 68.1177 124.178C67.839 124.647 67.5287 125.141 67.1867 125.66L65.6287 124.805ZM67.3387 122.924C66.8447 122.924 66.4394 122.766 66.1227 122.449C65.806 122.132 65.6477 121.727 65.6477 121.233C65.6477 120.752 65.806 120.346 66.1227 120.017C66.4394 119.675 66.8447 119.504 67.3387 119.504C67.82 119.504 68.2254 119.675 68.5547 120.017C68.8967 120.346 69.0677 120.752 69.0677 121.233C69.0677 121.727 68.8967 122.132 68.5547 122.449C68.2254 122.766 67.82 122.924 67.3387 122.924ZM82.2957 112.626H85.4117L81.3077 117.604L85.7727 123H82.5617L78.3247 117.737V123H75.4937V112.626H78.3247V117.661L82.2957 112.626ZM91.1043 123.19C90.0783 123.19 89.2043 123.006 88.4823 122.639C87.7603 122.259 87.2093 121.676 86.8293 120.891C86.4493 120.106 86.2593 119.099 86.2593 117.87C86.2593 116.603 86.4746 115.571 86.9053 114.773C87.336 113.975 87.9313 113.386 88.6913 113.006C89.464 112.626 90.3506 112.436 91.3513 112.436C92.0606 112.436 92.675 112.506 93.1943 112.645C93.7263 112.784 94.1886 112.949 94.5813 113.139L93.7453 115.324C93.302 115.147 92.884 115.001 92.4913 114.887C92.1113 114.773 91.7313 114.716 91.3513 114.716C90.8573 114.716 90.4456 114.836 90.1163 115.077C89.787 115.305 89.54 115.653 89.3753 116.122C89.2233 116.578 89.1473 117.154 89.1473 117.851C89.1473 118.535 89.2296 119.105 89.3943 119.561C89.5716 120.004 89.825 120.34 90.1543 120.568C90.4836 120.783 90.8826 120.891 91.3513 120.891C91.9466 120.891 92.4723 120.815 92.9283 120.663C93.3843 120.498 93.8276 120.277 94.2583 119.998V122.411C93.8276 122.69 93.3716 122.886 92.8903 123C92.4216 123.127 91.8263 123.19 91.1043 123.19ZM105.234 114.754H101.833V123H99.0021V114.754H95.6011V112.626H105.234V114.754ZM111.404 112.417C112.797 112.417 113.861 112.721 114.596 113.329C115.343 113.924 115.717 114.843 115.717 116.084V123H113.741L113.19 121.594H113.114C112.823 121.961 112.519 122.265 112.202 122.506C111.898 122.747 111.543 122.918 111.138 123.019C110.745 123.133 110.258 123.19 109.675 123.19C109.067 123.19 108.516 123.076 108.022 122.848C107.541 122.607 107.161 122.246 106.882 121.765C106.603 121.271 106.464 120.65 106.464 119.903C106.464 118.801 106.85 117.99 107.623 117.471C108.396 116.939 109.555 116.648 111.1 116.597L112.905 116.54V116.084C112.905 115.539 112.759 115.14 112.468 114.887C112.189 114.634 111.797 114.507 111.29 114.507C110.783 114.507 110.289 114.583 109.808 114.735C109.327 114.874 108.845 115.052 108.364 115.267L107.433 113.348C107.99 113.057 108.605 112.829 109.276 112.664C109.96 112.499 110.669 112.417 111.404 112.417ZM111.803 118.231C110.891 118.256 110.258 118.421 109.903 118.725C109.548 119.029 109.371 119.428 109.371 119.922C109.371 120.353 109.498 120.663 109.751 120.853C110.004 121.03 110.334 121.119 110.739 121.119C111.347 121.119 111.86 120.942 112.278 120.587C112.696 120.22 112.905 119.707 112.905 119.048V118.193L111.803 118.231ZM127.203 114.754H123.802V123H120.971V114.754H117.57V112.626H127.203V114.754ZM131.853 116.73C131.853 116.945 131.84 117.211 131.815 117.528C131.802 117.845 131.783 118.168 131.758 118.497C131.745 118.826 131.726 119.118 131.701 119.371C131.675 119.624 131.656 119.802 131.644 119.903L136.432 112.626H139.833V123H137.097V118.858C137.097 118.516 137.109 118.142 137.135 117.737C137.16 117.319 137.185 116.933 137.211 116.578C137.249 116.211 137.274 115.932 137.287 115.742L132.518 123H129.117V112.626H131.853V116.73ZM142.26 124.805C142.5 124.438 142.697 124.127 142.849 123.874C143.013 123.621 143.14 123.38 143.229 123.152C143.33 122.937 143.4 122.696 143.438 122.43C143.476 122.151 143.495 121.816 143.495 121.423L145.699 121.233C145.699 121.765 145.61 122.272 145.433 122.753C145.268 123.234 145.04 123.709 144.749 124.178C144.47 124.647 144.16 125.141 143.818 125.66L142.26 124.805ZM143.97 122.924C143.476 122.924 143.07 122.766 142.754 122.449C142.437 122.132 142.279 121.727 142.279 121.233C142.279 120.752 142.437 120.346 142.754 120.017C143.07 119.675 143.476 119.504 143.97 119.504C144.451 119.504 144.856 119.675 145.186 120.017C145.528 120.346 145.699 120.752 145.699 121.233C145.699 121.727 145.528 122.132 145.186 122.449C144.856 122.766 144.451 122.924 143.97 122.924ZM153.702 123H150.643L153.436 118.896C153.081 118.744 152.745 118.541 152.429 118.288C152.125 118.022 151.878 117.686 151.688 117.281C151.498 116.876 151.403 116.394 151.403 115.837C151.403 114.798 151.795 114.007 152.581 113.462C153.366 112.905 154.373 112.626 155.602 112.626H160.428V123H157.597V119.143H156.039L153.702 123ZM154.177 115.856C154.177 116.287 154.348 116.629 154.69 116.882C155.032 117.123 155.475 117.243 156.02 117.243H157.597V114.621H155.659C155.152 114.621 154.778 114.748 154.538 115.001C154.297 115.242 154.177 115.527 154.177 115.856Z" fill="white"/>
</svg>
