<svg width="22" height="17" viewBox="0 0 22 17" fill="none" xmlns="http://www.w3.org/2000/svg">
<path d="M6.2 0.0999973L10.5 2.3C9.7 2.9 8.93333 3.53333 8.2 4.2C7.46667 4.83333 6.8 5.5 6.2 6.2C5.63333 6.86667 5.16667 7.55 4.8 8.25C4.46667 8.95 4.26667 9.66666 4.2 10.4L3.25 9.5C3.51667 9.23333 3.8 9.06666 4.1 9C4.43333 8.9 4.8 8.85 5.2 8.85C6.46667 8.85 7.5 9.21666 8.3 9.95C9.1 10.65 9.5 11.55 9.5 12.65C9.5 13.7167 9.1 14.6333 8.3 15.4C7.53333 16.1667 6.5 16.55 5.2 16.55C3.86667 16.55 2.76667 16.15 1.9 15.35C1.03333 14.55 0.6 13.3 0.6 11.6C0.6 10.5333 0.733333 9.48333 1 8.45C1.26667 7.41667 1.63333 6.41667 2.1 5.45C2.6 4.48333 3.2 3.55 3.9 2.65C4.6 1.75 5.36667 0.899999 6.2 0.0999973ZM17.5047 0.0999973L21.8047 2.3C21.0047 2.9 20.238 3.53333 19.5047 4.2C18.7714 4.83333 18.1047 5.5 17.5047 6.2C16.938 6.86667 16.4714 7.55 16.1047 8.25C15.7714 8.95 15.5714 9.66666 15.5047 10.4L14.5547 9.5C14.8214 9.23333 15.1047 9.06666 15.4047 9C15.738 8.9 16.1047 8.85 16.5047 8.85C17.7714 8.85 18.8047 9.21666 19.6047 9.95C20.4047 10.65 20.8047 11.55 20.8047 12.65C20.8047 13.7167 20.4047 14.6333 19.6047 15.4C18.838 16.1667 17.8047 16.55 16.5047 16.55C15.1714 16.55 14.0714 16.15 13.2047 15.35C12.338 14.55 11.9047 13.3 11.9047 11.6C11.9047 10.5333 12.038 9.48333 12.3047 8.45C12.5714 7.41667 12.938 6.41667 13.4047 5.45C13.9047 4.48333 14.5047 3.55 15.2047 2.65C15.9047 1.75 16.6714 0.899999 17.5047 0.0999973Z" fill="#007268"/>
</svg>
