<svg width="31" height="33" viewBox="0 0 31 33" fill="none" xmlns="http://www.w3.org/2000/svg">
<path d="M15.1794 9.85228L27.7977 14.7362C28.2303 14.9037 28.2215 15.5188 27.7843 15.6738L15.1652 20.1477C15.0555 20.1867 14.9356 20.186 14.8262 20.146L2.62202 15.6773C2.19153 15.5197 2.18244 14.9142 2.608 14.7437L14.813 9.85443C14.9305 9.80738 15.0614 9.80661 15.1794 9.85228Z" stroke="#CCCCCC"/>
<line x1="7" y1="17.25" x2="7" y2="23.25" stroke="#CCCCCC"/>
<line x1="22" y1="17.25" x2="22" y2="23.25" stroke="#CCCCCC"/>
<path d="M25.5 16.5L25.5 24.25" stroke="#CCCCCC"/>
<rect x="25.5547" y="23.7071" width="4.0725" height="4.0725" rx="0.5" transform="rotate(44.3625 25.5547 23.7071)" stroke="#CCCCCC"/>
<path d="M25 32C25 32.2761 25.2239 32.5 25.5 32.5C25.7761 32.5 26 32.2761 26 32H25ZM25 29V32H26V29H25Z" fill="#CCCCCC"/>
<path d="M22 23C22 24.5 19.1944 25 14.5 25C9.80558 25 7 24.6569 7 23" stroke="#CCCCCC"/>
</svg>
