<svg width="70" height="42" viewBox="0 0 70 42" fill="none" xmlns="http://www.w3.org/2000/svg">
<path d="M8.70712 0.792942C8.3166 0.402415 7.68343 0.402416 7.2929 0.792936L0.92892 7.15687C0.538397 7.5474 0.538391 8.18056 0.928915 8.57109C1.31944 8.96161 1.9526 8.96161 2.34313 8.57109L8 2.91426L13.6568 8.57114C14.0474 8.96166 14.6805 8.96166 15.0711 8.57114C15.4616 8.18062 15.4616 7.54745 15.0711 7.15693L8.70712 0.792942ZM68.9993 37.5007C68.6655 36.558 68.6657 36.5579 68.6659 36.5579C68.6658 36.5579 68.6659 36.5579 68.6657 36.5579C68.6654 36.558 68.6648 36.5583 68.6637 36.5586C68.6617 36.5594 68.6582 36.5606 68.6533 36.5623C68.6435 36.5657 68.6279 36.5711 68.6068 36.5783C68.5644 36.5928 68.4997 36.6146 68.4133 36.643C68.2407 36.6996 67.982 36.7823 67.6443 36.8837C66.9688 37.0866 65.9782 37.3646 64.7299 37.6603C62.2317 38.2521 58.7092 38.9135 54.6197 39.1901C46.4248 39.7445 36.0541 38.7487 27.0598 32.6716L25.9401 34.3288C35.4459 40.7515 46.3249 41.7559 54.7547 41.1856C58.9775 40.8999 62.6111 40.2176 65.1909 39.6064C66.4815 39.3007 67.5104 39.0122 68.2197 38.7992C68.5744 38.6926 68.8493 38.6049 69.0373 38.5431C69.1313 38.5123 69.2035 38.4879 69.2531 38.471C69.2779 38.4625 69.2971 38.4559 69.3105 38.4512C69.3171 38.4489 69.3224 38.4471 69.3262 38.4457C69.3281 38.4451 69.3296 38.4445 69.3308 38.4441C69.3314 38.4439 69.332 38.4437 69.3323 38.4436C69.3328 38.4434 69.3332 38.4433 68.9993 37.5007ZM27.0598 32.6716C18.0223 26.5652 13.5108 18.7582 11.2536 12.4746C10.1242 9.33049 9.56028 6.56985 9.27901 4.60087C9.13844 3.61683 9.06866 2.832 9.03405 2.29771C9.01674 2.03061 9.00823 1.82628 9.00405 1.69115C9.00196 1.62359 9.00095 1.57335 9.00046 1.54123C9.00021 1.52516 9.0001 1.51364 9.00005 1.50674C9.00003 1.50329 9.00002 1.501 9.00001 1.49988C9.00001 1.49932 9.00001 1.49905 9.00001 1.49909C9.00001 1.4991 9.00001 1.49934 9.00001 1.49934C9.00001 1.49966 9.00001 1.50005 8.00001 1.50005C7.00001 1.50004 7.00001 1.50058 7.00001 1.50119C7.00001 1.5015 7.00001 1.50219 7.00001 1.50279C7.00001 1.50401 7.00002 1.50552 7.00003 1.50733C7.00004 1.51094 7.00006 1.51574 7.00011 1.52171C7.0002 1.53366 7.00037 1.55029 7.00069 1.57151C7.00133 1.61394 7.00258 1.67472 7.005 1.75304C7.00985 1.90966 7.01941 2.13649 7.03823 2.42702C7.07588 3.00798 7.15063 3.84426 7.29911 4.8837C7.59595 6.96165 8.1883 9.85733 9.37135 13.1508C11.7391 19.7423 16.4776 27.9353 25.9401 34.3288L27.0598 32.6716Z" fill="black"/>
</svg>
