<svg width="21" height="25" viewBox="0 0 21 25" fill="none" xmlns="http://www.w3.org/2000/svg">
<path d="M2.94531 0.999991C2.94531 0.447706 2.49759 -5.22506e-06 1.9453 -3.34526e-08C1.39302 5.15816e-06 0.945307 0.447725 0.945312 1.00001L2.94531 0.999991ZM20.6524 17.7071C21.0429 17.3166 21.043 16.6835 20.6524 16.2929L14.2887 9.92873C13.8982 9.53819 13.265 9.53816 12.8745 9.92867C12.484 10.3192 12.4839 10.9523 12.8745 11.3429L18.5311 16.9999L12.874 22.6566C12.4835 23.0471 12.4835 23.6803 12.874 24.0708C13.2645 24.4613 13.8977 24.4614 14.2882 24.0709L20.6524 17.7071ZM1.94546 16.9993L0.945463 16.9994L0.945472 17.9993L1.94543 17.9993L1.94546 16.9993ZM0.945312 1.00001L0.945463 16.9994L2.94546 16.9993L2.94531 0.999991L0.945312 1.00001ZM1.94543 17.9993L19.9453 18L19.9453 16L1.9455 15.9993L1.94543 17.9993Z" fill="black"/>
</svg>
