<svg width="33" height="16" viewBox="0 0 33 16" fill="none" xmlns="http://www.w3.org/2000/svg">
<path d="M26.2078 14.9803C26.484 14.9803 26.7078 14.7564 26.7078 14.4803C26.7078 14.2041 26.484 13.9803 26.2078 13.9803V14.9803ZM26.2078 13.9803H3V14.9803H26.2078V13.9803ZM1.5 12.4803V4.03711H0.5V12.4803H1.5ZM3 2.53711H25.9931V1.53711H3V2.53711ZM3 13.9803C2.17157 13.9803 1.5 13.3087 1.5 12.4803H0.5C0.5 13.861 1.61929 14.9803 3 14.9803V13.9803ZM1.5 4.03711C1.5 3.20868 2.17157 2.53711 3 2.53711V1.53711C1.61929 1.53711 0.5 2.6564 0.5 4.03711H1.5Z" fill="#CCCCCC"/>
<path d="M7.456 7.13C7.354 7.106 7.213 7.082 7.033 7.058C6.853 7.028 6.67 7.013 6.484 7.013C6.214 7.013 5.992 7.067 5.818 7.175C5.65 7.283 5.518 7.424 5.422 7.598C5.326 7.766 5.26 7.955 5.224 8.165C5.188 8.369 5.17 8.57 5.17 8.768C5.17 9.074 5.209 9.338 5.287 9.56C5.365 9.776 5.467 9.953 5.593 10.091C5.725 10.229 5.875 10.331 6.043 10.397C6.211 10.457 6.388 10.487 6.574 10.487C6.7 10.487 6.82 10.481 6.934 10.469C7.054 10.451 7.162 10.433 7.258 10.415C7.36 10.391 7.456 10.364 7.546 10.334L7.69 10.937C7.564 10.973 7.447 11.003 7.339 11.027C7.231 11.051 7.102 11.072 6.952 11.09C6.808 11.108 6.652 11.117 6.484 11.117C6.154 11.117 5.86 11.075 5.602 10.991C5.344 10.907 5.125 10.772 4.945 10.586C4.771 10.4 4.636 10.157 4.54 9.857C4.45 9.557 4.405 9.191 4.405 8.759C4.405 8.339 4.462 7.979 4.576 7.679C4.696 7.373 4.852 7.127 5.044 6.941C5.236 6.749 5.455 6.608 5.701 6.518C5.953 6.428 6.214 6.383 6.484 6.383C6.628 6.383 6.766 6.392 6.898 6.41C7.036 6.422 7.156 6.437 7.258 6.455C7.378 6.479 7.492 6.503 7.6 6.527L7.456 7.13ZM10.7016 8.921C10.5816 8.927 10.4676 8.933 10.3596 8.939C10.2516 8.945 10.1436 8.954 10.0356 8.966C9.93355 8.972 9.84055 8.981 9.75655 8.993C9.32455 9.047 9.01855 9.143 8.83855 9.281C8.65855 9.413 8.56855 9.605 8.56855 9.857C8.56855 10.067 8.63155 10.226 8.75755 10.334C8.88955 10.436 9.06055 10.487 9.27055 10.487C9.55855 10.487 9.81355 10.439 10.0356 10.343C10.2636 10.241 10.4856 10.109 10.7016 9.947V8.921ZM10.6926 10.577C10.4106 10.739 10.1466 10.871 9.90055 10.973C9.66055 11.069 9.39955 11.117 9.11755 11.117C8.71555 11.117 8.39455 11.021 8.15455 10.829C7.92055 10.631 7.80355 10.307 7.80355 9.857C7.80355 9.623 7.86355 9.419 7.98355 9.245C8.10355 9.071 8.25955 8.927 8.45155 8.813C8.64955 8.693 8.87155 8.6 9.11755 8.534C9.36355 8.468 9.61555 8.426 9.87355 8.408C9.98155 8.396 10.1226 8.387 10.2966 8.381C10.4706 8.369 10.6056 8.36 10.7016 8.354C10.7016 8.144 10.6956 7.958 10.6836 7.796C10.6716 7.628 10.6356 7.487 10.5756 7.373C10.5156 7.253 10.4256 7.163 10.3056 7.103C10.1916 7.043 10.0266 7.013 9.81055 7.013C9.63655 7.013 9.46855 7.025 9.30655 7.049C9.14455 7.067 9.00055 7.088 8.87455 7.112C8.72455 7.142 8.58655 7.175 8.46055 7.211L8.31655 6.59C8.46655 6.554 8.62855 6.521 8.80255 6.491C8.95255 6.461 9.12655 6.437 9.32455 6.419C9.52255 6.395 9.73555 6.383 9.96355 6.383C10.2696 6.383 10.5156 6.428 10.7016 6.518C10.8936 6.608 11.0406 6.731 11.1426 6.887C11.2506 7.037 11.3226 7.211 11.3586 7.409C11.4006 7.601 11.4216 7.805 11.4216 8.021V10.181C11.4216 10.265 11.4216 10.355 11.4216 10.451C11.4276 10.541 11.4336 10.631 11.4396 10.721C11.4516 10.811 11.4636 10.904 11.4756 11L10.7826 11.072L10.6926 10.577ZM12.3393 7.202C12.3393 7.064 12.3243 6.848 12.2943 6.554L12.9603 6.464L13.0323 7.121H13.0413C13.1493 6.983 13.2543 6.863 13.3563 6.761C13.4583 6.659 13.5633 6.572 13.6713 6.5C13.7853 6.422 13.8933 6.383 13.9953 6.383C14.1333 6.377 14.3253 6.392 14.5713 6.428L14.4093 7.121C14.2113 7.085 14.0733 7.07 13.9953 7.076C13.8933 7.076 13.7853 7.124 13.6713 7.22C13.5573 7.316 13.4583 7.418 13.3743 7.526C13.2663 7.658 13.1613 7.808 13.0593 7.976V11H12.3393V7.202ZM18.2187 10.892C18.0807 10.934 17.9367 10.97 17.7867 11C17.6427 11.03 17.4807 11.057 17.3007 11.081C17.1267 11.105 16.9437 11.117 16.7517 11.117C16.4517 11.117 16.1727 11.075 15.9147 10.991C15.6567 10.907 15.4317 10.772 15.2397 10.586C15.0477 10.4 14.8947 10.16 14.7807 9.866C14.6727 9.566 14.6187 9.2 14.6187 8.768C14.6187 8.378 14.6727 8.036 14.7807 7.742C14.8887 7.442 15.0357 7.193 15.2217 6.995C15.4137 6.791 15.6357 6.638 15.8877 6.536C16.1457 6.434 16.4247 6.383 16.7247 6.383C17.0187 6.383 17.2737 6.44 17.4897 6.554C17.7057 6.668 17.8827 6.824 18.0207 7.022C18.1647 7.214 18.2697 7.442 18.3357 7.706C18.4077 7.964 18.4437 8.237 18.4437 8.525L18.3087 8.921H15.4017C15.4017 9.107 15.4257 9.293 15.4737 9.479C15.5217 9.665 15.6027 9.833 15.7167 9.983C15.8367 10.133 15.9897 10.256 16.1757 10.352C16.3677 10.442 16.6047 10.487 16.8867 10.487C17.0667 10.487 17.2317 10.478 17.3817 10.46C17.5317 10.436 17.6607 10.412 17.7687 10.388C17.8827 10.358 17.9877 10.325 18.0837 10.289L18.2187 10.892ZM17.6967 8.345C17.6967 8.303 17.6877 8.21 17.6697 8.066C17.6517 7.922 17.6097 7.772 17.5437 7.616C17.4777 7.46 17.3757 7.322 17.2377 7.202C17.0997 7.076 16.9167 7.013 16.6887 7.013C16.4367 7.013 16.2297 7.067 16.0677 7.175C15.9057 7.277 15.7767 7.4 15.6807 7.544C15.5847 7.688 15.5187 7.835 15.4827 7.985C15.4467 8.135 15.4287 8.255 15.4287 8.345H17.6967ZM22.4115 10.892C22.2735 10.934 22.1295 10.97 21.9795 11C21.8355 11.03 21.6735 11.057 21.4935 11.081C21.3195 11.105 21.1365 11.117 20.9445 11.117C20.6445 11.117 20.3655 11.075 20.1075 10.991C19.8495 10.907 19.6245 10.772 19.4325 10.586C19.2405 10.4 19.0875 10.16 18.9735 9.866C18.8655 9.566 18.8115 9.2 18.8115 8.768C18.8115 8.378 18.8655 8.036 18.9735 7.742C19.0815 7.442 19.2285 7.193 19.4145 6.995C19.6065 6.791 19.8285 6.638 20.0805 6.536C20.3385 6.434 20.6175 6.383 20.9175 6.383C21.2115 6.383 21.4665 6.44 21.6825 6.554C21.8985 6.668 22.0755 6.824 22.2135 7.022C22.3575 7.214 22.4625 7.442 22.5285 7.706C22.6005 7.964 22.6365 8.237 22.6365 8.525L22.5015 8.921H19.5945C19.5945 9.107 19.6185 9.293 19.6665 9.479C19.7145 9.665 19.7955 9.833 19.9095 9.983C20.0295 10.133 20.1825 10.256 20.3685 10.352C20.5605 10.442 20.7975 10.487 21.0795 10.487C21.2595 10.487 21.4245 10.478 21.5745 10.46C21.7245 10.436 21.8535 10.412 21.9615 10.388C22.0755 10.358 22.1805 10.325 22.2765 10.289L22.4115 10.892ZM21.8895 8.345C21.8895 8.303 21.8805 8.21 21.8625 8.066C21.8445 7.922 21.8025 7.772 21.7365 7.616C21.6705 7.46 21.5685 7.322 21.4305 7.202C21.2925 7.076 21.1095 7.013 20.8815 7.013C20.6295 7.013 20.4225 7.067 20.2605 7.175C20.0985 7.277 19.9695 7.4 19.8735 7.544C19.7775 7.688 19.7115 7.835 19.6755 7.985C19.6395 8.135 19.6215 8.255 19.6215 8.345H21.8895ZM23.2652 7.202C23.2652 7.064 23.2502 6.848 23.2202 6.554L23.8862 6.464L23.9582 7.121H23.9672C24.0752 6.983 24.1802 6.863 24.2822 6.761C24.3842 6.659 24.4892 6.572 24.5972 6.5C24.7112 6.422 24.8192 6.383 24.9212 6.383C25.0592 6.377 25.2512 6.392 25.4972 6.428L25.3352 7.121C25.1372 7.085 24.9992 7.07 24.9212 7.076C24.8192 7.076 24.7112 7.124 24.5972 7.22C24.4832 7.316 24.3842 7.418 24.3002 7.526C24.1922 7.658 24.0872 7.808 23.9852 7.976V11H23.2652V7.202Z" fill="white" fill-opacity="0.7"/>
<path d="M25.1147 1.00063L30.1208 7.12909C30.6224 7.74315 30.685 8.58596 30.2634 9.2619C29.3443 10.7356 27.6591 13.3336 26.2095 14.9996" stroke="#CCCCCC" stroke-linecap="round"/>
</svg>
