<svg width="14" height="14" viewBox="0 0 14 14" fill="none" xmlns="http://www.w3.org/2000/svg">
<path d="M1.44721 8.10557C0.953235 7.85858 0.352562 8.05881 0.105573 8.55279C-0.141416 9.04676 0.0588079 9.64744 0.552786 9.89443L1.44721 8.10557ZM0.552786 9.89443L6.55279 12.8944L7.44721 11.1056L1.44721 8.10557L0.552786 9.89443Z" fill="white"/>
<path d="M13.8779 1.47885C14.1424 0.994004 13.9637 0.386567 13.4789 0.122104C12.994 -0.142358 12.3866 0.0362995 12.1221 0.521148L13.8779 1.47885ZM6.1221 11.5211L5.64325 12.399L7.39904 13.3567L7.8779 12.4789L6.1221 11.5211ZM12.1221 0.521148L6.1221 11.5211L7.8779 12.4789L13.8779 1.47885L12.1221 0.521148Z" fill="white"/>
</svg>
