<svg width="15" height="15" viewBox="0 0 15 15" fill="none" xmlns="http://www.w3.org/2000/svg">
<path d="M1.44472 8.83138C0.951437 8.58302 0.35244 8.78268 0.106825 9.27734C-0.138789 9.772 0.0619894 10.3744 0.555276 10.6227L1.44472 8.83138ZM0.555276 10.6227L7.05528 13.8954L7.94472 12.1041L1.44472 8.83138L0.555276 10.6227Z" fill="#7D56D8"/>
<path d="M14.8765 1.48143C15.1395 0.995807 14.9604 0.386593 14.4763 0.120708C13.9922 -0.145177 13.3866 0.0329537 13.1235 0.518573L14.8765 1.48143ZM6.62351 12.5186L6.14723 13.3979L7.9002 14.3607L8.37649 13.4814L6.62351 12.5186ZM13.1235 0.518573L6.62351 12.5186L8.37649 13.4814L14.8765 1.48143L13.1235 0.518573Z" fill="#7D56D8"/>
</svg>
