<svg width="25" height="25" viewBox="0 0 25 25" fill="none" xmlns="http://www.w3.org/2000/svg">
<circle cx="12.5" cy="12.5" r="12" stroke="white"/>
<path d="M12 13.2812C12 13.5574 12.2239 13.7812 12.5 13.7812C12.7761 13.7812 13 13.5574 13 13.2812H12ZM12 3.90625V13.2812H13V3.90625H12Z" fill="white"/>
<path d="M17.7646 19.2236L18.1201 19.5752L18.8233 18.8643L18.4679 18.5127L17.7646 19.2236ZM12.8498 12.9552C12.6535 12.761 12.3369 12.7627 12.1427 12.9591C11.9485 13.1554 11.9502 13.472 12.1466 13.6662L12.8498 12.9552ZM18.4679 18.5127L12.8498 12.9552L12.1466 13.6662L17.7646 19.2236L18.4679 18.5127Z" fill="white"/>
</svg>
