<svg width="17" height="20" viewBox="0 0 17 20" fill="none" xmlns="http://www.w3.org/2000/svg">
<path d="M11.7059 4V3C11.7059 1.89543 10.8104 1 9.70588 1H3C1.89543 1 1 1.89543 1 3V17C1 18.1046 1.89543 19 3 19H10.1765C11.281 19 12.1765 18.1046 12.1765 17V16.5" stroke="#CCCCCC"/>
<path d="M5.94141 9.5C5.66526 9.5 5.44141 9.72386 5.44141 10C5.44141 10.2761 5.66526 10.5 5.94141 10.5V9.5ZM16.3538 10.3536C16.549 10.1583 16.549 9.84171 16.3538 9.64645L13.1718 6.46447C12.9765 6.2692 12.66 6.2692 12.4647 6.46447C12.2694 6.65973 12.2694 6.97631 12.4647 7.17157L15.2931 10L12.4647 12.8284C12.2694 13.0237 12.2694 13.3403 12.4647 13.5355C12.66 13.7308 12.9765 13.7308 13.1718 13.5355L16.3538 10.3536ZM5.94141 10.5H16.0002V9.5H5.94141V10.5Z" fill="#CCCCCC"/>
</svg>
