<svg width="28" height="12" viewBox="0 0 28 12" fill="none" xmlns="http://www.w3.org/2000/svg">
<path d="M27 1C24.863 3.15853 20.5814 6.06746 13.5 6.06746C6.41865 6.06746 2.78082 2.88872 1 1.26982" stroke="#CCCCCC" stroke-width="1.5" stroke-linecap="round"/>
<path d="M0.358894 7.57501C0.0583756 7.86008 0.10179 8.26542 0.455864 8.48037C0.809937 8.69533 1.34059 8.63849 1.64111 8.35343L0.358894 7.57501ZM4.35889 3.78071L0.358894 7.57501L1.64111 8.35343L5.64111 4.55913L4.35889 3.78071Z" fill="#CCCCCC"/>
<path d="M9.25555 10.9084C9.16948 11.3136 9.43301 11.6829 9.84416 11.7331C10.2553 11.7834 10.6584 11.4958 10.7445 11.0906L9.25555 10.9084ZM10.384 5.59643L9.25555 10.9084L10.7445 11.0906L11.8729 5.77857L10.384 5.59643Z" fill="#CCCCCC"/>
<path d="M17.2544 11.0804C17.331 11.4874 17.727 11.7812 18.1388 11.7366C18.5506 11.6919 18.8223 11.3257 18.7456 10.9187L17.2544 11.0804ZM16.2544 5.76833L17.2544 11.0804L18.7456 10.9187L17.7456 5.60667L16.2544 5.76833Z" fill="#CCCCCC"/>
<path d="M26.2988 8.22938C26.5267 8.57526 27.0254 8.73654 27.4126 8.58959C27.7999 8.44265 27.9291 8.04313 27.7012 7.69725L26.2988 8.22938ZM23.2988 3.67622L26.2988 8.22938L27.7012 7.69725L24.7012 3.14409L23.2988 3.67622Z" fill="#CCCCCC"/>
</svg>
