<svg width="26" height="16" viewBox="0 0 26 16" fill="none" xmlns="http://www.w3.org/2000/svg">
<path d="M17.3083 8.177C17.3083 10.6492 15.3005 12.6548 12.822 12.6548C10.3435 12.6548 8.33569 10.6492 8.33569 8.177C8.33569 5.70479 10.3435 3.69922 12.822 3.69922C15.3005 3.69922 17.3083 5.70479 17.3083 8.177Z" stroke="#CCCCCC"/>
<path d="M25.3786 7.81664C23.1891 10.7228 19.3982 15.5 12.8219 15.5C6.57772 15.5 2.8568 10.9054 0.874855 8.45813C0.782285 8.34383 0.693509 8.23421 0.608446 8.12996C2.16294 5.56211 6.28477 0.5 12.8219 0.5C19.3747 0.5 23.4955 5.24879 25.3786 7.81664Z" stroke="#CCCCCC"/>
</svg>
