<svg width="33" height="28" viewBox="0 0 33 28" fill="none" xmlns="http://www.w3.org/2000/svg">
<path d="M1 6C0.447715 6 0 6.44772 0 7C0 7.55228 0.447715 8 1 8V6ZM1 8H15.3628V6H1V8Z" fill="#ACAAAC"/>
<path d="M31.9991 7.92578C32.5514 7.92578 32.9991 7.47807 32.9991 6.92578C32.9991 6.3735 32.5514 5.92578 31.9991 5.92578V7.92578ZM22.6074 7.92578L31.9991 7.92578V5.92578L22.6074 5.92578V7.92578Z" fill="#ACAAAC"/>
<path d="M21.7914 7C21.7914 8.66585 20.4563 10 18.8293 10C17.2023 10 15.8672 8.66585 15.8672 7C15.8672 5.33415 17.2023 4 18.8293 4C20.4563 4 21.7914 5.33415 21.7914 7Z" stroke="#ACAAAC" stroke-width="2"/>
<path d="M15.8574 16L31.7059 16" stroke="#ACAAAC" stroke-width="2" stroke-linecap="round"/>
<path d="M1 14.9258C0.447715 14.9258 -4.82823e-08 15.3735 0 15.9258C4.82823e-08 16.4781 0.447715 16.9258 1 16.9258L1 14.9258ZM9.21772 16.9258L10.2177 16.9258L10.2177 14.9258L9.21772 14.9258L9.21772 16.9258ZM1 16.9258L9.21772 16.9258L9.21772 14.9258L1 14.9258L1 16.9258Z" fill="#ACAAAC"/>
<path d="M15.8481 16C15.8481 17.6658 14.5129 19 12.8859 19C11.259 19 9.92383 17.6658 9.92383 16C9.92383 14.3342 11.259 13 12.8859 13C14.5129 13 15.8481 14.3342 15.8481 16Z" stroke="#ACAAAC" stroke-width="2"/>
<path d="M1 23C0.447715 23 7.5631e-08 23.4477 0 24C-7.5631e-08 24.5523 0.447715 25 1 25L1 23ZM1 25L16.8485 25L16.8485 23L1 23L1 25Z" fill="#ACAAAC"/>
<path d="M31.7058 25C32.2581 25 32.7058 24.5523 32.7058 24C32.7058 23.4477 32.2581 23 31.7058 23V25ZM22.791 25L31.7058 25V23L22.791 23V25Z" fill="#ACAAAC"/>
<path d="M22.7817 24C22.7817 25.6658 21.4465 27 19.8195 27C18.1926 27 16.8574 25.6658 16.8574 24C16.8574 22.3342 18.1926 21 19.8195 21C21.4465 21 22.7817 22.3342 22.7817 24Z" stroke="#ACAAAC" stroke-width="2"/>
<ellipse cx="26.7531" cy="4" rx="3.96212" ry="4" fill="#7D56D8"/>
</svg>
