<svg width="33" height="26" viewBox="0 0 33 26" fill="none" xmlns="http://www.w3.org/2000/svg">
<path d="M1 3.5C0.447715 3.5 0 3.94772 0 4.5C0 5.05228 0.447715 5.5 1 5.5V3.5ZM1 5.5H15.3628V3.5H1V5.5Z" fill="#ACAAAC"/>
<path d="M31.9991 5.42578C32.5514 5.42578 32.9991 4.97807 32.9991 4.42578C32.9991 3.8735 32.5514 3.42578 31.9991 3.42578V5.42578ZM22.6074 5.42578L31.9991 5.42578V3.42578L22.6074 3.42578V5.42578Z" fill="#ACAAAC"/>
<path d="M21.7914 4.5C21.7914 6.16585 20.4563 7.5 18.8293 7.5C17.2023 7.5 15.8672 6.16585 15.8672 4.5C15.8672 2.83415 17.2023 1.5 18.8293 1.5C20.4563 1.5 21.7914 2.83415 21.7914 4.5Z" stroke="#ACAAAC" stroke-width="2"/>
<path d="M15.8574 13.5L31.7059 13.5" stroke="#ACAAAC" stroke-width="2" stroke-linecap="round"/>
<path d="M1 12.4258C0.447715 12.4258 -4.82823e-08 12.8735 0 13.4258C4.82823e-08 13.9781 0.447715 14.4258 1 14.4258L1 12.4258ZM9.21772 14.4258L10.2177 14.4258L10.2177 12.4258L9.21772 12.4258L9.21772 14.4258ZM1 14.4258L9.21772 14.4258L9.21772 12.4258L1 12.4258L1 14.4258Z" fill="#ACAAAC"/>
<path d="M15.8481 13.5C15.8481 15.1658 14.5129 16.5 12.8859 16.5C11.259 16.5 9.92383 15.1658 9.92383 13.5C9.92383 11.8342 11.259 10.5 12.8859 10.5C14.5129 10.5 15.8481 11.8342 15.8481 13.5Z" stroke="#ACAAAC" stroke-width="2"/>
<path d="M1 20.5C0.447715 20.5 7.5631e-08 20.9477 0 21.5C-7.5631e-08 22.0523 0.447715 22.5 1 22.5L1 20.5ZM1 22.5L16.8485 22.5L16.8485 20.5L1 20.5L1 22.5Z" fill="#ACAAAC"/>
<path d="M31.7058 22.5C32.2581 22.5 32.7058 22.0523 32.7058 21.5C32.7058 20.9477 32.2581 20.5 31.7058 20.5V22.5ZM22.791 22.5L31.7058 22.5V20.5L22.791 20.5V22.5Z" fill="#ACAAAC"/>
<path d="M22.7817 21.5C22.7817 23.1658 21.4465 24.5 19.8195 24.5C18.1926 24.5 16.8574 23.1658 16.8574 21.5C16.8574 19.8342 18.1926 18.5 19.8195 18.5C21.4465 18.5 22.7817 19.8342 22.7817 21.5Z" stroke="#ACAAAC" stroke-width="2"/>
</svg>
