<svg width="184" height="138" viewBox="0 0 184 138" fill="none" xmlns="http://www.w3.org/2000/svg">
<path d="M16.2151 134.072C16.4155 133.07 17.9682 132.152 18.7195 131.818C19.3038 131.902 20.5727 132.069 20.9734 132.069C21.4743 132.069 21.7247 133.321 21.7247 134.323C21.7247 135.324 20.9734 135.825 20.723 136.076C20.4725 136.326 18.9699 137.077 18.2186 136.827C17.4673 136.577 15.9647 135.324 16.2151 134.072Z" fill="white"/>
<path d="M47.7701 133.07C47.7701 132.82 49.2727 131.818 50.024 131.317C50.1075 131.317 50.3746 131.367 50.7753 131.568C51.2762 131.818 52.2779 132.069 52.5283 132.82C52.7788 133.571 52.2779 134.072 51.2762 135.074C50.4748 135.875 50.2744 135.909 50.2744 135.825C49.6901 135.575 48.4713 135.024 48.2709 134.823C48.0205 134.573 47.7701 133.321 47.7701 133.07Z" fill="white"/>
<path d="M47.2692 97.0078L24.4796 97.2582L24.73 100.263L32.4935 100.514V125.057L31.9926 126.309L19.4708 126.559L19.2204 131.568L20.4726 131.818L21.2239 129.314L49.5232 128.813V131.568H51.7771L51.5267 126.559H38.7544L37.7527 126.309V100.514L47.5197 100.263L47.2692 97.0078Z" fill="white"/>
<path d="M3.44293 42.6625L19.9717 42.4121L45.0153 91.2471L48.5214 97.0072H23.2274C3.19249 94.5028 2.44119 80.9793 2.19075 73.9671V57.1878L3.44293 42.6625Z" fill="white"/>
<path fill-rule="evenodd" clip-rule="evenodd" d="M23.8043 34.9241L34.2857 33.7939C37.3068 38.4573 40.1997 40.4749 42.9646 39.8467C45.7294 39.2186 47.7429 37.3535 49.0051 34.2517C56.4858 36.0276 60.421 37.282 60.8105 38.015C61.3948 39.1145 61.9222 40.2423 62.342 41.8989C62.6219 43.0032 63.2721 49.2293 64.2927 60.5771H72.8419L81.8216 61.4185L83.4541 62.4874L86.8695 63.1282L86.4564 69.4656H65.1129C64.9973 67.6577 64.0736 66.6699 62.342 66.5023C60.6104 66.3346 54.5365 66.3346 44.1204 66.5023L43.5348 69.2746L16.9074 69.4656C15.3398 68.6717 14.556 67.9793 14.556 67.3885C14.556 66.5023 15.5956 57.7948 16.2515 54.3213C16.6888 52.0056 19.2064 45.5398 23.8043 34.9241Z" fill="#92CBAD"/>
<path fill-rule="evenodd" clip-rule="evenodd" d="M23.8034 70.4043C23.0449 78.3467 23.6117 83.2796 25.504 85.2031C28.3424 88.0883 33.1066 89.7859 36.8259 90.2529C39.3054 90.5643 41.7285 90.7986 44.0951 90.9558L50.6795 101.463L57.8623 117.81L73.6418 113.233L83.1129 109.571L75.8581 83.3804C74.571 79.6246 73.5171 77.461 72.6963 76.8894C71.8755 76.3179 67.8473 74.1562 60.6115 70.4043H23.8034Z" fill="#3856D6"/>
<path fill-rule="evenodd" clip-rule="evenodd" d="M63.3911 121.103L65.1742 124.381L74.6607 121.793L71.685 116.401L63.3911 121.103Z" fill="#3856D6"/>
<path fill-rule="evenodd" clip-rule="evenodd" d="M76.539 116.547L84.5331 113.116L86.8695 119.322L78.4259 121.565L76.539 116.547Z" fill="#3856D6"/>
<path fill-rule="evenodd" clip-rule="evenodd" d="M63.3911 125.008C64.877 127.222 65.4709 128.617 65.1727 129.192C64.8745 129.766 64.532 131.761 64.1451 135.176H68.358L69.257 133.064L70.4673 135.176H91.0185V134.368L101.896 133.064C101.611 131.603 101.101 130.873 100.365 130.873C99.2602 130.873 90.9055 130.138 90.0286 129.192C89.4439 128.561 88.6097 125.236 87.5259 119.218L77.0113 122.068C77.9384 123.782 78.402 124.941 78.402 125.546C78.402 126.151 78.1135 127.366 77.5366 129.192C76.3312 126.938 75.7285 125.088 75.7285 123.64C75.7285 122.192 75.7285 121.469 75.7285 121.469L63.3911 125.008Z" fill="#38D6B8"/>
<path d="M63.5476 120.548L61.0432 116.792L70.8103 114.037L71.812 116.291L63.5476 120.548Z" fill="white"/>
<path d="M76.5703 116.792L74.8172 113.035L83.0816 109.529L84.5842 113.286L76.5703 116.792Z" fill="white"/>
<path d="M51.2762 66.2041L44.0136 66.705L43.7632 69.9606H64.2989L65.0502 69.2093C64.6495 67.8069 63.0467 67.2893 62.2954 67.2058L58.5389 66.705L51.2762 66.2041Z" fill="white"/>
<path d="M105.871 67.9574L87.0886 64.9521V68.7087L103.868 69.46L106.873 69.7104V68.9591L105.871 67.9574Z" fill="white"/>
<path d="M37.7528 13.6123C37.9531 11.6089 39.5058 10.4402 40.2571 10.1062L42.2606 9.10449H47.2694C48.0207 9.68884 49.5734 11.0078 49.7737 11.6089C50.0242 12.3602 49.0224 18.6211 49.0224 19.8732C49.0224 20.875 47.3528 24.2976 46.5181 25.8837C46.9355 27.3028 47.9205 30.4416 48.5216 31.6437C49.2729 33.1464 49.0224 34.649 48.5216 36.402C48.0207 38.1551 45.2659 39.4073 45.0154 39.6577C44.765 39.9081 42.2606 39.9081 39.2554 38.4055C36.8512 37.2034 35.4154 34.5655 34.998 33.3968C35.6658 29.9742 37.0516 22.7783 37.2519 21.3759C37.4523 19.9734 37.0015 20.1237 36.7511 20.3741C36.3337 20.0402 35.3987 19.3223 34.998 19.1219C34.4971 18.8715 34.998 17.1184 35.7493 16.6176C36.3503 16.2169 37.1684 16.6176 37.5023 16.868C37.5023 16.6176 37.5524 15.6158 37.7528 13.6123Z" fill="white"/>
<path d="M57.9875 65.4168H57.2132C57.208 65.3327 57.202 65.2533 57.1962 65.177C57.1839 65.0136 57.1727 64.8647 57.1724 64.7156C57.1691 61.6783 57.1677 58.6401 57.171 55.6029L57.1708 55.5215C57.1701 55.249 57.1694 54.9704 57.2386 54.7139C57.2738 54.5834 57.5072 54.4238 57.6452 54.429C57.7744 54.4337 57.9326 54.6186 58.011 54.7608C58.0642 54.8573 58.0608 54.9888 58.0576 55.1145C58.0568 55.1441 58.0561 55.1736 58.0561 55.2021C58.0566 58.3886 58.0552 61.5751 58.05 64.7616C58.0497 64.8824 58.0352 65.003 58.0172 65.1531C58.0078 65.2315 57.9974 65.3181 57.9875 65.4168Z" fill="black"/>
<path fill-rule="evenodd" clip-rule="evenodd" d="M52.3727 6.97855C52.31 7.15004 52.2463 7.32454 52.1837 7.50418C53.1486 8.32839 53.1641 9.25632 52.4077 10.2523C52.3015 10.3927 52.2198 10.5945 52.2222 10.7667C52.2367 11.9279 51.5671 12.5419 50.5665 12.9136C50.4763 12.9472 50.3927 12.9978 50.2976 13.0555C50.2491 13.0849 50.1975 13.1161 50.1406 13.1478C50.1218 13.3921 50.1076 13.6371 50.0934 13.8822C50.0623 14.4204 50.0312 14.9588 49.9509 15.4899C49.8917 15.8821 49.8346 16.2748 49.7774 16.6677C49.543 18.2775 49.3083 19.8892 48.938 21.4678C48.6417 22.728 48.0839 23.9474 47.4955 25.1105C47.1889 25.7155 47.1814 26.2037 47.3565 26.8012C47.8236 28.3976 48.2691 30.0004 48.7145 31.6032C48.7808 31.8419 48.8472 32.0807 48.9136 32.3195C48.9831 32.5701 49.0554 32.8334 49.0465 33.0878C49.0409 33.2371 48.9023 33.4666 48.7784 33.5032C48.6553 33.5393 48.3952 33.4159 48.3351 33.2939C48.1717 32.962 48.0674 32.5973 47.9651 32.2387C47.5747 30.8691 47.188 29.4983 46.7907 28.0899C46.6247 27.5012 46.4567 26.9058 46.2859 26.3013C44.7847 26.5369 43.4755 26.1037 42.2406 25.4517C41.6508 25.141 41.1113 24.72 40.5985 24.2896C40.5079 24.2138 40.5046 24.0337 40.5013 23.8536C40.4997 23.7705 40.4982 23.6875 40.4881 23.6146C40.5627 23.6155 40.6416 23.6082 40.7205 23.601C40.8908 23.5852 41.061 23.5695 41.1878 23.6362C41.5761 23.8417 41.9558 24.0636 42.3355 24.2856C42.825 24.5717 43.3144 24.8578 43.8216 25.1082C44.2447 25.3166 44.7542 25.401 45.2317 25.4334C45.9187 25.4804 46.4873 25.2091 46.7569 24.521C46.8865 24.1906 47.0242 23.8622 47.1619 23.5338C47.5031 22.7201 47.8444 21.9062 48.0632 21.0608C48.76 18.3672 49.1014 15.6167 49.1305 12.8258C49.1399 11.8547 48.7957 11.1727 47.9378 10.6766C47.0212 11.1497 46.06 11.3971 45.0401 10.9531C44.9725 10.9235 44.8918 10.8935 44.8227 10.9033C44.4711 10.952 44.1158 10.9891 43.7605 11.0262C42.927 11.1133 42.0931 11.2004 41.3043 11.437C39.789 11.8904 38.7733 12.9962 38.4319 14.5747C38.2976 15.1948 38.2232 15.8276 38.1488 16.4608C38.1048 16.8346 38.0609 17.2086 38.0046 17.58C37.9696 17.8111 37.9037 18.0378 37.8377 18.2645C37.8072 18.3694 37.7766 18.4744 37.7492 18.5798L37.4716 18.6375C37.3059 18.0015 37.0467 17.0806 36.3696 16.9112C35.5403 16.7033 35.2717 17.5706 35.3774 18.1897C35.5004 18.9158 35.9347 19.3852 36.6025 19.6837C37.551 20.1076 37.6064 20.1615 37.5078 21.2002L37.4874 21.4148C37.3244 23.1342 37.1611 24.8567 36.8969 26.5623C36.6808 27.9552 36.4037 29.3388 36.1268 30.7223C36.0138 31.2866 35.9008 31.8509 35.792 32.4157C35.7842 32.4561 35.777 32.4973 35.7698 32.5387C35.738 32.7214 35.7054 32.9085 35.6136 33.0554C35.5765 33.1146 35.5086 33.1741 35.4329 33.2191C35.4674 33.3256 35.5006 33.46 35.5407 33.6278C35.5998 33.8766 35.7074 34.1202 35.8304 34.346C37.2316 36.9214 39.4635 38.4247 42.255 39.0556C46.0952 39.9234 48.4303 36.7181 48.3129 34.1592C48.3097 34.0914 48.325 34.0228 48.3483 33.9192C48.3619 33.8583 48.3782 33.7854 48.3951 33.6936C48.5131 33.6936 48.6344 33.6854 48.7565 33.6772C49.0222 33.6594 49.2917 33.6413 49.5394 33.7062C51.4951 34.2204 53.4468 34.7493 55.3985 35.2782L55.4039 35.2796C56.5273 35.5841 57.6507 35.8885 58.7749 36.1901C61.0805 36.8092 62.5028 38.2933 63.2118 40.551C64.0744 43.2958 64.3623 46.1261 64.5642 48.9714C64.7066 50.9721 64.8413 52.9733 64.976 54.9745L64.9761 54.9753C65.0706 56.3798 65.1652 57.7846 65.2624 59.189C65.2794 59.4304 65.3142 59.6708 65.3542 59.947C65.3751 60.0913 65.3974 60.2454 65.4193 60.4145C65.6856 60.3957 65.9456 60.3808 66.2011 60.3663C66.7505 60.3349 67.2792 60.3047 67.8028 60.2394C69.7182 60.0005 71.5997 60.0441 73.509 60.4351C74.5677 60.6521 75.6662 60.6892 76.7601 60.7262L76.7611 60.7262C77.0584 60.7362 77.3553 60.7463 77.651 60.7599C78.21 60.7858 78.7703 60.7779 79.3308 60.7701C79.7473 60.7643 80.164 60.7585 80.5802 60.7665C81.5325 60.7853 82.4946 60.9308 83.2436 61.532C84.0146 62.1516 84.8603 62.444 85.806 62.5106C86.7419 62.5768 87.3565 62.8857 87.4284 63.9661C87.4753 64.6631 87.9566 65.0734 88.7103 65.1517C90.3115 65.3174 91.9123 65.4991 93.5069 65.7202C97.1855 66.2299 100.861 66.7617 104.535 67.3C104.991 67.3671 105.44 67.5036 105.884 67.6385L105.95 67.6586C107.16 68.0271 107.583 68.7696 107.294 70.1993C107.142 70.2141 106.985 70.2362 106.824 70.2588C106.465 70.3093 106.089 70.3623 105.716 70.3415C103.318 70.2073 100.922 70.0364 98.5266 69.8637C97.2746 69.7733 96.0229 69.6783 94.7714 69.5833C93.1038 69.4567 91.4362 69.3301 89.7678 69.2146C89.2865 69.1814 88.8022 69.1899 88.3 69.1987L88.2988 69.1987C88.0635 69.2029 87.8243 69.2071 87.5796 69.2071C87.3251 70.2293 86.5705 70.4035 85.745 70.3823C85.2655 70.3702 84.7865 70.3367 84.3073 70.3031L84.3062 70.303C83.8214 70.269 83.3364 70.235 82.851 70.2232C82.2845 70.2096 81.7174 70.221 81.1502 70.2324L81.1493 70.2324C80.7403 70.2406 80.3312 70.2488 79.9223 70.2476C76.3197 70.2365 72.7168 70.2221 69.114 70.2077H69.1128C67.5712 70.2015 66.0296 70.1954 64.4881 70.1894C64.2538 70.1886 64.0194 70.1888 63.719 70.1891C63.5412 70.1892 63.3404 70.1894 63.1029 70.1894C63.2544 70.2774 63.3757 70.349 63.4786 70.4097C63.6501 70.5109 63.7702 70.5818 63.8932 70.6475C64.5925 71.0199 65.2961 71.3853 65.9997 71.7507L66.0002 71.751L66.0009 71.7513C67.5583 72.5602 69.1159 73.3691 70.6287 74.2541C73.2568 75.7908 75.0215 78.0428 75.87 81.0172C77.0573 85.1799 78.2739 89.3347 79.4905 93.4894C79.991 95.1989 80.4916 96.9083 80.9901 98.6184L83.8249 108.336C83.8441 108.402 83.8716 108.47 83.8991 108.539C83.9615 108.693 84.0242 108.849 83.9907 108.979C83.7659 109.86 84.0788 110.623 84.3901 111.381C84.4606 111.553 84.531 111.724 84.595 111.897C85.1647 113.436 85.7508 114.969 86.3332 116.492L86.3344 116.496L86.3378 116.504L86.3463 116.527C86.5833 117.146 86.8197 117.765 87.0541 118.381C88.3962 118.444 88.4525 118.462 88.6732 119.771C88.8735 120.959 89.0534 122.151 89.2335 123.342L89.2336 123.343L89.2338 123.345C89.3449 124.08 89.456 124.816 89.572 125.55C89.6109 125.799 89.6752 126.043 89.7395 126.287L89.7403 126.29C89.7521 126.334 89.7638 126.379 89.7754 126.423C89.785 126.46 89.7946 126.498 89.8039 126.535C90.2026 128.114 91.1098 129.071 92.8237 129.247C94.9559 129.465 97.0806 129.761 99.2039 130.056L99.7428 130.131C100.294 130.209 100.837 130.381 101.367 130.562C102.312 130.885 102.77 131.653 103.033 132.55C103.194 133.099 103.016 133.386 102.426 133.519C101.953 133.627 101.463 133.672 100.978 133.711C99.2798 133.849 97.5814 133.984 95.8829 134.119L95.8404 134.122C94.5967 134.221 93.353 134.319 92.1095 134.419C92.0348 134.425 91.9616 134.451 91.8914 134.475C91.8597 134.486 91.8286 134.497 91.7982 134.506L91.7954 134.514C91.4718 135.471 91.4694 135.478 90.6285 135.503C89.4051 135.539 88.1818 135.578 86.9585 135.617H86.9565C83.6776 135.721 80.3988 135.825 77.119 135.884C75.7424 135.91 74.3644 135.864 72.9864 135.817L72.9833 135.817C72.2602 135.793 71.5371 135.769 70.8141 135.755C70.4042 135.746 70.091 135.676 69.9525 135.217C69.9069 135.066 69.8089 134.931 69.6788 134.752L69.6784 134.752L69.678 134.751C69.6087 134.656 69.5303 134.548 69.4458 134.418C69.2054 134.842 69.0195 135.169 68.8061 135.544L68.6865 135.755C68.2961 135.77 67.898 135.79 67.4946 135.809L67.4884 135.809C66.5188 135.856 65.5181 135.905 64.5172 135.906C63.6692 135.906 63.3973 135.495 63.5635 134.652C63.645 134.239 63.7385 133.827 63.832 133.415C63.9877 132.729 64.1433 132.043 64.243 131.35C64.4571 129.865 64.5886 128.36 64.1486 126.887C64.0002 126.391 63.7659 125.914 63.526 125.451C63.1893 124.802 63.2226 124.634 63.8828 124.346C64.0609 124.269 64.2455 124.205 64.465 124.13C64.5789 124.091 64.7022 124.049 64.8389 124C64.7222 123.792 64.6094 123.588 64.4987 123.389L64.4981 123.388C64.2575 122.955 64.0272 122.54 63.7913 122.129C63.0268 120.797 62.2572 119.468 61.4871 118.139C61.072 117.423 60.9654 117.372 60.1211 117.618C59.6825 117.746 59.2495 117.893 58.7878 118.051C58.5775 118.123 58.361 118.197 58.1353 118.272C57.9562 117.925 57.7784 117.586 57.603 117.252L57.6023 117.25L57.6017 117.249C57.2251 116.531 56.8595 115.834 56.5153 115.127C55.3953 112.823 54.2792 110.518 53.163 108.213C51.9255 105.657 50.6879 103.101 49.445 100.547C49.1704 99.9832 48.8665 99.4336 48.5625 98.8837L48.5622 98.8832C48.4188 98.6239 48.2753 98.3643 48.135 98.1035L47.8485 98.1945C47.8603 98.3527 47.8721 98.5109 47.884 98.6691L47.8841 98.6712C47.9082 98.993 47.9323 99.3148 47.9556 99.6369C48.0246 100.585 47.7903 100.886 46.8526 100.913C45.9885 100.939 45.124 100.936 44.2593 100.934H44.2586C43.9595 100.933 43.6604 100.932 43.3613 100.933C42.7018 100.934 42.0423 100.934 41.3829 100.934C40.5026 100.935 39.6224 100.935 38.7422 100.937C38.6187 100.938 38.4953 100.954 38.3639 100.971C38.3015 100.98 38.2371 100.988 38.1703 100.995V126.104C38.2484 126.104 38.3244 126.104 38.3987 126.104L38.6426 126.105C38.926 126.105 39.1874 126.105 39.4489 126.104C40.5422 126.101 41.6356 126.098 42.729 126.095H42.7301L42.8111 126.094C45.3711 126.086 47.9312 126.079 50.4912 126.074C51.8135 126.072 51.9873 126.237 52.0681 127.534C52.1216 128.396 52.162 129.258 52.1986 130.12C52.1997 130.146 52.2007 130.173 52.2017 130.199C52.2031 130.238 52.2044 130.277 52.2057 130.316C52.2269 130.946 52.2471 131.543 52.7719 132.088C53.2824 132.617 53.0701 133.37 52.8489 134.021C52.1145 136.181 49.4976 136.742 47.9438 135.08C46.8718 133.934 47.1301 132.343 48.5162 131.576C48.6223 131.517 48.735 131.471 48.8698 131.415L48.8703 131.415L48.873 131.414C48.9397 131.386 49.0117 131.356 49.091 131.321C49.0605 130.704 49.0295 130.084 48.9933 129.363C39.7259 129.479 30.5454 129.595 21.2954 129.711C21.2659 129.931 21.238 130.139 21.2111 130.341L21.2099 130.35C21.176 130.604 21.1434 130.848 21.1104 131.092C21.0573 131.481 21.1414 131.76 21.4579 132.075C22.605 133.218 22.6294 134.667 21.5917 135.905C20.793 136.858 19.7529 137.328 18.5184 137.272C17.3825 137.221 16.4927 136.696 16.0395 135.62C15.6057 134.59 15.7954 133.584 16.5415 132.794C16.9107 132.403 17.3579 132.087 17.8815 131.715L17.8829 131.715L17.8842 131.714L17.8855 131.713C18.1419 131.531 18.4167 131.336 18.7095 131.113C18.7223 130.865 18.7376 130.59 18.754 130.296C18.7931 129.592 18.8383 128.779 18.8701 127.966C18.941 126.168 18.9631 126.141 20.7221 126.097C24.063 126.014 27.404 125.929 30.745 125.841C30.9587 125.835 31.1723 125.819 31.4279 125.799C31.5665 125.788 31.7174 125.777 31.8874 125.765V100.899C31.7927 100.892 31.6917 100.884 31.5863 100.876L31.5858 100.876L31.5852 100.876C31.3293 100.856 31.0472 100.834 30.7652 100.824C29.8848 100.794 29.0043 100.767 28.1238 100.74L28.1161 100.74C27.1603 100.71 26.204 100.681 25.2482 100.648C24.1931 100.612 24.1358 100.554 24.1015 99.4576C24.0885 99.0532 24.0914 98.6482 24.0947 98.2046C24.0962 97.9953 24.0978 97.7773 24.0978 97.5468C23.8071 97.5122 23.5297 97.4797 23.261 97.4483L23.2595 97.4481C22.7486 97.3883 22.2693 97.3322 21.7908 97.2722C19.0321 96.9244 16.3241 96.3776 13.8016 95.1488C13.2847 94.8971 12.7755 94.6297 12.2664 94.3623L12.2659 94.3621C11.8117 94.1236 11.3575 93.8851 10.8978 93.6576C7.76387 92.1064 5.65176 89.6075 4.16464 86.505C2.99588 84.0657 2.52256 81.4551 2.16334 78.8098C1.40311 73.2131 1.266 67.5868 1.53318 61.9596C1.69118 58.6337 1.94544 55.3126 2.19972 51.9913C2.31197 50.5252 2.42423 49.0589 2.52819 47.5924C2.54943 47.2928 2.57053 46.9932 2.59164 46.6937C2.66013 45.7214 2.72861 44.7494 2.80148 43.7774C2.90338 42.4101 3.07759 42.2153 4.41304 42.1759C8.72977 42.0492 13.0474 41.9393 17.3642 41.8309C17.9281 41.8167 18.4924 41.8205 19.0561 41.8242C19.3134 41.8259 19.5706 41.8276 19.8275 41.8276C19.9965 41.4676 20.1556 41.1177 20.3109 40.7764C20.6466 40.0381 20.9643 39.3396 21.3245 38.6637C21.9767 37.4419 22.6811 36.2464 23.4075 35.0669C23.8428 34.3601 24.503 33.9742 25.3661 33.9203C26.9011 33.8236 28.4375 33.7212 29.966 33.5542C31.4536 33.3922 32.9355 33.166 34.4132 32.9285L34.4138 32.9284C34.5884 32.9003 34.7302 32.8776 34.8466 32.8654C34.8328 32.5469 34.8796 32.221 34.9355 31.905C35.063 31.1844 35.1964 30.4648 35.3299 29.7452C35.5928 28.3281 35.8556 26.9111 36.0723 25.4869C36.2351 24.416 36.3336 23.3349 36.4327 22.2466C36.4772 21.7585 36.5218 21.269 36.5724 20.7783C36.4709 20.72 36.3748 20.6665 36.2829 20.6155C36.0922 20.5095 35.9198 20.4136 35.7554 20.3056C34.9205 19.756 34.4209 19.0045 34.3969 17.9799C34.3711 16.8802 34.9092 16.2179 35.9892 16.0105C36.0499 15.9987 36.1132 15.9904 36.1766 15.982C36.3391 15.9605 36.5032 15.9388 36.6302 15.8598C37.1899 15.5106 37.2434 14.8831 36.6471 14.6348C36.3837 14.5253 36.1341 14.3821 35.8854 14.2394C35.7759 14.1766 35.6666 14.1139 35.5563 14.0542C33.0201 12.6822 32.5243 11.5478 32.5247 11.5478C32.2792 10.9784 32.328 9.62665 33.2779 8.80808C33.9034 8.26925 34.4974 7.63373 34.7115 6.75883C34.7989 6.40071 34.9548 6.05244 35.1243 5.72201C35.637 4.71898 36.0056 4.53968 37.1829 4.65233C37.2745 4.66097 37.3687 4.64932 37.4823 4.63526C37.5415 4.62793 37.606 4.61995 37.6783 4.61384C37.7381 4.31444 37.7419 4.01124 37.7456 3.71102C37.7489 3.45258 37.7521 3.19636 37.7909 2.94666C37.8933 2.29142 38.2093 1.5564 38.723 0.98049C39.6781 -0.0905991 40.645 -0.212634 41.9546 0.270342C42.9858 0.650527 43.5976 1.27807 43.9277 1.70754C44.1912 2.05064 44.4405 2.71573 44.3574 3.12502C45.12 2.76454 46.2286 2.4618 46.9799 3.03724C47.5828 3.49957 47.905 3.92669 48.3032 4.6007C48.2797 4.14682 48.4088 3.69482 48.7647 3.22217C49.448 2.31912 51.5944 2.09805 52.3593 3.38598C52.8148 4.15245 52.9932 4.99543 52.7448 5.87549C52.6411 6.24353 52.5095 6.60384 52.3727 6.97855ZM45.2384 3.27312C45.7555 3.20706 46.1683 3.15434 46.5057 3.39255C46.8926 3.66572 47.1175 3.90463 47.5767 4.39981C46.9447 2.96308 45.8666 2.76783 44.7706 3.32637C44.9354 3.31181 45.0911 3.29192 45.2384 3.27312ZM38.1991 4.29656C38.2084 4.33866 38.2176 4.3806 38.2262 4.42187C38.7545 2.5477 39.4236 0.904922 41.6752 0.54539C40.8393 0.0962115 40.4785 0.207327 39.7809 0.422208C39.743 0.433886 39.7041 0.44587 39.6641 0.458088C39.3236 0.561348 38.9339 0.997387 38.7385 1.2837C38.1999 2.0727 38.044 3.03724 38.1272 3.89994C38.1386 4.0219 38.1691 4.16005 38.1991 4.29656ZM32.7558 11.5149C33.2977 12.3034 34.6439 13.2088 34.9186 13.3642C35.0685 13.4489 35.2161 13.5386 35.3658 13.6296C35.8782 13.9412 36.4159 14.2681 37.1608 14.462C36.8293 13.7106 36.3592 13.4839 35.8394 13.2656C34.2476 12.5982 33.2836 11.4755 33.3376 9.65575C33.34 9.57847 33.3183 9.50062 33.2882 9.3928C33.2712 9.33166 33.2515 9.26089 33.2319 9.17512C32.3994 10.4574 32.5473 11.2112 32.7558 11.5149ZM36.9147 5.02547C35.9977 4.88372 35.599 5.16159 35.175 6.27257C35.1117 6.43826 35.0887 6.61929 35.0637 6.81666C35.0515 6.91226 35.0389 7.0117 35.021 7.11508C35.5816 6.69641 35.7803 6.82032 36.0526 7.04608C35.7554 6.31669 36.2761 5.28409 36.9147 5.02547ZM104.868 67.9895L105.284 69.3713C105.512 69.3587 105.713 69.3477 105.915 69.3366C106.111 69.3258 106.307 69.3151 106.529 69.3028C106.189 68.5467 105.78 68.0904 104.868 67.9895ZM59.2045 67.0982C59.1792 67.1644 59.1538 67.2301 59.1289 67.2958C59.1945 67.3177 59.2597 67.3422 59.3248 67.3667C59.4648 67.4194 59.6049 67.4721 59.7497 67.499C60.1326 67.5697 60.5167 67.6343 60.9008 67.6988C61.33 67.7709 61.7596 67.8431 62.1872 67.9238C62.8639 68.0515 63.4983 68.2453 63.8002 68.9775C63.9218 69.2728 64.1608 69.3399 64.4379 69.0437C64.2994 68.2895 63.7711 67.9027 63.0719 67.7656C62.1699 67.5888 61.2626 67.4394 60.3551 67.2899C59.9715 67.2267 59.5878 67.1635 59.2045 67.0982ZM102.438 69.2606H104.137C103.829 67.9107 103.331 67.5385 101.935 67.6436L102.438 69.2606ZM76.8415 122.913C76.4114 124.797 76.695 127.538 77.374 128.26C77.714 126.446 77.7839 124.673 76.8415 122.913ZM42.0438 67.3537L41.8611 69.2944H42.927C42.9478 69.0963 42.9708 68.9051 42.9932 68.7186C43.0412 68.32 43.0866 67.9424 43.1026 67.5638C43.1392 66.7044 43.1453 65.8431 43.1411 64.9828C43.1392 64.5411 42.9617 64.2524 42.3184 64.4397C42.226 65.4192 42.1352 66.383 42.0438 67.3537ZM48.1298 133.679C48.1971 133.773 48.2605 133.871 48.3238 133.969C48.4605 134.18 48.5971 134.391 48.7736 134.561C49.8498 135.6 51.5581 135.139 52.0079 133.709C52.2995 132.78 52.0216 132.28 51.0848 132.046C50.0977 131.8 49.0356 132.35 48.1298 133.679ZM84.1654 63.2903C84.1846 63.6176 84.2024 63.9432 84.22 64.2675C84.3159 66.0295 84.4098 67.7535 84.7378 69.5056C85.3637 69.4666 85.8751 69.4347 86.4803 69.3967C86.601 67.3831 86.6217 65.4644 86.3798 63.5531L85.9098 63.4686L85.9063 63.468C85.4607 63.3876 85.075 63.318 84.688 63.2555C84.6209 63.2444 84.5508 63.2521 84.4348 63.2648C84.3648 63.2724 84.278 63.282 84.1654 63.2903ZM18.6884 136.403C20.1201 136.417 21.3616 135.288 21.3696 134.01C21.3738 133.368 21.1437 132.88 20.515 132.577C19.3279 132.006 18.0441 132.28 17.244 133.334C16.7843 133.94 16.6115 134.611 16.9303 135.324C17.275 136.095 17.9727 136.334 18.6884 136.403ZM61.913 117.045C62.4165 117.865 62.8643 118.595 63.3097 119.321L63.8326 120.173L65.3055 119.349C67.303 118.232 69.2531 117.142 71.2645 116.016C71.08 115.609 70.9128 115.24 70.7299 114.837L70.6503 114.661L69.4115 114.999C66.9375 115.674 64.5083 116.337 61.913 117.045ZM74.5669 113.72C73.6756 113.613 72.9897 113.908 72.2628 114.219C72.0657 114.304 71.8655 114.39 71.6575 114.469C72.095 115.405 72.5284 116.332 72.9589 117.253C73.5577 118.533 74.1509 119.802 74.7416 121.066C74.891 121.057 75.0329 121.039 75.1674 121.023C75.455 120.987 75.7088 120.955 75.9305 121.025C76.1426 121.091 76.3199 121.268 76.4986 121.447C76.5779 121.526 76.6575 121.605 76.7405 121.675L77.0957 121.439C77.3264 121.286 77.5698 121.124 77.8619 120.93L74.5669 113.72ZM101.241 69.0968C101.071 67.8745 100.642 67.4117 99.5686 67.2874C99.0924 67.2321 98.6148 67.19 98.1372 67.1478L98.1359 67.1477C97.7166 67.1107 97.2973 67.0736 96.8789 67.0278C94.3432 66.7499 91.808 66.4664 89.2743 66.175C88.9071 66.1327 88.5423 66.0709 88.165 66.007C87.9811 65.9758 87.7942 65.9442 87.6026 65.914V68.0735L91.298 68.3508C94.6305 68.6008 97.9315 68.8484 101.241 69.0968ZM66.7107 123.416L66.7144 123.414L66.7152 123.414C67.6039 123.149 68.475 122.889 69.3373 122.602C69.5425 122.534 69.7318 122.292 69.8398 122.085C70.0811 121.623 70.3253 121.512 70.8146 121.805C71.4358 122.178 71.7359 122.063 72.0515 121.492C72.4216 120.823 72.427 120.826 73.0989 121.222L73.1188 121.233C73.2279 121.298 73.3647 121.316 73.5358 121.338C73.6253 121.35 73.7242 121.363 73.8335 121.384C73.8132 121.334 73.7934 121.285 73.774 121.237C73.5061 120.572 73.3043 120.072 72.6501 119.911C72.521 119.879 72.3341 119.474 72.3933 119.382C72.67 118.951 72.5012 118.612 72.3449 118.299C72.262 118.133 72.1827 117.974 72.1754 117.813C72.0469 117.8 71.9241 117.796 71.8074 117.793C71.5695 117.785 71.3569 117.779 71.172 117.704C70.4446 117.408 70.2558 117.445 70.0281 118.207C69.9074 118.611 69.7679 118.773 69.32 118.664C68.4128 118.444 67.529 118.977 67.2727 119.881C67.1393 120.35 66.9055 120.508 66.4561 120.267C66.3497 120.21 66.2418 120.156 66.1465 120.108C66.1052 120.087 66.066 120.068 66.0307 120.05C65.4042 120.392 64.8586 120.691 64.2449 121.028L65.7682 123.698C66.0848 123.603 66.3988 123.509 66.7107 123.416ZM76.7509 116.142L84.0494 113.128L83.6117 111.936C83.3964 111.349 83.1841 110.771 82.9595 110.159C80.383 111.23 77.9116 112.258 75.3619 113.318C75.5802 113.761 75.7915 114.191 76.0089 114.633C76.2437 115.111 76.4856 115.602 76.7509 116.142ZM82.404 114.835C82.335 114.962 82.2759 115.092 82.2185 115.219C82.0958 115.489 81.9805 115.743 81.7912 115.915C81.4801 116.2 81.3142 115.996 81.1409 115.784C81.0417 115.663 80.9401 115.539 80.8075 115.501L77.1533 116.977C77.6384 118.151 78.0765 119.211 78.5606 120.382C79.0533 119.787 79.4069 120.118 79.7448 120.434C79.7805 120.467 79.816 120.501 79.8514 120.533C80.4576 119.131 80.6154 119.092 81.8377 119.987C83.0074 119.653 84.1957 119.313 85.4451 118.957L86.2052 118.74C85.8286 117.751 85.4877 116.857 85.1486 115.968C84.5518 116.1 84.0353 116.186 83.7991 115.602C83.6199 115.159 83.8937 114.957 84.1693 114.755C84.3175 114.646 84.4662 114.536 84.5452 114.389C84.001 114.083 84.001 114.083 82.404 114.835ZM62.4901 68.9912C62.4027 68.9669 62.3158 68.9384 62.2288 68.9099C62.0436 68.8492 61.8584 68.7885 61.6688 68.7687C59.7065 68.5654 57.8968 67.8886 56.0876 67.1395C55.2466 66.7913 54.2703 66.6401 53.3528 66.6307C52.0056 66.6179 50.6552 66.7296 49.3082 66.841L49.2991 66.8417C49.1171 66.8568 48.9352 66.8718 48.7534 66.8865C47.7543 66.9676 46.7576 67.0769 45.7447 67.1879L45.7439 67.188C45.2908 67.2377 44.8344 67.2877 44.3732 67.3357C44.3635 67.4483 44.3527 67.5544 44.3423 67.6561C44.3197 67.8777 44.2993 68.0785 44.2967 68.2796C44.2939 68.4992 44.3067 68.7188 44.3222 68.9855C44.3297 69.1132 44.3378 69.252 44.3451 69.4065C46.555 69.3385 48.7557 69.3488 50.9522 69.3591H50.953C54.8031 69.3772 58.6401 69.3952 62.4901 68.9912ZM78.0694 129.578C79.0165 130.352 79.5688 130.62 81.1803 131.005C82.0926 131.223 83.0073 131.431 83.9219 131.64C85.3094 131.955 86.6972 132.271 88.0759 132.621C88.7915 132.802 89.4876 133.06 90.1765 133.315C90.4888 133.43 90.7997 133.545 91.1103 133.653C92.9907 133.375 94.8968 133.243 96.8137 133.111L96.8146 133.111C98.5461 132.991 100.287 132.871 102.025 132.642C101.815 131.754 101.226 131.42 100.558 131.27C99.6099 131.056 98.6431 130.917 97.679 130.784C96.4856 130.621 95.2902 130.471 94.0949 130.321C93.5055 130.247 92.9161 130.172 92.3269 130.097C90.6557 129.883 89.6119 128.933 89.1235 127.346C89.0957 127.256 89.0673 127.166 89.0388 127.075C88.9094 126.665 88.7795 126.252 88.708 125.831C88.5591 124.957 88.4274 124.08 88.2957 123.203C88.2105 122.636 88.1253 122.068 88.0355 121.502C87.963 121.044 87.8783 120.588 87.7861 120.092L87.7858 120.09C87.7402 119.844 87.6927 119.589 87.6439 119.318L77.6468 122.164C78.794 124.57 78.601 127.045 78.0694 129.578ZM68.4286 134.443L68.4288 134.442C68.5226 134.16 68.6029 133.918 68.7255 133.7C68.8767 133.432 69.1007 133.119 69.3608 133.033C69.4841 132.992 69.7086 133.216 69.8989 133.406L69.8997 133.407L69.9473 133.454C69.9715 133.478 69.995 133.501 70.0173 133.522C70.1502 133.648 70.2558 133.816 70.3347 133.984C70.5657 134.477 70.9503 134.691 71.4861 134.71C71.8807 134.723 72.2754 134.747 72.6699 134.77H72.6706C73.3241 134.809 73.9778 134.848 74.6308 134.841C78.5917 134.798 82.5522 134.736 86.513 134.674L87.6624 134.657C88.2699 134.647 88.8775 134.638 89.4851 134.628C89.6206 134.626 89.756 134.61 89.8912 134.594L89.8918 134.594C89.93 134.589 89.9682 134.585 90.0064 134.58C90.0338 134.577 90.0611 134.574 90.0885 134.572C90.0941 134.549 90.0997 134.526 90.1053 134.503L90.1217 134.436L90.1226 134.432L90.1486 134.326C89.9944 134.264 89.8417 134.196 89.689 134.128L89.6879 134.127L89.6859 134.126C89.3491 133.976 89.0124 133.826 88.6601 133.738C87.5898 133.472 86.5153 133.222 85.4408 132.973L85.4378 132.972C84.5796 132.772 83.7213 132.573 82.8651 132.365C82.809 132.352 82.7528 132.338 82.6966 132.325C82.6581 132.315 82.6197 132.306 82.5812 132.297C82.4702 132.27 82.3591 132.244 82.248 132.217L82.2324 132.214L82.2248 132.212L82.224 132.212C81.2349 131.977 80.244 131.741 79.2865 131.412C77.4341 130.777 76.2522 129.473 76.0268 127.492C75.9161 126.518 75.8838 125.535 75.8514 124.552C75.8369 124.113 75.8224 123.673 75.8009 123.234L75.7776 122.752C75.7654 122.5 75.7522 122.227 75.7361 121.899C71.8331 122.743 68.1888 123.904 64.4261 125.187C65.3066 126.847 65.4066 128.523 65.2432 130.212C65.1639 131.031 65.0212 131.844 64.8785 132.657C64.8142 133.024 64.7499 133.39 64.6914 133.757C64.6552 133.984 64.6203 134.211 64.5794 134.478C64.5573 134.622 64.5333 134.778 64.5064 134.951C64.7668 134.951 65.0136 134.952 65.2511 134.953L65.2599 134.953C65.7945 134.955 66.2818 134.957 66.7688 134.948C67.0987 134.943 67.4284 134.923 67.7796 134.902L67.7812 134.902L67.7834 134.902C67.9438 134.893 68.1088 134.883 68.2803 134.874C68.3364 134.721 68.3836 134.579 68.4278 134.446L68.4286 134.443ZM51.1017 126.953C50.8579 126.953 50.6349 126.953 50.4254 126.953C50.0421 126.953 49.7039 126.952 49.3657 126.953C48.2244 126.957 47.083 126.96 45.9417 126.964C43.5542 126.972 41.1668 126.98 38.7793 126.983C37.3429 126.984 37.2696 126.9 37.2673 125.434C37.2665 124.924 37.2691 124.414 37.2716 123.904C37.2769 122.839 37.2822 121.773 37.2574 120.709C37.2012 118.309 37.2306 115.908 37.26 113.506C37.3109 109.35 37.3618 105.194 36.9686 101.045C36.9015 100.338 37.118 100.106 37.835 100.021C37.9717 100.005 38.1105 100.008 38.2492 100.01C38.2986 100.011 38.3482 100.012 38.3975 100.012C40.8507 100.014 43.3034 100.016 45.7566 100.018H45.7665L46.1052 100.019C46.2501 100.019 46.4006 100.019 46.5656 100.019L47.0634 100.018C46.9592 99.1797 46.8742 98.4977 46.7756 97.7073C42.1347 98.0834 37.5304 98.0037 32.93 97.924C30.3132 97.8787 27.6975 97.8334 25.0773 97.8721V99.7753C25.3745 99.7753 25.6606 99.7736 25.9392 99.7719C26.5335 99.7682 27.0934 99.7647 27.6529 99.7791C29.0409 99.8157 30.4285 99.8692 31.8156 99.9293C32.8867 99.9753 32.9778 100.076 32.997 101.103C32.9999 101.231 32.9985 101.36 32.9972 101.489L32.9966 101.553C32.9772 103.814 32.958 106.075 32.9388 108.335L32.9385 108.363C32.8905 114.005 32.8425 119.647 32.7932 125.29C32.782 126.538 32.6134 126.703 31.3512 126.733C30.1464 126.762 28.9417 126.79 27.737 126.818L27.7334 126.819C25.4868 126.871 23.2402 126.924 20.9935 126.979C20.7514 126.985 20.5092 127.006 20.2389 127.03C20.1024 127.042 19.9585 127.054 19.8041 127.066C19.7874 127.372 19.7703 127.675 19.7533 127.975L19.7532 127.977C19.6963 128.98 19.6413 129.952 19.6138 130.924C19.6111 131.015 19.7171 131.108 19.8607 131.235C19.9404 131.306 20.0317 131.387 20.1224 131.483C20.1407 131.365 20.1579 131.254 20.1742 131.148L20.2155 130.884L20.2156 130.883C20.2723 130.519 20.3181 130.225 20.3614 129.93C20.5136 128.89 20.6497 128.753 21.7274 128.732L22.0145 128.727C24.808 128.672 27.6011 128.618 30.3947 128.589C33.0403 128.562 35.686 128.543 38.3316 128.523L38.3531 128.523C40.6547 128.506 42.9563 128.489 45.2579 128.468C45.8307 128.462 46.4035 128.44 46.9763 128.418L46.9795 128.418C47.6059 128.394 48.2322 128.37 48.8586 128.367C49.669 128.363 49.8296 128.546 49.9221 129.341C49.9685 129.737 50.0125 130.133 50.0575 130.54L50.0576 130.541C50.0745 130.693 50.0916 130.847 50.109 131.003H51.3186C51.2472 129.664 51.1778 128.37 51.1017 126.953ZM47.2832 96.2697C46.5459 94.7236 45.6552 93.3967 44.7583 92.0703C44.4169 91.5657 43.9732 91.2728 43.3895 91.1935C42.8922 91.1262 42.3951 91.0557 41.898 90.9853C40.5059 90.7879 39.1134 90.5905 37.7148 90.4622C37.5001 90.4425 37.2854 90.4233 37.0708 90.4042L37.0639 90.4035C34.7382 90.1956 32.4195 89.9884 30.1993 89.1654C27.0763 88.0074 24.9796 85.9239 24.0015 82.6825C22.8694 78.9309 22.876 75.1464 23.3887 71.3197C23.4138 71.1332 23.4215 70.9446 23.43 70.7364C23.4343 70.6328 23.4387 70.5245 23.4456 70.4091C23.3043 70.4025 23.1735 70.395 23.0496 70.3879C22.8016 70.3737 22.5815 70.3611 22.3613 70.3608C21.711 70.3595 21.0606 70.3602 20.4102 70.3609C19.3338 70.3621 18.2573 70.3632 17.1811 70.3556L17.1473 70.3554C16.8647 70.3538 16.5246 70.3519 16.326 70.2012C14.8384 69.0714 13.8044 67.738 13.8706 65.6859C13.9343 63.7147 14.3129 61.8117 14.6933 59.8995C14.7221 59.7546 14.751 59.6096 14.7797 59.4645C15.7479 54.5695 16.7655 49.6895 18.6226 45.0306C18.8158 44.5452 18.991 44.0527 19.1824 43.5145C19.2762 43.2507 19.374 42.9758 19.4796 42.6856C17.8561 42.7308 16.2467 42.7707 14.6462 42.8103L14.6419 42.8105L14.6408 42.8105C10.9741 42.9013 7.35355 42.991 3.71526 43.1409C3.68192 43.6233 3.64972 44.0911 3.61822 44.5487C3.5468 45.5861 3.47897 46.5715 3.40957 47.5567C3.3064 49.022 3.19668 50.487 3.08696 51.9519C2.83812 55.2742 2.5893 58.5965 2.41691 61.9225C2.19198 66.2707 2.20701 70.6311 2.63713 74.9685C2.89211 77.5378 3.22409 80.1141 3.75611 82.6379C4.46986 86.0234 6.06263 89.0213 8.81618 91.1921C11.2452 93.1066 14.0242 94.4908 16.9979 95.3521C19.5956 96.1049 22.2862 96.5175 24.9989 96.5101C30.3566 96.4954 35.7143 96.4436 41.072 96.3918L41.0754 96.3918C42.9634 96.3735 44.8514 96.3553 46.7394 96.3387C46.8273 96.3381 46.9152 96.3244 47.0387 96.3053C47.1072 96.2947 47.1867 96.2824 47.2832 96.2697ZM23.6059 36.4126C23.3212 36.8775 23.047 37.3255 22.8037 37.7897C20.4957 42.1933 18.7363 46.8235 17.4698 51.6153C16.663 54.669 16.044 57.774 15.4254 60.8764C15.3035 61.4882 15.1815 62.0999 15.0581 62.7111C14.7764 64.1051 14.6604 65.5348 14.9285 66.963C15.1638 68.2158 16.1654 69.1986 17.4248 69.3559C17.6583 69.3851 17.8963 69.3828 18.1335 69.3805C18.1971 69.3799 18.2611 69.3793 18.3244 69.3793H18.3405C25.5811 69.3793 32.8221 69.3793 40.0631 69.3742C40.2547 69.3742 40.4463 69.3509 40.6575 69.3252L40.6584 69.3251C40.7641 69.3122 40.8748 69.2987 40.9928 69.2873C41.0346 68.8007 41.079 68.3199 41.1231 67.8429C41.2266 66.7227 41.3281 65.6241 41.3887 64.5233C41.445 63.5005 41.2229 63.2443 40.2702 62.8608L40.2101 62.8366C39.85 62.6914 39.4873 62.5452 39.1146 62.4402C38.2153 62.1873 37.314 61.9422 36.4127 61.697L36.4092 61.6961C35.8282 61.538 35.2472 61.38 34.6668 61.2199C33.4685 60.889 32.2701 60.6266 31.0065 60.7177C30.1392 60.7801 29.4053 61.0664 28.8108 61.6846C28.7867 61.7097 28.7629 61.7353 28.7394 61.7608C28.5513 61.9642 28.3749 62.1549 28.0699 61.953C27.7318 61.7296 27.8745 61.4353 28.0154 61.1589C28.1571 60.8806 28.2968 60.6013 28.4365 60.322C28.7498 59.6955 29.063 59.0691 29.3992 58.4549C30.0364 57.2908 30.4689 56.0724 30.6567 54.7511C30.7563 54.0536 30.9845 53.3693 31.2141 52.6995C31.2798 52.5076 31.5587 52.256 31.7339 52.2607C32.1426 52.2715 32.1119 52.6393 32.0866 52.9438L32.0865 52.9445C32.0798 53.0248 32.0626 53.104 32.0455 53.1832C32.0388 53.2142 32.0321 53.2453 32.026 53.2764C31.9432 53.6932 31.86 54.1099 31.7769 54.5266L31.7768 54.5273C31.6106 55.3604 31.4444 56.1936 31.2808 57.0275C31.1628 57.628 31.0485 58.2293 30.9385 58.8084L30.9371 58.8156C30.8874 59.0773 30.8385 59.3346 30.7905 59.5851C31.2372 59.6716 31.6767 59.7529 32.1105 59.8331L32.111 59.8332C33.0701 60.0105 34.0017 60.1827 34.9237 60.3957C35.9453 60.6318 36.9575 60.909 37.9697 61.1861C38.368 61.2952 38.7664 61.4043 39.1653 61.5109C39.2614 61.5366 39.3578 61.5617 39.4541 61.5867C40.5099 61.8616 41.5617 62.1354 42.233 63.157C42.3452 63.3278 42.6889 63.4053 42.9331 63.4212C43.5745 63.4634 43.8656 63.8258 43.9722 64.4069C44.0089 64.6078 44.0472 64.8085 44.0947 65.0576C44.1153 65.1658 44.1377 65.2832 44.1624 65.4137C44.427 65.4137 44.6895 65.4125 44.9505 65.4113H44.9517C45.6351 65.4082 46.3083 65.4052 46.9808 65.4235C47.2531 65.4306 47.7025 65.4859 47.7588 65.6361C47.899 66.0103 48.1321 65.9893 48.3863 65.9664C48.4156 65.9638 48.4452 65.9611 48.4749 65.9591C48.696 65.9433 48.9169 65.9229 49.1377 65.9025C49.5152 65.8675 49.8927 65.8326 50.271 65.8211C50.5843 65.8116 50.8979 65.8 51.2114 65.7884L51.2124 65.7884C52.2866 65.7486 53.3619 65.7087 54.4323 65.7563C55.9645 65.8244 57.4944 66.0046 59.0181 66.1937C60.2639 66.3489 61.5027 66.5554 62.7413 66.762L62.7428 66.7622L62.7454 66.7626C62.9107 66.7902 63.0761 66.8178 63.2414 66.8452C64.1251 66.9917 64.714 67.5493 65.1249 68.3115C65.2319 68.5097 65.3231 68.7165 65.4209 68.9382C65.468 69.0452 65.5168 69.1559 65.5695 69.2704H83.2408C83.2673 69.1814 83.2955 69.1024 83.3214 69.0298C83.3711 68.8907 83.4122 68.7753 83.4169 68.6584C83.4283 68.3632 83.4403 68.0681 83.4522 67.7729L83.4523 67.7713C83.5069 66.4223 83.5615 65.0733 83.57 63.7239C83.5742 62.9931 83.1525 62.4055 82.4773 62.1511C81.8213 61.9042 81.1103 61.6972 80.4173 61.6771C79.6751 61.6552 78.9316 61.6856 78.188 61.716L78.1874 61.716C77.5433 61.7423 76.8989 61.7687 76.255 61.7611C76.1734 61.7601 76.0914 61.7594 76.009 61.7587L76.008 61.7587C75.1553 61.7513 74.2676 61.7435 73.4907 61.471C71.7514 60.8613 69.9905 60.7754 68.2836 61.2316C67.0036 61.5743 65.7794 61.5461 64.5191 61.4447C64.4354 61.4379 64.3403 61.4427 64.2428 61.4475C63.9088 61.4642 63.5463 61.4823 63.5128 61.0434C63.5015 60.8944 63.7335 60.7269 63.9942 60.5386C64.122 60.4463 64.2568 60.3489 64.3731 60.2464C64.3731 60.2359 64.3733 60.2231 64.3736 60.2084C64.3739 60.1967 64.3742 60.1838 64.3746 60.1699C64.3771 60.0778 64.3808 59.9401 64.3717 59.8033C64.3013 58.7657 64.2345 57.7278 64.1677 56.69L64.1675 56.6873C64.0006 54.0951 63.8336 51.5031 63.6124 48.9155C63.4339 46.8268 63.17 44.7363 62.7747 42.6791C62.5846 41.6908 62.1863 40.738 61.7914 39.7936C61.7083 39.5947 61.6253 39.3962 61.5444 39.1978C61.3946 38.8312 61.1749 38.3853 60.5517 38.3304C60.5386 38.4773 60.5293 38.6205 60.5202 38.7607C60.499 39.0876 60.4789 39.3979 60.4142 39.6981C60.3681 39.9117 60.1855 40.2163 60.0117 40.2576C59.6196 40.3505 59.5192 39.9877 59.4938 39.6878C59.4764 39.4835 59.5106 39.2734 59.5444 39.0654C59.5527 39.0145 59.561 38.9635 59.5685 38.9129C59.612 38.6217 59.661 38.3316 59.7148 38.0132L59.7149 38.0124C59.7412 37.8567 59.7686 37.6943 59.7971 37.5217C56.336 36.3652 52.864 35.4823 49.3479 34.5947C49.3099 34.7449 49.2761 34.885 49.2439 35.018C49.1793 35.2855 49.1215 35.5246 49.0516 35.7597C48.0608 39.0776 45.2363 40.7401 41.8911 39.8901C38.9249 39.1368 36.5925 37.4748 35.0406 34.7928C34.9301 34.6018 34.8136 34.4139 34.6822 34.2018L34.6819 34.2013C34.6174 34.0973 34.5494 33.9875 34.4766 33.8686C32.7017 34.4161 30.8778 34.4969 29.0623 34.5774C27.6838 34.6385 26.3101 34.6994 24.9665 34.9641C24.9229 35.3184 25.077 35.6205 25.2316 35.9238C25.4654 36.3824 25.7005 36.8436 25.2562 37.4916L24.9991 37.1267C24.6669 36.6552 24.3723 36.2371 24.0175 35.7329C23.8795 35.9656 23.7417 36.1907 23.6063 36.4119L23.6059 36.4126ZM48.3573 74.4886C48.5456 74.4347 48.7331 74.3811 48.9163 74.3935C51.2242 74.5494 53.4242 75.0732 55.4682 76.2194C58.4312 77.8809 60.2799 80.568 62.1074 83.2805C62.3976 83.7109 62.639 84.1873 62.8277 84.6712C65.329 91.0834 67.8243 97.4977 70.3196 103.912L70.3501 103.99C71.3519 106.566 72.3537 109.141 73.3559 111.716C73.4444 111.943 73.5443 112.167 73.654 112.412C73.7083 112.534 73.7651 112.661 73.8241 112.796C76.0251 112.08 78.1122 111.188 80.1948 110.298C81.1459 109.891 82.0961 109.485 83.0558 109.096C83.0172 108.952 82.9824 108.819 82.9498 108.694C82.8853 108.448 82.8291 108.232 82.767 108.019C82.4389 106.896 82.1098 105.773 81.7807 104.65C81.3086 103.039 80.8365 101.429 80.3675 99.8171C78.5554 93.5891 76.7457 87.3602 74.9379 81.1313C74.2641 78.8084 72.9389 76.9168 70.9442 75.5862C68.1991 73.7547 65.3188 72.1335 62.1863 71.0507C61.0302 70.6508 59.7934 70.3528 58.5781 70.2857C57.2353 70.2113 55.887 70.2413 54.5383 70.2714L54.5373 70.2714C53.8603 70.2865 53.1832 70.3016 52.5066 70.3035C46.316 70.3202 40.125 70.3325 33.9342 70.3447H33.9301L33.5502 70.3455C32.0257 70.3485 30.5011 70.3516 28.9766 70.3547C28.0035 70.3566 27.0302 70.3561 26.0333 70.3556L26.0044 70.3556C25.5537 70.3553 25.0981 70.3551 24.6354 70.3551C24.5956 70.5022 24.5517 70.6424 24.5092 70.7783C24.4214 71.0587 24.3393 71.3212 24.3096 71.5896C23.9151 75.1797 23.7588 78.7417 24.8284 82.2845C25.8112 85.5381 27.9755 87.463 31.1047 88.4801C32.9036 89.0649 34.7621 89.2902 36.639 89.4127C38.9239 89.5611 41.2023 89.7427 43.4487 90.2341C44.3042 90.4214 44.9302 90.8138 45.4547 91.5286C47.104 93.7767 48.3284 96.2607 49.5509 98.7411L49.5513 98.7417C49.6506 98.9432 49.7498 99.1446 49.8493 99.3459C51.7218 103.134 53.5618 106.938 55.4017 110.742L55.4021 110.743L55.403 110.745L55.4033 110.746C56.2893 112.577 57.1753 114.409 58.0649 116.239C58.1494 116.413 58.2587 116.575 58.3731 116.744C58.4283 116.826 58.4847 116.909 58.5401 116.997C60.5904 116.424 62.6341 115.872 64.6749 115.32L64.6754 115.32C67.4194 114.579 70.1585 113.838 72.9014 113.053C72.8305 112.86 72.7666 112.685 72.7068 112.52L72.7066 112.519C72.5913 112.202 72.491 111.926 72.3844 111.652C70.7721 107.528 69.1592 103.404 67.5463 99.2798L67.4629 99.0665C66.3039 96.1032 65.1449 93.1399 63.9861 90.1764C63.834 89.7869 63.6805 89.3979 63.5269 89.0089C63.1022 87.9331 62.6776 86.8574 62.283 85.7705C61.4384 83.4441 59.8775 81.5965 58.3195 79.7524L58.202 79.6133C56.7661 77.9128 54.9611 76.6934 52.8316 76.0537C52.0045 75.8051 51.1463 75.6599 50.2881 75.5148C49.8889 75.4473 49.4894 75.3797 49.0933 75.3018C49.0187 75.2871 48.9395 75.2791 48.8597 75.271C48.5034 75.235 48.1337 75.1977 48.0922 74.5578C48.1804 74.5393 48.2691 74.5139 48.3573 74.4886Z" fill="black"/>
<path d="M82.3767 118.127C82.4654 118.204 82.5635 118.288 82.6657 118.389C82.7592 118.282 82.855 118.188 82.9429 118.102C83.1277 117.92 83.2779 117.773 83.3005 117.609C83.3216 117.449 82.9713 117.142 82.7347 117.066C82.4107 116.962 81.8932 117.437 82.0031 117.708C82.0641 117.858 82.2022 117.977 82.3767 118.127Z" fill="black"/>
<path d="M79.5458 117.981C79.6391 117.891 79.7454 117.788 79.874 117.682C79.737 117.602 79.6191 117.526 79.5132 117.458C79.2833 117.31 79.1104 117.198 78.9236 117.165C78.8161 117.146 78.5461 117.486 78.5193 117.686C78.47 118.054 78.6996 118.366 79.095 118.299C79.2413 118.274 79.3709 118.149 79.5458 117.981Z" fill="black"/>
<path d="M71.4375 120.51C71.5401 120.446 71.6568 120.374 71.7841 120.309C71.6822 120.207 71.5959 120.11 71.5181 120.023C71.3524 119.837 71.2253 119.695 71.0671 119.636C70.9572 119.595 70.5501 119.938 70.5731 120.043C70.6257 120.284 70.8201 120.554 71.0347 120.676C71.1047 120.715 71.2466 120.628 71.4375 120.51Z" fill="black"/>
<path d="M68.1154 122.312C68.2193 122.247 68.3373 122.172 68.4756 122.097C68.3445 121.999 68.2392 121.909 68.1487 121.831C67.9838 121.69 67.8685 121.592 67.7375 121.562C67.3928 121.483 67.128 121.72 67.1557 122.049C67.1717 122.232 67.4449 122.524 67.613 122.531C67.759 122.538 67.9099 122.442 68.1154 122.312Z" fill="black"/>
<path d="M68.942 119.746C69.0131 119.846 69.0855 119.935 69.1525 120.017C69.2986 120.196 69.4196 120.345 69.4486 120.51C69.4632 120.592 69.307 120.705 69.151 120.817C69.0807 120.868 69.0106 120.918 68.956 120.966C68.9076 120.905 68.8556 120.845 68.8035 120.785C68.6703 120.632 68.5369 120.478 68.4639 120.3C68.4426 120.248 68.5494 120.143 68.6924 120.003C68.7698 119.927 68.8579 119.841 68.942 119.746Z" fill="black"/>
<path d="M66.0763 121.86C66.1548 121.789 66.2435 121.708 66.3493 121.623C66.2282 121.559 66.1249 121.496 66.0336 121.441C65.8475 121.327 65.7111 121.244 65.575 121.245C65.4647 121.246 65.2599 121.57 65.274 121.733C65.2877 121.888 65.5567 122.161 65.6652 122.139C65.7988 122.113 65.9163 122.006 66.0763 121.86Z" fill="black"/>
<path fill-rule="evenodd" clip-rule="evenodd" d="M45.3705 15.7002L46.088 18.5375L45.0414 18.6422L45.3705 15.7002Z" fill="black"/>
<path fill-rule="evenodd" clip-rule="evenodd" d="M44.5439 13.6172C44.5439 13.6172 44.5871 14.486 44.3945 14.6681C43.5869 14.5789 41.7687 14.8788 40.8568 15.2811C41.2156 14.4489 44.5439 13.6172 44.5439 13.6172Z" fill="black"/>
<path fill-rule="evenodd" clip-rule="evenodd" d="M43.1523 17.5053C42.8922 17.5213 42.633 17.4729 42.3912 17.3931C42.4804 17.4194 42.5757 17.434 42.6748 17.434C43.1692 17.434 43.5716 17.081 43.5716 16.6478C43.5716 16.4732 43.4359 16.2643 43.3078 16.1197C43.9417 16.1779 44.4981 16.5079 44.7033 16.6435C44.5197 16.8613 43.9478 17.4565 43.1523 17.5053ZM41.8018 16.4319C41.7873 16.5065 41.7784 16.5882 41.7784 16.6478C41.7784 16.9622 41.9901 17.234 42.2949 17.3593C41.8286 17.1866 41.4426 16.9087 41.2778 16.7792C41.3736 16.6975 41.5525 16.5605 41.8018 16.4319ZM44.9076 16.5426C44.8742 16.5178 44.0788 15.9235 43.1448 15.9113C41.861 15.8968 41.0867 16.6806 41.0538 16.7139C41.035 16.7332 41.0252 16.7599 41.0261 16.7872C41.0271 16.8139 41.0393 16.8397 41.0595 16.8576C41.1003 16.8937 42.0333 17.7076 43.05 17.7076C43.088 17.7076 43.1265 17.7062 43.1645 17.7038C44.2309 17.6377 44.9005 16.7191 44.9287 16.6802C44.9602 16.636 44.9508 16.5755 44.9076 16.5426Z" fill="black"/>
<path fill-rule="evenodd" clip-rule="evenodd" d="M47.529 17.305C47.3008 17.3209 47.0721 17.2651 46.8627 17.1778C46.8988 17.1848 46.9354 17.1895 46.9721 17.1895C47.3707 17.1895 47.6943 16.8657 47.6943 16.4676C47.6943 16.2935 47.6332 16.1302 47.5233 16.0011C47.5675 15.9983 47.6126 15.9969 47.6576 15.9969H47.6581C48.1606 15.9969 48.6207 16.3512 48.7818 16.4906C48.6386 16.6892 48.1742 17.2585 47.529 17.305ZM46.025 16.6286C46.0771 16.584 46.1555 16.5216 46.2565 16.4531C46.2762 16.6202 46.348 16.7882 46.4617 16.9248C46.4922 16.9623 46.525 16.9947 46.5593 17.0243C46.3175 16.8816 46.125 16.7192 46.025 16.6286ZM48.9832 16.4043C48.9579 16.3794 48.3629 15.7979 47.6581 15.7979H47.6576C46.5668 15.7979 45.8381 16.5263 45.8075 16.5573C45.7695 16.5958 45.7695 16.6577 45.8071 16.6967C45.816 16.7056 46.0226 16.9163 46.3377 17.1215C46.7298 17.3773 47.1026 17.5068 47.4468 17.5068C47.4792 17.5068 47.5111 17.5059 47.5431 17.5035C48.4249 17.4402 48.9748 16.5643 48.9978 16.5272C49.0222 16.4878 49.0161 16.4367 48.9832 16.4043Z" fill="black"/>
<path fill-rule="evenodd" clip-rule="evenodd" d="M45.928 13.6172C45.928 13.6172 45.8843 14.486 46.0773 14.6681C46.8845 14.5789 48.1847 14.7929 49.0966 15.1947C48.7379 14.363 45.928 13.6172 45.928 13.6172Z" fill="black"/>
<path fill-rule="evenodd" clip-rule="evenodd" d="M43.6566 19.6973C44.1529 20.1666 44.5563 20.4276 45.2287 20.4722C45.9011 20.5172 46.3721 20.2713 46.3721 20.2713C46.3721 20.2713 45.834 21.1842 45.1837 21.3537C43.8388 21.7052 43.9022 20.6505 43.6566 19.6973Z" fill="black"/>
<path fill-rule="evenodd" clip-rule="evenodd" d="M92.2385 58.5286L65.8246 58.221C63.7178 57.1737 62.3631 56.1798 61.7605 55.2393C61.1578 54.2988 61.6575 50.7041 63.2596 44.455L69.3714 16.7014C69.6381 15.0966 70.2737 14.099 71.2785 13.7085C73.1327 12.9878 77.1111 13.251 79.5982 13.251C83.4911 13.251 90.1005 13.4035 99.4265 13.7085H124.012C126.379 14.0405 127.902 14.6224 128.581 15.454C129.601 16.7014 129.601 17.1166 129.601 19.881C129.601 21.7239 127.236 33.2477 122.507 54.4525C122.139 56.7598 121.733 58.016 121.291 58.221C120.849 58.4261 116.3 58.5286 107.645 58.5286L110.515 68.0022L121.291 68.6867V69.8807H83.1917V68.6867H93.5001L92.2385 58.5286Z" fill="white"/>
<path fill-rule="evenodd" clip-rule="evenodd" d="M99.2168 34.9074C100.604 34.8849 101.456 34.0694 101.431 32.7893C101.404 31.3752 100.675 30.5695 99.4553 30.606C98.0339 30.6482 97.0183 31.5897 97.0281 32.8553C97.038 34.023 98.0025 34.9275 99.2168 34.9074ZM100.474 32.8075C100.467 33.6286 100.044 34.0366 99.2257 34.0141C98.5401 33.9949 97.9217 33.4225 97.9734 32.8548C98.0222 32.3106 98.9886 31.4946 99.5737 31.5026C100.137 31.5105 100.481 32.0089 100.474 32.8075Z" fill="black"/>
<path fill-rule="evenodd" clip-rule="evenodd" d="M110.559 67.7984C109.693 64.9004 108.851 62.0848 107.984 59.1873C108.141 59.1735 108.279 59.1592 108.405 59.1462C108.641 59.1218 108.832 59.102 109.024 59.0983C109.924 59.0809 110.824 59.0662 111.725 59.0516C113.49 59.0228 115.256 58.994 117.021 58.9447C117.879 58.9208 118.749 58.8477 119.588 58.6758C120.882 58.4107 121.83 57.6327 122.326 56.3998C122.674 55.5352 122.995 54.6494 123.217 53.7454C123.5 52.5898 123.739 51.4231 123.977 50.2566C124.061 49.8468 124.145 49.437 124.23 49.0277C124.836 46.1321 125.442 43.2364 126.047 40.3407C126.989 35.8381 127.93 31.3355 128.874 26.8334C128.989 26.2854 129.095 25.7345 129.201 25.1836C129.478 23.7469 129.755 22.3098 130.189 20.9217C130.662 19.4055 130.433 17.9914 129.906 16.6766C129.342 15.2714 128.193 14.2231 126.706 13.6826C125.359 13.1926 123.969 12.905 122.524 12.9032C117.53 12.8971 112.535 12.8849 107.54 12.8666C103.176 12.8506 98.8122 12.8331 94.448 12.8156C87.3235 12.787 80.199 12.7585 73.0747 12.7364C70.4094 12.7275 68.7936 14.1622 68.2456 16.4232C68.1346 16.8807 68.0219 17.3378 67.9092 17.795C67.5652 19.1904 67.2212 20.5858 66.9252 21.9911C66.0707 26.0475 65.2223 30.1052 64.374 34.163C63.1627 39.9567 61.9514 45.7504 60.7222 51.5402C60.4362 52.884 60.5818 54.1506 61.0124 55.3975C61.6961 57.3779 64.1191 58.9245 66.2251 58.806C66.3219 58.8005 66.4187 58.7949 66.5156 58.7892C67.1674 58.7513 67.8199 58.7133 68.472 58.7133C75.832 58.7156 83.192 58.7264 90.5515 58.7381C90.7724 58.7384 90.9929 58.7527 91.2382 58.7685C91.361 58.7764 91.4899 58.7848 91.6282 58.792C91.9095 60.6285 92.1884 62.4478 92.4697 64.2831C92.6552 65.4932 92.8418 66.7102 93.0308 67.9436C92.8503 67.9436 92.6887 67.9434 92.5398 67.9432C92.2399 67.9428 91.9915 67.9425 91.7433 67.9441C88.9648 67.9614 86.1864 67.9792 83.4075 67.9989C83.145 68.0007 82.8821 68.0064 82.6205 68.0274C82.2223 68.0588 82.0415 68.2733 82.0105 68.6832C81.9021 70.1301 82.451 70.7334 83.8879 70.7223C84.6945 70.7163 85.5012 70.71 86.3079 70.7038C89.1062 70.6821 91.9047 70.6604 94.7029 70.6491C98.5639 70.6333 102.425 70.6196 106.286 70.6059C111.024 70.5891 115.763 70.5723 120.501 70.5517C120.841 70.5501 121.182 70.5141 121.531 70.4771C121.699 70.4594 121.869 70.4415 122.041 70.4271C122.041 70.221 122.046 70.0302 122.05 69.8499C122.058 69.4832 122.065 69.16 122.033 68.8411C121.941 67.9281 121.743 67.7525 120.83 67.7544C119.756 67.7565 118.681 67.7667 117.607 67.7769C116.767 67.7849 115.927 67.7929 115.087 67.797C114.06 67.8021 113.033 67.8009 111.989 67.7996C111.517 67.799 111.04 67.7984 110.559 67.7984ZM121.131 69.6556L121.131 69.657C120.462 69.657 119.802 69.6562 119.147 69.6554C117.741 69.6537 116.36 69.652 114.98 69.6584C108.033 69.6909 101.085 69.7259 94.1377 69.7609C90.982 69.7768 87.8263 69.7926 84.6706 69.8083C84.333 69.8097 83.9949 69.8069 83.6568 69.8013L83.6437 69.8011C83.2998 69.7956 82.9432 69.7899 82.9546 69.3015C82.9648 68.8972 83.2564 68.8879 83.5385 68.8789C83.5604 68.8782 83.5822 68.8775 83.6038 68.8767C83.757 68.8701 83.9109 68.8693 84.0644 68.8684C84.0985 68.8682 84.1327 68.868 84.1668 68.8677C88.1653 68.8399 92.1637 68.812 96.1622 68.7841C104.145 68.7283 112.128 68.6726 120.111 68.6176C121.06 68.6115 121.061 68.6181 121.131 69.6556ZM127.147 14.9501L127.147 14.9519C125.724 14.9421 124.301 14.9324 122.878 14.9228C120.029 14.9034 117.18 14.884 114.331 14.8634C109.952 14.8315 105.574 14.7995 101.195 14.7674C92.4696 14.7036 83.7444 14.6398 75.0191 14.5768C74.9863 14.5765 74.9534 14.5763 74.9205 14.576C74.6158 14.5735 74.3094 14.571 74.0072 14.6002C71.503 14.8419 70.1976 15.8859 69.5717 18.3385C69.1787 19.88 68.8599 21.4405 68.541 23.0008C68.4403 23.4933 68.3397 23.9859 68.2367 24.4778C66.3068 33.7067 64.3773 42.9356 62.4638 52.1678C62.3316 52.807 62.249 53.4567 62.1608 54.1507C62.1181 54.4867 62.0741 54.8331 62.0224 55.1937C61.9684 55.1048 61.9157 55.0289 61.868 54.9604C61.7786 54.8318 61.7074 54.7292 61.6801 54.6162C61.4571 53.7 61.404 52.7927 61.6055 51.8437C62.9767 45.4035 64.3354 38.9607 65.6942 32.518C66.4274 29.0412 67.1606 25.5644 67.8958 22.088C68.2747 20.295 68.6612 18.5024 69.1063 16.7253C69.2571 16.1215 69.5426 15.5295 69.8717 14.9969C70.2577 14.3716 70.8499 13.9819 71.6298 13.9322C71.9473 13.912 72.2645 13.8782 72.5816 13.8444C73.0858 13.7907 73.5897 13.737 74.0936 13.7378C89.6373 13.7603 105.18 13.788 120.723 13.8498C122.29 13.8559 123.86 14.0489 125.418 14.2419C125.834 14.2934 126.235 14.4591 126.636 14.6247C126.818 14.6999 127 14.775 127.184 14.8395C127.171 14.8764 127.159 14.9133 127.147 14.9501ZM109.467 67.6354C108.612 67.8996 95.381 68.0513 93.9084 67.8195C92.9665 61.6061 92.0212 55.3745 91.0572 49.0211C91.2059 49.0211 91.3342 49.0209 91.4496 49.0208C91.6488 49.0205 91.8097 49.0202 91.9705 49.0211C92.6351 49.0242 93.2996 49.0272 93.9642 49.0303C96.9412 49.0439 99.9185 49.0576 102.895 49.0741C103.936 49.0797 103.949 49.0815 104.231 50.0197C105.922 55.6443 107.607 61.2707 109.291 66.8972C109.341 67.0637 109.378 67.2336 109.415 67.4023C109.432 67.4804 109.448 67.5583 109.467 67.6354ZM107.902 58.1432C107.83 58.1353 107.754 58.1269 107.67 58.1198C107.58 57.8331 107.49 57.5473 107.4 57.262C107.186 56.5827 106.973 55.9062 106.768 55.2274C106.483 54.2878 106.202 53.3471 105.921 52.4064C105.602 51.3392 105.283 50.2719 104.959 49.2061C104.66 48.222 104.627 48.1888 103.645 48.1813C99.5893 48.1499 95.5331 48.1274 91.4775 48.1115C91.2121 48.1106 90.947 48.1378 90.636 48.1698C90.4743 48.1864 90.3002 48.2043 90.1073 48.2201C90.2423 49.9912 90.523 51.7195 90.8055 53.459C91.0379 54.8902 91.2716 56.3288 91.4263 57.805C91.2662 57.805 91.1136 57.8051 90.966 57.8052C90.6848 57.8053 90.4216 57.8054 90.158 57.805C88.6694 57.8036 87.1807 57.8023 85.6921 57.801C79.5947 57.7957 73.4972 57.7904 67.3999 57.7727C67.3499 57.7726 67.2996 57.7725 67.2493 57.7724C66.5149 57.7712 65.7519 57.7699 65.069 57.5587C63.4434 57.0556 62.7601 56.204 63.0452 54.5698C63.4105 52.4709 63.8045 50.3753 64.236 48.2885C65.7587 40.9246 67.2934 33.5626 68.8279 26.2009C69.1488 24.6615 69.4697 23.1221 69.7905 21.5826C69.8425 21.3332 69.8911 21.0824 69.9396 20.8316C70.0835 20.0882 70.2276 19.3441 70.4625 18.6303C70.7019 17.9005 71.0837 17.1853 71.5472 16.5726C71.8355 16.1923 72.3642 15.8827 72.8375 15.7768C73.7081 15.5819 74.6177 15.4756 75.5103 15.4802C91.9602 15.5698 108.41 15.6709 124.859 15.8133C125.804 15.8213 126.802 16.0714 127.677 16.4396C129.186 17.0738 129.694 18.2991 129.358 19.9067C128.653 23.2748 127.949 26.6432 127.244 30.0115C125.69 37.4481 124.135 44.8846 122.569 52.3187C122.314 53.5229 121.963 54.7113 121.585 55.8837C121.219 57.0186 120.37 57.6519 119.192 57.8346C119.113 57.8469 119.033 57.8597 118.954 57.8726C118.589 57.9318 118.222 57.9912 117.855 57.9985C114.929 58.0608 112.002 58.1089 109.075 58.157L108.28 58.1701C108.16 58.1715 108.039 58.1583 107.902 58.1432Z" fill="black"/>
<path d="M3.19339 74.2187L3.44383 69.21L41.5101 69.7108L43.2632 70.2117L182.255 69.21V73.2169L3.19339 74.2187Z" fill="white"/>
<path d="M45.5171 135.821V133.572L39.2562 100.514L34.2475 74.4688H36.5014L48.5223 137.328H47.4848L47.771 137.579L2.69252 137.078L2.27512 136.827H0.188156L12.9604 74.7192H15.9656L6.69546 117.293H42.2614L43.0127 120.549L6.09234 120.063L2.82143 135.085L45.5171 135.821Z" fill="white"/>
<path fill-rule="evenodd" clip-rule="evenodd" d="M176.546 117.295L168.231 73.4678H170.735L182.756 136.828L182.255 137.579L137.678 137.079L136.51 136.689L136.425 137.079L134.422 136.828L147.445 73.7182H150.199L140.674 117.535L176.546 117.295ZM177.163 120.549L140.072 120.305L136.858 135.086L180.058 135.806L177.163 120.549Z" fill="white"/>
<path fill-rule="evenodd" clip-rule="evenodd" d="M7.95258 119.707C7.11336 119.708 6.27125 119.71 5.4249 119.71C4.71875 121.582 1.9673 134.5 2.08922 135.516C2.23077 135.532 2.37598 135.553 2.52379 135.574C2.85355 135.62 3.19622 135.669 3.53984 135.676C5.37981 135.708 7.21977 135.734 9.05973 135.759C10.9998 135.786 12.9399 135.813 14.8801 135.848C19.0731 135.923 23.266 136.002 27.4589 136.081C30.706 136.142 33.953 136.204 37.2002 136.263C38.7626 136.292 40.3253 136.314 41.8881 136.336C42.9859 136.352 44.0836 136.368 45.1813 136.386C46.098 136.4 46.3702 136.097 46.198 135.157C45.7702 132.816 45.3334 130.476 44.8967 128.137C44.7772 127.496 44.6577 126.856 44.5384 126.216C44.2994 124.934 44.0595 123.653 43.8166 122.355C43.6868 121.661 43.5561 120.963 43.4242 120.257C43.1294 120.218 42.841 120.171 42.5567 120.124C41.9551 120.025 41.3723 119.93 40.7887 119.924C31.6769 119.835 22.5646 119.772 13.4528 119.713C11.6239 119.701 9.79523 119.704 7.95258 119.707ZM3.30961 133.215C4.25151 128.967 5.16538 124.846 6.10269 120.618C12.3743 120.664 18.6094 120.71 24.8461 120.756C30.7297 120.8 36.6146 120.843 42.5329 120.887C43.1068 123.932 43.6786 126.965 44.2548 130.02C44.5809 131.75 44.9085 133.488 45.2386 135.239C36.2745 135.502 27.3536 135.273 18.4052 135.043C13.2742 134.911 8.13406 134.78 2.97154 134.74L3.30961 133.215Z" fill="black"/>
<path fill-rule="evenodd" clip-rule="evenodd" d="M136.276 135.501C136.186 134.465 139.032 121.259 139.668 119.667C142.983 119.688 146.306 119.71 149.634 119.731C155.62 119.77 161.622 119.808 167.624 119.848C168.185 119.851 168.746 119.854 169.307 119.856C171.014 119.864 172.722 119.871 174.429 119.917C175.154 119.936 175.877 120.02 176.61 120.105C176.946 120.144 177.285 120.183 177.627 120.216L177.902 121.687C178.194 123.241 178.475 124.741 178.754 126.242C178.873 126.881 178.992 127.519 179.111 128.157C179.54 130.46 179.969 132.763 180.39 135.068C180.59 136.168 180.255 136.494 179.127 136.356C179.01 136.341 178.892 136.324 178.774 136.307C178.459 136.262 178.144 136.216 177.83 136.221C168.117 136.382 158.411 136.158 148.705 135.843C146.39 135.768 144.073 135.746 141.757 135.724C140.412 135.711 139.067 135.698 137.723 135.675C137.382 135.669 137.042 135.616 136.714 135.565C136.565 135.542 136.419 135.519 136.276 135.501ZM140.312 120.617L139.62 123.738L139.618 123.747C138.807 127.409 138.007 131.022 137.183 134.74C142.349 134.78 147.491 134.911 152.625 135.043C161.56 135.271 170.472 135.5 179.443 135.243C178.544 130.452 177.654 125.712 176.749 120.888C164.6 120.798 152.514 120.708 140.312 120.617Z" fill="black"/>
<path fill-rule="evenodd" clip-rule="evenodd" d="M134.061 137.192C134.712 133.901 135.355 130.631 135.994 127.376C137.441 120.017 138.871 112.737 140.352 105.466C141.075 101.921 141.766 98.3701 142.459 94.8146L142.459 94.8137C143.805 87.9036 145.154 80.977 146.737 74.0492C146.529 74.0492 146.315 74.0488 146.096 74.0485C145.609 74.0477 145.097 74.047 144.585 74.0497C130.1 74.1339 115.614 74.2187 101.129 74.3054C97.3022 74.3283 93.4755 74.3509 89.6489 74.3735L89.6462 74.3735C74.3322 74.4637 59.0184 74.554 43.7042 74.6695C42.2329 74.6809 40.7626 74.7972 39.2522 74.9166C38.5377 74.9731 37.8143 75.0303 37.0776 75.0775C37.1341 75.3927 37.1898 75.709 37.2457 76.0259L37.2459 76.0274C37.3703 76.7331 37.4953 77.442 37.6295 78.1496L37.6359 78.1831C39.5974 88.5401 41.559 98.8971 43.5275 109.253C44.554 114.649 45.5846 120.045 46.6153 125.442L46.6197 125.465C47.22 128.608 47.8203 131.751 48.4198 134.894L48.4458 135.03C48.5776 135.72 48.7094 136.409 48.8219 137.102C48.9453 137.864 48.8314 138.005 48.0307 138.001C47.1694 137.996 46.3081 137.982 45.4468 137.967C44.6768 137.954 43.9069 137.941 43.1369 137.935C39.6794 137.909 36.2218 137.883 32.7643 137.857C22.9702 137.785 13.1761 137.712 3.38196 137.621C2.64551 137.613 1.90975 137.505 1.13859 137.391C0.768608 137.336 0.390261 137.28 0 137.234C0.0138332 137.041 0.0213186 136.864 0.0283108 136.699C0.0419446 136.378 0.0537047 136.101 0.106993 135.832C1.73057 127.633 3.36256 119.435 4.99445 111.238L5.42726 109.064C6.42411 104.056 7.42134 99.0485 8.4186 94.041L8.42302 94.0187C9.05472 90.8468 9.68643 87.6748 10.3181 84.5026C10.7316 82.4245 11.1455 80.3463 11.5664 78.2333L12.2559 74.7715C12.0405 74.7715 11.824 74.7717 11.6067 74.7719C11.1699 74.7724 10.7294 74.7728 10.2892 74.7715C9.78247 74.7698 9.27577 74.7685 8.76908 74.7671C7.20634 74.763 5.64353 74.7589 4.08065 74.7444C3.01022 74.7341 2.6773 74.4611 2.67432 73.4515C2.67033 72.232 2.7201 71.0081 2.82908 69.7931C2.92015 68.7791 3.08387 68.6712 4.1115 68.687C8.6179 68.7557 13.1243 68.8295 17.6307 68.9033C19.291 68.9304 20.9515 68.9576 22.6118 68.9846L26.0191 69.04C31.1302 69.1232 36.2413 69.2064 41.3524 69.2866C41.5265 69.289 41.7007 69.2752 41.8749 69.2614C42.0173 69.2501 42.1598 69.2388 42.3024 69.2363C42.3304 69.2358 42.3612 69.2348 42.3936 69.2337C42.5745 69.2275 42.8015 69.2197 42.8403 69.295C43.1388 69.8755 43.6247 69.8435 44.1025 69.8121C44.2038 69.8054 44.3047 69.7988 44.4034 69.798C54.5517 69.7103 64.7 69.6206 74.8484 69.5309L74.8492 69.5309C87.9014 69.4156 100.954 69.3002 114.007 69.189C125.496 69.0911 136.986 69.0007 148.476 68.9102C154.218 68.865 159.96 68.8198 165.703 68.7737C169.611 68.7426 173.519 68.71 177.427 68.6773L181.342 68.6446C181.4 68.644 181.458 68.6429 181.517 68.6418C181.657 68.6392 181.798 68.6366 181.939 68.6411C182.85 68.6687 183.018 68.8402 183.046 69.7704C183.048 69.8338 183.043 69.8975 183.038 69.9613C183.034 70.0155 183.03 70.07 183.03 70.1242C183.029 71.0322 183.029 71.9405 183.029 72.8547L183.029 73.5481C181.359 73.844 179.778 73.8382 178.221 73.8324C177.797 73.8309 177.375 73.8293 176.954 73.8339C176.098 73.8428 175.243 73.8449 174.387 73.8471C173.73 73.8487 173.073 73.8503 172.417 73.855C172.152 73.8574 171.887 73.872 171.593 73.8882C171.454 73.8959 171.307 73.9039 171.152 73.9112C171.22 74.341 171.285 74.7632 171.348 75.1799L171.348 75.1811C171.484 76.0754 171.617 76.9442 171.78 77.8071C172.544 81.8521 173.315 85.8956 174.087 89.939L174.089 89.9485C174.63 92.7863 175.171 95.6241 175.71 98.4622C176.461 102.42 177.209 106.379 177.958 110.338L177.962 110.361C178.594 113.707 179.227 117.052 179.861 120.397C180.587 124.228 181.317 128.058 182.046 131.888L182.094 132.138C182.35 133.484 182.607 134.831 182.863 136.177C182.871 136.219 182.88 136.262 182.889 136.304C182.893 136.322 182.897 136.34 182.901 136.358C182.913 136.413 182.925 136.468 182.936 136.524L182.937 136.532C183.079 137.262 183.15 137.628 182.999 137.811C182.847 137.994 182.469 137.991 181.711 137.984L181.639 137.983C176.811 137.943 171.982 137.908 167.154 137.874L167.152 137.874C163.783 137.849 160.414 137.825 157.046 137.799C156.134 137.792 155.222 137.785 154.31 137.778C148.656 137.735 143.002 137.693 137.348 137.616C136.671 137.607 135.995 137.496 135.242 137.373C134.871 137.312 134.48 137.248 134.061 137.192ZM3.60192 73.7728H41.852L41.8543 73.7571C42.0213 72.6383 42.1907 71.503 42.0451 70.2602C33.416 70.1294 24.8368 69.9988 16.2423 69.868L3.84427 69.6793C3.76315 71.0515 3.6895 72.2946 3.60192 73.7728ZM47.8784 137.052C43.9212 116.253 39.9953 95.6178 36.056 74.9119L34.9746 75.0647C36.2721 81.9984 37.5652 88.9097 38.8574 95.8162C40.2127 103.06 41.5671 110.299 42.9244 117.553C42.613 117.601 42.3131 117.659 42.021 117.715C41.4156 117.832 40.8435 117.943 40.2705 117.946C29.3672 118.011 18.4639 118.045 7.56114 118.079C7.16721 118.08 6.7735 118.05 6.34327 118.018C6.13272 118.002 5.91341 117.985 5.68105 117.971L6.98488 112.099C8.14919 106.856 9.30532 101.649 10.4604 96.4416C11.5273 91.6307 12.5934 86.8196 13.6641 81.9875L13.6746 81.9399C14.1965 79.5847 14.7195 77.2244 15.2442 74.8567H13.4676C12.2245 79.4186 11.3474 84.0366 10.4715 88.6477C10.049 90.872 9.62685 93.0948 9.16403 95.3089C8.17435 100.043 7.24289 104.788 6.31146 109.533C5.90061 111.627 5.48976 113.72 5.07393 115.812L0.977862 136.405C1.20117 136.405 1.40478 136.401 1.5947 136.397C1.99385 136.389 2.33271 136.381 2.66685 136.418C2.87128 136.44 3.07327 136.501 3.27452 136.562C3.51909 136.636 3.76257 136.709 4.00799 136.713C6.81965 136.748 9.63132 136.767 12.443 136.786C13.8488 136.795 15.2546 136.805 16.6605 136.816C21.6948 136.858 26.7289 136.901 31.763 136.944H31.764C35.96 136.98 40.156 137.016 44.3521 137.051C45.0918 137.057 45.8316 137.055 46.6328 137.053C47.0304 137.053 47.4431 137.052 47.8784 137.052ZM177.136 117.565C176.793 117.615 176.471 117.673 176.161 117.729C175.533 117.841 174.961 117.944 174.387 117.947C163.527 118.011 152.668 118.045 141.808 118.078L141.804 118.078C141.409 118.08 141.014 118.051 140.578 118.019C140.361 118.003 140.133 117.987 139.89 117.973C141.422 111.071 142.95 104.185 144.478 97.3022L144.823 95.7481C146.425 88.5317 148.027 81.3171 149.631 74.0881H148.006C146.762 76.82 137.209 126.382 135.522 135.13L135.519 135.147C135.4 135.766 135.32 136.178 135.287 136.351C135.387 136.351 135.486 136.35 135.583 136.349C135.798 136.348 136.006 136.346 136.213 136.354C136.443 136.362 136.675 136.379 136.9 136.422C137.073 136.454 137.246 136.5 137.418 136.546C137.733 136.63 138.048 136.713 138.363 136.716C152.604 136.849 166.845 136.964 181.085 137.076C181.283 137.078 181.48 137.051 181.704 137.02C181.82 137.004 181.942 136.988 182.075 136.973C178.773 119.624 175.483 102.343 172.196 85.0782L170.076 73.9413H168.976C170.705 83.1868 172.43 92.4054 174.156 101.636L177.136 117.565ZM42.8667 73.6658C69.1404 73.5336 95.3902 73.3733 121.648 73.213C141.753 73.0903 161.862 72.9676 181.99 72.8573V69.5798C177.323 69.6215 172.661 69.6643 168.001 69.707C157.212 69.8059 146.439 69.9047 135.666 69.9907C129.824 70.0375 123.982 70.0736 118.14 70.1098C108.545 70.1691 98.9505 70.2285 89.3562 70.3351C83.309 70.4026 77.2615 70.4419 71.2122 70.4812C61.8427 70.5422 52.4692 70.6031 43.0866 70.7687C43.0406 71.3709 42.9993 71.9162 42.957 72.4744C42.928 72.8579 42.8985 73.2475 42.8667 73.6658ZM41.8167 117.026L38.3389 98.4741C36.863 90.6008 35.3926 82.7567 33.9176 74.8893H16.2484L13.0812 89.165C11.0253 98.432 8.96482 107.72 6.89977 117.026H41.8167ZM175.898 116.431L175.898 116.43C175.849 116.087 175.81 115.808 175.758 115.531C175.506 114.195 175.251 112.86 174.997 111.525L174.996 111.521C174.639 109.649 174.282 107.776 173.932 105.903C173.168 101.822 172.406 97.7412 171.644 93.6602L171.631 93.5923C170.497 87.5188 169.363 81.4452 168.224 75.3726C168.16 75.0331 168.051 74.7021 167.953 74.406C167.911 74.2771 167.87 74.1548 167.837 74.0413H150.661L147.005 90.4851C145.035 99.3407 143.071 108.174 141.104 117.021H175.983C175.951 116.802 175.923 116.608 175.898 116.431Z" fill="black"/>
</svg>
