<svg width="491" height="292" viewBox="0 0 491 292" fill="none" xmlns="http://www.w3.org/2000/svg">
<path fill-rule="evenodd" clip-rule="evenodd" d="M491 291.889C465.313 263.648 437.287 227.151 406.92 182.396C361.371 115.264 179.279 242.692 158.596 258.432C144.807 268.925 139.611 280.115 143.007 292L491 291.889Z" fill="#38D6B8"/>
<path fill-rule="evenodd" clip-rule="evenodd" d="M0.413905 292C-2.37153 248.891 8.90174 220.053 34.2337 205.486C72.2317 183.635 79.6013 216.07 137.196 221.161C175.592 224.555 192.225 248.168 187.092 292H0.413905Z" fill="#38A5D6"/>
<path d="M93.6055 277.86C94.0207 275.784 97.2386 273.88 98.7957 273.188C100.007 273.361 102.636 273.707 103.467 273.707C104.505 273.707 105.024 276.303 105.024 278.379C105.024 280.455 103.467 281.493 102.948 282.012C102.429 282.531 99.3147 284.088 97.7577 283.569C96.2006 283.05 93.0865 280.455 93.6055 277.86Z" fill="white"/>
<path d="M163.673 272.15L163.673 272.15C163.846 272.15 164.399 272.254 165.23 272.669C166.268 273.188 168.344 273.707 168.863 275.264C169.382 276.822 168.344 277.86 166.268 279.936C164.607 281.597 164.192 281.666 164.192 281.493C162.981 280.974 160.455 279.832 160.04 279.417C159.521 278.898 159.002 276.303 159.002 275.784C159.002 275.265 162.116 273.189 163.673 272.15Z" fill="white"/>
<path d="M157.964 201.045L110.733 201.564L111.252 207.792L127.342 208.311V259.175L126.304 261.77L100.353 262.289L99.834 272.669L102.429 273.188L103.986 267.998L162.635 266.96V272.669H167.306L166.787 262.289H140.317L138.241 261.77V208.311L158.483 207.792L157.964 201.045Z" fill="white"/>
<path d="M67.1366 88.4175L101.392 87.8984L153.293 189.107L160.56 201.044H108.139C66.6176 195.854 65.0605 167.827 64.5415 153.295V118.52L67.1366 88.4175Z" fill="white"/>
<path fill-rule="evenodd" clip-rule="evenodd" d="M109.335 72.3793L131.057 70.0371C137.318 79.7017 143.313 83.8831 149.043 82.5812C154.773 81.2794 158.946 77.4142 161.562 70.9858C177.066 74.6662 185.221 77.2659 186.028 78.7851C187.239 81.0638 188.332 83.401 189.202 86.8342C189.782 89.1229 191.13 102.026 193.245 125.544H210.963L229.573 127.288L232.956 129.503L240.034 130.831L239.178 143.965H194.945C194.705 140.218 192.791 138.171 189.202 137.824C185.613 137.476 173.026 137.476 151.439 137.824L150.225 143.569L95.0411 143.965C91.7923 142.32 90.168 140.885 90.168 139.66C90.168 137.824 92.3223 119.778 93.6817 112.579C94.5879 107.78 99.8056 94.3799 109.335 72.3793Z" fill="#92CBAD"/>
<path fill-rule="evenodd" clip-rule="evenodd" d="M109.333 145.91C107.761 162.37 108.936 172.594 112.857 176.58C118.74 182.559 128.613 186.078 136.322 187.046C141.46 187.691 146.482 188.176 151.387 188.502L165.032 210.279L179.919 244.156L212.621 234.671L232.249 227.081L217.214 172.803C214.547 165.019 212.362 160.535 210.661 159.35C208.96 158.166 200.612 153.686 185.616 145.91H109.333Z" fill="#3856D6"/>
<path fill-rule="evenodd" clip-rule="evenodd" d="M191.376 250.98L195.071 257.773L214.732 252.411L208.565 241.236L191.376 250.98Z" fill="#3856D6"/>
<path fill-rule="evenodd" clip-rule="evenodd" d="M218.625 241.539L235.193 234.428L240.035 247.288L222.536 251.937L218.625 241.539Z" fill="#3856D6"/>
<path fill-rule="evenodd" clip-rule="evenodd" d="M191.376 259.074C194.456 263.663 195.686 266.554 195.068 267.745C194.45 268.936 193.74 273.07 192.939 280.147H201.67L203.533 275.769L206.041 280.147H248.633V278.472L271.175 275.769C270.586 272.742 269.528 271.229 268.002 271.229C265.713 271.229 248.398 269.706 246.581 267.745C245.369 266.437 243.64 259.547 241.394 247.074L219.603 252.98C221.525 256.533 222.485 258.936 222.485 260.19C222.485 261.444 221.887 263.962 220.692 267.745C218.194 263.075 216.945 259.24 216.945 256.24C216.945 253.239 216.945 251.739 216.945 251.739L191.376 259.074Z" fill="black"/>
<path d="M191.701 249.831L186.511 242.046L206.752 236.336L208.828 241.008L191.701 249.831Z" fill="white"/>
<path d="M218.69 242.046L215.057 234.26L232.184 226.994L235.298 234.779L218.69 242.046Z" fill="white"/>
<path d="M166.269 137.205L151.217 138.243L150.698 144.99H193.258L194.815 143.433C193.984 140.527 190.663 139.454 189.106 139.281L181.32 138.243L166.269 137.205Z" fill="white"/>
<path d="M279.414 140.84L240.488 134.611V142.397L275.262 143.954L281.49 144.473V142.916L279.414 140.84Z" fill="white"/>
<path d="M138.242 28.2115C138.657 24.0593 141.875 21.6372 143.432 20.9452L147.584 18.8691H157.964C159.522 20.0802 162.739 22.8137 163.155 24.0593C163.674 25.6164 161.598 38.5918 161.598 41.1869C161.598 43.263 158.138 50.3562 156.407 53.6433C157.272 56.5844 159.314 63.0894 160.56 65.5807C162.117 68.6948 161.598 71.8089 160.56 75.442C159.522 79.0752 153.812 81.6702 153.293 82.1893C152.774 82.7083 147.584 82.7083 141.356 79.5942C136.373 77.1029 133.398 71.6359 132.533 69.2138C133.917 62.1206 136.789 47.2075 137.204 44.301C137.619 41.3945 136.685 41.7059 136.166 42.2249C135.301 41.5329 133.363 40.045 132.533 39.6298C131.495 39.1108 132.533 35.4777 134.09 34.4397C135.335 33.6092 137.031 34.4397 137.723 34.9587C137.723 34.4397 137.827 32.3636 138.242 28.2115Z" fill="white"/>
<path d="M180.178 135.573H178.574C178.563 135.399 178.55 135.234 178.539 135.076C178.513 134.738 178.49 134.429 178.489 134.12C178.482 127.826 178.479 121.529 178.486 115.234L178.486 115.066C178.484 114.501 178.483 113.924 178.626 113.392C178.699 113.122 179.183 112.791 179.469 112.802C179.737 112.811 180.065 113.195 180.227 113.489C180.337 113.689 180.33 113.962 180.324 114.222C180.322 114.284 180.321 114.345 180.321 114.404C180.322 121.008 180.319 127.612 180.308 134.215C180.307 134.466 180.277 134.716 180.24 135.027C180.22 135.189 180.199 135.369 180.178 135.573Z" fill="black"/>
<path fill-rule="evenodd" clip-rule="evenodd" d="M168.542 14.4627C168.412 14.8181 168.28 15.1798 168.15 15.5521C170.15 17.2602 170.182 19.1833 168.614 21.2474C168.394 21.5383 168.225 21.9566 168.23 22.3136C168.26 24.7201 166.872 25.9925 164.799 26.7629C164.612 26.8324 164.439 26.9374 164.241 27.0569C164.141 27.1178 164.034 27.1825 163.916 27.2483C163.877 27.7545 163.848 28.2623 163.818 28.7703C163.754 29.8856 163.689 31.0015 163.523 32.1022C163.4 32.9149 163.282 33.7288 163.163 34.543C162.677 37.8793 162.191 41.2194 161.424 44.491C160.81 47.1028 159.654 49.6299 158.434 52.0404C157.799 53.2942 157.783 54.3059 158.146 55.5442C159.114 58.8527 160.037 62.1745 160.96 65.4961C161.098 65.991 161.235 66.4858 161.373 66.9806C161.517 67.5001 161.667 68.0458 161.649 68.573C161.637 68.8823 161.35 69.358 161.093 69.4339C160.838 69.5088 160.299 69.253 160.174 69C159.836 68.3123 159.62 67.5565 159.407 66.8133C158.598 63.9748 157.797 61.1339 156.974 58.2151C156.629 56.9949 156.281 55.7611 155.927 54.5082C152.816 54.9965 150.103 54.0987 147.544 52.7476C146.321 52.1036 145.203 51.2311 144.14 50.3391C143.953 50.1819 143.946 49.8088 143.939 49.4355C143.936 49.2634 143.933 49.0913 143.912 48.9403C144.066 48.9421 144.23 48.927 144.393 48.9119C144.746 48.8793 145.099 48.8467 145.362 48.985C146.166 49.4107 146.953 49.8708 147.74 50.3308C148.755 50.9238 149.769 51.5167 150.82 52.0355C151.697 52.4674 152.753 52.6425 153.743 52.7096C155.166 52.8069 156.345 52.2447 156.903 50.8186C157.172 50.1339 157.457 49.4533 157.743 48.7727C158.45 47.0863 159.157 45.3996 159.611 43.6476C161.055 38.0651 161.762 32.3648 161.823 26.581C161.842 24.5684 161.129 23.155 159.351 22.1268C157.451 23.1073 155.459 23.62 153.346 22.6997C153.205 22.6385 153.038 22.5762 152.895 22.5966C152.166 22.6975 151.43 22.7744 150.694 22.8513C148.966 23.0317 147.238 23.2123 145.603 23.7026C142.463 24.6423 140.358 26.9341 139.65 30.2054C139.372 31.4904 139.218 32.802 139.064 34.1143C138.973 34.889 138.881 35.664 138.765 36.4338C138.692 36.9127 138.556 37.3824 138.419 37.8524C138.356 38.0698 138.292 38.2873 138.235 38.5057L137.66 38.6254C137.317 37.3073 136.78 35.3988 135.376 35.0477C133.658 34.6167 133.101 36.4143 133.32 37.6974C133.575 39.2022 134.475 40.1749 135.859 40.7936C137.825 41.672 137.94 41.7839 137.735 43.9365L137.693 44.3811C137.355 47.9445 137.017 51.5143 136.469 55.0491C136.021 57.9358 135.447 60.8034 134.873 63.6707C134.639 64.8401 134.405 66.0095 134.179 67.18C134.163 67.2638 134.148 67.3492 134.133 67.435C134.067 67.8135 134 68.2014 133.809 68.5059C133.733 68.6285 133.592 68.7518 133.435 68.845C133.507 69.0658 133.575 69.3444 133.658 69.6922C133.781 70.2077 134.004 70.7126 134.259 71.1805C137.163 76.5179 141.788 79.6335 147.574 80.9409C155.532 82.7395 160.372 76.0967 160.128 70.7933C160.122 70.653 160.153 70.5107 160.202 70.296C160.23 70.1699 160.264 70.0188 160.299 69.8284C160.543 69.8284 160.795 69.8115 161.048 69.7945C161.598 69.7575 162.157 69.72 162.67 69.8546C166.723 70.9202 170.768 72.0163 174.813 73.1124L174.824 73.1154C177.152 73.7463 179.48 74.3773 181.81 75.0023C186.588 76.2854 189.536 79.3612 191.006 84.04C192.793 89.7286 193.39 95.5942 193.808 101.491C194.103 105.637 194.383 109.785 194.662 113.932L194.662 113.934C194.858 116.845 195.054 119.756 195.255 122.666C195.291 123.167 195.363 123.665 195.445 124.237C195.489 124.536 195.535 124.856 195.58 125.206C196.132 125.167 196.671 125.137 197.201 125.106C198.339 125.041 199.435 124.979 200.52 124.843C204.49 124.348 208.389 124.439 212.346 125.249C214.54 125.699 216.817 125.776 219.084 125.852L219.086 125.852C219.702 125.873 220.317 125.894 220.93 125.922C222.089 125.976 223.25 125.96 224.411 125.943C225.275 125.931 226.138 125.919 227.001 125.936C228.974 125.975 230.968 126.276 232.521 127.522C234.118 128.806 235.871 129.412 237.831 129.55C239.771 129.688 241.044 130.328 241.193 132.567C241.291 134.011 242.288 134.862 243.85 135.024C247.168 135.367 250.486 135.744 253.791 136.202C261.415 137.258 269.031 138.361 276.646 139.476C277.592 139.615 278.522 139.898 279.442 140.178L279.579 140.219C282.085 140.983 282.962 142.522 282.364 145.485C282.049 145.516 281.723 145.561 281.39 145.608C280.646 145.713 279.866 145.823 279.094 145.78C274.124 145.501 269.159 145.147 264.194 144.789C261.599 144.602 259.005 144.405 256.411 144.208C252.955 143.946 249.499 143.684 246.042 143.444C245.044 143.375 244.04 143.393 243 143.411L242.997 143.411C242.51 143.42 242.014 143.428 241.507 143.428C240.979 145.547 239.415 145.908 237.704 145.864C236.711 145.839 235.718 145.77 234.725 145.7L234.723 145.7C233.718 145.629 232.713 145.559 231.707 145.534C230.533 145.506 229.358 145.53 228.182 145.553L228.18 145.553C227.333 145.57 226.485 145.587 225.637 145.585C218.171 145.562 210.704 145.532 203.238 145.502H203.235C200.04 145.489 196.845 145.477 193.651 145.464C193.165 145.463 192.679 145.463 192.057 145.464C191.688 145.464 191.272 145.464 190.78 145.464C191.094 145.647 191.345 145.795 191.558 145.921C191.914 146.131 192.163 146.278 192.418 146.414C193.867 147.186 195.325 147.943 196.783 148.7L196.784 148.701L196.786 148.701C200.013 150.378 203.241 152.054 206.377 153.888C211.823 157.073 215.48 161.74 217.239 167.904C219.7 176.532 222.221 185.142 224.742 193.753C225.78 197.295 226.817 200.838 227.85 204.382L233.725 224.522C233.765 224.658 233.822 224.799 233.879 224.941C234.008 225.262 234.138 225.584 234.069 225.854C233.603 227.68 234.251 229.26 234.897 230.832C235.043 231.188 235.188 231.544 235.321 231.902C236.502 235.091 237.717 238.268 238.924 241.425L238.926 241.432L238.933 241.45L238.951 241.496C239.442 242.781 239.932 244.062 240.418 245.34C243.199 245.469 243.316 245.506 243.773 248.22C244.188 250.683 244.561 253.152 244.934 255.621L244.934 255.623L244.935 255.626C245.165 257.15 245.396 258.675 245.636 260.198C245.716 260.712 245.85 261.218 245.983 261.723L245.985 261.729C246.009 261.822 246.033 261.914 246.057 262.006C246.077 262.083 246.097 262.16 246.116 262.237C246.943 265.51 248.823 267.494 252.375 267.858C256.794 268.31 261.197 268.923 265.597 269.536L266.714 269.692C267.857 269.852 268.983 270.209 270.08 270.584C272.038 271.253 272.988 272.844 273.532 274.704C273.866 275.842 273.498 276.436 272.275 276.713C271.295 276.936 270.28 277.029 269.274 277.111C265.755 277.397 262.235 277.676 258.715 277.955L258.627 277.962C256.049 278.166 253.472 278.37 250.895 278.578C250.74 278.59 250.588 278.643 250.443 278.694C250.377 278.717 250.312 278.739 250.249 278.757L250.244 278.774C249.573 280.758 249.568 280.772 247.825 280.824C245.29 280.899 242.755 280.979 240.219 281.06H240.215C233.42 281.275 226.625 281.49 219.828 281.614C216.975 281.667 214.119 281.571 211.263 281.475L211.257 281.475C209.758 281.425 208.259 281.375 206.761 281.346C205.911 281.328 205.262 281.181 204.975 280.23C204.881 279.918 204.678 279.639 204.408 279.268L204.407 279.266L204.406 279.265C204.263 279.068 204.1 278.844 203.925 278.576C203.427 279.453 203.042 280.131 202.599 280.91L202.352 281.346C201.542 281.378 200.718 281.418 199.881 281.458L199.869 281.459C197.859 281.556 195.785 281.656 193.711 281.658C191.953 281.659 191.39 280.808 191.734 279.061C191.903 278.203 192.097 277.349 192.291 276.496C192.613 275.075 192.936 273.654 193.143 272.217C193.586 269.139 193.859 266.02 192.947 262.968C192.64 261.939 192.154 260.951 191.657 259.991C190.959 258.647 191.028 258.299 192.396 257.702C192.765 257.541 193.148 257.41 193.603 257.255C193.839 257.174 194.094 257.086 194.378 256.985C194.136 256.552 193.902 256.131 193.673 255.718L193.671 255.716C193.173 254.818 192.695 253.959 192.206 253.107C190.622 250.347 189.027 247.592 187.431 244.838C186.571 243.354 186.35 243.249 184.6 243.757C183.691 244.023 182.794 244.329 181.837 244.655C181.401 244.804 180.952 244.957 180.485 245.112C180.113 244.394 179.745 243.692 179.382 242.999L179.38 242.996L179.379 242.994C178.598 241.506 177.841 240.061 177.127 238.595C174.806 233.821 172.493 229.044 170.18 224.266C167.615 218.969 165.05 213.671 162.475 208.379C161.905 207.211 161.276 206.072 160.645 204.932L160.645 204.931C160.348 204.394 160.05 203.856 159.759 203.315L159.166 203.504C159.19 203.831 159.215 204.159 159.239 204.487L159.24 204.492C159.29 205.158 159.34 205.825 159.388 206.493C159.531 208.457 159.045 209.081 157.102 209.138C155.311 209.191 153.519 209.186 151.727 209.181H151.726C151.106 209.18 150.486 209.178 149.866 209.179C148.5 209.181 147.133 209.181 145.766 209.182C143.942 209.182 142.118 209.183 140.293 209.188C140.037 209.189 139.782 209.223 139.509 209.259C139.38 209.276 139.247 209.293 139.108 209.308V261.345C139.27 261.345 139.428 261.346 139.581 261.346L140.087 261.346C140.674 261.346 141.216 261.347 141.758 261.345C144.024 261.339 146.29 261.332 148.556 261.325H148.558L148.726 261.325C154.031 261.308 159.337 261.292 164.643 261.283C167.383 261.279 167.743 261.62 167.911 264.309C168.022 266.094 168.105 267.881 168.181 269.668C168.183 269.722 168.186 269.777 168.188 269.831C168.19 269.912 168.193 269.993 168.196 270.074C168.24 271.379 168.282 272.617 169.369 273.746C170.427 274.843 169.987 276.403 169.529 277.753C168.007 282.229 162.584 283.392 159.363 279.947C157.142 277.572 157.677 274.274 160.55 272.686C160.769 272.564 161.003 272.467 161.282 272.351L161.283 272.351L161.289 272.349C161.427 272.291 161.576 272.229 161.741 272.157C161.678 270.878 161.613 269.593 161.538 268.098C142.332 268.339 123.306 268.579 104.136 268.82C104.074 269.275 104.017 269.708 103.961 270.126L103.959 270.144C103.888 270.671 103.821 271.177 103.752 271.683C103.642 272.488 103.817 273.067 104.472 273.72C106.85 276.089 106.9 279.092 104.75 281.657C103.094 283.633 100.939 284.607 98.3804 284.491C96.0264 284.385 94.1822 283.295 93.2432 281.066C92.344 278.933 92.7371 276.847 94.2835 275.21C95.0486 274.4 95.9755 273.743 97.0606 272.974L97.0634 272.972L97.0661 272.971L97.0688 272.969C97.6003 272.592 98.1696 272.188 98.7765 271.727C98.8032 271.211 98.8348 270.641 98.8687 270.033C98.9498 268.573 99.0434 266.889 99.1093 265.204C99.2563 261.477 99.302 261.421 102.947 261.331C109.871 261.159 116.796 260.982 123.72 260.8C124.163 260.788 124.605 260.754 125.135 260.713C125.422 260.691 125.735 260.667 126.087 260.643V209.108C125.891 209.094 125.682 209.078 125.463 209.06L125.462 209.06L125.461 209.06C124.93 209.019 124.346 208.973 123.761 208.953C121.937 208.891 120.112 208.835 118.287 208.779L118.271 208.779C116.29 208.718 114.308 208.657 112.328 208.589C110.141 208.513 110.022 208.393 109.951 206.121C109.924 205.283 109.93 204.444 109.937 203.525C109.94 203.091 109.944 202.639 109.944 202.161C109.341 202.09 108.766 202.022 108.209 201.957L108.206 201.957C107.147 201.833 106.154 201.716 105.162 201.592C99.4451 200.871 93.8329 199.738 88.6051 197.192C87.5339 196.67 86.4787 196.116 85.4234 195.562L85.4224 195.561C84.4811 195.067 83.5398 194.573 82.5871 194.101C76.0922 190.886 71.715 185.707 68.633 179.278C66.2108 174.222 65.2298 168.812 64.4854 163.33C62.9098 151.731 62.6257 140.071 63.1794 128.408C63.5068 121.516 64.0338 114.633 64.5608 107.75C64.7934 104.711 65.026 101.672 65.2415 98.633C65.2855 98.0121 65.3293 97.3913 65.373 96.7705C65.5149 94.7556 65.6569 92.7411 65.8079 90.7266C66.0191 87.893 66.3801 87.4893 69.1478 87.4076C78.094 87.145 87.0422 86.9174 95.9884 86.6927C97.1571 86.6633 98.3266 86.671 99.4948 86.6788C100.028 86.6823 100.561 86.6859 101.094 86.6859C101.444 85.9397 101.774 85.2146 102.095 84.5071C102.791 82.9771 103.449 81.5295 104.196 80.1287C105.548 77.5966 107.007 75.1191 108.513 72.6746C109.415 71.2096 110.783 70.41 112.572 70.2982C115.753 70.0978 118.937 69.8857 122.105 69.5395C125.188 69.2038 128.259 68.735 131.322 68.2428L131.323 68.2426C131.685 68.1845 131.979 68.1373 132.22 68.112C132.191 67.4521 132.288 66.7766 132.404 66.1217C132.668 64.6283 132.945 63.1369 133.222 61.6457C133.766 58.7087 134.311 55.7721 134.76 52.8205C135.097 50.601 135.302 48.3605 135.507 46.105C135.599 45.0935 135.692 44.079 135.797 43.062C135.586 42.9412 135.387 42.8304 135.197 42.7246C134.801 42.5049 134.444 42.3063 134.103 42.0825C132.373 40.9434 131.338 39.3861 131.288 37.2626C131.234 34.9835 132.35 33.6109 134.588 33.181C134.714 33.1566 134.845 33.1393 134.976 33.1219C135.313 33.0774 135.653 33.0324 135.916 32.8687C137.076 32.145 137.187 30.8445 135.951 30.3299C135.405 30.103 134.888 29.8063 134.373 29.5106C134.146 29.3804 133.919 29.2504 133.691 29.1266C128.435 26.2833 127.408 23.9322 127.408 23.9322C126.899 22.7523 127 19.9508 128.969 18.2543C130.265 17.1376 131.496 15.8206 131.94 14.0074C132.121 13.2652 132.444 12.5434 132.795 11.8586C133.858 9.77986 134.622 9.40828 137.062 9.64174C137.252 9.65964 137.447 9.6355 137.682 9.60636C137.805 9.59118 137.939 9.57463 138.088 9.56197C138.212 8.94147 138.22 8.31311 138.228 7.69092C138.235 7.15532 138.241 6.6243 138.322 6.10681C138.534 4.74887 139.189 3.22557 140.254 2.03202C142.233 -0.187762 144.237 -0.440674 146.951 0.560272C149.088 1.34819 150.356 2.64874 151.04 3.53879C151.586 4.24986 152.103 5.62823 151.931 6.47645C153.511 5.72939 155.809 5.10198 157.366 6.29455C158.615 7.2527 159.283 8.13788 160.108 9.53473C160.059 8.5941 160.327 7.65735 161.065 6.67781C162.481 4.80626 166.929 4.34811 168.514 7.01729C169.458 8.60577 169.828 10.3528 169.313 12.1767C169.098 12.9394 168.825 13.6862 168.542 14.4627ZM153.756 6.78339C154.828 6.64649 155.684 6.53723 156.383 7.03091C157.185 7.59704 157.651 8.09217 158.603 9.1184C157.293 6.14086 155.058 5.7362 152.787 6.89376C153.129 6.86358 153.451 6.82236 153.756 6.78339ZM139.168 8.90442C139.187 8.99167 139.206 9.0786 139.224 9.16412C140.319 5.27999 141.706 1.87541 146.372 1.13029C144.639 0.199394 143.892 0.429676 142.446 0.875008C142.367 0.899209 142.287 0.924046 142.204 0.949366C141.498 1.16337 140.691 2.06704 140.286 2.66041C139.17 4.29558 138.846 6.29455 139.019 8.08244C139.043 8.33521 139.106 8.62151 139.168 8.90442ZM127.887 23.8641C129.01 25.4983 131.8 27.3747 132.369 27.6967C132.68 27.8722 132.986 28.0582 133.296 28.2468C134.358 28.8924 135.472 29.5699 137.016 29.9719C136.329 28.4146 135.355 27.9447 134.278 27.4924C130.979 26.1092 128.981 23.7824 129.093 20.0111C129.098 19.8509 129.053 19.6896 128.99 19.4661C128.955 19.3394 128.914 19.1928 128.874 19.015C127.148 21.6725 127.455 23.2347 127.887 23.8641ZM136.506 10.4151C134.605 10.1213 133.779 10.6972 132.9 12.9996C132.769 13.343 132.722 13.7182 132.67 14.1272C132.645 14.3253 132.618 14.5314 132.581 14.7457C133.743 13.878 134.155 14.1348 134.719 14.6027C134.103 13.0911 135.183 10.951 136.506 10.4151ZM277.335 140.905L278.199 143.769C278.671 143.743 279.088 143.72 279.506 143.697C279.911 143.675 280.318 143.652 280.777 143.627C280.075 142.06 279.227 141.114 277.335 140.905ZM182.701 139.058C182.648 139.195 182.596 139.331 182.544 139.467C182.68 139.513 182.815 139.564 182.95 139.615C183.24 139.724 183.53 139.833 183.831 139.889C184.624 140.035 185.42 140.169 186.216 140.303C187.105 140.452 187.996 140.602 188.882 140.769C190.284 141.034 191.599 141.435 192.225 142.953C192.477 143.565 192.972 143.704 193.547 143.09C193.259 141.527 192.165 140.725 190.716 140.441C188.846 140.075 186.966 139.765 185.085 139.455C184.29 139.324 183.495 139.193 182.701 139.058ZM272.299 143.539H275.821C275.182 140.742 274.151 139.97 271.257 140.188L272.299 143.539ZM219.252 254.732C218.361 258.635 218.949 264.317 220.356 265.812C221.061 262.053 221.206 258.379 219.252 254.732ZM147.136 139.588L146.757 143.609H148.966C149.009 143.199 149.057 142.803 149.103 142.416C149.203 141.59 149.297 140.808 149.33 140.023C149.406 138.242 149.419 136.457 149.41 134.674C149.406 133.759 149.038 133.16 147.705 133.548C147.513 135.578 147.325 137.576 147.136 139.588ZM159.749 277.043C159.888 277.238 160.02 277.441 160.151 277.644C160.434 278.082 160.717 278.52 161.083 278.872C163.313 281.024 166.854 280.07 167.786 277.105C168.39 275.181 167.814 274.144 165.873 273.659C163.827 273.149 161.626 274.289 159.749 277.043ZM234.431 131.166C234.471 131.845 234.507 132.519 234.544 133.192C234.743 136.843 234.937 140.416 235.617 144.047C236.914 143.966 237.974 143.9 239.228 143.821C239.479 139.648 239.521 135.672 239.02 131.711L238.046 131.536L238.039 131.534C237.115 131.368 236.316 131.224 235.514 131.094C235.375 131.071 235.23 131.087 234.989 131.113C234.844 131.129 234.664 131.149 234.431 131.166ZM98.7327 282.688C101.7 282.718 104.273 280.378 104.289 277.73C104.298 276.399 103.821 275.387 102.518 274.76C100.058 273.576 97.3976 274.144 95.7393 276.329C94.7866 277.584 94.4285 278.974 95.0892 280.452C95.8035 282.051 97.2496 282.545 98.7327 282.688ZM188.314 242.57C189.357 244.269 190.285 245.782 191.209 247.287L192.292 249.053L195.345 247.346C199.484 245.031 203.526 242.771 207.694 240.438C207.312 239.593 206.966 238.83 206.586 237.994L206.421 237.63L203.854 238.331C198.727 239.729 193.692 241.103 188.314 242.57ZM214.538 235.679C212.691 235.458 211.27 236.068 209.763 236.714C209.355 236.89 208.94 237.068 208.509 237.232C209.416 239.172 210.314 241.093 211.206 243.001C212.447 245.655 213.676 248.284 214.9 250.903C215.21 250.885 215.504 250.849 215.783 250.814C216.379 250.74 216.905 250.674 217.365 250.819C217.804 250.957 218.171 251.323 218.542 251.693C218.706 251.857 218.871 252.021 219.043 252.167L219.779 251.677C220.257 251.359 220.762 251.023 221.367 250.621L214.538 235.679ZM269.819 143.2C269.467 140.667 268.578 139.708 266.353 139.45C265.367 139.336 264.377 139.248 263.387 139.161L263.384 139.16C262.515 139.084 261.646 139.007 260.779 138.912C255.524 138.336 250.27 137.749 245.019 137.145C244.258 137.057 243.502 136.929 242.72 136.796C242.339 136.732 241.951 136.666 241.554 136.604V141.079L249.213 141.654C256.119 142.172 262.96 142.685 269.819 143.2ZM198.257 255.773L198.264 255.771L198.266 255.77C200.108 255.22 201.913 254.681 203.7 254.087C204.126 253.946 204.518 253.445 204.742 253.015C205.242 252.058 205.748 251.828 206.762 252.436C208.049 253.209 208.671 252.969 209.325 251.787C210.092 250.399 210.104 250.406 211.496 251.226L211.537 251.25C211.764 251.384 212.047 251.421 212.402 251.467C212.587 251.492 212.792 251.518 213.018 251.563C212.976 251.459 212.935 251.358 212.895 251.258C212.34 249.881 211.922 248.843 210.566 248.509C210.298 248.444 209.911 247.605 210.034 247.414C210.607 246.52 210.257 245.819 209.934 245.17C209.762 244.826 209.597 244.497 209.582 244.161C209.316 244.136 209.061 244.128 208.82 244.12C208.327 244.105 207.886 244.091 207.503 243.935C205.995 243.324 205.604 243.399 205.132 244.978C204.882 245.816 204.593 246.151 203.664 245.927C201.784 245.469 199.953 246.574 199.421 248.447C199.145 249.42 198.66 249.748 197.729 249.248C197.509 249.129 197.285 249.017 197.088 248.918C197.002 248.875 196.921 248.835 196.847 248.797C195.549 249.507 194.418 250.127 193.147 250.824L196.303 256.359C196.96 256.161 197.611 255.966 198.257 255.773ZM219.065 240.698L234.19 234.452L233.283 231.982C232.837 230.766 232.397 229.568 231.932 228.3C226.592 230.519 221.47 232.649 216.186 234.846C216.638 235.766 217.076 236.656 217.527 237.572C218.014 238.562 218.515 239.581 219.065 240.698ZM230.78 237.991C230.637 238.254 230.515 238.524 230.396 238.786C230.142 239.345 229.903 239.872 229.511 240.229C228.866 240.818 228.522 240.397 228.163 239.958C227.957 239.706 227.747 239.448 227.472 239.37L219.899 242.43C220.904 244.863 221.812 247.06 222.815 249.486C223.836 248.252 224.569 248.938 225.269 249.594C225.343 249.663 225.417 249.732 225.49 249.798C226.747 246.895 227.074 246.812 229.607 248.667C232.031 247.975 234.494 247.272 237.083 246.532L238.658 246.082C237.878 244.034 237.171 242.181 236.469 240.339C235.232 240.613 234.161 240.791 233.672 239.58C233.3 238.661 233.868 238.244 234.439 237.824C234.746 237.598 235.054 237.371 235.218 237.065C234.09 236.433 234.09 236.433 230.78 237.991ZM189.51 142.981C189.329 142.931 189.148 142.872 188.968 142.813C188.584 142.687 188.201 142.561 187.808 142.52C183.741 142.099 179.99 140.696 176.241 139.144C174.498 138.422 172.475 138.109 170.573 138.089C167.781 138.063 164.983 138.294 162.191 138.525L162.172 138.526C161.795 138.558 161.418 138.589 161.041 138.619C158.971 138.787 156.905 139.014 154.806 139.244L154.804 139.244C153.865 139.347 152.919 139.451 151.963 139.55C151.943 139.784 151.921 140.003 151.899 140.214C151.853 140.674 151.81 141.09 151.805 141.506C151.799 141.961 151.825 142.417 151.858 142.969C151.873 143.234 151.89 143.522 151.905 143.842C156.485 143.701 161.046 143.722 165.598 143.744H165.6C173.579 143.781 181.531 143.818 189.51 142.981ZM221.797 268.544C223.76 270.149 224.905 270.704 228.244 271.503C230.135 271.954 232.031 272.386 233.926 272.817C236.802 273.471 239.678 274.126 242.535 274.85C244.018 275.227 245.461 275.761 246.889 276.289C247.536 276.528 248.18 276.767 248.824 276.989C252.721 276.413 256.671 276.14 260.644 275.866L260.646 275.866C264.234 275.618 267.842 275.369 271.444 274.894C271.01 273.053 269.789 272.362 268.405 272.05C266.439 271.608 264.435 271.319 262.437 271.045C259.964 270.707 257.487 270.395 255.009 270.084C253.788 269.93 252.566 269.776 251.345 269.62C247.882 269.176 245.718 267.208 244.706 263.919C244.649 263.732 244.59 263.545 244.531 263.357C244.263 262.507 243.993 261.652 243.845 260.779C243.537 258.968 243.264 257.15 242.991 255.332C242.814 254.157 242.638 252.98 242.452 251.807C242.301 250.858 242.126 249.913 241.935 248.884L241.934 248.881C241.839 248.372 241.741 247.842 241.64 247.281L220.921 253.178C223.299 258.166 222.899 263.295 221.797 268.544ZM201.817 278.627L201.818 278.626C202.012 278.04 202.178 277.538 202.432 277.086C202.746 276.532 203.21 275.884 203.749 275.704C204.005 275.619 204.47 276.084 204.864 276.477L204.866 276.479L204.964 276.577C205.015 276.627 205.063 276.675 205.11 276.719C205.385 276.98 205.604 277.328 205.767 277.676C206.246 278.698 207.043 279.142 208.154 279.18C208.971 279.207 209.789 279.256 210.607 279.305H210.609C211.963 279.386 213.318 279.467 214.671 279.452C222.88 279.362 231.088 279.234 239.296 279.106L241.678 279.07C242.937 279.05 244.197 279.031 245.456 279.011C245.737 279.007 246.017 278.973 246.297 278.939L246.299 278.939C246.378 278.93 246.457 278.92 246.536 278.911C246.593 278.905 246.65 278.899 246.706 278.894C246.718 278.846 246.73 278.799 246.741 278.751L246.775 278.613L246.777 278.605L246.831 278.385C246.511 278.256 246.195 278.115 245.878 277.974L245.876 277.973L245.872 277.971C245.174 277.66 244.476 277.348 243.746 277.166C241.528 276.614 239.301 276.097 237.074 275.58L237.068 275.578C235.289 275.165 233.51 274.752 231.736 274.321C231.62 274.293 231.503 274.265 231.387 274.237C231.307 274.217 231.227 274.198 231.148 274.179C230.918 274.124 230.687 274.069 230.457 274.015L230.425 274.007L230.409 274.003L230.408 274.003C228.358 273.516 226.304 273.027 224.32 272.346C220.481 271.029 218.031 268.326 217.564 264.222C217.335 262.204 217.268 260.166 217.2 258.128C217.17 257.218 217.14 256.306 217.096 255.397L217.048 254.398C217.022 253.876 216.995 253.31 216.962 252.631C208.873 254.379 201.32 256.786 193.522 259.444C195.347 262.884 195.554 266.359 195.215 269.858C195.051 271.556 194.755 273.242 194.46 274.927C194.326 275.686 194.193 276.445 194.072 277.206C193.997 277.676 193.925 278.147 193.84 278.699C193.794 278.998 193.744 279.321 193.689 279.681C194.228 279.681 194.74 279.682 195.232 279.684L195.25 279.684C196.358 279.688 197.368 279.692 198.377 279.674C199.061 279.662 199.744 279.622 200.472 279.579L200.475 279.579L200.48 279.578C200.812 279.559 201.154 279.538 201.51 279.52C201.626 279.203 201.724 278.908 201.815 278.632L201.817 278.627ZM165.908 263.105C165.403 263.105 164.94 263.105 164.506 263.104C163.712 263.104 163.011 263.103 162.31 263.105C159.945 263.112 157.579 263.12 155.214 263.127C150.266 263.143 145.318 263.16 140.37 263.165C137.393 263.168 137.242 262.994 137.237 259.956C137.235 258.899 137.24 257.842 137.246 256.786C137.257 254.577 137.268 252.369 137.216 250.163C137.1 245.189 137.161 240.213 137.222 235.237C137.327 226.624 137.433 218.01 136.618 209.41C136.479 207.945 136.927 207.466 138.413 207.289C138.697 207.256 138.984 207.261 139.272 207.267C139.374 207.269 139.477 207.271 139.579 207.271C144.663 207.274 149.746 207.279 154.83 207.284H154.851L155.553 207.284C155.853 207.284 156.165 207.284 156.507 207.284L157.539 207.284C157.323 205.545 157.147 204.132 156.942 202.494C147.324 203.273 137.782 203.108 128.248 202.943C122.825 202.849 117.404 202.755 111.974 202.835V206.78C112.589 206.78 113.182 206.776 113.76 206.773C114.991 206.765 116.152 206.758 117.311 206.788C120.188 206.863 123.064 206.974 125.938 207.099C128.158 207.194 128.347 207.403 128.387 209.532C128.393 209.798 128.39 210.064 128.387 210.331L128.386 210.465C128.346 215.15 128.306 219.835 128.266 224.52L128.266 224.578C128.166 236.271 128.066 247.964 127.964 259.657C127.941 262.244 127.592 262.587 124.976 262.649C122.479 262.708 119.982 262.767 117.486 262.825L117.478 262.826C112.822 262.935 108.166 263.044 103.51 263.159C103.008 263.171 102.506 263.215 101.946 263.263C101.663 263.288 101.365 263.314 101.045 263.338C101.01 263.973 100.975 264.601 100.94 265.223L100.94 265.226C100.822 267.306 100.708 269.319 100.651 271.334C100.645 271.522 100.865 271.716 101.162 271.979C101.328 272.125 101.517 272.293 101.705 272.492C101.743 272.247 101.778 272.017 101.812 271.799L101.898 271.25L101.898 271.248C102.015 270.495 102.11 269.885 102.2 269.274C102.515 267.118 102.798 266.836 105.031 266.792L105.626 266.78C111.415 266.667 117.204 266.554 122.994 266.495C128.477 266.44 133.959 266.399 139.442 266.359L139.487 266.359C144.257 266.324 149.027 266.288 153.797 266.243C154.984 266.232 156.171 266.186 157.358 266.141L157.365 266.14C158.663 266.09 159.961 266.041 161.259 266.035C162.939 266.027 163.272 266.405 163.463 268.053C163.559 268.874 163.651 269.696 163.744 270.538L163.744 270.539C163.779 270.856 163.815 271.175 163.851 271.498H166.357C166.21 268.724 166.066 266.041 165.908 263.105ZM157.994 199.514C156.466 196.31 154.62 193.56 152.761 190.811C152.054 189.766 151.134 189.159 149.925 188.994C148.894 188.855 147.864 188.709 146.834 188.563C143.948 188.154 141.063 187.745 138.164 187.479C137.719 187.438 137.274 187.398 136.83 187.358L136.815 187.357C131.995 186.926 127.19 186.497 122.589 184.791C116.116 182.391 111.771 178.073 109.744 171.356C107.398 163.581 107.411 155.737 108.474 147.807C108.526 147.42 108.542 147.029 108.56 146.598C108.568 146.383 108.578 146.159 108.592 145.92C108.299 145.906 108.028 145.89 107.771 145.876C107.257 145.846 106.801 145.82 106.345 145.819C104.997 145.817 103.649 145.818 102.301 145.82C100.07 145.822 97.8394 145.825 95.6089 145.809L95.5389 145.808C94.9533 145.805 94.2484 145.801 93.8368 145.489C90.7538 143.147 88.6109 140.384 88.7481 136.131C88.8802 132.046 89.6648 128.102 90.4531 124.139C90.5129 123.839 90.5726 123.538 90.6322 123.237C92.6388 113.093 94.7477 102.979 98.5965 93.3238C98.9968 92.3179 99.3599 91.2971 99.7565 90.1818C99.951 89.6352 100.154 89.0654 100.373 88.464C97.0079 88.5577 93.6726 88.6403 90.3555 88.7225L90.3466 88.7227L90.3444 88.7228C82.7453 88.911 75.2418 89.0969 67.7017 89.4076C67.6326 90.4074 67.5658 91.3768 67.5005 92.3252C67.3525 94.4752 67.212 96.5173 67.0681 98.5591C66.8543 101.596 66.6269 104.632 66.3995 107.668C65.8838 114.553 65.3681 121.438 65.0109 128.332C64.5447 137.343 64.5759 146.38 65.4673 155.369C65.9957 160.694 66.6837 166.033 67.7863 171.263C69.2655 178.28 72.5665 184.493 78.2731 188.991C83.3072 192.959 89.0664 195.828 95.2294 197.613C100.613 199.173 106.189 200.028 111.811 200.013C122.915 199.982 134.018 199.875 145.122 199.768L145.129 199.768C149.042 199.73 152.954 199.692 156.867 199.657C157.049 199.656 157.232 199.628 157.487 199.588C157.629 199.566 157.794 199.541 157.994 199.514ZM108.924 75.4634C108.334 76.427 107.766 77.3555 107.261 78.3174C102.478 87.4436 98.832 97.0397 96.2074 106.97C94.5353 113.299 93.2523 119.734 91.9705 126.163C91.7177 127.431 91.4649 128.699 91.2093 129.966C90.6254 132.855 90.385 135.818 90.9407 138.778C91.4282 141.374 93.504 143.411 96.114 143.737C96.598 143.797 97.0911 143.793 97.5828 143.788C97.7146 143.787 97.8472 143.785 97.9785 143.785H98.0118C113.018 143.785 128.024 143.785 143.031 143.775C143.428 143.775 143.825 143.726 144.263 143.673L144.265 143.673C144.484 143.646 144.713 143.618 144.958 143.595C145.044 142.586 145.136 141.59 145.228 140.601C145.442 138.28 145.652 136.003 145.778 133.722C145.895 131.602 145.435 131.071 143.46 130.276L143.336 130.226C142.589 129.925 141.838 129.622 141.065 129.405C139.201 128.88 137.334 128.372 135.466 127.864L135.458 127.862C134.254 127.535 133.05 127.207 131.847 126.875C129.364 126.19 126.88 125.646 124.262 125.835C122.464 125.964 120.943 126.557 119.711 127.838C119.661 127.89 119.612 127.944 119.563 127.996C119.173 128.418 118.808 128.813 118.175 128.395C117.475 127.932 117.771 127.322 118.063 126.749C118.356 126.172 118.646 125.593 118.935 125.015C119.585 123.716 120.234 122.418 120.93 121.145C122.251 118.733 123.147 116.207 123.537 113.469C123.743 112.024 124.216 110.605 124.692 109.217C124.828 108.82 125.406 108.298 125.769 108.308C126.616 108.33 126.552 109.093 126.5 109.724L126.5 109.725C126.486 109.891 126.45 110.056 126.415 110.22C126.401 110.284 126.387 110.348 126.374 110.413C126.203 111.277 126.03 112.14 125.858 113.004L125.858 113.005C125.513 114.732 125.169 116.459 124.83 118.187C124.585 119.431 124.349 120.678 124.121 121.878L124.118 121.893C124.015 122.435 123.913 122.968 123.814 123.487C124.74 123.667 125.65 123.835 126.549 124.001L126.551 124.002C128.538 124.369 130.469 124.726 132.38 125.167C134.497 125.657 136.595 126.231 138.692 126.806C139.518 127.032 140.343 127.258 141.17 127.479C141.369 127.532 141.569 127.584 141.769 127.636C143.957 128.205 146.137 128.773 147.528 130.89C147.76 131.244 148.473 131.404 148.979 131.438C150.308 131.525 150.911 132.276 151.132 133.48C151.208 133.897 151.288 134.313 151.386 134.829C151.429 135.053 151.475 135.296 151.527 135.567C152.075 135.567 152.619 135.564 153.16 135.562H153.162C154.579 135.556 155.974 135.549 157.367 135.587C157.932 135.602 158.863 135.717 158.98 136.028C159.271 136.803 159.754 136.76 160.28 136.712C160.341 136.707 160.402 136.701 160.464 136.697C160.922 136.665 161.38 136.622 161.838 136.58C162.62 136.507 163.402 136.435 164.186 136.411C164.836 136.392 165.485 136.368 166.135 136.343L166.137 136.343C168.364 136.261 170.592 136.178 172.81 136.277C175.986 136.418 179.156 136.792 182.314 137.184C184.896 137.505 187.463 137.933 190.03 138.361L190.034 138.362L190.039 138.363C190.382 138.42 190.724 138.477 191.067 138.534C192.898 138.837 194.119 139.993 194.97 141.573C195.192 141.983 195.381 142.412 195.584 142.871C195.681 143.093 195.783 143.322 195.892 143.56H232.515C232.57 143.375 232.628 143.211 232.682 143.061C232.785 142.773 232.87 142.534 232.88 142.291C232.903 141.68 232.928 141.068 232.953 140.456L232.953 140.453C233.066 137.657 233.179 134.861 233.197 132.065C233.206 130.55 232.332 129.333 230.932 128.805C229.573 128.294 228.099 127.865 226.663 127.823C225.125 127.778 223.584 127.841 222.043 127.904L222.042 127.904C220.707 127.958 219.372 128.013 218.037 127.997C217.868 127.995 217.698 127.994 217.527 127.992L217.525 127.992C215.758 127.977 213.918 127.961 212.308 127.396C208.703 126.132 205.054 125.954 201.517 126.9C198.864 127.61 196.327 127.551 193.715 127.341C193.541 127.327 193.344 127.337 193.142 127.347C192.45 127.382 191.699 127.419 191.629 126.51C191.606 126.201 192.087 125.854 192.627 125.463C192.892 125.272 193.171 125.07 193.412 124.858C193.412 124.836 193.413 124.81 193.413 124.779C193.414 124.755 193.415 124.728 193.415 124.699C193.421 124.508 193.428 124.223 193.409 123.94C193.264 121.789 193.125 119.638 192.986 117.487L192.986 117.482C192.64 112.11 192.294 106.738 191.836 101.375C191.466 97.0465 190.919 92.7139 190.1 88.4504C189.706 86.4022 188.88 84.4277 188.062 82.4705C187.89 82.0583 187.718 81.6468 187.55 81.2356C187.239 80.4759 186.784 79.5518 185.493 79.438C185.466 79.7424 185.446 80.0393 185.427 80.3298C185.383 81.0073 185.342 81.6504 185.208 82.2726C185.112 82.7152 184.734 83.3465 184.374 83.4321C183.561 83.6247 183.353 82.8727 183.3 82.2512C183.264 81.8278 183.335 81.3924 183.405 80.9613C183.422 80.8557 183.439 80.75 183.455 80.6452C183.545 80.0418 183.647 79.4405 183.758 78.7806L183.758 78.7789C183.813 78.4563 183.87 78.1197 183.929 77.762C176.756 75.3652 169.56 73.5354 162.273 71.696C162.195 72.0072 162.124 72.2975 162.058 72.5733C161.924 73.1277 161.804 73.6231 161.659 74.1103C159.606 80.9866 153.752 84.432 146.819 82.6704C140.672 81.1092 135.838 77.6647 132.622 72.1065C132.393 71.7106 132.152 71.3212 131.879 70.8818L131.879 70.8807C131.745 70.6651 131.604 70.4375 131.453 70.1912C127.775 71.3258 123.995 71.4933 120.232 71.6601C117.375 71.7867 114.528 71.9128 111.744 72.4615C111.654 73.1958 111.973 73.822 112.293 74.4505C112.778 75.4008 113.265 76.3567 112.344 77.6997L111.811 76.9434C111.123 75.9663 110.512 75.0997 109.777 74.0549C109.491 74.537 109.206 75.0035 108.925 75.462L108.924 75.4634ZM160.22 154.374C160.611 154.263 160.999 154.151 161.379 154.177C166.162 154.5 170.721 155.586 174.957 157.961C181.098 161.405 184.929 166.974 188.717 172.595C189.318 173.487 189.818 174.474 190.21 175.477C195.393 188.766 200.565 202.06 205.736 215.353L205.799 215.516C207.876 220.853 209.952 226.19 212.029 231.526C212.212 231.998 212.419 232.461 212.646 232.969C212.759 233.221 212.877 233.484 212.999 233.765C217.56 232.281 221.886 230.432 226.202 228.587C228.173 227.745 230.142 226.903 232.131 226.097C232.051 225.798 231.979 225.523 231.912 225.264C231.778 224.753 231.661 224.307 231.533 223.864C230.853 221.536 230.171 219.209 229.489 216.882C228.51 213.544 227.532 210.206 226.56 206.866C222.804 193.959 219.054 181.05 215.307 168.141C213.911 163.327 211.165 159.407 207.031 156.649C201.342 152.853 195.372 149.493 188.88 147.249C186.484 146.421 183.921 145.803 181.402 145.664C178.619 145.51 175.825 145.572 173.03 145.634L173.028 145.634C171.625 145.666 170.222 145.697 168.82 145.701C155.99 145.735 143.159 145.761 130.329 145.786H130.32L129.533 145.788C126.374 145.794 123.214 145.8 120.055 145.807C118.038 145.811 116.021 145.81 113.955 145.809L113.895 145.809C112.961 145.808 112.017 145.808 111.058 145.808C110.975 146.113 110.884 146.403 110.796 146.685C110.614 147.266 110.444 147.81 110.382 148.366C109.565 155.807 109.241 163.189 111.458 170.531C113.495 177.274 117.98 181.263 124.465 183.371C128.193 184.583 132.045 185.05 135.935 185.304C140.67 185.611 145.392 185.988 150.047 187.006C151.82 187.394 153.118 188.207 154.205 189.689C157.623 194.348 160.16 199.496 162.694 204.636L162.695 204.638C162.9 205.055 163.106 205.473 163.312 205.89C167.193 213.74 171.006 221.624 174.82 229.508L174.82 229.51L174.822 229.514L174.823 229.515C176.659 233.311 178.495 237.108 180.339 240.901C180.514 241.261 180.74 241.596 180.977 241.947C181.092 242.116 181.209 242.289 181.324 242.471C185.573 241.284 189.808 240.14 194.038 238.996L194.039 238.996C199.726 237.459 205.402 235.924 211.087 234.297C210.94 233.898 210.808 233.534 210.684 233.192L210.683 233.191C210.444 232.533 210.236 231.961 210.015 231.394C206.674 222.846 203.331 214.3 199.989 205.753L199.816 205.311C197.414 199.17 195.012 193.028 192.61 186.886C192.295 186.079 191.977 185.273 191.659 184.467C190.778 182.237 189.898 180.008 189.081 177.755C187.33 172.934 184.095 169.105 180.866 165.283L180.623 164.995C177.647 161.471 173.906 158.944 169.493 157.618C167.779 157.103 166 156.802 164.222 156.501C163.394 156.361 162.566 156.221 161.746 156.059C161.591 156.029 161.427 156.012 161.261 155.996C160.523 155.921 159.757 155.844 159.671 154.518C159.854 154.479 160.038 154.427 160.22 154.374Z" fill="black"/>
<path d="M230.723 244.813C230.907 244.971 231.11 245.147 231.322 245.356C231.516 245.134 231.714 244.939 231.896 244.76C232.279 244.384 232.591 244.079 232.637 243.738C232.681 243.406 231.955 242.772 231.465 242.614C230.793 242.399 229.721 243.382 229.949 243.943C230.075 244.255 230.361 244.501 230.723 244.813Z" fill="black"/>
<path d="M224.856 244.509C225.049 244.323 225.27 244.11 225.536 243.89C225.252 243.724 225.008 243.567 224.788 243.425C224.312 243.118 223.954 242.888 223.566 242.818C223.344 242.779 222.784 243.484 222.729 243.897C222.626 244.662 223.102 245.308 223.922 245.169C224.225 245.118 224.493 244.859 224.856 244.509Z" fill="black"/>
<path d="M208.052 249.751C208.265 249.62 208.507 249.47 208.771 249.334C208.559 249.123 208.381 248.923 208.219 248.742C207.876 248.357 207.613 248.062 207.285 247.941C207.057 247.856 206.213 248.566 206.261 248.783C206.37 249.284 206.773 249.843 207.217 250.095C207.362 250.177 207.657 249.995 208.052 249.751Z" fill="black"/>
<path d="M201.167 253.487C201.383 253.35 201.627 253.196 201.914 253.041C201.642 252.837 201.424 252.65 201.236 252.49C200.895 252.198 200.656 251.994 200.384 251.931C199.67 251.769 199.121 252.258 199.178 252.94C199.211 253.321 199.778 253.925 200.126 253.941C200.429 253.954 200.741 253.756 201.167 253.487Z" fill="black"/>
<path d="M202.88 248.169C203.028 248.376 203.178 248.56 203.317 248.73C203.62 249.102 203.87 249.409 203.93 249.751C203.961 249.922 203.637 250.156 203.314 250.388C203.168 250.493 203.023 250.598 202.91 250.697C202.809 250.57 202.701 250.446 202.593 250.322C202.317 250.004 202.041 249.686 201.89 249.317C201.845 249.208 202.067 248.991 202.363 248.7C202.524 248.543 202.706 248.364 202.88 248.169Z" fill="black"/>
<path d="M196.941 252.549C197.104 252.401 197.288 252.234 197.507 252.057C197.256 251.925 197.042 251.795 196.853 251.68C196.467 251.445 196.185 251.274 195.903 251.275C195.674 251.276 195.25 251.948 195.279 252.285C195.307 252.607 195.865 253.173 196.089 253.128C196.366 253.073 196.61 252.851 196.941 252.549Z" fill="black"/>
<path fill-rule="evenodd" clip-rule="evenodd" d="M154.031 32.5371L155.518 38.4173L153.349 38.6342L154.031 32.5371Z" fill="black"/>
<path fill-rule="evenodd" clip-rule="evenodd" d="M152.318 28.2207C152.318 28.2207 152.407 30.0212 152.008 30.3987C150.334 30.2138 146.566 30.8354 144.676 31.6691C145.42 29.9444 152.318 28.2207 152.318 28.2207Z" fill="black"/>
<path fill-rule="evenodd" clip-rule="evenodd" d="M149.433 36.2784C148.894 36.3115 148.357 36.2113 147.855 36.046C148.04 36.1004 148.238 36.1306 148.443 36.1306C149.468 36.1306 150.302 35.3991 150.302 34.5012C150.302 34.1394 150.021 33.7065 149.755 33.4069C151.069 33.5275 152.222 34.2114 152.647 34.4925C152.267 34.9438 151.081 36.1773 149.433 36.2784ZM146.634 34.0538C146.604 34.2085 146.585 34.3777 146.585 34.5012C146.585 35.153 147.024 35.7162 147.656 35.9759C146.69 35.6179 145.89 35.0421 145.548 34.7736C145.747 34.6044 146.117 34.3203 146.634 34.0538ZM153.071 34.2834C153.002 34.2318 151.353 33.0003 149.417 32.975C146.757 32.9449 145.152 34.5693 145.084 34.6384C145.045 34.6783 145.025 34.7337 145.026 34.7901C145.028 34.8456 145.054 34.8991 145.096 34.9361C145.18 35.011 147.114 36.6977 149.221 36.6977C149.3 36.6977 149.379 36.6948 149.458 36.6899C151.668 36.5527 153.056 34.6491 153.114 34.5684C153.18 34.4769 153.16 34.3514 153.071 34.2834Z" fill="black"/>
<path fill-rule="evenodd" clip-rule="evenodd" d="M158.503 35.8637C158.03 35.8968 157.556 35.781 157.122 35.6001C157.197 35.6147 157.273 35.6244 157.349 35.6244C158.175 35.6244 158.846 34.9532 158.846 34.1283C158.846 33.7674 158.719 33.4289 158.492 33.1614C158.583 33.1556 158.677 33.1527 158.77 33.1527H158.771C159.812 33.1527 160.766 33.8871 161.1 34.176C160.803 34.5875 159.84 35.7674 158.503 35.8637ZM155.386 34.462C155.494 34.3696 155.657 34.2402 155.866 34.0982C155.907 34.4445 156.056 34.7927 156.291 35.0758C156.355 35.1536 156.423 35.2207 156.494 35.282C155.993 34.9863 155.594 34.6497 155.386 34.462ZM161.517 33.997C161.465 33.9455 160.232 32.7402 158.771 32.7402H158.77C156.509 32.7402 154.999 34.2499 154.936 34.3141C154.857 34.3939 154.857 34.5223 154.935 34.603C154.953 34.6215 155.381 35.0583 156.034 35.4833C156.847 36.0135 157.62 36.282 158.333 36.282C158.4 36.282 158.466 36.28 158.532 36.2752C160.36 36.1438 161.5 34.3287 161.547 34.2519C161.598 34.1702 161.585 34.0641 161.517 33.997Z" fill="black"/>
<path fill-rule="evenodd" clip-rule="evenodd" d="M155.185 28.2207C155.185 28.2207 155.095 30.0212 155.495 30.3987C157.167 30.2138 159.862 30.6574 161.752 31.4901C161.008 29.7664 155.185 28.2207 155.185 28.2207Z" fill="black"/>
<path fill-rule="evenodd" clip-rule="evenodd" d="M150.479 40.8223C151.507 41.795 152.343 42.3358 153.737 42.4283C155.13 42.5216 156.106 42.0119 156.106 42.0119C156.106 42.0119 154.991 43.9039 153.643 44.2551C150.856 44.9836 150.987 42.7979 150.479 40.8223Z" fill="black"/>
<path fill-rule="evenodd" clip-rule="evenodd" d="M251.161 121.296L196.419 120.659C192.053 118.488 189.245 116.428 187.996 114.479C186.748 112.53 187.783 105.08 191.103 92.1293L203.77 34.6112C204.322 31.2855 205.64 29.2179 207.722 28.4086C211.565 26.915 219.81 27.4605 224.964 27.4605C233.032 27.4605 246.73 27.7765 266.058 28.4086H317.01C321.914 29.0967 325.071 30.3025 326.48 32.026C328.592 34.6112 328.592 35.4717 328.592 41.2008C328.592 45.0202 323.692 68.9028 313.891 112.849C313.127 117.631 312.287 120.234 311.371 120.659C310.454 121.084 301.027 121.296 283.09 121.296L289.038 140.93L311.371 142.348V144.823H232.412V142.348H253.775L251.161 121.296Z" fill="white"/>
<path fill-rule="evenodd" clip-rule="evenodd" d="M265.622 72.343C268.497 72.2964 270.262 70.6063 270.211 67.9533C270.156 65.0226 268.645 63.353 266.116 63.4287C263.171 63.5161 261.066 65.4672 261.086 68.0902C261.107 70.5102 263.105 72.3847 265.622 72.343ZM268.227 67.9912C268.214 69.6929 267.337 70.5384 265.64 70.4918C264.22 70.452 262.938 69.2658 263.045 68.0892C263.146 66.9612 265.149 65.2702 266.362 65.2867C267.528 65.3032 268.242 66.3361 268.227 67.9912Z" fill="black"/>
<path fill-rule="evenodd" clip-rule="evenodd" d="M289.129 140.508C287.333 134.502 285.589 128.667 283.792 122.662C284.118 122.633 284.404 122.604 284.664 122.577C285.153 122.526 285.55 122.485 285.948 122.478C287.813 122.442 289.678 122.411 291.544 122.381C295.203 122.321 298.862 122.261 302.52 122.159C304.299 122.11 306.101 121.958 307.841 121.602C310.523 121.053 312.487 119.44 313.514 116.885C314.235 115.093 314.901 113.258 315.36 111.384C315.949 108.989 316.443 106.571 316.937 104.154C317.11 103.304 317.284 102.455 317.461 101.607C318.718 95.6058 319.972 89.6045 321.227 83.6033C323.178 74.2719 325.13 64.9405 327.086 55.6101C327.324 54.4743 327.544 53.3326 327.764 52.1908C328.337 49.2134 328.911 46.2352 329.81 43.3584C330.792 40.2161 330.316 37.2854 329.223 34.5606C328.055 31.6483 325.673 29.4758 322.592 28.3556C319.801 27.3402 316.919 26.7442 313.926 26.7403C303.574 26.7277 293.223 26.7024 282.872 26.6646C273.828 26.6314 264.783 26.5951 255.739 26.5588C240.974 26.4996 226.209 26.4404 211.444 26.3946C205.92 26.3763 202.571 29.3496 201.436 34.0354C201.206 34.9835 200.972 35.931 200.739 36.8784C200.026 39.7703 199.313 42.6623 198.699 45.5746C196.928 53.9813 195.17 62.3908 193.412 70.8003C190.902 82.8074 188.391 94.8146 185.844 106.814C185.251 109.599 185.553 112.224 186.445 114.808C187.862 118.912 192.884 122.117 197.248 121.872C197.449 121.86 197.65 121.849 197.85 121.837C199.201 121.758 200.553 121.68 201.905 121.68C217.158 121.685 232.411 121.707 247.664 121.731C248.121 121.732 248.578 121.761 249.087 121.794C249.341 121.811 249.608 121.828 249.895 121.843C250.478 125.649 251.056 129.419 251.639 133.223C252.024 135.731 252.41 138.253 252.802 140.809C252.428 140.809 252.093 140.809 251.784 140.808C251.163 140.807 250.648 140.807 250.133 140.81C244.375 140.846 238.617 140.883 232.858 140.924C232.314 140.928 231.769 140.939 231.227 140.983C230.402 141.048 230.027 141.492 229.963 142.342C229.738 145.34 230.876 146.591 233.854 146.568C235.525 146.555 237.197 146.542 238.869 146.529C244.668 146.484 250.468 146.439 256.267 146.416C264.269 146.383 272.271 146.355 280.272 146.327C290.092 146.292 299.913 146.257 309.733 146.214C310.438 146.211 311.144 146.136 311.868 146.06C312.215 146.023 312.567 145.986 312.925 145.956C312.925 145.529 312.934 145.133 312.942 144.76C312.959 144 312.975 143.33 312.908 142.669C312.717 140.777 312.306 140.413 310.415 140.417C308.188 140.421 305.961 140.442 303.735 140.464C301.994 140.48 300.253 140.497 298.512 140.505C296.384 140.516 294.255 140.513 292.092 140.511C291.113 140.509 290.126 140.508 289.129 140.508ZM311.037 144.357L311.038 144.36C309.652 144.36 308.283 144.358 306.927 144.357C304.012 144.353 301.151 144.35 298.29 144.363C283.892 144.43 269.494 144.503 255.096 144.575C248.556 144.608 242.016 144.641 235.476 144.674C234.776 144.677 234.075 144.671 233.375 144.659L233.348 144.659C232.635 144.647 231.896 144.635 231.919 143.623C231.941 142.785 232.545 142.766 233.13 142.747C233.175 142.746 233.22 142.745 233.265 142.743C233.582 142.729 233.901 142.727 234.219 142.726C234.29 142.725 234.361 142.725 234.432 142.724C242.718 142.667 251.005 142.609 259.291 142.551C275.836 142.435 292.38 142.32 308.924 142.206C310.892 142.193 310.893 142.207 311.037 144.357ZM323.507 30.9826L323.506 30.9863C320.557 30.9659 317.608 30.9459 314.659 30.9258C308.754 30.8857 302.85 30.8456 296.945 30.8028C287.871 30.7367 278.796 30.6703 269.722 30.6039C251.639 30.4716 233.556 30.3393 215.473 30.2087C215.405 30.2083 215.337 30.2077 215.269 30.2072C214.638 30.202 214.003 30.1968 213.376 30.2573C208.186 30.7582 205.481 32.922 204.184 38.0048C203.37 41.1995 202.709 44.4335 202.048 47.6671C201.839 48.6879 201.631 49.7087 201.417 50.7283C197.418 69.8548 193.419 88.9812 189.453 108.115C189.179 109.439 189.008 110.786 188.825 112.224C188.737 112.92 188.645 113.638 188.538 114.386C188.426 114.201 188.317 114.044 188.218 113.902C188.033 113.635 187.886 113.423 187.829 113.189C187.367 111.29 187.257 109.41 187.674 107.443C190.516 94.0958 193.332 80.7434 196.148 67.3911C197.667 60.1856 199.187 52.9802 200.711 45.7755C201.496 42.0595 202.297 38.3445 203.219 34.6615C203.532 33.4102 204.124 32.1832 204.806 31.0795C205.606 29.7836 206.833 28.9759 208.449 28.873C209.107 28.831 209.765 28.761 210.422 28.691C211.467 28.5796 212.511 28.4683 213.555 28.4701C245.769 28.5167 277.98 28.574 310.193 28.7022C313.439 28.7148 316.695 29.1147 319.923 29.5147C320.784 29.6215 321.616 29.9648 322.448 30.3081C322.825 30.4639 323.202 30.6197 323.583 30.7533C323.557 30.8297 323.532 30.9062 323.507 30.9826ZM286.864 140.17C285.094 140.718 257.673 141.032 254.621 140.552C252.669 127.675 250.71 114.76 248.712 101.593C249.02 101.593 249.286 101.593 249.525 101.592C249.938 101.592 250.271 101.591 250.604 101.593C251.982 101.599 253.359 101.606 254.736 101.612C260.906 101.64 267.076 101.669 273.246 101.703C275.402 101.714 275.43 101.718 276.015 103.663C279.519 115.319 283.011 126.98 286.5 138.64C286.603 138.985 286.68 139.338 286.756 139.687C286.792 139.849 286.827 140.011 286.864 140.17ZM283.621 120.498C283.472 120.482 283.314 120.464 283.141 120.45C282.955 119.856 282.768 119.263 282.582 118.672C282.138 117.264 281.696 115.862 281.271 114.455C280.682 112.508 280.099 110.559 279.516 108.609C278.855 106.397 278.193 104.185 277.523 101.977C276.903 99.937 276.835 99.8681 274.8 99.8526C266.394 99.7875 257.988 99.7409 249.583 99.7079C249.033 99.706 248.483 99.7625 247.839 99.8287C247.504 99.8632 247.143 99.9003 246.743 99.9331C247.023 103.604 247.604 107.185 248.19 110.79C248.672 113.756 249.156 116.738 249.477 119.797C249.145 119.797 248.829 119.798 248.523 119.798C247.94 119.798 247.394 119.798 246.848 119.797C243.763 119.794 240.678 119.792 237.593 119.789C224.956 119.778 212.319 119.767 199.683 119.73C199.579 119.73 199.475 119.73 199.371 119.73C197.849 119.727 196.267 119.725 194.852 119.287C191.483 118.244 190.067 116.479 190.658 113.092C191.415 108.743 192.232 104.4 193.126 100.075C196.282 84.8134 199.462 69.556 202.642 54.2992C203.308 51.1088 203.973 47.9185 204.637 44.7281C204.745 44.2111 204.846 43.6915 204.946 43.1716C205.245 41.631 205.543 40.0888 206.03 38.6095C206.526 37.0971 207.317 35.6148 208.278 34.3451C208.875 33.5568 209.971 32.9152 210.952 32.6958C212.756 32.2919 214.641 32.0716 216.491 32.081C250.583 32.2667 284.674 32.4764 318.764 32.7715C320.723 32.788 322.79 33.3064 324.604 34.0694C327.732 35.3838 328.785 37.9232 328.088 41.2548C326.627 48.2351 325.167 55.2158 323.708 62.1966C320.486 77.6085 317.264 93.0203 314.017 108.427C313.491 110.923 312.763 113.386 311.98 115.815C311.22 118.168 309.462 119.48 307.02 119.859C306.856 119.884 306.691 119.911 306.526 119.937C305.77 120.06 305.009 120.183 304.248 120.198C298.184 120.327 292.119 120.427 286.054 120.527L284.406 120.554C284.156 120.557 283.906 120.529 283.621 120.498Z" fill="black"/>
<path d="M66.6182 153.814L67.1372 143.434L146.028 144.472L149.661 145.51L437.716 143.434V151.738L66.6182 153.814Z" fill="white"/>
<path d="M154.333 281.482V276.82L141.357 208.31L130.977 154.332H135.648L160.561 284.605H158.411L159.004 285.124L65.5808 284.086L64.7158 283.567H60.3906L86.8605 154.851H93.0887L73.8767 243.084H147.586L149.143 249.831L72.6268 248.824L65.848 279.957L154.333 281.482Z" fill="white"/>
<path fill-rule="evenodd" clip-rule="evenodd" d="M425.883 243.089L408.65 152.258H413.841L438.753 283.569L437.715 285.126L345.33 284.088L342.91 283.282L342.735 284.088L338.583 283.569L365.572 152.777H371.281L351.54 243.584L425.883 243.089ZM427.162 249.832L350.292 249.326L343.633 279.96L433.161 281.452L427.162 249.832Z" fill="white"/>
<path fill-rule="evenodd" clip-rule="evenodd" d="M76.4814 248.087C74.7421 248.09 72.9969 248.092 71.2429 248.092C69.7794 251.972 64.0771 278.744 64.3298 280.849C64.6232 280.883 64.9241 280.926 65.2304 280.969C65.9139 281.067 66.624 281.168 67.3362 281.181C71.1494 281.248 74.9626 281.301 78.7759 281.354C82.7967 281.411 86.8175 281.467 90.8382 281.539C99.5281 281.693 108.218 281.857 116.907 282.021C123.637 282.149 130.366 282.276 137.096 282.398C140.334 282.458 143.572 282.504 146.811 282.55C149.086 282.583 151.361 282.615 153.636 282.653C155.536 282.683 156.1 282.055 155.743 280.107C154.857 275.255 153.951 270.406 153.046 265.557C152.799 264.23 152.551 262.903 152.304 261.576C151.808 258.92 151.311 256.264 150.808 253.574C150.539 252.136 150.268 250.689 149.995 249.227C149.384 249.146 148.786 249.048 148.197 248.951C146.95 248.747 145.742 248.548 144.533 248.537C125.649 248.352 106.764 248.222 87.8804 248.099C84.09 248.074 80.3002 248.08 76.4814 248.087ZM66.859 276.082C68.8111 267.279 70.705 258.737 72.6475 249.974C85.6452 250.071 98.5672 250.166 111.492 250.261C123.686 250.351 135.882 250.441 148.147 250.532C149.337 256.842 150.522 263.128 151.716 269.461C152.392 273.046 153.071 276.647 153.755 280.275C135.177 280.821 116.689 280.347 98.144 279.87C87.5101 279.597 76.8575 279.324 66.1584 279.242L66.859 276.082Z" fill="black"/>
<path fill-rule="evenodd" clip-rule="evenodd" d="M342.426 280.819C342.239 278.671 348.137 251.303 349.455 248.004C356.326 248.048 363.213 248.092 370.111 248.137C382.516 248.216 394.955 248.296 407.394 248.378C408.556 248.386 409.719 248.391 410.881 248.396C414.42 248.411 417.958 248.427 421.495 248.521C422.998 248.562 424.497 248.735 426.016 248.911C426.713 248.992 427.415 249.073 428.124 249.142L428.695 252.19C429.298 255.41 429.881 258.52 430.46 261.631C430.706 262.954 430.952 264.277 431.199 265.6C432.089 270.372 432.978 275.145 433.85 279.921C434.265 282.201 433.57 282.877 431.233 282.59C430.989 282.561 430.745 282.525 430.5 282.49C429.848 282.396 429.195 282.301 428.544 282.312C408.416 282.644 388.3 282.181 368.183 281.528C363.386 281.373 358.585 281.327 353.784 281.281C350.997 281.255 348.21 281.228 345.424 281.18C344.718 281.168 344.014 281.058 343.333 280.952C343.025 280.903 342.722 280.856 342.426 280.819ZM350.79 249.973L349.357 256.442L349.353 256.46C347.672 264.048 346.013 271.536 344.305 279.242C355.011 279.325 365.668 279.597 376.308 279.87C394.826 280.343 413.294 280.816 431.888 280.284C430.024 270.355 428.18 260.531 426.303 250.534C401.126 250.347 376.079 250.161 350.79 249.973Z" fill="black"/>
<path fill-rule="evenodd" clip-rule="evenodd" d="M337.835 284.324C339.184 277.503 340.516 270.725 341.842 263.98C344.839 248.73 347.805 233.641 350.874 218.573C352.371 211.227 353.804 203.867 355.24 196.498L355.24 196.497C358.03 182.176 360.826 167.821 364.105 153.463C363.676 153.463 363.231 153.462 362.776 153.462C361.767 153.46 360.706 153.458 359.646 153.464C329.626 153.639 299.605 153.814 269.585 153.994C261.654 154.042 253.724 154.088 245.793 154.135L245.788 154.135C214.05 154.322 182.313 154.509 150.575 154.749C147.526 154.772 144.479 155.013 141.348 155.261C139.868 155.378 138.368 155.496 136.842 155.594C136.959 156.247 137.074 156.903 137.19 157.56L137.191 157.563C137.448 159.025 137.707 160.495 137.985 161.961L137.999 162.03C142.064 183.495 146.129 204.959 150.209 226.421C152.336 237.605 154.472 248.788 156.608 259.972L156.617 260.019C157.861 266.533 159.105 273.047 160.348 279.561L160.402 279.843C160.675 281.272 160.948 282.701 161.181 284.137C161.437 285.717 161.201 286.008 159.541 286C157.756 285.991 155.971 285.96 154.186 285.93C152.591 285.903 150.995 285.876 149.399 285.864C142.234 285.809 135.068 285.756 127.903 285.702C107.605 285.552 87.3068 285.401 67.009 285.212C65.4827 285.197 63.9579 284.972 62.3597 284.735C61.5929 284.622 60.8088 284.506 60 284.41C60.0287 284.01 60.0442 283.644 60.0587 283.303C60.0869 282.637 60.1113 282.062 60.2217 281.505C63.5865 264.513 66.9688 247.523 70.3508 230.534L71.2477 226.029C73.3137 215.651 75.3804 205.273 77.4472 194.895L77.4563 194.849C78.7655 188.275 80.0747 181.701 81.3837 175.127C82.2407 170.82 83.0986 166.514 83.9708 162.134L85.3997 154.96C84.9534 154.96 84.5047 154.96 84.0544 154.961C83.1491 154.962 82.2362 154.963 81.3239 154.96C80.2737 154.957 79.2236 154.954 78.1735 154.951C74.9348 154.942 71.696 154.934 68.457 154.904C66.2385 154.882 65.5486 154.317 65.5424 152.224C65.5341 149.697 65.6373 147.161 65.8631 144.643C66.0519 142.541 66.3912 142.317 68.5209 142.35C77.8602 142.493 87.1995 142.645 96.5388 142.798C99.9797 142.855 103.421 142.911 106.862 142.967L113.923 143.082C124.516 143.254 135.108 143.427 145.701 143.593C146.062 143.598 146.423 143.569 146.784 143.541C147.079 143.517 147.374 143.494 147.67 143.489C147.728 143.488 147.792 143.485 147.859 143.483C148.234 143.47 148.704 143.454 148.785 143.61C149.403 144.813 150.41 144.747 151.4 144.682C151.61 144.668 151.819 144.654 152.024 144.653C173.056 144.471 194.088 144.285 215.12 144.099L215.121 144.099C242.172 143.86 269.223 143.621 296.274 143.391C320.086 143.188 343.897 143 367.71 142.813C379.61 142.719 391.51 142.625 403.411 142.53C411.51 142.465 419.61 142.398 427.71 142.33L435.823 142.262C435.944 142.261 436.064 142.259 436.185 142.257C436.477 142.251 436.769 142.246 437.06 142.255C438.949 142.312 439.297 142.668 439.354 144.596C439.358 144.727 439.348 144.859 439.339 144.991C439.33 145.103 439.322 145.216 439.322 145.329C439.32 147.21 439.32 149.093 439.32 150.987L439.32 152.425C435.857 153.038 432.582 153.026 429.355 153.014C428.477 153.011 427.602 153.007 426.728 153.017C424.955 153.035 423.182 153.04 421.409 153.044C420.048 153.048 418.687 153.051 417.326 153.061C416.777 153.066 416.228 153.096 415.619 153.129C415.33 153.145 415.027 153.162 414.704 153.177C414.846 154.068 414.98 154.943 415.111 155.806L415.111 155.809C415.393 157.662 415.667 159.463 416.006 161.251C417.59 169.634 419.188 178.014 420.787 186.394L420.791 186.414C421.912 192.295 423.034 198.176 424.151 204.058C425.708 212.261 427.259 220.465 428.809 228.669L428.818 228.718C430.129 235.652 431.439 242.585 432.754 249.518C434.259 257.456 435.771 265.394 437.283 273.331L437.382 273.85C437.913 276.64 438.444 279.43 438.976 282.219C438.992 282.308 439.011 282.396 439.03 282.484C439.038 282.522 439.046 282.559 439.054 282.596C439.079 282.71 439.104 282.824 439.126 282.938L439.13 282.956C439.423 284.469 439.571 285.228 439.258 285.606C438.942 285.986 438.159 285.979 436.588 285.965L436.44 285.964C426.432 285.88 416.425 285.808 406.418 285.736L406.414 285.736C399.433 285.686 392.451 285.636 385.47 285.582C383.58 285.567 381.69 285.553 379.801 285.539C368.083 285.45 356.365 285.361 344.648 285.202C343.244 285.184 341.844 284.955 340.283 284.699C339.513 284.573 338.703 284.441 337.835 284.324ZM67.4648 152.89H146.736L146.741 152.858C147.087 150.539 147.438 148.186 147.137 145.611C129.253 145.339 111.473 145.069 93.6614 144.798L67.9671 144.407C67.799 147.25 67.6463 149.827 67.4648 152.89ZM159.226 284.033C151.025 240.928 142.888 198.163 134.724 155.251L132.483 155.568C135.172 169.937 137.852 184.261 140.53 198.574C143.339 213.587 146.146 228.589 148.959 243.622C148.313 243.721 147.692 243.842 147.087 243.959C145.832 244.201 144.646 244.43 143.459 244.437C120.862 244.572 98.2656 244.643 75.6701 244.712C74.8537 244.715 74.0378 244.653 73.1461 244.586C72.7098 244.553 72.2553 244.518 71.7737 244.49L74.4758 232.32C76.8888 221.453 79.2848 210.662 81.6787 199.87C83.8898 189.9 86.0992 179.929 88.3181 169.915L88.34 169.816C89.4215 164.935 90.5054 160.044 91.5929 155.137H87.911C85.3348 164.591 83.5169 174.162 81.7018 183.718C80.8262 188.328 79.9512 192.934 78.992 197.523C76.941 207.333 75.0106 217.168 73.0802 227.002C72.2288 231.34 71.3773 235.678 70.5155 240.014L62.0266 282.693C62.4894 282.693 62.9113 282.684 63.3049 282.676C64.1322 282.658 64.8344 282.644 65.5269 282.72C65.9506 282.766 66.3692 282.892 66.7863 283.018C67.2932 283.171 67.7977 283.324 68.3064 283.33C74.1334 283.403 79.9605 283.442 85.7875 283.482C88.701 283.501 91.6146 283.521 94.5281 283.545C104.961 283.631 115.394 283.72 125.827 283.809H125.829C134.525 283.884 143.222 283.958 151.918 284.031C153.451 284.043 154.984 284.04 156.644 284.036C157.468 284.035 158.324 284.033 159.226 284.033ZM427.107 243.648C426.396 243.751 425.727 243.871 425.086 243.986C423.785 244.22 422.598 244.433 421.409 244.44C398.903 244.572 376.397 244.642 353.891 244.711L353.882 244.711C353.064 244.714 352.246 244.654 351.342 244.589C350.892 244.556 350.419 244.522 349.916 244.493C353.091 230.188 356.258 215.918 359.425 201.654L360.14 198.433C363.46 183.477 366.779 168.525 370.104 153.544H366.736C364.157 159.205 344.359 261.92 340.864 280.05L340.857 280.086C340.61 281.369 340.445 282.223 340.376 282.581C340.584 282.581 340.788 282.579 340.989 282.577C341.435 282.573 341.866 282.57 342.295 282.586C342.772 282.603 343.253 282.638 343.719 282.727C344.078 282.795 344.436 282.89 344.793 282.985C345.446 283.158 346.098 283.332 346.751 283.338C376.264 283.613 405.778 283.851 435.291 284.084C435.7 284.087 436.11 284.031 436.574 283.967C436.813 283.935 437.067 283.9 437.343 283.871C430.498 247.914 423.68 212.1 416.868 176.32L412.474 153.239H410.194C413.779 172.4 417.353 191.506 420.931 210.635L427.107 243.648ZM148.839 152.669C203.29 152.394 257.692 152.062 312.109 151.73C353.776 151.476 395.451 151.221 437.166 150.993V144.2C427.494 144.287 417.831 144.375 408.175 144.464C385.815 144.669 363.488 144.874 341.162 145.052C329.055 145.149 316.948 145.224 304.84 145.299C284.955 145.422 265.07 145.545 245.187 145.766C232.654 145.906 220.121 145.987 207.584 146.069C188.166 146.195 168.74 146.321 149.295 146.664C149.2 147.912 149.114 149.043 149.027 150.199C148.966 150.994 148.905 151.802 148.839 152.669ZM146.663 242.531L139.456 204.082C136.397 187.765 133.35 171.509 130.293 155.204H93.6741L87.1103 184.79C82.8495 203.995 78.5792 223.243 74.2995 242.531H146.663ZM424.541 241.297L424.54 241.295C424.44 240.584 424.358 240.006 424.25 239.432C423.728 236.664 423.2 233.897 422.673 231.13L422.671 231.121C421.931 227.241 421.191 223.361 420.465 219.478C418.883 211.021 417.304 202.564 415.724 194.106L415.698 193.965C413.348 181.378 410.997 168.791 408.637 156.206C408.505 155.502 408.278 154.816 408.076 154.202C407.987 153.935 407.904 153.682 407.834 153.447H372.239L364.66 187.526C360.579 205.879 356.508 224.186 352.431 242.521H424.717C424.649 242.066 424.593 241.664 424.541 241.297Z" fill="black"/>
</svg>
