<svg width="36" height="37" viewBox="0 0 36 37" fill="none" xmlns="http://www.w3.org/2000/svg">
<rect width="36" height="36" rx="7" fill="url(#paint0_linear_208582_16573)"/>
<path d="M8.55 25.892C8.488 21.5107 8.519 17.4083 8.643 13.585C8.66367 12.9857 8.891 12.4897 9.325 12.097C9.77967 11.6837 10.3067 11.4873 10.906 11.508C11.5053 11.5287 12.0013 11.7663 12.394 12.221C12.8073 12.655 13.0037 13.1717 12.983 13.771C12.859 17.6357 12.828 21.6553 12.89 25.83C12.89 26.4293 12.6833 26.946 12.27 27.38C11.8567 27.7933 11.3503 28 10.751 28C10.1517 28.0207 9.635 27.8243 9.201 27.411C8.78767 26.9977 8.57067 26.4913 8.55 25.892ZM12.239 6.207C12.673 6.62033 12.89 7.14733 12.89 7.788C12.89 8.408 12.673 8.935 12.239 9.369C11.805 9.803 11.278 10.02 10.658 10.02C10.038 10.02 9.511 9.803 9.077 9.369C8.643 8.935 8.426 8.408 8.426 7.788C8.426 7.14733 8.643 6.61 9.077 6.176C9.511 5.742 10.038 5.525 10.658 5.525C11.278 5.525 11.805 5.75233 12.239 6.207ZM28.9206 26.047C28.9 26.605 28.683 27.0803 28.2696 27.473C27.8563 27.8657 27.3706 28.0517 26.8126 28.031C26.2546 28.0103 25.7793 27.7933 25.3866 27.38C24.994 26.9667 24.808 26.481 24.8286 25.923C24.8286 25.6957 24.8493 25.0137 24.8906 23.877C24.9526 22.7403 24.9836 21.862 24.9836 21.242C25.0043 20.622 24.9836 19.909 24.9216 19.103C24.8596 18.2763 24.746 17.615 24.5806 17.119C24.4566 16.7263 24.2086 16.406 23.8366 16.158C23.4646 15.8893 22.9996 15.7343 22.4416 15.693C21.863 15.631 21.3256 15.7033 20.8296 15.91C20.3543 16.096 20.003 16.3647 19.7756 16.716C19.693 16.9847 19.6413 17.1707 19.6206 17.274C19.6206 17.3567 19.6206 17.491 19.6206 17.677C19.6206 18.4003 19.631 19.7023 19.6516 21.583C19.6723 23.443 19.6826 24.8587 19.6826 25.83C19.6826 26.4293 19.4656 26.946 19.0316 27.38C18.6183 27.7933 18.112 28 17.5126 28C16.9133 28 16.3966 27.7933 15.9626 27.38C15.5493 26.946 15.3426 26.4293 15.3426 25.83C15.3426 24.962 15.322 23.1847 15.2806 20.498C15.26 17.8113 15.1773 15.755 15.0326 14.329C14.9293 13.585 15.074 12.996 15.4666 12.562C15.8593 12.1073 16.3656 11.88 16.9856 11.88C18.1016 11.942 18.7526 12.4793 18.9386 13.492C19.8893 12.2933 21.2016 11.663 22.8756 11.601C24.343 11.6217 25.5416 12.0247 26.4716 12.81C27.4016 13.5747 28.0733 14.5977 28.4866 15.879C28.714 16.5817 28.869 17.4703 28.9516 18.545C29.055 19.6197 29.0963 20.529 29.0756 21.273C29.0756 21.9963 29.0446 22.9677 28.9826 24.187C28.9413 25.4063 28.9206 26.0263 28.9206 26.047Z" fill="white"/>
<defs>
<linearGradient id="paint0_linear_208582_16573" x1="18" y1="0" x2="18" y2="36" gradientUnits="userSpaceOnUse">
<stop stop-color="#507CC7"/>
<stop offset="1" stop-color="#234A96"/>
</linearGradient>
</defs>
</svg>
