<svg width="88" height="35" viewBox="0 0 88 35" fill="none" xmlns="http://www.w3.org/2000/svg">
<circle cx="9.5" cy="22" r="9.5" fill="#92CBAD"/>
<path d="M9.578 29.18C8.294 29.18 7.112 28.88 6.032 28.28C4.952 27.668 4.1 26.828 3.476 25.76C2.852 24.68 2.54 23.48 2.54 22.16C2.54 20.768 2.852 19.538 3.476 18.47C4.1 17.402 4.94 16.58 5.996 16.004C7.052 15.416 8.21 15.122 9.47 15.122C10.682 15.122 11.702 15.338 12.53 15.77C13.37 16.19 14.162 16.784 14.906 17.552C14.93 17.576 14.966 17.588 15.014 17.588C15.086 17.588 15.212 17.534 15.392 17.426L15.608 17.696L13.124 19.658L12.908 19.388C12.98 19.34 13.034 19.28 13.07 19.208C13.118 19.124 13.118 19.064 13.07 19.028C12.566 18.536 12.038 18.164 11.486 17.912C10.946 17.648 10.286 17.516 9.506 17.516C8.69 17.516 7.94 17.72 7.256 18.128C6.572 18.524 6.032 19.076 5.636 19.784C5.24 20.492 5.042 21.284 5.042 22.16C5.042 23 5.252 23.768 5.672 24.464C6.092 25.148 6.65 25.688 7.346 26.084C8.042 26.48 8.786 26.678 9.578 26.678C10.322 26.678 10.958 26.552 11.486 26.3C12.014 26.036 12.512 25.646 12.98 25.13L13.016 25.058C13.016 24.998 12.986 24.932 12.926 24.86C12.878 24.776 12.824 24.716 12.764 24.68L12.998 24.428L15.68 26.678L15.464 26.948C15.392 26.888 15.302 26.834 15.194 26.786C15.086 26.738 15.014 26.738 14.978 26.786C14.222 27.602 13.43 28.208 12.602 28.604C11.774 28.988 10.766 29.18 9.578 29.18Z" fill="white"/>
<path d="M29.602 26.48V29.36H29.26C29.26 29.276 29.242 29.192 29.206 29.108C29.17 29.024 29.122 28.982 29.062 28.982H19.9V28.64C19.984 28.64 20.068 28.622 20.152 28.586C20.248 28.55 20.296 28.502 20.296 28.442V16.022C20.296 15.962 20.248 15.914 20.152 15.878C20.068 15.842 19.984 15.824 19.9 15.824V15.482H28.594C28.654 15.482 28.702 15.44 28.738 15.356C28.774 15.272 28.792 15.188 28.792 15.104H29.134V17.984H28.792C28.792 17.9 28.774 17.816 28.738 17.732C28.702 17.648 28.654 17.606 28.594 17.606H22.618V20.774H27.712C27.772 20.774 27.82 20.732 27.856 20.648C27.892 20.564 27.91 20.48 27.91 20.396H28.252V23.276H27.91C27.91 23.192 27.892 23.108 27.856 23.024C27.82 22.94 27.772 22.898 27.712 22.898H22.618V26.858H29.062C29.122 26.858 29.17 26.816 29.206 26.732C29.242 26.648 29.26 26.564 29.26 26.48H29.602ZM37.7088 29.288C36.3168 29.288 35.0688 28.97 33.9648 28.334C32.8728 27.686 32.0208 26.834 31.4088 25.778C30.8088 24.71 30.5088 23.582 30.5088 22.394C30.5088 21.194 30.7968 20.042 31.3728 18.938C31.9488 17.822 32.7828 16.916 33.8748 16.22C34.9668 15.524 36.2448 15.176 37.7088 15.176C39.1368 15.176 40.3908 15.506 41.4708 16.166C42.5508 16.826 43.3788 17.708 43.9548 18.812C44.5308 19.904 44.8188 21.098 44.8188 22.394C44.8188 23.546 44.5308 24.656 43.9548 25.724C43.3908 26.78 42.5688 27.638 41.4888 28.298C40.4088 28.958 39.1488 29.288 37.7088 29.288ZM37.7268 26.912C38.6268 26.912 39.4308 26.726 40.1387 26.354C40.8587 25.97 41.4168 25.436 41.8128 24.752C42.2208 24.056 42.4248 23.27 42.4248 22.394C42.4248 21.47 42.2328 20.642 41.8488 19.91C41.4648 19.178 40.9128 18.602 40.1928 18.182C39.4728 17.75 38.6208 17.534 37.6368 17.534C36.7368 17.534 35.9328 17.75 35.2248 18.182C34.5288 18.602 33.9828 19.184 33.5868 19.928C33.1908 20.672 32.9928 21.494 32.9928 22.394C32.9928 23.33 33.2208 24.14 33.6768 24.824C34.1448 25.508 34.7388 26.03 35.4588 26.39C36.1908 26.738 36.9468 26.912 37.7268 26.912ZM49.6872 29.27C49.0752 29.27 48.4812 29.144 47.9052 28.892C47.3412 28.64 46.7712 28.28 46.1952 27.812C46.1712 27.788 46.1412 27.776 46.1052 27.776C46.0092 27.776 45.9072 27.83 45.7992 27.938L45.5472 27.722L47.3472 25.67L47.5992 25.904C47.5512 25.964 47.5092 26.036 47.4732 26.12C47.4492 26.204 47.4612 26.27 47.5092 26.318C47.9052 26.678 48.2712 26.948 48.6072 27.128C48.9552 27.296 49.3152 27.38 49.6872 27.38C50.6112 27.38 51.0732 27.074 51.0732 26.462C51.0732 26.186 50.9292 25.976 50.6412 25.832C50.3652 25.676 49.8972 25.508 49.2372 25.328C48.3852 25.1 47.7672 24.806 47.3832 24.446C46.9992 24.074 46.8072 23.57 46.8072 22.934C46.8072 22.178 47.0532 21.566 47.5452 21.098C48.0372 20.618 48.7092 20.378 49.5612 20.378C49.9932 20.378 50.3832 20.444 50.7312 20.576C51.0792 20.708 51.4992 20.942 51.9912 21.278C52.0032 21.29 52.0272 21.296 52.0632 21.296C52.1232 21.296 52.1832 21.278 52.2432 21.242C52.3032 21.206 52.3452 21.17 52.3692 21.134L52.6392 21.368L51.0192 23.204L50.7672 22.988C50.8152 22.94 50.8452 22.88 50.8572 22.808C50.8812 22.724 50.8692 22.658 50.8212 22.61C50.6052 22.442 50.3952 22.316 50.1912 22.232C49.9992 22.148 49.7832 22.106 49.5432 22.106C49.2912 22.106 49.0932 22.154 48.9492 22.25C48.8052 22.346 48.7332 22.49 48.7332 22.682C48.7332 22.838 48.7752 22.964 48.8592 23.06C48.9432 23.156 49.0932 23.252 49.3092 23.348C49.5372 23.444 49.8792 23.564 50.3352 23.708C51.1752 23.96 51.8352 24.314 52.3152 24.77C52.7952 25.214 53.0352 25.766 53.0352 26.426C53.0352 27.398 52.7292 28.118 52.1172 28.586C51.5052 29.042 50.6952 29.27 49.6872 29.27ZM59.1403 20.36V23.096H58.7983C58.7983 23.012 58.7803 22.934 58.7443 22.862C58.7083 22.778 58.6603 22.736 58.6003 22.736H57.4303V28.46C57.4303 28.52 57.4723 28.568 57.5563 28.604C57.6403 28.64 57.7243 28.658 57.8083 28.658V29H54.8743V28.658C54.9583 28.658 55.0423 28.64 55.1263 28.604C55.2103 28.568 55.2523 28.52 55.2523 28.46V22.736H54.3883C54.3283 22.736 54.2803 22.778 54.2443 22.862C54.2083 22.934 54.1903 23.012 54.1903 23.096H53.8483V20.36H54.1903C54.1903 20.444 54.2083 20.528 54.2443 20.612C54.2803 20.684 54.3283 20.72 54.3883 20.72H55.2523V18.614C55.2523 18.554 55.2103 18.506 55.1263 18.47C55.0423 18.434 54.9583 18.416 54.8743 18.416V18.074H57.8083V18.416C57.7243 18.416 57.6403 18.434 57.5563 18.47C57.4723 18.506 57.4303 18.554 57.4303 18.614V20.72H58.6003C58.6603 20.72 58.7083 20.684 58.7443 20.612C58.7803 20.528 58.7983 20.444 58.7983 20.36H59.1403ZM64.63 29.216C63.742 29.216 62.956 29.03 62.272 28.658C61.6 28.274 61.072 27.752 60.688 27.092C60.316 26.432 60.13 25.688 60.13 24.86C60.13 24.044 60.316 23.3 60.688 22.628C61.072 21.956 61.606 21.428 62.29 21.044C62.974 20.648 63.754 20.45 64.63 20.45C65.47 20.45 66.232 20.642 66.916 21.026C67.6 21.398 68.14 21.92 68.536 22.592C68.932 23.252 69.13 24.008 69.13 24.86C69.13 25.604 68.95 26.312 68.59 26.984C68.242 27.644 67.726 28.184 67.042 28.604C66.358 29.012 65.554 29.216 64.63 29.216ZM64.63 27.146C65.338 27.146 65.908 26.942 66.34 26.534C66.784 26.114 67.006 25.574 67.006 24.914C67.006 24.23 66.784 23.666 66.34 23.222C65.908 22.778 65.338 22.556 64.63 22.556C63.97 22.556 63.418 22.778 62.974 23.222C62.53 23.654 62.308 24.2 62.308 24.86C62.308 25.556 62.53 26.114 62.974 26.534C63.418 26.942 63.97 27.146 64.63 27.146ZM76.1376 20.18V23.078H75.7956C75.7956 22.994 75.7776 22.898 75.7416 22.79C75.7056 22.682 75.6576 22.622 75.5976 22.61H75.4716C75.0996 22.61 74.7216 22.718 74.3376 22.934C73.9656 23.138 73.6536 23.414 73.4016 23.762C73.1616 24.098 73.0416 24.458 73.0416 24.842V28.46C73.0416 28.52 73.0836 28.568 73.1676 28.604C73.2636 28.64 73.3536 28.658 73.4376 28.658V29H70.4136V28.658C70.4976 28.658 70.5816 28.64 70.6656 28.604C70.7616 28.568 70.8096 28.52 70.8096 28.46V21.26C70.8096 21.2 70.7616 21.152 70.6656 21.116C70.5816 21.08 70.4976 21.062 70.4136 21.062V20.72H73.0416V21.494C73.3656 21.194 73.7556 20.954 74.2116 20.774C74.6676 20.594 75.1236 20.504 75.5796 20.504H75.5976H75.6156C75.6756 20.504 75.7176 20.468 75.7416 20.396C75.7776 20.324 75.7956 20.252 75.7956 20.18H76.1376ZM87.0662 21.062C86.8142 21.062 86.6582 21.11 86.5982 21.206L80.2982 33.608C80.2862 33.62 80.2802 33.638 80.2802 33.662C80.2802 33.734 80.3222 33.794 80.4062 33.842C80.4902 33.89 80.5982 33.914 80.7302 33.914V34.256H77.3462V33.914C77.5982 33.914 77.7542 33.866 77.8142 33.77L80.7482 27.992L77.0582 21.188C77.0102 21.104 76.8542 21.062 76.5902 21.062V20.72H79.9202V21.062C79.7762 21.062 79.6862 21.092 79.6502 21.152C79.6262 21.212 79.6382 21.278 79.6862 21.35L81.9722 25.58L84.1142 21.368C84.1262 21.356 84.1322 21.338 84.1322 21.314C84.1322 21.242 84.0902 21.182 84.0062 21.134C83.9222 21.086 83.8142 21.062 83.6822 21.062V20.72H87.0662V21.062Z" fill="#92CBAD"/>
</svg>
