<svg width="353" height="102" viewBox="0 0 353 102" fill="none" xmlns="http://www.w3.org/2000/svg">
<circle cx="40" cy="54" r="40" fill="#92CBAD"/>
<path d="M128.23 71.2V82.4H126.9C126.9 82.0733 126.83 81.7467 126.69 81.42C126.55 81.0933 126.363 80.93 126.13 80.93H90.5V79.6C90.8267 79.6 91.1533 79.53 91.48 79.39C91.8533 79.25 92.04 79.0633 92.04 78.83V30.53C92.04 30.2967 91.8533 30.11 91.48 29.97C91.1533 29.83 90.8267 29.76 90.5 29.76V28.43H124.31C124.543 28.43 124.73 28.2667 124.87 27.94C125.01 27.6133 125.08 27.2867 125.08 26.96H126.41V38.16H125.08C125.08 37.8333 125.01 37.5067 124.87 37.18C124.73 36.8533 124.543 36.69 124.31 36.69H101.07V49.01H120.88C121.113 49.01 121.3 48.8467 121.44 48.52C121.58 48.1933 121.65 47.8667 121.65 47.54H122.98V58.74H121.65C121.65 58.4133 121.58 58.0867 121.44 57.76C121.3 57.4333 121.113 57.27 120.88 57.27H101.07V72.67H126.13C126.363 72.67 126.55 72.5067 126.69 72.18C126.83 71.8533 126.9 71.5267 126.9 71.2H128.23ZM159.756 82.12C154.343 82.12 149.49 80.8833 145.196 78.41C140.95 75.89 137.636 72.5767 135.256 68.47C132.923 64.3167 131.756 59.93 131.756 55.31C131.756 50.6433 132.876 46.1633 135.116 41.87C137.356 37.53 140.6 34.0067 144.846 31.3C149.093 28.5933 154.063 27.24 159.756 27.24C165.31 27.24 170.186 28.5233 174.386 31.09C178.586 33.6567 181.806 37.0867 184.046 41.38C186.286 45.6267 187.406 50.27 187.406 55.31C187.406 59.79 186.286 64.1067 184.046 68.26C181.853 72.3667 178.656 75.7033 174.456 78.27C170.256 80.8367 165.356 82.12 159.756 82.12ZM159.826 72.88C163.326 72.88 166.453 72.1567 169.206 70.71C172.006 69.2167 174.176 67.14 175.716 64.48C177.303 61.7733 178.096 58.7167 178.096 55.31C178.096 51.7167 177.35 48.4967 175.856 45.65C174.363 42.8033 172.216 40.5633 169.416 38.93C166.616 37.25 163.303 36.41 159.476 36.41C155.976 36.41 152.85 37.25 150.096 38.93C147.39 40.5633 145.266 42.8267 143.726 45.72C142.186 48.6133 141.416 51.81 141.416 55.31C141.416 58.95 142.303 62.1 144.076 64.76C145.896 67.42 148.206 69.45 151.006 70.85C153.853 72.2033 156.793 72.88 159.826 72.88ZM206.339 82.05C203.959 82.05 201.649 81.56 199.409 80.58C197.216 79.6 194.999 78.2 192.759 76.38C192.666 76.2867 192.549 76.24 192.409 76.24C192.036 76.24 191.639 76.45 191.219 76.87L190.239 76.03L197.239 68.05L198.219 68.96C198.032 69.1933 197.869 69.4733 197.729 69.8C197.636 70.1267 197.682 70.3833 197.869 70.57C199.409 71.97 200.832 73.02 202.139 73.72C203.492 74.3733 204.892 74.7 206.339 74.7C209.932 74.7 211.729 73.51 211.729 71.13C211.729 70.0567 211.169 69.24 210.049 68.68C208.976 68.0733 207.156 67.42 204.589 66.72C201.276 65.8333 198.872 64.69 197.379 63.29C195.886 61.8433 195.139 59.8833 195.139 57.41C195.139 54.47 196.096 52.09 198.009 50.27C199.922 48.4033 202.536 47.47 205.849 47.47C207.529 47.47 209.046 47.7267 210.399 48.24C211.752 48.7533 213.386 49.6633 215.299 50.97C215.346 51.0167 215.439 51.04 215.579 51.04C215.812 51.04 216.046 50.97 216.279 50.83C216.512 50.69 216.676 50.55 216.769 50.41L217.819 51.32L211.519 58.46L210.539 57.62C210.726 57.4333 210.842 57.2 210.889 56.92C210.982 56.5933 210.936 56.3367 210.749 56.15C209.909 55.4967 209.092 55.0067 208.299 54.68C207.552 54.3533 206.712 54.19 205.779 54.19C204.799 54.19 204.029 54.3767 203.469 54.75C202.909 55.1233 202.629 55.6833 202.629 56.43C202.629 57.0367 202.792 57.5267 203.119 57.9C203.446 58.2733 204.029 58.6467 204.869 59.02C205.756 59.3933 207.086 59.86 208.859 60.42C212.126 61.4 214.692 62.7767 216.559 64.55C218.426 66.2767 219.359 68.4233 219.359 70.99C219.359 74.77 218.169 77.57 215.789 79.39C213.409 81.1633 210.259 82.05 206.339 82.05ZM243.101 47.4V58.04H241.771C241.771 57.7133 241.701 57.41 241.561 57.13C241.421 56.8033 241.234 56.64 241.001 56.64H236.451V78.9C236.451 79.1333 236.614 79.32 236.941 79.46C237.268 79.6 237.594 79.67 237.921 79.67V81H226.511V79.67C226.838 79.67 227.164 79.6 227.491 79.46C227.818 79.32 227.981 79.1333 227.981 78.9V56.64H224.621C224.388 56.64 224.201 56.8033 224.061 57.13C223.921 57.41 223.851 57.7133 223.851 58.04H222.521V47.4H223.851C223.851 47.7267 223.921 48.0533 224.061 48.38C224.201 48.66 224.388 48.8 224.621 48.8H227.981V40.61C227.981 40.3767 227.818 40.19 227.491 40.05C227.164 39.91 226.838 39.84 226.511 39.84V38.51H237.921V39.84C237.594 39.84 237.268 39.91 236.941 40.05C236.614 40.19 236.451 40.3767 236.451 40.61V48.8H241.001C241.234 48.8 241.421 48.66 241.561 48.38C241.701 48.0533 241.771 47.7267 241.771 47.4H243.101ZM264.45 81.84C260.997 81.84 257.94 81.1167 255.28 79.67C252.667 78.1767 250.613 76.1467 249.12 73.58C247.673 71.0133 246.95 68.12 246.95 64.9C246.95 61.7267 247.673 58.8333 249.12 56.22C250.613 53.6067 252.69 51.5533 255.35 50.06C258.01 48.52 261.043 47.75 264.45 47.75C267.717 47.75 270.68 48.4967 273.34 49.99C276 51.4367 278.1 53.4667 279.64 56.08C281.18 58.6467 281.95 61.5867 281.95 64.9C281.95 67.7933 281.25 70.5467 279.85 73.16C278.497 75.7267 276.49 77.8267 273.83 79.46C271.17 81.0467 268.043 81.84 264.45 81.84ZM264.45 73.79C267.203 73.79 269.42 72.9967 271.1 71.41C272.827 69.7767 273.69 67.6767 273.69 65.11C273.69 62.45 272.827 60.2567 271.1 58.53C269.42 56.8033 267.203 55.94 264.45 55.94C261.883 55.94 259.737 56.8033 258.01 58.53C256.283 60.21 255.42 62.3333 255.42 64.9C255.42 67.6067 256.283 69.7767 258.01 71.41C259.737 72.9967 261.883 73.79 264.45 73.79ZM309.202 46.7V57.97H307.872C307.872 57.6433 307.802 57.27 307.662 56.85C307.522 56.43 307.335 56.1967 307.102 56.15H306.612C305.165 56.15 303.695 56.57 302.202 57.41C300.755 58.2033 299.542 59.2767 298.562 60.63C297.629 61.9367 297.162 63.3367 297.162 64.83V78.9C297.162 79.1333 297.325 79.32 297.652 79.46C298.025 79.6 298.375 79.67 298.702 79.67V81H286.942V79.67C287.269 79.67 287.595 79.6 287.922 79.46C288.295 79.32 288.482 79.1333 288.482 78.9V50.9C288.482 50.6667 288.295 50.48 287.922 50.34C287.595 50.2 287.269 50.13 286.942 50.13V48.8H297.162V51.81C298.422 50.6433 299.939 49.71 301.712 49.01C303.485 48.31 305.259 47.96 307.032 47.96H307.102H307.172C307.405 47.96 307.569 47.82 307.662 47.54C307.802 47.26 307.872 46.98 307.872 46.7H309.202ZM351.702 50.13C350.722 50.13 350.115 50.3167 349.882 50.69L325.382 98.92C325.335 98.9667 325.312 99.0367 325.312 99.13C325.312 99.41 325.475 99.6433 325.802 99.83C326.128 100.017 326.548 100.11 327.062 100.11V101.44H313.902V100.11C314.882 100.11 315.488 99.9233 315.722 99.55L327.132 77.08L312.782 50.62C312.595 50.2933 311.988 50.13 310.962 50.13V48.8H323.912V50.13C323.352 50.13 323.002 50.2467 322.862 50.48C322.768 50.7133 322.815 50.97 323.002 51.25L331.892 67.7L340.222 51.32C340.268 51.2733 340.292 51.2033 340.292 51.11C340.292 50.83 340.128 50.5967 339.802 50.41C339.475 50.2233 339.055 50.13 338.542 50.13V48.8H351.702V50.13Z" fill="white"/>
<path d="M41.47 81.7C36.4767 81.7 31.88 80.5333 27.68 78.2C23.48 75.82 20.1667 72.5533 17.74 68.4C15.3133 64.2 14.1 59.5333 14.1 54.4C14.1 48.9867 15.3133 44.2033 17.74 40.05C20.1667 35.8967 23.4333 32.7 27.54 30.46C31.6467 28.1733 36.15 27.03 41.05 27.03C45.7633 27.03 49.73 27.87 52.95 29.55C56.2167 31.1833 59.2967 33.4933 62.19 36.48C62.2833 36.5733 62.4233 36.62 62.61 36.62C62.89 36.62 63.38 36.41 64.08 35.99L64.92 37.04L55.26 44.67L54.42 43.62C54.7 43.4333 54.91 43.2 55.05 42.92C55.2367 42.5933 55.2367 42.36 55.05 42.22C53.09 40.3067 51.0367 38.86 48.89 37.88C46.79 36.8533 44.2233 36.34 41.19 36.34C38.0167 36.34 35.1 37.1333 32.44 38.72C29.78 40.26 27.68 42.4067 26.14 45.16C24.6 47.9133 23.83 50.9933 23.83 54.4C23.83 57.6667 24.6467 60.6533 26.28 63.36C27.9133 66.02 30.0833 68.12 32.79 69.66C35.4967 71.2 38.39 71.97 41.47 71.97C44.3633 71.97 46.8367 71.48 48.89 70.5C50.9433 69.4733 52.88 67.9567 54.7 65.95L54.84 65.67C54.84 65.4367 54.7233 65.18 54.49 64.9C54.3033 64.5733 54.0933 64.34 53.86 64.2L54.77 63.22L65.2 71.97L64.36 73.02C64.08 72.7867 63.73 72.5767 63.31 72.39C62.89 72.2033 62.61 72.2033 62.47 72.39C59.53 75.5633 56.45 77.92 53.23 79.46C50.01 80.9533 46.09 81.7 41.47 81.7Z" fill="white"/>
</svg>
