<svg width="484" height="146" viewBox="0 0 484 146" fill="none" xmlns="http://www.w3.org/2000/svg">
<ellipse cx="52.1354" cy="77.8802" rx="52.1354" ry="50.3226" fill="#92CBAD"/>
<path d="M53.1 117C45.9667 117 39.4 115.333 33.4 112C27.4 108.6 22.6667 103.933 19.2 98C15.7333 92 14 85.3333 14 78C14 70.2667 15.7333 63.4333 19.2 57.5C22.6667 51.5667 27.3333 47 33.2 43.8C39.0667 40.5333 45.5 38.9 52.5 38.9C59.2333 38.9 64.9 40.1 69.5 42.5C74.1667 44.8333 78.5667 48.1333 82.7 52.4C82.8333 52.5333 83.0333 52.6 83.3 52.6C83.7 52.6 84.4 52.3 85.4 51.7L86.6 53.2L72.8 64.1L71.6 62.6C72 62.3333 72.3 62 72.5 61.6C72.7667 61.1333 72.7667 60.8 72.5 60.6C69.7 57.8667 66.7667 55.8 63.7 54.4C60.7 52.9333 57.0333 52.2 52.7 52.2C48.1667 52.2 44 53.3333 40.2 55.6C36.4 57.8 33.4 60.8667 31.2 64.8C29 68.7333 27.9 73.1333 27.9 78C27.9 82.6667 29.0667 86.9333 31.4 90.8C33.7333 94.6 36.8333 97.6 40.7 99.8C44.5667 102 48.7 103.1 53.1 103.1C57.2333 103.1 60.7667 102.4 63.7 101C66.6333 99.5333 69.4 97.3667 72 94.5L72.2 94.1C72.2 93.7667 72.0333 93.4 71.7 93C71.4333 92.5333 71.1333 92.2 70.8 92L72.1 90.6L87 103.1L85.8 104.6C85.4 104.267 84.9 103.967 84.3 103.7C83.7 103.433 83.3 103.433 83.1 103.7C78.9 108.233 74.5 111.6 69.9 113.8C65.3 115.933 59.7 117 53.1 117Z" fill="white"/>
<path d="M162.9 102V118H161C161 117.533 160.9 117.067 160.7 116.6C160.5 116.133 160.233 115.9 159.9 115.9H109V114C109.467 114 109.933 113.9 110.4 113.7C110.933 113.5 111.2 113.233 111.2 112.9V43.9C111.2 43.5667 110.933 43.3 110.4 43.1C109.933 42.9 109.467 42.8 109 42.8V40.9H157.3C157.633 40.9 157.9 40.6667 158.1 40.2C158.3 39.7333 158.4 39.2667 158.4 38.8H160.3V54.8H158.4C158.4 54.3333 158.3 53.8667 158.1 53.4C157.9 52.9333 157.633 52.7 157.3 52.7H124.1V70.3H152.4C152.733 70.3 153 70.0667 153.2 69.6C153.4 69.1333 153.5 68.6667 153.5 68.2H155.4V84.2H153.5C153.5 83.7333 153.4 83.2667 153.2 82.8C153 82.3333 152.733 82.1 152.4 82.1H124.1V104.1H159.9C160.233 104.1 160.5 103.867 160.7 103.4C160.9 102.933 161 102.467 161 102H162.9ZM207.938 117.6C200.204 117.6 193.271 115.833 187.138 112.3C181.071 108.7 176.338 103.967 172.938 98.1C169.604 92.1667 167.938 85.9 167.938 79.3C167.938 72.6333 169.538 66.2333 172.738 60.1C175.938 53.9 180.571 48.8667 186.638 45C192.704 41.1333 199.804 39.2 207.938 39.2C215.871 39.2 222.838 41.0333 228.838 44.7C234.838 48.3667 239.438 53.2667 242.638 59.4C245.838 65.4667 247.438 72.1 247.438 79.3C247.438 85.7 245.838 91.8667 242.638 97.8C239.504 103.667 234.938 108.433 228.938 112.1C222.938 115.767 215.938 117.6 207.938 117.6ZM208.038 104.4C213.038 104.4 217.504 103.367 221.437 101.3C225.437 99.1667 228.538 96.2 230.738 92.4C233.004 88.5333 234.138 84.1667 234.138 79.3C234.138 74.1667 233.071 69.5667 230.938 65.5C228.804 61.4333 225.738 58.2333 221.738 55.9C217.738 53.5 213.004 52.3 207.538 52.3C202.538 52.3 198.071 53.5 194.138 55.9C190.271 58.2333 187.238 61.4667 185.038 65.6C182.838 69.7333 181.738 74.3 181.738 79.3C181.738 84.5 183.004 89 185.538 92.8C188.138 96.6 191.438 99.5 195.438 101.5C199.504 103.433 203.704 104.4 208.038 104.4ZM274.484 117.5C271.084 117.5 267.784 116.8 264.584 115.4C261.451 114 258.284 112 255.084 109.4C254.951 109.267 254.784 109.2 254.584 109.2C254.051 109.2 253.484 109.5 252.884 110.1L251.484 108.9L261.484 97.5L262.884 98.8C262.618 99.1333 262.384 99.5333 262.184 100C262.051 100.467 262.118 100.833 262.384 101.1C264.584 103.1 266.618 104.6 268.484 105.6C270.418 106.533 272.418 107 274.484 107C279.618 107 282.184 105.3 282.184 101.9C282.184 100.367 281.384 99.2 279.784 98.4C278.251 97.5333 275.651 96.6 271.984 95.6C267.251 94.3333 263.818 92.7 261.684 90.7C259.551 88.6333 258.484 85.8333 258.484 82.3C258.484 78.1 259.851 74.7 262.584 72.1C265.318 69.4333 269.051 68.1 273.784 68.1C276.184 68.1 278.351 68.4667 280.284 69.2C282.218 69.9333 284.551 71.2333 287.284 73.1C287.351 73.1667 287.484 73.2 287.684 73.2C288.018 73.2 288.351 73.1 288.684 72.9C289.018 72.7 289.251 72.5 289.384 72.3L290.884 73.6L281.884 83.8L280.484 82.6C280.751 82.3333 280.918 82 280.984 81.6C281.118 81.1333 281.051 80.7667 280.784 80.5C279.584 79.5667 278.418 78.8667 277.284 78.4C276.218 77.9333 275.018 77.7 273.684 77.7C272.284 77.7 271.184 77.9667 270.384 78.5C269.584 79.0333 269.184 79.8333 269.184 80.9C269.184 81.7667 269.418 82.4667 269.884 83C270.351 83.5333 271.184 84.0667 272.384 84.6C273.651 85.1333 275.551 85.8 278.084 86.6C282.751 88 286.418 89.9667 289.084 92.5C291.751 94.9667 293.084 98.0333 293.084 101.7C293.084 107.1 291.384 111.1 287.984 113.7C284.584 116.233 280.084 117.5 274.484 117.5ZM327.002 68V83.2H325.102C325.102 82.7333 325.002 82.3 324.802 81.9C324.602 81.4333 324.335 81.2 324.002 81.2H317.502V113C317.502 113.333 317.735 113.6 318.202 113.8C318.668 114 319.135 114.1 319.602 114.1V116H303.302V114.1C303.768 114.1 304.235 114 304.702 113.8C305.168 113.6 305.402 113.333 305.402 113V81.2H300.602C300.268 81.2 300.002 81.4333 299.802 81.9C299.602 82.3 299.502 82.7333 299.502 83.2H297.602V68H299.502C299.502 68.4667 299.602 68.9333 299.802 69.4C300.002 69.8 300.268 70 300.602 70H305.402V58.3C305.402 57.9667 305.168 57.7 304.702 57.5C304.235 57.3 303.768 57.2 303.302 57.2V55.3H319.602V57.2C319.135 57.2 318.668 57.3 318.202 57.5C317.735 57.7 317.502 57.9667 317.502 58.3V70H324.002C324.335 70 324.602 69.8 324.802 69.4C325.002 68.9333 325.102 68.4667 325.102 68H327.002ZM357.5 117.2C352.567 117.2 348.2 116.167 344.4 114.1C340.667 111.967 337.733 109.067 335.6 105.4C333.533 101.733 332.5 97.6 332.5 93C332.5 88.4667 333.533 84.3333 335.6 80.6C337.733 76.8667 340.7 73.9333 344.5 71.8C348.3 69.6 352.633 68.5 357.5 68.5C362.167 68.5 366.4 69.5667 370.2 71.7C374 73.7667 377 76.6667 379.2 80.4C381.4 84.0667 382.5 88.2667 382.5 93C382.5 97.1333 381.5 101.067 379.5 104.8C377.567 108.467 374.7 111.467 370.9 113.8C367.1 116.067 362.633 117.2 357.5 117.2ZM357.5 105.7C361.433 105.7 364.6 104.567 367 102.3C369.467 99.9667 370.7 96.9667 370.7 93.3C370.7 89.5 369.467 86.3667 367 83.9C364.6 81.4333 361.433 80.2 357.5 80.2C353.833 80.2 350.767 81.4333 348.3 83.9C345.833 86.3 344.6 89.3333 344.6 93C344.6 96.8667 345.833 99.9667 348.3 102.3C350.767 104.567 353.833 105.7 357.5 105.7ZM421.431 67V83.1H419.531C419.531 82.6333 419.431 82.1 419.231 81.5C419.031 80.9 418.765 80.5667 418.431 80.5H417.731C415.665 80.5 413.565 81.1 411.431 82.3C409.365 83.4333 407.631 84.9667 406.231 86.9C404.898 88.7667 404.231 90.7667 404.231 92.9V113C404.231 113.333 404.465 113.6 404.931 113.8C405.465 114 405.965 114.1 406.431 114.1V116H389.631V114.1C390.098 114.1 390.565 114 391.031 113.8C391.565 113.6 391.831 113.333 391.831 113V73C391.831 72.6667 391.565 72.4 391.031 72.2C390.565 72 390.098 71.9 389.631 71.9V70H404.231V74.3C406.031 72.6333 408.198 71.3 410.731 70.3C413.265 69.3 415.798 68.8 418.331 68.8H418.431H418.531C418.865 68.8 419.098 68.6 419.231 68.2C419.431 67.8 419.531 67.4 419.531 67H421.431ZM482.145 71.9C480.745 71.9 479.879 72.1667 479.545 72.7L444.545 141.6C444.479 141.667 444.445 141.767 444.445 141.9C444.445 142.3 444.679 142.633 445.145 142.9C445.612 143.167 446.212 143.3 446.945 143.3V145.2H428.145V143.3C429.545 143.3 430.412 143.033 430.745 142.5L447.045 110.4L426.545 72.6C426.279 72.1333 425.412 71.9 423.945 71.9V70H442.445V71.9C441.645 71.9 441.145 72.0667 440.945 72.4C440.812 72.7333 440.879 73.1 441.145 73.5L453.845 97L465.745 73.6C465.812 73.5333 465.845 73.4333 465.845 73.3C465.845 72.9 465.612 72.5667 465.145 72.3C464.679 72.0333 464.079 71.9 463.345 71.9V70H482.145V71.9Z" fill="white"/>
</svg>
