<svg width="99" height="29" viewBox="0 0 99 29" fill="none" xmlns="http://www.w3.org/2000/svg">
<ellipse cx="11.5" cy="15" rx="11.5" ry="11" fill="#92CBAD"/>
<path d="M11.42 23.2C9.99333 23.2 8.68 22.8667 7.48 22.2C6.28 21.52 5.33333 20.5867 4.64 19.4C3.94667 18.2 3.6 16.8667 3.6 15.4C3.6 13.8533 3.94667 12.4867 4.64 11.3C5.33333 10.1133 6.26667 9.2 7.44 8.56C8.61333 7.90667 9.9 7.58 11.3 7.58C12.6467 7.58 13.78 7.82 14.7 8.3C15.6333 8.76667 16.5133 9.42667 17.34 10.28C17.3667 10.3067 17.4067 10.32 17.46 10.32C17.54 10.32 17.68 10.26 17.88 10.14L18.12 10.44L15.36 12.62L15.12 12.32C15.2 12.2667 15.26 12.2 15.3 12.12C15.3533 12.0267 15.3533 11.96 15.3 11.92C14.74 11.3733 14.1533 10.96 13.54 10.68C12.94 10.3867 12.2067 10.24 11.34 10.24C10.4333 10.24 9.6 10.4667 8.84 10.92C8.08 11.36 7.48 11.9733 7.04 12.76C6.6 13.5467 6.38 14.4267 6.38 15.4C6.38 16.3333 6.61333 17.1867 7.08 17.96C7.54667 18.72 8.16667 19.32 8.94 19.76C9.71333 20.2 10.54 20.42 11.42 20.42C12.2467 20.42 12.9533 20.28 13.54 20C14.1267 19.7067 14.68 19.2733 15.2 18.7L15.24 18.62C15.24 18.5533 15.2067 18.48 15.14 18.4C15.0867 18.3067 15.0267 18.24 14.96 18.2L15.22 17.92L18.2 20.42L17.96 20.72C17.88 20.6533 17.78 20.5933 17.66 20.54C17.54 20.4867 17.46 20.4867 17.42 20.54C16.58 21.4467 15.7 22.12 14.78 22.56C13.86 22.9867 12.74 23.2 11.42 23.2Z" fill="white"/>
<path d="M34.78 20.2V23.4H34.4C34.4 23.3067 34.38 23.2133 34.34 23.12C34.3 23.0267 34.2467 22.98 34.18 22.98H24V22.6C24.0933 22.6 24.1867 22.58 24.28 22.54C24.3867 22.5 24.44 22.4467 24.44 22.38V8.58C24.44 8.51333 24.3867 8.46 24.28 8.42C24.1867 8.38 24.0933 8.36 24 8.36V7.98H33.66C33.7267 7.98 33.78 7.93333 33.82 7.84C33.86 7.74667 33.88 7.65333 33.88 7.56H34.26V10.76H33.88C33.88 10.6667 33.86 10.5733 33.82 10.48C33.78 10.3867 33.7267 10.34 33.66 10.34H27.02V13.86H32.68C32.7467 13.86 32.8 13.8133 32.84 13.72C32.88 13.6267 32.9 13.5333 32.9 13.44H33.28V16.64H32.9C32.9 16.5467 32.88 16.4533 32.84 16.36C32.8 16.2667 32.7467 16.22 32.68 16.22H27.02V20.62H34.18C34.2467 20.62 34.3 20.5733 34.34 20.48C34.38 20.3867 34.4 20.2933 34.4 20.2H34.78ZM43.7875 23.32C42.2408 23.32 40.8542 22.9667 39.6275 22.26C38.4142 21.54 37.4675 20.5933 36.7875 19.42C36.1208 18.2333 35.7875 16.98 35.7875 15.66C35.7875 14.3267 36.1075 13.0467 36.7475 11.82C37.3875 10.58 38.3142 9.57333 39.5275 8.8C40.7408 8.02667 42.1608 7.64 43.7875 7.64C45.3742 7.64 46.7675 8.00667 47.9675 8.74C49.1675 9.47333 50.0875 10.4533 50.7275 11.68C51.3675 12.8933 51.6875 14.22 51.6875 15.66C51.6875 16.94 51.3675 18.1733 50.7275 19.36C50.1008 20.5333 49.1875 21.4867 47.9875 22.22C46.7875 22.9533 45.3875 23.32 43.7875 23.32ZM43.8075 20.68C44.8075 20.68 45.7008 20.4733 46.4875 20.06C47.2875 19.6333 47.9075 19.04 48.3475 18.28C48.8008 17.5067 49.0275 16.6333 49.0275 15.66C49.0275 14.6333 48.8142 13.7133 48.3875 12.9C47.9608 12.0867 47.3475 11.4467 46.5475 10.98C45.7475 10.5 44.8008 10.26 43.7075 10.26C42.7075 10.26 41.8142 10.5 41.0275 10.98C40.2542 11.4467 39.6475 12.0933 39.2075 12.92C38.7675 13.7467 38.5475 14.66 38.5475 15.66C38.5475 16.7 38.8008 17.6 39.3075 18.36C39.8275 19.12 40.4875 19.7 41.2875 20.1C42.1008 20.4867 42.9408 20.68 43.8075 20.68ZM57.0969 23.3C56.4169 23.3 55.7569 23.16 55.1169 22.88C54.4902 22.6 53.8569 22.2 53.2169 21.68C53.1902 21.6533 53.1569 21.64 53.1169 21.64C53.0102 21.64 52.8969 21.7 52.7769 21.82L52.4969 21.58L54.4969 19.3L54.7769 19.56C54.7235 19.6267 54.6769 19.7067 54.6369 19.8C54.6102 19.8933 54.6235 19.9667 54.6769 20.02C55.1169 20.42 55.5235 20.72 55.8969 20.92C56.2835 21.1067 56.6835 21.2 57.0969 21.2C58.1235 21.2 58.6369 20.86 58.6369 20.18C58.6369 19.8733 58.4769 19.64 58.1569 19.48C57.8502 19.3067 57.3302 19.12 56.5969 18.92C55.6502 18.6667 54.9635 18.34 54.5369 17.94C54.1102 17.5267 53.8969 16.9667 53.8969 16.26C53.8969 15.42 54.1702 14.74 54.7169 14.22C55.2635 13.6867 56.0102 13.42 56.9569 13.42C57.4369 13.42 57.8702 13.4933 58.2569 13.64C58.6435 13.7867 59.1102 14.0467 59.6569 14.42C59.6702 14.4333 59.6969 14.44 59.7369 14.44C59.8035 14.44 59.8702 14.42 59.9369 14.38C60.0035 14.34 60.0502 14.3 60.0769 14.26L60.3769 14.52L58.5769 16.56L58.2969 16.32C58.3502 16.2667 58.3835 16.2 58.3969 16.12C58.4235 16.0267 58.4102 15.9533 58.3569 15.9C58.1169 15.7133 57.8835 15.5733 57.6569 15.48C57.4435 15.3867 57.2035 15.34 56.9369 15.34C56.6569 15.34 56.4369 15.3933 56.2769 15.5C56.1169 15.6067 56.0369 15.7667 56.0369 15.98C56.0369 16.1533 56.0835 16.2933 56.1769 16.4C56.2702 16.5067 56.4369 16.6133 56.6769 16.72C56.9302 16.8267 57.3102 16.96 57.8169 17.12C58.7502 17.4 59.4835 17.7933 60.0169 18.3C60.5502 18.7933 60.8169 19.4067 60.8169 20.14C60.8169 21.22 60.4769 22.02 59.7969 22.54C59.1169 23.0467 58.2169 23.3 57.0969 23.3ZM67.6003 13.4V16.44H67.2203C67.2203 16.3467 67.2003 16.26 67.1603 16.18C67.1203 16.0867 67.067 16.04 67.0003 16.04H65.7003V22.4C65.7003 22.4667 65.747 22.52 65.8403 22.56C65.9336 22.6 66.027 22.62 66.1203 22.62V23H62.8603V22.62C62.9536 22.62 63.047 22.6 63.1403 22.56C63.2336 22.52 63.2803 22.4667 63.2803 22.4V16.04H62.3203C62.2536 16.04 62.2003 16.0867 62.1603 16.18C62.1203 16.26 62.1003 16.3467 62.1003 16.44H61.7203V13.4H62.1003C62.1003 13.4933 62.1203 13.5867 62.1603 13.68C62.2003 13.76 62.2536 13.8 62.3203 13.8H63.2803V11.46C63.2803 11.3933 63.2336 11.34 63.1403 11.3C63.047 11.26 62.9536 11.24 62.8603 11.24V10.86H66.1203V11.24C66.027 11.24 65.9336 11.26 65.8403 11.3C65.747 11.34 65.7003 11.3933 65.7003 11.46V13.8H67.0003C67.067 13.8 67.1203 13.76 67.1603 13.68C67.2003 13.5867 67.2203 13.4933 67.2203 13.4H67.6003ZM73.7 23.24C72.7133 23.24 71.84 23.0333 71.08 22.62C70.3333 22.1933 69.7467 21.6133 69.32 20.88C68.9067 20.1467 68.7 19.32 68.7 18.4C68.7 17.4933 68.9067 16.6667 69.32 15.92C69.7467 15.1733 70.34 14.5867 71.1 14.16C71.86 13.72 72.7267 13.5 73.7 13.5C74.6333 13.5 75.48 13.7133 76.24 14.14C77 14.5533 77.6 15.1333 78.04 15.88C78.48 16.6133 78.7 17.4533 78.7 18.4C78.7 19.2267 78.5 20.0133 78.1 20.76C77.7133 21.4933 77.14 22.0933 76.38 22.56C75.62 23.0133 74.7267 23.24 73.7 23.24ZM73.7 20.94C74.4867 20.94 75.12 20.7133 75.6 20.26C76.0933 19.7933 76.34 19.1933 76.34 18.46C76.34 17.7 76.0933 17.0733 75.6 16.58C75.12 16.0867 74.4867 15.84 73.7 15.84C72.9667 15.84 72.3533 16.0867 71.86 16.58C71.3667 17.06 71.12 17.6667 71.12 18.4C71.12 19.1733 71.3667 19.7933 71.86 20.26C72.3533 20.7133 72.9667 20.94 73.7 20.94ZM86.4863 13.2V16.42H86.1063C86.1063 16.3267 86.0863 16.22 86.0463 16.1C86.0063 15.98 85.9529 15.9133 85.8863 15.9H85.7463C85.3329 15.9 84.9129 16.02 84.4863 16.26C84.0729 16.4867 83.7263 16.7933 83.4463 17.18C83.1796 17.5533 83.0463 17.9533 83.0463 18.38V22.4C83.0463 22.4667 83.0929 22.52 83.1863 22.56C83.2929 22.6 83.3929 22.62 83.4863 22.62V23H80.1263V22.62C80.2196 22.62 80.3129 22.6 80.4063 22.56C80.5129 22.52 80.5663 22.4667 80.5663 22.4V14.4C80.5663 14.3333 80.5129 14.28 80.4063 14.24C80.3129 14.2 80.2196 14.18 80.1263 14.18V13.8H83.0463V14.66C83.4063 14.3267 83.8396 14.06 84.3463 13.86C84.8529 13.66 85.3596 13.56 85.8663 13.56H85.8863H85.9063C85.9729 13.56 86.0196 13.52 86.0463 13.44C86.0863 13.36 86.1063 13.28 86.1063 13.2H86.4863ZM98.6291 14.18C98.3491 14.18 98.1757 14.2333 98.1091 14.34L91.1091 28.12C91.0957 28.1333 91.0891 28.1533 91.0891 28.18C91.0891 28.26 91.1357 28.3267 91.2291 28.38C91.3224 28.4333 91.4424 28.46 91.5891 28.46V28.84H87.8291V28.46C88.1091 28.46 88.2824 28.4067 88.3491 28.3L91.6091 21.88L87.5091 14.32C87.4557 14.2267 87.2824 14.18 86.9891 14.18V13.8H90.6891V14.18C90.5291 14.18 90.4291 14.2133 90.3891 14.28C90.3624 14.3467 90.3757 14.42 90.4291 14.5L92.9691 19.2L95.3491 14.52C95.3624 14.5067 95.3691 14.4867 95.3691 14.46C95.3691 14.38 95.3224 14.3133 95.2291 14.26C95.1357 14.2067 95.0157 14.18 94.8691 14.18V13.8H98.6291V14.18Z" fill="white"/>
</svg>
