<svg width="121" height="38" viewBox="0 0 121 38" fill="none" xmlns="http://www.w3.org/2000/svg">
<circle cx="13.5" cy="19.5" r="13.5" fill="#92CBAD"/>
<path d="M13.525 29.25C11.7417 29.25 10.1 28.8333 8.6 28C7.1 27.15 5.91667 25.9833 5.05 24.5C4.18333 23 3.75 21.3333 3.75 19.5C3.75 17.5667 4.18333 15.8583 5.05 14.375C5.91667 12.8917 7.08333 11.75 8.55 10.95C10.0167 10.1333 11.625 9.725 13.375 9.725C15.0583 9.725 16.475 10.025 17.625 10.625C18.7917 11.2083 19.8917 12.0333 20.925 13.1C20.9583 13.1333 21.0083 13.15 21.075 13.15C21.175 13.15 21.35 13.075 21.6 12.925L21.9 13.3L18.45 16.025L18.15 15.65C18.25 15.5833 18.325 15.5 18.375 15.4C18.4417 15.2833 18.4417 15.2 18.375 15.15C17.675 14.4667 16.9417 13.95 16.175 13.6C15.425 13.2333 14.5083 13.05 13.425 13.05C12.2917 13.05 11.25 13.3333 10.3 13.9C9.35 14.45 8.6 15.2167 8.05 16.2C7.5 17.1833 7.225 18.2833 7.225 19.5C7.225 20.6667 7.51667 21.7333 8.1 22.7C8.68333 23.65 9.45833 24.4 10.425 24.95C11.3917 25.5 12.425 25.775 13.525 25.775C14.5583 25.775 15.4417 25.6 16.175 25.25C16.9083 24.8833 17.6 24.3417 18.25 23.625L18.3 23.525C18.3 23.4417 18.2583 23.35 18.175 23.25C18.1083 23.1333 18.0333 23.05 17.95 23L18.275 22.65L22 25.775L21.7 26.15C21.6 26.0667 21.475 25.9917 21.325 25.925C21.175 25.8583 21.075 25.8583 21.025 25.925C19.975 27.0583 18.875 27.9 17.725 28.45C16.575 28.9833 15.175 29.25 13.525 29.25Z" fill="white"/>
<path d="M40.725 26.5V30.5H40.25C40.25 30.3833 40.225 30.2667 40.175 30.15C40.125 30.0333 40.0583 29.975 39.975 29.975H27.25V29.5C27.3667 29.5 27.4833 29.475 27.6 29.425C27.7333 29.375 27.8 29.3083 27.8 29.225V11.975C27.8 11.8917 27.7333 11.825 27.6 11.775C27.4833 11.725 27.3667 11.7 27.25 11.7V11.225H39.325C39.4083 11.225 39.475 11.1667 39.525 11.05C39.575 10.9333 39.6 10.8167 39.6 10.7H40.075V14.7H39.6C39.6 14.5833 39.575 14.4667 39.525 14.35C39.475 14.2333 39.4083 14.175 39.325 14.175H31.025V18.575H38.1C38.1833 18.575 38.25 18.5167 38.3 18.4C38.35 18.2833 38.375 18.1667 38.375 18.05H38.85V22.05H38.375C38.375 21.9333 38.35 21.8167 38.3 21.7C38.25 21.5833 38.1833 21.525 38.1 21.525H31.025V27.025H39.975C40.0583 27.025 40.125 26.9667 40.175 26.85C40.225 26.7333 40.25 26.6167 40.25 26.5H40.725ZM51.9844 30.4C50.051 30.4 48.3177 29.9583 46.7844 29.075C45.2677 28.175 44.0844 26.9917 43.2344 25.525C42.401 24.0417 41.9844 22.475 41.9844 20.825C41.9844 19.1583 42.3844 17.5583 43.1844 16.025C43.9844 14.475 45.1427 13.2167 46.6594 12.25C48.176 11.2833 49.951 10.8 51.9844 10.8C53.9677 10.8 55.7094 11.2583 57.2094 12.175C58.7094 13.0917 59.8594 14.3167 60.6594 15.85C61.4594 17.3667 61.8594 19.025 61.8594 20.825C61.8594 22.425 61.4594 23.9667 60.6594 25.45C59.876 26.9167 58.7344 28.1083 57.2344 29.025C55.7344 29.9417 53.9844 30.4 51.9844 30.4ZM52.0094 27.1C53.2594 27.1 54.376 26.8417 55.3594 26.325C56.3594 25.7917 57.1344 25.05 57.6844 24.1C58.251 23.1333 58.5344 22.0417 58.5344 20.825C58.5344 19.5417 58.2677 18.3917 57.7344 17.375C57.201 16.3583 56.4344 15.5583 55.4344 14.975C54.4344 14.375 53.251 14.075 51.8844 14.075C50.6344 14.075 49.5177 14.375 48.5344 14.975C47.5677 15.5583 46.8094 16.3667 46.2594 17.4C45.7094 18.4333 45.4344 19.575 45.4344 20.825C45.4344 22.125 45.751 23.25 46.3844 24.2C47.0344 25.15 47.8594 25.875 48.8594 26.375C49.876 26.8583 50.926 27.1 52.0094 27.1ZM68.6211 30.375C67.7711 30.375 66.9461 30.2 66.1461 29.85C65.3628 29.5 64.5711 29 63.7711 28.35C63.7378 28.3167 63.6961 28.3 63.6461 28.3C63.5128 28.3 63.3711 28.375 63.2211 28.525L62.8711 28.225L65.3711 25.375L65.7211 25.7C65.6544 25.7833 65.5961 25.8833 65.5461 26C65.5128 26.1167 65.5294 26.2083 65.5961 26.275C66.1461 26.775 66.6544 27.15 67.1211 27.4C67.6044 27.6333 68.1044 27.75 68.6211 27.75C69.9044 27.75 70.5461 27.325 70.5461 26.475C70.5461 26.0917 70.3461 25.8 69.9461 25.6C69.5628 25.3833 68.9128 25.15 67.9961 24.9C66.8128 24.5833 65.9544 24.175 65.4211 23.675C64.8878 23.1583 64.6211 22.4583 64.6211 21.575C64.6211 20.525 64.9628 19.675 65.6461 19.025C66.3294 18.3583 67.2628 18.025 68.4461 18.025C69.0461 18.025 69.5878 18.1167 70.0711 18.3C70.5544 18.4833 71.1378 18.8083 71.8211 19.275C71.8378 19.2917 71.8711 19.3 71.9211 19.3C72.0044 19.3 72.0878 19.275 72.1711 19.225C72.2544 19.175 72.3128 19.125 72.3461 19.075L72.7211 19.4L70.4711 21.95L70.1211 21.65C70.1878 21.5833 70.2294 21.5 70.2461 21.4C70.2794 21.2833 70.2628 21.1917 70.1961 21.125C69.8961 20.8917 69.6044 20.7167 69.3211 20.6C69.0544 20.4833 68.7544 20.425 68.4211 20.425C68.0711 20.425 67.7961 20.4917 67.5961 20.625C67.3961 20.7583 67.2961 20.9583 67.2961 21.225C67.2961 21.4417 67.3544 21.6167 67.4711 21.75C67.5878 21.8833 67.7961 22.0167 68.0961 22.15C68.4128 22.2833 68.8878 22.45 69.5211 22.65C70.6878 23 71.6044 23.4917 72.2711 24.125C72.9378 24.7417 73.2711 25.5083 73.2711 26.425C73.2711 27.775 72.8461 28.775 71.9961 29.425C71.1461 30.0583 70.0211 30.375 68.6211 30.375ZM81.7504 18V21.8H81.2754C81.2754 21.6833 81.2504 21.575 81.2004 21.475C81.1504 21.3583 81.0837 21.3 81.0004 21.3H79.3754V29.25C79.3754 29.3333 79.4337 29.4 79.5504 29.45C79.6671 29.5 79.7837 29.525 79.9004 29.525V30H75.8254V29.525C75.9421 29.525 76.0587 29.5 76.1754 29.45C76.2921 29.4 76.3504 29.3333 76.3504 29.25V21.3H75.1504C75.0671 21.3 75.0004 21.3583 74.9504 21.475C74.9004 21.575 74.8754 21.6833 74.8754 21.8H74.4004V18H74.8754C74.8754 18.1167 74.9004 18.2333 74.9504 18.35C75.0004 18.45 75.0671 18.5 75.1504 18.5H76.3504V15.575C76.3504 15.4917 76.2921 15.425 76.1754 15.375C76.0587 15.325 75.9421 15.3 75.8254 15.3V14.825H79.9004V15.3C79.7837 15.3 79.6671 15.325 79.5504 15.375C79.4337 15.425 79.3754 15.4917 79.3754 15.575V18.5H81.0004C81.0837 18.5 81.1504 18.45 81.2004 18.35C81.2504 18.2333 81.2754 18.1167 81.2754 18H81.7504ZM89.375 30.3C88.1417 30.3 87.05 30.0417 86.1 29.525C85.1667 28.9917 84.4333 28.2667 83.9 27.35C83.3833 26.4333 83.125 25.4 83.125 24.25C83.125 23.1167 83.3833 22.0833 83.9 21.15C84.4333 20.2167 85.175 19.4833 86.125 18.95C87.075 18.4 88.1583 18.125 89.375 18.125C90.5417 18.125 91.6 18.3917 92.55 18.925C93.5 19.4417 94.25 20.1667 94.8 21.1C95.35 22.0167 95.625 23.0667 95.625 24.25C95.625 25.2833 95.375 26.2667 94.875 27.2C94.3917 28.1167 93.675 28.8667 92.725 29.45C91.775 30.0167 90.6583 30.3 89.375 30.3ZM89.375 27.425C90.3583 27.425 91.15 27.1417 91.75 26.575C92.3667 25.9917 92.675 25.2417 92.675 24.325C92.675 23.375 92.3667 22.5917 91.75 21.975C91.15 21.3583 90.3583 21.05 89.375 21.05C88.4583 21.05 87.6917 21.3583 87.075 21.975C86.4583 22.575 86.15 23.3333 86.15 24.25C86.15 25.2167 86.4583 25.9917 87.075 26.575C87.6917 27.1417 88.4583 27.425 89.375 27.425ZM105.358 17.75V21.775H104.883C104.883 21.6583 104.858 21.525 104.808 21.375C104.758 21.225 104.691 21.1417 104.608 21.125H104.433C103.916 21.125 103.391 21.275 102.858 21.575C102.341 21.8583 101.908 22.2417 101.558 22.725C101.224 23.1917 101.058 23.6917 101.058 24.225V29.25C101.058 29.3333 101.116 29.4 101.233 29.45C101.366 29.5 101.491 29.525 101.608 29.525V30H97.4078V29.525C97.5245 29.525 97.6411 29.5 97.7578 29.45C97.8911 29.4 97.9578 29.3333 97.9578 29.25V19.25C97.9578 19.1667 97.8911 19.1 97.7578 19.05C97.6411 19 97.5245 18.975 97.4078 18.975V18.5H101.058V19.575C101.508 19.1583 102.049 18.825 102.683 18.575C103.316 18.325 103.949 18.2 104.583 18.2H104.608H104.633C104.716 18.2 104.774 18.15 104.808 18.05C104.858 17.95 104.883 17.85 104.883 17.75H105.358ZM120.536 18.975C120.186 18.975 119.97 19.0417 119.886 19.175L111.136 36.4C111.12 36.4167 111.111 36.4417 111.111 36.475C111.111 36.575 111.17 36.6583 111.286 36.725C111.403 36.7917 111.553 36.825 111.736 36.825V37.3H107.036V36.825C107.386 36.825 107.603 36.7583 107.686 36.625L111.761 28.6L106.636 19.15C106.57 19.0333 106.353 18.975 105.986 18.975V18.5H110.611V18.975C110.411 18.975 110.286 19.0167 110.236 19.1C110.203 19.1833 110.22 19.275 110.286 19.375L113.461 25.25L116.436 19.4C116.453 19.3833 116.461 19.3583 116.461 19.325C116.461 19.225 116.403 19.1417 116.286 19.075C116.17 19.0083 116.02 18.975 115.836 18.975V18.5H120.536V18.975Z" fill="#92CBAD"/>
</svg>
