<svg width="155" height="44" viewBox="0 0 155 44" fill="none" xmlns="http://www.w3.org/2000/svg">
<ellipse cx="18.5843" cy="23.5955" rx="18.5416" ry="18.5144" fill="#92CBAD"/>
<path d="M19.6884 35.3C17.5484 35.3 15.5783 34.8 13.7783 33.8C11.9783 32.78 10.5583 31.38 9.51835 29.6C8.47835 27.8 7.95835 25.8 7.95835 23.6C7.95835 21.28 8.47835 19.23 9.51835 17.45C10.5583 15.67 11.9583 14.3 13.7184 13.34C15.4783 12.36 17.4083 11.87 19.5084 11.87C21.5284 11.87 23.2284 12.23 24.6084 12.95C26.0084 13.65 27.3284 14.64 28.5683 15.92C28.6084 15.96 28.6684 15.98 28.7484 15.98C28.8684 15.98 29.0784 15.89 29.3784 15.71L29.7384 16.16L25.5984 19.43L25.2383 18.98C25.3584 18.9 25.4484 18.8 25.5083 18.68C25.5884 18.54 25.5884 18.44 25.5083 18.38C24.6683 17.56 23.7883 16.94 22.8683 16.52C21.9684 16.08 20.8684 15.86 19.5684 15.86C18.2084 15.86 16.9584 16.2 15.8184 16.88C14.6784 17.54 13.7783 18.46 13.1183 19.64C12.4583 20.82 12.1284 22.14 12.1284 23.6C12.1284 25 12.4784 26.28 13.1783 27.44C13.8783 28.58 14.8083 29.48 15.9684 30.14C17.1284 30.8 18.3684 31.13 19.6884 31.13C20.9284 31.13 21.9883 30.92 22.8683 30.5C23.7484 30.06 24.5784 29.41 25.3584 28.55L25.4184 28.43C25.4184 28.33 25.3684 28.22 25.2684 28.1C25.1884 27.96 25.0984 27.86 24.9984 27.8L25.3883 27.38L29.8584 31.13L29.4984 31.58C29.3784 31.48 29.2284 31.39 29.0484 31.31C28.8684 31.23 28.7484 31.23 28.6884 31.31C27.4284 32.67 26.1084 33.68 24.7284 34.34C23.3484 34.98 21.6684 35.3 19.6884 35.3ZM56.076 30.8V35.6H55.506C55.506 35.46 55.476 35.32 55.416 35.18C55.356 35.04 55.276 34.97 55.176 34.97H39.906V34.4C40.046 34.4 40.186 34.37 40.326 34.31C40.486 34.25 40.566 34.17 40.566 34.07V13.37C40.566 13.27 40.486 13.19 40.326 13.13C40.186 13.07 40.046 13.04 39.906 13.04V12.47H54.396C54.496 12.47 54.576 12.4 54.636 12.26C54.696 12.12 54.726 11.98 54.726 11.84H55.296V16.64H54.726C54.726 16.5 54.696 16.36 54.636 16.22C54.576 16.08 54.496 16.01 54.396 16.01H44.436V21.29H52.926C53.026 21.29 53.106 21.22 53.166 21.08C53.226 20.94 53.256 20.8 53.256 20.66H53.826V25.46H53.256C53.256 25.32 53.226 25.18 53.166 25.04C53.106 24.9 53.026 24.83 52.926 24.83H44.436V31.43H55.176C55.276 31.43 55.356 31.36 55.416 31.22C55.476 31.08 55.506 30.94 55.506 30.8H56.076ZM69.5873 35.48C67.2673 35.48 65.1873 34.95 63.3473 33.89C61.5273 32.81 60.1073 31.39 59.0873 29.63C58.0873 27.85 57.5873 25.97 57.5873 23.99C57.5873 21.99 58.0673 20.07 59.0273 18.23C59.9873 16.37 61.3773 14.86 63.1973 13.7C65.0173 12.54 67.1473 11.96 69.5873 11.96C71.9673 11.96 74.0573 12.51 75.8573 13.61C77.6573 14.71 79.0373 16.18 79.9973 18.02C80.9573 19.84 81.4373 21.83 81.4373 23.99C81.4373 25.91 80.9573 27.76 79.9973 29.54C79.0573 31.3 77.6873 32.73 75.8873 33.83C74.0873 34.93 71.9873 35.48 69.5873 35.48ZM69.6173 31.52C71.1173 31.52 72.4573 31.21 73.6373 30.59C74.8373 29.95 75.7673 29.06 76.4273 27.92C77.1073 26.76 77.4473 25.45 77.4473 23.99C77.4473 22.45 77.1273 21.07 76.4873 19.85C75.8473 18.63 74.9273 17.67 73.7273 16.97C72.5273 16.25 71.1073 15.89 69.4673 15.89C67.9673 15.89 66.6273 16.25 65.4473 16.97C64.2873 17.67 63.3773 18.64 62.7173 19.88C62.0573 21.12 61.7273 22.49 61.7273 23.99C61.7273 25.55 62.1073 26.9 62.8673 28.04C63.6473 29.18 64.6373 30.05 65.8373 30.65C67.0573 31.23 68.3173 31.52 69.6173 31.52ZM89.5513 35.45C88.5313 35.45 87.5413 35.24 86.5813 34.82C85.6413 34.4 84.6913 33.8 83.7313 33.02C83.6913 32.98 83.6413 32.96 83.5813 32.96C83.4213 32.96 83.2513 33.05 83.0713 33.23L82.6513 32.87L85.6513 29.45L86.0713 29.84C85.9913 29.94 85.9213 30.06 85.8613 30.2C85.8213 30.34 85.8413 30.45 85.9213 30.53C86.5813 31.13 87.1913 31.58 87.7513 31.88C88.3313 32.16 88.9313 32.3 89.5513 32.3C91.0913 32.3 91.8613 31.79 91.8613 30.77C91.8613 30.31 91.6213 29.96 91.1413 29.72C90.6813 29.46 89.9013 29.18 88.8013 28.88C87.3813 28.5 86.3513 28.01 85.7113 27.41C85.0713 26.79 84.7513 25.95 84.7513 24.89C84.7513 23.63 85.1613 22.61 85.9813 21.83C86.8013 21.03 87.9213 20.63 89.3413 20.63C90.0613 20.63 90.7113 20.74 91.2913 20.96C91.8713 21.18 92.5713 21.57 93.3913 22.13C93.4113 22.15 93.4513 22.16 93.5113 22.16C93.6113 22.16 93.7113 22.13 93.8113 22.07C93.9113 22.01 93.9813 21.95 94.0213 21.89L94.4713 22.28L91.7713 25.34L91.3513 24.98C91.4313 24.9 91.4813 24.8 91.5013 24.68C91.5413 24.54 91.5213 24.43 91.4413 24.35C91.0813 24.07 90.7313 23.86 90.3913 23.72C90.0713 23.58 89.7113 23.51 89.3113 23.51C88.8913 23.51 88.5613 23.59 88.3213 23.75C88.0813 23.91 87.9613 24.15 87.9613 24.47C87.9613 24.73 88.0313 24.94 88.1713 25.1C88.3113 25.26 88.5613 25.42 88.9213 25.58C89.3013 25.74 89.8713 25.94 90.6313 26.18C92.0313 26.6 93.1313 27.19 93.9313 27.95C94.7313 28.69 95.1313 29.61 95.1313 30.71C95.1313 32.33 94.6213 33.53 93.6013 34.31C92.5813 35.07 91.2313 35.45 89.5513 35.45ZM105.306 20.6V25.16H104.736C104.736 25.02 104.706 24.89 104.646 24.77C104.586 24.63 104.506 24.56 104.406 24.56H102.456V34.1C102.456 34.2 102.526 34.28 102.666 34.34C102.806 34.4 102.946 34.43 103.086 34.43V35H98.1965V34.43C98.3365 34.43 98.4765 34.4 98.6165 34.34C98.7565 34.28 98.8265 34.2 98.8265 34.1V24.56H97.3865C97.2865 24.56 97.2065 24.63 97.1465 24.77C97.0865 24.89 97.0565 25.02 97.0565 25.16H96.4865V20.6H97.0565C97.0565 20.74 97.0865 20.88 97.1465 21.02C97.2065 21.14 97.2865 21.2 97.3865 21.2H98.8265V17.69C98.8265 17.59 98.7565 17.51 98.6165 17.45C98.4765 17.39 98.3365 17.36 98.1965 17.36V16.79H103.086V17.36C102.946 17.36 102.806 17.39 102.666 17.45C102.526 17.51 102.456 17.59 102.456 17.69V21.2H104.406C104.506 21.2 104.586 21.14 104.646 21.02C104.706 20.88 104.736 20.74 104.736 20.6H105.306ZM114.456 35.36C112.976 35.36 111.666 35.05 110.526 34.43C109.406 33.79 108.526 32.92 107.886 31.82C107.266 30.72 106.956 29.48 106.956 28.1C106.956 26.74 107.266 25.5 107.886 24.38C108.526 23.26 109.416 22.38 110.556 21.74C111.696 21.08 112.996 20.75 114.456 20.75C115.856 20.75 117.126 21.07 118.266 21.71C119.406 22.33 120.306 23.2 120.966 24.32C121.626 25.42 121.956 26.68 121.956 28.1C121.956 29.34 121.656 30.52 121.056 31.64C120.476 32.74 119.616 33.64 118.476 34.34C117.336 35.02 115.996 35.36 114.456 35.36ZM114.456 31.91C115.636 31.91 116.586 31.57 117.306 30.89C118.046 30.19 118.416 29.29 118.416 28.19C118.416 27.05 118.046 26.11 117.306 25.37C116.586 24.63 115.636 24.26 114.456 24.26C113.356 24.26 112.436 24.63 111.696 25.37C110.956 26.09 110.586 27 110.586 28.1C110.586 29.26 110.956 30.19 111.696 30.89C112.436 31.57 113.356 31.91 114.456 31.91ZM133.635 20.3V25.13H133.065C133.065 24.99 133.035 24.83 132.975 24.65C132.915 24.47 132.835 24.37 132.735 24.35H132.525C131.905 24.35 131.275 24.53 130.635 24.89C130.015 25.23 129.495 25.69 129.075 26.27C128.675 26.83 128.475 27.43 128.475 28.07V34.1C128.475 34.2 128.545 34.28 128.685 34.34C128.845 34.4 128.995 34.43 129.135 34.43V35H124.095V34.43C124.235 34.43 124.375 34.4 124.515 34.34C124.675 34.28 124.755 34.2 124.755 34.1V22.1C124.755 22 124.675 21.92 124.515 21.86C124.375 21.8 124.235 21.77 124.095 21.77V21.2H128.475V22.49C129.015 21.99 129.665 21.59 130.425 21.29C131.185 20.99 131.945 20.84 132.705 20.84H132.735H132.765C132.865 20.84 132.935 20.78 132.975 20.66C133.035 20.54 133.065 20.42 133.065 20.3H133.635ZM151.85 21.77C151.43 21.77 151.17 21.85 151.07 22.01L140.57 42.68C140.55 42.7 140.54 42.73 140.54 42.77C140.54 42.89 140.61 42.99 140.75 43.07C140.89 43.15 141.07 43.19 141.29 43.19V43.76H135.65V43.19C136.07 43.19 136.33 43.11 136.43 42.95L141.32 33.32L135.17 21.98C135.09 21.84 134.83 21.77 134.39 21.77V21.2H139.94V21.77C139.7 21.77 139.55 21.82 139.49 21.92C139.45 22.02 139.47 22.13 139.55 22.25L143.36 29.3L146.93 22.28C146.95 22.26 146.96 22.23 146.96 22.19C146.96 22.07 146.89 21.97 146.75 21.89C146.61 21.81 146.43 21.77 146.21 21.77V21.2H151.85V21.77Z" fill="white"/>
</svg>
