<svg width="98" height="29" viewBox="0 0 98 29" fill="none" xmlns="http://www.w3.org/2000/svg">
<circle cx="11" cy="15" r="11" fill="#92CBAD"/>
<path d="M11.42 23.2C9.99333 23.2 8.68 22.8667 7.48 22.2C6.28 21.52 5.33333 20.5867 4.64 19.4C3.94667 18.2 3.6 16.8667 3.6 15.4C3.6 13.8533 3.94667 12.4867 4.64 11.3C5.33333 10.1133 6.26667 9.2 7.44 8.56C8.61333 7.90667 9.9 7.58 11.3 7.58C12.6467 7.58 13.78 7.82 14.7 8.3C15.6333 8.76667 16.5133 9.42667 17.34 10.28C17.3667 10.3067 17.4067 10.32 17.46 10.32C17.54 10.32 17.68 10.26 17.88 10.14L18.12 10.44L15.36 12.62L15.12 12.32C15.2 12.2667 15.26 12.2 15.3 12.12C15.3533 12.0267 15.3533 11.96 15.3 11.92C14.74 11.3733 14.1533 10.96 13.54 10.68C12.94 10.3867 12.2067 10.24 11.34 10.24C10.4333 10.24 9.6 10.4667 8.84 10.92C8.08 11.36 7.48 11.9733 7.04 12.76C6.6 13.5467 6.38 14.4267 6.38 15.4C6.38 16.3333 6.61333 17.1867 7.08 17.96C7.54667 18.72 8.16667 19.32 8.94 19.76C9.71333 20.2 10.54 20.42 11.42 20.42C12.2467 20.42 12.9533 20.28 13.54 20C14.1267 19.7067 14.68 19.2733 15.2 18.7L15.24 18.62C15.24 18.5533 15.2067 18.48 15.14 18.4C15.0867 18.3067 15.0267 18.24 14.96 18.2L15.22 17.92L18.2 20.42L17.96 20.72C17.88 20.6533 17.78 20.5933 17.66 20.54C17.54 20.4867 17.46 20.4867 17.42 20.54C16.58 21.4467 15.7 22.12 14.78 22.56C13.86 22.9867 12.74 23.2 11.42 23.2Z" fill="white"/>
<path d="M33.78 20.2V23.4H33.4C33.4 23.3067 33.38 23.2133 33.34 23.12C33.3 23.0267 33.2467 22.98 33.18 22.98H23V22.6C23.0933 22.6 23.1867 22.58 23.28 22.54C23.3867 22.5 23.44 22.4467 23.44 22.38V8.58C23.44 8.51333 23.3867 8.46 23.28 8.42C23.1867 8.38 23.0933 8.36 23 8.36V7.98H32.66C32.7267 7.98 32.78 7.93333 32.82 7.84C32.86 7.74667 32.88 7.65333 32.88 7.56H33.26V10.76H32.88C32.88 10.6667 32.86 10.5733 32.82 10.48C32.78 10.3867 32.7267 10.34 32.66 10.34H26.02V13.86H31.68C31.7467 13.86 31.8 13.8133 31.84 13.72C31.88 13.6267 31.9 13.5333 31.9 13.44H32.28V16.64H31.9C31.9 16.5467 31.88 16.4533 31.84 16.36C31.8 16.2667 31.7467 16.22 31.68 16.22H26.02V20.62H33.18C33.2467 20.62 33.3 20.5733 33.34 20.48C33.38 20.3867 33.4 20.2933 33.4 20.2H33.78ZM42.7875 23.32C41.2408 23.32 39.8542 22.9667 38.6275 22.26C37.4142 21.54 36.4675 20.5933 35.7875 19.42C35.1208 18.2333 34.7875 16.98 34.7875 15.66C34.7875 14.3267 35.1075 13.0467 35.7475 11.82C36.3875 10.58 37.3142 9.57333 38.5275 8.8C39.7408 8.02667 41.1608 7.64 42.7875 7.64C44.3742 7.64 45.7675 8.00667 46.9675 8.74C48.1675 9.47333 49.0875 10.4533 49.7275 11.68C50.3675 12.8933 50.6875 14.22 50.6875 15.66C50.6875 16.94 50.3675 18.1733 49.7275 19.36C49.1008 20.5333 48.1875 21.4867 46.9875 22.22C45.7875 22.9533 44.3875 23.32 42.7875 23.32ZM42.8075 20.68C43.8075 20.68 44.7008 20.4733 45.4875 20.06C46.2875 19.6333 46.9075 19.04 47.3475 18.28C47.8008 17.5067 48.0275 16.6333 48.0275 15.66C48.0275 14.6333 47.8142 13.7133 47.3875 12.9C46.9608 12.0867 46.3475 11.4467 45.5475 10.98C44.7475 10.5 43.8008 10.26 42.7075 10.26C41.7075 10.26 40.8142 10.5 40.0275 10.98C39.2542 11.4467 38.6475 12.0933 38.2075 12.92C37.7675 13.7467 37.5475 14.66 37.5475 15.66C37.5475 16.7 37.8008 17.6 38.3075 18.36C38.8275 19.12 39.4875 19.7 40.2875 20.1C41.1008 20.4867 41.9408 20.68 42.8075 20.68ZM56.0969 23.3C55.4169 23.3 54.7569 23.16 54.1169 22.88C53.4902 22.6 52.8569 22.2 52.2169 21.68C52.1902 21.6533 52.1569 21.64 52.1169 21.64C52.0102 21.64 51.8969 21.7 51.7769 21.82L51.4969 21.58L53.4969 19.3L53.7769 19.56C53.7235 19.6267 53.6769 19.7067 53.6369 19.8C53.6102 19.8933 53.6235 19.9667 53.6769 20.02C54.1169 20.42 54.5235 20.72 54.8969 20.92C55.2835 21.1067 55.6835 21.2 56.0969 21.2C57.1235 21.2 57.6369 20.86 57.6369 20.18C57.6369 19.8733 57.4769 19.64 57.1569 19.48C56.8502 19.3067 56.3302 19.12 55.5969 18.92C54.6502 18.6667 53.9635 18.34 53.5369 17.94C53.1102 17.5267 52.8969 16.9667 52.8969 16.26C52.8969 15.42 53.1702 14.74 53.7169 14.22C54.2635 13.6867 55.0102 13.42 55.9569 13.42C56.4369 13.42 56.8702 13.4933 57.2569 13.64C57.6435 13.7867 58.1102 14.0467 58.6569 14.42C58.6702 14.4333 58.6969 14.44 58.7369 14.44C58.8035 14.44 58.8702 14.42 58.9369 14.38C59.0035 14.34 59.0502 14.3 59.0769 14.26L59.3769 14.52L57.5769 16.56L57.2969 16.32C57.3502 16.2667 57.3835 16.2 57.3969 16.12C57.4235 16.0267 57.4102 15.9533 57.3569 15.9C57.1169 15.7133 56.8835 15.5733 56.6569 15.48C56.4435 15.3867 56.2035 15.34 55.9369 15.34C55.6569 15.34 55.4369 15.3933 55.2769 15.5C55.1169 15.6067 55.0369 15.7667 55.0369 15.98C55.0369 16.1533 55.0835 16.2933 55.1769 16.4C55.2702 16.5067 55.4369 16.6133 55.6769 16.72C55.9302 16.8267 56.3102 16.96 56.8169 17.12C57.7502 17.4 58.4835 17.7933 59.0169 18.3C59.5502 18.7933 59.8169 19.4067 59.8169 20.14C59.8169 21.22 59.4769 22.02 58.7969 22.54C58.1169 23.0467 57.2169 23.3 56.0969 23.3ZM66.6003 13.4V16.44H66.2203C66.2203 16.3467 66.2003 16.26 66.1603 16.18C66.1203 16.0867 66.067 16.04 66.0003 16.04H64.7003V22.4C64.7003 22.4667 64.747 22.52 64.8403 22.56C64.9336 22.6 65.027 22.62 65.1203 22.62V23H61.8603V22.62C61.9536 22.62 62.047 22.6 62.1403 22.56C62.2336 22.52 62.2803 22.4667 62.2803 22.4V16.04H61.3203C61.2536 16.04 61.2003 16.0867 61.1603 16.18C61.1203 16.26 61.1003 16.3467 61.1003 16.44H60.7203V13.4H61.1003C61.1003 13.4933 61.1203 13.5867 61.1603 13.68C61.2003 13.76 61.2536 13.8 61.3203 13.8H62.2803V11.46C62.2803 11.3933 62.2336 11.34 62.1403 11.3C62.047 11.26 61.9536 11.24 61.8603 11.24V10.86H65.1203V11.24C65.027 11.24 64.9336 11.26 64.8403 11.3C64.747 11.34 64.7003 11.3933 64.7003 11.46V13.8H66.0003C66.067 13.8 66.1203 13.76 66.1603 13.68C66.2003 13.5867 66.2203 13.4933 66.2203 13.4H66.6003ZM72.7 23.24C71.7133 23.24 70.84 23.0333 70.08 22.62C69.3333 22.1933 68.7467 21.6133 68.32 20.88C67.9067 20.1467 67.7 19.32 67.7 18.4C67.7 17.4933 67.9067 16.6667 68.32 15.92C68.7467 15.1733 69.34 14.5867 70.1 14.16C70.86 13.72 71.7267 13.5 72.7 13.5C73.6333 13.5 74.48 13.7133 75.24 14.14C76 14.5533 76.6 15.1333 77.04 15.88C77.48 16.6133 77.7 17.4533 77.7 18.4C77.7 19.2267 77.5 20.0133 77.1 20.76C76.7133 21.4933 76.14 22.0933 75.38 22.56C74.62 23.0133 73.7267 23.24 72.7 23.24ZM72.7 20.94C73.4867 20.94 74.12 20.7133 74.6 20.26C75.0933 19.7933 75.34 19.1933 75.34 18.46C75.34 17.7 75.0933 17.0733 74.6 16.58C74.12 16.0867 73.4867 15.84 72.7 15.84C71.9667 15.84 71.3533 16.0867 70.86 16.58C70.3667 17.06 70.12 17.6667 70.12 18.4C70.12 19.1733 70.3667 19.7933 70.86 20.26C71.3533 20.7133 71.9667 20.94 72.7 20.94ZM85.4863 13.2V16.42H85.1063C85.1063 16.3267 85.0863 16.22 85.0463 16.1C85.0063 15.98 84.9529 15.9133 84.8863 15.9H84.7463C84.3329 15.9 83.9129 16.02 83.4863 16.26C83.0729 16.4867 82.7263 16.7933 82.4463 17.18C82.1796 17.5533 82.0463 17.9533 82.0463 18.38V22.4C82.0463 22.4667 82.0929 22.52 82.1863 22.56C82.2929 22.6 82.3929 22.62 82.4863 22.62V23H79.1263V22.62C79.2196 22.62 79.3129 22.6 79.4063 22.56C79.5129 22.52 79.5663 22.4667 79.5663 22.4V14.4C79.5663 14.3333 79.5129 14.28 79.4063 14.24C79.3129 14.2 79.2196 14.18 79.1263 14.18V13.8H82.0463V14.66C82.4063 14.3267 82.8396 14.06 83.3463 13.86C83.8529 13.66 84.3596 13.56 84.8663 13.56H84.8863H84.9063C84.9729 13.56 85.0196 13.52 85.0463 13.44C85.0863 13.36 85.1063 13.28 85.1063 13.2H85.4863ZM97.6291 14.18C97.3491 14.18 97.1757 14.2333 97.1091 14.34L90.1091 28.12C90.0957 28.1333 90.0891 28.1533 90.0891 28.18C90.0891 28.26 90.1357 28.3267 90.2291 28.38C90.3224 28.4333 90.4424 28.46 90.5891 28.46V28.84H86.8291V28.46C87.1091 28.46 87.2824 28.4067 87.3491 28.3L90.6091 21.88L86.5091 14.32C86.4557 14.2267 86.2824 14.18 85.9891 14.18V13.8H89.6891V14.18C89.5291 14.18 89.4291 14.2133 89.3891 14.28C89.3624 14.3467 89.3757 14.42 89.4291 14.5L91.9691 19.2L94.3491 14.52C94.3624 14.5067 94.3691 14.4867 94.3691 14.46C94.3691 14.38 94.3224 14.3133 94.2291 14.26C94.1357 14.2067 94.0157 14.18 93.8691 14.18V13.8H97.6291V14.18Z" fill="white"/>
</svg>
