<svg width="257" height="73" viewBox="0 0 257 73" fill="none" xmlns="http://www.w3.org/2000/svg">
<circle cx="27" cy="39" r="27" fill="#92CBAD"/>
<path d="M27.05 58.5C23.4833 58.5 20.2 57.6667 17.2 56C14.2 54.3 11.8333 51.9667 10.1 49C8.36667 46 7.5 42.6667 7.5 39C7.5 35.1333 8.36667 31.7167 10.1 28.75C11.8333 25.7833 14.1667 23.5 17.1 21.9C20.0333 20.2667 23.25 19.45 26.75 19.45C30.1167 19.45 32.95 20.05 35.25 21.25C37.5833 22.4167 39.7833 24.0667 41.85 26.2C41.9167 26.2667 42.0167 26.3 42.15 26.3C42.35 26.3 42.7 26.15 43.2 25.85L43.8 26.6L36.9 32.05L36.3 31.3C36.5 31.1667 36.65 31 36.75 30.8C36.8833 30.5667 36.8833 30.4 36.75 30.3C35.35 28.9333 33.8833 27.9 32.35 27.2C30.85 26.4667 29.0167 26.1 26.85 26.1C24.5833 26.1 22.5 26.6667 20.6 27.8C18.7 28.9 17.2 30.4333 16.1 32.4C15 34.3667 14.45 36.5667 14.45 39C14.45 41.3333 15.0333 43.4667 16.2 45.4C17.3667 47.3 18.9167 48.8 20.85 49.9C22.7833 51 24.85 51.55 27.05 51.55C29.1167 51.55 30.8833 51.2 32.35 50.5C33.8167 49.7667 35.2 48.6833 36.5 47.25L36.6 47.05C36.6 46.8833 36.5167 46.7 36.35 46.5C36.2167 46.2667 36.0667 46.1 35.9 46L36.55 45.3L44 51.55L43.4 52.3C43.2 52.1333 42.95 51.9833 42.65 51.85C42.35 51.7167 42.15 51.7167 42.05 51.85C39.95 54.1167 37.75 55.8 35.45 56.9C33.15 57.9667 30.35 58.5 27.05 58.5ZM87.6961 51V59H86.7461C86.7461 58.7667 86.6961 58.5333 86.5961 58.3C86.4961 58.0667 86.3628 57.95 86.1961 57.95H60.7461V57C60.9794 57 61.2128 56.95 61.4461 56.85C61.7128 56.75 61.8461 56.6167 61.8461 56.45V21.95C61.8461 21.7833 61.7128 21.65 61.4461 21.55C61.2128 21.45 60.9794 21.4 60.7461 21.4V20.45H84.8961C85.0628 20.45 85.1961 20.3333 85.2961 20.1C85.3961 19.8667 85.4461 19.6333 85.4461 19.4H86.3961V27.4H85.4461C85.4461 27.1667 85.3961 26.9333 85.2961 26.7C85.1961 26.4667 85.0628 26.35 84.8961 26.35H68.2961V35.15H82.4461C82.6128 35.15 82.7461 35.0333 82.8461 34.8C82.9461 34.5667 82.9961 34.3333 82.9961 34.1H83.9461V42.1H82.9961C82.9961 41.8667 82.9461 41.6333 82.8461 41.4C82.7461 41.1667 82.6128 41.05 82.4461 41.05H68.2961V52.05H86.1961C86.3628 52.05 86.4961 51.9333 86.5961 51.7C86.6961 51.4667 86.7461 51.2333 86.7461 51H87.6961ZM110.215 58.8C106.348 58.8 102.882 57.9167 99.8148 56.15C96.7815 54.35 94.4148 51.9833 92.7148 49.05C91.0482 46.0833 90.2148 42.95 90.2148 39.65C90.2148 36.3167 91.0148 33.1167 92.6148 30.05C94.2148 26.95 96.5315 24.4333 99.5648 22.5C102.598 20.5667 106.148 19.6 110.215 19.6C114.182 19.6 117.665 20.5167 120.665 22.35C123.665 24.1833 125.965 26.6333 127.565 29.7C129.165 32.7333 129.965 36.05 129.965 39.65C129.965 42.85 129.165 45.9333 127.565 48.9C125.998 51.8333 123.715 54.2167 120.715 56.05C117.715 57.8833 114.215 58.8 110.215 58.8ZM110.265 52.2C112.765 52.2 114.998 51.6833 116.965 50.65C118.965 49.5833 120.515 48.1 121.615 46.2C122.748 44.2667 123.315 42.0833 123.315 39.65C123.315 37.0833 122.782 34.7833 121.715 32.75C120.648 30.7167 119.115 29.1167 117.115 27.95C115.115 26.75 112.748 26.15 110.015 26.15C107.515 26.15 105.282 26.75 103.315 27.95C101.382 29.1167 99.8648 30.7333 98.7648 32.8C97.6648 34.8667 97.1148 37.15 97.1148 39.65C97.1148 42.25 97.7482 44.5 99.0148 46.4C100.315 48.3 101.965 49.75 103.965 50.75C105.998 51.7167 108.098 52.2 110.265 52.2ZM143.488 58.75C141.788 58.75 140.138 58.4 138.538 57.7C136.972 57 135.388 56 133.788 54.7C133.722 54.6333 133.638 54.6 133.538 54.6C133.272 54.6 132.988 54.75 132.688 55.05L131.988 54.45L136.988 48.75L137.688 49.4C137.555 49.5667 137.438 49.7667 137.338 50C137.272 50.2333 137.305 50.4167 137.438 50.55C138.538 51.55 139.555 52.3 140.488 52.8C141.455 53.2667 142.455 53.5 143.488 53.5C146.055 53.5 147.338 52.65 147.338 50.95C147.338 50.1833 146.938 49.6 146.138 49.2C145.372 48.7667 144.072 48.3 142.238 47.8C139.872 47.1667 138.155 46.35 137.088 45.35C136.022 44.3167 135.488 42.9167 135.488 41.15C135.488 39.05 136.172 37.35 137.538 36.05C138.905 34.7167 140.772 34.05 143.138 34.05C144.338 34.05 145.422 34.2333 146.388 34.6C147.355 34.9667 148.522 35.6167 149.888 36.55C149.922 36.5833 149.988 36.6 150.088 36.6C150.255 36.6 150.422 36.55 150.588 36.45C150.755 36.35 150.872 36.25 150.938 36.15L151.688 36.8L147.188 41.9L146.488 41.3C146.622 41.1667 146.705 41 146.738 40.8C146.805 40.5667 146.772 40.3833 146.638 40.25C146.038 39.7833 145.455 39.4333 144.888 39.2C144.355 38.9667 143.755 38.85 143.088 38.85C142.388 38.85 141.838 38.9833 141.438 39.25C141.038 39.5167 140.838 39.9167 140.838 40.45C140.838 40.8833 140.955 41.2333 141.188 41.5C141.422 41.7667 141.838 42.0333 142.438 42.3C143.072 42.5667 144.022 42.9 145.288 43.3C147.622 44 149.455 44.9833 150.788 46.25C152.122 47.4833 152.788 49.0167 152.788 50.85C152.788 53.55 151.938 55.55 150.238 56.85C148.538 58.1167 146.288 58.75 143.488 58.75ZM169.747 34V41.6H168.797C168.797 41.3667 168.747 41.15 168.647 40.95C168.547 40.7167 168.414 40.6 168.247 40.6H164.997V56.5C164.997 56.6667 165.114 56.8 165.347 56.9C165.58 57 165.814 57.05 166.047 57.05V58H157.897V57.05C158.13 57.05 158.364 57 158.597 56.9C158.83 56.8 158.947 56.6667 158.947 56.5V40.6H156.547C156.38 40.6 156.247 40.7167 156.147 40.95C156.047 41.15 155.997 41.3667 155.997 41.6H155.047V34H155.997C155.997 34.2333 156.047 34.4667 156.147 34.7C156.247 34.9 156.38 35 156.547 35H158.947V29.15C158.947 28.9833 158.83 28.85 158.597 28.75C158.364 28.65 158.13 28.6 157.897 28.6V27.65H166.047V28.6C165.814 28.6 165.58 28.65 165.347 28.75C165.114 28.85 164.997 28.9833 164.997 29.15V35H168.247C168.414 35 168.547 34.9 168.647 34.7C168.747 34.4667 168.797 34.2333 168.797 34H169.747ZM184.996 58.6C182.529 58.6 180.346 58.0833 178.446 57.05C176.579 55.9833 175.113 54.5333 174.046 52.7C173.013 50.8667 172.496 48.8 172.496 46.5C172.496 44.2333 173.013 42.1667 174.046 40.3C175.113 38.4333 176.596 36.9667 178.496 35.9C180.396 34.8 182.563 34.25 184.996 34.25C187.329 34.25 189.446 34.7833 191.346 35.85C193.246 36.8833 194.746 38.3333 195.846 40.2C196.946 42.0333 197.496 44.1333 197.496 46.5C197.496 48.5667 196.996 50.5333 195.996 52.4C195.029 54.2333 193.596 55.7333 191.696 56.9C189.796 58.0333 187.563 58.6 184.996 58.6ZM184.996 52.85C186.963 52.85 188.546 52.2833 189.746 51.15C190.979 49.9833 191.596 48.4833 191.596 46.65C191.596 44.75 190.979 43.1833 189.746 41.95C188.546 40.7167 186.963 40.1 184.996 40.1C183.163 40.1 181.629 40.7167 180.396 41.95C179.163 43.15 178.546 44.6667 178.546 46.5C178.546 48.4333 179.163 49.9833 180.396 51.15C181.629 52.2833 183.163 52.85 184.996 52.85ZM216.962 33.5V41.55H216.012C216.012 41.3167 215.962 41.05 215.862 40.75C215.762 40.45 215.628 40.2833 215.462 40.25H215.112C214.078 40.25 213.028 40.55 211.962 41.15C210.928 41.7167 210.062 42.4833 209.362 43.45C208.695 44.3833 208.362 45.3833 208.362 46.45V56.5C208.362 56.6667 208.478 56.8 208.712 56.9C208.978 57 209.228 57.05 209.462 57.05V58H201.062V57.05C201.295 57.05 201.528 57 201.762 56.9C202.028 56.8 202.162 56.6667 202.162 56.5V36.5C202.162 36.3333 202.028 36.2 201.762 36.1C201.528 36 201.295 35.95 201.062 35.95V35H208.362V37.15C209.262 36.3167 210.345 35.65 211.612 35.15C212.878 34.65 214.145 34.4 215.412 34.4H215.462H215.512C215.678 34.4 215.795 34.3 215.862 34.1C215.962 33.9 216.012 33.7 216.012 33.5H216.962ZM247.319 35.95C246.619 35.95 246.185 36.0833 246.019 36.35L228.519 70.8C228.485 70.8333 228.469 70.8833 228.469 70.95C228.469 71.15 228.585 71.3167 228.819 71.45C229.052 71.5833 229.352 71.65 229.719 71.65V72.6H220.319V71.65C221.019 71.65 221.452 71.5167 221.619 71.25L229.769 55.2L219.519 36.3C219.385 36.0667 218.952 35.95 218.219 35.95V35H227.469V35.95C227.069 35.95 226.819 36.0333 226.719 36.2C226.652 36.3667 226.685 36.55 226.819 36.75L233.169 48.5L239.119 36.8C239.152 36.7667 239.169 36.7167 239.169 36.65C239.169 36.45 239.052 36.2833 238.819 36.15C238.585 36.0167 238.285 35.95 237.919 35.95V35H247.319V35.95Z" fill="white"/>
</svg>
