<svg width="153" height="44" viewBox="0 0 153 44" fill="none" xmlns="http://www.w3.org/2000/svg">
<circle cx="18.5" cy="23.5" r="18.5" fill="#92CBAD"/>
<circle cx="18.5" cy="23.5" r="18.5" fill="#92CBAD"/>
<path d="M19.63 35.3C17.49 35.3 15.52 34.8 13.72 33.8C11.92 32.78 10.5 31.38 9.46 29.6C8.42 27.8 7.9 25.8 7.9 23.6C7.9 21.28 8.42 19.23 9.46 17.45C10.5 15.67 11.9 14.3 13.66 13.34C15.42 12.36 17.35 11.87 19.45 11.87C21.47 11.87 23.17 12.23 24.55 12.95C25.95 13.65 27.27 14.64 28.51 15.92C28.55 15.96 28.61 15.98 28.69 15.98C28.81 15.98 29.02 15.89 29.32 15.71L29.68 16.16L25.54 19.43L25.18 18.98C25.3 18.9 25.39 18.8 25.45 18.68C25.53 18.54 25.53 18.44 25.45 18.38C24.61 17.56 23.73 16.94 22.81 16.52C21.91 16.08 20.81 15.86 19.51 15.86C18.15 15.86 16.9 16.2 15.76 16.88C14.62 17.54 13.72 18.46 13.06 19.64C12.4 20.82 12.07 22.14 12.07 23.6C12.07 25 12.42 26.28 13.12 27.44C13.82 28.58 14.75 29.48 15.91 30.14C17.07 30.8 18.31 31.13 19.63 31.13C20.87 31.13 21.93 30.92 22.81 30.5C23.69 30.06 24.52 29.41 25.3 28.55L25.36 28.43C25.36 28.33 25.31 28.22 25.21 28.1C25.13 27.96 25.04 27.86 24.94 27.8L25.33 27.38L29.8 31.13L29.44 31.58C29.32 31.48 29.17 31.39 28.99 31.31C28.81 31.23 28.69 31.23 28.63 31.31C27.37 32.67 26.05 33.68 24.67 34.34C23.29 34.98 21.61 35.3 19.63 35.3ZM56.0177 30.8V35.6H55.4477C55.4477 35.46 55.4177 35.32 55.3577 35.18C55.2977 35.04 55.2177 34.97 55.1177 34.97H39.8477V34.4C39.9877 34.4 40.1277 34.37 40.2677 34.31C40.4277 34.25 40.5077 34.17 40.5077 34.07V13.37C40.5077 13.27 40.4277 13.19 40.2677 13.13C40.1277 13.07 39.9877 13.04 39.8477 13.04V12.47H54.3377C54.4377 12.47 54.5177 12.4 54.5777 12.26C54.6377 12.12 54.6677 11.98 54.6677 11.84H55.2377V16.64H54.6677C54.6677 16.5 54.6377 16.36 54.5777 16.22C54.5177 16.08 54.4377 16.01 54.3377 16.01H44.3777V21.29H52.8677C52.9677 21.29 53.0477 21.22 53.1077 21.08C53.1677 20.94 53.1977 20.8 53.1977 20.66H53.7677V25.46H53.1977C53.1977 25.32 53.1677 25.18 53.1077 25.04C53.0477 24.9 52.9677 24.83 52.8677 24.83H44.3777V31.43H55.1177C55.2177 31.43 55.2977 31.36 55.3577 31.22C55.4177 31.08 55.4477 30.94 55.4477 30.8H56.0177ZM69.5289 35.48C67.2089 35.48 65.1289 34.95 63.2889 33.89C61.4689 32.81 60.0489 31.39 59.0289 29.63C58.0289 27.85 57.5289 25.97 57.5289 23.99C57.5289 21.99 58.0089 20.07 58.9689 18.23C59.9289 16.37 61.3189 14.86 63.1389 13.7C64.9589 12.54 67.0889 11.96 69.5289 11.96C71.9089 11.96 73.9989 12.51 75.7989 13.61C77.5989 14.71 78.9789 16.18 79.9389 18.02C80.8989 19.84 81.3789 21.83 81.3789 23.99C81.3789 25.91 80.8989 27.76 79.9389 29.54C78.9989 31.3 77.6289 32.73 75.8289 33.83C74.0289 34.93 71.9289 35.48 69.5289 35.48ZM69.5589 31.52C71.0589 31.52 72.3989 31.21 73.5789 30.59C74.7789 29.95 75.7089 29.06 76.3689 27.92C77.0489 26.76 77.3889 25.45 77.3889 23.99C77.3889 22.45 77.0689 21.07 76.4289 19.85C75.7889 18.63 74.8689 17.67 73.6689 16.97C72.4689 16.25 71.0489 15.89 69.4089 15.89C67.9089 15.89 66.5689 16.25 65.3889 16.97C64.2289 17.67 63.3189 18.64 62.6589 19.88C61.9989 21.12 61.6689 22.49 61.6689 23.99C61.6689 25.55 62.0489 26.9 62.8089 28.04C63.5889 29.18 64.5789 30.05 65.7789 30.65C66.9989 31.23 68.2589 31.52 69.5589 31.52ZM89.493 35.45C88.473 35.45 87.483 35.24 86.523 34.82C85.583 34.4 84.633 33.8 83.673 33.02C83.633 32.98 83.583 32.96 83.523 32.96C83.363 32.96 83.193 33.05 83.013 33.23L82.593 32.87L85.593 29.45L86.013 29.84C85.933 29.94 85.863 30.06 85.803 30.2C85.763 30.34 85.783 30.45 85.863 30.53C86.523 31.13 87.133 31.58 87.693 31.88C88.273 32.16 88.873 32.3 89.493 32.3C91.033 32.3 91.803 31.79 91.803 30.77C91.803 30.31 91.563 29.96 91.083 29.72C90.623 29.46 89.843 29.18 88.743 28.88C87.323 28.5 86.293 28.01 85.653 27.41C85.013 26.79 84.693 25.95 84.693 24.89C84.693 23.63 85.103 22.61 85.923 21.83C86.743 21.03 87.863 20.63 89.283 20.63C90.003 20.63 90.653 20.74 91.233 20.96C91.813 21.18 92.513 21.57 93.333 22.13C93.353 22.15 93.393 22.16 93.453 22.16C93.553 22.16 93.653 22.13 93.753 22.07C93.853 22.01 93.923 21.95 93.963 21.89L94.413 22.28L91.713 25.34L91.293 24.98C91.373 24.9 91.423 24.8 91.443 24.68C91.483 24.54 91.463 24.43 91.383 24.35C91.023 24.07 90.673 23.86 90.333 23.72C90.013 23.58 89.653 23.51 89.253 23.51C88.833 23.51 88.503 23.59 88.263 23.75C88.023 23.91 87.903 24.15 87.903 24.47C87.903 24.73 87.973 24.94 88.113 25.1C88.253 25.26 88.503 25.42 88.863 25.58C89.243 25.74 89.813 25.94 90.573 26.18C91.973 26.6 93.073 27.19 93.873 27.95C94.673 28.69 95.073 29.61 95.073 30.71C95.073 32.33 94.563 33.53 93.543 34.31C92.523 35.07 91.173 35.45 89.493 35.45ZM105.248 20.6V25.16H104.678C104.678 25.02 104.648 24.89 104.588 24.77C104.528 24.63 104.448 24.56 104.348 24.56H102.398V34.1C102.398 34.2 102.468 34.28 102.608 34.34C102.748 34.4 102.888 34.43 103.028 34.43V35H98.1381V34.43C98.2781 34.43 98.4181 34.4 98.5581 34.34C98.6981 34.28 98.7681 34.2 98.7681 34.1V24.56H97.3281C97.2281 24.56 97.1481 24.63 97.0881 24.77C97.0281 24.89 96.9981 25.02 96.9981 25.16H96.4281V20.6H96.9981C96.9981 20.74 97.0281 20.88 97.0881 21.02C97.1481 21.14 97.2281 21.2 97.3281 21.2H98.7681V17.69C98.7681 17.59 98.6981 17.51 98.5581 17.45C98.4181 17.39 98.2781 17.36 98.1381 17.36V16.79H103.028V17.36C102.888 17.36 102.748 17.39 102.608 17.45C102.468 17.51 102.398 17.59 102.398 17.69V21.2H104.348C104.448 21.2 104.528 21.14 104.588 21.02C104.648 20.88 104.678 20.74 104.678 20.6H105.248ZM114.398 35.36C112.918 35.36 111.608 35.05 110.468 34.43C109.348 33.79 108.468 32.92 107.828 31.82C107.208 30.72 106.898 29.48 106.898 28.1C106.898 26.74 107.208 25.5 107.828 24.38C108.468 23.26 109.358 22.38 110.498 21.74C111.638 21.08 112.938 20.75 114.398 20.75C115.798 20.75 117.068 21.07 118.208 21.71C119.348 22.33 120.248 23.2 120.908 24.32C121.568 25.42 121.898 26.68 121.898 28.1C121.898 29.34 121.598 30.52 120.998 31.64C120.418 32.74 119.558 33.64 118.418 34.34C117.278 35.02 115.938 35.36 114.398 35.36ZM114.398 31.91C115.578 31.91 116.528 31.57 117.248 30.89C117.988 30.19 118.358 29.29 118.358 28.19C118.358 27.05 117.988 26.11 117.248 25.37C116.528 24.63 115.578 24.26 114.398 24.26C113.298 24.26 112.378 24.63 111.638 25.37C110.898 26.09 110.528 27 110.528 28.1C110.528 29.26 110.898 30.19 111.638 30.89C112.378 31.57 113.298 31.91 114.398 31.91ZM133.577 20.3V25.13H133.007C133.007 24.99 132.977 24.83 132.917 24.65C132.857 24.47 132.777 24.37 132.677 24.35H132.467C131.847 24.35 131.217 24.53 130.577 24.89C129.957 25.23 129.437 25.69 129.017 26.27C128.617 26.83 128.417 27.43 128.417 28.07V34.1C128.417 34.2 128.487 34.28 128.627 34.34C128.787 34.4 128.937 34.43 129.077 34.43V35H124.037V34.43C124.177 34.43 124.317 34.4 124.457 34.34C124.617 34.28 124.697 34.2 124.697 34.1V22.1C124.697 22 124.617 21.92 124.457 21.86C124.317 21.8 124.177 21.77 124.037 21.77V21.2H128.417V22.49C128.957 21.99 129.607 21.59 130.367 21.29C131.127 20.99 131.887 20.84 132.647 20.84H132.677H132.707C132.807 20.84 132.877 20.78 132.917 20.66C132.977 20.54 133.007 20.42 133.007 20.3H133.577ZM151.791 21.77C151.371 21.77 151.111 21.85 151.011 22.01L140.511 42.68C140.491 42.7 140.481 42.73 140.481 42.77C140.481 42.89 140.551 42.99 140.691 43.07C140.831 43.15 141.011 43.19 141.231 43.19V43.76H135.591V43.19C136.011 43.19 136.271 43.11 136.371 42.95L141.261 33.32L135.111 21.98C135.031 21.84 134.771 21.77 134.331 21.77V21.2H139.881V21.77C139.641 21.77 139.491 21.82 139.431 21.92C139.391 22.02 139.411 22.13 139.491 22.25L143.301 29.3L146.871 22.28C146.891 22.26 146.901 22.23 146.901 22.19C146.901 22.07 146.831 21.97 146.691 21.89C146.551 21.81 146.371 21.77 146.151 21.77V21.2H151.791V21.77Z" fill="white"/>
</svg>
