<svg width="37" height="42" viewBox="0 0 37 42" fill="none" xmlns="http://www.w3.org/2000/svg">
<circle cx="18.5" cy="23.5" r="18.5" fill="#92CBAD"/>
<path d="M19.63 35.3C17.49 35.3 15.52 34.8 13.72 33.8C11.92 32.78 10.5 31.38 9.46 29.6C8.42 27.8 7.9 25.8 7.9 23.6C7.9 21.28 8.42 19.23 9.46 17.45C10.5 15.67 11.9 14.3 13.66 13.34C15.42 12.36 17.35 11.87 19.45 11.87C21.47 11.87 23.17 12.23 24.55 12.95C25.95 13.65 27.27 14.64 28.51 15.92C28.55 15.96 28.61 15.98 28.69 15.98C28.81 15.98 29.02 15.89 29.32 15.71L29.68 16.16L25.54 19.43L25.18 18.98C25.3 18.9 25.39 18.8 25.45 18.68C25.53 18.54 25.53 18.44 25.45 18.38C24.61 17.56 23.73 16.94 22.81 16.52C21.91 16.08 20.81 15.86 19.51 15.86C18.15 15.86 16.9 16.2 15.76 16.88C14.62 17.54 13.72 18.46 13.06 19.64C12.4 20.82 12.07 22.14 12.07 23.6C12.07 25 12.42 26.28 13.12 27.44C13.82 28.58 14.75 29.48 15.91 30.14C17.07 30.8 18.31 31.13 19.63 31.13C20.87 31.13 21.93 30.92 22.81 30.5C23.69 30.06 24.52 29.41 25.3 28.55L25.36 28.43C25.36 28.33 25.31 28.22 25.21 28.1C25.13 27.96 25.04 27.86 24.94 27.8L25.33 27.38L29.8 31.13L29.44 31.58C29.32 31.48 29.17 31.39 28.99 31.31C28.81 31.23 28.69 31.23 28.63 31.31C27.37 32.67 26.05 33.68 24.67 34.34C23.29 34.98 21.61 35.3 19.63 35.3Z" fill="white"/>
</svg>
