<svg width="13" height="14" viewBox="0 0 13 14" fill="none" xmlns="http://www.w3.org/2000/svg">
<path fill-rule="evenodd" clip-rule="evenodd" d="M7.66304 8.32492C6.23111 9.75685 3.90951 9.75685 2.47759 8.32492C1.04567 6.893 1.04567 4.5714 2.47759 3.13948C3.90951 1.70755 6.23111 1.70755 7.66304 3.13948C9.09496 4.5714 9.09496 6.893 7.66304 8.32492ZM8.10342 9.70789C6.1432 11.2073 3.32761 11.0606 1.53478 9.26773C-0.417843 7.31511 -0.417843 4.14929 1.53478 2.19667C3.4874 0.244045 6.65322 0.244045 8.60585 2.19667C10.3986 3.98941 10.5454 6.80483 9.0462 8.76505L12.6129 12.3317L11.6701 13.2746L8.10342 9.70789Z" fill="#959595"/>
</svg>
