<svg width="301" height="309" viewBox="0 0 301 309" fill="none" xmlns="http://www.w3.org/2000/svg">
<circle cx="134" cy="134" r="134" fill="#283C35"/>
<path d="M74.6866 300.862C75.1018 298.785 78.3197 296.882 79.8767 296.19C81.0878 296.363 83.7175 296.709 84.5479 296.709C85.5859 296.709 86.1049 299.304 86.1049 301.381C86.1049 303.457 84.5479 304.495 84.0289 305.014C83.5099 305.533 80.3958 307.09 78.8387 306.571C77.2817 306.052 74.1676 303.457 74.6866 300.862Z" fill="white"/>
<path d="M144.754 295.152L144.754 295.152C144.927 295.152 145.481 295.256 146.311 295.671C147.349 296.19 149.425 296.709 149.944 298.266C150.463 299.824 149.425 300.862 147.349 302.938C145.688 304.598 145.273 304.668 145.273 304.495C144.062 303.976 141.536 302.834 141.121 302.419C140.602 301.9 140.083 299.304 140.083 298.785C140.083 298.266 143.197 296.19 144.754 295.152Z" fill="white"/>
<path d="M139.046 224.047L91.8154 224.566L92.3344 230.794L108.424 231.313V282.177L107.386 284.772L81.435 285.291L80.916 295.671L83.5111 296.19L85.0682 291L143.717 289.962V295.671H148.388L147.869 285.291H121.399L119.323 284.772V231.313L139.565 230.794L139.046 224.047Z" fill="white"/>
<path d="M48.6216 112.514L81 112.514L70.6683 156.309C69.488 161.312 72.7308 166.286 77.7849 167.224L90.0432 169.5L143 224H90.0432C48.0973 218.862 46.5243 191.119 46 176.734V142.312L48.6216 112.514Z" fill="white"/>
<path fill-rule="evenodd" clip-rule="evenodd" d="M91.1666 95.3422L112.889 93C119.15 102.665 125.145 106.846 130.875 105.544C136.605 104.242 140.778 100.377 143.394 93.9486C158.898 97.6291 167.053 100.229 167.86 101.748C169.071 104.027 170.164 106.364 171.034 109.797C171.614 112.086 172.962 124.989 175.077 148.507H192.795L211.405 150.251L214.788 152.466L221.866 153.794L221.01 166.928H176.777C171.5 166.532 154.589 166.879 151 166.532C147.411 166.185 172.587 166.185 151 166.532H132.057L76.8731 166.928C73.6244 165.283 72 163.848 72 162.623C72 160.787 74.1544 142.741 75.5137 135.542C76.42 130.743 81.6376 117.343 91.1666 95.3422Z" fill="#92CBAD"/>
<path fill-rule="evenodd" clip-rule="evenodd" d="M90.4151 168.912C88.8429 185.372 90.0177 195.596 93.9393 199.582C99.8218 205.561 109.695 209.08 117.404 210.048C122.542 210.693 127.564 211.178 132.469 211.504L146.115 233.281L161.001 267.158L193.703 257.673L213.331 250.083L198.296 195.805C195.629 188.021 193.444 183.537 191.743 182.352C190.042 181.168 181.694 176.688 166.698 168.912H90.4151Z" fill="#0F1E37"/>
<path fill-rule="evenodd" clip-rule="evenodd" d="M172.457 282.076C175.537 286.665 176.767 289.556 176.149 290.747C175.531 291.937 174.821 296.072 174.02 303.149H182.751L184.614 298.771L187.122 303.149H229.714V301.474L252.256 298.771C251.667 295.744 250.609 294.231 249.083 294.231C246.794 294.231 229.479 292.708 227.662 290.747C226.45 289.439 224.721 282.549 222.475 270.076L200.684 275.982C202.606 279.535 203.566 281.938 203.566 283.192C203.566 284.445 202.969 286.964 201.773 290.747C199.275 286.077 198.026 282.242 198.026 279.242C198.026 276.241 198.026 274.741 198.026 274.741L172.457 282.076Z" fill="#0F1E37"/>
<path d="M172.782 272.833L167.592 265.048L187.833 259.338L189.91 264.01L172.782 272.833Z" fill="white"/>
<path d="M199.771 265.048L196.138 257.262L213.265 249.996L216.379 257.781L199.771 265.048Z" fill="white"/>
<path d="M260.495 163.841L221.568 157.613V165.399L256.343 166.956L262.571 167.475V165.918L260.495 163.841Z" fill="white"/>
<path d="M119.324 51.2134C119.74 47.0613 122.957 44.6392 124.514 43.9472L128.667 41.8711H139.047C140.604 43.0821 143.822 45.8156 144.237 47.0613C144.756 48.6183 142.68 61.5938 142.68 64.1888C142.68 66.2649 139.22 73.3581 137.49 76.6453C138.355 79.5864 140.396 86.0914 141.642 88.5827C143.199 91.6968 142.68 94.8109 141.642 98.444C140.604 102.077 134.895 104.672 134.376 105.191C133.857 105.71 128.667 105.71 122.438 102.596C117.456 100.105 114.48 94.6379 113.615 92.2158C114.999 85.1225 117.871 70.2094 118.286 67.3029C118.702 64.3964 117.767 64.7079 117.248 65.2269C116.383 64.5349 114.446 63.047 113.615 62.6318C112.577 62.1128 113.615 58.4797 115.172 57.4416C116.418 56.6112 118.113 57.4416 118.805 57.9606C118.805 57.4416 118.909 55.3655 119.324 51.2134Z" fill="white"/>
<path d="M161.26 158.574H159.655C159.644 158.4 159.632 158.235 159.62 158.077C159.594 157.739 159.571 157.43 159.57 157.121C159.563 150.827 159.56 144.53 159.567 138.235L159.567 138.067C159.566 137.502 159.564 136.925 159.707 136.393C159.78 136.123 160.264 135.792 160.55 135.803C160.818 135.812 161.146 136.196 161.308 136.49C161.418 136.69 161.411 136.963 161.405 137.223C161.403 137.285 161.402 137.346 161.402 137.405C161.403 144.009 161.4 150.613 161.389 157.216C161.388 157.467 161.358 157.717 161.321 158.028C161.302 158.19 161.28 158.37 161.26 158.574Z" fill="black"/>
<path d="M146.007 168.642C146.635 168.205 147.095 168.01 147.394 167.937C147.363 167.912 147.309 167.85 147.309 167.85C147.234 167.764 147.372 167.578 147.135 167.508C146.759 167.984 146.22 168.429 146.007 168.642Z" fill="black"/>
<path d="M135.135 154.008V160.508V163.508C135.125 163.624 135.13 163.819 135.135 164.013C135.14 164.208 135.146 164.402 135.135 164.508C135.135 164.699 135.136 164.829 135.136 164.94C135.137 165.12 135.138 165.25 135.135 165.508C135.133 165.656 135.129 165.755 135.125 165.841C135.118 166.017 135.113 166.135 135.135 166.508C135.163 166.994 135.489 166.995 138.672 167.003C139.105 167.004 139.59 167.005 140.135 167.008L146.135 167.508C146.497 167.508 146.967 167.458 147.135 167.508C147.561 166.967 150.411 165.969 151.635 165.008C152.135 164.008 151.635 163.508 152.135 162.508C152.635 161.508 152.894 161.511 153.135 161.008C153.448 160.352 152.853 159.181 153.135 158.508C153.265 158.197 153.389 157.967 153.508 157.762L154.135 156.508C154.135 155.008 152.972 154.648 153.135 154.008C153.635 152.008 152.635 151.508 152.135 151.508C151.635 151.508 147.863 151.569 146.783 151.616C143.501 151.758 143.326 151.765 143.326 149.508L144.595 142.722C144.621 142.581 144.617 142.436 144.582 142.296L144.135 140.508L143.458 140.282C142.985 140.125 142.469 140.338 142.247 140.784L142.135 141.008V141.536C142.135 141.846 142.062 142.152 141.924 142.43L141.635 143.008C141.475 143.327 141.214 143.95 140.9 144.7C140.229 146.304 139.316 148.486 138.635 149.508C138.073 150.35 137.512 151.035 136.862 151.827C136.354 152.446 135.792 153.131 135.135 154.008Z" fill="white"/>
<path fill-rule="evenodd" clip-rule="evenodd" d="M116.008 86.6785L116.008 86.6807L116.008 86.6785ZM167.914 166.877C167.912 166.877 167.964 166.884 167.961 166.884L168.076 166.883C168.097 166.893 168.143 166.888 168.193 166.883L168.353 166.882C168.52 166.882 168.617 166.88 168.71 166.879L168.353 166.882C168.325 166.867 168.208 166.868 168.148 166.875C168.145 166.875 168.196 166.882 168.193 166.883C168.143 166.888 168.097 166.893 168.076 166.883C168.056 166.874 167.957 166.872 167.914 166.877ZM153.614 163.687C153.602 163.622 153.644 163.566 153.635 163.508L152.635 166.508C154.014 165.588 153.75 164.432 153.614 163.687ZM153.135 158.508C153.265 158.197 153.389 157.967 153.508 157.762L153.135 158.508ZM145.357 179.509L145.356 179.508C145.304 179.5 145.253 179.491 145.201 179.482C145.253 179.491 145.305 179.5 145.357 179.509ZM215.555 300.174L215.68 299.954L215.805 299.735C215.805 299.735 215.68 299.954 215.555 300.174ZM98.6356 285.833C98.638 285.833 98.6405 285.833 98.6429 285.833L98.6356 285.833Z" fill="black"/>
<path fill-rule="evenodd" clip-rule="evenodd" d="M149.285 38.5599C149.415 38.1876 149.547 37.8259 149.677 37.4705C149.961 36.694 150.233 35.9472 150.448 35.1845C150.963 33.3606 150.593 31.6136 149.649 30.0251C148.064 27.3559 143.616 27.8141 142.2 29.6856C141.462 30.6652 141.195 31.6019 141.243 32.5425C140.418 31.1457 139.75 30.2605 138.501 29.3024C136.944 28.1098 134.646 28.7372 133.066 29.4843C133.238 28.636 132.721 27.2577 132.175 26.5466C131.491 25.6565 130.223 24.356 128.086 23.5681C125.372 22.5671 123.368 22.8201 121.389 25.0398C120.324 26.2334 119.669 27.7567 119.457 29.1146C119.377 29.6321 119.37 30.1631 119.363 30.6987C119.355 31.3209 119.348 31.9493 119.224 32.5698C119.074 32.5824 118.94 32.599 118.818 32.6142C118.582 32.6433 118.387 32.6675 118.197 32.6495C115.757 32.4161 114.993 32.7877 113.931 34.8664C113.579 35.5512 113.256 36.273 113.075 37.0152C112.631 38.8284 111.4 40.1455 110.104 41.2622C108.136 42.9586 108.034 45.7601 108.543 46.94C108.543 46.94 109.57 49.2911 114.826 52.1344C115.055 52.2582 115.281 52.3882 115.508 52.5184C116.023 52.8141 116.541 53.1108 117.087 53.3377C118.323 53.8523 118.212 55.1528 117.052 55.8765C116.788 56.0402 116.448 56.0852 116.112 56.1297C115.98 56.1471 115.849 56.1645 115.723 56.1888C113.485 56.6187 112.37 57.9913 112.423 60.2704C112.473 62.3939 113.508 63.9512 115.239 65.0903C115.579 65.3141 115.937 65.5127 116.332 65.7324C116.522 65.8383 116.721 65.949 116.932 66.0698C116.827 67.086 116.735 68.0997 116.643 69.1103L116.642 69.1128C116.437 71.3683 116.233 73.6088 115.895 75.8283C115.446 78.7799 114.902 81.7165 114.357 84.6535C114.08 86.1447 113.804 87.6361 113.539 89.1295C113.424 89.7844 113.327 90.4599 113.355 91.1198C113.114 91.1451 112.82 91.1923 112.458 91.2504L112.457 91.2506C109.395 91.7428 106.323 92.2117 103.24 92.5473C100.073 92.8936 96.8885 93.1056 93.7073 93.306C91.9186 93.4179 90.5503 94.2174 89.6482 95.6824C88.1427 98.1269 86.683 100.604 85.3313 103.136C84.5847 104.537 83.9263 105.985 83.2305 107.515C82.9088 108.222 82.579 108.947 82.2289 109.694C81.6964 109.694 81.1634 109.69 80.6301 109.687C79.4618 109.679 78.2923 109.671 77.1237 109.7C68.1774 109.925 59.2293 110.153 50.283 110.415C47.5154 110.497 47.1543 110.901 46.9431 113.734C46.7921 115.749 46.6502 117.763 46.5083 119.778C46.4645 120.399 46.4208 121.02 46.3768 121.641C46.1613 124.68 45.9286 127.719 45.696 130.757C45.169 137.641 44.6421 144.524 44.3146 151.416C43.7609 163.078 44.0451 174.739 45.6206 186.337C46.3651 191.82 47.346 197.23 49.7682 202.286C52.8502 208.715 57.2275 213.894 63.7223 217.109C64.6751 217.58 65.6164 218.075 66.5576 218.569L66.5587 218.569C67.6139 219.124 68.6691 219.678 69.7403 220.199C74.9681 222.746 80.5803 223.879 86.2976 224.6C87.2893 224.724 88.2827 224.841 89.3415 224.965L89.3445 224.965L89.362 224.967C89.9135 225.032 90.4827 225.098 91.0788 225.169C91.0788 225.646 91.0755 226.097 91.0723 226.53L91.0723 226.532C91.0656 227.452 91.0594 228.291 91.0865 229.129C91.1576 231.4 91.2763 231.521 93.463 231.597C95.4395 231.665 97.4173 231.725 99.394 231.786L99.4066 231.787L99.4225 231.787L99.4378 231.787C101.257 231.843 103.077 231.899 104.897 231.961C105.481 231.981 106.066 232.027 106.596 232.068L106.597 232.068L106.598 232.068C106.817 232.085 107.026 232.102 107.222 232.115V283.651C106.87 283.675 106.557 283.699 106.27 283.721C105.74 283.762 105.298 283.796 104.855 283.808C97.9308 283.989 91.0067 284.167 84.0827 284.339C80.4373 284.429 80.3915 284.485 80.2446 288.212C80.1787 289.897 80.0851 291.58 80.0039 293.041C79.9701 293.649 79.9384 294.219 79.9118 294.734C79.3049 295.196 78.7355 295.6 78.204 295.976L78.2013 295.978L78.1986 295.98L78.1959 295.982C77.1107 296.751 76.1838 297.408 75.4187 298.218C73.8724 299.855 73.4792 301.94 74.3784 304.074C75.3175 306.303 77.1616 307.393 79.5157 307.499C82.0741 307.614 84.2297 306.641 85.885 304.665C88.0357 302.1 87.9851 299.097 85.6077 296.727C84.9518 296.075 84.7776 295.496 84.8875 294.691C84.956 294.185 85.0235 293.678 85.0938 293.152L85.0962 293.134C85.1521 292.715 85.2097 292.283 85.271 291.828C104.441 291.587 123.467 291.347 142.674 291.106C142.749 292.601 142.813 293.886 142.876 295.165C142.713 295.237 142.565 295.298 142.427 295.355L142.424 295.356L142.419 295.359L142.418 295.359C142.138 295.475 141.905 295.572 141.685 295.693C138.812 297.282 138.277 300.579 140.499 302.955C143.719 306.399 149.142 305.237 150.664 300.76C151.123 299.411 151.562 297.851 150.505 296.754C149.417 295.625 149.375 294.387 149.331 293.081L149.328 292.993L149.323 292.838C149.321 292.784 149.319 292.73 149.316 292.676C149.24 290.889 149.157 289.102 149.046 287.317C148.878 284.628 148.518 284.287 145.778 284.291C140.472 284.3 135.167 284.316 129.861 284.332L129.693 284.333H129.691C127.425 284.34 125.159 284.347 122.893 284.353C122.351 284.355 121.809 284.354 121.222 284.354L120.717 284.353L120.243 284.353V232.316C120.382 232.301 120.515 232.284 120.645 232.267C120.917 232.231 121.173 232.197 121.429 232.196C123.253 232.191 125.077 232.19 126.901 232.19C128.268 232.189 129.635 232.189 131.002 232.186C131.621 232.186 132.241 232.187 132.861 232.189H132.863H132.864C134.656 232.194 136.447 232.198 138.237 232.146C140.18 232.089 140.666 231.465 140.523 229.501C140.475 228.835 140.425 228.169 140.375 227.504L140.375 227.499L140.375 227.495C140.35 227.167 140.325 226.839 140.301 226.511L140.895 226.323C141.186 226.863 141.483 227.401 141.78 227.939L141.781 227.94C142.411 229.079 143.041 230.219 143.61 231.387C146.186 236.679 148.75 241.976 151.315 247.274C153.628 252.052 155.941 256.829 158.263 261.603C158.976 263.069 159.734 264.514 160.514 266.002L160.515 266.004L160.517 266.007L160.517 266.007L160.518 266.008L160.518 266.009C160.881 266.701 161.249 267.403 161.62 268.12C162.088 267.965 162.536 267.812 162.972 267.663C163.929 267.337 164.826 267.031 165.736 266.765C167.485 266.257 167.706 266.362 168.566 267.846C170.162 270.6 171.757 273.355 173.342 276.115C173.83 276.966 174.308 277.826 174.806 278.723L174.807 278.724L174.808 278.726C175.037 279.139 175.271 279.56 175.513 279.993C175.23 280.094 174.974 280.182 174.738 280.262L174.737 280.263C174.282 280.418 173.9 280.549 173.531 280.709C172.163 281.307 172.094 281.655 172.792 282.999C173.289 283.958 173.775 284.947 174.082 285.976C174.994 289.028 174.722 292.147 174.278 295.225C174.071 296.662 173.749 298.082 173.426 299.503C173.232 300.357 173.038 301.211 172.87 302.069C172.525 303.816 173.089 304.667 174.846 304.666C176.921 304.664 178.994 304.564 181.004 304.467L181.017 304.466C181.853 304.426 182.678 304.386 183.487 304.354L183.735 303.918L183.78 303.839L183.863 303.691C184.254 303.004 184.611 302.375 185.06 301.583C185.236 301.852 185.398 302.076 185.542 302.273L185.542 302.274L185.543 302.275C185.813 302.647 186.016 302.926 186.111 303.238C186.398 304.189 187.047 304.336 187.896 304.354C189.395 304.383 190.893 304.433 192.392 304.483L192.398 304.483C195.254 304.579 198.11 304.674 200.963 304.622C207.76 304.498 214.555 304.283 221.351 304.068H221.355C223.89 303.987 227.519 304.081 230.055 304.006C231.798 303.954 230.708 303.765 231.379 301.782V300.684C231.407 300.675 231.442 301.748 231.471 301.738L231.491 301.732L231.517 301.723L231.578 301.702C231.723 301.651 231.875 301.598 232.03 301.585C234.577 301.381 237.125 301.179 239.673 300.977L239.676 300.976L239.762 300.97L239.85 300.963C243.37 300.684 246.89 300.405 250.409 300.118C251.415 300.037 252.43 299.944 253.41 299.721C254.633 299.443 255.001 298.85 254.668 297.712C254.124 295.852 253.174 294.261 251.215 293.591C250.118 293.217 248.992 292.86 247.85 292.699L246.733 292.544C242.332 291.931 237.929 291.318 233.51 290.866C229.958 290.502 228.078 288.518 227.252 285.245C227.232 285.168 227.213 285.091 227.193 285.014C227.169 284.922 227.144 284.83 227.12 284.737L227.118 284.731C226.985 284.225 226.852 283.72 226.771 283.205C226.531 281.686 226.302 280.166 226.072 278.646L226.072 278.643L226.07 278.634L226.07 278.631L226.069 278.629C225.696 276.16 225.323 273.691 224.908 271.228C224.451 268.514 224.334 268.477 221.553 268.348C221.067 267.07 220.577 265.789 220.086 264.504L220.068 264.458L220.061 264.44L220.059 264.433C218.852 261.276 217.637 258.099 216.456 254.91C216.324 254.552 216.178 254.196 216.032 253.84C215.387 252.268 214.738 250.688 215.204 248.862C215.274 248.592 215.144 248.27 215.014 247.949C214.957 247.807 214.9 247.666 214.861 247.529L208.986 227.39C207.952 223.846 206.915 220.303 205.878 216.76L205.875 216.753L205.875 216.751L205.874 216.749C203.354 208.142 200.834 199.536 198.374 190.912C196.616 184.748 192.959 180.081 187.512 176.896C184.377 175.062 181.149 173.385 177.921 171.709L177.92 171.708L177.918 171.708C176.46 170.951 175.002 170.193 173.553 169.422C173.298 169.285 173.049 169.139 172.694 168.929C172.481 168.803 172.229 168.655 171.915 168.472C172.407 168.472 172.824 168.472 173.192 168.471C173.814 168.471 174.3 168.47 174.786 168.472C177.981 168.484 181.175 168.497 184.37 168.51H184.373C191.839 168.54 199.306 168.57 206.773 168.593C207.62 168.595 208.468 168.578 209.315 168.561L209.317 168.561C210.493 168.538 211.668 168.514 212.842 168.542C213.848 168.567 214.853 168.637 215.858 168.708L215.86 168.708C216.853 168.777 217.846 168.847 218.84 168.872C220.551 168.916 222.114 168.555 222.642 166.436C223.149 166.436 223.645 166.428 224.132 166.419L224.135 166.419C225.176 166.401 226.179 166.383 227.177 166.452C230.635 166.691 234.091 166.954 237.547 167.216C240.14 167.413 242.734 167.61 245.329 167.797C250.294 168.155 255.259 168.509 260.229 168.787C261.001 168.83 261.781 168.721 262.525 168.616C262.858 168.569 263.184 168.523 263.499 168.493C264.097 165.53 263.221 163.991 260.715 163.227L260.577 163.185C259.658 162.906 258.727 162.623 257.782 162.484C250.167 161.368 242.55 160.266 234.926 159.21C231.621 158.752 228.304 158.375 224.985 158.032C223.423 157.869 222.426 157.019 222.329 155.575C222.18 153.335 220.906 152.695 218.966 152.558C217.006 152.42 215.254 151.814 213.656 150.53C212.104 149.284 210.11 148.982 208.136 148.944C207.273 148.927 206.41 148.939 205.547 148.951C204.385 148.967 203.224 148.984 202.065 148.93C201.453 148.902 200.838 148.881 200.223 148.86L200.221 148.86L200.219 148.86C197.952 148.783 195.675 148.706 193.481 148.257C189.524 147.447 185.625 147.356 181.655 147.851C180.57 147.987 179.475 148.049 178.336 148.114C177.807 148.144 177.268 148.175 176.716 148.214C176.671 147.866 176.625 147.549 176.582 147.252L176.581 147.247L176.581 147.245C176.498 146.673 176.426 146.175 176.391 145.674C176.191 142.783 175.996 139.891 175.801 137L175.8 136.981L175.798 136.961L175.797 136.942L175.797 136.94L175.796 136.93C175.517 132.786 175.238 128.642 174.944 124.499C174.525 118.602 173.929 112.736 172.141 107.048C170.671 102.369 167.724 99.2932 162.945 98.0101C160.616 97.3851 158.287 96.7542 155.959 96.1232L155.948 96.1202C151.903 95.0241 147.858 93.928 143.805 92.8624C143.292 92.7278 142.733 92.7653 142.183 92.8023C141.93 92.8193 141.678 92.8362 141.434 92.8362C141.399 93.0266 141.365 93.1777 141.337 93.3038C141.289 93.5185 141.257 93.6608 141.264 93.8011C141.507 99.1045 136.667 105.747 128.709 103.949C122.923 102.641 118.298 99.5257 115.394 94.1883C115.139 93.7204 114.916 93.2155 114.794 92.7C114.711 92.3522 114.642 92.0736 114.57 91.8528C114.727 91.7596 114.868 91.6363 114.945 91.5137C115.135 91.2092 115.203 90.8213 115.269 90.4428L115.269 90.4404C115.284 90.3554 115.298 90.2709 115.314 90.1879C115.54 89.018 115.774 87.8494 116.008 86.6807L116.008 86.6785C116.582 83.8112 117.156 80.9436 117.604 78.0569C118.152 74.5221 118.49 70.9524 118.828 67.389L118.87 66.9443C119.075 64.7917 118.96 64.6798 116.994 63.8014C115.61 63.1828 114.71 62.21 114.455 60.7052C114.236 59.4222 114.793 57.6245 116.511 58.0555C117.915 58.4066 118.452 60.3151 118.795 61.6332L119.371 61.5135C119.428 61.2951 119.491 61.0776 119.554 60.8602C119.691 60.3902 119.827 59.9205 119.9 59.4416C120.017 58.6718 120.108 57.8968 120.199 57.1221C120.353 55.8099 120.507 54.4983 120.786 53.2132C121.493 49.9419 123.598 47.6501 126.738 46.7104C128.373 46.2201 130.101 46.0396 131.829 45.8591C132.565 45.7822 133.301 45.7053 134.03 45.6044C134.173 45.584 134.341 45.6463 134.481 45.7076C136.595 46.6278 138.587 46.1151 140.486 45.1346C142.264 46.1628 142.977 47.5762 142.958 49.5888C142.898 55.3727 142.19 61.0729 140.746 66.6554C140.293 68.4074 139.585 70.0942 138.878 71.7805C138.593 72.4611 138.307 73.1417 138.039 73.8264C137.48 75.2525 136.302 75.8147 134.878 75.7174C133.888 75.6503 132.832 75.4752 131.955 75.0433C130.904 74.5245 129.89 73.9316 128.876 73.3386C128.089 72.8786 127.302 72.4186 126.497 71.9928C126.234 71.8545 125.881 71.8871 125.529 71.9197C125.365 71.9348 125.202 71.9499 125.047 71.9481C125.068 72.0991 125.071 72.2712 125.074 72.4433C125.081 72.8166 125.088 73.1897 125.276 73.3469C126.338 74.2389 127.457 75.1114 128.679 75.7554C131.238 77.1065 133.951 78.0043 137.063 77.516C137.402 78.7158 137.735 79.8981 138.065 81.0677L138.098 81.1846L138.099 81.1868L138.109 81.223C138.932 84.1417 139.734 86.9826 140.543 89.8211C140.755 90.5643 140.971 91.3201 141.309 92.0079C141.434 92.2608 141.973 92.5166 142.228 92.4417C142.485 92.3658 142.772 91.8901 142.784 91.5808C142.802 91.0536 142.652 90.5079 142.508 89.9884C142.371 89.4936 142.233 88.9988 142.096 88.5039C141.173 85.1823 140.25 81.8605 139.281 78.552C138.918 77.3137 138.934 76.302 139.569 75.0482C140.789 72.6377 141.945 70.1106 142.559 67.4988C143.326 64.2272 143.813 60.8871 144.298 57.5508L144.299 57.5471C144.417 56.7342 144.536 55.9215 144.658 55.11C144.825 54.0093 144.889 52.8934 144.954 51.7781C144.983 51.2702 145.012 50.7623 145.051 50.2561C145.169 50.1904 145.276 50.1256 145.377 50.0647C145.574 49.9452 145.747 49.8402 145.934 49.7707C148.008 49.0003 149.395 47.7279 149.365 45.3214C149.36 44.9644 149.53 44.5461 149.75 44.2553C151.317 42.1911 151.285 40.268 149.285 38.5599ZM134.892 29.7912C135.963 29.6543 136.819 29.545 137.518 30.0387C138.32 30.6049 138.786 31.1 139.738 32.1262C138.428 29.1487 136.194 28.744 133.922 29.9016C134.264 29.8714 134.587 29.8302 134.892 29.7912ZM120.303 31.9122C120.322 31.9995 120.341 32.0864 120.359 32.1719C121.454 28.2878 122.841 24.8832 127.507 24.1381C125.775 23.2072 125.027 23.4375 123.581 23.8828C123.503 23.907 123.422 23.9319 123.339 23.9572C122.634 24.1712 121.826 25.0749 121.421 25.6682C120.305 27.3034 119.982 29.3024 120.154 31.0903C120.178 31.343 120.241 31.6293 120.303 31.9122ZM109.022 46.8719C110.145 48.5061 112.935 50.3825 113.504 50.7045C113.815 50.88 114.121 51.066 114.431 51.2546C115.493 51.9002 116.607 52.5778 118.151 52.9797C117.464 51.4224 116.49 50.9525 115.413 50.5002C112.114 49.117 110.116 46.7902 110.228 43.0189C110.233 42.8588 110.188 42.6974 110.126 42.474C110.09 42.3473 110.049 42.2006 110.009 42.0228C108.283 44.6803 108.59 46.2426 109.022 46.8719ZM117.641 33.4229C115.741 33.1291 114.915 33.705 114.036 36.0074C113.905 36.3508 113.857 36.726 113.805 37.135C113.78 37.3332 113.754 37.5392 113.717 37.7535C114.879 36.8858 115.29 37.1426 115.855 37.6105C115.239 36.0989 116.318 33.9588 117.641 33.4229ZM261.913 166.635C261.21 165.068 260.362 164.122 258.471 163.913L259.334 166.777C259.736 166.754 260.098 166.735 260.455 166.715L260.516 166.712L260.641 166.705L260.666 166.703L261.913 166.635ZM253.435 166.547H256.956C256.317 163.75 255.286 162.978 252.392 163.196L253.435 166.547ZM200.388 277.74C199.496 281.643 200.084 287.325 201.491 288.82C202.196 285.06 202.341 281.386 200.388 277.74ZM133.635 155.008C133.631 154.092 129.468 154.12 128.135 154.508C128.039 155.526 128.026 157.041 128.013 158.553C128 160.056 127.987 161.555 127.892 162.558V166.617H129.035H130.101C130.624 166.617 131.546 166.581 132.332 166.55L132.335 166.55C132.916 166.528 133.422 166.508 133.635 166.508C133.635 166.182 133.631 165.812 133.628 165.435L133.628 165.433C133.62 164.653 133.612 163.839 133.635 163.31C133.694 161.915 133.666 158.703 133.647 156.521C133.641 155.918 133.637 155.394 133.635 155.008ZM140.884 300.051C141.024 300.246 141.155 300.449 141.286 300.652C141.569 301.09 141.852 301.528 142.218 301.88C144.449 304.032 147.989 303.078 148.921 300.113C149.526 298.189 148.95 297.152 147.008 296.667C144.963 296.156 142.761 297.296 140.884 300.051ZM215.566 154.174C215.606 154.852 215.643 155.527 215.679 156.199C215.878 159.851 216.073 163.424 216.752 167.055C217.529 167.007 218.22 166.964 218.92 166.92L220.364 166.829C220.614 162.656 220.657 158.68 220.155 154.719L219.181 154.544L219.174 154.542L219.169 154.541L218.833 154.481C218.05 154.34 217.351 154.215 216.649 154.102C216.51 154.079 216.365 154.095 216.124 154.121C215.979 154.137 215.8 154.157 215.566 154.174ZM79.868 305.696C82.8351 305.726 85.4082 303.386 85.4247 300.738C85.4335 299.406 84.9566 298.395 83.6536 297.767C81.1934 296.584 78.5328 297.152 76.8746 299.337C75.9218 300.592 75.5637 301.982 76.2245 303.46C76.9388 305.059 78.3849 305.553 79.868 305.696ZM169.449 265.578C170.493 267.277 171.421 268.79 172.344 270.295L173.427 272.061L176.48 270.354C180.62 268.039 184.661 265.779 188.83 263.446C188.447 262.601 188.101 261.837 187.722 261.002L187.557 260.638L184.989 261.338C179.862 262.737 174.828 264.11 169.449 265.578ZM195.674 258.687C193.826 258.466 192.405 259.076 190.898 259.722C190.49 259.897 190.075 260.075 189.644 260.24L191.076 263.303L192.341 266.008L192.459 266.261C193.66 268.83 194.851 271.375 196.036 273.911C196.345 273.893 196.639 273.856 196.918 273.822C197.514 273.747 198.04 273.682 198.5 273.826C198.939 273.964 199.307 274.331 199.677 274.701C199.841 274.865 200.006 275.029 200.178 275.175L200.914 274.685C201.393 274.367 201.897 274.031 202.502 273.629L195.674 258.687ZM250.954 166.208C250.603 163.675 249.713 162.716 247.489 162.458C246.502 162.343 245.512 162.256 244.522 162.169L244.519 162.168C243.65 162.092 242.781 162.015 241.914 161.92C236.659 161.344 231.405 160.756 226.154 160.152C225.393 160.065 224.637 159.937 223.855 159.804L223.853 159.804L223.85 159.803C223.47 159.739 223.085 159.674 222.69 159.612V164.087L230.348 164.662C237.255 165.18 244.096 165.693 250.954 166.208ZM179.4 278.779L179.401 278.778C181.243 278.228 183.049 277.689 184.836 277.095C185.261 276.954 185.653 276.453 185.877 276.023C186.377 275.066 186.883 274.836 187.897 275.444C189.185 276.216 189.807 275.977 190.461 274.795C191.228 273.407 191.239 273.414 192.631 274.234L192.673 274.258C192.899 274.392 193.182 274.429 193.537 274.475C193.722 274.499 193.927 274.526 194.154 274.57C194.112 274.467 194.071 274.366 194.03 274.266C193.475 272.888 193.057 271.851 191.701 271.517C191.434 271.452 191.046 270.612 191.169 270.422C191.743 269.528 191.393 268.826 191.069 268.178C190.897 267.834 190.733 267.504 190.717 267.169C190.451 267.144 190.197 267.136 189.955 267.128C189.462 267.113 189.021 267.099 188.638 266.943C187.13 266.331 186.739 266.407 186.267 267.986C186.017 268.824 185.728 269.159 184.8 268.934C182.92 268.477 181.088 269.582 180.557 271.455C180.28 272.428 179.796 272.755 178.864 272.255C178.644 272.137 178.42 272.025 178.223 271.926C178.137 271.883 178.056 271.842 177.983 271.805C176.685 272.515 175.554 273.135 174.282 273.832L177.439 279.367C177.681 279.294 177.922 279.221 178.162 279.149C178.574 279.025 178.984 278.903 179.392 278.781L179.4 278.779ZM215.326 257.46L214.419 254.99C213.972 253.774 213.532 252.576 213.067 251.308C207.727 253.527 202.606 255.657 197.321 257.854C197.774 258.773 198.212 259.664 198.662 260.58L198.667 260.59C199.152 261.576 199.652 262.592 200.2 263.706L215.326 257.46ZM211.531 261.794C211.277 262.353 211.038 262.879 210.646 263.237C210.001 263.826 209.657 263.405 209.298 262.966C209.093 262.714 208.882 262.456 208.607 262.378L201.034 265.437C202.039 267.871 202.947 270.068 203.95 272.494C204.972 271.26 205.704 271.946 206.405 272.602L206.408 272.605C206.481 272.673 206.553 272.741 206.626 272.806C207.882 269.902 208.209 269.82 210.742 271.675C213.037 271.02 215.367 270.354 217.805 269.658L218.218 269.54L219.793 269.09C219.013 267.042 218.306 265.188 217.604 263.347C216.367 263.62 215.296 263.798 214.807 262.587C214.436 261.669 215.003 261.251 215.574 260.831C215.881 260.605 216.19 260.379 216.353 260.073C215.225 259.441 215.225 259.441 211.916 260.999C211.773 261.262 211.651 261.531 211.532 261.792L211.531 261.794ZM135.135 160.508V154.008C135.792 153.131 136.354 152.446 136.862 151.827C137.512 151.035 138.073 150.35 138.635 149.508C139.316 148.486 140.229 146.304 140.9 144.7C141.214 143.95 141.475 143.327 141.635 143.008L141.924 142.43C142.062 142.152 142.135 141.846 142.135 141.536V141.008L142.247 140.784C142.469 140.338 142.985 140.125 143.458 140.282L144.135 140.508L144.582 142.296C144.617 142.436 144.621 142.581 144.595 142.722L143.326 149.508C143.326 151.765 143.501 151.758 146.783 151.616C147.863 151.569 151.635 151.508 152.135 151.508C152.635 151.508 153.635 152.008 153.135 154.008C152.972 154.648 154.135 155.008 154.135 156.508C153.943 157.077 153.735 157.371 153.508 157.762L153.135 158.508C152.853 159.181 153.448 160.352 153.135 161.008C152.894 161.511 152.635 161.508 152.135 162.508L153.635 163.508C153.635 163.008 154.518 161.741 154.635 161.508C154.865 161.047 154.775 160.551 154.635 160.008C154.494 159.465 154.557 159.289 154.635 159.008C154.635 158.801 154.806 158.422 155.007 157.978C155.292 157.351 155.635 156.594 155.635 156.008C155.635 155.338 155.276 154.932 154.988 154.607C154.795 154.39 154.635 154.208 154.635 154.008L155.116 153.046C155.437 152.404 155.389 151.639 154.991 151.042L154.857 150.841C154.71 150.621 154.522 150.432 154.302 150.286L153.492 149.746C153.256 149.589 152.991 149.483 152.711 149.441C150.249 149.073 147.498 149.026 145.135 149.508C145.135 148.881 145.307 148.086 145.508 147.155C145.793 145.843 146.135 144.263 146.135 142.508C146.135 142.008 146.135 140.508 144.635 139.008L143.326 138.242C142.635 138.008 141.635 138.008 141.135 138.508C140.635 139.008 140.635 140.008 140.635 141.008C140.635 141.508 138.135 148.008 138.135 148.008L137.135 149.508L136.135 150.508L135.635 151.008L134.635 152.008L134.135 152.508L133.635 153.008C133.492 152.998 132.97 153.023 132.289 153.054C130.558 153.134 127.802 153.262 127.635 153.008C126.557 151.368 125.623 151.192 124.24 150.931C123.838 150.855 123.397 150.772 122.904 150.644C122.704 150.592 122.505 150.54 122.305 150.486C121.479 150.265 120.653 150.039 119.828 149.813C117.73 149.239 115.632 148.664 113.515 148.175C111.604 147.734 109.673 147.377 107.686 147.009L107.685 147.009C106.786 146.843 105.875 146.675 104.949 146.495C105.049 145.976 105.15 145.443 105.253 144.9L105.256 144.885C105.484 143.685 105.721 142.439 105.965 141.195C106.304 139.466 106.649 137.74 106.993 136.013L106.993 136.012C107.166 135.148 107.338 134.284 107.51 133.421C107.522 133.356 107.536 133.292 107.55 133.227C107.586 133.063 107.621 132.899 107.635 132.733L107.635 132.731C107.688 132.1 107.751 131.338 106.904 131.316C106.541 131.306 105.963 131.827 105.827 132.225C105.351 133.613 104.878 135.032 104.672 136.477C104.283 139.215 103.386 141.74 102.066 144.153C101.369 145.426 100.72 146.724 100.07 148.022C99.781 148.601 99.4915 149.18 99.1978 149.757C98.9059 150.33 98.61 150.94 99.3107 151.403C99.943 151.821 100.308 151.426 100.698 151.004C100.747 150.951 100.796 150.898 100.846 150.846C102.078 149.565 103.599 148.972 105.397 148.842C108.016 148.654 110.499 149.197 112.983 149.883C114.184 150.215 115.386 150.542 116.588 150.869L116.594 150.87L116.601 150.872L116.603 150.873C118.47 151.38 120.337 151.888 122.2 152.412C122.973 152.63 123.724 152.933 124.471 153.234L124.595 153.284C126.32 153.978 126.295 154.302 126.184 155.785C126.168 156 126.15 156.239 126.135 156.508C126.06 157.869 126.074 159.207 126.089 160.596C126.099 161.536 126.11 162.499 126.093 163.508C126.047 164.006 126.069 164.531 126.092 165.059C126.114 165.58 126.136 166.102 126.093 166.603C125.848 166.626 125.619 166.654 125.4 166.681L125.398 166.681C124.96 166.734 124.563 166.783 124.166 166.783C109.181 166.793 94.1955 166.793 79.2112 166.793H79.1471H79.1138C78.9825 166.793 78.8498 166.795 78.7181 166.796C78.2264 166.801 77.7333 166.805 77.2492 166.745C74.6392 166.419 72.5635 164.382 72.0759 161.786C71.5202 158.826 71.7606 155.863 72.3445 152.974C72.6002 151.707 72.8529 150.439 73.1057 149.171C74.3876 142.742 75.6706 136.307 77.3426 129.978C79.9672 120.047 83.6137 110.451 88.3967 101.325C88.901 100.363 89.4694 99.4348 90.0593 98.4712L90.0601 98.4698C90.3408 98.0113 90.6264 97.5448 90.9123 97.0627C91.6476 98.1075 92.2582 98.9741 92.9467 99.9512L93.4795 100.708C94.4003 99.3645 93.913 98.4087 93.4285 97.4583C93.1081 96.8298 92.7888 96.2036 92.8791 95.4694C95.6637 94.9207 98.5106 94.7945 101.367 94.6679C105.13 94.5011 108.91 94.3336 112.588 93.199C112.739 93.4453 112.88 93.673 113.014 93.8885L113.015 93.8896C113.287 94.329 113.528 94.7184 113.757 95.1143C116.974 100.673 121.807 104.117 127.955 105.678C134.887 107.44 140.741 103.994 142.794 97.1182C142.939 96.6309 143.059 96.1355 143.193 95.5811C143.26 95.3053 143.33 95.015 143.408 94.7038C150.695 96.5433 157.891 98.373 165.064 100.77C165.005 101.128 164.948 101.464 164.894 101.787L164.893 101.788C164.782 102.448 164.68 103.05 164.59 103.653C164.583 103.701 164.575 103.75 164.568 103.799C164.559 103.855 164.55 103.912 164.54 103.969C164.47 104.4 164.399 104.836 164.435 105.259C164.488 105.881 164.696 106.632 165.509 106.44C165.869 106.354 166.247 105.723 166.343 105.28C166.477 104.658 166.519 104.015 166.563 103.338C166.581 103.047 166.601 102.75 166.628 102.446C167.919 102.56 168.375 103.484 168.685 104.243C168.853 104.655 169.025 105.066 169.197 105.478C170.015 107.436 170.841 109.41 171.235 111.458C172.054 115.722 172.601 120.054 172.971 124.383C173.43 129.746 173.775 135.118 174.121 140.49L174.122 140.495L174.123 140.511L174.123 140.513L174.123 140.515C174.261 142.659 174.399 144.804 174.545 146.948C174.563 147.231 174.556 147.516 174.551 147.707L174.549 147.787C174.548 147.817 174.547 147.844 174.547 147.866C174.306 148.078 174.027 148.28 173.762 148.471C173.222 148.861 172.741 149.209 172.765 149.517C172.834 150.427 173.585 150.39 174.277 150.355C174.48 150.345 174.677 150.335 174.85 150.349C177.462 150.559 179.999 150.618 182.652 149.908C186.189 148.962 189.839 149.14 193.443 150.404C195.053 150.969 196.893 150.984 198.66 151L198.662 151C198.833 151.001 199.003 151.003 199.172 151.005C200.507 151.021 201.842 150.966 203.177 150.911L203.178 150.911C204.719 150.848 206.26 150.785 207.798 150.831C209.235 150.873 210.708 151.301 212.068 151.813C213.467 152.34 214.341 153.558 214.332 155.073C214.315 157.869 214.201 160.665 214.088 163.461L214.088 163.464C214.063 164.076 214.039 164.687 214.015 165.299C214.005 165.541 213.92 165.781 213.817 166.069C213.763 166.219 213.705 166.383 213.65 166.568L169.907 166.871L169.834 166.871C169.802 166.872 169.777 166.872 169.729 166.872L168.71 166.879C168.617 166.88 168.52 166.882 168.353 166.882L168.193 166.883C168.143 166.888 168.097 166.893 168.076 166.883L167.961 166.884C167.925 166.888 167.891 166.892 167.876 166.885L152.135 167.008C152.087 166.903 152.135 167.008 152.635 166.508L153.635 163.508L152.135 162.508C151.635 163.508 152.135 164.008 151.635 165.008C150.411 165.969 147.561 166.967 147.135 167.508C147.372 167.578 147.234 167.764 147.309 167.85C147.309 167.85 147.363 167.912 147.394 167.937C147.095 168.01 146.635 168.205 146.007 168.642C147.008 168.608 149.056 168.623 150.894 168.636C152.286 168.646 153.558 168.656 154.163 168.642L154.165 168.642C156.96 168.58 159.755 168.518 162.538 168.672C165.056 168.811 167.62 169.428 170.015 170.257C176.507 172.501 182.477 175.861 188.166 179.657C192.3 182.414 195.046 186.335 196.443 191.149C200.189 204.058 203.94 216.967 207.695 229.874C208.667 233.214 209.645 236.552 210.624 239.89C211.306 242.217 211.988 244.544 212.668 246.872C212.797 247.314 212.913 247.761 213.047 248.272C213.115 248.53 213.186 248.805 213.266 249.105C211.278 249.911 209.308 250.753 207.337 251.595C203.021 253.44 198.696 255.289 194.134 256.772C194.012 256.493 193.895 256.23 193.783 255.979L193.782 255.977C193.554 255.468 193.347 255.006 193.164 254.534C191.115 249.269 189.066 244.003 187.018 238.738L186.935 238.523L186.871 238.361C181.7 225.067 176.529 211.774 171.345 198.485C170.954 197.482 170.453 196.495 169.852 195.603C166.064 189.981 162.233 184.412 156.093 180.969C151.856 178.594 147.297 177.508 142.514 177.185C142.134 177.159 141.746 177.27 141.355 177.382C141.173 177.434 140.989 177.487 140.806 177.525C140.892 178.852 141.658 178.929 142.397 179.004C142.562 179.02 142.726 179.037 142.881 179.067C143.65 179.219 144.426 179.351 145.201 179.482L145.356 179.508L145.357 179.509C147.136 179.81 148.914 180.11 150.628 180.626C155.041 181.951 158.782 184.479 161.758 188.003L162.002 188.291C165.23 192.113 168.465 195.942 170.216 200.763C171.034 203.016 171.914 205.245 172.794 207.475C173.112 208.281 173.43 209.087 173.746 209.894C176.147 216.036 178.549 222.177 180.951 228.319L181.124 228.761C184.466 237.307 187.809 245.854 191.151 254.402C191.371 254.969 191.579 255.541 191.818 256.199L191.819 256.2L191.82 256.203L191.821 256.208L191.825 256.217C191.947 256.554 192.078 256.913 192.222 257.304C186.538 258.932 180.861 260.467 175.174 262.004L175.173 262.004C170.943 263.147 166.708 264.292 162.459 265.478C162.344 265.297 162.227 265.124 162.113 264.954C161.876 264.604 161.649 264.268 161.474 263.908C159.631 260.116 157.794 256.319 155.958 252.523L155.957 252.522L155.956 252.518L155.955 252.516C152.142 244.632 148.328 236.748 144.448 228.898C144.241 228.48 144.036 228.063 143.83 227.646L143.829 227.644C141.296 222.504 138.758 217.356 135.34 212.697C134.253 211.215 132.956 210.402 131.183 210.014C126.527 208.995 121.805 208.619 117.07 208.312C113.18 208.058 109.328 207.591 105.6 206.379C99.1151 204.271 94.6298 200.282 92.593 193.539C90.3761 186.196 90.7002 178.814 91.5177 171.374C91.5793 170.818 91.7495 170.274 91.9314 169.693C92.0195 169.411 92.1104 169.12 92.193 168.816C93.1316 168.816 94.0562 168.816 94.9711 168.816L95.0302 168.817L95.0901 168.817C97.156 168.818 99.1732 168.819 101.19 168.815C104.349 168.808 107.509 168.802 110.669 168.796L111.456 168.794H111.464C118.225 168.781 123.89 168.749 129.615 168.717L129.62 168.717C134.757 168.688 139.941 168.658 146.007 168.642C146.22 168.429 146.759 167.984 147.135 167.508C146.967 167.458 146.497 167.508 146.135 167.508L140.135 167.008C139.59 167.005 139.105 167.004 138.672 167.003C135.489 166.995 135.163 166.994 135.135 166.508C135.113 166.135 135.118 166.017 135.125 165.841C135.129 165.755 135.133 165.656 135.135 165.508C135.138 165.25 135.137 165.12 135.136 164.94C135.136 164.829 135.135 164.699 135.135 164.508C135.146 164.402 135.14 164.208 135.135 164.013C135.13 163.819 135.125 163.624 135.135 163.508V160.508ZM202.933 291.552C204.895 293.157 206.04 293.712 209.38 294.511C211.27 294.962 213.166 295.393 215.062 295.825C217.937 296.479 222.024 296.605 224.881 297.329C226.179 297.658 226.816 297.878 228.498 298C229.812 298.095 230.82 297.934 230.998 298C230.998 298.5 230.498 299 230.555 299.297C234.452 298.721 237.807 299.148 241.779 298.874L241.781 298.874C245.37 298.626 248.977 298.377 252.579 297.902C252.145 296.061 250.924 295.37 249.54 295.058C247.574 294.616 245.57 294.327 243.573 294.052C241.099 293.714 238.622 293.403 236.145 293.091C234.923 292.938 233.702 292.784 232.481 292.627C229.017 292.184 226.854 290.216 225.842 286.927C225.784 286.74 225.725 286.553 225.666 286.365C225.398 285.515 225.129 284.66 224.98 283.787C224.672 281.975 224.399 280.158 224.126 278.34L224.125 278.335C223.949 277.161 223.773 275.987 223.587 274.815C223.437 273.866 223.261 272.921 223.07 271.892L223.069 271.889C222.975 271.38 222.876 270.85 222.775 270.288L202.057 276.186C204.434 281.173 204.034 286.303 202.933 291.552ZM182.953 301.634L182.952 301.635L182.951 301.64C182.859 301.916 182.761 302.211 182.645 302.528C182.469 302.537 182.296 302.546 182.126 302.556C181.953 302.566 181.783 302.576 181.615 302.586L181.611 302.586L181.607 302.587C180.88 302.63 180.196 302.67 179.513 302.682C178.503 302.7 177.493 302.696 176.385 302.692L176.367 302.692C175.875 302.69 175.363 302.688 174.824 302.688C174.88 302.329 174.929 302.006 174.975 301.706L174.976 301.703C175.06 301.152 175.132 300.683 175.207 300.214C175.328 299.453 175.462 298.694 175.595 297.934C175.891 296.249 176.186 294.564 176.351 292.866C176.689 289.367 176.482 285.892 174.657 282.452C182.455 279.794 190.008 277.387 198.097 275.639C198.13 276.318 198.158 276.884 198.183 277.406L198.231 278.405C198.276 279.312 198.306 280.222 198.336 281.13L198.336 281.136C198.403 283.174 198.47 285.212 198.699 287.23C199.166 291.334 201.616 294.037 205.455 295.354C207.439 296.035 209.493 296.523 211.543 297.011L211.544 297.011L211.56 297.015L211.592 297.023L211.679 297.043C211.88 297.091 212.082 297.139 212.283 297.187L212.522 297.244C212.639 297.272 212.755 297.3 212.871 297.329C214.41 297.702 215.458 298.141 217 298.5C217.931 298.716 220.397 299.387 222 300C223.014 300.24 223.489 300.748 224.5 301C225.23 301.182 224.954 301.081 225.652 301.393L226 301.5L226.299 301.613L226.696 301.702C227.011 301.842 227.523 301.947 227.841 302.075L227.912 301.613V301.723L227.876 301.759L227.841 301.901C227.785 301.907 226.356 301.606 226.299 301.613C226.22 301.622 223.763 301.386 222.653 300.183L222.411 300.076C222.268 300.093 222.608 300.145 222 300C220.791 299.713 221.934 299.825 220.724 299.544L219.387 299.288L218.948 299.225C218.948 299.225 217.882 298.648 217 298.5C216.276 298.54 216.569 298.395 216.055 299.297L215.805 299.735C215.805 299.735 215.68 299.954 215.555 300.174C215 301 215 302 214.5 302.5L212.871 302.506C204.663 302.634 204.015 302.37 195.806 302.46C194.453 302.474 193.098 302.394 191.744 302.313H191.742C190.925 302.264 190.107 302.215 189.289 302.187C188.178 302.15 187.381 301.706 186.903 300.684C186.739 300.335 186.52 299.988 186.245 299.726C186.199 299.682 186.15 299.635 186.1 299.585L186.001 299.487L185.999 299.485C185.605 299.092 185.14 298.627 184.884 298.712C184.345 298.892 183.881 299.54 183.568 300.094C183.314 300.546 183.147 301.048 182.953 301.634ZM136.349 286.135C131.401 286.151 126.453 286.167 121.506 286.173C118.529 286.176 118.377 286.002 118.372 282.964C118.37 281.908 118.376 280.852 118.381 279.797L118.381 279.793C118.392 277.585 118.403 275.377 118.352 273.171C118.235 268.197 118.296 263.221 118.357 258.245C118.462 249.631 118.568 241.018 117.753 232.418C117.614 230.953 118.062 230.473 119.548 230.296C119.832 230.263 120.119 230.269 120.407 230.275C120.509 230.277 120.612 230.279 120.714 230.279C125.798 230.282 130.882 230.287 135.966 230.291H135.986L136.688 230.292C136.988 230.292 137.3 230.292 137.642 230.292L138.674 230.292C138.458 228.553 138.282 227.14 138.077 225.502C129.662 226.184 121.304 226.143 112.96 226.011C111.767 225.992 110.576 225.972 109.384 225.951H109.383C103.96 225.857 98.539 225.763 93.1088 225.843V229.788C93.7247 229.788 94.3177 229.784 94.895 229.78H94.8963C96.1275 229.773 97.2874 229.766 98.4465 229.795C101.323 229.871 104.199 229.982 107.074 230.107C109.293 230.202 109.482 230.411 109.522 232.54C109.528 232.805 109.525 233.072 109.522 233.339L109.521 233.472C109.481 238.158 109.441 242.843 109.401 247.528L109.401 247.586C109.301 259.279 109.202 270.972 109.1 282.665C109.076 285.252 108.727 285.595 106.111 285.657C103.624 285.716 101.137 285.774 98.6502 285.833L98.6429 285.833L98.6356 285.833L98.6283 285.833L98.6209 285.833L98.6134 285.833C93.9574 285.943 89.3015 286.052 84.6452 286.166C84.1438 286.179 83.6424 286.222 83.0825 286.271L83.0813 286.271C82.7985 286.296 82.5003 286.322 82.1802 286.345C82.1458 286.98 82.1104 287.606 82.0752 288.226L82.0752 288.227L82.075 288.231L82.0748 288.234C81.957 290.314 81.843 292.327 81.786 294.341C81.7804 294.53 82.0001 294.724 82.2975 294.987C82.4628 295.133 82.652 295.301 82.84 295.5C82.8778 295.255 82.9135 295.025 82.9474 294.807L83.0328 294.258L83.0332 294.256C83.1506 293.503 83.2456 292.893 83.3353 292.282C83.6507 290.126 83.9329 289.843 86.1663 289.8L86.7613 289.788C92.5507 289.675 98.3393 289.562 104.129 289.503C109.612 289.447 115.095 289.407 120.578 289.367L120.622 289.366C125.392 289.331 130.162 289.296 134.932 289.251C136.119 289.239 137.306 289.194 138.494 289.148L138.5 289.148C139.798 289.098 141.096 289.048 142.394 289.043C144.074 289.035 144.407 289.412 144.599 291.061C144.695 291.88 144.785 292.7 144.879 293.54L144.879 293.546L144.879 293.547L144.93 294.004L144.986 294.506H147.493C147.345 291.731 147.201 289.049 147.043 286.113C146.58 286.113 146.153 286.113 145.751 286.112L145.641 286.112H145.631H145.621H145.612C144.83 286.112 144.138 286.111 143.445 286.113C141.141 286.119 138.836 286.127 136.531 286.134L136.349 286.135ZM139.129 222.522C137.602 219.318 135.755 216.568 133.897 213.819C133.189 212.774 132.27 212.167 131.06 212.002C130.029 211.863 128.999 211.717 127.969 211.571C125.084 211.162 122.198 210.753 119.299 210.487C118.869 210.447 118.438 210.409 118.007 210.37L117.993 210.369L117.979 210.368L117.965 210.366L117.95 210.365C113.13 209.934 108.325 209.505 103.724 207.799C97.2515 205.399 92.9063 201.081 90.8793 194.364C88.533 186.588 88.5466 178.745 89.6093 170.815C89.6613 170.428 89.6773 170.037 89.6949 169.606C89.7036 169.391 89.7128 169.167 89.727 168.927C89.4343 168.914 89.1632 168.898 88.9064 168.884C88.3925 168.854 87.9362 168.828 87.48 168.827C86.1374 168.825 84.7946 168.826 83.4518 168.828H83.4364C81.2056 168.83 78.9747 168.832 76.7442 168.817L76.6742 168.816C76.0886 168.813 75.3837 168.809 74.972 168.497C71.8891 166.155 69.7462 163.392 69.8834 159.139C70.0155 155.054 70.8 151.11 71.5884 147.147C71.6481 146.846 71.7079 146.546 71.7674 146.245C73.7741 136.101 75.8829 125.987 79.7317 116.332C80.1321 115.326 80.4951 114.305 80.8918 113.19C81.0862 112.643 81.2889 112.073 81.5078 111.472C78.5653 111.554 75.6453 111.627 72.7403 111.699L71.4979 111.73L71.4962 111.73L71.4945 111.73L71.4927 111.73L71.4907 111.73L71.4818 111.731L71.4797 111.731C63.8805 111.919 56.3771 112.105 48.8369 112.415C48.7678 113.415 48.7011 114.385 48.6358 115.333L48.6357 115.334C48.4877 117.484 48.3472 119.525 48.2034 121.567C47.9896 124.604 47.7622 127.64 47.5348 130.676C47.0191 137.561 46.5034 144.446 46.1461 151.339C45.68 160.351 45.7111 169.388 46.6025 178.377C47.131 183.701 47.819 189.041 48.9216 194.271C50.4008 201.287 53.7017 207.5 59.4083 211.999C64.4425 215.967 70.2016 218.836 76.3646 220.621C81.7481 222.181 87.3243 223.036 92.9463 223.021C104.05 222.99 115.153 222.883 126.257 222.775L126.264 222.775C130.177 222.738 134.09 222.7 138.002 222.665C138.185 222.664 138.367 222.636 138.623 222.596C138.765 222.574 138.929 222.549 139.129 222.522Z" fill="black"/>
<path d="M211.805 267.815C211.989 267.973 212.192 268.148 212.404 268.358C212.598 268.136 212.796 267.941 212.978 267.762C213.361 267.386 213.673 267.081 213.719 266.74C213.763 266.408 213.037 265.774 212.547 265.616C211.875 265.4 210.803 266.384 211.031 266.945C211.157 267.257 211.443 267.503 211.805 267.815Z" fill="black"/>
<path d="M205.938 267.511C206.131 267.324 206.352 267.112 206.618 266.892C206.334 266.726 206.09 266.569 205.87 266.427C205.394 266.12 205.036 265.89 204.648 265.82C204.426 265.781 203.866 266.486 203.811 266.899C203.708 267.664 204.184 268.31 205.004 268.171C205.307 268.12 205.575 267.861 205.938 267.511Z" fill="black"/>
<path d="M189.134 272.751C189.347 272.62 189.589 272.47 189.853 272.334C189.641 272.123 189.463 271.923 189.301 271.742C188.958 271.357 188.695 271.062 188.367 270.941C188.139 270.856 187.295 271.566 187.343 271.783C187.452 272.284 187.855 272.843 188.3 273.095C188.445 273.177 188.739 272.995 189.134 272.751Z" fill="black"/>
<path d="M182.249 276.487C182.465 276.35 182.709 276.196 182.996 276.041C182.724 275.837 182.506 275.65 182.318 275.49C181.977 275.198 181.738 274.994 181.466 274.931C180.752 274.769 180.203 275.258 180.26 275.94C180.294 276.321 180.86 276.925 181.208 276.941C181.511 276.954 181.823 276.756 182.249 276.487Z" fill="black"/>
<path d="M183.962 271.169C184.11 271.376 184.26 271.56 184.399 271.73C184.702 272.102 184.952 272.409 185.012 272.751C185.043 272.922 184.719 273.156 184.396 273.388C184.25 273.493 184.105 273.598 183.992 273.697C183.891 273.57 183.783 273.446 183.676 273.322C183.399 273.004 183.123 272.686 182.972 272.317C182.928 272.208 183.149 271.991 183.445 271.7C183.606 271.543 183.788 271.364 183.962 271.169Z" fill="black"/>
<path d="M178.023 275.549C178.186 275.401 178.37 275.234 178.589 275.057C178.338 274.925 178.124 274.795 177.935 274.68C177.549 274.445 177.267 274.274 176.985 274.275C176.756 274.276 176.332 274.948 176.361 275.285C176.389 275.607 176.947 276.173 177.171 276.128C177.448 276.073 177.692 275.851 178.023 275.549Z" fill="black"/>
<path fill-rule="evenodd" clip-rule="evenodd" d="M135.112 55.5391L136.599 61.4193L134.43 61.6362L135.112 55.5391Z" fill="black"/>
<path fill-rule="evenodd" clip-rule="evenodd" d="M133.399 51.2227C133.399 51.2227 133.489 53.0232 133.09 53.4006C131.416 53.2158 127.648 53.8374 125.758 54.671C126.501 52.9463 133.399 51.2227 133.399 51.2227Z" fill="black"/>
<path fill-rule="evenodd" clip-rule="evenodd" d="M130.514 59.2804C129.975 59.3135 129.438 59.2133 128.937 59.0479C129.121 59.1024 129.319 59.1325 129.524 59.1325C130.549 59.1325 131.383 58.401 131.383 57.5032C131.383 57.1413 131.102 56.7085 130.836 56.4089C132.15 56.5295 133.303 57.2133 133.728 57.4944C133.348 57.9458 132.163 59.1792 130.514 59.2804ZM127.715 57.0557C127.685 57.2104 127.667 57.3797 127.667 57.5032C127.667 58.1549 128.105 58.7181 128.737 58.9779C127.771 58.6199 126.971 58.044 126.629 57.7756C126.828 57.6063 127.198 57.3223 127.715 57.0557ZM134.152 57.2853C134.083 57.2338 132.434 56.0023 130.498 55.977C127.838 55.9468 126.233 57.5713 126.165 57.6404C126.126 57.6802 126.106 57.7357 126.108 57.7921C126.109 57.8475 126.135 57.901 126.177 57.938C126.261 58.0129 128.195 59.6996 130.302 59.6996C130.381 59.6996 130.46 59.6967 130.539 59.6919C132.749 59.5547 134.137 57.6511 134.195 57.5703C134.261 57.4789 134.241 57.3534 134.152 57.2853Z" fill="black"/>
<path fill-rule="evenodd" clip-rule="evenodd" d="M139.584 58.8656C139.111 58.8987 138.637 58.783 138.203 58.602C138.278 58.6166 138.354 58.6263 138.43 58.6263C139.256 58.6263 139.926 57.9552 139.926 57.1303C139.926 56.7694 139.8 56.4309 139.572 56.1634C139.664 56.1575 139.757 56.1546 139.851 56.1546H139.851C140.893 56.1546 141.846 56.889 142.18 57.1779C141.883 57.5894 140.921 58.7693 139.584 58.8656ZM136.467 57.4639C136.575 57.3715 136.737 57.2421 136.947 57.1001C136.987 57.4464 137.136 57.7947 137.372 58.0777C137.435 58.1555 137.503 58.2227 137.574 58.2839C137.073 57.9882 136.674 57.6517 136.467 57.4639ZM142.598 56.999C142.545 56.9474 141.312 55.7422 139.851 55.7422H139.851C137.59 55.7422 136.08 57.2519 136.016 57.3161C135.937 57.3958 135.937 57.5242 136.015 57.605C136.034 57.6235 136.462 58.0602 137.115 58.4853C137.928 59.0154 138.7 59.2839 139.414 59.2839C139.481 59.2839 139.547 59.282 139.613 59.2771C141.441 59.1458 142.58 57.3307 142.628 57.2538C142.679 57.1721 142.666 57.0661 142.598 56.999Z" fill="black"/>
<path fill-rule="evenodd" clip-rule="evenodd" d="M136.267 51.2227C136.267 51.2227 136.176 53.0232 136.576 53.4006C138.249 53.2158 140.944 53.6594 142.833 54.492C142.09 52.7683 136.267 51.2227 136.267 51.2227Z" fill="black"/>
<path fill-rule="evenodd" clip-rule="evenodd" d="M131.561 63.8223C132.589 64.795 133.425 65.3358 134.819 65.4283C136.212 65.5216 137.188 65.0119 137.188 65.0119C137.188 65.0119 136.073 66.9039 134.725 67.2551C131.938 67.9836 132.07 65.7979 131.561 63.8223Z" fill="black"/>
<path d="M40.6094 176.564L40.9708 166.184L95.9016 167.222L98.4313 168.26L299.001 166.184V174.488L40.6094 176.564Z" fill="white"/>
<path d="M101.684 304.232V299.57L92.6498 231.06L85.4221 177.082H88.6745L106.021 307.355H104.524L104.937 307.874L39.8873 306.836L39.285 306.317H36.2734L54.7042 177.601H59.0408L45.6637 265.834H96.9865L98.0706 272.581L44.7934 271.574L40.0733 302.707L101.684 304.232Z" fill="white"/>
<path fill-rule="evenodd" clip-rule="evenodd" d="M290.763 265.839L278.764 175.008H282.378L299.724 306.319L299.001 307.876L234.675 306.838L232.99 306.032L232.868 306.838L229.977 306.319L248.769 175.527H252.744L238.999 266.334L290.763 265.839ZM291.654 272.582L238.129 272.076L233.493 302.71L295.831 304.202L291.654 272.582Z" fill="white"/>
<path fill-rule="evenodd" clip-rule="evenodd" d="M47.4758 270.837C46.2648 270.84 45.0496 270.842 43.8283 270.842C42.8093 274.722 38.8389 301.494 39.0148 303.599C39.2191 303.633 39.4286 303.676 39.6419 303.719C40.1178 303.817 40.6122 303.918 41.1081 303.931C43.7632 303.998 46.4183 304.051 49.0735 304.104C51.8731 304.161 54.6727 304.217 57.4724 304.289C63.5231 304.443 69.5736 304.607 75.6241 304.771C80.3097 304.899 84.9953 305.026 89.681 305.148C91.9356 305.208 94.1907 305.254 96.4458 305.3C98.0299 305.333 99.614 305.365 101.198 305.403C102.521 305.433 102.914 304.805 102.665 302.857C102.048 298.005 101.418 293.156 100.787 288.307C100.615 286.98 100.442 285.653 100.27 284.326C99.9254 281.67 99.5792 279.014 99.2287 276.324C99.0414 274.886 98.8528 273.439 98.6624 271.977C98.2371 271.896 97.8208 271.798 97.4106 271.701C96.5425 271.497 95.7016 271.298 94.8593 271.287C81.7107 271.102 68.5614 270.972 55.4128 270.849C52.7737 270.824 50.1348 270.83 47.4758 270.837ZM40.7759 298.832C42.1351 290.029 43.4538 281.487 44.8064 272.724C53.8565 272.821 62.854 272.916 71.8537 273.011C80.3439 273.101 88.836 273.191 97.3763 273.282C98.2044 279.592 99.0296 285.878 99.861 292.211C100.332 295.796 100.804 299.397 101.281 303.025C88.3452 303.571 75.4721 303.097 62.5593 302.62C55.155 302.347 47.7377 302.074 40.288 301.992L40.7759 298.832Z" fill="black"/>
<path fill-rule="evenodd" clip-rule="evenodd" d="M232.65 303.569C232.52 301.421 236.627 274.053 237.545 270.754C242.329 270.798 247.125 270.842 251.927 270.887C260.565 270.966 269.226 271.046 277.887 271.128C278.696 271.136 279.506 271.141 280.315 271.146C282.779 271.161 285.243 271.177 287.706 271.271C288.752 271.312 289.796 271.485 290.854 271.661C291.339 271.742 291.828 271.823 292.321 271.892L292.719 274.94C293.139 278.16 293.545 281.27 293.948 284.381C294.119 285.704 294.291 287.027 294.462 288.35C295.082 293.122 295.701 297.895 296.308 302.671C296.597 304.951 296.113 305.627 294.486 305.34C294.316 305.311 294.146 305.275 293.976 305.24C293.522 305.146 293.067 305.051 292.614 305.062C278.599 305.394 264.592 304.931 250.585 304.278C247.245 304.123 243.902 304.077 240.559 304.031C238.619 304.005 236.678 303.978 234.738 303.93C234.247 303.918 233.756 303.808 233.282 303.702C233.068 303.653 232.857 303.606 232.65 303.569ZM238.474 272.723L237.477 279.192L237.474 279.21C236.303 286.798 235.148 294.286 233.959 301.992C241.414 302.075 248.834 302.347 256.242 302.62C269.136 303.093 281.996 303.566 294.942 303.034C293.645 293.105 292.361 283.281 291.054 273.284C273.523 273.097 256.083 272.911 238.474 272.723Z" fill="black"/>
<path fill-rule="evenodd" clip-rule="evenodd" d="M229.454 307.074C230.394 300.253 231.321 293.475 232.244 286.73C234.331 271.48 236.396 256.391 238.533 241.323C239.575 233.977 240.573 226.617 241.573 219.248L241.573 219.247C243.515 204.926 245.462 190.571 247.745 176.213C247.446 176.213 247.137 176.212 246.82 176.212C246.118 176.21 245.379 176.208 244.641 176.214C223.738 176.389 202.835 176.564 181.932 176.744C176.41 176.792 170.888 176.838 165.366 176.885L165.362 176.885C143.264 177.072 121.165 177.259 99.0665 177.499C96.9434 177.522 94.8216 177.763 92.6421 178.011C91.6111 178.128 90.5672 178.246 89.5042 178.344C89.5856 178.997 89.666 179.653 89.7467 180.31L89.7471 180.313C89.9266 181.775 90.1069 183.245 90.3006 184.711L90.3097 184.78C93.1403 206.245 95.9709 227.709 98.8116 249.171C100.293 260.355 101.78 271.538 103.267 282.722L103.274 282.769C104.14 289.283 105.006 295.797 105.871 302.311L105.909 302.593C106.099 304.022 106.289 305.451 106.452 306.887C106.63 308.467 106.465 308.758 105.31 308.75C104.067 308.741 102.824 308.71 101.581 308.68C100.47 308.653 99.3589 308.626 98.2479 308.614C93.2586 308.559 88.2692 308.506 83.2799 308.452C69.1467 308.302 55.0135 308.151 40.8803 307.962C39.8176 307.947 38.7558 307.722 37.643 307.485C37.1091 307.372 36.5632 307.256 36 307.16C36.02 306.76 36.0308 306.394 36.0409 306.053C36.0605 305.387 36.0775 304.812 36.1544 304.255C38.4973 287.263 40.8523 270.273 43.2071 253.284L43.8317 248.779C45.2702 238.401 46.7092 228.023 48.1483 217.645L48.1547 217.599C49.0662 211.025 49.9778 204.451 50.8893 197.877C51.486 193.57 52.0833 189.264 52.6907 184.884L53.6856 177.71C53.3748 177.71 53.0624 177.71 52.7488 177.711C52.1185 177.712 51.4829 177.713 50.8476 177.71C50.1164 177.707 49.3852 177.704 48.6541 177.701C46.399 177.692 44.1438 177.684 41.8885 177.654C40.3438 177.632 39.8634 177.067 39.8591 174.974C39.8534 172.447 39.9252 169.911 40.0825 167.393C40.2139 165.291 40.4501 165.067 41.933 165.1C48.4359 165.243 54.9388 165.395 61.4417 165.548C63.8375 165.605 66.2336 165.661 68.6295 165.717L73.5463 165.832C80.9218 166.004 88.2972 166.177 95.6727 166.343C95.9241 166.348 96.1754 166.319 96.4268 166.291C96.6323 166.267 96.8379 166.244 97.0436 166.239C97.0841 166.238 97.1286 166.235 97.1752 166.233C97.4363 166.22 97.7638 166.204 97.8199 166.36C98.2506 167.563 98.9517 167.497 99.6412 167.432C99.7874 167.418 99.933 167.404 100.075 167.403C114.72 167.221 129.364 167.035 144.009 166.849L144.01 166.849C162.844 166.61 181.68 166.371 200.515 166.141C217.095 165.938 233.675 165.75 250.255 165.563C258.541 165.469 266.828 165.375 275.114 165.28C280.753 165.215 286.393 165.148 292.033 165.08L297.682 165.012C297.766 165.011 297.85 165.009 297.934 165.007C298.137 165.001 298.34 164.996 298.544 165.005C299.859 165.062 300.101 165.418 300.141 167.346C300.143 167.477 300.137 167.609 300.13 167.741C300.124 167.853 300.118 167.966 300.118 168.079C300.117 169.96 300.117 171.843 300.117 173.737L300.117 175.175C297.706 175.788 295.425 175.776 293.178 175.764C292.567 175.761 291.958 175.757 291.35 175.767C290.115 175.785 288.88 175.79 287.646 175.794C286.698 175.798 285.75 175.801 284.803 175.811C284.421 175.816 284.039 175.846 283.614 175.879C283.413 175.895 283.202 175.912 282.977 175.927C283.076 176.818 283.169 177.693 283.26 178.556L283.261 178.559C283.457 180.412 283.648 182.213 283.883 184.001C284.986 192.384 286.099 200.764 287.212 209.144L287.215 209.164C287.996 215.045 288.777 220.926 289.555 226.808C290.639 235.011 291.719 243.215 292.798 251.419L292.805 251.468C293.717 258.402 294.63 265.335 295.545 272.268C296.593 280.206 297.646 288.144 298.698 296.081L298.767 296.6C299.137 299.39 299.507 302.18 299.877 304.969C299.889 305.058 299.902 305.146 299.915 305.234C299.921 305.272 299.926 305.309 299.932 305.346C299.949 305.46 299.967 305.574 299.982 305.688L299.984 305.706C300.189 307.219 300.292 307.978 300.074 308.356C299.854 308.736 299.309 308.729 298.214 308.715L298.111 308.714C291.144 308.63 284.176 308.558 277.208 308.486L277.205 308.486C272.344 308.436 267.483 308.386 262.622 308.332C261.306 308.317 259.99 308.303 258.674 308.289C250.515 308.2 242.356 308.111 234.197 307.952C233.22 307.934 232.246 307.705 231.159 307.449C230.622 307.323 230.058 307.191 229.454 307.074ZM41.1977 175.64H96.3937L96.3971 175.608C96.638 173.289 96.8825 170.936 96.6723 168.361C84.2204 168.089 71.8402 167.819 59.4381 167.548L41.5474 167.157C41.4303 170 41.3241 172.577 41.1977 175.64ZM105.09 306.783C99.3796 263.678 93.7144 220.913 88.0299 178.001L86.4694 178.318C88.3417 192.687 90.2077 207.011 92.0724 221.324C94.0282 236.337 95.9825 251.339 97.9412 266.372C97.4918 266.471 97.0591 266.592 96.6376 266.709C95.764 266.951 94.9384 267.18 94.1116 267.187C78.3778 267.322 62.644 267.393 46.911 267.462C46.3425 267.465 45.7744 267.403 45.1535 267.336C44.8497 267.303 44.5332 267.268 44.1979 267.24L46.0794 255.07C47.7595 244.203 49.4279 233.412 51.0947 222.62C52.6343 212.65 54.1726 202.679 55.7177 192.665L55.7329 192.566C56.4859 187.685 57.2406 182.794 57.9978 177.887H55.4342C53.6404 187.341 52.3746 196.912 51.1108 206.468C50.5011 211.078 49.8918 215.684 49.224 220.273C47.7958 230.083 46.4517 239.918 45.1076 249.752C44.5148 254.09 43.9219 258.428 43.3218 262.764L37.4111 305.443C37.7333 305.443 38.0271 305.434 38.3012 305.426C38.8772 305.408 39.3662 305.394 39.8483 305.47C40.1433 305.516 40.4348 305.642 40.7252 305.768C41.0782 305.921 41.4295 306.074 41.7837 306.08C45.841 306.153 49.8983 306.192 53.9556 306.232C55.9843 306.251 58.0129 306.271 60.0416 306.295C67.3062 306.381 74.5706 306.47 81.835 306.559H81.8364C87.8914 306.634 93.9464 306.708 100.001 306.781C101.069 306.793 102.136 306.79 103.293 306.786C103.866 306.785 104.462 306.783 105.09 306.783ZM291.613 266.398C291.118 266.501 290.653 266.621 290.206 266.736C289.3 266.97 288.473 267.183 287.646 267.19C271.975 267.322 256.304 267.392 240.633 267.461L240.627 267.461C240.058 267.464 239.488 267.404 238.859 267.339C238.545 267.306 238.216 267.272 237.866 267.243C240.076 252.938 242.282 238.668 244.487 224.404L244.984 221.183C247.296 206.227 249.607 191.275 251.923 176.294H249.577C247.782 181.955 233.996 284.67 231.563 302.8L231.558 302.836C231.386 304.119 231.272 304.973 231.223 305.331C231.368 305.331 231.51 305.329 231.65 305.327C231.961 305.323 232.261 305.32 232.559 305.336C232.891 305.353 233.227 305.388 233.551 305.477C233.801 305.545 234.05 305.64 234.299 305.735C234.754 305.908 235.207 306.082 235.662 306.088C256.212 306.363 276.762 306.601 297.311 306.834C297.596 306.837 297.882 306.781 298.205 306.717C298.371 306.685 298.548 306.65 298.74 306.621C293.974 270.664 289.227 234.85 284.484 199.07L281.425 175.989H279.837C282.333 195.15 284.821 214.256 287.313 233.385L291.613 266.398ZM97.8579 175.419C135.772 175.144 173.651 174.812 211.541 174.48C240.553 174.226 269.572 173.971 298.617 173.743V166.95C291.883 167.037 285.155 167.125 278.431 167.214C262.862 167.419 247.316 167.624 231.77 167.802C223.34 167.899 214.91 167.974 206.48 168.049C192.634 168.172 178.789 168.295 164.944 168.516C156.217 168.656 147.491 168.737 138.761 168.819C125.241 168.945 111.715 169.071 98.1753 169.414C98.1089 170.662 98.0493 171.793 97.9883 172.949C97.9464 173.744 97.9039 174.552 97.8579 175.419ZM96.3427 265.281L91.3242 226.832C89.1944 210.515 87.0726 194.259 84.9442 177.954H59.447L54.8766 207.54C51.9099 226.745 48.9365 245.993 45.9566 265.281H96.3427ZM289.826 264.047L289.826 264.045C289.756 263.334 289.699 262.756 289.624 262.182C289.26 259.414 288.893 256.647 288.526 253.88L288.524 253.871C288.009 249.991 287.494 246.111 286.989 242.228C285.887 233.771 284.787 225.314 283.687 216.856L283.669 216.715C282.033 204.128 280.396 191.541 278.753 178.956C278.66 178.252 278.503 177.566 278.362 176.952C278.3 176.685 278.242 176.432 278.194 176.197H253.409L248.132 210.276C245.29 228.629 242.456 246.936 239.617 265.271H289.949C289.902 264.816 289.862 264.414 289.826 264.047Z" fill="black"/>
</svg>
