<svg width="27" height="26" viewBox="0 0 27 26" fill="none" xmlns="http://www.w3.org/2000/svg">
<path d="M24.9752 9.24375C28.1989 18.2211 20.4846 25 13.4341 25C6.38355 25 0.667969 19.5862 0.667969 12.908C0.667969 6.22977 6.27732 -0.527566 17.4316 1.30456" stroke="white" stroke-linecap="round"/>
<path d="M21.6212 12.1849C22.137 18.1088 17.1623 20.4675 12.9909 20.41C8.8195 20.3524 5.48707 17.1101 5.54769 13.168C5.6083 9.22596 8.33932 4.91747 14.5934 5.22283" stroke="white" stroke-linecap="round"/>
<path d="M17.2491 12.4709C17.5105 15.4723 14.9899 16.6675 12.8763 16.6383C10.7628 16.6092 9.07433 14.9663 9.10505 12.969C9.13576 10.9716 10.5195 8.78863 13.6883 8.94335" stroke="white" stroke-linecap="round"/>
<path d="M13.1998 12.4331C12.9992 12.6228 12.9989 12.9307 13.1991 13.1208C13.3994 13.3109 13.7245 13.3112 13.9252 13.1216L13.1998 12.4331ZM18.4384 8.85528L18.8018 8.51181L18.0765 7.82339L17.7131 8.16686L18.4384 8.85528ZM13.9252 13.1216L18.4384 8.85528L17.7131 8.16686L13.1998 12.4331L13.9252 13.1216Z" fill="white"/>
<path d="M24.3945 5.45703L20.9129 8.63271" stroke="white" stroke-linecap="round"/>
<path d="M17.5915 5.96723C17.3881 6.15399 17.3833 6.46184 17.5808 6.65483C17.7783 6.84783 18.1033 6.85288 18.3067 6.66612L17.5915 5.96723ZM21.4549 2.42009L17.5915 5.96723L18.3067 6.66612L22.1701 3.11898L21.4549 2.42009Z" fill="white"/>
<path d="M20.7852 8.64453L18.2031 8.63377" stroke="white" stroke-linecap="round"/>
<line y1="-0.5" x2="2.44578" y2="-0.5" transform="matrix(0.00392559 0.999992 -0.999994 0.00352195 17.3047 6.06836)" stroke="white"/>
<path d="M21.8164 2.76953V5.21226" stroke="white" stroke-linecap="round"/>
<path d="M24.3594 5.33398L22.0384 5.21185" stroke="white" stroke-linecap="round"/>
</svg>
