<svg width="36" height="36" viewBox="0 0 36 36" fill="none" xmlns="http://www.w3.org/2000/svg">
<path d="M0 10C0 4.47715 4.47715 0 10 0H26C31.5228 0 36 4.47715 36 10V26C36 31.5228 31.5228 36 26 36H10C4.47715 36 0 31.5228 0 26V10Z" fill="url(#paint0_linear_207771_930)"/>
<path d="M24.5665 9.48888C25.6222 9.05263 26.7587 9.90952 26.6297 11.0446L24.6047 28.865C24.5195 29.6143 23.6672 30.0033 23.0454 29.5767L13.6774 23.15C13.1539 22.7908 13.0932 22.0411 13.5522 21.6024L19.4641 15.9522C19.7328 15.6954 19.3868 15.2757 19.0834 15.4905L11.0499 21.1788C10.8045 21.3525 10.494 21.4067 10.2043 21.3262L4.46232 19.7312C3.54575 19.4766 3.4689 18.2068 4.34807 17.8435L24.5665 9.48888Z" fill="white"/>
<defs>
<linearGradient id="paint0_linear_207771_930" x1="18" y1="0" x2="18" y2="36" gradientUnits="userSpaceOnUse">
<stop offset="0.135" stop-color="#32B4FF"/>
<stop offset="1" stop-color="#1E6C99"/>
</linearGradient>
</defs>
</svg>
