<svg width="28" height="16" viewBox="0 0 28 16" fill="none" xmlns="http://www.w3.org/2000/svg">
<path d="M18.7499 8.00033C18.7499 10.6771 16.6159 12.8337 13.9998 12.8337C11.3838 12.8337 9.24976 10.6771 9.24976 8.00033C9.24976 5.3235 11.3838 3.16699 13.9998 3.16699C16.6159 3.16699 18.7499 5.3235 18.7499 8.00033Z" stroke="white"/>
<path d="M27.4447 7.95421C24.8854 12.1709 20.7333 15.5 13.5625 15.5C9.91498 15.5 7.28242 14.5288 5.24497 13.0914C3.28353 11.7077 1.84639 9.87321 0.584599 7.97773C1.64008 6.11424 3.07184 4.29043 5.07602 2.91196C7.16871 1.47263 9.91246 0.5 13.5625 0.5C17.2083 0.5 20.3991 1.58173 22.8345 3.09162C25.1737 4.54189 26.7782 6.36224 27.4447 7.95421Z" stroke="white"/>
</svg>
