<svg width="40" height="40" viewBox="0 0 40 40" fill="none" xmlns="http://www.w3.org/2000/svg">
<rect width="40" height="40" rx="5" fill="#3375F6"/>
<path d="M8.75081 10.6786L8.73595 11.624C8.72704 12.1909 8.76635 12.7575 8.85346 13.3177L9.46168 17.2292C9.88017 19.9205 11.3783 22.3247 13.6099 23.8861L14.3661 24.4152C14.7542 24.6868 15.1611 24.9304 15.5837 25.1443L17.0589 25.8908C18.4591 26.5994 20.0065 26.9686 21.5758 26.9683L22.3006 26.9682" stroke="white" stroke-width="3"/>
<path d="M20.7449 10.373L20.7449 28.0062" stroke="white" stroke-width="3"/>
<path d="M20.6901 20.6903L23.8692 19.882C25.9986 19.3406 27.8748 18.0784 29.1789 16.3101V16.3101C30.3844 14.6754 31.0348 12.6976 31.0348 10.6664L31.0348 10.3444" stroke="white" stroke-width="3"/>
<path d="M21.4155 21.3096L26.6744 22.2805C28.0602 22.5363 29.3618 23.1292 30.4644 24.0069V24.0069V24.0069C31.5259 24.8519 32.1463 26.1332 32.1509 27.49L32.1545 28.5241" stroke="white" stroke-width="3"/>
</svg>
