<svg width="40" height="40" viewBox="0 0 40 40" fill="none" xmlns="http://www.w3.org/2000/svg">
<circle cx="19.9995" cy="20" r="20" fill="#E85032"/>
<path d="M25.5938 27H21.8633V21.668H19.8223L16.1602 27H11.7168L16.0625 20.9746C15.1836 20.597 14.4935 20.0632 13.9922 19.373C13.4974 18.6829 13.25 17.778 13.25 16.6582C13.25 15.916 13.4128 15.2682 13.7383 14.7148C14.0703 14.1615 14.4902 13.709 14.998 13.3574C15.4408 13.0514 15.9779 12.8268 16.6094 12.6836C17.2474 12.5339 17.9766 12.459 18.7969 12.459H25.5938V27ZM21.8633 19.0508V15.1348H20.0078C19.4414 15.1348 19.0052 15.1543 18.6992 15.1934C18.3932 15.2259 18.097 15.3496 17.8105 15.5645C17.5892 15.7272 17.4199 15.9421 17.3027 16.209C17.1855 16.4694 17.127 16.7591 17.127 17.0781C17.127 17.4102 17.1888 17.7096 17.3125 17.9766C17.4362 18.237 17.6087 18.4518 17.8301 18.6211C18.0775 18.8164 18.3672 18.9368 18.6992 18.9824C19.0378 19.028 19.4805 19.0508 20.0273 19.0508H21.8633Z" fill="white"/>
</svg>
